<?xml version="1.0" encoding="UTF-8"?>
<svg width="100px" height="61px" viewBox="0 0 100 61" version="1.1" xmlns="http://www.w3.org/2000/svg" xmlns:xlink="http://www.w3.org/1999/xlink">
    <!-- Generator: Sketch 63.1 (92452) - https://sketch.com -->
    <title>logotipo</title>
    <desc>Created with Sketch.</desc>
    <g id="Cerfificados-correcciones-v2" stroke="none" stroke-width="1" fill="none" fill-rule="evenodd">
        <g id="Certificado-de-consumo_mínimos" transform="translate(-1027.000000, -79.000000)">
            <g id="logotipo" transform="translate(1027.000000, 79.000000)">
                <path d="M11.21467,49.5301172 C10.47442,48.9180826 9.90885333,48.6561192 9.03857,48.6561192 C7.32698667,48.6561192 5.94832,49.8502947 5.94832,52.1670579 C5.94832,54.4539275 7.18207,55.6630497 9.09653667,55.6630497 C9.96682,55.6630497 11.1128367,55.3578191 11.79512,54.9935878 C11.98312,54.8913198 11.98312,54.8331057 11.98312,54.6584634 L11.98312,53.2156981 L10.1986867,53.2156981 L10.1986867,52.0065758 L13.23097,52.0065758 C13.40487,52.0065758 13.47772,52.0356829 13.47772,52.196165 L13.47772,56.9893869 L12.4335367,56.9893869 L12.0998367,56.0854952 L11.5193867,56.3915125 C10.5464867,56.9020657 9.69108667,57.1349221 8.87877,57.1349221 C6.19507,57.1349221 4.35345333,54.9935878 4.35345333,52.1670579 C4.35345333,49.3263679 6.47002,47.1842469 9.12552,47.1842469 C10.9969033,47.1842469 12.4758367,48.2045667 13.23097,49.6905993 L12.2149867,50.3608479 L11.21467,49.5301172 Z" id="Fill-1" fill="#004571"></path>
                <path d="M16.6528833,50.7685038 C17.7409333,50.0400411 18.3785667,49.7631309 18.8571833,49.7631309 C19.1337,49.7631309 19.4094333,49.850452 19.6405167,49.95272 L19.6405167,50.9289859 C18.88695,51.0745211 17.8568667,51.3655916 16.9137333,51.6865557 C16.7978,51.7298229 16.7680333,51.788037 16.7680333,51.919412 L16.7680333,56.9895442 L15.3032,56.9895442 L15.3032,49.879559 L16.3763667,49.879559 L16.6528833,50.7685038 Z" id="Fill-3" fill="#004571"></path>
                <path d="M25.86316,56.9893082 L25.6453933,56.3772736 L25.2255267,56.5959698 C24.60121,56.9161473 23.9627933,57.1057364 23.3682433,57.1057364 C22.58491,57.1057364 21.84466,56.843773 21.3519433,56.3340064 C20.9171933,55.8816672 20.66966,55.2554725 20.66966,54.3382073 L20.66966,49.8801097 L22.1352767,49.8801097 L22.1352767,54.2650464 C22.1352767,54.8479739 22.22301,55.1390443 22.4540933,55.3719006 C22.7008433,55.6197039 23.1073933,55.7219718 23.67296,55.7219718 C24.2526267,55.7219718 24.93491,55.5614898 25.36966,55.3577405 C25.4573933,55.3136866 25.48716,55.2704193 25.48716,55.1681514 L25.48716,49.8801097 L26.95121,49.8801097 L26.95121,56.9893082 L25.86316,56.9893082 Z" id="Fill-5" fill="#004571"></path>
                <path d="M30.5914383,50.3459797 C31.3457883,49.9384811 31.897255,49.7630522 32.534105,49.7630522 C34.261355,49.7630522 35.610255,51.2349245 35.610255,53.434473 C35.610255,55.6489682 34.348305,57.1058937 32.4769217,57.1058937 C31.852605,57.1058937 31.215755,56.9021444 30.517805,56.5229662 L30.2726217,56.3915912 L30.2726217,60.3249753 L28.807005,60.3249753 L28.807005,49.8794804 L29.8942717,49.8794804 L30.141805,50.5937829 L30.5914383,50.3459797 Z M30.2726217,55.0809876 C30.2726217,55.1824689 30.2859383,55.2265228 30.3877717,55.2847369 C30.7943217,55.5175932 31.5627717,55.7512362 32.2152883,55.7512362 C33.347205,55.7512362 34.1164383,55.2265228 34.1164383,53.434473 C34.1164383,51.7446911 33.3769717,51.1476034 32.230955,51.1476034 C31.5486717,51.1476034 30.7794383,51.3946199 30.3877717,51.6133161 C30.301605,51.65737 30.2726217,51.7006372 30.2726217,51.8029052 L30.2726217,55.0809876 Z" id="Fill-7" fill="#004571"></path>
                <path d="M40.1498283,57.1057364 L40.0918617,57.1057364 C38.2345783,57.1057364 36.6091617,55.7510789 36.6091617,53.4343156 C36.6091617,51.118339 38.2345783,49.7636815 40.0918617,49.7636815 L40.1498283,49.7636815 C42.0063283,49.7636815 43.6309617,51.118339 43.6309617,53.4343156 C43.6309617,55.7510789 42.0063283,57.1057364 40.1498283,57.1057364 M40.1498283,51.118339 L40.0918617,51.118339 C38.771945,51.118339 38.104545,51.9773901 38.104545,53.4343156 C38.104545,54.8912411 38.771945,55.7510789 40.0918617,55.7510789 L40.1498283,55.7510789 C41.469745,55.7510789 42.137145,54.8912411 42.137145,53.4343156 C42.137145,51.9773901 41.469745,51.118339 40.1498283,51.118339" id="Fill-9" fill="#004571"></path>
                <path d="M47.981595,47.3302541 L49.083745,47.3302541 C49.2584283,47.3302541 49.316395,47.345201 49.4323283,47.4907362 L53.348995,52.4586003 C54.1025617,53.4049726 54.683795,54.1774892 55.0167117,54.6432019 L55.0167117,47.3302541 L56.5113117,47.3302541 L56.5113117,56.9890722 L55.3942783,56.9890722 C55.219595,56.9890722 55.1624117,56.9741253 55.0464783,56.8285901 L51.1298117,51.860726 C50.3887783,50.9285139 49.809895,50.1709441 49.4746283,49.7052314 L49.4746283,56.9890722 L47.981595,56.9890722 L47.981595,47.3302541 Z" id="Fill-11" fill="#004571"></path>
                <path d="M62.761685,52.4440468 C62.761685,51.9342802 62.6598517,51.6133161 62.413885,51.3954066 C62.167135,51.1767105 61.7895683,51.0744425 61.2678683,51.0744425 C60.7305017,51.0744425 60.1210683,51.2349245 59.5132017,51.4386738 L58.8740017,51.65737 L58.4243683,50.8557463 C59.3526183,50.2004445 60.4265683,49.7638389 61.4558683,49.7638389 C62.341035,49.7638389 63.0515183,50.0258023 63.5309183,50.5355688 C63.9656683,51.0020682 64.2265183,51.628263 64.2265183,52.5164211 L64.2265183,55.8385573 L65.212735,55.9982527 L65.212735,56.7558225 C64.9088017,56.9021444 64.444285,57.0185726 64.082385,57.0185726 C63.5450183,57.0185726 63.1243683,56.7416623 62.907385,56.377431 L62.500835,56.5961271 C61.8632017,56.9454116 61.2240017,57.1058937 60.658435,57.1058937 C59.1058683,57.1058937 58.0468017,56.0572535 58.0468017,54.7309164 C58.0468017,53.4785269 58.9460683,52.7791712 60.498635,52.7791712 L60.5425017,52.7791712 C61.1511517,52.7791712 62.1522517,52.8664923 62.761685,52.9687603 L62.761685,52.4440468 Z M62.761685,55.2414696 L62.761685,54.0465075 C62.761685,53.9300794 62.7327017,53.9009723 62.6167683,53.9009723 L60.3678183,53.9009723 C60.0490017,53.9009723 59.817135,53.9591864 59.6722183,54.1047216 C59.5555017,54.2211498 59.483435,54.4107389 59.483435,54.6727023 C59.483435,55.3287908 59.918185,55.8527175 60.8613183,55.8527175 C61.426885,55.8527175 62.2251017,55.6489682 62.646535,55.4302721 C62.7327017,55.3870048 62.761685,55.3429509 62.761685,55.2414696 L62.761685,55.2414696 Z" id="Fill-13" fill="#004571"></path>
                <path d="M70.94227,56.2752417 C70.3179533,56.741741 69.3897033,57.1059724 68.6502367,57.1059724 C67.9828367,57.1059724 67.4603533,56.9014364 67.09767,56.5521519 C66.7060033,56.1729737 66.50312,55.6199399 66.50312,54.8623701 L66.50312,51.016307 L65.1973033,51.016307 L65.1973033,50.1423091 L66.50312,49.8945059 L66.50312,47.8255458 L67.9679533,47.8255458 L67.9679533,49.879559 L70.43467,49.879559 L70.43467,51.016307 L67.9679533,51.016307 L67.9679533,54.804156 C67.9679533,55.1974944 68.0408033,55.4303507 68.2006033,55.5908328 C68.34552,55.736368 68.5766033,55.8087423 68.8969867,55.8087423 C69.2158033,55.8087423 69.60747,55.7214212 70.0132367,55.6199399 L70.5936867,55.473618 L70.94227,56.2752417 Z" id="Fill-15" fill="#004571"></path>
                <path d="M77.1056933,56.9893082 L76.88871,56.3772736 L76.46806,56.5959698 C75.8445267,56.9161473 75.2053267,57.1057364 74.6107767,57.1057364 C73.8274433,57.1057364 73.0871933,56.843773 72.5944767,56.3340064 C72.1597267,55.8816672 71.9121933,55.2554725 71.9121933,54.3382073 L71.9121933,49.8801097 L73.37781,49.8801097 L73.37781,54.2650464 C73.37781,54.8479739 73.4655433,55.1390443 73.6966267,55.3719006 C73.94416,55.6197039 74.3499267,55.7219718 74.9154933,55.7219718 C75.49516,55.7219718 76.1774433,55.5614898 76.6121933,55.3577405 C76.6999267,55.3136866 76.7296933,55.2704193 76.7296933,55.1681514 L76.7296933,49.8801097 L78.1945267,49.8801097 L78.1945267,56.9893082 L77.1056933,56.9893082 Z" id="Fill-17" fill="#004571"></path>
                <path d="M81.3987517,50.7685038 C82.4868017,50.0400411 83.1252183,49.7631309 83.6030517,49.7631309 C83.8795683,49.7631309 84.1553017,49.850452 84.386385,49.95272 L84.386385,50.9289859 C83.6328183,51.0745211 82.602735,51.3655916 81.6596017,51.6865557 C81.5436683,51.7298229 81.514685,51.788037 81.514685,51.919412 L81.514685,56.9895442 L80.0498517,56.9895442 L80.0498517,49.879559 L81.1230183,49.879559 L81.3987517,50.7685038 Z" id="Fill-19" fill="#004571"></path>
                <path d="M90.914215,52.5458428 C90.914215,54.1774106 89.5355483,55.3283188 87.8819317,55.3283188 C87.5192483,55.3283188 87.1722317,55.2701047 86.8377483,55.1678367 C86.7515817,55.1387296 86.721815,55.1678367 86.6779483,55.2551578 L86.547915,55.5179079 C86.475065,55.6634431 86.4460817,55.736604 86.4460817,55.8089783 C86.4460817,55.9254065 86.5330317,55.9985674 86.721815,55.9985674 L88.8540483,55.9985674 C89.7971817,55.9985674 90.4496983,56.2172636 90.8703483,56.610602 C91.2330317,56.9457263 91.421815,57.4263859 91.421815,57.9794197 C91.421815,59.5095061 89.9569817,60.5581463 87.8529483,60.5581463 C85.546815,60.5581463 84.3428317,59.3781311 84.3428317,58.1690088 C84.3428317,57.513707 84.7344983,57.0621545 85.2420983,56.7561372 C85.0681983,56.5665481 84.9812483,56.3336917 84.9812483,56.1441026 C84.9812483,55.8671924 85.1112817,55.634336 85.4308817,55.2409976 L85.894615,54.673017 C85.2561983,54.1774106 84.8504317,53.4347876 84.8504317,52.5458428 C84.8504317,50.9142751 86.2290983,49.7633669 87.8819317,49.7633669 C88.6080817,49.7633669 89.2746983,49.982063 89.7971817,50.3754014 C90.420715,49.8656349 90.841365,49.6469387 91.219715,49.6469387 C91.4648983,49.6469387 91.741415,49.7633669 91.9583983,49.9380091 L91.9583983,50.753793 L90.6384817,51.0015962 C90.507665,51.0307032 90.493565,51.0889173 90.5515317,51.1911853 C90.7833983,51.5845237 90.914215,52.0502364 90.914215,52.5458428 L90.914215,52.5458428 Z M86.5909983,57.2659038 C86.2431983,57.2659038 86.040315,57.3241179 85.894615,57.4554929 C85.7786817,57.5719211 85.7073983,57.7324031 85.7073983,57.9943665 C85.7073983,58.8101504 86.4907317,59.319917 87.8529483,59.319917 C89.085915,59.319917 90.044715,58.9124184 90.044715,58.0085267 C90.044715,57.7615102 89.9710817,57.5860813 89.826165,57.4696531 C89.6373817,57.3241179 89.318565,57.2659038 88.8101817,57.2659038 L86.5909983,57.2659038 Z M87.8819317,51.0015962 C86.895715,51.0015962 86.2580817,51.5113628 86.2580817,52.5458428 C86.2580817,53.5803228 86.895715,54.0900894 87.8819317,54.0900894 C88.869715,54.0900894 89.5073483,53.5803228 89.5073483,52.5458428 C89.5073483,51.5113628 88.869715,51.0015962 87.8819317,51.0015962 L87.8819317,51.0015962 Z" id="Fill-21" fill="#004571"></path>
                <path d="M98.3696683,50.0401984 C98.4268517,49.9088234 98.455835,49.8797164 98.601535,49.8797164 L99.9206683,49.8797164 L95.612335,60.3543183 L94.2642183,60.0632479 L95.5833517,57.0329688 L92.4946683,49.8797164 L93.8279017,49.8797164 C93.974385,49.8797164 94.016685,49.8946632 94.075435,50.0401984 L95.4823017,53.3473878 C95.8019017,54.1049576 96.1207183,54.9349017 96.2805183,55.474562 C96.4403183,54.9640087 96.745035,54.1631717 97.078735,53.332441 L98.3696683,50.0401984 Z" id="Fill-23" fill="#004571"></path>
                <path d="M28.9046867,34.3758107 C26.4042867,35.9774848 23.4260533,36.8916032 20.2402367,36.8916032 C11.2796867,36.8916032 4.01662,29.5951757 4.01662,20.5971661 C4.01662,18.6949815 4.29235333,16.7243561 4.97698667,14.7726108 C8.24505333,5.45285044 17.0834033,3.04168596 20.0561533,4.877003 C23.90232,7.24962032 17.8479367,13.1945371 24.15612,18.7044216 C29.5337033,23.4008823 34.22117,19.3943372 35.97192,20.9621841 C37.8127533,22.6086987 34.35042,30.889259 28.9046867,34.3758107" id="Fill-25" fill="#E57200"></path>
                <path d="M6.99046667,0.61824932 C1.6591,2.92950584 0.0477833333,8.44489709 0.00156666667,11.7009525 C-0.0336833333,14.1538108 0.550683333,14.9994884 1.00971667,15.0364622 C1.51026667,15.0773694 1.89801667,14.1553842 2.0821,13.3183601 C3.33621667,7.60157953 7.26776667,4.20942905 10.2507,2.65731566 C13.3542667,1.04226813 10.8648333,-1.06209239 6.99046667,0.61824932" id="Fill-27" fill="#E57200"></path>
                <path d="M84.6506033,23.8229344 C84.6506033,18.6812147 86.3731533,16.4879597 90.4151533,16.4879597 L90.53892,16.4879597 C94.0012533,16.4879597 95.86872,18.7693225 95.86872,20.9153769 L95.86872,30.8070513 C95.86872,31.1988164 95.61727,31.5213539 95.12377,31.7699437 C93.78427,32.3615247 92.1682533,32.6887823 90.5796533,32.6887823 L90.2201033,32.6887823 C86.3097033,32.6887823 84.6506033,30.5191276 84.6506033,25.437982 L84.6506033,23.8229344 Z M98.6613033,5.91659643 L97.17062,5.91659643 C96.0747367,5.91659643 95.86872,6.11169229 95.86872,7.14695899 L95.86872,15.3850387 C94.3169367,13.780218 92.0507533,12.8645262 89.6138033,12.8645262 L89.37567,12.8645262 C83.7999033,12.8645262 80.47152,16.7931903 80.47152,23.3792487 L80.47152,25.6370112 C80.47152,32.8225173 83.6220867,36.3153625 90.09712,36.3153625 L90.5028867,36.3153625 C94.13442,36.3153625 96.3630033,35.6167934 98.7772367,34.4886989 C99.82377,34.0528799 99.9216867,33.5942473 99.9216867,31.6550889 L99.9216867,7.18629284 C99.9216867,6.1179857 99.7242867,5.91659643 98.6613033,5.91659643 L98.6613033,5.91659643 Z" id="Fill-29" fill="#004571"></path>
                <path d="M61.28988,13.0310657 L60.6326633,13.0310657 C59.43573,13.0310657 58.9014967,13.5675793 58.9014967,14.7719815 L58.9014967,29.8171759 C58.9014967,30.1703938 58.9014967,30.1703938 58.6406467,30.4323571 C57.51343,31.5289846 55.33498,32.8073345 52.9113467,32.8073345 C50.31303,32.8073345 49.3910467,31.7933081 49.3910467,28.925871 L49.3910467,14.7719815 C49.3910467,13.5675793 48.8568133,13.0310657 47.65988,13.0310657 L47.04183,13.0310657 C45.8002467,13.0310657 45.2707133,13.5518457 45.2707133,14.7719815 L45.2707133,29.390797 C45.2707133,34.1627787 47.8463133,36.7918526 52.52438,36.7918526 C54.8876967,36.7918526 57.2345633,36.0138292 59.2673133,34.5749973 L59.3009967,34.7874001 C59.4905633,35.865934 60.0169633,36.3261399 61.0580133,36.3261399 L61.3666467,36.3261399 C62.83383,36.3261399 63.02183,35.3970746 63.02183,34.5867975 L63.02183,14.7719815 C63.02183,13.5675793 62.4868133,13.0310657 61.28988,13.0310657" id="Fill-31" fill="#004571"></path>
                <path d="M78.6823083,6.11232163 C77.4328917,5.63480879 76.1537083,5.39093898 74.8784417,5.39093898 C70.9061583,5.39093898 68.628225,7.85009074 68.628225,12.1343328 L68.628225,13.6463256 C68.628225,13.7902875 68.628225,13.8846887 68.1848583,13.9775166 C67.2456417,14.1513721 66.0792583,14.3700683 66.0792583,15.6625783 L66.0792583,15.8183403 C66.0792583,16.4099213 66.3032917,17.4034942 67.8112083,17.4034942 L68.628225,17.4034942 L68.628225,34.5475423 C68.628225,35.7779049 69.1632417,36.327792 70.3609583,36.327792 L71.0549917,36.327792 C72.5723083,36.327792 72.7493417,35.3121922 72.7493417,34.5475423 L72.7493417,17.4034942 L77.7360417,17.4034942 C78.932975,17.4034942 79.4679917,16.8551804 79.4679917,15.6248178 L79.4679917,15.1591052 C79.4679917,13.9822366 78.932975,13.4575232 77.7360417,13.4575232 L72.7493417,13.4575232 L72.7493417,12.2893081 C72.7493417,9.69563459 73.8279917,9.3384833 74.994375,9.3384833 C75.8834583,9.3384833 76.8046583,9.60752678 77.323225,9.83959645 L77.405475,9.87106352 C77.5331583,9.91433074 77.638125,9.95287791 77.7289917,9.98749169 C78.007075,10.0921197 78.2694917,10.1904543 78.6235583,10.1904543 C79.6622583,10.1904543 79.9920417,9.19452145 80.115025,8.8224233 C80.2239083,8.49516574 80.2779583,8.16318812 80.2779583,7.83042382 C80.2779583,6.77155681 79.405325,6.41047215 78.6823083,6.11232163" id="Fill-33" fill="#004571"></path>
            </g>
        </g>
    </g>
</svg>