<?xml version="1.0" encoding="UTF-8"?>
<svg width="307px" height="173px" viewBox="0 0 307 173" version="1.1" xmlns="http://www.w3.org/2000/svg" xmlns:xlink="http://www.w3.org/1999/xlink">
    <!-- Generator: Sketch 63.1 (92452) - https://sketch.com -->
    <title>picto_oredenadores</title>
    <desc>Created with Sketch.</desc>
    <g id="Mi-consumo" stroke="none" stroke-width="1" fill="none" fill-rule="evenodd">
        <g id="página-cortesía" transform="translate(-233.000000, -687.000000)">
            <g id="Group-2" transform="translate(233.000000, 640.000000)">
                <g id="picto_oredenadores" transform="translate(0.000000, 37.000000)">
                    <g id="np_server-network_2765549_000000" transform="translate(241.410000, 117.351820) scale(-1, 1) translate(-241.410000, -117.351820) translate(177.410000, 53.851820)">
                        <path d="M0.01819584,118.222934 C0.01819584,118.942825 0.60139584,119.530585 1.32584688,119.530585 L38.7777845,119.530585 L38.8142345,119.530585 C39.5341249,119.530585 40.1218855,118.947385 40.1218855,118.222934 C40.1218855,118.11814 40.1082165,118.017905 40.0854355,117.917664 L39.8895153,52.4581298 C39.8849582,51.7382394 39.3017547,51.1550277 38.5818643,51.1550277 L1.32588187,51.1595837 C0.605991456,51.1595837 0.01819584,51.7427837 0.01819584,52.4672347 L0.01819584,118.222934 Z M2.62894896,53.7700032 L37.2745282,53.7700032 L37.4658877,116.920066 L2.62894896,116.920066 L2.62894896,53.7700032 Z" id="Shape" stroke="#004571" stroke-width="2.43" fill="#004571" fill-rule="nonzero"></path>
                        <path d="M8.1878688,58.8168864 C7.46797838,58.8168864 6.88021776,59.4000864 6.88021776,60.1245374 L6.88021776,69.8749416 C6.88021776,70.594832 7.46341776,71.1825926 8.1878688,71.1825926 L31.2544656,71.1825926 C31.974356,71.1825926 32.5621166,70.5993926 32.5621166,69.8749416 L32.5621166,60.1245374 C32.5621166,59.4000981 31.974356,58.8168864 31.2544656,58.8168864 L8.1878688,58.8168864 Z M29.9468146,68.5627416 L9.49528656,68.5627416 L9.49528656,61.4276395 L29.9503138,61.4276395 L29.9468146,68.5627416 Z" id="Shape" stroke="#004571" stroke-width="2.43" fill="#004571" fill-rule="nonzero"></path>
                        <path d="M8.1878688,77.209848 C7.46797838,77.209848 6.88021776,77.793048 6.88021776,78.517499 L6.88021776,88.2679032 C6.88021776,88.9877936 7.46341776,89.5755542 8.1878688,89.5755542 L31.2544656,89.5755542 C31.974356,89.5755542 32.5621166,88.9923542 32.5621166,88.2679032 L32.5621166,78.517499 C32.5621166,77.7930597 31.974356,77.209848 31.2544656,77.209848 L8.1878688,77.209848 Z M29.9468146,86.9557032 L9.49528656,86.9557032 L9.49528656,79.8206011 L29.9503138,79.8206011 L29.9468146,86.9557032 Z" id="Shape" stroke="#004571" stroke-width="2.43" fill="#004571" fill-rule="nonzero"></path>
                        <path d="M19.0951344,96.8404896 C15.5366813,96.8404896 12.6388771,99.7428427 12.6388771,103.310394 C12.6388771,106.868847 15.5366813,109.766651 19.0951344,109.766651 C22.6626854,109.766651 25.5650439,106.868847 25.5650439,103.310394 C25.5695945,99.7428427 22.6672344,96.8404896 19.0951344,96.8404896 Z M15.2496302,103.310394 C15.2496302,101.182647 16.9764854,99.4512427 19.0951344,99.4512427 C21.2228813,99.4512427 22.9543033,101.182647 22.9543033,103.310394 C22.9588414,105.429043 21.2274302,107.155898 19.0951344,107.155898 C16.9764854,107.155898 15.2496302,105.429043 15.2496302,103.310394 Z" id="Shape" stroke="#009AA6" stroke-width="2.43" fill="#009AA6" fill-rule="nonzero"></path>
                        <path d="M126.038203,118.588666 C126.758094,118.588666 127.345854,118.005466 127.345854,117.281015 L127.345854,83.9336386 C127.345854,83.2137481 126.762654,82.6259875 126.038203,82.6259875 L104.132045,82.6259875 L104.132045,66.8922365 C104.132045,66.1723461 103.548845,65.5845854 102.824394,65.5845854 L83.304949,65.5845854 L83.304949,62.3815344 C83.304949,61.661644 82.721749,61.0738834 81.9972979,61.0738834 L78.5162938,61.0738834 L78.5162938,52.4580365 C78.5162938,51.7381461 77.9330938,51.1503854 77.2086427,51.1503854 C76.4887523,51.1503854 75.9009917,51.7335854 75.9009917,52.4580365 L75.9009917,61.0738834 L72.4199875,61.0738834 C71.7000971,61.0738834 71.1123365,61.6570834 71.1123365,62.3815344 L71.1123365,65.5845854 L53.2754885,65.5845854 C52.5555981,65.5845854 51.9678374,66.1677854 51.9678374,66.8922365 C51.9678374,67.6121269 52.5510374,68.1998875 53.2754885,68.1998875 L71.1123365,68.1998875 L71.1123365,71.9588448 C71.1123365,72.6787352 71.6955365,73.2664958 72.4199875,73.2664958 L81.9926323,73.2664958 C82.7125227,73.2664958 83.3002834,72.6832958 83.3002834,71.9588448 L83.3002834,68.1998875 L101.512194,68.1998875 L101.512194,82.6259875 L79.5920386,82.6259875 C78.8721481,82.6259875 78.2843875,83.2091875 78.2843875,83.9336386 L78.2843875,117.281015 C78.2843875,118.000905 78.8675875,118.588666 79.5920386,118.588666 L101.507528,118.588666 L101.507528,123.400066 L93.9623198,123.400066 C93.2424294,123.400066 92.6546688,123.983266 92.6546688,124.707717 C92.6546688,125.427607 93.2378688,126.015368 93.9623198,126.015368 L111.663606,126.015368 C112.383497,126.015368 112.971257,125.432168 112.971257,124.707717 C112.971257,123.987826 112.388057,123.400066 111.663606,123.400066 L104.118398,123.400066 L104.118398,118.588666 L126.038203,118.588666 Z M80.69351,70.655976 L73.7314877,70.655976 L73.7314877,63.6939677 L77.2079429,63.6939677 L77.2124988,63.6939677 L80.69351,63.6939677 L80.69351,70.655976 Z M80.8989898,85.2415229 L124.734635,85.2415229 L124.734635,115.978496 L80.8989898,115.978496 L80.8989898,85.2415229 Z" id="Shape" stroke="#004571" stroke-width="2.43" fill="#004571" fill-rule="nonzero"></path>
                        <path d="M100.432483,0.44649792 L53.9864352,0.44649792 C53.2665448,0.44649792 52.6787842,1.02969792 52.6787842,1.75414896 L52.6787842,35.101525 C52.6787842,35.8214154 53.2619842,36.409176 53.9864352,36.409176 L75.9065904,36.409176 L75.9065904,41.220576 L68.3613821,41.220576 C67.6414917,41.220576 67.053731,41.803776 67.053731,42.528227 C67.053731,43.2481175 67.636931,43.8358781 68.3613821,43.8358781 L86.0626685,43.8358781 C86.7825589,43.8358781 87.3703195,43.2526781 87.3703195,42.528227 C87.3703195,41.8083366 86.7871195,41.220576 86.0626685,41.220576 L78.5174602,41.220576 L78.5174602,36.409176 L100.43295,36.409176 C101.15284,36.409176 101.740601,35.825976 101.740601,35.101525 L101.736045,1.75414896 C101.736045,1.03425854 101.152845,0.44649792 100.432943,0.44649792 L100.432483,0.44649792 Z M99.1248322,33.7938739 L55.2891874,33.7938739 L55.2891874,3.05690112 L99.1248322,3.05690112 L99.1248322,33.7938739 Z" id="Shape" stroke="#004571" stroke-width="2.43" fill="#004571" fill-rule="nonzero"></path>
                        <g id="Group" transform="translate(63.180000, 10.530000)" stroke="#004571" stroke-linecap="round" stroke-width="3.24">
                            <line x1="6.70995661" y1="3.888" x2="6.70995661" y2="16.311375" id="Path-4"></line>
                            <line x1="13.1899566" y1="-1.22248851e-12" x2="13.1899566" y2="16.311375" id="Path-4"></line>
                            <line x1="19.6699566" y1="8.424" x2="19.6699566" y2="16.311375" id="Path-4"></line>
                            <line x1="0" y1="16.311375" x2="26.1898238" y2="16.311375" id="Path-5"></line>
                        </g>
                    </g>
                    <g id="np_office-working_1613255_000000" transform="translate(0.000000, 64.951820)" fill-rule="nonzero">
                        <path d="M14.101776,28.0425078 C21.9044088,28.0425078 27.8275338,22.0622292 27.8275338,14.1458724 C27.8275338,10.5008724 26.4606588,7.083612 23.8407786,4.4638776 C21.2208984,1.7871354 17.6897682,0.3632526 13.9308984,0.3632526 C10.2858984,0.3632526 6.868638,1.78707708 4.3057656,4.4068698 C1.6290234,7.083612 0.2051406,10.6147422 0.2051406,14.31675 C0.262094454,22.062375 6.356151,28.0425078 14.1016302,28.0425078 L14.101776,28.0425078 Z M8.178651,8.279172 C9.7164036,6.7414194 11.7666432,5.8871772 13.9308984,5.8871772 C16.2090234,5.8871772 18.3732786,6.7984272 19.9678932,8.3931876 C21.5056458,9.9309402 22.359888,11.9811798 22.359888,14.2024428 C22.359888,19.0434402 18.8857656,22.5745704 14.1016302,22.6314324 C9.3176406,22.6314324 5.7295026,19.1003022 5.7295026,14.4301824 C5.7295026,12.0381876 6.58380312,9.9309402 8.1785052,8.279172 L8.178651,8.279172 Z" id="Shape" fill="#004571"></path>
                        <path d="M57.157974,105.839784 C57.727498,109.029159 58.353986,112.161526 58.980474,115.350901 C59.265236,116.660827 60.4042985,117.572018 61.6572162,117.572018 C61.8280792,117.572018 61.9989422,117.572018 62.1697907,117.515066 C63.6505355,117.230304 64.6187933,115.806436 64.3340459,114.268683 C63.7075579,111.136316 63.0810698,107.946941 62.5115459,104.814428 C61.0877214,97.524428 59.7207881,90.00698 58.3539131,82.489532 C57.4996126,77.7055424 54.5950433,74.8577768 49.8679157,74.288282 C47.1911735,73.9465705 35.1741917,73.263133 29.8772777,72.9783565 L29.1938402,58.9109893 C29.1368863,58.0566888 29.0799325,57.2593669 28.9660277,56.2342471 C28.85212,54.6964945 27.5422032,53.6713747 26.0045381,53.7852445 C24.4667855,53.8991522 23.3846579,55.3229971 23.4985277,56.8037419 C23.5554801,57.6580424 23.6124325,58.5123721 23.7263402,59.2527445 L24.6375902,78.1615465 L27.1436006,78.2754542 C32.383361,78.5602162 46.5641606,79.3006032 49.1841866,79.6423292 C51.5193194,79.9270912 52.5444392,80.9522547 52.9430564,83.401199 C54.3099314,90.9759464 55.7338142,98.494415 57.1575512,105.841277 L57.157974,105.839784 Z" id="Path" fill="#004571"></path>
                        <path d="M123.906672,64.15119 C123.906672,62.6134374 122.653696,61.41744 121.172922,61.41744 L47.077362,61.41744 C45.5396094,61.41744 44.343612,62.6704015 44.343612,64.15119 C44.343612,65.6319348 45.596588,66.88494 47.077362,66.88494 L81.36369,66.88494 L81.36369,114.783156 C81.36369,116.320909 82.6166515,117.516906 84.09744,117.516906 C85.5781848,117.516906 86.83119,116.26393 86.83119,114.783156 L86.83119,66.94326 L121.17438,66.94326 C122.655125,66.94326 123.90813,65.690284 123.90813,64.1525022 L123.906672,64.15119 Z" id="Path" fill="#004571"></path>
                        <path d="M132.564276,18.302922 C131.25435,17.505571 129.602786,17.961196 128.805406,19.214172 L111.662242,47.633508 L76.1803542,47.633508 C74.6426016,47.633508 73.4466042,48.886484 73.4466042,50.367258 C73.4466042,51.8480028 74.6995802,53.101008 76.1803542,53.101008 L114.794026,53.101008 L133.532242,22.004784 C134.329579,20.808772 133.873954,19.1001564 132.564043,18.3027762 L132.564276,18.302922 Z" id="Path" fill="#E57200"></path>
                        <path d="M1.913625,58.284198 C2.42619948,65.1755808 2.88182448,72.2376954 2.99573802,79.242948 C3.16660104,89.8932006 9.03273282,95.361138 20.08204,95.418 L31.472665,95.418 L37.1110426,95.418 C39.3891676,95.418 41.7243004,95.418 44.173303,95.3610476 C45.7110556,95.3610476 46.907053,94.1080716 46.907053,92.5702898 C46.907053,91.032508 45.711041,89.779532 44.1162952,89.8365398 C39.7309228,89.8934937 35.6302978,89.8934937 31.5296728,89.8365398 L20.08204,89.8365398 L19.8542275,89.8365398 C12.0515947,89.8365398 8.63448012,86.590157 8.52061032,79.0724174 C8.40670407,71.953295 7.8941223,64.7771648 7.4384973,57.8293574 C7.2106848,54.9247298 7.03982178,52.0201022 6.86897334,49.1724824 C6.58421136,44.3884928 9.65973114,40.5726152 14.1019655,40.0029746 L14.3867275,40.0029746 C14.899302,39.9460208 15.354927,39.9460208 15.8674723,40.0029746 C17.6899723,40.4585996 19.5124723,41.4267991 21.3919801,42.4519772 C21.9045546,42.7367392 22.4171291,43.0215012 22.9867405,43.3062777 L42.5793445,53.4438975 L61.8293185,53.4438975 C63.3670711,53.4438975 64.5630685,52.1909215 64.5630685,50.7101475 C64.5630685,49.2294027 63.3100925,47.9763975 61.8293185,47.9763975 L43.7749045,47.9763975 L25.4361805,38.5221423 C24.923606,38.2373803 24.467981,38.0095678 23.9554357,37.7248059 C21.7911805,36.5287939 19.5130555,35.2758033 16.8931753,34.7063085 L16.6084133,34.6493546 C15.7541128,34.5354498 14.8429211,34.5354498 13.9316711,34.5924022 C13.8177634,34.5924022 13.6469092,34.5924022 13.4760461,34.6493546 C6.12903834,35.5606046 0.88942374,41.9393546 1.34504874,49.5705266 C1.51591176,52.4751542 1.68677478,55.3797818 1.9145727,58.2844094 L1.913625,58.284198 Z" id="Path" fill="#004571"></path>
                    </g>
                    <path id="Path-3" d="M279.466856,96.7918882 C280.585201,96.800282 281.484994,97.7136844 281.476601,98.8320295 C281.46448,100.446915 281.427716,102.084734 281.366322,103.745491 C281.325006,104.863104 280.385509,105.735616 279.267896,105.6943 C278.150283,105.652985 277.277771,104.713487 277.319086,103.595874 C277.379023,101.974556 277.414895,100.376473 277.426715,98.8016328 C277.435108,97.6832877 278.348511,96.7834944 279.466856,96.7918882 Z M280.567688,81.5902491 C280.761157,83.2001906 280.923863,84.8385849 281.055833,86.5054329 C281.144103,87.6203207 280.311864,88.5956724 279.196977,88.6839419 C278.082089,88.7722114 277.106737,87.9399729 277.018468,86.8250851 C276.890789,85.2124403 276.733497,83.6285671 276.546619,82.0734664 C276.413182,80.9630787 277.205157,79.9547597 278.315545,79.8213229 C279.425933,79.6878862 280.434252,80.4798614 280.567688,81.5902491 Z M89.534179,54.3783159 L89.6850164,54.3892082 C90.7462428,54.5051518 91.5259515,55.4213303 91.4889986,56.4713236 L91.4781064,56.622161 L89.366,75.945 L107.046192,67.865539 C108.01494,67.4228101 109.150812,67.8078448 109.658362,68.7242019 L109.729682,68.8656033 C110.172411,69.8343515 109.787376,70.9702235 108.871019,71.4777732 L108.729618,71.5490938 L87.8085606,81.1102532 L84.5667081,82.5918164 L84.9538261,79.0485444 L87.4520636,56.1822982 C87.5624861,55.1716063 88.3987451,54.4162594 89.3851622,54.3785346 L89.534179,54.3783159 Z M97.3319795,64.9164493 C98.1932982,65.5384996 98.4206313,66.7119849 97.8798109,67.6051184 L97.7880151,67.7436885 L94.9425707,71.6836184 C94.2877809,72.5902697 93.0219828,72.7944438 92.1153315,72.139654 C91.2540128,71.5176037 91.0266797,70.3441184 91.5675001,69.4509848 L91.6592959,69.3124148 L94.5047403,65.3724849 C95.1595301,64.4658336 96.4253282,64.2616595 97.3319795,64.9164493 Z M277.060288,64.5748818 C277.53786,66.1385197 277.976647,67.7378813 278.376692,69.3729349 C278.642484,70.4592688 277.977302,71.5553828 276.890968,71.821174 C275.804634,72.0869652 274.708521,71.4217839 274.442729,70.33545 C274.060668,68.7739019 273.642052,67.2480617 273.186921,65.7578977 C272.86024,64.6882969 273.462496,63.556387 274.532097,63.2297062 C275.601698,62.9030254 276.733608,63.505281 277.060288,64.5748818 Z M108.714867,52.2734014 C109.504625,53.0652645 109.50292,54.3474225 108.711056,55.1371813 C107.572145,56.2730663 106.460126,57.4205211 105.374988,58.5777476 C104.609995,59.393561 103.328498,59.434759 102.512684,58.6697657 C101.696871,57.9047725 101.655673,56.6232755 102.420666,55.807462 C103.536457,54.6175465 104.679913,53.4376526 105.851087,52.2695913 C106.64295,51.4798324 107.925108,51.4815383 108.714867,52.2734014 Z M270.098824,48.576937 C270.941705,50.0011562 271.737703,51.4688875 272.486826,52.9800267 C272.983557,53.9820372 272.573946,55.1970069 271.571936,55.6937374 C270.569925,56.190468 269.354956,55.7808576 268.858225,54.7788471 C268.153352,53.3569682 267.405095,51.9772678 266.613462,50.6396416 C266.043862,49.6771854 266.362335,48.4352083 267.324791,47.8656082 C268.287247,47.2960081 269.529224,47.6144808 270.098824,48.576937 Z M121.60331,41.1959416 C122.292,42.0771185 122.135958,43.3497468 121.254782,44.0384365 C119.994897,45.0231079 118.754714,46.0286296 117.534225,47.0538928 C116.677897,47.7732455 115.400555,47.6622049 114.681202,46.8058766 C113.96185,45.9495484 114.07289,44.6722067 114.929218,43.952854 C116.185941,42.8971532 117.463129,41.8616286 118.760815,40.8474127 C119.641992,40.158723 120.914621,40.3147647 121.60331,41.1959416 Z M259.104199,34.8283476 C260.329211,35.9760039 261.504249,37.1712292 262.629211,38.4139268 C263.379771,39.2430384 263.316092,40.5236152 262.48698,41.2741751 C261.657869,42.024735 260.377292,41.9610562 259.626732,41.1319446 C258.576352,39.9716342 257.479227,38.8556606 256.335255,37.783927 C255.519095,37.0193043 255.477315,35.7378261 256.241938,34.9216654 C257.00656,34.1055047 258.288039,34.0637249 259.104199,34.8283476 Z M135.786652,31.8242043 C136.355529,32.7870883 136.036123,34.0288257 135.073239,34.5977024 C133.700011,35.4090121 132.343054,36.2463892 131.002359,37.1090171 C130.061845,37.7141611 128.808841,37.4422898 128.203697,36.5017755 C127.598553,35.5612613 127.870424,34.3082578 128.810939,33.7031138 C130.194653,32.8128069 131.595384,31.9484162 133.013154,31.110791 C133.976038,30.5419143 135.217775,30.8613203 135.786652,31.8242043 Z M244.849272,24.7594141 C246.342644,25.5446392 247.791035,26.373606 249.194348,27.2463256 C250.144051,27.8369449 250.435145,29.0856226 249.844526,30.0353252 C249.253906,30.9850278 248.005229,31.2761222 247.055526,30.6855029 C245.735547,29.8646086 244.37188,29.0841322 242.964428,28.3440847 C241.974549,27.8235994 241.594029,26.5992068 242.114515,25.6093274 C242.635,24.6194479 243.859393,24.2389288 244.849272,24.7594141 Z M151.131892,24.4484067 C151.561452,25.4809978 151.072599,26.6663056 150.040008,27.0958657 C148.567862,27.7082815 147.109832,28.3501468 145.665901,29.0208155 C144.651597,29.4919338 143.447423,29.0515943 142.976305,28.0372898 C142.505187,27.0229852 142.945526,25.818812 143.959831,25.3476937 C145.453264,24.6540324 146.961462,23.9900817 148.484433,23.3565226 C149.517024,22.9269625 150.702332,23.4158156 151.131892,24.4484067 Z M228.586055,18.4105301 C230.206454,18.8601823 231.79018,19.3456156 233.337203,19.8668694 C234.397036,20.2239693 234.966714,21.3726204 234.609614,22.4324533 C234.252514,23.4922863 233.103863,24.061964 232.04403,23.7048641 C230.567031,23.2072043 229.053405,22.7432573 227.503123,22.3130624 C226.425469,22.014019 225.794279,20.8979848 226.093323,19.8203303 C226.392366,18.7426757 227.5084,18.1114867 228.586055,18.4105301 Z M167.345458,19.3497957 C167.621223,20.4336405 166.966145,21.5358224 165.882301,21.8115878 C164.335907,22.2050407 162.801948,22.629774 161.280401,23.0852632 C160.209002,23.4059966 159.080456,22.7974617 158.759722,21.7260625 C158.438989,20.6546632 159.047524,19.5261167 160.118923,19.2053833 C161.694287,18.7337833 163.282536,18.2940179 164.883666,17.8866383 C165.967511,17.610873 167.069693,18.2659508 167.345458,19.3497957 Z M211.530313,15.1476605 C213.190959,15.3407975 214.822336,15.5623407 216.424443,15.8123148 C217.52945,15.9847272 218.285468,17.0202801 218.113055,18.125287 C217.940643,19.2302939 216.90509,19.9863111 215.800083,19.8138988 C214.250409,19.5721058 212.671195,19.3576463 211.062443,19.1705447 C209.951554,19.0413457 209.155737,18.036056 209.284936,16.9251672 C209.414135,15.8142785 210.419425,15.0184616 211.530313,15.1476605 Z M184.145988,16.6532872 C184.26237,17.7655917 183.455016,18.7616392 182.342711,18.8780215 C180.75247,19.0444112 179.173158,19.2424448 177.604753,19.4716964 C176.498135,19.6334491 175.469918,18.8674848 175.308165,17.7608673 C175.146412,16.6542498 175.912377,15.6260326 177.018994,15.4642799 C178.641961,15.2270532 180.27605,15.0221508 181.921254,14.8500104 C183.033558,14.7336281 184.029606,15.5409826 184.145988,16.6532872 Z M194.25696,14.1812355 C195.697656,14.1742221 197.145445,14.1915669 198.602471,14.2335374 C198.80055,14.2392458 198.998276,14.245295 199.19565,14.2516852 C200.313441,14.2878747 201.190252,15.2233607 201.154062,16.3411516 C201.117873,17.4589425 200.182387,18.3357537 199.064596,18.2995642 C198.872022,18.2933295 198.679092,18.287427 198.48583,18.2818574 C197.074241,18.2411957 195.671902,18.2243955 194.276676,18.2311876 C193.158312,18.2366318 192.247286,17.3344327 192.241842,16.2160693 C192.236398,15.0977059 193.138597,14.1866798 194.25696,14.1812355 Z" fill="#E57200" fill-rule="nonzero"></path>
                </g>
            </g>
        </g>
    </g>
</svg>