<svg width="17" height="16" viewBox="0 0 17 16" fill="none" xmlns="http://www.w3.org/2000/svg">
<path d="M2.4146 8.4426C2.4146 8.4426 2.3432 8.84073 2.01219 8.89848C1.68118 8.95622 1.47674 8.57936 1.47674 8.57936C1.14573 6.65859 1.7688 4.61626 3.34921 3.13618C5.82529 0.817276 9.76819 0.695709 12.3903 2.77147L12.2637 1.90834C12.2443 1.7655 12.2962 1.62874 12.4 1.53452C12.4714 1.46766 12.5623 1.42207 12.6694 1.40992C12.929 1.37649 13.1659 1.54668 13.2016 1.78678L13.4709 3.60725C13.5066 3.85342 13.4255 4.09048 13.2503 4.2546C13.075 4.41871 12.8219 4.49469 12.559 4.46126L10.6152 4.20901C10.3556 4.17558 10.1771 3.95068 10.2128 3.71058C10.2485 3.46745 10.4886 3.29725 10.7482 3.33068L11.8094 3.46745C9.55725 1.66521 6.1563 1.76246 4.02421 3.76225C2.66123 5.03567 2.12578 6.79232 2.4146 8.4426ZM14.6944 6.60693C14.6944 6.60693 14.5548 6.25742 14.1914 6.26958C13.8052 6.28173 13.7598 6.74369 13.7598 6.74369C14.0194 8.3727 13.4807 10.0959 12.1437 11.3481C10.0116 13.3448 6.60738 13.4451 4.35522 11.6429L5.41639 11.7796C5.67601 11.8131 5.91291 11.6429 5.95185 11.3997C5.98755 11.1566 5.80582 10.9347 5.54945 10.9013L3.60558 10.649C3.34272 10.6156 3.0896 10.6916 2.91436 10.8557C2.73912 11.0198 2.65799 11.2569 2.69368 11.5031L2.96303 13.3235C2.99873 13.5667 3.23887 13.7338 3.49524 13.7004C3.60233 13.6852 3.6932 13.6396 3.76459 13.5758C3.86519 13.4816 3.92036 13.3448 3.90089 13.202L3.77433 12.3388C6.39644 14.4146 10.3426 14.293 12.8154 11.9741C14.3731 10.5184 14.9994 8.50946 14.6944 6.60693Z" fill="#0066CC"/>
</svg>
