<svg width="20" height="20" viewBox="0 0 20 20" fill="none" xmlns="http://www.w3.org/2000/svg">
<path d="M11.08 7.92916C11.404 7.92916 11.664 7.66516 11.664 7.34516V6.86916C11.664 6.54516 11.4 6.28516 11.08 6.28516C10.756 6.28516 10.496 6.54516 10.496 6.86916V7.34516C10.496 7.66516 10.756 7.92916 11.08 7.92916Z" fill="#004571"/>
<path d="M11.08 10.2885C11.404 10.2885 11.664 10.0245 11.664 9.70453V9.22853C11.664 8.90453 11.4 8.64453 11.08 8.64453C10.756 8.64453 10.496 8.90453 10.496 9.22853V9.70453C10.496 10.0245 10.756 10.2885 11.08 10.2885Z" fill="#004571"/>
<path d="M11.08 5.56587C11.404 5.56587 11.664 5.30587 11.664 4.98187V4.50587C11.664 4.18187 11.4 3.92188 11.08 3.92188C10.756 3.92188 10.496 4.18587 10.496 4.50587V4.98187C10.496 5.30587 10.756 5.56587 11.08 5.56587Z" fill="#004571"/>
<path d="M11.08 12.6479C11.404 12.6479 11.664 12.3879 11.664 12.0639V11.5879C11.664 11.2639 11.4 11.0039 11.08 11.0039C10.756 11.0039 10.496 11.2679 10.496 11.5879V12.0639C10.496 12.3879 10.756 12.6479 11.08 12.6479Z" fill="#004571"/>
<path d="M13.168 10.2885C13.492 10.2885 13.752 10.0245 13.752 9.70453V9.22853C13.752 8.90453 13.488 8.64453 13.168 8.64453C12.844 8.64453 12.584 8.90453 12.584 9.22853V9.70453C12.584 10.0245 12.844 10.2885 13.168 10.2885Z" fill="#004571"/>
<path d="M13.168 5.56587C13.492 5.56587 13.752 5.30587 13.752 4.98187V4.50587C13.752 4.18187 13.488 3.92188 13.168 3.92188C12.844 3.92188 12.584 4.18587 12.584 4.50587V4.98187C12.584 5.30587 12.844 5.56587 13.168 5.56587Z" fill="#004571"/>
<path d="M13.168 7.92916C13.492 7.92916 13.752 7.66516 13.752 7.34516V6.86916C13.752 6.54516 13.488 6.28516 13.168 6.28516C12.844 6.28516 12.584 6.54516 12.584 6.86916V7.34516C12.584 7.66516 12.844 7.92916 13.168 7.92916Z" fill="#004571"/>
<path d="M13.168 12.6479C13.492 12.6479 13.752 12.3879 13.752 12.0639V11.5879C13.752 11.2639 13.488 11.0039 13.168 11.0039C12.844 11.0039 12.584 11.2679 12.584 11.5879V12.0639C12.584 12.3879 12.844 12.6479 13.168 12.6479Z" fill="#004571"/>
<path d="M8.95599 5.56587C9.27999 5.56587 9.53999 5.30587 9.53999 4.98187V4.50587C9.53999 4.18187 9.27999 3.92188 8.95599 3.92188C8.63199 3.92188 8.37199 4.18587 8.37199 4.50587V4.98187C8.36799 5.30587 8.63199 5.56587 8.95599 5.56587Z" fill="#004571"/>
<path d="M6.82802 10.2885C7.15202 10.2885 7.41202 10.0245 7.41202 9.70453V9.22853C7.41202 8.90453 7.14802 8.64453 6.82802 8.64453C6.50802 8.64453 6.24402 8.90453 6.24402 9.22853V9.70453C6.24402 10.0245 6.50402 10.2885 6.82802 10.2885Z" fill="#004571"/>
<path d="M6.82802 12.6479C7.15202 12.6479 7.41202 12.3879 7.41202 12.0639V11.5879C7.41202 11.2639 7.14802 11.0039 6.82802 11.0039C6.50802 11.0039 6.24402 11.2679 6.24402 11.5879V12.0639C6.24402 12.3879 6.50402 12.6479 6.82802 12.6479Z" fill="#004571"/>
<path d="M15.968 1.32812H4.06801C3.74401 1.32812 3.48401 1.59213 3.48401 1.91213V18.3201C3.48401 18.6441 3.74401 18.9041 4.06801 18.9041H8.03201C8.35601 18.9041 8.61601 18.6441 8.61601 18.3201V14.9401H11.412V18.3201C11.412 18.6441 11.676 18.9041 11.996 18.9041H15.964C16.288 18.9041 16.548 18.6441 16.548 18.3201V1.91213C16.552 1.59213 16.288 1.32812 15.968 1.32812ZM15.38 17.7361H12.584V14.3561C12.584 14.0321 12.324 13.7721 12 13.7721H8.03201C7.70801 13.7721 7.44801 14.0321 7.44801 14.3561V17.7361H4.65201V2.50013H15.38V17.7361Z" fill="#004571"/>
<path d="M8.95599 7.92916C9.27999 7.92916 9.53999 7.66516 9.53999 7.34516V6.86916C9.53999 6.54516 9.27999 6.28516 8.95599 6.28516C8.63199 6.28516 8.37199 6.54516 8.37199 6.86916V7.34516C8.36799 7.66516 8.63199 7.92916 8.95599 7.92916Z" fill="#004571"/>
<path d="M6.82802 7.92916C7.15202 7.92916 7.41202 7.66516 7.41202 7.34516V6.86916C7.41202 6.54516 7.14802 6.28516 6.82802 6.28516C6.50802 6.28516 6.24402 6.54516 6.24402 6.86916V7.34516C6.24402 7.66516 6.50402 7.92916 6.82802 7.92916Z" fill="#004571"/>
<path d="M8.95599 10.2885C9.27999 10.2885 9.53999 10.0245 9.53999 9.70453V9.22853C9.53999 8.90453 9.27999 8.64453 8.95599 8.64453C8.63199 8.64453 8.37199 8.90453 8.37199 9.22853V9.70453C8.36799 10.0245 8.63199 10.2885 8.95599 10.2885Z" fill="#004571"/>
<path d="M6.82802 5.56587C7.15202 5.56587 7.41202 5.30587 7.41202 4.98187V4.50587C7.41202 4.18187 7.14802 3.92188 6.82802 3.92188C6.50802 3.92188 6.24402 4.18587 6.24402 4.50587V4.98187C6.24402 5.30587 6.50402 5.56587 6.82802 5.56587Z" fill="#004571"/>
<path d="M8.95599 12.6479C9.27999 12.6479 9.53999 12.3879 9.53999 12.0639V11.5879C9.53999 11.2639 9.27999 11.0039 8.95599 11.0039C8.63199 11.0039 8.37199 11.2679 8.37199 11.5879V12.0639C8.36799 12.3879 8.63199 12.6479 8.95599 12.6479Z" fill="#004571"/>
</svg>
