<svg width="20" height="20" viewBox="0 0 20 20" fill="none" xmlns="http://www.w3.org/2000/svg">
<path d="M5.883 10.0321V10.4613C5.883 10.6013 5.82743 10.7356 5.72851 10.8346C5.62959 10.9336 5.49543 10.9892 5.35553 10.9892C5.21564 10.9892 5.08148 10.9336 4.98256 10.8346C4.88364 10.7356 4.82807 10.6013 4.82807 10.4613V10.0321C4.82807 9.89211 4.88364 9.75784 4.98256 9.65885C5.08148 9.55985 5.21564 9.50423 5.35553 9.50423C5.49543 9.50423 5.62959 9.55985 5.72851 9.65885C5.82743 9.75784 5.883 9.89211 5.883 10.0321V10.0321ZM5.35553 11.3059C5.21564 11.3059 5.08148 11.3615 4.98256 11.4605C4.88364 11.5595 4.82807 11.6938 4.82807 11.8338V12.263C4.82807 12.403 4.88364 12.5372 4.98256 12.6362C5.08148 12.7352 5.21564 12.7908 5.35553 12.7908C5.49543 12.7908 5.62959 12.7352 5.72851 12.6362C5.82743 12.5372 5.883 12.403 5.883 12.263V11.8338C5.883 11.6938 5.82743 11.5595 5.72851 11.4605C5.62959 11.3615 5.49543 11.3059 5.35553 11.3059ZM3.70433 9.50423C3.56443 9.50423 3.43027 9.55985 3.33135 9.65885C3.23243 9.75784 3.17686 9.89211 3.17686 10.0321V10.4613C3.17686 10.6013 3.23243 10.7356 3.33135 10.8346C3.43027 10.9336 3.56443 10.9892 3.70433 10.9892C3.84422 10.9892 3.97839 10.9336 4.07731 10.8346C4.17623 10.7356 4.2318 10.6013 4.2318 10.4613V10.0321C4.2318 9.89211 4.17623 9.75784 4.07731 9.65885C3.97839 9.55985 3.84422 9.50423 3.70433 9.50423ZM3.70433 11.3059C3.56443 11.3059 3.43027 11.3615 3.33135 11.4605C3.23243 11.5595 3.17686 11.6938 3.17686 11.8338V12.263C3.17686 12.403 3.23243 12.5372 3.33135 12.6362C3.43027 12.7352 3.56443 12.7908 3.70433 12.7908C3.84422 12.7908 3.97839 12.7352 4.07731 12.6362C4.17623 12.5372 4.2318 12.403 4.2318 12.263V11.8338C4.2318 11.6938 4.17623 11.5595 4.07731 11.4605C3.97839 11.3615 3.84422 11.3059 3.70433 11.3059ZM10.9834 6.28879C11.1233 6.28879 11.2575 6.23317 11.3564 6.13418C11.4553 6.03518 11.5109 5.90092 11.5109 5.76091V5.32714C11.502 5.19345 11.4428 5.06812 11.345 4.97656C11.2473 4.885 11.1184 4.83405 10.9845 4.83405C10.8507 4.83405 10.7218 4.885 10.6241 4.97656C10.5263 5.06812 10.467 5.19345 10.4582 5.32714V5.75633C10.4573 5.82592 10.4702 5.89501 10.4962 5.95957C10.5222 6.02413 10.5607 6.08289 10.6096 6.13243C10.6584 6.18196 10.7166 6.22129 10.7808 6.24813C10.845 6.27498 10.9138 6.2888 10.9834 6.28879ZM10.9834 8.09045C11.1233 8.09045 11.2575 8.03483 11.3564 7.93584C11.4553 7.83684 11.5109 7.70257 11.5109 7.56257V7.13339C11.5156 7.06129 11.5055 6.98899 11.4812 6.92095C11.4569 6.85291 11.419 6.79059 11.3696 6.73785C11.3203 6.6851 11.2606 6.64305 11.1944 6.6143C11.1282 6.58556 11.0567 6.57073 10.9845 6.57073C10.9123 6.57073 10.8409 6.58556 10.7747 6.6143C10.7084 6.64305 10.6488 6.6851 10.5995 6.73785C10.5501 6.79059 10.5121 6.85291 10.4878 6.92095C10.4635 6.98899 10.4535 7.06129 10.4582 7.13339V7.56257C10.46 7.70077 10.5162 7.83269 10.6145 7.92977C10.7127 8.02685 10.8453 8.08128 10.9834 8.08127V8.09045ZM9.33219 6.28879C9.47208 6.28879 9.60624 6.23317 9.70516 6.13418C9.80408 6.03518 9.85966 5.90092 9.85966 5.76091V5.32714C9.85084 5.19345 9.79155 5.06812 9.69381 4.97656C9.59608 4.885 9.46721 4.83405 9.33333 4.83405C9.19946 4.83405 9.07059 4.885 8.97286 4.97656C8.87512 5.06812 8.81583 5.19345 8.80701 5.32714V5.75633C8.80641 5.82584 8.81953 5.89479 8.84562 5.95921C8.87172 6.02364 8.91027 6.08227 8.95906 6.13175C9.00786 6.18122 9.06594 6.22056 9.12997 6.24751C9.194 6.27446 9.26272 6.28849 9.33219 6.28879V6.28879ZM9.33219 8.09045C9.47208 8.09045 9.60624 8.03483 9.70516 7.93584C9.80408 7.83684 9.85966 7.70257 9.85966 7.56257V7.13339C9.86442 7.06129 9.85433 6.98899 9.83003 6.92095C9.80574 6.85291 9.76774 6.79059 9.7184 6.73785C9.66906 6.6851 9.60943 6.64305 9.5432 6.6143C9.47696 6.58556 9.40553 6.57073 9.33333 6.57073C9.26114 6.57073 9.18971 6.58556 9.12348 6.6143C9.05724 6.64305 8.9976 6.6851 8.94827 6.73785C8.89893 6.79059 8.86093 6.85291 8.83664 6.92095C8.81234 6.98899 8.80225 7.06129 8.80701 7.13339V7.56257C8.80941 7.70058 8.86573 7.83216 8.96389 7.92911C9.06206 8.02607 9.19427 8.08069 9.33219 8.08127V8.09045ZM14.8591 6.28879C14.999 6.28879 15.1332 6.23317 15.2321 6.13418C15.331 6.03518 15.3866 5.90092 15.3866 5.76091V5.32714C15.3866 5.18714 15.331 5.05287 15.2321 4.95388C15.1332 4.85488 14.999 4.79926 14.8591 4.79926C14.7192 4.79926 14.5851 4.85488 14.4862 4.95388C14.3872 5.05287 14.3317 5.18714 14.3317 5.32714V5.75633C14.3311 5.82603 14.3443 5.89517 14.3705 5.95974C14.3967 6.02432 14.4355 6.08305 14.4845 6.13256C14.5336 6.18206 14.5919 6.22136 14.6562 6.24817C14.7205 6.27499 14.7895 6.28879 14.8591 6.28879ZM14.8591 8.09045C14.999 8.09045 15.1332 8.03483 15.2321 7.93584C15.331 7.83684 15.3866 7.70257 15.3866 7.56257V7.13339C15.3866 6.99339 15.331 6.85912 15.2321 6.76012C15.1332 6.66113 14.999 6.60551 14.8591 6.60551C14.7192 6.60551 14.5851 6.66113 14.4862 6.76012C14.3872 6.85912 14.3317 6.99339 14.3317 7.13339V7.56257C14.3341 7.70098 14.3907 7.8329 14.4894 7.92992C14.588 8.02694 14.7208 8.08129 14.8591 8.08127V8.09045ZM13.2079 6.28879C13.3478 6.28879 13.482 6.23317 13.5809 6.13418C13.6798 6.03518 13.7354 5.90092 13.7354 5.76091V5.32714C13.7354 5.18714 13.6798 5.05287 13.5809 4.95388C13.482 4.85488 13.3478 4.79926 13.2079 4.79926C13.068 4.79926 12.9339 4.85488 12.835 4.95388C12.736 5.05287 12.6805 5.18714 12.6805 5.32714V5.75633C12.6799 5.82623 12.6931 5.89555 12.7195 5.96028C12.7459 6.025 12.7848 6.08384 12.8341 6.13338C12.8834 6.18291 12.942 6.22216 13.0066 6.24884C13.0712 6.27552 13.1404 6.2891 13.2102 6.28879H13.2079ZM13.2079 8.09045C13.3478 8.09045 13.482 8.03483 13.5809 7.93584C13.6798 7.83684 13.7354 7.70257 13.7354 7.56257V7.13339C13.7354 6.99339 13.6798 6.85912 13.5809 6.76012C13.482 6.66113 13.3478 6.60551 13.2079 6.60551C13.068 6.60551 12.9339 6.66113 12.835 6.76012C12.736 6.85912 12.6805 6.99339 12.6805 7.13339V7.56257C12.6829 7.70138 12.7398 7.83364 12.839 7.93072C12.9381 8.02781 13.0715 8.08189 13.2102 8.08127L13.2079 8.09045ZM14.6069 12.061C14.467 12.061 14.3328 12.1166 14.2339 12.2156C14.135 12.3146 14.0794 12.4489 14.0794 12.5889V13.018C14.0794 13.158 14.135 13.2923 14.2339 13.3913C14.3328 13.4903 14.467 13.5459 14.6069 13.5459C14.7468 13.5459 14.8809 13.4903 14.9798 13.3913C15.0788 13.2923 15.1343 13.158 15.1343 13.018V12.5889C15.1337 12.4494 15.0783 12.3159 14.98 12.2171C14.8817 12.1183 14.7485 12.0622 14.6092 12.061H14.6069ZM14.6069 13.8626C14.467 13.8626 14.3328 13.9183 14.2339 14.0173C14.135 14.1162 14.0794 14.2505 14.0794 14.3905V14.8197C14.0794 14.9597 14.135 15.094 14.2339 15.193C14.3328 15.292 14.467 15.3476 14.6069 15.3476C14.7468 15.3476 14.8809 15.292 14.9798 15.193C15.0788 15.094 15.1343 14.9597 15.1343 14.8197V14.3905C15.1337 14.2511 15.0783 14.1175 14.98 14.0187C14.8817 13.9199 14.7485 13.8639 14.6092 13.8626H14.6069ZM12.9557 12.061C12.8864 12.061 12.8178 12.0746 12.7538 12.1012C12.6898 12.1277 12.6317 12.1666 12.5827 12.2156C12.5337 12.2646 12.4949 12.3228 12.4683 12.3868C12.4418 12.4509 12.4282 12.5195 12.4282 12.5889V13.018C12.437 13.1517 12.4963 13.2771 12.594 13.3686C12.6918 13.4602 12.8206 13.5111 12.9545 13.5111C13.0884 13.5111 13.2173 13.4602 13.315 13.3686C13.4127 13.2771 13.472 13.1517 13.4808 13.018V12.5889C13.4811 12.5198 13.4679 12.4514 13.4417 12.3876C13.4156 12.3237 13.3772 12.2656 13.3286 12.2165C13.2801 12.1675 13.2224 12.1286 13.1588 12.1019C13.0952 12.0752 13.0269 12.0613 12.958 12.061H12.9557ZM12.9557 13.8626C12.8158 13.8626 12.6816 13.9183 12.5827 14.0173C12.4838 14.1162 12.4282 14.2505 12.4282 14.3905V14.8197C12.437 14.9534 12.4963 15.0787 12.594 15.1703C12.6918 15.2618 12.8206 15.3128 12.9545 15.3128C13.0884 15.3128 13.2173 15.2618 13.315 15.1703C13.4127 15.0787 13.472 14.9534 13.4808 14.8197V14.3905C13.4811 14.3215 13.4679 14.2531 13.4417 14.1892C13.4156 14.1253 13.3772 14.0672 13.3286 14.0182C13.2801 13.9692 13.2224 13.9302 13.1588 13.9035C13.0952 13.8768 13.0269 13.8629 12.958 13.8626H12.9557ZM18.3978 3.24777C18.3978 3.31699 18.3841 3.38552 18.3576 3.44944C18.331 3.51335 18.2921 3.57139 18.2431 3.62023C18.1941 3.66906 18.136 3.70773 18.072 3.73401C18.008 3.76028 17.9395 3.77365 17.8703 3.77335H17.751V16.7132C17.751 16.7824 17.7374 16.8509 17.7108 16.9148C17.6843 16.9787 17.6454 17.0368 17.5964 17.0856C17.5474 17.1345 17.4892 17.1731 17.4253 17.1994C17.3613 17.2257 17.2927 17.239 17.2236 17.2387H2.08752C2.01836 17.239 1.94982 17.2257 1.88584 17.1994C1.82186 17.1731 1.7637 17.1345 1.71469 17.0856C1.66568 17.0368 1.62679 16.9787 1.60025 16.9148C1.57372 16.8509 1.56006 16.7824 1.56006 16.7132V8.27865C1.56006 8.20943 1.57372 8.1409 1.60025 8.07699C1.62679 8.01307 1.66568 7.95503 1.71469 7.90619C1.7637 7.85736 1.82186 7.81869 1.88584 7.79242C1.94982 7.76614 2.01836 7.75277 2.08752 7.75307H6.44487V3.77335H6.32333C6.25129 3.77811 6.17904 3.76802 6.11105 3.74371C6.04307 3.71939 5.98079 3.68137 5.92809 3.63199C5.87538 3.58261 5.83337 3.52293 5.80464 3.45665C5.77592 3.39036 5.7611 3.31888 5.7611 3.24662C5.7611 3.17437 5.77592 3.10289 5.80464 3.0366C5.83337 2.97032 5.87538 2.91064 5.92809 2.86126C5.98079 2.81188 6.04307 2.77386 6.11105 2.74954C6.17904 2.72523 6.25129 2.71514 6.32333 2.7199H17.8749C18.0144 2.7205 18.148 2.77639 18.2464 2.87532C18.3448 2.97425 18.4001 3.10817 18.4001 3.24777H18.3978ZM2.61729 16.1853H6.44258V8.80652H2.61958L2.61729 16.1853ZM16.6663 16.1853V11.221H10.8962V16.1853H16.6663ZM15.2903 10.1675L13.7904 9.27243L12.2883 10.1675H15.2903ZM16.6938 3.77335H7.49523V16.1853H9.8436V10.6518V10.6288C9.8436 10.6288 9.8436 10.6105 9.8436 10.6036V10.5761C9.84273 10.5684 9.84273 10.5607 9.8436 10.5531C9.8436 10.5531 9.8436 10.5347 9.8436 10.5256V10.5049C9.84699 10.4963 9.85081 10.4879 9.85507 10.4797C9.85545 10.472 9.85545 10.4643 9.85507 10.4567L9.86883 10.4338C9.87261 10.4264 9.87722 10.4194 9.88259 10.4131C9.88553 10.4058 9.88938 10.3988 9.89406 10.3924L9.9124 10.3695L9.92616 10.3534C9.93097 10.3448 9.93717 10.3371 9.94451 10.3305C9.95043 10.3257 9.95581 10.3203 9.96057 10.3144L9.98121 10.296L10.0018 10.28L10.0202 10.2662L10.0454 10.2479H10.0569L13.4694 8.21209C13.5509 8.1636 13.644 8.13801 13.7388 8.13801C13.8337 8.13801 13.9268 8.1636 14.0083 8.21209L16.6938 9.78424V3.77335Z" fill="#004571"/>
</svg>
