<svg width="20" height="20" viewBox="0 0 20 20" fill="none" xmlns="http://www.w3.org/2000/svg">
<path d="M19.4246 1.12109H8.09548C7.86592 1.12109 7.68003 1.30716 7.68003 1.53692V18.4253C7.68003 18.655 7.86592 18.8411 8.09548 18.8411H19.4246C19.6541 18.8411 19.84 18.655 19.84 18.4253V1.53692C19.84 1.30715 19.6541 1.12109 19.4246 1.12109ZM11.1394 17.5694V4.46209H13.1045V17.5683L11.1394 17.5694ZM14.3756 17.5694V4.46209H16.3818V17.5683L14.3756 17.5694ZM18.6492 17.5694H17.5328V3.84632C17.5328 3.61654 17.3469 3.43049 17.1173 3.43049H10.4029C10.1734 3.43049 9.98749 3.61655 9.98749 3.84632V17.5683H8.87104V2.31293H18.6491L18.6492 17.5694Z" fill="#004571"/>
<path d="M4.94534 7.14552C4.28011 5.64967 2.09628 5.92663 1.80628 7.51557C0.775947 7.63892 0.16336 8.721 0.562071 9.65957C0.303372 9.99934 0.160034 10.4165 0.160034 10.8448C0.160034 12.1881 1.5091 13.1584 2.80003 12.6554C2.80003 12.6554 2.80003 12.6855 2.80003 12.8055L2.82046 14.8491L1.29114 14.8502C1.16795 14.8502 1.05148 14.9052 0.971962 14.9994C0.893568 15.0947 0.859973 15.2192 0.882369 15.3414L1.46136 18.5002C1.49719 18.6976 1.66966 18.8411 1.87013 18.8411H4.76406C4.96452 18.8411 5.13699 18.6976 5.17283 18.5002L5.75182 15.3414C5.77422 15.2203 5.74174 15.0947 5.66222 15.0005C5.58383 14.9052 5.46624 14.8502 5.34304 14.8502H3.81372V12.6855C3.81372 12.5538 3.81782 12.4741 3.84003 12.4802C4.01018 12.5274 4.14674 12.5538 4.32504 12.5538C5.86716 12.5538 6.81349 10.8729 6.05081 9.55971C6.69924 8.5976 6.09673 7.28116 4.94545 7.14547L4.94534 7.14552ZM4.21672 17.7691H2.45497L2.1094 15.9223H4.56215L4.21672 17.7691ZM5.1285 9.84658C5.30656 10.0518 5.40511 10.3187 5.40511 10.5979C5.40511 11.2393 4.96324 11.6418 4.32264 11.6418C4.05274 11.6418 3.78732 11.5465 3.57677 11.3749C3.3987 11.2292 3.11759 11.2673 2.98322 11.4445C2.77267 11.7203 2.45125 11.8784 2.10185 11.8784C1.48926 11.8784 1.0709 11.4583 1.0709 10.8449C1.0709 10.0365 1.83916 9.95683 1.48526 9.47244C1.10338 8.94878 1.59053 8.29767 2.19641 8.42773C2.32408 8.45352 2.45623 8.41988 2.55367 8.33354C2.73173 8.1788 2.6903 7.98482 2.6903 7.89511C2.6903 6.91058 3.95369 6.76145 4.15866 7.72355C4.20233 7.92651 4.38488 8.07003 4.59541 8.05097C5.35808 7.99715 5.65596 8.82617 5.16657 9.26351C4.99634 9.41601 4.97955 9.67503 5.1285 9.84658Z" fill="#004571"/>
</svg>
