<svg width="20" height="20" viewBox="0 0 20 20" fill="none" xmlns="http://www.w3.org/2000/svg">
<path d="M5.40484 1.23828C4.0128 1.23828 2.8729 2.37923 2.8729 3.77257L2.87203 3.77344V3.77431C2.8729 4.16768 2.9642 4.55322 3.13896 4.90134C2.4312 5.5384 2.01645 6.45306 2.01645 7.42248C2.01645 8.3215 2.37382 9.18483 3.00852 9.8202C3.51108 10.3232 4.15623 10.6522 4.84834 10.7671V11.9658H2.12523V11.9667C1.97568 11.9641 1.83221 12.0215 1.72613 12.1259C1.62005 12.2304 1.56006 12.374 1.56006 12.5228C1.56006 12.6716 1.62005 12.8143 1.72613 12.9196C1.83221 13.0241 1.97567 13.0815 2.12523 13.0789H17.9158H17.9149C18.0644 13.0815 18.2079 13.0241 18.314 12.9196C18.4201 12.8143 18.4801 12.6716 18.4801 12.5228C18.4801 12.374 18.4201 12.2304 18.314 12.1259C18.2079 12.0215 18.0644 11.9641 17.9149 11.9667H15.1918V10.7679C15.8839 10.6522 16.529 10.3241 17.0316 9.82107C17.6663 9.18575 18.0237 8.32242 18.0237 7.42335V7.42248C18.0228 6.45384 17.608 5.54092 16.9012 4.90468C17.0759 4.5557 17.1681 4.16841 17.1681 3.77331C17.1681 2.37997 16.0282 1.23813 14.6361 1.23902C13.2441 1.23902 12.1042 2.37997 12.1042 3.77331H12.1033V3.77418C12.1042 4.16754 12.1981 4.55309 12.3703 4.90121C11.6625 5.53827 11.2469 6.45293 11.2478 7.42235C11.2478 8.32137 11.6051 9.18381 12.2398 9.82007C12.7424 10.3231 13.3875 10.6521 14.0797 10.7669V11.9657H5.96056V10.7669C6.65268 10.6512 7.29783 10.3231 7.80038 9.82007C8.43598 9.18474 8.79246 8.32141 8.79246 7.42235V7.42148C8.79159 6.45284 8.37684 5.53991 7.66995 4.90368C7.84471 4.55469 7.93687 4.16741 7.93687 3.7723V3.77318C7.93687 2.37984 6.79698 1.23889 5.40494 1.23889L5.40484 1.23828ZM5.40484 2.35139C6.19607 2.35139 6.8247 2.98147 6.8247 3.77257C6.8247 4.10329 6.70906 4.42442 6.49776 4.67941C6.39603 4.80299 6.35169 4.96399 6.3769 5.12152C6.40212 5.27906 6.49341 5.41829 6.62818 5.50446C7.28377 5.9222 7.68026 6.64455 7.68113 7.42346C7.68113 8.02743 7.44203 8.60706 7.01511 9.03438C6.72209 9.32766 6.35692 9.53306 5.96129 9.63227V8.72803L6.81338 7.99874C6.92815 7.90388 7.00031 7.76636 7.01336 7.61756C7.0264 7.46875 6.97858 7.32166 6.88207 7.20766C6.78468 7.09452 6.64643 7.0249 6.49775 7.01446C6.34906 7.00401 6.203 7.05362 6.09083 7.15283L5.96041 7.26423V6.96049C5.96302 6.80993 5.90389 6.66547 5.79782 6.55928C5.69174 6.45311 5.54654 6.39393 5.39611 6.39654C5.08919 6.40089 4.84399 6.65327 4.84835 6.96048V7.26421L4.71793 7.15282H4.71879C4.61967 7.06579 4.49447 7.01618 4.36317 7.01357C4.12667 7.00835 3.91278 7.15369 3.83018 7.37561C3.74758 7.59666 3.81366 7.84731 3.99538 7.99788L4.84747 8.72717V9.6314C4.45187 9.53219 4.08753 9.3268 3.79365 9.03351C3.36673 8.60619 3.12676 8.02746 3.12676 7.4226C3.12676 6.64369 3.52323 5.9196 4.18058 5.50099H4.18145C4.31622 5.41484 4.40751 5.27559 4.43272 5.11806C4.45707 4.95966 4.4136 4.79953 4.31187 4.67594C4.10145 4.42182 3.98582 4.10242 3.98493 3.77171C3.98493 2.98061 4.61443 2.35052 5.40479 2.35052L5.40484 2.35139ZM14.6362 2.35139C15.4274 2.35139 16.0569 2.98147 16.0561 3.77257C16.0561 4.10415 15.9404 4.42442 15.7291 4.67941C15.6274 4.80299 15.583 4.96399 15.6083 5.12152C15.6335 5.27905 15.7248 5.41829 15.8595 5.50446C16.5151 5.9222 16.9116 6.64455 16.9125 7.42346C16.9125 8.02743 16.6725 8.60706 16.2456 9.03438C15.9526 9.32766 15.5874 9.53306 15.1926 9.63227V8.72803L16.0447 7.99874C16.1595 7.90388 16.2317 7.76636 16.2447 7.61756C16.2578 7.46874 16.2099 7.32166 16.1134 7.20766C16.0169 7.09452 15.8778 7.0249 15.7291 7.01446C15.5804 7.00401 15.4344 7.05362 15.3222 7.15283L15.1918 7.26423V6.96049C15.1944 6.80993 15.1353 6.66547 15.0292 6.55928C14.9222 6.45224 14.7779 6.39393 14.6275 6.39654C14.3205 6.40089 14.0753 6.65327 14.0797 6.96048V7.26421L13.9493 7.15282C13.851 7.06579 13.7258 7.01618 13.5945 7.01357C13.358 7.00835 13.1441 7.15369 13.0615 7.37561C12.9789 7.59666 13.045 7.84731 13.2276 7.99788L14.0797 8.72717V9.6314C13.685 9.53219 13.3198 9.3268 13.0267 9.03351C12.5998 8.60619 12.3599 8.02746 12.3599 7.4226C12.3599 6.64369 12.7563 5.9196 13.4128 5.50099C13.5476 5.41484 13.6389 5.27559 13.6632 5.11806C13.6884 4.95966 13.645 4.79953 13.5432 4.67594C13.3328 4.42182 13.2172 4.10242 13.2163 3.77171C13.2163 2.98061 13.8458 2.35052 14.6362 2.35052L14.6362 2.35139ZM2.1297 14.7859H2.12883C1.98015 14.7833 1.83669 14.8407 1.7306 14.9452C1.62366 15.0505 1.56453 15.1932 1.56453 15.342C1.56453 15.4908 1.62366 15.6344 1.7306 15.7389C1.83668 15.8433 1.98015 15.9007 2.12883 15.899H4.29994C4.44949 15.9007 4.59296 15.8433 4.69904 15.7389C4.80512 15.6344 4.86511 15.4908 4.86511 15.342C4.86511 15.1932 4.80512 15.0505 4.69904 14.9452C4.59297 14.8407 4.4495 14.7833 4.29994 14.7859H2.1297ZM6.59958 14.7859C6.45003 14.7833 6.30656 14.8407 6.20048 14.9452C6.0944 15.0505 6.03441 15.1932 6.03441 15.342C6.03441 15.4908 6.0944 15.6344 6.20048 15.7389C6.30656 15.8433 6.45002 15.9007 6.59958 15.899H8.77069C8.91937 15.9007 9.06283 15.8433 9.16979 15.7389C9.27586 15.6344 9.33586 15.4908 9.33586 15.342C9.33586 15.1932 9.27586 15.0505 9.16979 14.9452C9.06284 14.8407 8.91938 14.7833 8.77069 14.7859H6.59958ZM11.2695 14.7859C11.1208 14.7833 10.9773 14.8407 10.8704 14.9452C10.7643 15.0505 10.7043 15.1932 10.7043 15.342C10.7043 15.4908 10.7643 15.6344 10.8704 15.7389C10.9773 15.8433 11.1208 15.9007 11.2695 15.899H13.4406C13.5901 15.9007 13.7336 15.8433 13.8397 15.7389C13.9457 15.6344 14.0057 15.4908 14.0057 15.342C14.0057 15.1932 13.9457 15.0505 13.8397 14.9452C13.7336 14.8407 13.5901 14.7833 13.4406 14.7859H11.2695ZM15.7393 14.7859H15.7402C15.5906 14.7833 15.4472 14.8407 15.3411 14.9452C15.235 15.0505 15.175 15.1932 15.175 15.342C15.175 15.4908 15.235 15.6344 15.3411 15.7389C15.4472 15.8433 15.5906 15.9007 15.7402 15.899H17.9113C18.06 15.9007 18.2043 15.8433 18.3104 15.7389C18.4165 15.6344 18.4765 15.4908 18.4765 15.342C18.4765 15.1932 18.4165 15.0505 18.3104 14.9452C18.2043 14.8407 18.06 14.7833 17.9113 14.7859H15.7393ZM2.12436 17.6452H2.12523C1.97568 17.6425 1.83222 17.7 1.72613 17.8053C1.62006 17.9097 1.56006 18.0525 1.56006 18.2013C1.56006 18.351 1.62006 18.4937 1.72613 18.5981C1.83221 18.7025 1.97567 18.76 2.12523 18.7582H17.9158H17.9149C18.0644 18.76 18.2079 18.7025 18.314 18.5981C18.4201 18.4937 18.4801 18.3509 18.4801 18.2013C18.4801 18.0524 18.4201 17.9097 18.314 17.8053C18.2079 17.7 18.0644 17.6425 17.9149 17.6452H2.12436Z" fill="#004571"/>
</svg>
