<svg width="20" height="20" viewBox="0 0 20 20" fill="none" xmlns="http://www.w3.org/2000/svg">
<path d="M18.712 8.45259L10.392 1.95259C10.352 1.91659 10.312 1.89259 10.264 1.86859C10.26 1.86459 10.252 1.86459 10.244 1.86059C10.216 1.84859 10.188 1.83659 10.16 1.82859C10.148 1.82459 10.136 1.82459 10.12 1.82059C10.096 1.81659 10.076 1.81259 10.052 1.80859C10.032 1.80859 10.016 1.80859 9.99596 1.80859C9.97996 1.80859 9.95996 1.80859 9.94396 1.80859C9.91996 1.81259 9.89996 1.81659 9.87596 1.82059C9.86396 1.82459 9.85196 1.82459 9.83596 1.82859C9.80796 1.83659 9.77996 1.84859 9.75196 1.86059C9.74396 1.86459 9.73996 1.86459 9.73196 1.86859C9.68796 1.89259 9.64396 1.92059 9.60396 1.95259L1.28396 8.45259C1.03196 8.65259 0.983956 9.02059 1.18396 9.27259C1.38396 9.52859 1.75196 9.57259 2.00396 9.37259L3.39196 8.28859V16.7486C3.39196 17.5326 4.02796 18.1686 4.80396 18.1686H7.21196H8.12396H8.37596V13.2446C8.37596 12.9406 8.62396 12.6886 8.92796 12.6886H11.04C11.344 12.6886 11.592 12.9366 11.592 13.2446V18.1686H11.888H12.756H15.164C15.944 18.1686 16.576 17.5326 16.576 16.7486V8.29259L17.964 9.37659C18.22 9.57659 18.588 9.52859 18.784 9.27659C19.012 9.02059 18.968 8.65259 18.712 8.45259ZM15.432 16.7486C15.432 16.8846 15.324 16.9926 15.188 16.9926H12.78V13.2406C12.78 12.2926 12.008 11.5206 11.06 11.5206H8.94796C7.99996 11.5206 7.22796 12.2926 7.22796 13.2406V16.9926H4.81996C4.68396 16.9926 4.57596 16.8806 4.57596 16.7486V7.37659L10.004 3.13659L15.432 7.37659V16.7486V16.7486Z" fill="#004571"/>
</svg>
