<svg width="160" height="44" viewBox="0 0 160 44" fill="none" xmlns="http://www.w3.org/2000/svg">
<rect width="160" height="43.8182" rx="5" fill="#F8F7F6"/>
<rect x="0.5" y="0.5" width="159" height="42.8182" rx="4.5" stroke="#004571" stroke-opacity="0.2"/>
<path d="M10.2 30.6366V30.6364V17.5455C10.2 16.999 10.3924 16.5359 10.7829 16.1454C11.1733 15.755 11.636 15.563 12.1816 15.5636H12.1818H15.6182H15.7056L15.765 15.4994L17.7238 13.3818H23.9818V15.1636H18.5909H18.5027L18.4432 15.2288L16.5118 17.3455H12.1818H11.9818V17.5455V30.6364V30.8364H12.1818H29.6364H29.8364V30.6364V21.0182H31.6182V30.6364C31.6182 31.1828 31.4258 31.6459 31.0353 32.0364C30.6448 32.4269 30.1822 32.6188 29.6366 32.6182H29.6364H12.1818C11.6353 32.6182 11.1723 32.4258 10.7818 32.0353C10.3913 31.6448 10.1993 31.1822 10.2 30.6366ZM31.6182 15.3636V17.3455H29.8364V15.3636V15.1636H29.6364H27.6545V13.3818H29.6364H29.8364V13.1818V11.2H31.6182V13.1818V13.3818H31.8182H33.8V15.1636H31.8182H31.6182V15.3636ZM20.9091 19.3818H20.9092C22.2196 19.3811 23.3274 19.8375 24.2444 20.7545C25.1614 21.6715 25.6182 22.7797 25.6182 24.0909L25.6182 24.091C25.6189 25.4014 25.1625 26.5092 24.2455 27.4262C23.3285 28.3432 22.2203 28.8 20.9091 28.8H20.909C19.5986 28.8007 18.4908 28.3443 17.5738 27.4273C16.6568 26.5103 16.2 25.4021 16.2 24.0909V24.0908C16.1993 22.7804 16.6557 21.6726 17.5727 20.7556C18.4897 19.8386 19.5979 19.3818 20.9091 19.3818ZM18.8313 26.1687C19.3971 26.7345 20.0938 27.0182 20.9091 27.0182C21.7243 27.0182 22.4211 26.7345 22.9869 26.1687C23.5527 25.6029 23.8364 24.9062 23.8364 24.0909C23.8364 23.2757 23.5527 22.5789 22.9869 22.0131C22.4211 21.4473 21.7243 21.1636 20.9091 21.1636C20.0938 21.1636 19.3971 21.4473 18.8313 22.0131C18.2655 22.5789 17.9818 23.2757 17.9818 24.0909C17.9818 24.9062 18.2655 25.6029 18.8313 26.1687Z" fill="#BDBDBD" stroke="#F8F7F6" stroke-width="0.4"/>
<path d="M51 22.7222H46.352L45.568 24.7662C45.5493 24.8222 45.526 24.8596 45.498 24.8782C45.47 24.8969 45.4187 24.9062 45.344 24.9062H44.196L47.92 15.6242H49.194C49.2687 15.6242 49.32 15.6336 49.348 15.6522C49.376 15.6709 49.404 15.7129 49.432 15.7782L53.254 24.9062H52.064C51.952 24.9062 51.8773 24.8596 51.84 24.7662L51 22.7222ZM46.744 21.6862H50.58L49.81 19.7542C49.502 18.9796 49.25 18.3542 49.054 17.8782C48.8673 17.3929 48.7273 17.0196 48.634 16.7582H48.62C48.536 17.0009 48.4007 17.3742 48.214 17.8782C48.0273 18.3729 47.7847 18.9982 47.486 19.7542L46.744 21.6862ZM55.1992 18.0742L55.4092 18.6622L55.8432 18.4522C56.1139 18.3216 56.4032 18.2096 56.7112 18.1162C57.0286 18.0136 57.3366 17.9622 57.6352 17.9622C58.0459 17.9622 58.4192 18.0276 58.7552 18.1582C59.1006 18.2796 59.3899 18.4522 59.6232 18.6762C59.8379 18.8909 60.0012 19.1476 60.1132 19.4462C60.2346 19.7449 60.2952 20.1276 60.2952 20.5942V24.9062H59.0632V20.6502C59.0632 20.3329 59.0352 20.0902 58.9792 19.9222C58.9232 19.7542 58.8346 19.6096 58.7132 19.4882C58.5826 19.3576 58.4006 19.2642 58.1672 19.2082C57.9432 19.1522 57.6959 19.1242 57.4252 19.1242H57.4112C57.1126 19.1242 56.7999 19.1616 56.4732 19.2362C56.1466 19.3109 55.8759 19.3996 55.6612 19.5022C55.6052 19.5302 55.5679 19.5629 55.5492 19.6002C55.5399 19.6282 55.5352 19.6702 55.5352 19.7262V24.9062H54.3032V18.0742H55.1992ZM59.8472 15.5962C59.7446 16.0069 59.5719 16.3429 59.3292 16.6042C59.0866 16.8656 58.7786 16.9963 58.4052 16.9963C58.2372 16.9963 58.0692 16.9636 57.9012 16.8982C57.7426 16.8329 57.5839 16.7629 57.4252 16.6882C57.2759 16.6136 57.1312 16.5436 56.9912 16.4782C56.8606 16.4129 56.7346 16.3802 56.6132 16.3802C56.4359 16.3802 56.2819 16.4316 56.1512 16.5342C56.0299 16.6276 55.9039 16.7909 55.7732 17.0242L55.1152 16.8282C55.2179 16.4176 55.3906 16.0816 55.6332 15.8202C55.8759 15.5589 56.1839 15.4282 56.5572 15.4282C56.7252 15.4282 56.8886 15.4609 57.0472 15.5262C57.2152 15.5916 57.3739 15.6616 57.5232 15.7362C57.6819 15.8109 57.8266 15.8809 57.9572 15.9462C58.0972 16.0116 58.2279 16.0442 58.3492 16.0442C58.5266 16.0442 58.6759 15.9976 58.7972 15.9042C58.9279 15.8016 59.0586 15.6336 59.1892 15.4002L59.8472 15.5962ZM66.2272 20.5242C66.2272 20.2536 66.2039 20.0436 66.1572 19.8942C66.1105 19.7356 66.0359 19.6002 65.9332 19.4882C65.8025 19.3389 65.6252 19.2316 65.4012 19.1662C65.1865 19.1009 64.9392 19.0682 64.6592 19.0682C64.4072 19.0682 64.1412 19.0962 63.8612 19.1522C63.5905 19.2082 63.3199 19.2876 63.0492 19.3902L62.3492 19.6422L61.9572 18.9702C62.4239 18.6342 62.8905 18.3822 63.3572 18.2142C63.8332 18.0462 64.3045 17.9622 64.7712 17.9622C65.1819 17.9622 65.5645 18.0276 65.9192 18.1582C66.2832 18.2796 66.5912 18.4756 66.8432 18.7462C67.0392 18.9609 67.1885 19.2082 67.2912 19.4882C67.4032 19.7682 67.4592 20.1276 67.4592 20.5662V23.8982L68.4532 24.0802V24.7102C68.3132 24.7756 68.1499 24.8316 67.9632 24.8782C67.7765 24.9156 67.5945 24.9343 67.4172 24.9343C67.1745 24.9343 66.9599 24.8782 66.7732 24.7662C66.5959 24.6542 66.4559 24.5002 66.3532 24.3042L65.8912 24.5422C65.6299 24.6729 65.3452 24.7849 65.0372 24.8782C64.7292 24.9716 64.4212 25.0183 64.1132 25.0183C63.7212 25.0183 63.3712 24.9576 63.0632 24.8362C62.7552 24.7149 62.4892 24.5469 62.2652 24.3322C62.0505 24.1269 61.8825 23.8889 61.7612 23.6182C61.6399 23.3476 61.5792 23.0582 61.5792 22.7502C61.5792 22.1529 61.7799 21.6956 62.1812 21.3782C62.5919 21.0609 63.1705 20.9022 63.9172 20.9022H64.0292C64.1692 20.9022 64.3279 20.9069 64.5052 20.9162C64.6919 20.9256 64.8832 20.9396 65.0792 20.9582C65.2845 20.9676 65.4852 20.9862 65.6812 21.0142C65.8772 21.0329 66.0592 21.0516 66.2272 21.0702V20.5242ZM66.2272 22.0082C66.2272 21.9616 66.2179 21.9289 66.1992 21.9102C66.1805 21.8822 66.1339 21.8682 66.0592 21.8682H63.6792C63.5112 21.8682 63.3759 21.8869 63.2732 21.9242C63.1705 21.9522 63.0865 21.9989 63.0212 22.0642C62.8812 22.2042 62.8112 22.4189 62.8112 22.7082C62.8112 23.0629 62.9372 23.3616 63.1892 23.6042C63.4412 23.8469 63.8099 23.9682 64.2952 23.9682C64.5939 23.9682 64.9065 23.9262 65.2332 23.8422C65.5692 23.7489 65.8585 23.6369 66.1012 23.5062C66.1852 23.4596 66.2272 23.3849 66.2272 23.2822V22.0082ZM74.405 14.9802H75.637V24.9062H74.741L74.503 24.2342L74.013 24.5002C73.6677 24.6869 73.3504 24.8222 73.061 24.9062C72.781 24.9809 72.487 25.0183 72.179 25.0183C71.731 25.0183 71.3204 24.9343 70.947 24.7662C70.5737 24.5982 70.2517 24.3602 69.981 24.0522C69.7197 23.7442 69.5144 23.3756 69.365 22.9462C69.2157 22.5169 69.141 22.0409 69.141 21.5182C69.141 20.9489 69.2297 20.4449 69.407 20.0062C69.5844 19.5676 69.8177 19.1989 70.107 18.9002C70.3964 18.5922 70.7277 18.3589 71.101 18.2002C71.4744 18.0416 71.8524 17.9622 72.235 17.9622C72.5524 17.9622 72.8604 18.0089 73.159 18.1022C73.4577 18.1956 73.7564 18.3216 74.055 18.4802L74.405 18.6622V14.9802ZM74.405 19.8522C74.405 19.7682 74.3957 19.7076 74.377 19.6702C74.3584 19.6329 74.3117 19.5956 74.237 19.5582C73.9664 19.4182 73.6724 19.3062 73.355 19.2222C73.047 19.1382 72.7484 19.0962 72.459 19.0962C71.815 19.0962 71.311 19.2922 70.947 19.6842C70.5924 20.0762 70.415 20.6829 70.415 21.5042C70.415 22.3536 70.5877 22.9649 70.933 23.3382C71.2877 23.7022 71.773 23.8842 72.389 23.8842C72.697 23.8842 73.0237 23.8376 73.369 23.7442C73.7144 23.6509 74.0084 23.5389 74.251 23.4082C74.3164 23.3709 74.3584 23.3336 74.377 23.2962C74.3957 23.2589 74.405 23.2029 74.405 23.1282V19.8522ZM77.5321 18.0742H78.7641V24.9062H77.5321V18.0742ZM77.5041 15.4562H78.5401C78.6427 15.4562 78.7081 15.4749 78.7361 15.5122C78.7734 15.5402 78.7921 15.5962 78.7921 15.6802V16.7722H77.5041V15.4562ZM81.7969 18.9982C82.3943 18.6062 82.8563 18.3356 83.1829 18.1862C83.5096 18.0369 83.7896 17.9622 84.0229 17.9622C84.1443 17.9622 84.2609 17.9809 84.3729 18.0182C84.4943 18.0462 84.6063 18.0836 84.7089 18.1302V18.9422C84.4009 19.0076 84.0043 19.1149 83.5189 19.2642C83.0336 19.4042 82.5343 19.5722 82.0209 19.7682C81.9276 19.8056 81.8809 19.8756 81.8809 19.9782V24.9062H80.6489V18.0742H81.5309L81.7969 18.9982ZM88.0788 18.3262L89.3248 18.1022C89.2781 17.9436 89.2361 17.7709 89.1988 17.5842C89.1708 17.3882 89.1568 17.2016 89.1568 17.0242C89.1568 16.6602 89.2221 16.3429 89.3528 16.0722C89.4834 15.8016 89.6561 15.5776 89.8708 15.4002C90.0854 15.2229 90.3328 15.0922 90.6128 15.0082C90.8928 14.9149 91.1868 14.8682 91.4948 14.8682C91.8401 14.8682 92.2041 14.9242 92.5868 15.0362C92.9694 15.1482 93.3148 15.2976 93.6228 15.4842L93.3428 16.1982L92.8108 16.0862C92.6148 16.0396 92.4141 16.0022 92.2088 15.9742C92.0128 15.9462 91.8214 15.9322 91.6348 15.9322C91.2334 15.9322 90.9208 16.0256 90.6968 16.2122C90.4821 16.3989 90.3748 16.7069 90.3748 17.1362C90.3748 17.2762 90.3888 17.4396 90.4168 17.6262C90.4448 17.8036 90.4821 17.9529 90.5288 18.0742H93.0348V19.0262H90.5988V24.9062H89.3668V19.0262H88.0788V18.3262ZM99.9099 21.4902C99.9099 22.0316 99.8212 22.5216 99.6439 22.9602C99.4665 23.3896 99.2239 23.7582 98.9159 24.0662C98.6172 24.3742 98.2625 24.6122 97.8519 24.7802C97.4505 24.9389 97.0212 25.0183 96.5639 25.0183H96.5219C96.0645 25.0183 95.6305 24.9389 95.2199 24.7802C94.8185 24.6122 94.4639 24.3742 94.1559 24.0662C93.8572 23.7582 93.6192 23.3896 93.4419 22.9602C93.2645 22.5216 93.1759 22.0316 93.1759 21.4902C93.1759 20.9489 93.2645 20.4636 93.4419 20.0342C93.6192 19.5956 93.8572 19.2222 94.1559 18.9142C94.4639 18.6062 94.8185 18.3729 95.2199 18.2142C95.6305 18.0462 96.0645 17.9622 96.5219 17.9622H96.5639C97.0212 17.9622 97.4505 18.0462 97.8519 18.2142C98.2625 18.3729 98.6172 18.6062 98.9159 18.9142C99.2239 19.2222 99.4665 19.5956 99.6439 20.0342C99.8212 20.4636 99.9099 20.9489 99.9099 21.4902ZM98.6359 21.4902C98.6359 20.7156 98.4585 20.1276 98.1039 19.7262C97.7492 19.3156 97.2359 19.1102 96.5639 19.1102H96.5219C95.8499 19.1102 95.3365 19.3156 94.9819 19.7262C94.6272 20.1276 94.4499 20.7156 94.4499 21.4902C94.4499 22.2649 94.6272 22.8576 94.9819 23.2682C95.3365 23.6696 95.8499 23.8702 96.5219 23.8702H96.5639C97.2359 23.8702 97.7492 23.6696 98.1039 23.2682C98.4585 22.8576 98.6359 22.2649 98.6359 21.4902ZM105.814 24.2622C105.515 24.4769 105.165 24.6589 104.764 24.8082C104.372 24.9483 103.999 25.0183 103.644 25.0183C103.336 25.0183 103.061 24.9716 102.818 24.8782C102.575 24.7849 102.37 24.6589 102.202 24.5002C101.838 24.1549 101.656 23.6369 101.656 22.9462V19.0262H100.368V18.3262L101.656 18.0882V16.1002H102.888V18.0742H105.324V19.0262H102.888V22.9042C102.888 23.2776 102.967 23.5436 103.126 23.7022C103.285 23.8609 103.527 23.9402 103.854 23.9402C103.994 23.9402 104.157 23.9216 104.344 23.8842C104.54 23.8469 104.769 23.7909 105.03 23.7162L105.52 23.5902L105.814 24.2622ZM113.062 21.4902C113.062 22.0316 112.974 22.5216 112.796 22.9602C112.619 23.3896 112.376 23.7582 112.068 24.0662C111.77 24.3742 111.415 24.6122 111.004 24.7802C110.603 24.9389 110.174 25.0183 109.716 25.0183H109.674C109.217 25.0183 108.783 24.9389 108.372 24.7802C107.971 24.6122 107.616 24.3742 107.308 24.0662C107.01 23.7582 106.772 23.3896 106.594 22.9602C106.417 22.5216 106.328 22.0316 106.328 21.4902C106.328 20.9489 106.417 20.4636 106.594 20.0342C106.772 19.5956 107.01 19.2222 107.308 18.9142C107.616 18.6062 107.971 18.3729 108.372 18.2142C108.783 18.0462 109.217 17.9622 109.674 17.9622H109.716C110.174 17.9622 110.603 18.0462 111.004 18.2142C111.415 18.3729 111.77 18.6062 112.068 18.9142C112.376 19.2222 112.619 19.5956 112.796 20.0342C112.974 20.4636 113.062 20.9489 113.062 21.4902ZM111.788 21.4902C111.788 20.7156 111.611 20.1276 111.256 19.7262C110.902 19.3156 110.388 19.1102 109.716 19.1102H109.674C109.002 19.1102 108.489 19.3156 108.134 19.7262C107.78 20.1276 107.602 20.7156 107.602 21.4902C107.602 22.2649 107.78 22.8576 108.134 23.2682C108.489 23.6696 109.002 23.8702 109.674 23.8702H109.716C110.388 23.8702 110.902 23.6696 111.256 23.2682C111.611 22.8576 111.788 22.2649 111.788 21.4902ZM121.095 18.7742L119.737 19.0822C119.643 19.1102 119.62 19.1616 119.667 19.2362C119.797 19.4416 119.9 19.6562 119.975 19.8802C120.049 20.1042 120.087 20.3469 120.087 20.6082C120.087 20.9909 120.012 21.3456 119.863 21.6722C119.713 21.9896 119.508 22.2696 119.247 22.5122C118.985 22.7456 118.677 22.9276 118.323 23.0583C117.977 23.1889 117.604 23.2542 117.203 23.2542C116.979 23.2542 116.778 23.2402 116.601 23.2122C116.423 23.1749 116.279 23.1329 116.167 23.0862C116.12 23.0676 116.083 23.0629 116.055 23.0722C116.036 23.0816 116.017 23.1049 115.999 23.1422L115.747 23.5762C115.672 23.6976 115.635 23.7862 115.635 23.8422C115.635 23.8889 115.663 23.9309 115.719 23.9682C115.775 23.9962 115.882 24.0102 116.041 24.0102H118.099C118.603 24.0102 119.018 24.0616 119.345 24.1642C119.671 24.2669 119.937 24.4209 120.143 24.6262C120.301 24.7849 120.418 24.9716 120.493 25.1863C120.567 25.4009 120.605 25.6343 120.605 25.8863C120.605 26.2409 120.521 26.5676 120.353 26.8663C120.185 27.1743 119.947 27.4356 119.639 27.6503C119.34 27.8649 118.981 28.0329 118.561 28.1543C118.141 28.2756 117.679 28.3363 117.175 28.3363C116.671 28.3363 116.209 28.2756 115.789 28.1543C115.378 28.0423 115.023 27.8789 114.725 27.6643C114.435 27.4589 114.207 27.2163 114.039 26.9363C113.88 26.6563 113.801 26.3483 113.801 26.0123C113.801 25.6949 113.875 25.4243 114.024 25.2003C114.183 24.9763 114.389 24.7942 114.641 24.6542C114.482 24.4769 114.403 24.2949 114.403 24.1082C114.403 23.9776 114.435 23.8516 114.501 23.7302C114.575 23.5996 114.678 23.4549 114.809 23.2962L115.341 22.6382C115.042 22.3956 114.795 22.1016 114.599 21.7562C114.412 21.4109 114.319 21.0282 114.319 20.6082C114.319 20.2256 114.393 19.8756 114.543 19.5582C114.692 19.2316 114.897 18.9516 115.159 18.7182C115.42 18.4756 115.723 18.2889 116.069 18.1582C116.423 18.0276 116.801 17.9622 117.203 17.9622C117.548 17.9622 117.879 18.0182 118.197 18.1302C118.514 18.2329 118.794 18.3776 119.037 18.5642C119.391 18.2936 119.667 18.1022 119.863 17.9902C120.059 17.8782 120.241 17.8222 120.409 17.8222C120.53 17.8222 120.647 17.8456 120.758 17.8922C120.88 17.9389 120.992 17.9996 121.095 18.0742V18.7742ZM118.897 20.6082C118.897 20.0669 118.743 19.6656 118.435 19.4042C118.127 19.1336 117.716 18.9982 117.203 18.9982C116.689 18.9982 116.279 19.1336 115.971 19.4042C115.663 19.6656 115.509 20.0669 115.509 20.6082C115.509 21.1496 115.663 21.5556 115.971 21.8262C116.279 22.0876 116.689 22.2182 117.203 22.2182C117.716 22.2182 118.127 22.0876 118.435 21.8262C118.743 21.5556 118.897 21.1496 118.897 20.6082ZM115.775 25.0743C115.504 25.0743 115.308 25.1303 115.187 25.2423C115.037 25.3823 114.963 25.5923 114.963 25.8723C114.963 26.3016 115.154 26.6469 115.537 26.9083C115.929 27.1789 116.475 27.3143 117.175 27.3143C117.837 27.3143 118.379 27.1929 118.799 26.9503C119.219 26.7076 119.429 26.3576 119.429 25.9003C119.429 25.6389 119.354 25.4429 119.205 25.3123C119.102 25.2189 118.957 25.1536 118.771 25.1163C118.584 25.0883 118.36 25.0743 118.099 25.0743H115.775ZM123.209 18.9982C123.806 18.6062 124.268 18.3356 124.595 18.1862C124.922 18.0369 125.202 17.9622 125.435 17.9622C125.556 17.9622 125.673 17.9809 125.785 18.0182C125.906 18.0462 126.018 18.0836 126.121 18.1302V18.9422C125.813 19.0076 125.416 19.1149 124.931 19.2642C124.446 19.4042 123.946 19.5722 123.433 19.7682C123.34 19.8056 123.293 19.8756 123.293 19.9782V24.9062H122.061V18.0742H122.943L123.209 18.9982ZM131.1 20.5242C131.1 20.2536 131.077 20.0436 131.03 19.8942C130.984 19.7356 130.909 19.6002 130.806 19.4882C130.676 19.3389 130.498 19.2316 130.274 19.1662C130.06 19.1009 129.812 19.0682 129.532 19.0682C129.28 19.0682 129.014 19.0962 128.734 19.1522C128.464 19.2082 128.193 19.2876 127.922 19.3902L127.222 19.6422L126.83 18.9702C127.297 18.6342 127.764 18.3822 128.23 18.2142C128.706 18.0462 129.178 17.9622 129.644 17.9622C130.055 17.9622 130.438 18.0276 130.792 18.1582C131.156 18.2796 131.464 18.4756 131.716 18.7462C131.912 18.9609 132.062 19.2082 132.164 19.4882C132.276 19.7682 132.332 20.1276 132.332 20.5662V23.8982L133.326 24.0802V24.7102C133.186 24.7756 133.023 24.8316 132.836 24.8782C132.65 24.9156 132.468 24.9343 132.29 24.9343C132.048 24.9343 131.833 24.8782 131.646 24.7662C131.469 24.6542 131.329 24.5002 131.226 24.3042L130.764 24.5422C130.503 24.6729 130.218 24.7849 129.91 24.8782C129.602 24.9716 129.294 25.0183 128.986 25.0183C128.594 25.0183 128.244 24.9576 127.936 24.8362C127.628 24.7149 127.362 24.5469 127.138 24.3322C126.924 24.1269 126.756 23.8889 126.634 23.6182C126.513 23.3476 126.452 23.0582 126.452 22.7502C126.452 22.1529 126.653 21.6956 127.054 21.3782C127.465 21.0609 128.044 20.9022 128.79 20.9022H128.902C129.042 20.9022 129.201 20.9069 129.378 20.9162C129.565 20.9256 129.756 20.9396 129.952 20.9582C130.158 20.9676 130.358 20.9862 130.554 21.0142C130.75 21.0329 130.932 21.0516 131.1 21.0702V20.5242ZM131.1 22.0082C131.1 21.9616 131.091 21.9289 131.072 21.9102C131.054 21.8822 131.007 21.8682 130.932 21.8682H128.552C128.384 21.8682 128.249 21.8869 128.146 21.9242C128.044 21.9522 127.96 21.9989 127.894 22.0642C127.754 22.2042 127.684 22.4189 127.684 22.7082C127.684 23.0629 127.81 23.3616 128.062 23.6042C128.314 23.8469 128.683 23.9682 129.168 23.9682C129.467 23.9682 129.78 23.9262 130.106 23.8422C130.442 23.7489 130.732 23.6369 130.974 23.5062C131.058 23.4596 131.1 23.3849 131.1 23.2822V22.0082ZM133.469 18.3262L134.715 18.1022C134.669 17.9436 134.627 17.7709 134.589 17.5842C134.561 17.3882 134.547 17.2016 134.547 17.0242C134.547 16.6602 134.613 16.3429 134.743 16.0722C134.874 15.8016 135.047 15.5776 135.261 15.4002C135.476 15.2229 135.723 15.0922 136.003 15.0082C136.283 14.9149 136.577 14.8682 136.885 14.8682C137.231 14.8682 137.595 14.9242 137.977 15.0362C138.36 15.1482 138.705 15.2976 139.013 15.4842L138.733 16.1982L138.201 16.0862C138.005 16.0396 137.805 16.0022 137.599 15.9742C137.403 15.9462 137.212 15.9322 137.025 15.9322C136.624 15.9322 136.311 16.0256 136.087 16.2122C135.873 16.3989 135.765 16.7069 135.765 17.1362C135.765 17.2762 135.779 17.4396 135.807 17.6262C135.835 17.8036 135.873 17.9529 135.919 18.0742H138.425V19.0262H135.989V24.9062H134.757V19.0262H133.469V18.3262ZM140.189 18.0742H141.421V24.9062H140.189V18.0742ZM139.503 17.3602L139.083 16.8002L141.701 14.8542C141.766 14.8076 141.813 14.7889 141.841 14.7982C141.878 14.7982 141.92 14.8309 141.967 14.8962L142.527 15.7222L139.503 17.3602ZM147.424 20.5242C147.424 20.2536 147.401 20.0436 147.354 19.8942C147.308 19.7356 147.233 19.6002 147.13 19.4882C147 19.3389 146.822 19.2316 146.598 19.1662C146.384 19.1009 146.136 19.0682 145.856 19.0682C145.604 19.0682 145.338 19.0962 145.058 19.1522C144.788 19.2082 144.517 19.2876 144.246 19.3902L143.546 19.6422L143.154 18.9702C143.621 18.6342 144.088 18.3822 144.554 18.2142C145.03 18.0462 145.502 17.9622 145.968 17.9622C146.379 17.9622 146.762 18.0276 147.116 18.1582C147.48 18.2796 147.788 18.4756 148.04 18.7462C148.236 18.9609 148.386 19.2082 148.488 19.4882C148.6 19.7682 148.656 20.1276 148.656 20.5662V23.8982L149.65 24.0802V24.7102C149.51 24.7756 149.347 24.8316 149.16 24.8782C148.974 24.9156 148.792 24.9343 148.614 24.9343C148.372 24.9343 148.157 24.8782 147.97 24.7662C147.793 24.6542 147.653 24.5002 147.55 24.3042L147.088 24.5422C146.827 24.6729 146.542 24.7849 146.234 24.8782C145.926 24.9716 145.618 25.0183 145.31 25.0183C144.918 25.0183 144.568 24.9576 144.26 24.8362C143.952 24.7149 143.686 24.5469 143.462 24.3322C143.248 24.1269 143.08 23.8889 142.958 23.6182C142.837 23.3476 142.776 23.0582 142.776 22.7502C142.776 22.1529 142.977 21.6956 143.378 21.3782C143.789 21.0609 144.368 20.9022 145.114 20.9022H145.226C145.366 20.9022 145.525 20.9069 145.702 20.9162C145.889 20.9256 146.08 20.9396 146.276 20.9582C146.482 20.9676 146.682 20.9862 146.878 21.0142C147.074 21.0329 147.256 21.0516 147.424 21.0702V20.5242ZM147.424 22.0082C147.424 21.9616 147.415 21.9289 147.396 21.9102C147.378 21.8822 147.331 21.8682 147.256 21.8682H144.876C144.708 21.8682 144.573 21.8869 144.47 21.9242C144.368 21.9522 144.284 21.9989 144.218 22.0642C144.078 22.2042 144.008 22.4189 144.008 22.7082C144.008 23.0629 144.134 23.3616 144.386 23.6042C144.638 23.8469 145.007 23.9682 145.492 23.9682C145.791 23.9682 146.104 23.9262 146.43 23.8422C146.766 23.7489 147.056 23.6369 147.298 23.5062C147.382 23.4596 147.424 23.3849 147.424 23.2822V22.0082Z" fill="#BDBDBD"/>
</svg>
