<?xml version="1.0" encoding="UTF-8"?>
<svg width="49px" height="48px" viewBox="0 0 49 48" version="1.1" xmlns="http://www.w3.org/2000/svg" xmlns:xlink="http://www.w3.org/1999/xlink">
    <!-- Generator: Sketch 57.1 (83088) - https://sketch.com -->
    <title>Fill 1</title>
    <desc>Created with Sketch.</desc>
    <g id="Symbols" stroke="none" stroke-width="1" fill="none" fill-rule="evenodd">
        <g id="ico_aviso-/-alerta" transform="translate(-1.000000, -2.000000)" fill="#E57200">
            <path d="M26.8905771,38.9058408 C26.8905771,39.8338667 26.1373967,40.5870471 25.2093708,40.5870471 C24.2813449,40.5870471 23.5296589,39.8338667 23.5296589,38.9058408 C23.5296589,37.9778149 24.2813449,37.2253817 25.2093708,37.2253817 C26.1373967,37.2253817 26.8905771,37.9778149 26.8905771,38.9058408 M26.8905771,18.9816781 L26.8905771,32.993225 C26.8905771,33.9205037 26.1388911,34.6729369 25.2093708,34.6729369 C24.2843337,34.6729369 23.5281645,33.9205037 23.5281645,32.993225 L23.5281645,18.9816781 C23.5281645,18.0543994 24.2843337,17.301219 25.2093708,17.301219 C26.1388911,17.301219 26.8905771,18.0543994 26.8905771,18.9816781 M45.3517167,45.6874534 L5.06851926,45.6874534 C4.61571436,45.6874534 4.41471681,45.2996552 4.41471681,45.0254318 C4.41471681,44.8924297 4.45431856,44.7706356 4.54024688,44.6548192 L24.6534519,5.71658674 C24.6676488,5.69940107 24.6825928,5.6792266 24.6967897,5.66278814 C24.8693935,5.44535212 25.0913128,5.4132224 25.2108652,5.4132224 C25.3289232,5.4132224 25.5523369,5.44535212 25.7234463,5.66278814 C25.7376432,5.6792266 25.7525872,5.69940107 25.7667841,5.71658674 L45.8814835,44.6548192 C45.9659174,44.7706356 46.008508,44.8924297 46.008508,45.0254318 C46.008508,45.2996552 45.8052688,45.6874534 45.3517167,45.6874534 M48.5041654,42.4707454 L28.3790051,3.52205211 C27.6041558,2.55367728 26.4512219,2 25.2108652,2 C23.9705086,2 22.8160802,2.55367728 22.0427253,3.52205211 L1.91905945,42.4707454 C1.90336819,42.4871838 1,44.1168332 1,45.0254318 C1,47.2722706 2.82541645,49.1006759 5.06851926,49.1006759 L45.3517167,49.1006759 C47.596314,49.1006759 49.420236,47.2722706 49.420236,45.0254318 C49.420236,44.1168332 48.5183622,42.4871838 48.5041654,42.4707454" id="Fill-1"></path>
        </g>
    </g>
</svg>