<svg width="25" height="31" viewBox="0 0 25 31" fill="none" xmlns="http://www.w3.org/2000/svg">
<path fill-rule="evenodd" clip-rule="evenodd" d="M7.78794 22.1058L12.8635 13.2239V13.0439C12.8635 12.6589 12.5515 12.3472 12.1665 12.3472H6.39399L11.9704 2.89394H18.9407L14.1346 9.79858C14.1346 9.79858 13.9742 10.0873 13.9742 10.256C13.9742 10.641 14.2865 10.953 14.6712 10.953H18.9407L7.78794 22.1058ZM18.9407 9.55903H15.9692L20.1009 3.66731C20.386 3.23983 20.4123 2.68983 20.1703 2.23639C19.9274 1.78325 19.4547 1.5 18.9407 1.5H11.9704C11.4702 1.5 11.0082 1.76797 10.7601 2.20247L5.18368 11.6554C4.9371 12.0869 4.93893 12.6164 5.18827 13.0469C5.4376 13.4772 5.89685 13.7412 6.39399 13.7412H10.9624L6.57763 21.414C6.23113 22.0202 6.38696 22.7893 6.94155 23.214C7.19302 23.4059 7.49094 23.5 7.78732 23.5C8.14666 23.5 8.50355 23.3625 8.77396 23.0915L19.9267 11.939C20.3252 11.5396 20.4447 10.9408 20.2286 10.4192C20.0132 9.89911 19.5048 9.55903 18.9407 9.55903Z" fill="#D3222A"/>
</svg>
