<svg width="16" height="8" viewBox="0 0 16 8" fill="none" xmlns="http://www.w3.org/2000/svg">
<path d="M5.58362 5.87092H4.11175C3.18362 5.87092 2.41543 5.11905 2.41543 4.1746V3.5346C2.41543 2.60647 3.1673 1.83828 4.11175 1.83828H6.75175C7.67988 1.83828 8.44807 2.59015 8.44807 3.5346V4.2546C8.44807 4.70273 8.79994 5.0546 9.24807 5.0546C9.6962 5.0546 10.0481 4.70273 10.0481 4.2546V3.5346C10.0481 1.72644 8.5762 0.238281 6.75175 0.238281L4.11175 0.238906C2.30359 0.238906 0.81543 1.71078 0.81543 3.53523V4.17523C0.81543 5.98339 2.2873 7.47155 4.11175 7.47155H5.58362C6.03175 7.47155 6.38362 7.11967 6.38362 6.67155C6.38362 6.22279 6.03175 5.87092 5.58362 5.87092Z" fill="#004571"/>
<path d="M11.872 0.238281H10.592C10.1439 0.238281 9.79202 0.590153 9.79202 1.03828C9.79202 1.48641 10.1439 1.83828 10.592 1.83828H11.872C12.8001 1.83828 13.5683 2.59015 13.5683 3.5346V4.1746C13.5683 5.10273 12.8165 5.87092 11.872 5.87092L9.39202 5.8703C8.46389 5.8703 7.6957 5.11843 7.6957 4.17398V3.61398C7.6957 3.16585 7.34383 2.81398 6.8957 2.81398C6.44757 2.81398 6.0957 3.16585 6.0957 3.61398V4.17398C6.0957 5.98214 7.56757 7.4703 9.39202 7.4703H11.872C13.6802 7.4703 15.1683 5.99843 15.1683 4.17398V3.53398C15.1683 1.72646 13.6802 0.238296 11.872 0.238296V0.238281Z" fill="#004571"/>
</svg>
