<svg width="32" height="32" viewBox="0 0 32 32" fill="none" xmlns="http://www.w3.org/2000/svg">
<path d="M23.693 19.097C22.4898 18.0538 21.6258 14.873 21.6258 11.6218C21.6258 11.6026 21.6258 11.5834 21.6258 11.5578C21.6258 11.5194 21.6322 11.481 21.6322 11.4426C21.6322 9.46495 20.6082 7.72415 19.0658 6.71935C18.6882 6.46335 18.2786 6.25215 17.8498 6.09855C17.7986 6.08575 17.741 6.07935 17.6898 6.06655C17.1586 5.90015 16.589 5.81055 16.0066 5.81055H16.0002C16.0002 5.81055 15.9938 5.81055 15.9874 5.81055C15.437 5.81055 14.9058 5.89375 14.4002 6.04735C14.3234 6.06655 14.2466 6.07935 14.1634 6.09855C13.7346 6.24575 13.325 6.45695 12.9474 6.71935C11.405 7.72415 10.381 9.46495 10.381 11.4426C10.381 11.4874 10.3874 11.5258 10.3874 11.5642C10.3874 11.5834 10.3874 11.6026 10.3874 11.6154C10.3874 14.8666 9.52341 18.0474 8.32021 19.0906C7.64821 19.673 7.25781 20.5178 7.25781 21.4074C7.25781 22.4442 8.09621 23.2826 9.13301 23.2826H13.2034V23.289C13.2034 24.8378 14.4578 26.0986 16.013 26.0986C17.5618 26.0986 18.8226 24.8442 18.8226 23.289C18.8226 23.2826 18.8226 23.2826 18.8226 23.2826H22.893C23.9298 23.2826 24.7682 22.4442 24.7682 21.4074C24.749 20.5242 24.365 19.6794 23.693 19.097ZM16.0002 24.2362C15.4818 24.2362 15.0658 23.8202 15.0658 23.3018C15.0658 23.2954 15.0658 23.2954 15.0658 23.2954H16.9346V23.3018C16.9346 23.8138 16.5186 24.2362 16.0002 24.2362ZM9.12661 21.4138C9.12661 21.0682 9.27381 20.7418 9.53621 20.5178C11.213 19.0714 12.2498 15.4042 12.2498 11.6218C12.2498 9.55455 13.933 7.66015 16.0002 7.66015C18.0674 7.66015 19.7506 9.54815 19.7506 11.6218C19.7506 15.4042 20.7874 19.065 22.4642 20.5178C22.7266 20.7418 22.8738 21.0746 22.8738 21.4138H9.12661Z" fill="#004571"/>
</svg>
