<?xml version="1.0" encoding="UTF-8"?>
<svg width="64px" height="64px" viewBox="0 0 64 64" version="1.1" xmlns="http://www.w3.org/2000/svg" xmlns:xlink="http://www.w3.org/1999/xlink">
    <!-- Generator: Sketch 57.1 (83088) - https://sketch.com -->
    <title>Group</title>
    <desc>Created with Sketch.</desc>
    <defs>
        <polygon id="path-1" points="0.00016119403 -5.37313433e-05 35.7164597 -5.37313433e-05 35.7164597 35.7166746 0.00016119403 35.7166746"></polygon>
    </defs>
    <g id="Mi-perfil" stroke="none" stroke-width="1" fill="none" fill-rule="evenodd">
        <g id="05_Mi_perfil_Cambiar-correo" transform="translate(-356.000000, -294.000000)">
            <g id="Group" transform="translate(356.000000, 294.000000)">
                <circle id="Oval" fill="#E57200" cx="32" cy="32" r="32"></circle>
                <g id="Group-3" transform="translate(14.000000, 14.000000)">
                    <mask id="mask-2" fill="white">
                        <use xlink:href="#path-1"></use>
                    </mask>
                    <g id="Clip-2"></g>
                    <path d="M17.8583104,25.6158269 C13.5807582,25.6158269 10.1005791,22.1356478 10.1005791,17.8580955 C10.1005791,13.5810806 13.5807582,10.1009015 17.8583104,10.1009015 C22.1358627,10.1009015 25.6160418,13.5810806 25.6160418,17.8580955 C25.6160418,22.1356478 22.1358627,25.6158269 17.8583104,25.6158269 M17.8583104,-5.37313433e-05 C8.01150448,-5.37313433e-05 0.00016119403,8.01128955 0.00016119403,17.8580955 C0.00016119403,27.7054388 8.01150448,35.7167821 17.8583104,35.7167821 C20.3686388,35.7167821 22.7967582,35.205797 25.0755045,34.1983343 C25.6923403,33.9253791 25.9706687,33.2037672 25.6977134,32.5874687 C25.4247582,31.9700955 24.7036836,31.6917672 24.0879224,31.9641851 C22.1224299,32.8335582 20.0263701,33.2741552 17.8583104,33.2741552 C9.35801194,33.2741552 2.44332537,26.358394 2.44332537,17.8580955 C2.44332537,9.35779701 9.35801194,2.44257313 17.8583104,2.44257313 C26.358609,2.44257313 33.2743701,9.35779701 33.2743701,17.8580955 C33.2743701,19.4689612 33.0266687,21.0561851 32.5398627,22.5751701 C31.4894149,25.845797 29.7651761,26.8548716 28.9258925,26.7243045 C28.120997,26.5974985 28.057594,25.3939164 28.057594,25.028006 L28.057594,10.5237672 C28.057594,9.84890149 27.5111463,9.30299104 26.8373552,9.30299104 C26.1624896,9.30299104 25.6160418,9.84890149 25.6160418,10.5237672 L25.6160418,11.2421552 C23.7435045,9.05045373 20.9602209,7.65881194 17.8583104,7.65881194 C12.2342507,7.65881194 7.65902687,12.2340358 7.65902687,17.8580955 C7.65902687,23.4826925 12.2342507,28.0579164 17.8583104,28.0579164 C20.9602209,28.0579164 23.7435045,26.6662746 25.6160418,24.4740358 L25.6160418,25.028006 C25.6160418,27.2449612 26.7669672,28.8579761 28.5481612,29.1373791 C30.6560418,29.4662149 33.4291164,27.7978567 34.8653552,23.3209612 C35.4300716,21.5607224 35.7164597,19.7225731 35.7164597,17.8580955 C35.7164597,8.01128955 27.7051164,-5.37313433e-05 17.8583104,-5.37313433e-05" id="Fill-1" fill="#FFFFFF" mask="url(#mask-2)"></path>
                </g>
            </g>
        </g>
    </g>
</svg>