<?xml version="1.0" encoding="UTF-8"?>
<svg width="64px" height="64px" viewBox="0 0 64 64" version="1.1" xmlns="http://www.w3.org/2000/svg" xmlns:xlink="http://www.w3.org/1999/xlink">
    <!-- Generator: Sketch 57.1 (83088) - https://sketch.com -->
    <title>Group 4</title>
    <desc>Created with Sketch.</desc>
    <g id="Mi-perfil" stroke="none" stroke-width="1" fill="none" fill-rule="evenodd">
        <g id="03_Mi_perfil_Cambiar-contraseña" transform="translate(-356.000000, -294.000000)">
            <g id="Group-4" transform="translate(356.000000, 294.000000)">
                <circle id="Oval" fill="#E57200" cx="32" cy="32" r="32"></circle>
                <path d="M33.4545705,39.297624 L33.4545705,36.3717822 C33.4545705,35.6620511 32.8764952,35.0870135 32.1668819,35.0870135 C31.4561147,35.0870135 30.8791933,35.6620511 30.8791933,36.3717822 L30.8791933,39.297624 C30.1124648,39.7431486 29.5903509,40.5628218 29.5903509,41.5108567 C29.5903509,42.9303188 30.7453476,44.0809696 32.1668819,44.0809696 C33.5866855,44.0809696 34.7428359,42.9303188 34.7428359,41.5108567 C34.7428359,40.5628218 34.221299,39.7431486 33.4545705,39.297624 L33.4545705,39.297624 Z M43.756079,46.1451185 C43.756079,46.8542739 43.1780037,47.4304627 42.4689673,47.4304627 L21.8636426,47.4304627 C21.1551831,47.4304627 20.575954,46.8542739 20.575954,46.1451185 L20.575954,33.2847686 C20.575954,32.5756132 21.1551831,32 21.8636426,32 L42.4689673,32 C43.1780037,32 43.756079,32.5756132 43.756079,33.2847686 L43.756079,46.1451185 Z M24.4401736,24.2787247 C24.4401736,20.0272457 27.9045866,16.5701129 32.1668819,16.5701129 C36.4274464,16.5701129 39.8935902,20.0272457 39.8935902,24.2787247 L39.8935902,29.4298871 L24.4401736,29.4298871 L24.4401736,24.2787247 Z M42.4689673,29.4298871 L42.4689673,24.2787247 C42.4689673,18.6112372 37.84725,14 32.1668819,14 C26.4859369,14 21.8636426,18.6112372 21.8636426,24.2787247 L21.8636426,29.4298871 C19.7342257,29.4298871 18,31.1590291 18,33.2847686 L18,46.1451185 C18,48.270858 19.7342257,50 21.8636426,50 L42.4689673,50 C44.5989611,50 46.332033,48.270858 46.332033,46.1451185 L46.332033,33.2847686 C46.332033,31.1590291 44.5989611,29.4298871 42.4689673,29.4298871 L42.4689673,29.4298871 Z" id="Fill-1" fill="#FFFFFF"></path>
            </g>
        </g>
    </g>
</svg>