<svg width="28" height="28" viewBox="0 0 28 28" fill="none" xmlns="http://www.w3.org/2000/svg">
<g filter="url(#filter0_d)">
<circle cx="15" cy="15" r="10" fill="#8E9300"/>
</g>
<path d="M11.0935 20.8567C11.0295 21.2597 11.1575 21.6264 11.4367 21.8325C11.7158 22.0416 12.0881 22.0507 12.4341 21.8628L14.842 20.5416C14.9089 20.5052 15.095 20.5052 15.1619 20.5416L17.5697 21.8628C17.7355 21.9537 17.9041 21.9991 18.067 21.9991C18.2473 21.9991 18.4189 21.9446 18.5643 21.8355C18.8405 21.6264 18.9685 21.2628 18.9074 20.8597L18.1106 15.7931L14.8885 16.1628C15.7377 16.1628 12.4807 15.8113 11.8903 15.8113L11.0935 20.8567Z" fill="#8E9300"/>
<path d="M14.999 15.9662C13.5218 15.9662 12.3178 14.7117 12.3178 13.1693C12.3178 11.6268 13.5218 10.3723 14.999 10.3723C16.4763 10.3723 17.6803 11.6268 17.6803 13.1693C17.6803 14.7117 16.4792 15.9662 14.999 15.9662Z" fill="#8E9300"/>
<path d="M15.7747 19.9289C15.3268 19.6834 14.6754 19.6834 14.2276 19.9289L11.7936 21.2713L12.5758 16.4895C13.1487 16.8228 14.3003 17.338 15.0011 17.338C15.702 17.338 16.9059 16.8198 17.4788 16.4895L18.2087 21.2713L15.7747 19.9289Z" fill="#8E9300"/>
<path d="M17.7495 16.4297C17.8979 16.4448 18.0287 16.3327 18.0433 16.1782C18.0723 15.8964 18.1101 15.8085 18.1101 15.8085C18.1101 15.8024 18.1072 15.7964 18.1072 15.7903C18.7528 14.96 19.0989 13.8691 18.9738 12.6933C18.7586 10.6873 17.1418 9.10545 15.2079 9.00545C12.9077 8.88424 11 10.7994 11 13.1691C11 14.16 11.3344 15.0721 11.8928 15.7903C11.8928 15.7964 11.8899 15.8024 11.8899 15.8085L11.6485 17.3418C11.6427 17.3418 11.8433 16.1539 11.8346 16.1539L17.7495 16.4297Z" fill="#8E9300"/>
<path d="M15.0024 16.3938C16.7112 16.3938 18.0965 14.9503 18.0965 13.1696C18.0965 11.3889 16.7112 9.94531 15.0024 9.94531C13.2935 9.94531 11.9082 11.3889 11.9082 13.1696C11.9082 14.9503 13.2935 16.3938 15.0024 16.3938Z" fill="#8E9300"/>
<path fill-rule="evenodd" clip-rule="evenodd" d="M11.6219 21.937C11.5568 21.9108 11.4947 21.876 11.4367 21.8325C11.3548 21.772 11.2859 21.6978 11.2311 21.6128C11.0989 21.4082 11.0483 21.1415 11.0935 20.8567L11.7352 16.7938L11.7232 16.8673L11.8346 16.1595C11.8346 16.16 11.8347 16.1589 11.8346 16.1595C11.8345 16.1611 11.8343 16.1637 11.8341 16.1658C11.8338 16.1679 11.8336 16.1702 11.8332 16.1728L11.8362 16.154L11.8899 15.8085C11.8899 15.8069 11.89 15.8054 11.8903 15.8039C11.8906 15.8024 11.891 15.8009 11.8913 15.7994C11.892 15.7964 11.8928 15.7933 11.8928 15.7903C11.892 15.7893 11.8911 15.7882 11.8903 15.7872C11.8781 15.7714 11.866 15.7555 11.8539 15.7395C11.8475 15.731 11.841 15.7223 11.8346 15.7137C11.8342 15.7131 11.8337 15.7125 11.8333 15.7119C11.7385 15.5839 11.6507 15.4502 11.5705 15.3113C11.2083 14.684 11 13.9511 11 13.1691C11 10.7994 12.9077 8.88424 15.2079 9.00545C17.1418 9.10545 18.7586 10.6873 18.9738 12.6933C19.0733 13.6284 18.8747 14.5098 18.4645 15.2492C18.3597 15.4382 18.241 15.6179 18.1099 15.7869C18.109 15.788 18.1081 15.7892 18.1072 15.7903L18.1075 15.7934L18.1106 15.7931L18.9074 20.8597C18.9507 21.1453 18.8991 21.411 18.7671 21.616C18.7128 21.7004 18.6448 21.7745 18.5643 21.8355C18.5075 21.8781 18.4466 21.9124 18.3829 21.9384C18.2835 21.9789 18.1768 21.9991 18.067 21.9991C17.9041 21.9991 17.7355 21.9537 17.5697 21.8628L15.1619 20.5416C15.095 20.5052 14.9089 20.5052 14.842 20.5416L12.4341 21.8628C12.1601 22.0116 11.8696 22.0368 11.6219 21.937ZM12.4531 20.3366L12.9581 17.2496C13.1489 17.3386 13.354 17.4265 13.5624 17.5059C14.0211 17.6808 14.5552 17.838 15.0011 17.838C15.4454 17.838 15.9917 17.6809 16.4619 17.5064C16.6779 17.4262 16.891 17.3373 17.0887 17.2473L17.5612 20.3432L16.0161 19.4911L16.015 19.4904C15.4174 19.1629 14.5848 19.1629 13.9873 19.4904L12.4531 20.3366ZM11.6485 17.3426C11.6485 17.3426 11.6485 17.3426 11.6485 17.3426L11.7232 16.8673C11.6848 17.1028 11.6508 17.3122 11.6485 17.3389C11.6483 17.3408 11.6483 17.3426 11.6485 17.3426ZM11.8362 16.154L11.8346 16.1595C11.8348 16.1564 11.8349 16.154 11.8346 16.1539L11.8362 16.154ZM12.8178 13.1693C12.8178 14.4555 13.8175 15.4662 14.999 15.4662C16.1832 15.4662 17.1803 14.4559 17.1803 13.1693C17.1803 11.883 16.1806 10.8723 14.999 10.8723C13.8175 10.8723 12.8178 11.883 12.8178 13.1693Z" fill="white"/>
<defs>
<filter id="filter0_d" x="0" y="0" width="28" height="28" filterUnits="userSpaceOnUse" color-interpolation-filters="sRGB">
<feFlood flood-opacity="0" result="BackgroundImageFix"/>
<feColorMatrix in="SourceAlpha" type="matrix" values="0 0 0 0 0 0 0 0 0 0 0 0 0 0 0 0 0 0 127 0"/>
<feOffset dx="-1" dy="-1"/>
<feGaussianBlur stdDeviation="2"/>
<feColorMatrix type="matrix" values="0 0 0 0 0 0 0 0 0 0 0 0 0 0 0 0 0 0 0.25 0"/>
<feBlend mode="normal" in2="BackgroundImageFix" result="effect1_dropShadow"/>
<feBlend mode="normal" in="SourceGraphic" in2="effect1_dropShadow" result="shape"/>
</filter>
</defs>
</svg>
