<svg width="16" height="25" viewBox="0 0 16 25" fill="none" xmlns="http://www.w3.org/2000/svg">
<path d="M7.59494 15C5.58063 15 3.64883 14.2098 2.22451 12.8033C0.800179 11.3968 0 9.48912 0 7.5C0 5.51088 0.800179 3.60322 2.22451 2.1967C3.64883 0.790176 5.58063 0 7.59494 0C9.60924 0 11.541 0.790176 12.9654 2.1967C14.3897 3.60322 15.1899 5.51088 15.1899 7.5C15.1899 9.48912 14.3897 11.3968 12.9654 12.8033C11.541 14.2098 9.60924 15 7.59494 15ZM7.59494 11.25C8.60209 11.25 9.56799 10.8549 10.2802 10.1517C10.9923 9.44839 11.3924 8.49456 11.3924 7.5C11.3924 6.50544 10.9923 5.55161 10.2802 4.84835C9.56799 4.14509 8.60209 3.75 7.59494 3.75C6.58779 3.75 5.62188 4.14509 4.90972 4.84835C4.19756 5.55161 3.79747 6.50544 3.79747 7.5C3.79747 8.49456 4.19756 9.44839 4.90972 10.1517C5.62188 10.8549 6.58779 11.25 7.59494 11.25ZM12.6582 14.6875V25L7.59494 20L2.53165 25V14.6875C4.01535 15.7142 5.78318 16.265 7.59494 16.265C9.40669 16.265 11.1745 15.7142 12.6582 14.6875Z" fill="white"/>
</svg>
