<svg width="32" height="32" viewBox="0 0 32 32" fill="none" xmlns="http://www.w3.org/2000/svg">
<path d="M25.5057 11.4086C24.0565 7.58391 20.3638 4.86328 16.0383 4.86328C11.7127 4.86328 8.02003 7.58075 6.5708 11.4055C3.84637 12.1236 1.84023 14.6133 1.85605 17.568C1.87504 20.8707 4.43809 23.5566 7.66563 23.8444C7.81435 23.8571 8.09596 23.2633 8.13292 22.6954C8.16989 22.1274 7.94092 21.6806 7.94092 21.6806C7.94092 21.554 7.84599 21.4465 7.71942 21.4307C6.86507 21.3231 6.05819 20.9498 5.43799 20.3392C4.67857 19.5958 4.26089 18.5961 4.26089 17.5364C4.26089 16.6506 4.54884 15.8154 5.08992 15.1194C5.61836 14.4424 6.36196 13.9521 7.1815 13.737L8.38075 13.4206L8.82059 12.2596C9.09271 11.5383 9.47242 10.8613 9.95023 10.2508C10.4217 9.64337 10.9818 9.1119 11.6083 8.669C12.9088 7.75474 14.4403 7.27072 16.0383 7.27072C17.6362 7.27072 19.1677 7.75474 20.4682 8.67217C21.0979 9.11506 21.6548 9.64653 22.1263 10.2539C22.6041 10.8645 22.9838 11.5415 23.2559 12.2628L23.6926 13.4206L24.8887 13.737C26.6037 14.1925 27.803 15.7521 27.803 17.5332C27.803 18.5961 27.3853 19.5927 26.6259 20.3361C26.0088 20.9435 25.0089 21.2557 24.3508 21.4275C23.6926 21.5993 23.488 22.1659 23.552 22.7786C23.616 23.3913 24.2622 23.8571 24.4109 23.8444C27.6289 23.5534 30.1857 20.8707 30.2078 17.5743C30.2268 14.6196 28.2238 12.1299 25.5057 11.4086Z" fill="#004571"/>
<path d="M11.757 20.5038C11.814 19.444 12.2538 18.457 13.0069 17.7009C13.8106 16.8942 14.9055 16.4418 16.0446 16.4418C17.19 16.4418 18.2691 16.8879 19.0823 17.7009C19.1266 17.7452 19.1677 17.7895 19.212 17.8369L18.4209 18.457C18.3833 18.4861 18.3546 18.5253 18.3382 18.5701C18.3218 18.6148 18.3183 18.6632 18.3282 18.7098C18.3382 18.7564 18.361 18.7993 18.3942 18.8335C18.4274 18.8677 18.4696 18.8918 18.5159 18.9031L21.6232 19.6623C21.7814 19.7003 21.9364 19.5801 21.9364 19.4187L21.9523 16.2141C21.9523 16.0021 21.7118 15.8819 21.5441 16.0148L20.81 16.5905C19.6518 15.2618 17.9495 14.4203 16.0477 14.4203C12.6493 14.4203 9.87744 17.1125 9.73821 20.4848C9.73188 20.6272 9.8458 20.7474 9.99135 20.7474H11.507C11.6399 20.7442 11.7507 20.6398 11.757 20.5038ZM22.0757 20.7442H20.56C20.4271 20.7442 20.3163 20.8486 20.3068 20.9847C20.2499 22.0444 19.8101 23.0315 19.057 23.7875C18.2532 24.5942 17.1584 25.0466 16.0193 25.0466C14.8738 25.0466 13.7948 24.6006 12.9816 23.7875C12.9373 23.7433 12.8961 23.699 12.8518 23.6515L13.6429 23.0315C13.6806 23.0023 13.7093 22.9631 13.7257 22.9184C13.7421 22.8737 13.7455 22.8252 13.7356 22.7786C13.7257 22.732 13.7028 22.6892 13.6696 22.655C13.6364 22.6208 13.5943 22.5967 13.548 22.5854L10.4407 21.8262C10.2825 21.7882 10.1274 21.9084 10.1274 22.0697L10.1148 25.2776C10.1148 25.4895 10.3552 25.6097 10.5229 25.4769L11.2571 24.9011C12.4152 26.2298 14.1175 27.0713 16.0193 27.0713C19.4177 27.0713 22.1896 24.3791 22.3288 21.0068C22.3351 20.8644 22.2212 20.7442 22.0757 20.7442Z" fill="#004571"/>
</svg>
