<?xml version="1.0" encoding="UTF-8"?>
<svg width="25px" height="25px" viewBox="0 0 25 25" version="1.1" xmlns="http://www.w3.org/2000/svg" xmlns:xlink="http://www.w3.org/1999/xlink">
    <!-- Generator: Sketch 57.1 (83088) - https://sketch.com -->
    <title>Group 7</title>
    <desc>Created with Sketch.</desc>
    <defs>
        <polygon id="path-1" points="0.000138888889 0.180358138 24.7865741 0.180358138 24.7865741 21.2752794 0.000138888889 21.2752794"></polygon>
        <polygon id="path-3" points="0.143367749 0.21012931 16.2340155 0.21012931 16.2340155 11.1847256 0.143367749 11.1847256"></polygon>
    </defs>
    <g id="Mi-consumo" stroke="none" stroke-width="1" fill="none" fill-rule="evenodd">
        <g id="1-03_Consumo_Por-meses_gráfica" transform="translate(-290.000000, -1234.000000)">
            <g id="Group-7" transform="translate(290.000000, 1234.000000)">
                <g id="Group-3" transform="translate(0.000000, 3.448276)">
                    <mask id="mask-2" fill="white">
                        <use xlink:href="#path-1"></use>
                    </mask>
                    <g id="Clip-2"></g>
                    <path d="M23.7394907,19.1454069 L21.8973611,19.1454069 L21.8973611,1.2448259 C21.8973611,0.661523805 21.4218981,0.180358138 20.8455093,0.180358138 C20.2686574,0.180358138 19.7931944,0.661523805 19.7931944,1.2448259 L19.7931944,19.1454069 L16.2663426,19.1454069 L16.2663426,5.66902006 C16.2663426,5.08524944 15.7908796,4.60408378 15.2140278,4.60408378 C14.6371759,4.60408378 14.161713,5.08524944 14.161713,5.66902006 L14.161713,19.1454069 L10.5843981,19.1454069 L10.5843981,10.8864114 C10.5843981,10.3026407 10.1089352,9.82147508 9.5325463,9.82147508 C8.95523148,9.82147508 8.47976852,10.3026407 8.47976852,10.8864114 L8.47976852,19.1454069 L4.95337963,19.1454069 L4.95337963,12.6990988 C4.95337963,12.1153282 4.47791667,11.6341625 3.90060185,11.6341625 C3.32421296,11.6341625 2.84875,12.1153282 2.84875,12.6990988 L2.84875,19.1454069 L1.0524537,19.1454069 C0.475601852,19.1454069 0.000138888889,19.6265725 0.000138888889,20.2103431 C0.000138888889,20.7941138 0.475601852,21.2752794 1.0524537,21.2752794 L23.6839352,21.2752794 C24.2603241,21.2752794 24.7867465,20.7941138 24.7867465,20.2103431 C24.7913426,19.6218874 24.3158796,19.1454069 23.7394907,19.1454069" id="Fill-1" fill="#004571" mask="url(#mask-2)"></path>
                </g>
                <g id="Group-6" transform="translate(1.724138, 0.000000)">
                    <mask id="mask-4" fill="white">
                        <use xlink:href="#path-3"></use>
                    </mask>
                    <g id="Clip-5"></g>
                    <path d="M1.41158077,11.1460524 C1.71669338,11.0951545 8.7402302,9.42626078 14.1544924,3.88445043 L14.1544924,5.94091595 C14.1544924,6.52274066 14.6247409,7.00230244 15.1947114,7.00230244 C15.7642244,7.00230244 16.2340155,6.52274066 16.2340155,5.89001796 L16.2340155,1.27184267 C16.2340155,0.689551006 15.7642244,0.209989224 15.1947114,0.209989224 L10.6203094,0.209989224 C10.0503389,0.209989224 9.5800904,0.689551006 9.5800904,1.27184267 C9.5800904,1.85320043 10.0503389,2.33276221 10.6203094,2.33276221 L12.7647891,2.33276221 C7.79561619,7.5481717 0.99713995,9.18110991 0.946821528,9.18110991 C0.371819199,9.28850934 0.0621321839,9.81943606 0.161854147,10.4012608 C0.321958217,11.079745 1.02641612,11.2786674 1.41158077,11.1460524" id="Fill-4" fill="#004571" mask="url(#mask-4)"></path>
                </g>
            </g>
        </g>
    </g>
</svg>