<?xml version="1.0" encoding="UTF-8"?>
<svg width="16px" height="21px" viewBox="0 0 16 21" version="1.1" xmlns="http://www.w3.org/2000/svg" xmlns:xlink="http://www.w3.org/1999/xlink">
    <!-- Generator: Sketch 62 (91390) - https://sketch.com -->
    <title>Group 10</title>
    <desc>Created with Sketch.</desc>
    <g id="Symbols" stroke="none" stroke-width="1" fill="none" fill-rule="evenodd">
        <g id="bloque_datos-/-Mi-consumo-con-generación" transform="translate(-1003.000000, -142.000000)" fill="rgba(0, 0, 0, 0.38)">
            <g id="Group-7" transform="translate(832.000000, 134.000000)">
                <g id="Group-10" transform="translate(171.000000, 8.000000)">
                    <path d="M3.18016,9.18016 L12.18016,9.18016 C12.731424,9.18016 13.18016,8.731424 13.18016,8.18016 L13.18016,4.18016 C13.18016,3.628896 12.731424,3.18016 12.18016,3.18016 L3.18016,3.18016 C2.628896,3.18016 2.18016,3.628896 2.18016,4.18016 L2.18016,8.18016 C2.18016,8.731424 2.628896,9.18016 3.18016,9.18016 Z M3.1801312,4.18016 L12.18016,4.18016 L12.1814112,8.18016 L3.1801312,8.18016 L3.1801312,4.18016 Z" id="Fill-1"></path>
                    <path d="M10.68,12.17984 C9.852512,12.17984 9.18,12.852352 9.18,13.67984 C9.18,14.507328 9.852512,15.17984 10.68,15.17984 C11.507488,15.17984 12.18,14.507328 12.18,13.67984 C12.18,12.852352 11.507488,12.17984 10.68,12.17984 Z M10.68,14.17984 C10.4037504,14.17984 10.18,13.9560896 10.18,13.67984 C10.18,13.4035904 10.4037504,13.17984 10.68,13.17984 C10.9562496,13.17984 11.18,13.4035904 11.18,13.67984 C11.18,13.9560896 10.9562496,14.17984 10.68,14.17984 Z" id="Fill-3"></path>
                    <path d="M6.18016,13.68 C6.18016,12.852512 5.507648,12.18 4.68016,12.18 C3.852672,12.18 3.18016,12.852512 3.18016,13.68 C3.18016,14.507488 3.852672,15.18 4.68016,15.18 C5.507648,15.18 6.18016,14.507488 6.18016,13.68 Z M4.68016,14.18 C4.4039104,14.18 4.18016,13.9562496 4.18016,13.68 C4.18016,13.4037504 4.4039104,13.18 4.68016,13.18 C4.9564096,13.18 5.18016,13.4037504 5.18016,13.68 C5.18016,13.9562496 4.9564096,14.18 4.68016,14.18 Z" id="Fill-4"></path>
                    <path d="M8.1798368,20.3798016 L11.6799968,20.3798016 C13.6099808,20.3798016 15.1801574,18.8098176 15.1801574,16.8796416 L15.1801574,2.6796416 C15.1801574,1.3008896 14.0589088,0.1796416 12.6801574,0.1796416 L2.68015744,0.1796416 C1.30140544,0.1796416 0.18015744,1.3008896 0.18015744,2.6796416 L0.18015744,16.8796416 C0.18015744,18.8096256 1.75014144,20.3798016 3.6803168,20.3798016 L7.1804768,20.3798016 L8.1798368,20.3798016 Z M1.18016128,16.88 L1.18016128,2.68 C1.18016128,1.852512 1.85267296,1.18 2.68016128,1.18 L12.6801613,1.18 C13.507648,1.18 14.1801613,1.852512 14.1801613,2.68 L14.1801613,16.88 C14.1801613,18.258752 13.058912,19.38 11.6801613,19.38 L3.68016128,19.38 C2.30140928,19.38 1.18016128,18.258752 1.18016128,16.88 Z" id="Fill-7"></path>
                </g>
            </g>
        </g>
    </g>
</svg>