<?xml version="1.0" encoding="UTF-8"?>
<svg width="20px" height="28px" viewBox="0 0 10 14" version="1.1" xmlns="http://www.w3.org/2000/svg" xmlns:xlink="http://www.w3.org/1999/xlink">
    <!-- Generator: Sketch 57.1 (83088) - https://sketch.com -->
    <title>Group 9</title>
    <desc>Created with Sketch.</desc>
    <g id="Mis-Mensajes" stroke="none" stroke-width="1" fill="none" fill-rule="evenodd">
        <g id="1-02_Mensajería_detalle" transform="translate(-348.000000, -561.000000)" fill="#E57200">
            <g id="Group-2" transform="translate(348.000000, 559.000000)">
                <g id="Group-9" transform="translate(0.000000, 2.000000)">
                    <path d="M9.08496603,10.8701723 L7.25351136,10.8701723 C7.00093108,10.8701723 6.79648963,11.0691201 6.79648963,11.3146302 L6.79648963,13.0924621 L1.34907585,13.0924621 C1.10957032,13.0924621 0.91463777,12.9031346 0.91463777,12.6709005 L0.91463777,1.31124724 C0.91463777,1.07882073 1.10957032,0.889493174 1.34907585,0.889493174 L8.65032984,0.889493174 C8.89023158,0.889493174 9.08496603,1.07882073 9.08496603,1.31124724 L9.08496603,10.8701723 Z M7.7113255,12.8252101 L7.7113255,11.7590882 L8.59010678,11.7590882 L7.7113255,12.8252101 Z M8.65032984,1.77635684e-15 L1.34907585,1.77635684e-15 C0.605004061,1.77635684e-15 0,0.58857011 0,1.31124724 L0,12.6709005 C0,13.3933852 0.605004061,13.9817629 1.34907585,13.9817629 L7.7113255,13.9817629 C7.85078944,13.9817629 7.98173498,13.920193 8.06870184,13.8147545 L9.89936409,11.5920798 C9.96414351,11.5137705 10,11.4160282 10,11.3146302 L10,1.31124724 C10,0.58857011 9.39440163,1.77635684e-15 8.65032984,1.77635684e-15 L8.65032984,1.77635684e-15 Z M7.15297598,4.35994482 L2.86640144,4.35994482 C2.47287369,4.35994482 2.15223304,4.55696862 2.15223304,4.79882302 C2.15223304,5.04163946 2.47287369,5.23866325 2.86640144,5.23866325 L7.15297598,5.23866325 C7.54775502,5.23866325 7.86651875,5.04163946 7.86651875,4.79882302 C7.86651875,4.55696862 7.54775502,4.35994482 7.15297598,4.35994482 M7.15297598,2.45518291 L2.86640144,2.45518291 C2.47287369,2.45518291 2.15223304,2.65220671 2.15223304,2.89406112 C2.15223304,3.13687755 2.47287369,3.33390135 2.86640144,3.33390135 L7.15297598,3.33390135 C7.54775502,3.33390135 7.86651875,3.13687755 7.86651875,2.89406112 C7.86651875,2.65220671 7.54775502,2.45518291 7.15297598,2.45518291 M7.15297598,6.11734321 L2.86640144,6.11734321 C2.47287369,6.11734321 2.15223304,6.31378979 2.15223304,6.55660622 C2.15223304,6.79942266 2.47287369,6.99567683 2.86640144,6.99567683 L7.15297598,6.99567683 C7.54775502,6.99567683 7.86651875,6.79942266 7.86651875,6.55660622 C7.86651875,6.31378979 7.54775502,6.11734321 7.15297598,6.11734321 M7.15297598,7.8747416 L2.86640144,7.8747416 C2.47287369,7.8747416 2.15223304,8.07118818 2.15223304,8.3136198 C2.15223304,8.55643624 2.47287369,8.75307522 2.86640144,8.75307522 L7.15297598,8.75307522 C7.54775502,8.75307522 7.86651875,8.55643624 7.86651875,8.3136198 C7.86651875,8.07118818 7.54775502,7.8747416 7.15297598,7.8747416" id="Fill-7"></path>
                </g>
            </g>
        </g>
    </g>
</svg>