<?xml version="1.0" encoding="UTF-8"?>
<svg width="64px" height="64px" viewBox="0 0 64 64" version="1.1" xmlns="http://www.w3.org/2000/svg" xmlns:xlink="http://www.w3.org/1999/xlink">
    <!-- Generator: Sketch 62 (91390) - https://sketch.com -->
    <title>Group 2</title>
    <desc>Created with Sketch.</desc>
    <g id="Mi-consumo" stroke="none" stroke-width="1" fill="none" fill-rule="evenodd">
        <g id="5-05_MiContador_inactivo" transform="translate(-576.000000, -609.000000)">
            <g id="Group-2" transform="translate(577.000000, 607.000000)">
                <g id="Group-10" transform="translate(22.500000, 33.500000) scale(-1, 1) translate(-22.500000, -33.500000) translate(0.000000, 2.000000)" fill="#004571">
                    <path d="M11.28141,28.76391 L34.079535,28.76391 C35.7074865,28.76391 37.03266,27.4387365 37.03266,25.810785 L37.03266,13.17141 C37.03266,11.5434585 35.7074865,10.218285 34.079535,10.218285 L11.28141,10.218285 C9.6534585,10.218285 8.328285,11.5434585 8.328285,13.17141 L8.328285,25.810785 C8.328285,27.4387365 9.6534585,28.76391 11.28141,28.76391 Z M11.2813249,13.17141 L34.079535,13.17141 L34.0832299,25.810785 L11.2813249,25.810785 L11.2813249,13.17141 Z" id="Fill-1" stroke="#004571" stroke-width="1.89"></path>
                    <path d="M31.4803125,35.91 C29.036637,35.91 27.050625,37.896012 27.050625,40.3396875 C27.050625,42.783363 29.036637,44.769375 31.4803125,44.769375 C33.923988,44.769375 35.91,42.783363 35.91,40.3396875 C35.91,37.896012 33.923988,35.91 31.4803125,35.91 Z M31.4803125,41.81625 C30.6645129,41.81625 30.00375,41.1554871 30.00375,40.3396875 C30.00375,39.5238879 30.6645129,38.863125 31.4803125,38.863125 C32.2961121,38.863125 32.956875,39.5238879 32.956875,40.3396875 C32.956875,41.1554871 32.2961121,41.81625 31.4803125,41.81625 Z" id="Fill-3"></path>
                    <path d="M18.9,40.3396875 C18.9,37.896012 16.913988,35.91 14.4703125,35.91 C12.026637,35.91 10.040625,37.896012 10.040625,40.3396875 C10.040625,42.783363 12.026637,44.769375 14.4703125,44.769375 C16.913988,44.769375 18.9,42.783363 18.9,40.3396875 Z M14.4703125,41.81625 C13.6545129,41.81625 12.99375,41.1554871 12.99375,40.3396875 C12.99375,39.5238879 13.6545129,38.863125 14.4703125,38.863125 C15.2861121,38.863125 15.946875,39.5238879 15.946875,40.3396875 C15.946875,41.1554871 15.2861121,41.81625 14.4703125,41.81625 Z" id="Fill-4"></path>
                    <path d="M24.1560806,62.5466016 L34.4924905,62.5466016 C40.1919745,62.5466016 44.8289006,57.9102426 44.8289006,52.2101916 L44.8289006,7.9133166 C44.8289006,3.8416896 41.5177151,0.5305041 37.4460881,0.5305041 L7.91483994,0.5305041 C3.84321294,0.5305041 0.53202744,3.8416896 0.53202744,7.9133166 L0.53202744,52.2101916 C0.53202744,57.9096756 5.16838644,62.5466016 10.8684356,62.5466016 L21.2048455,62.5466016 L24.1560806,62.5466016 Z M3.48516378,52.21125 L3.48516378,7.914375 C3.48516378,5.4706995 5.47117483,3.4846875 7.91485128,3.4846875 L37.4460975,3.4846875 C39.889773,3.4846875 41.875785,5.4706995 41.875785,7.914375 L41.875785,52.21125 C41.875785,56.282877 38.5645995,59.5940625 34.4929725,59.5940625 L10.8679725,59.5940625 C6.79634928,59.5940625 3.48516378,56.282877 3.48516378,52.21125 Z" id="Fill-7" stroke="#004571"></path>
                </g>
                <g id="Group" transform="translate(36.000000, 0.000000)">
                    <path d="M14.5,2.14814815 C7.68177778,2.14814815 2.14814815,7.68177778 2.14814815,14.5 C2.14814815,21.3182222 7.68177778,26.8518519 14.5,26.8518519 C21.3182222,26.8518519 26.8518519,21.3182222 26.8518519,14.5 C26.8518519,7.68177778 21.3182222,2.14814815 14.5,2.14814815 Z" id="Shape" fill="#D3222A" fill-rule="nonzero"></path>
                    <g id="Group-3" transform="translate(14.277552, 14.277552) rotate(-315.000000) translate(-14.277552, -14.277552) translate(4.610885, 4.610885)" fill="#FFFFFF">
                        <path d="M18.1463895,10.6322365 L10.9463959,10.6322365 L10.9463959,17.8309412 C10.9463959,18.3636694 10.5141987,18.7962963 9.98147049,18.7962963 C9.44788304,18.7962963 9.01568581,18.3636694 9.01568581,17.8309412 L9.01568581,10.6322365 L1.81698111,10.6322365 C1.28425291,10.6322365 0.85162605,10.2000393 0.85162605,9.66688148 C0.85162605,9.13372365 1.28425291,8.70152641 1.81698111,8.70152641 L9.01568581,8.70152641 L9.01568581,1.50153286 C9.01568581,0.969234275 9.44788304,0.537037037 9.98147049,0.537037037 C10.5141987,0.537037037 10.9463959,0.969234275 10.9463959,1.50153286 L10.9463959,8.70152641 L18.1463895,8.70152641 C18.6786881,8.70152641 19.1108853,9.13372365 19.1108853,9.66688148 C19.1108853,10.2000393 18.6786881,10.6322365 18.1463895,10.6322365" id="Fill-1"></path>
                    </g>
                </g>
            </g>
        </g>
    </g>
</svg>