<?xml version="1.0" encoding="UTF-8"?>
<svg width="64px" height="64px" viewBox="0 0 64 64" version="1.1" xmlns="http://www.w3.org/2000/svg" xmlns:xlink="http://www.w3.org/1999/xlink">
    <!-- Generator: Sketch 62 (91390) - https://sketch.com -->
    <title>Group 7</title>
    <desc>Created with Sketch.</desc>
    <defs>
        <polygon id="path-1" points="0 0 15.5 0 15.5 14 0 14"></polygon>
    </defs>
    <g id="Mi-consumo" stroke="none" stroke-width="1" fill="none" fill-rule="evenodd">
        <g id="5-04_MiContador_Trifásico" transform="translate(-180.000000, -610.000000)">
            <g id="Group-8" transform="translate(139.000000, 571.000000)">
                <g id="Group-7" transform="translate(42.000000, 39.000000)">
                    <g id="Group-10" transform="translate(22.500000, 31.500000) scale(-1, 1) translate(-22.500000, -31.500000) " fill="#004571">
                        <path d="M11.28141,28.76391 L34.079535,28.76391 C35.7074865,28.76391 37.03266,27.4387365 37.03266,25.810785 L37.03266,13.17141 C37.03266,11.5434585 35.7074865,10.218285 34.079535,10.218285 L11.28141,10.218285 C9.6534585,10.218285 8.328285,11.5434585 8.328285,13.17141 L8.328285,25.810785 C8.328285,27.4387365 9.6534585,28.76391 11.28141,28.76391 Z M11.2813249,13.17141 L34.079535,13.17141 L34.0832299,25.810785 L11.2813249,25.810785 L11.2813249,13.17141 Z" id="Fill-1" stroke="#004571" stroke-width="1.89"></path>
                        <path d="M31.4803125,35.91 C29.036637,35.91 27.050625,37.896012 27.050625,40.3396875 C27.050625,42.783363 29.036637,44.769375 31.4803125,44.769375 C33.923988,44.769375 35.91,42.783363 35.91,40.3396875 C35.91,37.896012 33.923988,35.91 31.4803125,35.91 Z M31.4803125,41.81625 C30.6645129,41.81625 30.00375,41.1554871 30.00375,40.3396875 C30.00375,39.5238879 30.6645129,38.863125 31.4803125,38.863125 C32.2961121,38.863125 32.956875,39.5238879 32.956875,40.3396875 C32.956875,41.1554871 32.2961121,41.81625 31.4803125,41.81625 Z" id="Fill-3"></path>
                        <path d="M18.9,40.3396875 C18.9,37.896012 16.913988,35.91 14.4703125,35.91 C12.026637,35.91 10.040625,37.896012 10.040625,40.3396875 C10.040625,42.783363 12.026637,44.769375 14.4703125,44.769375 C16.913988,44.769375 18.9,42.783363 18.9,40.3396875 Z M14.4703125,41.81625 C13.6545129,41.81625 12.99375,41.1554871 12.99375,40.3396875 C12.99375,39.5238879 13.6545129,38.863125 14.4703125,38.863125 C15.2861121,38.863125 15.946875,39.5238879 15.946875,40.3396875 C15.946875,41.1554871 15.2861121,41.81625 14.4703125,41.81625 Z" id="Fill-4"></path>
                        <path d="M24.1560806,62.5466016 L34.4924905,62.5466016 C40.1919745,62.5466016 44.8289006,57.9102426 44.8289006,52.2101916 L44.8289006,7.9133166 C44.8289006,3.8416896 41.5177151,0.5305041 37.4460881,0.5305041 L7.91483994,0.5305041 C3.84321294,0.5305041 0.53202744,3.8416896 0.53202744,7.9133166 L0.53202744,52.2101916 C0.53202744,57.9096756 5.16838644,62.5466016 10.8684356,62.5466016 L21.2048455,62.5466016 L24.1560806,62.5466016 Z M3.48516378,52.21125 L3.48516378,7.914375 C3.48516378,5.4706995 5.47117483,3.4846875 7.91485128,3.4846875 L37.4460975,3.4846875 C39.889773,3.4846875 41.875785,5.4706995 41.875785,7.914375 L41.875785,52.21125 C41.875785,56.282877 38.5645995,59.5940625 34.4929725,59.5940625 L10.8679725,59.5940625 C6.79634928,59.5940625 3.48516378,56.282877 3.48516378,52.21125 Z" id="Fill-7" stroke="#004571"></path>
                    </g>
                    <g id="Group" transform="translate(38.000000, 0.000000)">
                        <path d="M12.5,0 C5.6,0 0,5.6 0,12.5 C0,19.4 5.6,25 12.5,25 C19.4,25 25,19.4 25,12.5 C25,5.6 19.4,0 12.5,0 Z" id="Shape" fill="#A2AD00" fill-rule="nonzero"></path>
                        <g id="Group-3" transform="translate(4.500000, 5.500000)">
                            <mask id="mask-2" fill="white">
                                <use xlink:href="#path-1"></use>
                            </mask>
                            <g id="Clip-2"></g>
                            <path d="M14.3719104,1.18378765 C14.2114844,1.08931053 14.0403236,1.03144329 13.8673736,1.01018594 C13.3735716,0.948185322 12.8678421,1.17138753 12.5947004,1.62074435 L5.94030116,10.7608157 L3.4808333,6.51465942 C3.1939749,5.86690063 2.42882037,5.57343106 1.77280324,5.85686244 C1.11797887,6.14265574 0.82217478,6.90142515 1.11022594,7.54800297 L3.69970447,12.0917622 C3.70626464,12.1065242 3.71401757,12.1201053 3.71998136,12.1342769 C4.08257992,12.8753318 4.79704222,13.3784225 5.61288898,13.4799854 C5.67193052,13.4876617 5.73037568,13.4935665 5.78941722,13.4965189 C6.67742587,13.5437575 7.52189883,13.1073913 7.99244203,12.359841 C7.99661668,12.3533457 8.00019495,12.3468504 8.00317685,12.3444885 L14.8150202,2.94519555 C15.1829862,2.33699906 14.9849883,1.54870555 14.3719104,1.18378765" id="Fill-1" stroke="#A2AD00" stroke-width="0.6" fill="#FFFFFF" mask="url(#mask-2)"></path>
                        </g>
                    </g>
                </g>
            </g>
        </g>
    </g>
</svg>