<svg width="16" height="19" viewBox="0 0 16 19" fill="none" xmlns="http://www.w3.org/2000/svg">
<g clip-path="url(#clip0_1320_19496)">
<path d="M4.2151 8.30287C3.98221 8.34006 3.74336 8.35938 3.5 8.35938C3.27169 8.35938 3.04735 8.34237 2.82818 8.30957L2.63548 8.63587C2.42748 9.00387 2.42748 9.45186 2.63948 9.81985C2.85148 10.1878 3.24348 10.4118 3.66348 10.4118H7.55148L3.81948 16.9397C3.52348 17.4557 3.65548 18.1117 4.12748 18.4717C4.33948 18.6357 4.59548 18.7157 4.84748 18.7157C5.15148 18.7157 5.45548 18.5997 5.68748 18.3677L15.1755 8.87987C15.5155 8.53987 15.6155 8.03188 15.4315 7.58789C15.2555 7.14389 14.8235 6.8559 14.3435 6.8559H11.8155L15.3315 1.84397C15.5755 1.47998 15.5955 1.01199 15.3915 0.627991C15.1835 0.243996 14.7835 0 14.3435 0H8.41148C7.98748 0 7.59148 0.227997 7.38348 0.595991L7.07246 1.12266C7.35138 1.48621 7.57606 1.89357 7.73439 2.33263L8.41148 1.18398H14.3435L10.2515 7.05589C10.2515 7.05589 10.1155 7.29989 10.1155 7.44389C10.1155 7.77188 10.3795 8.03588 10.7075 8.03588H14.3395L4.85148 17.5317L9.17148 9.97585V9.82385C9.17148 9.49586 8.90748 9.23186 8.57948 9.23186H3.66748L4.2151 8.30287Z" fill="#004571"/>
<path fill-rule="evenodd" clip-rule="evenodd" d="M2.06621 3.02124C1.90094 2.85597 1.90094 2.58957 2.06621 2.4243C2.22974 2.26077 2.49731 2.25846 2.66315 2.4243L3.57473 3.33588L4.48631 2.4243C4.65215 2.25846 4.91972 2.26077 5.08325 2.4243C5.24678 2.58783 5.24909 2.8554 5.08325 3.02124L4.17167 3.93282L5.08325 4.84441C5.24852 5.00968 5.24852 5.27607 5.08325 5.44134C4.91798 5.60661 4.65158 5.60661 4.48631 5.44134L3.57473 4.52976L2.66315 5.44134C2.49788 5.60661 2.23148 5.60661 2.06621 5.44134C1.90094 5.27607 1.90094 5.00968 2.06621 4.84441L2.97779 3.93282L2.06621 3.02124Z" fill="#004571"/>
<path fill-rule="evenodd" clip-rule="evenodd" d="M1.04732 6.46409C-0.349107 5.06766 -0.349107 2.80327 1.04732 1.40684C2.44371 0.0104553 4.7081 0.0103747 6.10339 1.40567C7.49982 2.8021 7.49982 5.06649 6.10339 6.46292C4.70701 7.8593 2.44262 7.85938 1.04732 6.46409ZM1.64543 2.00495C0.579542 3.07084 0.579542 4.80009 1.64543 5.86598C2.71132 6.93187 4.44057 6.93187 5.50646 5.86598C6.57235 4.80009 6.57235 3.07084 5.50646 2.00495C4.44057 0.939064 2.71132 0.939064 1.64543 2.00495Z" fill="#004571"/>
</g>
<defs>
<clipPath id="clip0_1320_19496">
<rect width="16" height="19" fill="white"/>
</clipPath>
</defs>
</svg>
