<?xml version="1.0" encoding="UTF-8"?>
<svg width="28px" height="30px" viewBox="0 0 28 30" version="1.1" xmlns="http://www.w3.org/2000/svg" xmlns:xlink="http://www.w3.org/1999/xlink">
    <!-- Generator: Sketch 57.1 (83088) - https://sketch.com -->
    <title>Group 3</title>
    <desc>Created with Sketch.</desc>
    <defs>
        <polygon id="path-1" points="0.000168892566 0.000163636364 27.6010506 0.000163636364 27.6010506 29.9008909 0.000168892566 29.9008909"></polygon>
    </defs>
    <g id="Symbols" stroke="none" stroke-width="1" fill="none" fill-rule="evenodd">
        <g id="ico-datos-/-usuario" transform="translate(-1.000000, 0.000000)">
            <g id="Group-3" transform="translate(1.000000, 0.000000)">
                <mask id="mask-2" fill="white">
                    <use xlink:href="#path-1"></use>
                </mask>
                <g id="Clip-2"></g>
                <path d="M10.0089818,0.919963636 C8.8608,1.53305455 7.93407273,2.3796 7.25225455,3.43505455 C6.5568,4.51450909 6.20334545,5.69323636 6.20334545,6.93741818 C6.20334545,9.17814545 6.91789091,11.0883273 8.32734545,12.6128727 C9.76298182,14.1657818 11.5700727,14.9539636 13.7017091,14.9539636 C15.8295273,14.9539636 17.6398909,14.1657818 19.0738909,12.6128727 C20.4838909,11.0872364 21.1973455,9.17814545 21.1973455,6.93741818 C21.1973455,5.69432727 20.8449818,4.5156 20.1473455,3.43505455 C19.4682545,2.3796 18.5409818,1.53305455 17.3933455,0.919963636 C16.2522545,0.309054545 15.0113455,-0.000218181818 13.7017091,-0.000218181818 C12.3920727,-0.000218181818 11.1489818,0.309054545 10.0089818,0.919963636 M10.1568,10.9219636 C9.17389091,9.85723636 8.69443636,8.55469091 8.69443636,6.93741818 C8.69443636,6.16778182 8.90825455,5.46414545 9.34625455,4.78450909 C9.80116364,4.07978182 10.4033455,3.53432727 11.1838909,3.11596364 C11.9704364,2.69541818 12.7946182,2.49141818 13.7017091,2.49141818 C14.6082545,2.49141818 15.4318909,2.69541818 16.2184364,3.11596364 C16.9984364,3.53432727 17.6000727,4.07978182 18.0544364,4.7856 C18.4946182,5.46523636 18.7084364,6.16887273 18.7084364,6.93741818 C18.7084364,8.55469091 18.2273455,9.85723636 17.2449818,10.9219636 C16.2866182,11.9583273 15.1275273,12.4628727 13.7017091,12.4628727 C12.2748,12.4628727 11.1146182,11.9583273 10.1568,10.9219636 M4.35916364,19.6786909 C1.91225455,21.2463273 0.520254545,23.5301455 0.219709091,26.4646909 L0.00643636364,28.5281455 C-0.0617454545,29.2116 0.434072727,29.8236 1.11807273,29.8934182 C1.16334545,29.8988727 1.20589091,29.9010545 1.24789091,29.9010545 C1.87843636,29.9010545 2.41952727,29.4221455 2.48552727,28.7828727 L2.69770909,26.7183273 C2.92025455,24.5452364 3.90370909,22.9306909 5.70207273,21.7759636 C7.60952727,20.5552364 10.3351636,19.9361455 13.7998909,19.9361455 C17.2695273,19.9361455 19.9946182,20.5530545 21.9015273,21.7710545 C23.7004364,22.9176 24.6828,24.5321455 24.9058909,26.7036 L25.1175273,28.7806909 C25.1862545,29.4641455 25.7971636,29.9637818 26.4811636,29.8934182 C27.1657091,29.8236 27.6648,29.2137818 27.5944364,28.5281455 L27.3838909,26.4494182 C27.0817091,23.5137818 25.6886182,21.2321455 23.2406182,19.6705091 C20.9273455,18.1939636 17.7517091,17.4439636 13.7998909,17.4439636 C9.84970909,17.4439636 6.67298182,18.1972364 4.35916364,19.6786909" id="Fill-1" fill="#E57200" mask="url(#mask-2)"></path>
            </g>
        </g>
    </g>
</svg>