<?xml version="1.0" encoding="UTF-8"?>
<svg width="30px" height="30px" viewBox="0 0 30 30" version="1.1" xmlns="http://www.w3.org/2000/svg" xmlns:xlink="http://www.w3.org/1999/xlink">
    <!-- Generator: Sketch 57.1 (83088) - https://sketch.com -->
    <title>Group 3</title>
    <desc>Created with Sketch.</desc>
    <defs>
        <polygon id="path-1" points="4.91803279e-05 9.83606557e-05 29.9011475 9.83606557e-05 29.9011475 29.901541 4.91803279e-05 29.901541"></polygon>
    </defs>
    <g id="Symbols" stroke="none" stroke-width="1" fill="none" fill-rule="evenodd">
        <g id="ico-datos-/-técnicos">
            <g id="Group-3">
                <mask id="mask-2" fill="white">
                    <use xlink:href="#path-1"></use>
                </mask>
                <g id="Clip-2"></g>
                <path d="M19.6682459,9.29911475 C19.6672623,9.29567213 19.6657869,9.29272131 19.6652951,9.28878689 L17.4639836,2.1364918 L25.6293934,2.1364918 L25.6293934,5.33960656 C25.6293934,5.92927869 26.107918,6.40780328 26.6970984,6.40780328 C27.2872623,6.40780328 27.7657869,5.92927869 27.7657869,5.33960656 L27.7657869,1.63534426 C27.7657869,0.733377049 27.0320164,9.83606557e-05 26.1300492,9.83606557e-05 L3.77070492,9.83606557e-05 C2.86922951,9.83606557e-05 2.13545902,0.733377049 2.13545902,1.63534426 L2.13545902,5.33960656 C2.13545902,5.92927869 2.6134918,6.40780328 3.20316393,6.40780328 C3.79332787,6.40780328 4.27136066,5.92927869 4.27136066,5.33960656 L4.27136066,2.1364918 L12.4362787,2.1364918 L10.2344754,9.29272131 L4.31857377,28.5197705 C4.14545902,29.0838689 4.46119672,29.680918 5.02480328,29.8545246 C5.12955738,29.8864918 5.23529508,29.9017377 5.33955738,29.9017377 C5.79595082,29.9017377 6.21840984,29.6071475 6.35955738,29.1478033 L8.10004918,23.4945246 L21.8016885,23.4945246 L23.5407049,29.1478033 C23.6818525,29.6071475 24.1048033,29.9017377 24.5607049,29.9017377 C24.665459,29.9017377 24.7707049,29.8864918 24.875459,29.8545246 C25.4390656,29.680918 25.7557869,29.0838689 25.5821803,28.5197705 L19.6682459,9.29911475 Z M11.8446393,11.3204262 L17.0823443,14.950918 L10.7277541,14.950918 L11.8446393,11.3204262 Z M14.6685738,10.6796066 L17.8574262,10.6796066 L18.7225082,13.4892787 L14.6685738,10.6796066 Z M15.2297213,2.1364918 L17.200377,8.54321311 L12.6993934,8.54321311 L14.670541,2.1364918 L15.2297213,2.1364918 Z M8.75660656,21.358623 L9.97578689,17.3956721 L17.9016885,21.358623 L8.75660656,21.358623 Z M14.1344754,17.0868197 L19.8295574,17.0868197 L20.8652951,20.4522295 L14.1344754,17.0868197 Z M4.91803279e-05,9.61140984 C4.91803279e-05,9.02222951 0.477590164,8.54321311 1.0672623,8.54321311 L5.33857377,8.54321311 C5.9287377,8.54321311 6.40677049,9.02222951 6.40677049,9.61140984 C6.40677049,10.201082 5.9287377,10.6796066 5.33857377,10.6796066 L1.0672623,10.6796066 C0.477590164,10.6796066 4.91803279e-05,10.201082 4.91803279e-05,9.61140984 L4.91803279e-05,9.61140984 Z M5.33857377,14.950918 L1.0672623,14.950918 C0.477590164,14.950918 4.91803279e-05,14.4728852 4.91803279e-05,13.8827213 C4.91803279e-05,13.293541 0.477590164,12.8150164 1.0672623,12.8150164 L5.33857377,12.8150164 C5.9287377,12.8150164 6.40677049,13.293541 6.40677049,13.8827213 C6.40677049,14.4728852 5.9287377,14.950918 5.33857377,14.950918 L5.33857377,14.950918 Z M24.5611967,8.54321311 L28.833,8.54321311 C29.4226721,8.54321311 29.9011967,9.02222951 29.9011967,9.61140984 C29.9011967,10.201082 29.4226721,10.6796066 28.833,10.6796066 L24.5611967,10.6796066 C23.9720164,10.6796066 23.493,10.201082 23.493,9.61140984 C23.493,9.02222951 23.9720164,8.54321311 24.5611967,8.54321311 L24.5611967,8.54321311 Z M29.9011967,13.8827213 C29.9011967,14.4728852 29.4226721,14.950918 28.833,14.950918 L24.5611967,14.950918 C23.9720164,14.950918 23.493,14.4728852 23.493,13.8827213 C23.493,13.293541 23.9720164,12.8150164 24.5611967,12.8150164 L28.833,12.8150164 C29.4226721,12.8150164 29.9011967,13.293541 29.9011967,13.8827213 L29.9011967,13.8827213 Z" id="Fill-1" fill="#E57200" mask="url(#mask-2)"></path>
            </g>
        </g>
    </g>
</svg>