<svg width="20" height="20" viewBox="0 0 20 20" fill="none" xmlns="http://www.w3.org/2000/svg">
<g clip-path="url(#clip0_979_307)">
<path fill-rule="evenodd" clip-rule="evenodd" d="M19.5838 6.01538L16.5821 0.225641C16.4658 0.0820513 16.2949 0 16.1103 0C15.9256 0 15.753 0.0820513 15.6385 0.225641L12.6368 6.01538C12.635 6.01709 12.5 6.25983 12.5 6.39487C12.5 6.72821 12.7718 7 13.1068 7H19.1154C19.4504 7 19.7222 6.72821 19.7222 6.39487C19.7205 6.25983 19.5872 6.01709 19.5838 6.01538ZM19.1137 6.49231H13.1068C13.0402 6.49231 13.0094 6.43419 13.0094 6.39316C13.0094 6.37265 13.0145 6.35556 13.0282 6.33846L16.0265 0.552137C16.0282 0.550427 16.0316 0.547009 16.0333 0.54359C16.059 0.511111 16.0915 0.505983 16.1103 0.505983C16.1274 0.505983 16.1615 0.511111 16.1872 0.54359C16.1889 0.545299 16.1923 0.548718 16.194 0.552137L19.194 6.33846C19.206 6.35556 19.2128 6.37436 19.2128 6.39316C19.2128 6.4359 19.1821 6.49231 19.1137 6.49231ZM16.1103 5.18291C15.9427 5.18291 15.8077 5.31795 15.8077 5.48547C15.8077 5.65299 15.9427 5.78803 16.1103 5.78803C16.2778 5.78803 16.4128 5.65299 16.4128 5.48547C16.4128 5.31795 16.2778 5.18291 16.1103 5.18291ZM16.1103 4.68547C16.2487 4.68547 16.3615 4.57436 16.3615 4.4359V2.52479C16.3615 2.38632 16.2487 2.27521 16.1103 2.27521C15.9718 2.27521 15.859 2.38632 15.859 2.52479V4.4359C15.859 4.57265 15.9718 4.68547 16.1103 4.68547Z" fill="#004571" stroke="#004571" stroke-width="0.1"/>
<path d="M5.4343 5.65297L6.99106 6.66083C7.20053 6.79608 7.33471 7.01359 7.35203 7.2542C7.37238 7.49453 7.27953 7.72932 7.09622 7.90307L5.73562 9.17654C5.5548 9.34377 5.27347 9.33134 5.11144 9.14464C4.94638 8.95822 4.96138 8.66753 5.14193 8.49718L5.88452 7.80452C3.15194 8.27366 1.18323 10.8567 1.42868 13.7563C1.68655 16.8026 4.29393 19.0651 7.24179 18.7999C10.1897 18.5347 12.3775 15.8407 12.1196 12.7944C12.0665 12.1671 11.9147 11.5612 11.6654 10.9923C11.5668 10.7622 11.6658 10.4922 11.8854 10.3876C12.108 10.2826 12.3696 10.3849 12.4715 10.6179C12.7622 11.2805 12.9409 11.9878 13.0027 12.7181C13.3031 16.2669 10.7541 19.4085 7.3225 19.7173C3.89088 20.026 0.85282 17.3902 0.552146 13.8383C0.26706 10.4705 2.54519 7.47596 5.71141 6.91119L4.97333 6.43352C4.85078 6.35334 4.77895 6.22457 4.76706 6.08411C4.75887 5.98735 4.78091 5.88788 4.83451 5.80129C4.95615 5.58277 5.22785 5.51744 5.4343 5.65297Z" fill="#004571" stroke="#004571" stroke-width="0.3"/>
</g>
<defs>
<clipPath id="clip0_979_307">
<rect width="20" height="20" fill="white"/>
</clipPath>
</defs>
</svg>
