<svg width="20" height="20" viewBox="0 0 20 20" fill="none" xmlns="http://www.w3.org/2000/svg">
<g clip-path="url(#clip0_979_308)">
<path fill-rule="evenodd" clip-rule="evenodd" d="M19.5838 6.01538L16.5821 0.225641C16.4658 0.0820513 16.2949 0 16.1103 0C15.9256 0 15.753 0.0820513 15.6385 0.225641L12.6368 6.01538C12.635 6.01709 12.5 6.25983 12.5 6.39487C12.5 6.72821 12.7718 7 13.1068 7H19.1154C19.4504 7 19.7222 6.72821 19.7222 6.39487C19.7205 6.25983 19.5872 6.01709 19.5838 6.01538ZM19.1137 6.49231H13.1068C13.0402 6.49231 13.0094 6.43419 13.0094 6.39316C13.0094 6.37265 13.0145 6.35556 13.0282 6.33846L16.0265 0.552137C16.0282 0.550427 16.0316 0.547009 16.0333 0.54359C16.059 0.511111 16.0915 0.505983 16.1103 0.505983C16.1274 0.505983 16.1615 0.511111 16.1872 0.54359C16.1889 0.545299 16.1923 0.548718 16.194 0.552137L19.194 6.33846C19.206 6.35556 19.2128 6.37436 19.2128 6.39316C19.2128 6.4359 19.1821 6.49231 19.1137 6.49231ZM16.1103 5.18291C15.9427 5.18291 15.8077 5.31795 15.8077 5.48547C15.8077 5.65299 15.9427 5.78803 16.1103 5.78803C16.2778 5.78803 16.4128 5.65299 16.4128 5.48547C16.4128 5.31795 16.2778 5.18291 16.1103 5.18291ZM16.1103 4.68547C16.2487 4.68547 16.3615 4.57436 16.3615 4.4359V2.52479C16.3615 2.38632 16.2487 2.27521 16.1103 2.27521C15.9718 2.27521 15.859 2.38632 15.859 2.52479V4.4359C15.859 4.57265 15.9718 4.68547 16.1103 4.68547Z" fill="#004571" stroke="#004571" stroke-width="0.1"/>
<path d="M2.10745 14.5462L4.46981 9.89544L6.64029 16.786L9.70039 7.42986C9.76586 7.44627 11.3854 19.1941 11.3854 19.1941C11.3854 19.1941 14.4938 10.6453 14.5593 10.6617L16.9483 16.6806L18.1526 13.1059" stroke="#004571" stroke-width="1.2" stroke-linecap="round" stroke-linejoin="round"/>
</g>
<defs>
<clipPath id="clip0_979_308">
<rect width="20" height="20" fill="white"/>
</clipPath>
</defs>
</svg>
