<?xml version="1.0" encoding="UTF-8"?>
<svg width="15px" height="15px" viewBox="0 0 15 15" version="1.1" xmlns="http://www.w3.org/2000/svg" xmlns:xlink="http://www.w3.org/1999/xlink">
    <!-- Generator: Sketch 57.1 (83088) - https://sketch.com -->
    <title>Fill 1</title>
    <desc>Created with Sketch.</desc>
    <g id="Provisión-de-servicio-" stroke="none" stroke-width="1" fill="none" fill-rule="evenodd">
        <g id="1-05_UFD_solicitud-de-sumilistro-listado" transform="translate(-936.000000, -192.000000)" fill="#FFF">
            <path d="M941.053696,204.926384 C940.947835,204.820742 940.889656,204.680324 940.889656,204.531156 C940.889656,204.382427 940.947835,204.242227 941.053258,204.136585 C941.055883,204.133742 941.058726,204.13068 941.061351,204.127617 L941.842182,203.347005 C941.836714,203.376751 941.83409,203.406934 941.83409,203.437555 C941.834527,203.569443 941.885926,203.693458 941.97932,203.786414 L942.482158,204.289033 L941.84437,204.926603 C941.633742,205.137449 941.264323,205.137449 941.053696,204.926384 M951,195.655707 C951,194.679339 950.619645,193.76137 949.928927,193.071308 C949.21393,192.355218 948.223565,191.966989 947.224888,192.002203 L941.529194,192.000891 C941.456141,191.997829 941.385713,192.010952 941.308286,192.043979 C941.305224,192.045072 941.285977,192.054259 941.283571,192.05579 C941.273291,192.06082 941.265636,192.065413 941.254918,192.071975 C941.251419,192.073943 941.241577,192.080068 941.238733,192.082036 L941.204832,192.106314 C941.186022,192.12075 941.168087,192.137154 941.158463,192.14809 L939.427292,193.878386 C938.82428,194.482054 938.82428,195.464108 939.427729,196.067994 C939.71994,196.359548 940.109262,196.51987 940.522643,196.51987 C940.93668,196.51987 941.325784,196.359111 941.617557,196.067338 L942.409105,195.275571 L946.123632,198.990972 C946.3102,199.178197 946.63828,199.17754 946.82288,198.990972 C946.916493,198.897578 946.967673,198.773564 946.967673,198.641457 C946.967673,198.509569 946.916493,198.385336 946.82288,198.292161 L942.759058,194.227026 C942.665008,194.133414 942.541212,194.081796 942.408668,194.081796 L942.40823,194.081796 C942.277654,194.082014 942.154515,194.132757 942.06134,194.224839 C942.060246,194.226151 942.058934,194.227463 942.057622,194.228994 L942.057622,194.228994 L940.918308,195.368089 C940.700025,195.586591 940.345042,195.586591 940.126759,195.368746 C939.909351,195.150463 939.909351,194.79548 940.126759,194.577634 L941.714887,192.989288 L947.243698,192.991038 C947.981442,192.962385 948.707593,193.247596 949.230116,193.770338 C949.733828,194.273832 950.011384,194.943335 950.011384,195.655707 C950.011384,196.367641 949.733828,197.037144 949.227054,197.544356 L947.301222,199.469751 L947.296191,199.475219 C947.109185,199.667911 947.110279,199.977619 947.310627,200.178186 L948.284807,201.152803 C948.286338,201.154115 948.28765,201.155428 948.288962,201.15674 L948.288962,201.156959 C948.394167,201.261507 948.452128,201.401707 948.452565,201.551093 C948.452565,201.700697 948.394604,201.841116 948.2894,201.94632 C948.078772,202.156948 947.712634,202.159791 947.498726,201.947633 L945.543804,199.993148 C945.356798,199.80658 945.032874,199.805705 944.844556,199.993804 C944.6523,200.186934 944.652738,200.500361 944.844993,200.692616 L946.800133,202.647537 C947.016448,202.865602 947.015573,203.219491 946.797727,203.437118 C946.693398,203.542103 946.553417,203.600283 946.403812,203.600502 C946.254208,203.600502 946.114227,203.542322 946.008147,203.436461 L944.054319,201.482852 C943.867532,201.295627 943.541201,201.296284 943.354852,201.482415 C943.261458,201.576027 943.210059,201.70026 943.210059,201.832367 C943.210059,201.964255 943.261458,202.08827 943.354852,202.181882 L945.308461,204.135491 C945.526744,204.353774 945.526744,204.708757 945.308899,204.926821 C945.095428,205.140074 944.746788,205.144011 944.528505,204.937101 C944.524568,204.932508 944.520412,204.928352 944.518225,204.926165 L942.677913,203.086509 C942.548868,202.958339 942.366455,202.915688 942.202852,202.958776 C942.392045,202.696968 942.494188,202.383105 942.494188,202.053493 C942.494188,201.639893 942.333209,201.251227 942.040562,200.959017 C941.893582,200.811818 941.718387,200.69699 941.527881,200.620001 C941.673112,200.380721 941.750976,200.105352 941.750976,199.817735 C941.750976,199.403697 941.589779,199.014812 941.297569,198.72304 C941.005359,198.430611 940.61713,198.269414 940.202655,198.269414 C939.789274,198.269851 939.400389,198.431048 939.10796,198.723258 L938.710546,199.120017 L937.765674,198.174927 C936.728503,197.135349 936.729377,195.444423 937.767861,194.406376 C938.093754,194.080702 938.499043,193.844047 938.939546,193.722219 C939.066841,193.687224 939.173139,193.604548 939.238536,193.489282 C939.303496,193.374673 939.320119,193.241472 939.285124,193.114177 C939.212946,192.853463 938.941295,192.69839 938.676863,192.769037 C938.071445,192.93592 937.515677,193.260282 937.068394,193.70669 C935.643869,195.13209 935.643869,197.451181 937.068394,198.876581 L938.364093,200.171624 C938.387277,200.193496 938.411555,200.2134 938.438895,200.231553 C938.633775,200.359942 938.895583,200.333258 939.060935,200.168124 L939.806772,199.422507 C939.912195,199.317084 940.053269,199.258686 940.203093,199.258467 C940.352697,199.258467 940.492897,199.316428 940.59832,199.42207 C940.703743,199.527493 940.761923,199.66813 940.761923,199.817735 C940.761923,199.967339 940.703743,200.107976 940.59832,200.2134 L938.859713,201.951351 C938.647773,202.15826 938.283385,202.156073 938.073632,201.94632 C937.968209,201.841116 937.910467,201.700697 937.910467,201.551093 C937.910467,201.401488 937.968209,201.26107 938.072757,201.156303 C938.166807,201.062909 938.218425,200.938676 938.218425,200.80635 C938.218425,200.673806 938.166807,200.549573 938.073632,200.456616 C937.88094,200.264143 937.567513,200.263924 937.374821,200.456616 C937.082611,200.748608 936.921851,201.137274 936.921851,201.551093 C936.921851,201.964911 937.082611,202.353796 937.374821,202.64535 C937.653252,202.924437 938.020264,203.084103 938.413305,203.098101 C938.427303,203.485455 938.585875,203.856842 938.864306,204.134616 C938.957481,204.228447 939.081276,204.280065 939.213821,204.280065 L939.214258,204.280065 C939.346147,204.280065 939.470599,204.228666 939.563992,204.135273 C939.657167,204.041879 939.708566,203.917865 939.708566,203.785758 C939.708566,203.653869 939.657167,203.529636 939.563992,203.436461 C939.347896,203.220366 939.346147,202.867351 939.563773,202.645569 L940.567481,201.641862 C940.789263,201.438889 941.129373,201.446326 941.341094,201.658703 C941.447174,201.764564 941.505572,201.904982 941.505572,202.053931 C941.505572,202.201567 941.448486,202.340454 941.353124,202.438441 C941.348968,202.442159 941.345031,202.445659 941.341094,202.449596 L940.354885,203.436461 C940.062237,203.729109 939.90104,204.117775 939.90104,204.531156 C939.90104,204.944975 940.062237,205.33386 940.354885,205.62607 C940.647095,205.917843 941.035323,206.078602 941.449361,206.078602 C941.862742,206.078602 942.251627,205.918062 942.544056,205.62607 L943.181844,204.988282 L943.804759,205.611197 C943.809134,205.61579 943.812852,205.620602 943.815914,205.623445 C944.109874,205.916968 944.499852,206.078602 944.913015,206.078602 C945.326396,206.078602 945.715062,205.91828 946.00771,205.626507 C946.286797,205.34742 946.445588,204.975377 946.459805,204.588024 C946.853282,204.574026 947.220076,204.414141 947.497851,204.135273 C947.776719,203.856623 947.934854,203.485017 947.948852,203.098101 C948.341018,203.084103 948.708468,202.924875 948.987774,202.645788 C949.279984,202.354015 949.441181,201.96513 949.441181,201.550655 C949.441181,201.137055 949.279546,200.748389 948.986899,200.456179 C948.984493,200.453336 948.981431,200.450711 948.978806,200.448086 L948.349985,199.819484 L949.929364,198.240324 C950.620083,197.549605 951,196.632074 951,195.655707" id="Fill-1"></path>
        </g>
    </g>
</svg>