<svg width="18" height="20" viewBox="0 0 18 20" fill="none" xmlns="http://www.w3.org/2000/svg">
<path d="M17.7962 15.1092L14.7571 18.2943C14.6263 18.4314 14.4499 18.5079 14.2674 18.5079C14.0848 18.5079 13.9084 18.4314 13.7776 18.2943L10.7203 15.0869C10.4496 14.8031 10.4496 14.344 10.7203 14.0603C10.991 13.7765 11.4291 13.7765 11.6999 14.0603L13.5586 16.0083V9.27786C13.5586 8.87614 13.8689 8.55412 14.2522 8.55412C14.6355 8.55412 14.9458 8.87932 14.9458 9.27786V16.0497L16.8258 14.0794C17.0965 13.7956 17.5346 13.7956 17.8053 14.0794C18.0669 14.3663 18.0669 14.8254 17.7962 15.1092ZM11.0641 18.5493H1.85263C1.61535 18.5493 1.42065 18.3453 1.42065 18.0934L1.38415 8.21298V1.9034C1.38415 1.65471 1.57884 1.45066 1.81612 1.45066H11.7789C12.0162 1.45066 12.2109 1.65471 12.2109 1.9034V4.9195C12.2109 5.32122 12.5212 5.64642 12.9045 5.64642C13.2878 5.64642 13.5981 5.32122 13.5981 4.9195V1.9034C13.5981 0.854456 12.7828 0 11.782 0H1.81612C0.815278 0 0 0.854456 0 1.9034L0.036505 18.0934C0.036505 19.1424 0.851783 19.9968 1.85263 19.9968H11.0641C11.4474 19.9968 11.7577 19.6716 11.7577 19.2699C11.7546 18.8714 11.4443 18.5493 11.0641 18.5493Z" fill="#004571"/>
<path fill-rule="evenodd" clip-rule="evenodd" d="M10.2513 9.3865C10.1144 9.3865 9.98284 9.32934 9.95361 9.3159C9.61146 9.1024 9.26242 8.87004 8.90967 8.62109H8.91855C9.52262 8.62109 9.92524 8.65768 9.94071 8.65911C10.0419 8.66254 10.3617 8.7097 10.4989 8.87089C10.5528 8.93377 10.5737 9.00951 10.564 9.10869C10.4964 9.35306 10.3683 9.3865 10.2513 9.3865M4.81152 8.86356L4.81725 8.83869V8.83955C5.00581 8.10159 5.27747 7.0215 5.43479 6.32813L5.44081 6.33298V6.33013C5.94688 6.80543 6.72403 7.50138 7.65335 8.22506L7.64274 8.22563L7.6585 8.23678C6.78249 8.31137 5.73597 8.48314 4.81152 8.86356M5.00577 5.29876C4.62836 4.88061 4.63381 4.67311 4.65473 4.6028C4.68768 4.48619 4.83813 4.44218 4.83985 4.44132C4.9155 4.42103 4.96049 4.42532 5.00233 4.4699C5.09431 4.57165 5.17398 4.87718 5.14188 5.43795C5.05333 5.34849 5.00577 5.29876 5.00577 5.29876M3.44744 10.5686C3.44514 10.5654 3.44371 10.5631 3.44256 10.5597C3.41849 10.5025 3.44744 10.3628 3.49013 10.2602C3.67181 10.0578 3.88989 9.8709 4.14263 9.70313C3.89676 10.496 3.53942 10.5648 3.44744 10.5686M9.96928 8.22505C9.9518 8.22363 9.54431 8.18647 8.91846 8.18647C8.72217 8.18647 8.52501 8.19076 8.329 8.19762C7.09364 7.27216 6.08094 6.3467 5.53905 5.82738C5.54879 5.7705 5.55567 5.72563 5.55853 5.69048C5.63046 4.93708 5.55022 4.42948 5.32384 4.18025C5.17426 4.01676 4.9559 3.96275 4.7278 4.02534C4.58623 4.06164 4.32374 4.19911 4.24007 4.47806C4.14751 4.78645 4.29681 5.16058 4.68768 5.59444C4.69369 5.60102 4.82695 5.73992 5.06737 5.97457C4.91148 6.72111 4.50084 8.33109 4.30053 9.10364C3.83373 9.35344 3.44372 9.65383 3.14111 9.99823L3.12134 10.0208L3.10901 10.048C3.07835 10.1128 2.92877 10.451 3.04139 10.7225C3.09211 10.8459 3.18782 10.9365 3.31706 10.9834L3.35173 10.9934C3.35173 10.9934 3.38297 11 3.43827 11C3.67956 11 4.27532 10.8734 4.59483 9.6987L4.6722 9.40031C5.78807 8.86013 7.18333 8.6855 8.19461 8.63691C8.71386 9.02161 9.2311 9.3743 9.73201 9.68755L9.74949 9.69727C9.77356 9.70927 9.99335 9.81788 10.2513 9.81788C10.6186 9.81788 10.8877 9.59266 10.9877 9.20053L10.9929 9.17309C11.0212 8.9493 10.9645 8.74723 10.8301 8.58832C10.5456 8.25592 10.0163 8.22706 9.96928 8.22505" fill="#DE3932"/>
<path d="M3.66888 13.9997H3.29688V11.3477H4.26488C4.43821 11.3477 4.59154 11.3663 4.72488 11.4037C4.85821 11.4383 4.97154 11.501 5.06488 11.5917C5.13421 11.6583 5.18754 11.7437 5.22488 11.8477C5.26488 11.949 5.28488 12.065 5.28488 12.1957C5.28488 12.3397 5.26221 12.4717 5.21688 12.5917C5.17421 12.7117 5.11021 12.813 5.02488 12.8957C4.95821 12.9597 4.88354 13.0077 4.80088 13.0397C4.72088 13.0717 4.61021 13.0877 4.46888 13.0877H3.66888V13.9997ZM3.66888 12.7837H4.54888C4.60488 12.7837 4.64888 12.777 4.68088 12.7637C4.71288 12.7503 4.74088 12.729 4.76488 12.6997C4.81021 12.6463 4.84488 12.5743 4.86888 12.4837C4.89554 12.393 4.90888 12.2983 4.90888 12.1997C4.90888 12.0263 4.86754 11.8957 4.78488 11.8077C4.73154 11.7517 4.65954 11.713 4.56888 11.6917C4.48088 11.6677 4.37688 11.6557 4.25688 11.6557H3.66888V12.7837Z" fill="#004571"/>
<path d="M6.41913 13.6877C6.64046 13.6877 6.83379 13.6703 6.99913 13.6357C7.16446 13.601 7.29913 13.533 7.40313 13.4317C7.48313 13.3543 7.54446 13.253 7.58713 13.1277C7.63246 12.9997 7.65513 12.8477 7.65513 12.6717C7.65513 12.4957 7.63246 12.345 7.58713 12.2197C7.54446 12.0943 7.48313 11.993 7.40313 11.9157C7.29913 11.8143 7.16446 11.7463 6.99913 11.7117C6.83379 11.677 6.64046 11.6597 6.41913 11.6597H6.07512V13.6877H6.41913ZM5.70312 13.9997V11.3477H6.49113C6.75779 11.3477 6.98846 11.3757 7.18313 11.4317C7.38046 11.4877 7.54579 11.577 7.67913 11.6997C7.79646 11.809 7.88579 11.945 7.94712 12.1077C8.00846 12.2677 8.03912 12.4557 8.03912 12.6717C8.03912 12.8877 8.00846 13.077 7.94712 13.2397C7.88579 13.4023 7.79646 13.5383 7.67913 13.6477C7.54579 13.7703 7.38046 13.8597 7.18313 13.9157C6.98846 13.9717 6.75779 13.9997 6.49113 13.9997H5.70312Z" fill="#004571"/>
<path d="M10.1884 11.3477V11.6557H8.85638V12.4757H10.0444V12.7797H8.85638V13.9997H8.48438V11.3477H10.1884Z" fill="#004571"/>
</svg>
