<?xml version="1.0" encoding="UTF-8"?>
<svg width="13px" height="19px" viewBox="0 0 13 19" version="1.1" xmlns="http://www.w3.org/2000/svg" xmlns:xlink="http://www.w3.org/1999/xlink">
    <!-- Generator: Sketch 57.1 (83088) - https://sketch.com -->
    <title>Fill 7</title>
    <desc>Created with Sketch.</desc>
    <g id="Mi-consumo" stroke="none" stroke-width="1" fill="none" fill-rule="evenodd">
        <g id="1-03_Consumo_Por-meses_gráfica" transform="translate(-887.000000, -589.000000)" fill="#1674D1">
            <path d="M898.763505,603.491736 L896.392079,603.491736 C896.06503,603.491736 895.800056,603.756709 895.800056,604.084271 L895.800056,606.454415 L888.746827,606.454415 C888.436451,606.454415 888.184302,606.20201 888.184302,605.892404 L888.184302,590.748109 C888.184302,590.43799 888.436451,590.185841 888.746827,590.185841 L898.200724,590.185841 C898.5111,590.185841 898.763505,590.43799 898.763505,590.748109 L898.763505,603.491736 Z M896.984615,606.097868 L896.984615,604.676807 L898.122489,604.676807 L896.984615,606.097868 Z M898.200724,589 L888.746827,589 C887.783122,589 887,589.784661 887,590.748109 L887,605.892404 C887,606.855595 887.783122,607.64 888.746827,607.64 L896.984615,607.64 C897.165454,607.64 897.335006,607.557917 897.447614,607.41735 L899.818014,604.454158 C899.901636,604.349502 899.948321,604.219452 899.948321,604.084271 L899.948321,590.748109 C899.948321,589.784661 899.164172,589 898.200724,589 L898.200724,589 Z M894.880035,595.623628 L893.9979,592.591178 L893.055486,592.591178 L892.097938,595.683395 L891.156037,592.591178 L890.370606,592.591178 L891.638017,596.434966 L892.49091,596.434966 L893.485395,593.271953 L894.397542,596.434966 L895.22427,596.434966 L896.577356,592.591178 L895.837327,592.591178 L894.880035,595.623628 Z M895.761785,597.297709 L891.18515,597.297709 C890.869644,597.297709 890.614674,597.553961 890.614674,597.868441 C890.614674,598.183948 890.869644,598.4402 891.18515,598.4402 L895.761785,598.4402 C896.076522,598.4402 896.333031,598.183948 896.333031,597.868441 C896.333031,597.553961 896.076522,597.297709 895.761785,597.297709 M895.761785,599.582486 L891.18515,599.582486 C890.869644,599.582486 890.614674,599.837713 890.614674,600.153732 C890.614674,600.469238 890.869644,600.724465 891.18515,600.724465 L895.761785,600.724465 C896.076522,600.724465 896.333031,600.469238 896.333031,600.153732 C896.333031,599.837713 896.076522,599.582486 895.761785,599.582486" id="Fill-7"></path>
        </g>
    </g>
</svg>