<?xml version="1.0" encoding="UTF-8"?>
<svg width="12px" height="13px" viewBox="0 0 12 13" version="1.1" xmlns="http://www.w3.org/2000/svg" xmlns:xlink="http://www.w3.org/1999/xlink">
    <!-- Generator: Sketch 57.1 (83088) - https://sketch.com -->
    <title>Fill 1</title>
    <desc>Created with Sketch.</desc>
    <g id="Symbols" stroke="none" stroke-width="1" fill="none" fill-rule="evenodd">
        <g id="Header-/-privada-logueadaCOMOGESTOR" transform="translate(-1241.000000, -205.000000)" fill="#0E80D4">
            <path d="M1246.31816,205.591311 L1246.31816,211.49974 C1246.31816,211.826715 1246.58275,212.090531 1246.90921,212.090531 C1247.2354,212.090531 1247.49974,211.826715 1247.49974,211.49974 L1247.49974,205.591311 C1247.49974,205.264855 1247.2354,205 1246.90921,205 C1246.58275,205 1246.31816,205.264855 1246.31816,205.591311 M1244.94528,206.516355 C1242.58549,207.347049 1241,209.587792 1241,212.090531 C1241,215.349108 1243.65037,218 1246.90921,218 C1250.16701,218 1252.8179,215.349108 1252.8179,212.090531 C1252.8179,209.59299 1251.23682,207.354327 1248.88302,206.519474 C1248.57554,206.411088 1248.23764,206.571717 1248.129,206.879718 C1248.01983,207.18642 1248.18098,207.525092 1248.48898,207.633737 C1250.37104,208.300944 1251.63632,210.092031 1251.63632,212.090531 C1251.63632,214.697237 1249.51591,216.817898 1246.90921,216.817898 C1244.3025,216.817898 1242.1821,214.697237 1242.1821,212.090531 C1242.1821,210.088132 1243.45024,208.295485 1245.33801,207.630878 C1245.64575,207.522753 1245.80768,207.184341 1245.6993,206.876859 C1245.61352,206.634617 1245.38584,206.482825 1245.14203,206.482825 C1245.0768,206.482825 1245.01052,206.492962 1244.94528,206.516355" id="Fill-1"></path>
        </g>
    </g>
</svg>