<?xml version="1.0" encoding="UTF-8"?>
<svg width="30px" height="18px" viewBox="0 0 30 18" version="1.1" xmlns="http://www.w3.org/2000/svg" xmlns:xlink="http://www.w3.org/1999/xlink">
    <!-- Generator: Sketch 57.1 (83088) - https://sketch.com -->
    <title>Fill 1</title>
    <desc>Created with Sketch.</desc>
    <g id="Symbols" stroke="none" stroke-width="1" fill="none" fill-rule="evenodd">
        <g id="ico-datos-/-facturación" transform="translate(0.000000, -6.000000)" fill="#E57200">
            <path d="M18.1002316,6.58541389 C17.100104,6.19915015 16.0463589,6 14.9575985,6 C13.8677439,6 12.8249412,6.20243284 11.8609232,6.56954754 C10.8733792,6.19367899 9.83385917,6 8.76205934,6 C3.93102694,6 0,9.93376252 0,14.7637007 C0,19.594186 3.93102694,23.5252129 8.76205934,23.5252129 C9.83385917,23.5252129 10.8733792,23.3326282 11.8609232,22.9578538 C12.8249412,23.3227801 13.8677439,23.5252129 14.9575985,23.5252129 C16.0463589,23.5252129 17.100104,23.327157 18.1002316,22.9408933 C19.0757391,23.3173089 20.1327668,23.5252129 21.2373935,23.5252129 C26.0689731,23.5252129 30,19.594186 30,14.7637007 C30,9.93376252 26.0689731,6 21.2373935,6 C20.1327668,6 19.0757391,6.20899823 18.1002316,6.58541389 M14.9751062,14.7637007 C14.9751062,11.3103058 17.7850929,8.49922492 21.2373935,8.49922492 C24.6924297,8.49922492 27.5018693,11.3103058 27.5018693,14.7637007 C27.5018693,18.2160013 24.6924297,21.0248938 21.2373935,21.0248938 C17.7850929,21.0248938 14.9751062,18.2160013 14.9751062,14.7637007 M12.6329035,20.5757117 C12.4944832,20.477778 12.3396495,20.4088414 12.1749676,20.3710904 C10.1150767,19.343607 8.69585833,17.2169679 8.69585833,14.7637007 C8.69585833,12.3093393 10.1150767,10.1827002 12.1738734,9.15521675 C12.3396495,9.11910711 12.4961246,9.04852917 12.635092,8.9489541 C13.3529079,8.66007696 14.1363777,8.49922492 14.9575985,8.49922492 C15.0112159,8.49922492 15.0631919,8.50414896 15.115715,8.50414896 C13.4896869,10.0962559 12.4775227,12.3137162 12.4775227,14.7637007 C12.4775227,17.2120438 13.4896869,19.4300512 15.115715,21.0216111 C15.0631919,21.0237995 15.0112159,21.0248938 14.9575985,21.0248938 C14.1363777,21.0248938 13.3518137,20.8667773 12.6329035,20.5757117 M2.4986778,14.7637007 C2.4986778,11.3103058 5.30811737,8.49922492 8.76205934,8.49922492 C8.78777379,8.49922492 8.81184688,8.50250761 8.83646709,8.50250761 C7.20934474,10.0946146 6.19499207,12.3115277 6.19499207,14.7637007 C6.19499207,17.2147794 7.20934474,19.4316926 8.83646709,21.0243467 C8.81184688,21.0243467 8.78777379,21.0248938 8.76205934,21.0248938 C5.30811737,21.0248938 2.4986778,18.2160013 2.4986778,14.7637007" id="Fill-1"></path>
        </g>
    </g>
</svg>