<?xml version="1.0" encoding="UTF-8"?>
<svg width="29px" height="24px" viewBox="0 0 29 24" version="1.1" xmlns="http://www.w3.org/2000/svg" xmlns:xlink="http://www.w3.org/1999/xlink">
    <!-- Generator: Sketch 57.1 (83088) - https://sketch.com -->
    <title>Group 1062</title>
    <desc>Created with Sketch.</desc>
    <g id="Provisión-de-servicio-" stroke="none" stroke-width="1" fill="none" fill-rule="evenodd" stroke-linecap="round" stroke-linejoin="round">
        <g id="2-05_UFD_TEN_A_MANO_NU_01.3-" transform="translate(-706.000000, -774.000000)" stroke="#004571" stroke-width="1.3">
            <g id="Group-1062" transform="translate(707.000000, 774.000000)">
                <g id="Group-560" transform="translate(8.123894, 3.989796)">
                    <path d="M0,2.65986395 L0,4.38095238" id="Stroke-294"></path>
                    <path d="M0,6.10204082 L0,7.82312925" id="Stroke-295"></path>
                    <path d="M0,9.54421769 L0,11.2653061" id="Stroke-296"></path>
                    <path d="M14.167621,2.65986395 L14.167621,4.38095238" id="Stroke-297"></path>
                    <path d="M14.167621,6.10204082 L14.167621,7.82312925" id="Stroke-298"></path>
                    <polyline id="Stroke-299" points="0 12.9863946 0 13.8469388 0.885476314 13.8469388"></polyline>
                    <polyline id="Stroke-300" points="0.885476314 0.0782312925 0 0.0782312925 0 0.93877551"></polyline>
                    <path d="M2.65642894,0.0782312925 L4.42738157,0.0782312925" id="Stroke-301"></path>
                    <path d="M6.1983342,0.0782312925 L7.96928683,0.0782312925" id="Stroke-302"></path>
                    <path d="M2.65642894,13.8469388 L4.42738157,13.8469388" id="Stroke-303"></path>
                    <path d="M6.1983342,13.8469388 L7.96928683,13.8469388" id="Stroke-304"></path>
                    <path d="M9.74023946,0.0782312925 L11.5111921,0.0782312925" id="Stroke-305"></path>
                    <polyline id="Stroke-306" points="13.2821447 0.0782312925 14.167621 0.0782312925 14.167621 0.93877551"></polyline>
                </g>
                <polygon id="Stroke-2521" transform="translate(20.823919, 16.663394) rotate(-24.000000) translate(-20.823919, -16.663394) " points="16.2974367 21.5618612 20.7285342 11.7049992 25.3504017 21.621788 20.776705 18.8952773"></polygon>
                <polygon id="Stroke-2521-Copy" transform="translate(4.390678, 4.454003) rotate(31.000000) translate(-4.390678, -4.454003) " points="1.65583776 8.00200262 4.42927694 0.906002762 7.12551894 7.9589077 4.38839638 6.05115997"></polygon>
            </g>
        </g>
    </g>
</svg>