<?xml version="1.0" encoding="UTF-8"?>
<svg width="210px" height="210px" viewBox="0 0 210 210" version="1.1" xmlns="http://www.w3.org/2000/svg" xmlns:xlink="http://www.w3.org/1999/xlink">
    <!-- Generator: Sketch 57.1 (83088) - https://sketch.com -->
    <title>student</title>
    <desc>Created with Sketch.</desc>
    <g id="Provisión-de-servicio-" stroke="none" stroke-width="1" fill="none" fill-rule="evenodd">
        <g id="2-05_UFD_TEN_A_MANO_NU_01.3-" transform="translate(-389.000000, -560.000000)">
            <g id="student" transform="translate(389.000000, 560.000000)">
                <path d="M105.00041,210 C162.832031,210 210,162.832031 210,104.99959 C210,47.1679688 162.832031,0 105.00041,0 C47.1683789,0 0,47.1679688 0,104.99959 C0,162.832031 47.1683789,210 105.00041,210 Z" id="Path" fill="#FFD833"></path>
                <polygon id="Path" fill="#DBAA6B" points="95.2752555 80 99.1390122 80 110.860173 80 114.724337 80 116.299727 96.4775465 119.097887 98.7348848 125 102.511168 104.999593 150 85 102.511168 90.9021133 98.7348848 93.7014944 96.4787744"></polygon>
                <path d="M59.2606625,108.159989 C59.2606625,108.159989 56.4639793,109.613767 54.9886704,113.832059 C46.426214,122.992049 19,152.927905 19,160.527963 C19,169.534254 42.409548,191.226571 42.409548,191.226571 L53.5207504,191.226571 L53.5207504,199 L103.999384,199 L154.478839,199 L154.478839,191.226571 L165.590862,191.226571 C165.590862,191.226571 189,169.534254 189,160.527963 C189,152.925856 161.569681,122.98795 153.010098,113.82919 C151.532737,109.613767 148.738516,108.160399 148.738516,108.160399 L120.189606,99.1254175 L117.767292,106.218886 L103.999384,105.551632 L90.4317967,106.20946 L88.0057879,99 L59.2606625,108.159989 Z M53.5207504,151.478636 L53.5207504,151.478636 L57.083412,165.668033 L56.4533065,180.658299 L53.5207504,177.307273 L43.2900538,162.715802 L53.5207504,151.478636 L53.5207504,151.478636 Z M154.478839,177.308093 L154.478839,177.308093 L151.547925,180.47796 L150.916588,163.064594 L154.478839,151.476997 L164.711178,162.716212 L154.478839,177.308093 Z" id="Shape" fill="#009AA6" fill-rule="nonzero"></path>
                <polygon id="Path" fill="#F1F1F1" points="88.8235354 100 85 101.228838 104.911524 150 125 101.33884 120.918748 100.035986 110.922604 106.260326 98.9381887 106.260326"></polygon>
                <path d="M88.4281088,100 L82.1966981,101.964626 L81,117.579372 C81,117.579372 81.3295973,118.862776 82.3188018,118.747474 L87.9421693,120.835144 C87.9421693,120.835144 88.3101302,121.199386 87.9809454,121.658559 L83.1681646,124.915553 L99.7957099,155.866363 C101.352531,155.955183 102.921315,156 104.499587,156 C106.07951,156 107.647469,155.955183 109.203878,155.866363 L125.831423,124.915553 L121.019055,121.658559 C120.68987,121.199386 121.057418,120.835144 121.057418,120.835144 L126.680373,118.747474 C127.670403,118.862776 128,117.579372 128,117.579372 L126.806189,102.015148 L120.768247,100.124266 L104.498762,147.248816 L88.4281088,100 L88.4281088,100 Z" id="Path" fill="#00838D"></path>
                <path d="M128.9456,50.7785156 C134.220822,49.8012182 131.673879,65.4392107 128.689258,67.589594 C128.452285,67.760292 127.868713,67.3789979 127.376634,67.0655718 C126.341372,72.8178883 117.505789,88.1864659 111.88809,94.6553027 C110.327779,96.4519505 100.787871,96.4215128 99.2428084,94.7239933 C93.4886961,88.4019978 84.6646523,72.850794 83.6240325,67.0655718 C83.1307169,67.3794093 82.5475577,67.760292 82.310997,67.589594 C79.3263758,65.4392107 76.779021,49.8012182 82.0542421,50.7785156 C82.0126173,49.3022865 82.5743459,47.7952083 82.5743459,46.2568698 C82.8665437,34.1138673 93.8905195,28.0514151 105.500127,28 C117.108087,28.0514151 128.133299,34.1138673 128.424672,46.2568698 C128.424672,47.7952083 128.987637,49.3022865 128.9456,50.7785156 Z" id="Path" fill="#E1B071"></path>
                <path d="M119.200119,30.3100739 C120.853185,30.121137 126.827164,31.9202671 127.543698,38.1350411 C128.26146,44.350218 127.917737,50.0759315 127.917737,50.0759315 C127.917737,50.0759315 124.418645,50.9452828 123.977828,54.4722385 C123.537829,58 123.851646,58 123.851646,58 L122.5845,57.7204218 L121.681561,51.6724279 C116.445829,48.4468043 121.720891,43.6681921 116.483929,42.5490736 C102.340896,52.4612091 89.8623991,50.7652086 84.2350105,46.1018118 C84.2350105,46.1018118 85.5488599,50.9791222 84.5357169,52.717422 C83.5229836,54.4569302 84.1276739,57.197119 84.1276739,57.197119 L82.8121858,57.1342744 C82.8121858,57.1342744 83.0502109,49.9522564 80.1299994,49.9836788 C69.0354078,31.9706234 104.160702,9.59429481 119.200119,30.3100739 L119.200119,30.3100739 Z" id="Path" fill="#7A7256"></path>
                <g id="Group" transform="translate(88.000000, 93.000000)" fill="#FFFFFF">
                    <path d="M4.9149375,0.0693846154 C5.328675,0.0994230769 0.0928125,6.1105 0.0928125,6.1105 L4.5494625,21.6471538 L16.499175,12.5704615 C9.9259875,9.28780769 6.003525,5.03546154 4.9149375,0.0693846154 L4.9149375,0.0693846154 Z" id="Path"></path>
                    <path d="M28.0842375,0.0693846154 C27.671325,0.0994230769 32.9055375,6.1105 32.9055375,6.1105 L28.4480625,21.6471538 L16.499175,12.5704615 C23.0723625,9.28780769 26.9952375,5.03546154 28.0842375,0.0693846154 L28.0842375,0.0693846154 Z" id="Path"></path>
                </g>
                <path d="M52,184 C58.6280226,184 64,187.358124 64,191.5 C64,195.641468 58.6280226,199 52,199 C45.3719774,199 40,195.641059 40,191.5 C40,187.358124 45.3719774,184 52,184 Z M52,185.98104 L52,185.98104 C46.8418952,185.98104 42.6618418,188.45407 42.6618418,191.5 C42.6618418,194.547565 46.8418952,197.020595 52,197.020595 C57.1581048,197.020595 61.3389699,194.547565 61.3389699,191.5 C61.338564,188.45407 57.1581048,185.98104 52,185.98104 Z" id="Shape" fill="#ECF0F1" fill-rule="nonzero"></path>
                <path d="M52.4995872,197 C57.7319977,197 62,194.52954 62,191.500407 C62,188.470867 57.7319977,186 52.4995872,186 C47.2671766,186 43,188.470867 43,191.500407 C42.9995872,194.529133 47.2671766,197 52.4995872,197 Z" id="Path" fill="#377BB9"></path>
                <path d="M48.0967097,195.306603 L48.0967097,201.584147 C48.0967097,202.362527 47.4884988,202.999576 46.7422428,202.999576 L44.3544669,202.999576 C43.6094289,202.999576 43,202.362527 43,201.584147 L43,191.869679 C43,191.721133 43.0223308,191.578105 43.0633384,191.443141 L43.0633384,189.304506 C43.0633384,187.486731 44.4860159,186 46.2253853,186 L65.7750207,186 C67.5139841,186 68.9354436,187.486306 68.9354436,189.304506 L68.9354436,191.44017 C68.9780752,191.575559 69,191.71986 69,191.870104 L69,201.584571 C69,202.362951 68.3913831,203 67.6455331,203 L65.2581632,203 C64.5127192,203 63.9036963,202.362951 63.9036963,201.584571 L63.9036963,195.307028 L62.0319659,195.307028 L62.0319659,201.584571 C62.0319659,202.362951 61.423755,203 60.6774989,203 L58.2897231,203 C57.5442791,203 56.9352562,202.362951 56.9352562,201.584571 L56.9352562,195.307028 L55.0643378,195.307028 L55.0643378,201.584571 C55.0643378,202.362951 54.4549089,203 53.7098709,203 L51.322095,203 C50.575839,203 49.9676281,202.362951 49.9676281,201.584571 L49.9676281,195.307028 L48.0967097,195.306603 L48.0967097,195.306603 Z" id="Path" fill="#FBB429"></path>
                <path d="M155.999391,184 C149.372698,184 144,187.358124 144,191.5 C144,195.641468 149.372292,199 155.999391,199 C162.627302,199 168,195.641059 168,191.5 C168,187.358124 162.626896,184 155.999391,184 Z M155.999391,185.98104 L155.999391,185.98104 C161.157409,185.98104 165.338203,188.45407 165.338203,191.5 C165.338203,194.547565 161.157815,197.020595 155.999391,197.020595 C150.841374,197.020595 146.661797,194.547565 146.661797,191.5 C146.661391,188.45407 150.840968,185.98104 155.999391,185.98104 Z" id="Shape" fill="#ECF0F1" fill-rule="nonzero"></path>
                <path d="M155.499587,197 C160.731585,197 165,194.52954 165,191.500407 C165,188.470867 160.731585,186 155.499587,186 C150.267177,186 146,188.470867 146,191.500407 C145.999587,194.529133 150.267177,197 155.499587,197 Z" id="Path" fill="#333333"></path>
                <path d="M159.903696,195.306603 L159.903696,201.584147 C159.903696,202.362527 160.511907,202.999576 161.258163,202.999576 L163.645939,202.999576 C164.391789,202.999576 165,202.362527 165,201.584147 L165,191.869679 C165,191.721133 164.977669,191.578105 164.936662,191.443141 L164.936662,189.304506 C164.936662,187.486731 163.514796,186 161.775427,186 L142.225385,186 C140.486422,186 139.06415,187.486306 139.06415,189.304506 L139.06415,191.44017 C139.021519,191.575559 139,191.71986 139,191.870104 L139,201.584571 C139,202.362951 139.608211,203 140.354061,203 L142.742243,203 C143.486875,203 144.096304,202.362951 144.096304,201.584571 L144.096304,195.307028 L145.967628,195.307028 L145.967628,201.584571 C145.967628,202.362951 146.577057,203 147.322095,203 L149.709871,203 C150.456127,203 151.064338,202.362951 151.064338,201.584571 L151.064338,195.307028 L152.936068,195.307028 L152.936068,201.584571 C152.936068,202.362951 153.544685,203 154.290535,203 L156.678311,203 C157.423349,203 158.03156,202.362951 158.03156,201.584571 L158.03156,195.307028 L159.903696,195.306603 L159.903696,195.306603 Z" id="Path" fill="#FBB429"></path>
                <path d="M50.242923,125 L157.757485,125 C161.191133,125 164,127.812911 164,131.24978 L164,190.748995 C164,194.186273 161.191133,197 157.757485,197 L50.242923,197 C46.8092746,197 44,194.186273 44,190.748995 L44,131.24978 C44,127.812911 46.8092746,125 50.242923,125 Z" id="Path" fill="#FFFFFF"></path>
                <path d="M46.3694989,202 L161.631316,202 C162.934255,202 164,202.916207 164,204.0373 L164,207.963401 C164,209.084844 162.933848,210 161.631316,210 L46.3694989,210 C45.0661522,210 44,209.084844 44,207.963401 L44,204.0373 C44,202.916207 45.0661522,202 46.3694989,202 Z" id="Path" fill="#C8CACC"></path>
                <g id="Group" transform="translate(63.000000, 153.000000)" fill="#ECF0F1">
                    <path d="M0.0110336538,43.707408 L10.2265625,43.707408 L10.2265625,50.66136 L0.0110336538,50.66136 L0.0110336538,43.707408 Z M74.7750721,43.707408 L74.7750721,43.707408 L84.990601,43.707408 L84.990601,50.66136 L74.7750721,50.66136 L74.7750721,43.707408 Z" id="Shape" fill-rule="nonzero"></path>
                    <path d="M31.1663942,0.139128 L53.8327885,0.139128 C54.1372356,0.139128 54.3848798,0.386376 54.3848798,0.690336 L54.3848798,5.813184 C54.3848798,6.116736 54.1372356,6.363576 53.8327885,6.363576 L31.1663942,6.363576 C30.8623558,6.363576 30.6151202,6.116736 30.6151202,5.813184 L30.6151202,0.690336 C30.6155288,0.386376 30.8623558,0.139128 31.1663942,0.139128 Z" id="Path"></path>
                </g>
            </g>
        </g>
    </g>
</svg>