<?xml version="1.0" encoding="UTF-8"?>
<svg width="12px" height="19px" viewBox="0 0 12 19" version="1.1" xmlns="http://www.w3.org/2000/svg" xmlns:xlink="http://www.w3.org/1999/xlink">
    <!-- Generator: Sketch 57.1 (83088) - https://sketch.com -->
    <title>Punto propuesto</title>
    <desc>Created with Sketch.</desc>
    <g id="Provisión-de-servicio-" stroke="none" stroke-width="1" fill="none" fill-rule="evenodd">
        <g id="2-05_UFD_TEN_A_MANO_NU_01.3-" transform="translate(-715.000000, -850.000000)" fill="#004571">
            <path d="M725.152121,858.40837 L720.964463,866.818877 L716.834917,858.395555 C716.100914,856.89855 716.163497,855.140957 717.002399,853.693995 C717.830871,852.265951 719.224671,851.415533 720.827079,851.358778 C720.886682,851.357862 720.945986,851.356642 721.004992,851.356642 C721.064296,851.356642 721.122707,851.357862 721.182309,851.358778 C722.762962,851.414313 724.193418,852.289752 725.006393,853.701624 C725.842017,855.153468 725.89715,856.912891 725.152121,858.40837 M721.226713,850.003662 C721.152508,850.001221 721.079197,850 721.004992,850 C720.930489,850 720.855986,850.001221 720.782676,850.004272 C718.749939,850.074454 716.910612,851.194919 715.863399,853.001943 C714.792644,854.84772 714.713075,857.091702 715.651215,859.003999 L720.367545,868.625901 C720.480194,868.854755 720.709067,868.999695 720.957906,869 L720.959992,869 C721.20913,869 721.436811,868.857196 721.550055,868.629563 L726.332842,859.025053 C727.283797,857.114282 727.214659,854.866944 726.147777,853.012623 C725.102353,851.199191 723.263026,850.074148 721.226713,850.003662 M720.999628,857.544526 C720.2695,857.544526 719.675563,856.936387 719.675563,856.18819 C719.675563,855.440908 720.2695,854.832158 720.999628,854.832158 C721.73065,854.832158 722.324885,855.440908 722.324885,856.18819 C722.324885,856.936387 721.73065,857.544526 720.999628,857.544526 M720.999628,853.475822 C719.539073,853.475822 718.350305,854.69271 718.350305,856.18819 C718.350305,857.683974 719.539073,858.900862 720.999628,858.900862 C722.460183,858.900862 723.649547,857.683974 723.649547,856.18819 C723.649547,854.69271 722.460183,853.475822 720.999628,853.475822" id="Punto-propuesto"></path>
        </g>
    </g>
</svg>