<?xml version="1.0" encoding="UTF-8"?>
<svg width="11px" height="11px" viewBox="0 0 11 11" version="1.1" xmlns="http://www.w3.org/2000/svg" xmlns:xlink="http://www.w3.org/1999/xlink">
    <!-- Generator: Sketch 57.1 (83088) - https://sketch.com -->
    <title>Shape</title>
    <desc>Created with Sketch.</desc>
    <g id="Mi-perfil" stroke="none" stroke-width="1" fill="none" fill-rule="evenodd">
        <g id="01_Mi_perfil-01" transform="translate(-1034.000000, -530.000000)" fill="#FFF" fill-rule="nonzero">
            <path d="M1042.87308,530 C1042.42233,530 1041.99861,530.175483 1041.67988,530.494199 L1034.98929,537.18437 C1034.94355,537.230115 1034.91055,537.287111 1034.8933,537.349355 L1034.01358,540.525305 C1033.97759,540.655793 1034.01433,540.795269 1034.10958,540.890511 C1034.18083,540.961753 1034.27682,541 1034.37507,541 C1034.40807,541 1034.44182,540.9955 1034.47482,540.986501 L1037.65096,540.106842 C1037.71321,540.089594 1037.77021,540.056597 1037.81596,540.010851 L1044.50577,533.321448 C1044.82452,533.002721 1045,532.579018 1045,532.128322 C1045,531.677607 1044.82451,531.253904 1044.50577,530.935195 L1044.06553,530.494982 C1043.74755,530.175505 1043.3238,530 1042.87308,530 L1042.87308,530 Z M1035.80676,537.427956 L1041.28164,531.952644 L1043.04783,533.71872 L1037.57218,539.193264 L1035.80676,537.427956 Z M1035.45353,538.135888 L1036.86424,539.54651 L1034.91282,540.087207 L1035.45353,538.135888 Z M1044.25067,532.127443 C1044.25067,532.377921 1044.15317,532.613386 1043.97617,532.790374 L1043.57869,533.187833 L1041.81251,531.421757 L1042.20999,531.024298 C1042.38698,530.847316 1042.62247,530.749822 1042.87296,530.749822 C1043.12346,530.749822 1043.35894,530.847312 1043.53593,531.024298 L1043.97617,531.464512 C1044.15317,531.641496 1044.25067,531.876965 1044.25067,532.127443 L1044.25067,532.127443 Z" id="Shape"></path>
        </g>
    </g>
</svg>