<?xml version="1.0" encoding="UTF-8"?>
<svg width="13px" height="13px" viewBox="0 0 13 13" version="1.1" xmlns="http://www.w3.org/2000/svg" xmlns:xlink="http://www.w3.org/1999/xlink">
    <!-- Generator: Sketch 57.1 (83088) - https://sketch.com -->
    <title>Fill 1</title>
    <desc>Created with Sketch.</desc>
    <g id="Mi-perfil" stroke="none" stroke-width="1" fill="none" fill-rule="evenodd">
        <g id="01_Mi_perfil-01" transform="translate(-1057.000000, -293.000000)" fill="#6AA1D8">
            <path d="M1062.0738,293 C1061.80004,293 1061.54407,293.106596 1061.35049,293.299609 L1059.48328,295.172048 L1057.54111,295.172048 C1057.24197,295.172048 1057,295.414442 1057,295.713814 C1057,296.01366 1057.24197,296.256054 1057.54111,296.256054 L1058.0827,296.256054 L1058.0827,304.401056 C1058.0827,305.282315 1058.79889,306 1059.67971,306 L1067.31863,306 C1068.19993,306 1068.91659,305.282315 1068.91659,304.401056 L1068.91659,296.256054 L1069.45818,296.256054 C1069.75732,296.256054 1070,296.01366 1070,295.713814 C1070,295.414442 1069.75732,295.172048 1069.45818,295.172048 L1067.51577,295.172048 L1065.6488,293.299609 C1065.45593,293.106596 1065.19854,293 1064.9262,293 L1062.0738,293 Z M1062.09918,294.084481 L1064.90035,294.084481 L1065.98518,295.172048 L1061.01411,295.172048 L1062.09918,294.084481 Z M1059.16588,304.401056 L1059.16588,296.256054 L1059.70818,296.256054 L1059.70841,296.256054 L1067.83318,296.256054 L1067.83318,304.401056 C1067.83318,304.684996 1067.60235,304.915282 1067.31863,304.915282 L1059.67971,304.915282 C1059.39622,304.915282 1059.16588,304.684996 1059.16588,304.401056 L1059.16588,304.401056 Z M1064.5827,297.882063 L1064.5827,303.303042 C1064.5827,303.602414 1064.82538,303.845283 1065.125,303.845283 C1065.42367,303.845283 1065.66682,303.602414 1065.66682,303.303042 L1065.66682,297.882063 C1065.66682,297.582929 1065.42367,297.34006 1065.125,297.34006 C1064.82538,297.34006 1064.5827,297.582929 1064.5827,297.882063 L1064.5827,297.882063 Z M1061.33341,297.882063 L1061.33341,303.303042 C1061.33341,303.602414 1061.57467,303.845283 1061.87476,303.845283 C1062.17391,303.845283 1062.41635,303.602414 1062.41635,303.303042 L1062.41635,297.882063 C1062.41635,297.582929 1062.17391,297.34006 1061.87476,297.34006 C1061.57467,297.34006 1061.33341,297.582929 1061.33341,297.882063 L1061.33341,297.882063 Z" id="Fill-1"></path>
        </g>
    </g>
</svg>