<svg width="40" height="40" viewBox="0 0 40 40" fill="none" xmlns="http://www.w3.org/2000/svg">
<circle cx="20" cy="20" r="20" fill="#E57200"/>
<path fill-rule="evenodd" clip-rule="evenodd" d="M19.9993 6.95703C19.2928 6.95703 18.6814 7.20289 18.1651 7.69461C17.6488 8.18633 17.3906 8.76862 17.3906 9.4415V21.8639C17.3906 22.5367 17.6488 23.119 18.1651 23.6108C18.6814 24.1025 19.2928 24.3483 19.9993 24.3483C20.7058 24.3483 21.3173 24.1025 21.8336 23.6108C22.3499 23.119 22.608 22.5367 22.608 21.8639V9.4415C22.608 8.76862 22.3499 8.18633 21.8336 7.69461C21.3173 7.20289 20.7058 6.95703 19.9993 6.95703Z" fill="white"/>
<path fill-rule="evenodd" clip-rule="evenodd" d="M17.3906 30.3945C17.3906 31.1282 17.6488 31.7532 18.1651 32.2695C18.6814 32.7858 19.2928 33.044 19.9993 33.044C20.7058 33.044 21.3173 32.7858 21.8336 32.2695C22.3499 31.7532 22.608 31.1282 22.608 30.3945C22.608 29.6608 22.3499 29.0494 21.8336 28.5603C21.3173 28.0712 20.7058 27.8266 19.9993 27.8266C19.2928 27.8266 18.6814 28.0712 18.1651 28.5603C17.6488 29.0494 17.3906 29.6608 17.3906 30.3945Z" fill="white"/>
</svg>
