<svg width="40" height="40" viewBox="0 0 40 40" fill="none" xmlns="http://www.w3.org/2000/svg">
<path d="M20 0C8.96 0 0 8.96 0 20C0 31.04 8.96 40 20 40C31.04 40 40 31.04 40 20C40 8.96 31.04 0 20 0Z" fill="#004571"/>
<path d="M31.6227 21.4087V22.6817C31.6227 23.9339 30.6001 24.9565 29.3479 24.9565H11.2123C9.96011 24.9565 8.9375 23.9339 8.9375 22.6817V21.4087C8.9375 20.9809 9.28185 20.6365 9.70967 20.6365C10.1375 20.6365 10.4818 20.9809 10.4818 21.4087L10.4766 22.6817C10.4766 23.0835 10.8053 23.4122 11.2071 23.4122H29.3479C29.7497 23.4122 30.0784 23.0835 30.0784 22.6817L30.0732 21.4087C30.0732 20.9809 30.4227 20.6365 30.8453 20.6365C31.2784 20.6365 31.6227 20.9809 31.6227 21.4087Z" fill="white"/>
<path d="M27.367 19.9041C27.5085 19.7632 27.5885 19.5719 27.5893 19.3722C27.5889 19.2731 27.5689 19.1749 27.5306 19.0835C27.4922 18.992 27.4362 18.909 27.3658 18.8392C27.2954 18.7694 27.2118 18.7141 27.1201 18.6765C27.0283 18.639 26.93 18.6199 26.8308 18.6203H13.759C13.5595 18.6203 13.3683 18.6995 13.2273 18.8406C13.0863 18.9816 13.0071 19.1728 13.0071 19.3722C13.0071 19.5716 13.0863 19.7629 13.2273 19.9039C13.3683 20.0449 13.5595 20.1241 13.759 20.1241H26.8341C27.0338 20.1241 27.2254 20.045 27.367 19.9041Z" fill="white"/>
<path d="M27.367 15.4693C27.5085 15.3284 27.5885 15.1372 27.5893 14.9374C27.5889 14.8383 27.5689 14.7402 27.5306 14.6487C27.4922 14.5572 27.4362 14.4742 27.3658 14.4044C27.2954 14.3346 27.2118 14.2793 27.1201 14.2418C27.0283 14.2042 26.93 14.1851 26.8308 14.1856H13.759C13.5595 14.1856 13.3683 14.2648 13.2273 14.4058C13.0863 14.5468 13.0071 14.738 13.0071 14.9374C13.0071 15.1369 13.0863 15.3281 13.2273 15.4691C13.3683 15.6101 13.5595 15.6893 13.759 15.6893H26.8341C27.0338 15.6893 27.2254 15.6102 27.367 15.4693Z" fill="white"/>
<path d="M31.6227 21.4087V22.6817C31.6227 23.9339 30.6001 24.9565 29.3479 24.9565H11.2123C9.96011 24.9565 8.9375 23.9339 8.9375 22.6817V21.4087C8.9375 20.9809 9.28185 20.6365 9.70967 20.6365C10.1375 20.6365 10.4818 20.9809 10.4818 21.4087L10.4766 22.6817C10.4766 23.0835 10.8053 23.4122 11.2071 23.4122H29.3479C29.7497 23.4122 30.0784 23.0835 30.0784 22.6817L30.0732 21.4087C30.0732 20.9809 30.4227 20.6365 30.8453 20.6365C31.2784 20.6365 31.6227 20.9809 31.6227 21.4087Z" stroke="white" stroke-width="0.7"/>
<path d="M27.367 19.9041C27.5085 19.7632 27.5885 19.5719 27.5893 19.3722C27.5889 19.2731 27.5689 19.1749 27.5306 19.0835C27.4922 18.992 27.4362 18.909 27.3658 18.8392C27.2954 18.7694 27.2118 18.7141 27.1201 18.6765C27.0283 18.639 26.93 18.6199 26.8308 18.6203H13.759C13.5595 18.6203 13.3683 18.6995 13.2273 18.8406C13.0863 18.9816 13.0071 19.1728 13.0071 19.3722C13.0071 19.5716 13.0863 19.7629 13.2273 19.9039C13.3683 20.0449 13.5595 20.1241 13.759 20.1241H26.8341C27.0338 20.1241 27.2254 20.045 27.367 19.9041Z" stroke="white" stroke-width="0.7"/>
<path d="M27.367 15.4693C27.5085 15.3284 27.5885 15.1372 27.5893 14.9374C27.5889 14.8383 27.5689 14.7402 27.5306 14.6487C27.4922 14.5572 27.4362 14.4742 27.3658 14.4044C27.2954 14.3346 27.2118 14.2793 27.1201 14.2418C27.0283 14.2042 26.93 14.1851 26.8308 14.1856H13.759C13.5595 14.1856 13.3683 14.2648 13.2273 14.4058C13.0863 14.5468 13.0071 14.738 13.0071 14.9374C13.0071 15.1369 13.0863 15.3281 13.2273 15.4691C13.3683 15.6101 13.5595 15.6893 13.759 15.6893H26.8341C27.0338 15.6893 27.2254 15.6102 27.367 15.4693Z" stroke="white" stroke-width="0.7"/>
</svg>
