<svg width="40" height="40" viewBox="0 0 40 40" fill="none" xmlns="http://www.w3.org/2000/svg">
<path d="M20 0C8.96 0 0 8.96 0 20C0 31.04 8.96 40 20 40C31.04 40 40 31.04 40 20C40 8.96 31.04 0 20 0Z" fill="#A2AD00"/>
<mask id="mask0_10509_15860" style="mask-type:luminance" maskUnits="userSpaceOnUse" x="6" y="8" width="27" height="24">
<path fill-rule="evenodd" clip-rule="evenodd" d="M6.95312 8.69531H32.4694V31.7048H6.95312V8.69531Z" fill="white"/>
</mask>
<g mask="url(#mask0_10509_15860)">
<path fill-rule="evenodd" clip-rule="evenodd" d="M28.8501 12.4295C28.6291 12.2981 28.3933 12.2176 28.1551 12.188C27.4749 12.1017 26.7782 12.4123 26.4019 13.0375L17.2352 25.7541L13.8472 19.8464C13.452 18.9452 12.398 18.5369 11.4943 18.9312C10.5922 19.3288 10.1847 20.3845 10.5815 21.2841L14.1487 27.6058C14.1577 27.6264 14.1684 27.6453 14.1766 27.665C14.6761 28.696 15.6603 29.396 16.7842 29.5373C16.8655 29.548 16.946 29.5562 17.0273 29.5603C18.2506 29.626 19.4139 29.0189 20.0621 27.9788C20.0679 27.9698 20.0728 27.9607 20.0769 27.9575L29.4605 14.8802C29.9674 14.034 29.6947 12.9372 28.8501 12.4295" fill="white"/>
</g>
</svg>
