<svg width="40" height="40" viewBox="0 0 40 40" fill="none" xmlns="http://www.w3.org/2000/svg">
<path d="M20 0C8.96 0 0 8.96 0 20C0 31.04 8.96 40 20 40C31.04 40 40 31.04 40 20C40 8.96 31.04 0 20 0Z" fill="#E57200"/>
<path d="M25.0047 29.1689C24.7271 28.4405 23.9121 28.0746 23.1845 28.3514C21.0661 29.1583 18.72 29.1297 16.6211 28.2722C14.5224 27.4148 12.8278 25.7921 11.8806 23.7326C10.9334 21.6731 10.8036 19.3303 11.519 17.1791L11.8326 17.9957C12.1118 18.7225 12.9277 19.0859 13.6553 18.8074C14.3829 18.5273 14.7463 17.7115 14.4678 16.9839L13.0102 13.1891C12.8763 12.8396 12.6093 12.5578 12.2671 12.4052C11.9258 12.2533 11.537 12.2435 11.1875 12.3774L7.39193 13.8342C6.66432 14.1126 6.30172 14.9293 6.5802 15.6569C6.86032 16.3845 7.67612 16.7479 8.40293 16.4686L8.83575 16.302L8.83656 16.3028C8.15223 18.3722 8.05504 20.591 8.55893 22.7117C9.06115 24.8325 10.1448 26.772 11.6858 28.313C11.734 28.3612 11.783 28.4085 11.8328 28.4567L11.832 28.4575C13.4383 30.0083 15.4537 31.0715 17.6416 31.52C19.8293 31.9683 22.1003 31.7846 24.1878 30.9892C24.917 30.7123 25.2829 29.8973 25.0052 29.1689L25.0047 29.1689Z" fill="white"/>
<path d="M33.4199 24.3399C33.1406 23.6131 32.3239 23.2488 31.5971 23.5281L31.1643 23.6947L31.1635 23.6939C32.0969 20.8757 31.9287 17.8085 30.694 15.1088C29.4592 12.409 27.2485 10.2751 24.5072 9.13757C21.7658 7.99838 18.6935 7.93946 15.9097 8.97095C15.5585 9.09997 15.2727 9.36456 15.1168 9.7051C14.96 10.0448 14.9453 10.4335 15.0743 10.7847C15.2049 11.1358 15.4696 11.4217 15.8101 11.5776C16.1506 11.7336 16.5385 11.7475 16.8897 11.6185C19.0064 10.8329 21.3419 10.8786 23.4277 11.7443C25.5126 12.6108 27.1924 14.235 28.1307 16.2888C29.0673 18.3426 29.1931 20.6749 28.4819 22.8185L28.1683 22.0019C27.8858 21.2784 27.0724 20.9191 26.3472 21.1967C25.6229 21.4752 25.2587 22.2869 25.533 23.0137L26.9857 26.7971L26.9882 26.8044C27.1213 27.1548 27.3892 27.4373 27.7313 27.59C28.0743 27.7436 28.4622 27.7542 28.8125 27.6194L32.6081 26.1627C33.3357 25.8842 33.6983 25.0676 33.4198 24.3399L33.4199 24.3399Z" fill="white"/>
</svg>
