<svg width="40" height="40" viewBox="0 0 40 40" fill="none" xmlns="http://www.w3.org/2000/svg">
<path d="M20 0C8.96 0 0 8.96 0 20C0 31.04 8.96 40 20 40C31.04 40 40 31.04 40 20C40 8.96 31.04 0 20 0Z" fill="#D3222A"/>
<path fill-rule="evenodd" clip-rule="evenodd" d="M28.2431 30.4536L19.9995 22.2101L11.7574 30.4521C11.1475 31.0621 10.1573 31.0626 9.54736 30.4526C8.93644 29.8417 8.93693 28.8515 9.54687 28.2416L17.789 19.9995L9.54687 11.7574C8.93693 11.1475 8.93644 10.1573 9.54687 9.54688C10.1573 8.93644 11.1475 8.93694 11.7574 9.54688L19.9995 17.789L28.2431 9.5454C28.8525 8.93595 29.8422 8.93595 30.4531 9.54688C31.0631 10.1568 31.0631 11.1465 30.4536 11.7559L22.2101 19.9995L30.4536 28.2431C31.0631 28.8525 31.0631 29.8422 30.4526 30.4526C29.8422 31.0631 28.8525 31.0631 28.2431 30.4536" fill="white"/>
</svg>
