<?xml version="1.0" encoding="UTF-8"?>
<svg width="14px" height="19px" viewBox="0 0 14 19" version="1.1" xmlns="http://www.w3.org/2000/svg" xmlns:xlink="http://www.w3.org/1999/xlink">
    <!-- Generator: Sketch 57.1 (83088) - https://sketch.com -->
    <title>Fill 7</title>
    <desc>Created with Sketch.</desc>
    <g id="Mi-consumo" stroke="none" stroke-width="1" fill="none" fill-rule="evenodd">
        <g id="1-03_Consumo_Por-meses_gráfica" transform="translate(-708.000000, -589.000000)" fill="#1674D1">
            <path d="M720.394595,603.450195 L717.895946,603.450195 C717.551351,603.450195 717.272162,603.713074 717.272162,604.038048 L717.272162,606.389459 L709.840541,606.389459 C709.513784,606.389459 709.247838,606.139049 709.247838,605.83189 L709.247838,590.807284 C709.247838,590.499615 709.513784,590.249459 709.840541,590.249459 L719.801622,590.249459 C720.128649,590.249459 720.394595,590.499615 720.394595,590.807284 L720.394595,603.450195 Z M718.52027,606.015135 L718.52027,604.517838 L719.719189,604.517838 L718.52027,606.015135 Z M719.801622,589 L709.840541,589 C708.825135,589 708,589.784661 708,590.748109 L708,605.892404 C708,606.855595 708.825135,607.64 709.840541,607.64 L718.52027,607.64 C718.710811,607.64 718.889459,607.557917 719.008108,607.41735 L721.505676,604.454158 C721.594054,604.349502 721.642973,604.219452 721.642973,604.084271 L721.642973,590.748109 C721.642973,589.784661 720.816757,589 719.801622,589 L719.801622,589 Z M717.232108,600.150351 L712.409946,600.150351 C712.077514,600.150351 711.808865,600.41927 711.808865,600.752243 C711.808865,601.084676 712.077514,601.353595 712.409946,601.353595 L717.232108,601.353595 C717.56373,601.353595 717.834,601.084676 717.834,600.752243 C717.834,600.41927 717.56373,600.150351 717.232108,600.150351 M717.232108,597.743 L712.409946,597.743 C712.077514,597.743 711.808865,598.013 711.808865,598.344351 C711.808865,598.676784 712.077514,598.946784 712.409946,598.946784 L717.232108,598.946784 C717.56373,598.946784 717.834,598.676784 717.834,598.344351 C717.834,598.013 717.56373,597.743 717.232108,597.743 M713.577135,596.833865 L714.723081,595.210892 L715.877676,596.833865 L716.878486,596.833865 L715.286865,594.761703 L716.878486,592.783865 L715.980108,592.783865 L714.853622,594.308459 L713.769838,592.783865 L712.777405,592.783865 L714.293892,594.710351 L712.690378,596.833865 L713.577135,596.833865 Z" id="Fill-7"></path>
        </g>
    </g>
</svg>