<?xml version="1.0" encoding="UTF-8"?>
<svg width="15px" height="20px" viewBox="0 0 15 20" version="1.1" xmlns="http://www.w3.org/2000/svg" xmlns:xlink="http://www.w3.org/1999/xlink">
    <title>Fill 7</title>
    <g id="Cambio-potencia" stroke="none" stroke-width="1" fill="none" fill-rule="evenodd">
        <g id="NU-01.16-01_Cambio-potencia-desktop" transform="translate(-366.000000, -790.000000)" fill="#FFFFFF">
            <g id="Group-13" transform="translate(0.000000, 777.000000)">
                <g id="Group-10" transform="translate(141.000000, 0.000000)">
                    <path d="M238.298921,28.5045006 L235.617968,28.5045006 C235.248231,28.5045006 234.948672,28.7865603 234.948672,29.1352441 L234.948672,31.6582183 L226.974829,31.6582183 C226.624232,31.6582183 226.338882,31.3895379 226.338882,31.0599676 L226.338882,14.9391455 C226.338882,14.6090291 226.624232,14.3406217 226.974829,14.3406217 L237.662684,14.3406217 C238.013572,14.3406217 238.298921,14.6090291 238.298921,14.9391455 L238.298921,28.5045006 Z M236.287844,31.2565828 L236.287844,29.6500406 L237.574237,29.6500406 L236.287844,31.2565828 Z M237.662684,13 L226.974829,13 C225.885338,13 225,13.8419112 225,14.8756537 L225,31.1248968 C225,32.1583641 225.885338,33 226.974829,33 L236.287844,33 C236.492286,33 236.683969,32.9119282 236.811275,32.7611053 L239.491068,29.5817141 C239.585895,29.4694226 239.638383,29.3298839 239.638383,29.1848406 L239.638383,14.8756537 C239.638383,13.8419112 238.751885,13 237.662684,13 L237.662684,13 Z M234.905695,24.9638963 L229.731702,24.9638963 C229.375014,24.9638963 229.086765,25.2524359 229.086765,25.6097031 C229.086765,25.9663902 229.375014,26.2549298 229.731702,26.2549298 L234.905695,26.2549298 C235.261513,26.2549298 235.551502,25.9663902 235.551502,25.6097031 C235.551502,25.2524359 235.261513,24.9638963 234.905695,24.9638963 M234.905695,22.3809013 L229.731702,22.3809013 C229.375014,22.3809013 229.086765,22.6706009 229.086765,23.0261281 C229.086765,23.3828152 229.375014,23.6725148 229.731702,23.6725148 L234.905695,23.6725148 C235.261513,23.6725148 235.551502,23.3828152 235.551502,23.0261281 C235.551502,22.6706009 235.261513,22.3809013 234.905695,22.3809013 M230.984051,21.4054344 L232.213606,19.6640471 L233.452442,21.4054344 L234.526273,21.4054344 L232.818525,19.1820844 L234.526273,17.0599408 L233.562348,17.0599408 L232.353671,18.695772 L231.190813,17.0599408 L230.125971,17.0599408 L231.753103,19.1269864 L230.032595,21.4054344 L230.984051,21.4054344 Z" id="Fill-7"></path>
                </g>
            </g>
        </g>
    </g>
</svg>