<svg width="20" height="20" viewBox="0 0 20 20" fill="none" xmlns="http://www.w3.org/2000/svg">
<path fill-rule="evenodd" clip-rule="evenodd" d="M3.57398 0H2.14439V8.33333H3.57398V0ZM12.2945 8.33333H7.7198L7.14796 7.41667V5.75L7.7198 5H12.2945L12.8663 5.83333V7.5L12.2945 8.33333V8.33333ZM5.14653 13.3333H0.571837L0 12.5V10.8333L0.571837 10H5.14653L5.71837 10.8333V12.5L5.14653 13.3333ZM10.7219 0H9.29235V3.33333H10.7219V0ZM9.29235 10H10.7219V20H9.29235V10ZM3.57398 15H2.14439V20H3.57398V15ZM14.8678 15H19.4282L20 14.1667V12.5833L19.4282 11.75H14.8678L14.2959 12.5833V14.1667L14.8678 15ZM17.8699 0H16.4403V10H17.8699V0ZM16.4403 16.6667H17.8699V20H16.4403V16.6667Z" fill="#004571"/>
</svg>
