<?xml version="1.0" encoding="UTF-8"?>
<svg width="15px" height="10px" viewBox="0 0 15 10" version="1.1" xmlns="http://www.w3.org/2000/svg" xmlns:xlink="http://www.w3.org/1999/xlink">
    <!-- Generator: Sketch 57.1 (83088) - https://sketch.com -->
    <title>Fill 1</title>
    <desc>Created with Sketch.</desc>
    <g id="Symbols" stroke="none" stroke-width="1" fill="#155279" fill-rule="evenodd">
        <path d="M11.1543338,5.40870972 C11.1497751,5.41369579 11.1472109,5.41951287 11.1420823,5.42422194 C11.139803,5.42671497 11.1369538,5.42809999 11.1343895,5.43114704 C11.125842,5.43918015 11.1198587,5.44859828 11.1110262,5.4566314 L4.07810259,11.8327075 C3.81939677,12.0676069 3.41367309,12.0532027 3.17206236,11.8016831 C2.93073655,11.5498865 2.94498246,11.155987 3.20397321,10.9210876 L9.73487079,5.00012894 L3.20340337,-0.921106765 C2.94498246,-1.15545208 2.93130638,-1.55018266 3.17206236,-1.80170221 C3.41367309,-2.05377578 3.81939677,-2.06707197 4.07810259,-1.83272665 L11.1110262,4.54362649 C11.1192889,4.5511056 11.1252722,4.56024673 11.1332499,4.56827984 C11.1360991,4.57132688 11.139803,4.57298891 11.1426522,4.57603595 C11.1477807,4.58157603 11.1509148,4.58794712 11.1560433,4.5937642 C11.1771273,4.61703253 11.1959319,4.64057786 11.2127421,4.66606222 C11.219865,4.67658837 11.2255634,4.68766853 11.2315467,4.69819468 C11.2455077,4.72257102 11.258329,4.74694736 11.2683012,4.77243173 C11.2739995,4.78655892 11.2785582,4.80040912 11.282832,4.81481332 C11.2905248,4.83808165 11.2973628,4.86107298 11.3019215,4.88517232 C11.3050556,4.90234656 11.3067651,4.91979781 11.3090445,4.93724906 C11.310754,4.95830135 11.3130333,4.97907665 11.3130333,5.00012894 C11.3130333,5.02118124 11.3113238,5.04167953 11.3090445,5.06217782 C11.3067651,5.08018308 11.3050556,5.09763432 11.3019215,5.11508557 C11.2973628,5.13918491 11.2905248,5.16245324 11.282832,5.18599857 C11.2785582,5.19984877 11.2745694,5.21342196 11.268871,5.22699515 C11.258329,5.25331052 11.2449379,5.27851788 11.2306919,5.30344823 C11.2249936,5.31314337 11.219865,5.32311551 11.2133119,5.33308765 C11.1959319,5.35968003 11.1759876,5.38433338 11.1543338,5.40870972 Z" id="Fill-1" fill="#004571" transform="translate(7.156517, 5.000000) rotate(-90.000000) translate(-7.156517, -5.000000) "></path>
    </g>
</svg>