<?xml version="1.0" encoding="UTF-8"?>
<svg width="12px" height="20px" viewBox="0 0 12 20" version="1.1" xmlns="http://www.w3.org/2000/svg" xmlns:xlink="http://www.w3.org/1999/xlink">
    <!-- Generator: Sketch 57.1 (83088) - https://sketch.com -->
    <title>Fill 1</title>
    <desc>Created with Sketch.</desc>
    <g id="Mi-consumo" stroke="none" stroke-width="1" fill="none" fill-rule="evenodd">
        <g id="1-13_Consumo_Exportar-a-Excel_Todos_calendar" transform="translate(-1002.000000, -440.000000)" fill="#1674D1">
            <g id="Group-5" transform="translate(554.000000, 413.000000)">
                <path d="M459.856051,37.4758395 C459.830962,37.5138286 459.802172,37.5490477 459.770915,37.583871 C459.764334,37.590994 459.760633,37.5993041 459.753229,37.6060313 C459.749939,37.6095928 459.745826,37.6115714 459.742125,37.6159243 C459.729786,37.6274002 459.721149,37.6408547 459.708399,37.6523306 L449.556259,46.7610108 C449.182813,47.0965812 448.597144,47.0760038 448.248375,46.7166901 C447.900017,46.3569808 447.920581,45.7942671 448.294439,45.4586966 L457.721896,37.0001842 L448.293616,28.5412761 C447.920581,28.206497 447.90084,27.6425962 448.248375,27.2832826 C448.597144,26.9231775 449.182813,26.9041829 449.556259,27.2389619 L459.708399,36.3480378 C459.720327,36.3587223 459.728964,36.371781 459.74048,36.3832569 C459.744592,36.3876098 459.749939,36.3899842 459.754052,36.3943371 C459.761455,36.4022515 459.765979,36.411353 459.773382,36.4196631 C459.803817,36.4529036 459.830962,36.4865398 459.855228,36.522946 C459.86551,36.5379834 459.873736,36.5538122 459.882373,36.5688495 C459.902526,36.6036729 459.921033,36.6384962 459.935428,36.6749025 C459.943654,36.6950842 459.950235,36.7148702 459.956404,36.7354476 C459.967509,36.7686881 459.977379,36.8015328 459.98396,36.8359605 C459.988484,36.8604951 459.990952,36.8854254 459.994242,36.9103558 C459.99671,36.9404305 460,36.9701095 460,37.0001842 C460,37.0302589 459.997532,37.0595422 459.994242,37.0888255 C459.990952,37.1145473 459.988484,37.1394776 459.98396,37.164408 C459.977379,37.1988356 459.967509,37.2320761 459.956404,37.2657122 C459.950235,37.2854982 459.944477,37.3048885 459.936251,37.3242788 C459.921033,37.3618722 459.901703,37.3978827 459.881139,37.4334975 C459.872913,37.4473477 459.86551,37.4615936 459.856051,37.4758395" id="Fill-1" transform="translate(454.000000, 37.000000) scale(1, -1) rotate(-360.000000) translate(-454.000000, -37.000000) "></path>
            </g>
        </g>
    </g>
</svg>