<?xml version="1.0" encoding="UTF-8"?>
<svg width="9px" height="6px" viewBox="0 0 9 6" version="1.1" xmlns="http://www.w3.org/2000/svg" xmlns:xlink="http://www.w3.org/1999/xlink">
    <!-- Generator: Sketch 57.1 (83088) - https://sketch.com -->
    <title>Fill 1</title>
    <desc>Created with Sketch.</desc>
    <g id="Symbols" stroke="none" stroke-width="1" fill="none" fill-rule="evenodd">
        <g id="tabla-/-listado-mensajes" transform="translate(-872.000000, -23.000000)" fill="#000000">
            <g id="Group-2" transform="translate(846.000000, 17.000000)">
                <g id="Group" transform="translate(30.500000, 9.000000) rotate(-270.000000) translate(-30.500000, -9.000000) translate(28.000000, 5.000000)">
                    <path d="M4.6933211,4.1903358 C4.68338966,4.20553144 4.67199293,4.21961907 4.65961933,4.23354841 C4.65701436,4.23639759 4.65554907,4.23972164 4.65261848,4.24241254 C4.651316,4.24383713 4.64968789,4.24462857 4.6482226,4.24636974 C4.64333829,4.25096009 4.63991927,4.25634188 4.63487214,4.26093223 L0.616058625,7.90440431 C0.468226723,8.03863249 0.236384621,8.03040152 0.098321347,7.88667606 C-0.0395791168,7.74279231 -0.0314385935,7.51770684 0.116556119,7.38347866 L3.8484976,4.00007368 L0.116230498,0.61651042 C-0.0314385935,0.482598813 -0.0392534958,0.257038481 0.098321347,0.113313021 C0.236384621,-0.0307290156 0.468226723,-0.0383268373 0.616058625,0.0955847701 L4.63487214,3.73921514 C4.63959365,3.74348891 4.64301266,3.74871241 4.64757136,3.75330277 C4.64919946,3.75504393 4.651316,3.75599366 4.6529441,3.75773483 C4.65587469,3.76090059 4.65766561,3.76454121 4.6605962,3.76786526 C4.67264417,3.78116144 4.68338966,3.79461592 4.69299548,3.80917841 C4.69706574,3.81519335 4.70032195,3.82152487 4.70374097,3.82753981 C4.71171868,3.84146915 4.71904515,3.85539849 4.72474352,3.86996099 C4.72799973,3.87803367 4.73060469,3.88594807 4.73304685,3.89417904 C4.73744273,3.90747523 4.74135019,3.92061313 4.74395515,3.93438418 C4.74574607,3.94419804 4.74672293,3.95417018 4.74802541,3.96414232 C4.74900228,3.9761722 4.75030476,3.9880438 4.75030476,4.00007368 C4.75030476,4.01210357 4.7493279,4.02381688 4.74802541,4.03553018 C4.74672293,4.0458189 4.74574607,4.05579104 4.74395515,4.06576318 C4.74135019,4.07953423 4.73744273,4.09283042 4.73304685,4.1062849 C4.73060469,4.1141993 4.72832535,4.12195541 4.72506914,4.12971151 C4.71904515,4.14474887 4.71139306,4.15915307 4.70325254,4.17339899 C4.69999633,4.17893907 4.69706574,4.18463743 4.6933211,4.1903358" id="Fill-1" transform="translate(2.375152, 4.000000) scale(1, -1) rotate(-360.000000) translate(-2.375152, -4.000000) "></path>
                </g>
            </g>
        </g>
    </g>
</svg>