<?xml version="1.0" encoding="UTF-8"?>
<svg width="6px" height="10px" viewBox="0 0 6 10" version="1.1" xmlns="http://www.w3.org/2000/svg" xmlns:xlink="http://www.w3.org/1999/xlink">
    <!-- Generator: Sketch 57.1 (83088) - https://sketch.com -->
    <title>Fill 1</title>
    <desc>Created with Sketch.</desc>
    <g id="Symbols" stroke="none" stroke-width="1" fill="none" fill-rule="evenodd">
        <g id="Header-/-privada-logueadaCOMOGESTOR" transform="translate(-1048.000000, -162.000000)" fill="#0E80D4" stroke="#0E80D4" stroke-width="0.3">
            <g id="Group-5" transform="translate(941.000000, 101.000000)">
                <g id="Group" transform="translate(15.000000, 57.000000)">
                    <path d="M97.6933211,9.1903358 C97.6833897,9.20553144 97.6719929,9.21961907 97.6596193,9.23354841 C97.6570144,9.23639759 97.6555491,9.23972164 97.6526185,9.24241254 C97.651316,9.24383713 97.6496879,9.24462857 97.6482226,9.24636974 C97.6433383,9.25096009 97.6399193,9.25634188 97.6348721,9.26093223 L93.6160586,12.9044043 C93.4682267,13.0386325 93.2363846,13.0304015 93.0983213,12.8866761 C92.9604209,12.7427923 92.9685614,12.5177068 93.1165561,12.3834787 L96.8484976,9.00007368 L93.1162305,5.61651042 C92.9685614,5.48259881 92.9607465,5.25703848 93.0983213,5.11331302 C93.2363846,4.96927098 93.4682267,4.96167316 93.6160586,5.09558477 L97.6348721,8.73921514 C97.6395936,8.74348891 97.6430127,8.74871241 97.6475714,8.75330277 C97.6491995,8.75504393 97.651316,8.75599366 97.6529441,8.75773483 C97.6558747,8.76090059 97.6576656,8.76454121 97.6605962,8.76786526 C97.6726442,8.78116144 97.6833897,8.79461592 97.6929955,8.80917841 C97.6970657,8.81519335 97.7003219,8.82152487 97.703741,8.82753981 C97.7117187,8.84146915 97.7190452,8.85539849 97.7247435,8.86996099 C97.7279997,8.87803367 97.7306047,8.88594807 97.7330469,8.89417904 C97.7374427,8.90747523 97.7413502,8.92061313 97.7439552,8.93438418 C97.7457461,8.94419804 97.7467229,8.95417018 97.7480254,8.96414232 C97.7490023,8.9761722 97.7503048,8.9880438 97.7503048,9.00007368 C97.7503048,9.01210357 97.7493279,9.02381688 97.7480254,9.03553018 C97.7467229,9.0458189 97.7457461,9.05579104 97.7439552,9.06576318 C97.7413502,9.07953423 97.7374427,9.09283042 97.7330469,9.1062849 C97.7306047,9.1141993 97.7283253,9.12195541 97.7250691,9.12971151 C97.7190452,9.14474887 97.7113931,9.15915307 97.7032525,9.17339899 C97.6999963,9.17893907 97.6970657,9.18463743 97.6933211,9.1903358" id="Fill-1" transform="translate(95.375152, 9.000000) scale(1, -1) rotate(-360.000000) translate(-95.375152, -9.000000) "></path>
                </g>
            </g>
        </g>
    </g>
</svg>