<?xml version="1.0" encoding="UTF-8"?>
<svg width="83px" height="91px" viewBox="0 0 83 91" version="1.1" xmlns="http://www.w3.org/2000/svg" xmlns:xlink="http://www.w3.org/1999/xlink">
    <!-- Generator: Sketch 57.1 (83088) - https://sketch.com -->
    <title>Group 2</title>
    <desc>Created with Sketch.</desc>
    <defs>
        <polygon id="path-1" points="9.52709621e-05 -0.0001 71.7202419 -0.0001 71.7202419 58.7148 9.52709621e-05 58.7148"></polygon>
        <polygon id="path-3" points="0.000122151748 -0.0002 27.6533143 -0.0002 27.6533143 31.7883 0.000122151748 31.7883"></polygon>
    </defs>
    <g id="Provisión-de-servicio-" stroke="none" stroke-width="1" fill="none" fill-rule="evenodd">
        <g id="1-06_UFD_PROVISION_SERVICIO_NU_01.2-" transform="translate(-1044.000000, -277.000000)">
            <g id="Group-2" transform="translate(1044.000000, 277.000000)">
                <g id="Group-3" transform="translate(0.000000, 32.000000)">
                    <mask id="mask-2" fill="white">
                        <use xlink:href="#path-1"></use>
                    </mask>
                    <g id="Clip-2"></g>
                    <path d="M55.9785,37.9698 L52.8025,25.1838 L61.8435,25.1838 L66.4965,37.9698 L55.9785,37.9698 Z M38.1095,37.9698 L38.1095,25.1838 L48.1665,25.1838 L51.3415,37.9698 L50.1425,37.9698 L38.1095,37.9698 Z M20.4065,37.9698 L23.5825,25.1838 L33.6095,25.1838 L33.6095,37.9698 L20.4065,37.9698 Z M9.8145,25.1838 L9.8145,25.1838 L18.9455,25.1838 L15.7695,37.9698 L5.1605,37.9698 L9.8145,25.1838 Z M17.2285,4.8108 L24.0055,4.8108 L20.0625,20.6838 L11.4515,20.6838 L17.2285,4.8108 Z M33.6095,4.8108 L33.6095,20.6838 L24.6995,20.6838 L28.6425,4.8108 L29.1605,4.8108 L33.6095,4.8108 Z M38.1095,4.8108 L43.0315,4.8108 L43.1035,4.8108 L47.0465,20.6838 L38.1095,20.6838 L38.1095,19.7658 L38.1095,4.8108 Z M60.2055,20.6838 L51.6835,20.6838 L47.7405,4.8108 L54.4275,4.8108 L60.2055,20.6838 Z M71.3555,38.1608 L58.1795,1.9608 C58.1715,1.9408 58.1605,1.9248 58.1525,1.9058 L58.0645,1.6658 C57.4175,0.0708 55.7035,-0.0002 55.7035,-0.0002 L15.9025,-0.0002 C15.9025,-0.0002 14.0155,-0.0002 13.5505,1.6658 L0.3435,37.9668 C0.3435,37.9668 0.1935,38.3188 0.0895,38.8308 C0.0765,38.9028 0.0605,38.9738 0.0525,39.0468 C-0.1265,40.2068 0.0375,41.9618 2.4215,42.5318 L33.6095,42.5318 L33.6095,50.4918 L33.6095,54.2128 L22.2695,54.2128 C21.0275,54.2128 20.0195,55.2208 20.0195,56.4628 C20.0195,57.7068 21.0275,58.7148 22.2695,58.7148 L49.4495,58.7148 C50.6915,58.7148 51.6995,57.7068 51.6995,56.4628 C51.6995,55.2208 50.6915,54.2128 49.4495,54.2128 L38.1095,54.2128 L38.1115,42.5318 L69.1935,42.5318 C72.6245,41.9618 71.6735,38.9588 71.3555,38.1608 L71.3555,38.1608 Z" id="Fill-1" fill="#004571" mask="url(#mask-2)"></path>
                </g>
                <g id="Group-3" transform="translate(55.000000, 0.000000)">
                    <mask id="mask-4" fill="white">
                        <use xlink:href="#path-3"></use>
                    </mask>
                    <g id="Clip-2"></g>
                    <path d="M12.6907,1.1353 L12.6907,5.6763 C12.6907,6.3038 13.1997,6.8123 13.8272,6.8123 C14.4532,6.8123 14.9612,6.3038 14.9612,5.6763 L14.9612,1.1353 C14.9612,0.5093 14.4532,-0.0002 13.8272,-0.0002 C13.1997,-0.0002 12.6907,0.5093 12.6907,1.1353 L12.6907,1.1353 Z M6.9397,4.1388 C6.3987,4.4573 6.2182,5.1533 6.5337,5.6928 L7.6817,7.6528 C7.8937,8.0138 8.2727,8.2153 8.6632,8.2153 C8.8577,8.2153 9.0552,8.1648 9.2357,8.0578 C9.7757,7.7423 9.9582,7.0458 9.6407,6.5043 L8.4932,4.5453 C8.2817,4.1858 7.9017,3.9838 7.5122,3.9838 C7.3167,3.9838 7.1202,4.0348 6.9397,4.1388 L6.9397,4.1388 Z M19.1937,4.5613 L18.0402,6.5168 C17.7222,7.0568 17.9007,7.7528 18.4407,8.0728 C18.6212,8.1788 18.8207,8.2298 19.0167,8.2298 C19.4047,8.2298 19.7837,8.0293 19.9952,7.6708 L21.1487,5.7143 C21.4682,5.1748 21.2872,4.4783 20.7482,4.1598 C20.5677,4.0528 20.3682,4.0033 20.1722,4.0033 C19.7837,4.0033 19.4047,4.2023 19.1937,4.5613 L19.1937,4.5613 Z M0.1672,7.7688 C-0.1538,8.3073 0.0237,9.0043 0.5617,9.3243 L4.4652,11.6463 C4.6467,11.7548 4.8467,11.8063 5.0432,11.8063 C5.4317,11.8063 5.8087,11.6088 6.0207,11.2518 C6.3412,10.7128 6.1642,10.0163 5.6262,9.6963 L1.7227,7.3738 C1.5412,7.2653 1.3412,7.2138 1.1437,7.2138 C0.7562,7.2138 0.3792,7.4133 0.1672,7.7688 L0.1672,7.7688 Z M25.9387,7.3843 L22.0327,9.7033 C21.4942,10.0228 21.3167,10.7198 21.6362,11.2588 C21.8487,11.6168 22.2257,11.8133 22.6147,11.8133 C22.8107,11.8133 23.0112,11.7628 23.1917,11.6553 L27.0977,9.3363 C27.6372,9.0173 27.8137,8.3193 27.4942,7.7808 C27.2827,7.4233 26.9037,7.2243 26.5167,7.2243 C26.3197,7.2243 26.1192,7.2763 25.9387,7.3843 L25.9387,7.3843 Z M5.8722,15.8948 C5.8722,20.2813 9.4407,23.8498 13.8272,23.8498 C18.2132,23.8498 21.7807,20.2813 21.7807,15.8948 C21.7807,11.5083 18.2132,7.9403 13.8272,7.9403 C9.4407,7.9403 5.8722,11.5083 5.8722,15.8948 L5.8722,15.8948 Z M8.1427,15.8948 C8.1427,12.7608 10.6917,10.2103 13.8272,10.2103 C16.9602,10.2103 19.5102,12.7608 19.5102,15.8948 C19.5102,19.0298 16.9602,21.5788 13.8272,21.5788 C10.6917,21.5788 8.1427,19.0298 8.1427,15.8948 L8.1427,15.8948 Z M24.0442,14.7608 C23.4182,14.7608 22.9092,15.2673 22.9092,15.8948 C22.9092,16.5223 23.4182,17.0298 24.0442,17.0298 L26.3157,17.0298 C26.9427,17.0298 27.4507,16.5223 27.4507,15.8948 C27.4507,15.2673 26.9427,14.7608 26.3157,14.7608 L24.0442,14.7608 Z M1.3372,14.7608 C0.7112,14.7608 0.2032,15.2673 0.2032,15.8948 C0.2032,16.5223 0.7112,17.0298 1.3372,17.0298 L3.6077,17.0298 C4.2357,17.0298 4.7442,16.5223 4.7442,15.8948 C4.7442,15.2673 4.2357,14.7608 3.6077,14.7608 L1.3372,14.7608 Z M4.4602,20.1343 L0.5557,22.4548 C0.0167,22.7733 -0.1608,23.4698 0.1597,24.0093 C0.3722,24.3658 0.7482,24.5653 1.1372,24.5653 C1.3332,24.5653 1.5337,24.5138 1.7152,24.4053 L5.6192,22.0883 C6.1592,21.7673 6.3372,21.0713 6.0167,20.5323 C5.8052,20.1743 5.4272,19.9743 5.0402,19.9743 C4.8432,19.9743 4.6427,20.0278 4.4602,20.1343 L4.4602,20.1343 Z M21.6322,20.5373 C21.3117,21.0778 21.4887,21.7743 22.0277,22.0948 L25.9307,24.4173 C26.1127,24.5243 26.3127,24.5778 26.5102,24.5778 C26.8977,24.5778 27.2757,24.3783 27.4867,24.0213 C27.8067,23.4823 27.6302,22.7848 27.0922,22.4653 L23.1887,20.1428 C23.0062,20.0353 22.8057,19.9833 22.6087,19.9833 C22.2212,19.9833 21.8452,20.1818 21.6322,20.5373 L21.6322,20.5373 Z M7.6587,24.1203 L6.5042,26.0758 C6.1867,26.6143 6.3657,27.3118 6.9057,27.6298 C7.0862,27.7368 7.2842,27.7868 7.4817,27.7868 C7.8702,27.7868 8.2482,27.5893 8.4602,27.2293 L9.6137,25.2743 C9.9327,24.7328 9.7522,24.0368 9.2122,23.7188 C9.0317,23.6108 8.8322,23.5603 8.6372,23.5603 C8.2482,23.5603 7.8692,23.7603 7.6587,24.1203 L7.6587,24.1203 Z M18.4192,23.7318 C17.8772,24.0493 17.6957,24.7448 18.0122,25.2848 L19.1602,27.2438 C19.3712,27.6048 19.7512,27.8053 20.1407,27.8053 C20.3352,27.8053 20.5337,27.7548 20.7142,27.6488 C21.2552,27.3333 21.4367,26.6368 21.1182,26.0963 L19.9722,24.1373 C19.7612,23.7768 19.3812,23.5758 18.9897,23.5758 C18.7962,23.5758 18.5987,23.6263 18.4192,23.7318 L18.4192,23.7318 Z M12.6907,26.1123 L12.6907,30.6548 C12.6907,31.2818 13.1997,31.7883 13.8272,31.7883 C14.4532,31.7883 14.9612,31.2818 14.9612,30.6548 L14.9612,26.1123 C14.9612,25.4858 14.4532,24.9773 13.8272,24.9773 C13.1997,24.9773 12.6907,25.4858 12.6907,26.1123 L12.6907,26.1123 Z" id="Fill-1" fill="#004571" mask="url(#mask-4)"></path>
                </g>
            </g>
        </g>
    </g>
</svg>