<?xml version="1.0" encoding="UTF-8"?>
<svg width="13px" height="13px" viewBox="0 0 13 13" version="1.1" xmlns="http://www.w3.org/2000/svg" xmlns:xlink="http://www.w3.org/1999/xlink">
    <!-- Generator: Sketch 57.1 (83088) - https://sketch.com -->
    <title>np_save_858111_000000</title>
    <desc>Created with Sketch.</desc>
    <g id="Mi-perfil" stroke="none" stroke-width="1" fill="none" fill-rule="evenodd">
        <g id="02_Mi_perfil_Editar" transform="translate(-703.000000, -544.000000)" fill="#6AA1D8" fill-rule="nonzero">
            <g id="np_save_858111_000000" transform="translate(703.000000, 544.000000)">
                <path d="M1.1375,0 C0.5160675,0 0,0.5160675 0,1.1375 L0,11.8625 C0,12.4839325 0.5160675,13 1.1375,13 L11.8625,13 C12.4839325,13 13,12.4839325 13,11.8625 L13,3.0875 C13,2.958007 12.9492188,2.83359375 12.8578125,2.7421875 L10.2578125,0.1421875 C10.1664062,0.05078125 10.0419962,0 9.9125,0 L1.1375,0 Z M1.1375,0.975 L2.4375,0.975 L2.4375,5.0375 C2.4375,5.3066325 2.6558675,5.525 2.925,5.525 L9.425,5.525 C9.6941325,5.525 9.9125,5.3066325 9.9125,5.0375 L9.9125,1.178125 L12.025,3.290625 L12.025,11.8625 C12.025,11.9608889 11.9608889,12.025 11.8625,12.025 L1.1375,12.025 C1.03911112,12.025 0.975,11.9608889 0.975,11.8625 L0.975,1.1375 C0.975,1.03911112 1.03911112,0.975 1.1375,0.975 Z M3.4125,0.975 L8.9375,0.975 L8.9375,4.55 L3.4125,4.55 L3.4125,0.975 Z M6.5,6.6625 C5.33901875,6.6625 4.3875,7.61401875 4.3875,8.775 C4.3875,9.93598125 5.33901875,10.8875 6.5,10.8875 C7.66098125,10.8875 8.6125,9.93598125 8.6125,8.775 C8.6125,7.61401875 7.66098125,6.6625 6.5,6.6625 Z M6.5,7.6375 C7.13412375,7.6375 7.6375,8.14087625 7.6375,8.775 C7.6375,9.40912375 7.13412375,9.9125 6.5,9.9125 C5.86587625,9.9125 5.3625,9.40912375 5.3625,8.775 C5.3625,8.14087625 5.86587625,7.6375 6.5,7.6375 Z" id="Shape"></path>
            </g>
        </g>
    </g>
</svg>