<?xml version="1.0" encoding="UTF-8"?>
<svg width="30px" height="30px" viewBox="0 0 30 30" version="1.1" xmlns="http://www.w3.org/2000/svg" xmlns:xlink="http://www.w3.org/1999/xlink">
    <!-- Generator: Sketch 57.1 (83088) - https://sketch.com -->
    <title>Group 4</title>
    <desc>Created with Sketch.</desc>
    <g id="Symbols" stroke="none" stroke-width="1" fill="none" fill-rule="evenodd">
        <g id="ico-/-delegado">
            <g id="Group-4">
                <circle id="Oval" fill="#E57200" cx="15" cy="15" r="15"></circle>
                <g id="Group-3" transform="translate(6.093750, 6.562500)" stroke="#FFFFFF">
                    <path d="M7.6706393,0.317356893 C7.27464863,0.528802742 6.95503431,0.820763558 6.71988545,1.18477398 C6.48003362,1.55706165 6.35813246,1.96358699 6.35813246,2.39268661 C6.35813246,3.16547981 6.60456845,3.82427283 7.09066816,4.35006567 C7.58579759,4.8856407 8.20903611,5.15747277 8.94420549,5.15747277 C9.67805803,5.15747277 10.3024253,4.8856407 10.7969903,4.35006567 C11.2832782,3.8238966 11.5293379,3.16547981 11.5293379,2.39268661 C11.5293379,1.96396322 11.407813,1.55743789 11.1672087,1.18477398 C10.9330004,0.820763558 10.613198,0.528802742 10.2173954,0.317356893 C9.82385032,0.10666352 9.39587941,1.24344979e-14 8.94420549,1.24344979e-14 C8.49253157,1.24344979e-14 8.06380818,0.10666352 7.6706393,0.317356893 M7.72161957,3.76689651 C7.38262898,3.39968806 7.21727231,2.95045969 7.21727231,2.39268661 C7.21727231,2.12725059 7.29101499,1.88457697 7.44207461,1.65018059 C7.59896593,1.40713074 7.80664939,1.21901166 8.0758478,1.07472432 C8.34711552,0.929684507 8.63136345,0.85932797 8.94420549,0.85932797 C9.2568594,0.85932797 9.54091922,0.929684507 9.81218694,1.07472432 C10.0811972,1.21901166 10.2886926,1.40713074 10.4453958,1.65055683 C10.5972079,1.88495321 10.6709505,2.12762683 10.6709505,2.39268661 C10.6709505,2.95045969 10.5050295,3.39968806 10.166227,3.76689651 C9.83570182,4.12432277 9.43594877,4.29833292 8.94420549,4.29833292 C8.45208597,4.29833292 8.05195668,4.12432277 7.72161957,3.76689651 M4.29446612,9.59609978 L4.22091156,10.3077543 C4.19739667,10.5434675 4.36839692,10.7545371 4.60429825,10.7786163 C4.61991213,10.7804975 4.63458542,10.78125 4.64907059,10.78125 C4.86653625,10.78125 5.05315038,10.6160814 5.07591279,10.3956059 L5.14909111,9.68357515 C5.2258437,8.93410873 5.5650224,8.37727624 6.18525102,7.97902814 C6.84310345,7.55801764 7.78313451,7.34450248 8.97806692,7.34450248 C10.1746924,7.34450248 11.1145353,7.55726516 11.7721997,7.97733507 C12.3926164,8.37276138 12.7314189,8.92959387 12.8083596,9.67849594 L12.8813498,10.3948534 C12.9050528,10.6305666 13.1157461,10.8028837 13.3516475,10.7786163 C13.5877369,10.7545371 13.7598659,10.54422 13.7355985,10.3077543 L13.6629846,9.59083244 C13.5587666,8.57837554 13.0783105,7.79147342 12.234032,7.25288848 C11.436219,6.74365013 10.3409897,6.48498639 8.97806692,6.48498639 C7.61570852,6.48498639 6.52010299,6.74477884 5.72210184,7.25571027 C4.87819963,7.79636451 4.39811973,8.58401911 4.29446612,9.59609978 Z" id="Fill-1" stroke-width="0.7" fill="#FFFFFF"></path>
                    <path d="M0,10.78125 L18.046875,10.78125" id="Path-2" stroke-width="1.8" stroke-linecap="round" stroke-linejoin="round"></path>
                    <path d="M16.40625,10.9114583 L16.40625,16.7447917" id="Path-2" stroke-width="1.8" stroke-linecap="round" stroke-linejoin="round"></path>
                    <path d="M1.875,10.9114583 L1.875,16.7447917" id="Path-2" stroke-width="1.8" stroke-linecap="round" stroke-linejoin="round"></path>
                </g>
            </g>
        </g>
    </g>
</svg>