<svg width="23" height="23" viewBox="0 0 23 23" fill="none" xmlns="http://www.w3.org/2000/svg">
<path opacity="0.5" d="M11.5 0C5.152 0 0 5.152 0 11.5C0 17.848 5.152 23 11.5 23C17.848 23 23 17.848 23 11.5C23 5.152 17.848 0 11.5 0Z" fill="#004571"/>
<path d="M15.6972 16.8668H14.8332V14.5118C14.8332 12.8348 13.4802 11.4758 11.8122 11.4758C13.4832 11.4758 14.8332 10.1168 14.8332 8.43984V6.08484H15.6972C15.9342 6.08484 16.1292 5.88984 16.1292 5.64984C16.1292 5.40984 15.9372 5.21484 15.6972 5.21484H7.25817C7.02117 5.21484 6.82617 5.40984 6.82617 5.64984C6.82617 5.88984 7.01817 6.08484 7.25817 6.08484H8.12217V8.43984C8.12217 10.1168 9.47517 11.4758 11.1462 11.4758C9.47817 11.4758 8.12217 12.8348 8.12217 14.5118V16.8668H7.25817C7.02117 16.8668 6.82617 17.0618 6.82617 17.2988C6.82617 17.5388 7.01817 17.7338 7.25817 17.7338H15.6972C15.9342 17.7338 16.1292 17.5388 16.1292 17.2988C16.1292 17.0588 15.9342 16.8668 15.6972 16.8668ZM8.98317 8.43984C8.98317 7.68084 8.98317 6.08484 8.98317 6.08484H13.9692C13.9692 6.08484 13.9692 7.74084 13.9692 8.43984C13.9692 9.63684 12.9552 10.6088 11.7012 10.6088H11.2482C10.0002 10.6088 8.98317 9.63684 8.98317 8.43984ZM13.9692 16.8668H8.98317C8.98317 16.8668 8.98317 15.2738 8.98317 14.5118C8.98317 13.3148 9.99717 12.3428 11.2512 12.3428H11.7042C12.9552 12.3428 13.9722 13.3148 13.9722 14.5118C13.9692 15.2108 13.9692 16.8668 13.9692 16.8668Z" fill="white" stroke="white" stroke-width="0.7"/>
</svg>
