<svg width="31" height="31" viewBox="0 0 31 31" fill="none" xmlns="http://www.w3.org/2000/svg">
<path fill-rule="evenodd" clip-rule="evenodd" d="M22.9333 23.5724C22.4249 24.2544 21.4019 24.6326 19.8147 24.738V26.2136C19.8271 26.5422 19.7217 27.0072 19.3807 27.3792C18.9901 27.807 18.4135 28.024 17.6571 28.024C16.6031 28.024 13.3605 28.024 13.3605 28.024C12.6103 28.024 12.0275 27.807 11.6369 27.3792C11.2897 27.001 11.1843 26.5422 11.2029 26.2136V24.738C9.6219 24.6388 8.5989 24.2544 8.0843 23.5724C7.7867 23.1756 7.7185 22.7478 7.7619 22.4316V18.476C7.7619 17.9738 8.1649 17.5708 8.6671 17.5708H9.8513V6.05735C9.8513 6.02635 9.8513 5.98915 9.8575 5.95815C9.9753 4.92895 10.8805 2.97595 13.5031 2.97595C14.2843 2.97595 14.9105 3.14955 15.4065 3.42235C15.9025 3.15575 16.5287 2.97595 17.3037 2.97595C19.9201 2.97595 20.8315 4.92895 20.9431 5.95815C20.9493 5.98915 20.9493 6.02635 20.9493 6.05735V17.5708H22.3443C22.8403 17.5708 23.2495 17.9738 23.2495 18.476V22.4316C23.2929 22.7478 23.2247 23.1756 22.9333 23.5724ZM11.6617 6.11315V17.5646H13.1559H15.3383V6.11935C15.2887 5.83415 15.0035 4.78015 13.4969 4.78015C11.9655 4.78015 11.7051 5.86515 11.6617 6.11315ZM19.1451 6.11935C19.0955 5.83415 18.8103 4.78015 17.3037 4.78015C17.1115 4.78015 16.9379 4.79875 16.7829 4.82975C16.9937 5.23895 17.1053 5.63575 17.1363 5.95195C17.1425 5.98295 17.1425 6.02015 17.1425 6.05115V17.5646H19.1451V6.11935V6.11935ZM21.4453 19.375H17.0185H13.1559H9.5723C9.5723 19.375 9.5475 21.8178 9.5723 21.886C9.5723 22.4936 9.7955 22.9524 10.2729 22.9524C10.7503 22.9524 13.0071 22.9462 13.0071 22.9462C13.0071 22.9462 13.0133 25.3952 13.0133 25.5874C13.0133 25.8602 13.1993 26.2136 13.4721 26.2136C13.7449 26.2136 17.1735 26.2136 17.4463 26.2136C17.7191 26.2136 18.0105 26.0028 18.0105 25.5874C18.0105 25.172 18.0105 23.8576 18.0105 23.8576C18.0105 23.5972 18.0043 22.9586 18.0043 22.9586C18.0043 22.9586 20.4223 22.9524 20.8377 22.9524C21.2903 22.9276 21.4453 22.1898 21.4453 21.979C21.4453 21.7682 21.4453 19.375 21.4453 19.375Z" fill="#004571"/>
</svg>
