
<svg width="15px" height="22px" xmlns="http://www.w3.org/2000/svg">
  <title>ico_facturas</title>
  <g id="Mi-conexión-a-la-red" stroke="none" stroke-width="1" fill="none" fill-rule="evenodd">
        <g id="2-05_UFD_TEN_A_MANO_NU_01.3-" transform="translate(-1020.000000, -509.000000)">
            <g id="ico_facturas" transform="translate(1020.000000, 509.000000)">
                <path d="M13.627449,17.1039797 L10.880267,17.1039797 C10.5013966,17.1039797 10.1947344,17.4170199 10.1947344,17.8033247 L10.1947344,20.6007046 L2.02361378,20.6007046 C1.66435547,20.6007046 1.37195666,20.3028018 1.37195666,19.9373865 L1.37195666,2.06321902 C1.37195666,1.69719822 1.66435547,1.39959817 2.02361378,1.39959817 L12.9754948,1.39959817 C13.3350502,1.39959817 13.627449,1.69719822 13.627449,2.06321902 L13.627449,17.1039797 Z M11.5669883,20.1801894 L11.5669883,18.5026697 L12.884863,18.5026697 L11.5669883,20.1801894 Z M12.9754948,0 L2.02361378,0 C0.907506092,0 0,0.926102273 0,2.06321902 L0,19.9373865 C0,21.0742005 0.907506092,22 2.02361378,22 L11.5669883,22 C11.7761842,22 11.9726025,21.903121 12.1030528,21.7372158 L14.8490461,18.2398855 C14.9462153,18.1166676 15,17.9628722 15,17.8033247 L15,2.06321902 C15,0.926102273 14.0916024,0 12.9754948,0 L12.9754948,0 Z" id="ico_autorizacion-copy" fill="#1674D1"></path>
                <rect id="Rectangle" stroke="#1674D1" x="7.5" y="11.5" width="3" height="0.1"></rect>
                <rect id="Rectangle-Copy" stroke="#1674D1" x="7.5" y="8.5" width="3" height="0.1"></rect>
                <rect id="Rectangle-Copy-2" stroke="#1674D1" x="7.5" y="5.5" width="3" height="0.1"></rect>
            </g>
        </g>
    </g>
</svg>