<?xml version="1.0" encoding="UTF-8"?>
<svg width="12px" height="19px" viewBox="0 0 12 19" version="1.1" xmlns="http://www.w3.org/2000/svg" xmlns:xlink="http://www.w3.org/1999/xlink">
    <title>Punto propuesto</title>
    <g id="Mi-conexión-a-la-red" stroke="none" stroke-width="1" fill="none" fill-rule="evenodd">
        <g id="2-05_UFD_TEN_A_MANO_NU_01.3-" transform="translate(-594.000000, -868.000000)" fill="#004571">
            <g id="Group" transform="translate(592.000000, 831.000000)">
                <path d="M12.1521207,45.4083704 L7.9644626,53.8188768 L3.83491671,45.3955546 C3.10091429,43.8985498 3.16349671,42.1409575 4.00239919,40.6939952 C4.83087127,39.2659515 6.22467124,38.4155331 7.82707928,38.3587775 C7.88668159,38.3578621 7.94598589,38.3566416 8.00499217,38.3566416 C8.06429647,38.3566416 8.12270673,38.3578621 8.18230904,38.3587775 C9.76296224,38.4143126 11.1934176,39.2897522 12.0063931,40.7016237 C12.8420175,42.1534681 12.8971496,43.9128913 12.1521207,45.4083704 M8.22671276,37.0036617 C8.15250788,37.0012206 8.07919704,37 8.00499217,37 C7.93048929,37 7.8559864,37.0012206 7.78267556,37.0042719 C5.74993886,37.0744536 3.91061164,38.1949187 2.86339909,40.0019432 C1.79264363,41.8477203 1.71307455,44.0917019 2.65121487,46.0039989 L7.36754549,55.6259014 C7.48019385,55.8547545 7.70906671,55.9996949 7.95790635,56 L7.95999243,56 C8.20913007,56 8.43681089,55.8571956 8.55005527,55.629563 L13.3328425,46.0250534 C14.2837973,44.114282 14.2146586,41.866944 13.1477773,40.0126231 C12.1023528,38.1991906 10.2630256,37.0741484 8.22671276,37.0036617 M7.99962796,44.544526 C7.26949969,44.544526 6.67556269,43.9363869 6.67556269,43.1881896 C6.67556269,42.4409077 7.26949969,41.8321583 7.99962796,41.8321583 C8.73065027,41.8321583 9.32488528,42.4409077 9.32488528,43.1881896 C9.32488528,43.9363869 8.73065027,44.544526 7.99962796,44.544526 M7.99962796,40.4758219 C6.53907341,40.4758219 5.35030538,41.6927104 5.35030538,43.1881896 C5.35030538,44.6839739 6.53907341,45.9008624 7.99962796,45.9008624 C9.46018251,45.9008624 10.6495466,44.6839739 10.6495466,43.1881896 C10.6495466,41.6927104 9.46018251,40.4758219 7.99962796,40.4758219" id="Punto-propuesto"></path>
            </g>
        </g>
    </g>
</svg>