<?xml version="1.0" encoding="UTF-8"?>
<svg width="58px" height="69px" viewBox="0 0 58 69" version="1.1" xmlns="http://www.w3.org/2000/svg" xmlns:xlink="http://www.w3.org/1999/xlink">
    <!-- Generator: Sketch 63.1 (92452) - https://sketch.com -->
    <title>Group 3</title>
    <desc>Created with Sketch.</desc>
    <defs>
        <polygon id="path-1" points="0.000246373888 0.0004 57.5886061 0.0004 57.5886061 68.166 0.000246373888 68.166"></polygon>
    </defs>
    <g id="Mi-consumo" stroke="none" stroke-width="1" fill="none" fill-rule="evenodd">
        <g id="-00_ContadorTelemedido_Consultas" transform="translate(-454.000000, -679.000000)">
            <g id="Group" transform="translate(454.000000, 679.000000)">
                <g id="Group-3">
                    <mask id="mask-2" fill="white">
                        <use xlink:href="#path-1"></use>
                    </mask>
                    <g id="Clip-2"></g>
                    <path d="M55.2511,68.1504 C53.8251,68.2964 52.7021,67.2344 52.5581,65.8124 L52.0691,61.4804 C51.6051,56.9514 49.4501,53.5974 45.6961,51.2054 C41.7161,48.6644 36.0301,46.8514 28.7941,46.8514 C21.5631,46.8514 15.8761,48.6704 11.8991,51.2144 C8.1441,53.6234 5.9911,56.9664 5.5281,61.5024 L5.0791,65.8124 C4.9401,67.1464 3.9191,68.1664 2.6031,68.1664 C2.5171,68.1664 2.4271,68.1624 2.3331,68.1504 C0.9071,68.0054 -0.1279,66.7284 0.0131,65.3024 L0.4581,60.9984 C1.0851,54.8754 3.9891,50.1094 9.0951,46.8394 C13.9231,43.7484 20.5521,42.1754 28.7941,42.1754 C37.0381,42.1754 43.6631,43.7404 48.4891,46.8204 C53.5971,50.0804 56.5051,54.8414 57.1341,60.9644 L57.5751,65.3024 C57.7201,66.7344 56.6811,68.0054 55.2511,68.1504 M36.4871,29.0784 C34.3511,31.3884 31.7371,32.3864 28.5871,32.3864 C25.4391,32.3864 22.8121,31.3774 20.6981,29.0894 L20.6851,29.0784 C18.4911,26.7054 17.4231,23.8004 17.4231,20.1954 C17.4231,18.4804 17.8991,16.9104 18.8761,15.3944 C19.8921,13.8244 21.2351,12.6074 22.9741,11.6754 C24.7281,10.7364 26.5651,10.2834 28.5871,10.2834 C30.6101,10.2834 32.4481,10.7364 34.2001,11.6754 C35.9391,12.6074 37.2801,13.8244 38.2921,15.3964 C39.2721,16.9124 39.7491,18.4824 39.7491,20.1954 C39.7491,21.0674 39.6841,21.8954 39.5581,22.6874 L32.5421,24.0504 C32.0321,23.4764 31.2451,23.1714 30.4371,23.3284 L27.5261,23.8944 C26.3041,24.1324 25.5091,25.3144 25.7451,26.5344 C25.9811,27.7544 27.1631,28.5484 28.3821,28.3124 L31.2941,27.7464 C32.1051,27.5894 32.7201,27.0134 32.9781,26.2894 L38.9251,25.1324 C38.3841,26.5924 37.5741,27.9004 36.4871,29.0784 M7.4801,23.7374 C7.4831,23.7824 7.4821,23.8284 7.4851,23.8734 C7.4851,23.8734 7.5211,25.8944 9.6361,25.8944 C11.7511,25.8944 11.8121,23.8734 11.8121,23.8734 C11.7571,23.2614 11.7241,22.6424 11.7001,22.0154 C11.3471,12.1254 19.3551,4.2934 28.7941,4.2934 C38.0571,4.2934 45.9681,11.7804 45.8821,21.4584 L44.1631,21.7924 C44.2001,21.2874 44.2261,20.7774 44.2261,20.2554 C44.2261,17.6624 43.4931,15.2034 42.0361,12.9494 C40.6181,10.7464 38.6851,8.9784 36.2921,7.6994 C33.9091,6.4254 31.3211,5.7814 28.5871,5.7814 C25.8551,5.7814 23.2611,6.4254 20.8821,7.6994 C18.4871,8.9784 16.5541,10.7464 15.1321,12.9494 C13.6811,15.2014 12.9441,17.6584 12.9441,20.2554 C12.9441,24.9294 14.4351,28.9144 17.3741,32.0954 C20.3701,35.3364 24.1421,36.9804 28.5871,36.9804 C33.0281,36.9804 36.8041,35.3364 39.7961,32.0954 C41.8761,29.8464 43.2121,27.1904 43.8271,24.1804 L45.7811,23.8004 C45.7781,23.8244 45.7781,23.8494 45.7761,23.8734 C45.7761,23.8734 45.6691,25.9474 47.7841,25.9474 C49.9031,25.9474 50.1051,23.8734 50.1051,23.8734 C50.1071,23.8284 50.1061,23.7824 50.1091,23.7374 C51.5781,23.3714 52.6691,22.0554 52.6691,20.4724 C52.6691,18.7164 51.3241,17.2904 49.6081,17.1294 C47.4101,7.3154 38.9281,0.0004 28.7941,0.0004 C18.6601,0.0004 10.1781,7.3154 7.9801,17.1294 C6.2661,17.2904 4.9191,18.7174 4.9191,20.4724 C4.9191,22.0554 6.0121,23.3724 7.4801,23.7374" id="Fill-1" fill="#004571" mask="url(#mask-2)"></path>
                </g>
            </g>
        </g>
    </g>
</svg>