<svg width="31" height="31" viewBox="0 0 31 31" fill="none" xmlns="http://www.w3.org/2000/svg">
<path d="M23.6966 5.30103H7.31619C5.82199 5.30103 4.60059 6.51623 4.60059 8.01663V19.3378C4.60059 20.8382 5.81579 22.0534 7.31619 22.0534H10.1248V24.8C10.1248 25.172 10.348 25.5068 10.6952 25.6494C10.8068 25.699 10.9308 25.7176 11.0486 25.7176C11.2904 25.7176 11.526 25.6246 11.6996 25.4448L15.091 22.0472H24.1926C25.4202 22.0472 26.4184 21.049 26.4184 19.8214V8.01663C26.4122 6.52243 25.1908 5.30103 23.6966 5.30103ZM24.5708 13.4292C24.5646 13.485 24.5584 13.5346 24.5584 13.5904C24.5584 13.6462 24.5646 13.702 24.5708 13.7516V19.8214C24.5708 20.0322 24.3972 20.2058 24.1864 20.2058H14.7004C14.4524 20.2058 14.223 20.305 14.0494 20.4786L11.9662 22.5742V21.1296C11.9662 20.6212 11.557 20.212 11.0486 20.212H7.31619C6.83259 20.212 6.44199 19.8214 6.44199 19.3378V8.01663C6.44199 7.53303 6.83259 7.14243 7.31619 7.14243H23.6966C24.1802 7.14243 24.5708 7.53303 24.5708 8.01663V13.4292ZM20.5966 11.594C20.5966 12.0962 20.1936 12.4992 19.6914 12.4992H11.3276C10.8254 12.4992 10.4224 12.09 10.4224 11.594C10.4224 11.0918 10.8254 10.6888 11.3276 10.6888H19.6914C20.1874 10.6888 20.5966 11.0918 20.5966 11.594ZM20.5966 15.2024C20.5966 15.7046 20.1936 16.1076 19.6914 16.1076H11.3276C10.8254 16.1076 10.4224 15.6984 10.4224 15.2024C10.4224 14.7002 10.8254 14.2972 11.3276 14.2972H19.6914C20.1874 14.291 20.5966 14.7002 20.5966 15.2024Z" fill="#004571"/>
</svg>
