<svg width="25" height="25" viewBox="0 0 25 25" fill="none" xmlns="http://www.w3.org/2000/svg">
<path d="M12.5 1C6.152 1 1 6.152 1 12.5C1 18.848 6.152 24 12.5 24C18.848 24 24 18.848 24 12.5C24 6.152 18.848 1 12.5 1Z" fill="#E57200"/>
<g clip-path="url(#clip0_2249_201950)">
<path d="M15.377 17.7725C15.2174 17.3536 14.7488 17.1432 14.3304 17.3024C13.1123 17.7664 11.7633 17.7499 10.5565 17.2569C9.34967 16.7638 8.37533 15.8308 7.83068 14.6466C7.28599 13.4624 7.21138 12.1152 7.62272 10.8783L7.80303 11.3479C7.96362 11.7658 8.43272 11.9747 8.8511 11.8146C9.26949 11.6535 9.47844 11.1845 9.31832 10.7661L8.4802 8.58408C8.4032 8.38312 8.24964 8.22111 8.0529 8.13331C7.85663 8.04597 7.63311 8.04034 7.43215 8.11734L5.24967 8.95498C4.8313 9.1151 4.6228 9.58467 4.78293 10.003C4.944 10.4214 5.41309 10.6304 5.831 10.4698L6.07987 10.374L6.08034 10.3745C5.68685 11.5643 5.63097 12.8401 5.9207 14.0596C6.20948 15.279 6.8326 16.3943 7.71866 17.2803C7.74636 17.308 7.77453 17.3352 7.80318 17.363L7.80271 17.3634C8.72634 18.2551 9.88522 18.8665 11.1432 19.1243C12.4012 19.3821 13.707 19.2765 14.9073 18.8191C15.3266 18.6599 15.537 18.1913 15.3773 17.7725L15.377 17.7725Z" fill="white"/>
<path d="M20.2164 14.9947C20.0558 14.5768 19.5863 14.3674 19.1684 14.5279L18.9195 14.6237L18.919 14.6233C19.4557 13.0028 19.359 11.2392 18.649 9.6868C17.939 8.13442 16.6679 6.90743 15.0916 6.25337C13.5153 5.59833 11.7488 5.56446 10.1481 6.15757C9.94617 6.23175 9.78182 6.38389 9.69213 6.5797C9.60198 6.77504 9.59353 6.99854 9.66772 7.20047C9.74284 7.40237 9.89499 7.56673 10.0908 7.6564C10.2866 7.74608 10.5096 7.75407 10.7116 7.67988C11.9287 7.22816 13.2716 7.25445 14.4709 7.75225C15.6697 8.25045 16.6356 9.18442 17.1751 10.3653C17.7137 11.5463 17.786 12.8873 17.3771 14.1199L17.1968 13.6504C17.0343 13.2343 16.5666 13.0277 16.1497 13.1874C15.7332 13.3475 15.5237 13.8142 15.6815 14.2322L16.5168 16.4076L16.5182 16.4118C16.5947 16.6133 16.7488 16.7757 16.9455 16.8635C17.1427 16.9518 17.3658 16.9579 17.5672 16.8804L19.7497 16.0428C20.168 15.8827 20.3765 15.4131 20.2164 14.9947L20.2164 14.9947Z" fill="white"/>
</g>
<defs>
<clipPath id="clip0_2249_201950">
<rect width="17" height="17" fill="white" transform="translate(12.5 0.478516) rotate(45)"/>
</clipPath>
</defs>
</svg>
