<svg width="32" height="31" viewBox="0 0 32 31" fill="none" xmlns="http://www.w3.org/2000/svg">
<path fill-rule="evenodd" clip-rule="evenodd" d="M27.2598 14.8877L26.953 14.5768L28.9836 12.5731C29.1657 12.3909 29.2679 12.1439 29.2679 11.8865C29.2679 11.629 29.1657 11.382 28.9836 11.1998C28.8014 11.0179 28.5543 10.9157 28.2967 10.9157C28.0391 10.9157 27.792 11.0179 27.6097 11.1998L25.5791 13.2036L22.6585 10.2455L18.8479 6.38916L20.8828 4.38543C21.0648 4.20325 21.1671 3.95628 21.1671 3.69879C21.1671 3.44131 21.0648 3.19437 20.8828 3.01219C20.7005 2.83023 20.4534 2.72803 20.1958 2.72803C19.9382 2.72803 19.6912 2.83023 19.5089 3.01219L17.4783 5.01592L17.2882 4.82591C16.9642 4.50287 16.5253 4.32146 16.0677 4.32146C15.61 4.32146 15.1711 4.50287 14.8471 4.82591L11.5765 8.05173L11.5074 8.12946C9.93056 9.60507 8.99358 11.6386 8.8967 13.7955C8.79983 15.9524 9.55073 18.0616 10.989 19.6725L11.0667 19.7546C9.90886 21.3912 8.90653 21.5726 7.6536 21.7928C6.86434 21.8968 6.097 22.1272 5.38104 22.4751C2.39561 24.0557 2.73692 27.2254 2.74988 27.4067C2.77522 27.642 2.88594 27.8598 3.0611 28.0189C3.23625 28.1781 3.46369 28.2675 3.70038 28.2704C3.73491 28.2726 3.76954 28.2726 3.80407 28.2704C4.05757 28.2431 4.29021 28.1174 4.45184 27.9203C4.61347 27.7232 4.69115 27.4705 4.66816 27.2167C4.66816 27.1865 4.43918 25.1396 6.27105 24.1939C6.8172 23.9396 7.40071 23.7748 7.99923 23.7059C9.29536 23.477 10.8896 23.192 12.4623 21.1408C13.9359 22.4434 15.8267 23.177 17.7937 23.2093C18.9345 23.2235 20.0659 23.0014 21.1166 22.557C22.1673 22.1125 23.1145 21.4553 23.8985 20.6269C23.9264 20.6047 23.9524 20.5801 23.9762 20.5535L27.2468 17.3276C27.5717 17.0055 27.7556 16.5678 27.758 16.1104C27.7604 15.653 27.5813 15.2133 27.2598 14.8877ZM22.6023 19.1802C22.0419 19.7932 21.3653 20.289 20.6118 20.6389C19.8583 20.9888 19.0429 21.1857 18.2128 21.2185C17.3836 21.2542 16.5556 21.1257 15.7763 20.8404C14.997 20.5551 14.2818 20.1185 13.672 19.5559L13.0369 18.9686L12.4623 18.3295C11.346 17.0801 10.7709 15.4393 10.8632 13.7668C10.9556 12.0943 11.7077 10.5267 12.9548 9.40771L13.3868 9.02769L23.0041 18.7527L22.6023 19.1802ZM24.4039 17.414V17.3924L14.7564 7.63718L16.1001 6.31576L21.2846 11.5885L25.726 16.0839L24.4039 17.414Z" fill="#004571"/>
</svg>
