<svg width="25" height="25" viewBox="0 0 25 25" fill="none" xmlns="http://www.w3.org/2000/svg">
<path fill-rule="evenodd" clip-rule="evenodd" d="M13.3694 19.5888C13.3694 20.0813 12.9805 20.4811 12.5014 20.4811C12.0222 20.4811 11.6341 20.0813 11.6341 19.5888C11.6341 19.0962 12.0222 18.6968 12.5014 18.6968C12.9805 18.6968 13.3694 19.0962 13.3694 19.5888M13.3702 9.01311V16.4501C13.3702 16.9423 12.9821 17.3417 12.5021 17.3417C12.0245 17.3417 11.6341 16.9423 11.6341 16.4501V9.01311C11.6341 8.52093 12.0245 8.12116 12.5021 8.12116C12.9821 8.12116 13.3702 8.52093 13.3702 9.01311M22.8994 23.1883H2.10063C1.86684 23.1883 1.76306 22.9825 1.76306 22.8369C1.76306 22.7664 1.78351 22.7017 1.82788 22.6402L12.2126 1.97268C12.2199 1.96356 12.2276 1.95285 12.235 1.94413C12.3241 1.82872 12.4387 1.81166 12.5004 1.81166C12.5613 1.81166 12.6767 1.82872 12.765 1.94413C12.7724 1.95285 12.7801 1.96356 12.7874 1.97268L23.1729 22.6402C23.2165 22.7017 23.2385 22.7664 23.2385 22.8369C23.2385 22.9825 23.1335 23.1883 22.8994 23.1883M24.527 21.481L14.1361 0.807872C13.7361 0.29388 13.1408 0 12.5004 0C11.86 0 11.2639 0.29388 10.8646 0.807872L0.474522 21.481C0.466421 21.4897 0 22.3547 0 22.837C0 24.0295 0.942486 25 2.10063 25H22.8994C24.0583 25 25 24.0295 25 22.837C25 22.3547 24.5343 21.4897 24.527 21.481" fill="#D3222A"/>
</svg>
