<?xml version="1.0" encoding="UTF-8"?>
<svg width="11px" height="11px" viewBox="0 0 11 11" version="1.1" xmlns="http://www.w3.org/2000/svg" xmlns:xlink="http://www.w3.org/1999/xlink">
    <!-- Generator: Sketch 57.1 (83088) - https://sketch.com -->
    <title>Shape</title>
    <desc>Created with Sketch.</desc>
    <g id="Symbols" stroke="none" stroke-width="1" fill="none" fill-rule="evenodd">
        <g id="Info_expediente-/-nombre" transform="translate(-813.000000, -33.000000)" fill="#FFFFFF" fill-rule="nonzero">
            <path d="M821.873077,33 C821.422334,33 820.998605,33.1754826 820.679877,33.4941988 L813.989294,40.1843698 C813.943546,40.2301151 813.910546,40.2871106 813.893298,40.3493548 L813.013584,43.5253046 C812.977586,43.6557925 813.014335,43.795269 813.109581,43.890511 C813.180828,43.9617534 813.276825,44 813.375069,44 C813.408069,44 813.441818,43.9955003 813.474816,43.9865014 L816.650961,43.1068422 C816.713209,43.0895938 816.770206,43.0565968 816.815956,43.0108515 L823.505771,36.3214484 C823.824518,36.0027207 824,35.5790175 824,35.1283218 C824,34.6776068 823.824507,34.2539037 823.505771,33.9351952 L823.06553,33.4949817 C822.747551,33.1755053 822.323802,33 821.873079,33 L821.873077,33 Z M814.806763,40.4279559 L820.281645,34.9526438 L822.047829,36.7187199 L816.57218,42.1932641 L814.806763,40.4279559 Z M814.453534,41.1358876 L815.864243,42.54651 L813.912823,43.0872067 L814.453534,41.1358876 Z M823.250667,35.1274429 C823.250667,35.3779212 823.153171,35.6133865 822.976175,35.7903742 L822.578691,36.1878335 L820.812506,34.4217573 L821.20999,34.0242981 C821.386983,33.8473161 821.622468,33.7498221 821.872962,33.7498221 C822.123456,33.7498221 822.358935,33.8473122 822.535934,34.0242981 L822.976175,34.4645116 C823.153169,34.6414955 823.250667,34.8769646 823.250667,35.1274429 L823.250667,35.1274429 Z" id="Shape"></path>
        </g>
    </g>
</svg>