<svg width="57" height="56" viewBox="0 0 57 56" fill="none" xmlns="http://www.w3.org/2000/svg">
<path d="M29.9395 37.2282V33.5322C29.9395 32.6362 29.2037 31.9082 28.2982 31.9082C27.3926 31.9082 26.6569 32.6362 26.6569 33.5322V37.2282C25.6835 37.7882 25.0156 38.8298 25.0156 40.0282C25.0156 41.8202 26.4871 43.2762 28.2982 43.2762C30.1092 43.2762 31.5807 41.8202 31.5807 40.0282C31.5807 38.8298 30.9242 37.7882 29.9395 37.2282Z" fill="#004571"/>
<path d="M41.4396 24.7521H18.4504V18.2337C18.4504 12.8577 22.8649 8.47847 28.3094 8.47847C31.0486 8.47847 33.5389 9.59847 35.3273 11.3905C35.3273 11.3905 36.5724 12.6673 37.7496 11.3681C38.7004 10.3041 37.7043 9.15047 37.7043 9.15047C35.316 6.73127 31.9881 5.23047 28.3207 5.23047C21.0765 5.23047 15.1792 11.0657 15.1792 18.2337V24.7521C12.4626 24.7521 10.2554 26.9361 10.2554 29.6241V45.8865C10.2554 48.5745 12.4626 50.7585 15.1792 50.7585H41.4623C44.1789 50.7585 46.3861 48.5745 46.3861 45.8865V29.6241C46.3635 26.9361 44.1562 24.7521 41.4396 24.7521ZM43.0809 45.8865C43.0809 46.7825 42.3452 47.5105 41.4396 47.5105H15.1566C14.251 47.5105 13.5153 46.7825 13.5153 45.8865V29.6241C13.5153 28.7281 14.251 28.0001 15.1566 28.0001H41.4396C42.3452 28.0001 43.0809 28.7281 43.0809 29.6241V45.8865Z" fill="#004571"/>
</svg>
