<svg width="16" height="16" viewBox="0 0 16 16" fill="none" xmlns="http://www.w3.org/2000/svg">
<path fill-rule="evenodd" clip-rule="evenodd" d="M5.05369 13.927C4.94783 13.8214 4.88965 13.681 4.88965 13.5318C4.88965 13.3831 4.94783 13.2429 5.05325 13.1372C5.05588 13.1344 5.05872 13.1313 5.06134 13.1283L5.84218 12.3477C5.83671 12.3774 5.83408 12.4076 5.83408 12.4382C5.83452 12.5701 5.88592 12.6941 5.97931 12.7871L6.48215 13.2897L5.84436 13.9273C5.63373 14.1381 5.26432 14.1381 5.05369 13.927M15 4.65571C15 3.67934 14.6196 2.76137 13.9289 2.07131C13.2139 1.35522 12.2236 0.966989 11.2249 1.0022L5.52919 1.00089C5.45614 0.997829 5.38571 1.01095 5.30829 1.04398C5.30522 1.04507 5.28598 1.05426 5.28357 1.05579C5.27329 1.06082 5.26564 1.06541 5.25492 1.07198C5.25142 1.07394 5.24158 1.08007 5.23873 1.08204L5.20483 1.10631C5.18602 1.12075 5.16809 1.13715 5.15846 1.14809L3.42729 2.87839C2.82428 3.48205 2.82428 4.46411 3.42773 5.06799C3.71994 5.35955 4.10926 5.51987 4.52264 5.51987C4.93668 5.51987 5.32578 5.35911 5.61756 5.06734L6.40911 4.27557L10.1236 7.99097C10.3102 8.1782 10.6383 8.17754 10.8229 7.99097C10.9165 7.89758 10.9677 7.77356 10.9677 7.64146C10.9677 7.50957 10.9165 7.38534 10.8229 7.29216L6.75906 3.22703C6.66501 3.13341 6.54121 3.0818 6.40867 3.0818H6.40823C6.27765 3.08201 6.15452 3.13276 6.06134 3.22484C6.06025 3.22615 6.05893 3.22746 6.05762 3.22899V3.22899L4.91831 4.36809C4.70002 4.58659 4.34504 4.58659 4.12676 4.36875C3.90935 4.15046 3.90935 3.79548 4.12676 3.57763L5.71489 1.98929L11.2437 1.99104C11.9814 1.96239 12.7076 2.2476 13.2301 2.77034C13.7338 3.27383 14.0114 3.94333 14.0114 4.65571C14.0114 5.36764 13.7338 6.03714 13.2271 6.54436L11.3012 8.46975L11.2962 8.47522C11.1092 8.66791 11.1103 8.97762 11.3106 9.17819L12.2848 10.1528C12.2863 10.1541 12.2877 10.1554 12.289 10.1567V10.157C12.3942 10.2615 12.4521 10.4017 12.4526 10.5511C12.4526 10.7007 12.3946 10.8411 12.2894 10.9463C12.0788 11.1569 11.7126 11.1598 11.4987 10.9476L9.5438 8.99315C9.3568 8.80658 9.03287 8.80571 8.84456 8.9938C8.6523 9.18693 8.65274 9.50036 8.84499 9.69262L10.8001 11.6475C11.0164 11.8656 11.0156 12.2195 10.7977 12.4371C10.6934 12.5421 10.5534 12.6003 10.4038 12.6005C10.2542 12.6005 10.1142 12.5423 10.0081 12.4365L8.05432 10.4829C7.86753 10.2956 7.5412 10.2963 7.35485 10.4824C7.26146 10.576 7.21006 10.7003 7.21006 10.8324C7.21006 10.9643 7.26146 11.0883 7.35485 11.1819L9.30846 13.1355C9.52674 13.3538 9.52674 13.7088 9.3089 13.9268C9.09543 14.1401 8.74679 14.144 8.5285 13.9371C8.52457 13.9325 8.52041 13.9284 8.51822 13.9262L6.67791 12.0865C6.54887 11.9583 6.36646 11.9157 6.20285 11.9588C6.39205 11.697 6.49419 11.3831 6.49419 11.0535C6.49419 10.6399 6.33321 10.2512 6.04056 9.95902C5.89358 9.81182 5.71839 9.69699 5.52788 9.62C5.67311 9.38072 5.75098 9.10535 5.75098 8.81773C5.75098 8.4037 5.58978 8.01481 5.29757 7.72304C5.00536 7.43061 4.61713 7.26941 4.20266 7.26941C3.78927 7.26985 3.40039 7.43105 3.10796 7.72326L2.71055 8.12002L1.76567 7.17493C0.728503 6.13535 0.729377 4.44442 1.76786 3.40638C2.09375 3.0807 2.49904 2.84405 2.93955 2.72222C3.06684 2.68722 3.17314 2.60455 3.23854 2.48928C3.3035 2.37467 3.32012 2.24147 3.28512 2.11418C3.21295 1.85346 2.9413 1.69839 2.67686 1.76904C2.07145 1.93592 1.51568 2.26028 1.06839 2.70669C-0.356131 4.13209 -0.356131 6.45118 1.06839 7.87658L2.36409 9.17162C2.38728 9.1935 2.41155 9.2134 2.4389 9.23155C2.63377 9.35994 2.89558 9.33326 3.06094 9.16812L3.80677 8.42251C3.91219 8.31708 4.05327 8.25869 4.20309 8.25847C4.3527 8.25847 4.4929 8.31643 4.59832 8.42207C4.70374 8.52749 4.76192 8.66813 4.76192 8.81773C4.76192 8.96734 4.70374 9.10798 4.59832 9.2134L2.85971 10.9514C2.64777 11.1583 2.28339 11.1561 2.07363 10.9463C1.96821 10.8411 1.91047 10.7007 1.91047 10.5511C1.91047 10.4015 1.96821 10.2611 2.07276 10.1563C2.16681 10.0629 2.21843 9.93868 2.21843 9.80635C2.21843 9.67381 2.16681 9.54957 2.07363 9.45662C1.88094 9.26414 1.56751 9.26392 1.37482 9.45662C1.08261 9.74861 0.921851 10.1373 0.921851 10.5511C0.921851 10.9649 1.08261 11.3538 1.37482 11.6454C1.65325 11.9244 2.02026 12.0841 2.4133 12.0981C2.4273 12.4855 2.58588 12.8568 2.86431 13.1346C2.95748 13.2284 3.08128 13.2801 3.21382 13.2801H3.21426C3.34615 13.2801 3.4706 13.2287 3.56399 13.1353C3.65717 13.0419 3.70857 12.9179 3.70857 12.7858C3.70857 12.6539 3.65717 12.5296 3.56399 12.4365C3.3479 12.2204 3.34615 11.8674 3.56377 11.6456L4.56748 10.6419C4.78926 10.4389 5.12937 10.4463 5.34109 10.6587C5.44717 10.7646 5.50557 10.905 5.50557 11.0539C5.50557 11.2016 5.44849 11.3405 5.35312 11.4384C5.34897 11.4422 5.34503 11.4457 5.34109 11.4496L4.35488 12.4365C4.06224 12.7291 3.90104 13.1178 3.90104 13.5312C3.90104 13.945 4.06224 14.3339 4.35488 14.6261C4.64709 14.9178 5.03532 15.0786 5.44936 15.0786C5.86274 15.0786 6.25163 14.9181 6.54406 14.6261L7.18184 13.9883L7.80476 14.6112C7.80913 14.6158 7.81285 14.6206 7.81591 14.6234C8.10987 14.917 8.49985 15.0786 8.91302 15.0786C9.3264 15.0786 9.71506 14.9183 10.0077 14.6265C10.2868 14.3474 10.4456 13.9754 10.4598 13.588C10.8533 13.574 11.2201 13.4141 11.4979 13.1353C11.7767 12.8566 11.9349 12.485 11.9489 12.0981C12.341 12.0841 12.7085 11.9249 12.9878 11.6458C13.28 11.354 13.4412 10.9651 13.4412 10.5507C13.4412 10.1371 13.2795 9.74839 12.9869 9.45618C12.9845 9.45334 12.9814 9.45071 12.9788 9.44809L12.35 8.81948L13.9294 7.24032C14.6201 6.54961 15 5.63207 15 4.65571" fill="#0066CC"/>
</svg>
