<?xml version="1.0" encoding="UTF-8"?>
<svg width="54px" height="62px" viewBox="0 0 54 62" version="1.1" xmlns="http://www.w3.org/2000/svg" xmlns:xlink="http://www.w3.org/1999/xlink">
    <title>Fill 1</title>
    <g id="Mi-conexión-a-la-red" stroke="none" stroke-width="1" fill="none" fill-rule="evenodd">
        <g id="1-03_UFD_Mis-suministros" transform="translate(-278.000000, -517.000000)" fill="#004571">
            <path d="M327.659337,537.572229 C327.65726,537.573263 327.476572,537.690104 326.88051,537.690104 L325.769383,537.690104 C324.620873,537.690104 323.692511,538.616557 323.692511,539.75808 L323.692511,553.014843 C323.692511,555.638071 322.114088,558.351256 319.473345,558.351256 L317.44528,558.351256 C316.297808,558.351256 315.368408,559.276675 315.368408,560.419232 L315.368408,562.387946 C314.242743,562.538908 312.37875,562.528568 311.240624,562.366232 L311.240624,560.424402 C311.240624,559.281845 310.312262,558.356426 309.163752,558.356426 L307.044304,558.356426 C304.339178,558.356426 302.92379,555.668056 302.92379,553.014843 L302.92379,539.75808 C302.92379,538.616557 301.994389,537.690104 300.846917,537.690104 L299.79602,537.690104 C299.13869,537.690104 298.946579,537.553617 298.946579,537.553617 C298.736815,537.318902 298.736815,536.075014 298.736815,535.543544 C298.736815,533.813682 299.51045,533.475568 300.846917,533.475568 L325.736154,533.475568 C326.831704,533.475568 327.846256,533.729929 327.846256,535.574564 C327.846256,536.143257 327.846256,537.32614 327.659337,537.572229 M325.736154,529.339615 L323.652012,529.339615 L323.652012,518.872553 C323.652012,517.54181 322.726766,517 321.584486,517 C320.443245,517 319.520075,517.54181 319.520075,518.872553 L319.520075,529.339615 L307.099341,529.339615 L307.099341,518.872553 C307.099341,517.54181 306.17721,517 305.035969,517 C303.89265,517 302.970519,517.54181 302.970519,518.872553 L302.970519,529.339615 L300.846917,529.339615 C296.982897,529.339615 294.583071,531.716754 294.583071,535.543544 C294.583071,537.290984 294.583071,541.218071 298.770045,541.762983 L298.770045,553.014843 C298.770045,558.417431 302.326689,562.492379 307.044304,562.492379 L307.08688,562.492379 L307.08688,563.621494 C307.08688,565.65328 309.255134,566.313999 311.148203,566.530102 C310.735944,570.896635 308.79303,574.823722 305.012085,574.823722 C302.892637,574.823722 301.925853,573.790767 300.258124,571.81068 C298.301711,569.487309 295.867616,566.59421 290.36079,566.59421 C286.770916,566.59421 283.503996,568.292018 280.907906,571.501518 C279.04599,573.804209 278.168512,576.115173 278.131128,576.213402 C277.73133,577.280478 278.276509,578.466462 279.348175,578.86765 C279.589092,578.957606 279.834163,579 280.078196,579 C280.915175,579 281.706463,578.48921 282.023186,577.662019 C282.049147,577.592742 284.728312,570.730162 290.36079,570.730162 C293.928856,570.730162 295.317245,572.380408 297.075318,574.469064 C298.759661,576.468797 300.856263,578.959674 305.012085,578.959674 C309.846005,578.959674 314.719385,575.102899 315.321678,566.545612 C315.796243,566.501151 316.23654,566.438077 316.617646,566.359494 C319.1452,565.835262 319.522152,564.419732 319.522152,563.621494 L319.522152,562.487209 C324.193038,562.457223 327.846256,558.307828 327.846256,553.014843 L327.846256,541.766085 C329.912743,541.493112 330.912757,540.351589 331.39563,539.373437 C332,538.147127 332,536.721257 332,535.574564 C332,531.787065 329.540983,529.339615 325.736154,529.339615" id="Fill-1"></path>
        </g>
    </g>
</svg>