<svg width="27" height="27" viewBox="0 0 27 27" fill="none" xmlns="http://www.w3.org/2000/svg">
<path fill-rule="evenodd" clip-rule="evenodd" d="M13.5 0C9.77342 0 6.59181 1.31835 3.95508 3.95508C1.31835 6.59181 0 9.77342 0 13.5C0 17.2266 1.31835 20.4082 3.95508 23.0449C6.59181 25.6817 9.77342 27 13.5 27C17.2266 27 20.4082 25.6817 23.0449 23.0449C25.6817 20.4082 27 17.2266 27 13.5C27 9.77342 25.6817 6.59181 23.0449 3.95508C20.4082 1.31835 17.2266 0 13.5 0ZM13.5 25.3125C10.2305 25.3125 7.44435 24.1611 5.1416 21.8584C2.83886 19.5557 1.6875 16.7695 1.6875 13.5C1.6875 10.2305 2.83886 7.44435 5.1416 5.1416C7.44435 2.83885 10.2305 1.6875 13.5 1.6875C16.7695 1.6875 19.5557 2.83885 21.8584 5.1416C24.1611 7.44435 25.3125 10.2305 25.3125 13.5C25.3125 16.7695 24.1611 19.5557 21.8584 21.8584C19.5557 24.1611 16.7695 25.3125 13.5 25.3125ZM13.5 10.125C13.043 10.125 12.6475 10.292 12.3135 10.626C11.9795 10.96 11.8125 11.3555 11.8125 11.8125V20.25C11.8125 20.707 11.9795 21.1025 12.3135 21.4365C12.6475 21.7705 13.043 21.9375 13.5 21.9375C13.957 21.9375 14.3525 21.7705 14.6865 21.4365C15.0205 21.1025 15.1875 20.707 15.1875 20.25V11.8125C15.1875 11.3555 15.0205 10.96 14.6865 10.626C14.3525 10.292 13.957 10.125 13.5 10.125ZM11.8125 6.72363C11.8125 7.19824 11.9795 7.60254 12.3135 7.93652C12.6475 8.27051 13.043 8.4375 13.5 8.4375C13.957 8.4375 14.3525 8.27051 14.6865 7.93652C15.0205 7.60254 15.1875 7.19824 15.1875 6.72363C15.1875 6.24902 15.0205 5.85352 14.6865 5.53711C14.3525 5.2207 13.957 5.0625 13.5 5.0625C13.043 5.0625 12.6475 5.2207 12.3135 5.53711C11.9795 5.85352 11.8125 6.24902 11.8125 6.72363Z" fill="#124571"/>
</svg>
