<?xml version="1.0" encoding="UTF-8"?>
<svg width="30px" height="26px" viewBox="0 0 30 26" version="1.1" xmlns="http://www.w3.org/2000/svg" xmlns:xlink="http://www.w3.org/1999/xlink">
    <!-- Generator: Sketch 63.1 (92452) - https://sketch.com -->
    <title>Group 3</title>
    <desc>Created with Sketch.</desc>
    <defs>
        <polygon id="path-1" points="0 0 30 0 30 25.0909091 0 25.0909091"></polygon>
    </defs>
    <g id="1-CUPS" stroke="none" stroke-width="1" fill="none" fill-rule="evenodd">
        <g id="SR01_08-Seleccionado-confirmar-PS" transform="translate(-471.000000, -806.000000)">
            <g id="Group-4" transform="translate(0.000000, 547.000000)">
                <g id="Group" transform="translate(471.000000, 259.000000)">
                    <g id="Group-3">
                        <mask id="mask-2" fill="white">
                            <use xlink:href="#path-1"></use>
                        </mask>
                        <g id="Clip-2"></g>
                        <path d="M26.9689003,1.82277433 L10.5677778,1.82277433 L10.5677778,9.60763886 L10.5677778,23.2681348 L14.7500988,23.2681348 L14.7500988,13.7810623 C14.7500988,13.7739235 14.7513248,13.7675779 14.7513248,13.7600425 C14.7513248,13.7429887 14.7525508,13.7251417 14.7529594,13.7076913 C14.7550028,13.6938103 14.7566375,13.6795327 14.7582721,13.6656517 C14.7599068,13.6509775 14.7631762,13.6370965 14.7652195,13.6220257 C14.7684889,13.6065583 14.7709409,13.5906943 14.7754363,13.5744337 C14.7782969,13.5625357 14.7815663,13.5506376 14.784427,13.538343 C14.7889223,13.5216858 14.7950524,13.5054252 14.8007737,13.488768 C14.8036344,13.4776632 14.8085385,13.4661618 14.8130338,13.4546604 C14.8195725,13.439193 14.8261112,13.423329 14.8334673,13.4078616 C14.8383713,13.3959636 14.8453187,13.3844622 14.8506314,13.371771 C14.8579874,13.3582866 14.8653435,13.3448022 14.8731082,13.3313178 C14.8804642,13.31823 14.8890463,13.3055388 14.898037,13.2924509 C14.9045757,13.2809495 14.9119318,13.2698447 14.9201052,13.2587399 C14.9303219,13.2452555 14.9405386,13.2321677 14.9507554,13.2190799 C14.9593374,13.2087683 14.9675108,13.1996465 14.9752755,13.1905247 C14.9867182,13.1774369 14.9985697,13.1647457 15.0104211,13.1528477 C15.0190031,13.1429327 15.0292199,13.1342075 15.0394366,13.1246891 C15.051288,13.1143775 15.0623221,13.1032727 15.0745821,13.0929611 C15.0864335,13.0834427 15.098285,13.0735277 15.110545,13.0644059 C15.1223964,13.0560773 15.1330218,13.0477486 15.1444646,13.0398166 C15.159994,13.0291084 15.1751148,13.0191934 15.1910529,13.0100716 C15.1971829,13.0061056 15.2020869,13.001743 15.208217,12.9989668 L21.2900326,9.48033021 C21.5863178,9.30860234 21.9553461,9.30860234 22.2524486,9.48033021 L26.9689003,12.2085427 L26.9689003,1.82277433 Z M24.4437331,12.8696752 L21.7706276,11.3237278 L19.0979308,12.8696752 L24.4437331,12.8696752 Z M16.6275252,23.2685314 L26.9145473,23.2685314 L26.9145473,14.6924495 L16.6275252,14.6924495 L16.6275252,23.2685314 Z M1.87824381,23.2681348 L8.68994265,23.2681348 L8.68994265,10.5186294 L1.87824381,10.5186294 L1.87824381,23.2681348 Z M30,0.911387167 C30,1.41506937 29.5794794,1.82277433 29.0608781,1.82277433 L28.8471441,1.82277433 L28.8471441,24.1795219 C28.8471441,24.6832041 28.4249888,25.0909091 27.9072048,25.0909091 L27.8528518,25.0909091 L15.688812,25.0909091 L9.62783855,25.0909091 L0.939530575,25.0909091 C0.420520645,25.0909091 0,24.6832041 0,24.1795219 L0,9.60763886 C0,9.10395666 0.420520645,8.6962517 0.939530575,8.6962517 L8.68953398,8.6962517 L8.68953398,1.82277433 L8.47498263,1.82277433 C7.9559727,1.82277433 7.53626939,1.41506937 7.53626939,0.911387167 C7.53626939,0.408498164 7.9559727,0 8.47498263,0 L9.62783855,0 L27.9072048,0 L29.0608781,0 C29.5794794,0 30,0.408498164 30,0.911387167 L30,0.911387167 Z M20.3002357,19.2549377 C19.7812257,19.2549377 19.3611138,19.6630393 19.3611138,20.1659283 L19.3611138,20.9075706 C19.3611138,21.4112528 19.7812257,21.8185612 20.3002357,21.8185612 C20.8184283,21.8185612 21.2389489,21.4112528 21.2389489,20.9075706 L21.2389489,20.1659283 C21.2389489,19.6630393 20.8184283,19.2549377 20.3002357,19.2549377 L20.3002357,19.2549377 Z M20.3002357,16.1420231 C19.7812257,16.1420231 19.3611138,16.5505213 19.3611138,17.0530137 L19.3611138,17.7942594 C19.3611138,18.2983382 19.7812257,18.7060431 20.3002357,18.7060431 C20.8184283,18.7060431 21.2389489,18.2983382 21.2389489,17.7942594 L21.2389489,17.0530137 C21.2389489,16.5505213 20.8184283,16.1420231 20.3002357,16.1420231 L20.3002357,16.1420231 Z M23.2430628,19.2549377 C22.7240529,19.2549377 22.3043496,19.6630393 22.3043496,20.1659283 L22.3043496,20.9075706 C22.3043496,21.4112528 22.7240529,21.8185612 23.2430628,21.8185612 C23.7608468,21.8185612 24.1825934,21.4112528 24.1825934,20.9075706 L24.1825934,20.1659283 C24.1825934,19.6630393 23.7608468,19.2549377 23.2430628,19.2549377 L23.2430628,19.2549377 Z M23.2430628,16.1420231 C22.7240529,16.1420231 22.3043496,16.5505213 22.3043496,17.0530137 L22.3043496,17.7942594 C22.3043496,18.2983382 22.7240529,18.7060431 23.2430628,18.7060431 C23.7608468,18.7060431 24.1825934,18.2983382 24.1825934,17.7942594 L24.1825934,17.0530137 C24.1825934,16.5505213 23.7608468,16.1420231 23.2430628,16.1420231 L23.2430628,16.1420231 Z M20.7505892,9.28044373 C21.2700078,9.28044373 21.6905284,8.87234217 21.6905284,8.36905657 L21.6905284,7.62781087 C21.6905284,7.12452527 21.2700078,6.7164237 20.7505892,6.7164237 C20.2328052,6.7164237 19.8122846,7.12452527 19.8122846,7.62781087 L19.8122846,8.36905657 C19.8122846,8.87234217 20.2328052,9.28044373 20.7505892,9.28044373 L20.7505892,9.28044373 Z M20.7505892,6.16752908 C21.2700078,6.16752908 21.6905284,5.75942752 21.6905284,5.25653851 L21.6905284,4.51529282 C21.6905284,4.01200721 21.2700078,3.60390565 20.7505892,3.60390565 C20.2328052,3.60390565 19.8122846,4.01200721 19.8122846,4.51529282 L19.8122846,5.25653851 C19.8122846,5.75942752 20.2328052,6.16752908 20.7505892,6.16752908 L20.7505892,6.16752908 Z M23.693825,9.28044373 C24.2124263,9.28044373 24.6329469,8.87234217 24.6329469,8.36905657 L24.6329469,7.62781087 C24.6329469,7.12452527 24.2124263,6.7164237 23.693825,6.7164237 C23.1752237,6.7164237 22.7547031,7.12452527 22.7547031,7.62781087 L22.7547031,8.36905657 C22.7547031,8.87234217 23.1752237,9.28044373 23.693825,9.28044373 L23.693825,9.28044373 Z M23.693825,6.16752908 C24.2124263,6.16752908 24.6329469,5.75942752 24.6329469,5.25653851 L24.6329469,4.51529282 C24.6329469,4.01200721 24.2124263,3.60390565 23.693825,3.60390565 C23.1752237,3.60390565 22.7547031,4.01200721 22.7547031,4.51529282 L22.7547031,5.25653851 C22.7547031,5.75942752 23.1752237,6.16752908 23.693825,6.16752908 L23.693825,6.16752908 Z M13.8420357,9.28044373 C14.3598196,9.28044373 14.7815663,8.87234217 14.7815663,8.36905657 L14.7815663,7.62781087 C14.7815663,7.12452527 14.3598196,6.7164237 13.8420357,6.7164237 C13.3238431,6.7164237 12.9033225,7.12452527 12.9033225,7.62781087 L12.9033225,8.36905657 C12.9033225,8.87234217 13.3238431,9.28044373 13.8420357,9.28044373 L13.8420357,9.28044373 Z M13.8420357,6.16752908 C14.3598196,6.16752908 14.7815663,5.75942752 14.7815663,5.25653851 L14.7815663,4.51529282 C14.7815663,4.01200721 14.3598196,3.60390565 13.8420357,3.60390565 C13.3238431,3.60390565 12.9033225,4.01200721 12.9033225,4.51529282 L12.9033225,5.25653851 C12.9033225,5.75942752 13.3238431,6.16752908 13.8420357,6.16752908 L13.8420357,6.16752908 Z M16.7844542,9.28044373 C17.3038728,9.28044373 17.7231675,8.87234217 17.7231675,8.36905657 L17.7231675,7.62781087 C17.7231675,7.12452527 17.3038728,6.7164237 16.7844542,6.7164237 C16.265853,6.7164237 15.8461497,7.12452527 15.8461497,7.62781087 L15.8461497,8.36905657 C15.8461497,8.87234217 16.265853,9.28044373 16.7844542,9.28044373 L16.7844542,9.28044373 Z M16.7844542,6.16752908 C17.3038728,6.16752908 17.7231675,5.75942752 17.7231675,5.25653851 L17.7231675,4.51529282 C17.7231675,4.01200721 17.3038728,3.60390565 16.7844542,3.60390565 C16.265853,3.60390565 15.8461497,4.01200721 15.8461497,4.51529282 L15.8461497,5.25653851 C15.8461497,5.75942752 16.265853,6.16752908 16.7844542,6.16752908 L16.7844542,6.16752908 Z M3.81206664,14.8376052 C3.29346538,14.8376052 2.87294473,15.2449135 2.87294473,15.7485957 L2.87294473,16.4898414 C2.87294473,16.993127 3.29346538,17.4012286 3.81206664,17.4012286 C4.33148524,17.4012286 4.75118855,16.993127 4.75118855,16.4898414 L4.75118855,15.7485957 C4.75118855,15.2449135 4.33148524,14.8376052 3.81206664,14.8376052 L3.81206664,14.8376052 Z M3.81206664,11.7246905 C3.29346538,11.7246905 2.87294473,12.1327921 2.87294473,12.6356811 L2.87294473,13.3769268 C2.87294473,13.8802124 3.29346538,14.2883139 3.81206664,14.2883139 C4.33148524,14.2883139 4.75118855,13.8802124 4.75118855,13.3769268 L4.75118855,12.6356811 C4.75118855,12.1327921 4.33148524,11.7246905 3.81206664,11.7246905 L3.81206664,11.7246905 Z M6.75489381,14.8376052 C6.23710989,14.8376052 5.81618058,15.2449135 5.81618058,15.7485957 L5.81618058,16.4898414 C5.81618058,16.993127 6.23710989,17.4012286 6.75489381,17.4012286 C7.27390374,17.4012286 7.69360705,16.993127 7.69360705,16.4898414 L7.69360705,15.7485957 C7.69360705,15.2449135 7.27390374,14.8376052 6.75489381,14.8376052 L6.75489381,14.8376052 Z M7.69360705,12.6356811 L7.69360705,13.3769268 C7.69360705,13.8802124 7.27390374,14.2883139 6.75489381,14.2883139 C6.23710989,14.2883139 5.81618058,13.8802124 5.81618058,13.3769268 L5.81618058,12.6356811 C5.81618058,12.1327921 6.23710989,11.7246905 6.75489381,11.7246905 C7.27390374,11.7246905 7.69360705,12.1327921 7.69360705,12.6356811 L7.69360705,12.6356811 Z" id="Fill-1" fill="#555555" opacity="0.6" mask="url(#mask-2)"></path>
                    </g>
                </g>
            </g>
        </g>
    </g>
</svg>