<?xml version="1.0" encoding="UTF-8"?>
<svg width="15px" height="17px" viewBox="0 0 15 17" version="1.1" xmlns="http://www.w3.org/2000/svg" xmlns:xlink="http://www.w3.org/1999/xlink">
    <title>propietario</title>
    <g id="Mi-conexión-a-la-red" stroke="none" stroke-width="1" fill="none" fill-rule="evenodd">
        <g id="2-05_UFD_TEN_A_MANO_NU_01.3-" transform="translate(-592.000000, -832.000000)" fill="#004571">
            <g id="Group" transform="translate(592.000000, 831.000000)">
                <path d="M5.43939847,1.52315803 C4.81540655,1.87172331 4.31176651,2.35301629 3.94122499,2.95308196 C3.56327263,3.56679254 3.37118391,4.2369434 3.37118391,4.94430763 C3.37118391,6.2182455 3.75951142,7.30425582 4.52549486,8.17101735 C5.30570709,9.05390467 6.28779034,9.50201572 7.44625135,9.50201572 C8.60263733,9.50201572 9.58649918,9.05390467 10.3658221,8.17101735 C11.132102,7.3036356 11.5198366,6.2182455 11.5198366,4.94430763 C11.5198366,4.23756362 11.3283408,3.56741276 10.9492027,2.95308196 C10.5801433,2.35301629 10.0762069,1.87172331 9.45251137,1.52315803 C8.83237308,1.1758332 8.15798751,1 7.44625135,1 C6.7345152,1 6.05894389,1.1758332 5.43939847,1.52315803 M5.51973187,7.20967183 C4.98555921,6.60433426 4.72499441,5.8637881 4.72499441,4.94430763 C4.72499441,4.50674036 4.84119623,4.10669658 5.07923211,3.72029771 C5.32645741,3.3196337 5.65371968,3.00952225 6.07791562,2.77166676 C6.50537232,2.53257082 6.95328291,2.41658914 7.44625135,2.41658914 C7.93892336,2.41658914 8.38653752,2.53257082 8.81399422,2.77166676 C9.23789372,3.00952225 9.56485956,3.3196337 9.81178843,3.72091793 C10.05101,4.10731681 10.1672119,4.50736059 10.1672119,4.94430763 C10.1672119,5.8637881 9.90575776,6.60433426 9.37188153,7.20967183 C8.85104837,7.7988836 8.22112778,8.0857367 7.44625135,8.0857367 C6.67078205,8.0857367 6.0402686,7.7988836 5.51973187,7.20967183 M2.3689432,12.1882012 C1.03914379,13.0794615 0.282646216,14.3778982 0.119311514,16.0462978 L0.00340612546,17.2194495 C-0.0336480267,17.6080191 0.235809768,17.9559642 0.607537023,17.9956584 C0.63214098,17.9987596 0.655262771,18 0.678088128,18 C1.02076493,18 1.31482668,17.7277221 1.3506951,17.3642715 L1.46600762,16.1904996 C1.58695237,14.9550156 2.12142146,14.0370857 3.09876178,13.3805797 C4.13538874,12.6865503 5.61666553,12.3345738 7.49960933,12.3345738 C9.38522103,12.3345738 10.8662014,12.6853098 11.9025319,13.3777887 C12.8801687,14.029643 13.4140449,14.9475729 13.5352861,16.1821266 L13.6503022,17.3630311 C13.6876527,17.7516007 14.0196579,18.0356628 14.3913852,17.9956584 C14.7634089,17.9559642 15.0346453,17.6092596 14.9964054,17.2194495 L14.8819822,16.0376147 C14.7177582,14.3685948 13.9606677,13.0713986 12.6302755,12.1835495 C11.3731022,11.3440778 9.64726799,10.9176745 7.49960933,10.9176745 C5.35283997,10.9176745 3.62641291,11.3459385 2.3689432,12.1882012" id="propietario"></path>
            </g>
        </g>
    </g>
</svg>