<?xml version="1.0" encoding="UTF-8"?>
<svg width="15px" height="22px" viewBox="0 0 15 22" version="1.1" xmlns="http://www.w3.org/2000/svg" xmlns:xlink="http://www.w3.org/1999/xlink">
    <title>autorizacion</title>
    <g id="Mi-conexión-a-la-red" stroke="none" stroke-width="1" fill="none" fill-rule="evenodd">
        <g id="2-05_UFD_TEN_A_MANO_NU_01.3-" transform="translate(-592.000000, -553.000000)" fill="#004571">
            <path d="M605.627449,570.10398 L602.880267,570.10398 C602.501397,570.10398 602.194734,570.41702 602.194734,570.803325 L602.194734,573.600705 L594.023614,573.600705 C593.664355,573.600705 593.371957,573.302802 593.371957,572.937386 L593.371957,555.063219 C593.371957,554.697198 593.664355,554.399598 594.023614,554.399598 L604.975495,554.399598 C605.33505,554.399598 605.627449,554.697198 605.627449,555.063219 L605.627449,570.10398 Z M603.566988,573.180189 L603.566988,571.50267 L604.884863,571.50267 L603.566988,573.180189 Z M604.975495,553 L594.023614,553 C592.907506,553 592,553.926102 592,555.063219 L592,572.937386 C592,574.0742 592.907506,575 594.023614,575 L603.566988,575 C603.776184,575 603.972602,574.903121 604.103053,574.737216 L606.849046,571.239886 C606.946215,571.116668 607,570.962872 607,570.803325 L607,555.063219 C607,553.926102 606.091602,553 604.975495,553 L604.975495,553 Z M602.747024,560.719285 L599.650092,565.538408 C599.648904,565.539619 599.646526,565.542949 599.645041,565.545976 C599.410289,565.929859 598.98952,566.152983 598.547356,566.128764 C598.517938,566.12725 598.488817,566.124525 598.459102,566.120287 C598.052893,566.068517 597.696607,565.810274 597.515937,565.430327 C597.512669,565.423061 597.509103,565.416703 597.506131,565.408832 L596.215595,563.079196 C596.07207,562.747385 596.219458,562.358659 596.545732,562.212129 C596.872303,562.066508 597.253848,562.216973 597.397373,562.549389 L598.622239,564.726138 L601.640722,560.040224 C601.776521,559.809531 602.029101,559.695093 602.275144,559.727184 C602.361021,559.738083 602.446304,559.767449 602.526536,559.816191 C602.831712,560.003289 602.930367,560.407456 602.747024,560.719285" id="autorizacion"></path>
        </g>
    </g>
</svg>