<svg width="73" height="75" viewBox="0 0 73 75" fill="none" xmlns="http://www.w3.org/2000/svg">
<path fill-rule="evenodd" clip-rule="evenodd" d="M33.3013 6.74547L37.7604 1.20979C38.3274 0.50601 39.043 0.61344 39.6414 1.09983C40.2393 1.58578 40.4922 2.26541 39.9253 2.9692L35.4661 8.50487L41.9735 13.7937L46.4327 8.25801C46.9997 7.55423 47.7136 7.66033 48.3115 8.14628C48.9105 8.63311 49.1628 9.3123 48.5959 10.0161L44.1367 15.5518L45.2493 16.456C47.2738 18.1013 47.5184 20.3804 45.8881 22.4042C45.1436 23.3284 43.4706 25.4053 41.0448 23.9106L36.2513 29.8614C33.9497 32.7186 30.3503 33.3593 27.8786 31.3505L27.8563 31.3324L27.3753 31.9295C26.5097 33.0041 25.0922 32.4302 24.0083 31.7384C22.3641 34.2233 21.709 37.1275 23.6899 38.7375C24.8003 39.6399 25.7469 39.5053 27.4642 39.1682L27.4665 39.1678C29.4809 38.7722 31.9879 38.2798 34.872 40.6237C36.7528 42.1523 37.7411 44.4413 37.7339 47.2441C37.7284 49.2508 37.2057 50.8442 37.1815 50.918L37.1814 50.9185C36.9362 51.653 36.1454 52.0481 35.413 51.804C35.2484 51.749 35.102 51.667 34.9741 51.5631C34.5356 51.2067 34.3386 50.5997 34.5251 50.0273C34.541 49.9796 36.0609 45.2095 33.11 42.8111C31.2409 41.2921 29.8107 41.5733 28.0002 41.9292L27.9992 41.9294L27.9975 41.9298C26.2634 42.2701 24.1045 42.6938 21.9279 40.9248C19.3953 38.8665 18.4851 34.7517 21.8151 29.9696C21.5854 29.744 21.3816 29.5231 21.2154 29.3193C20.1145 27.9658 20.5201 27.0567 20.8602 26.6345L21.3434 26.0346C18.909 24.0299 18.7627 20.2798 21.0176 17.4806L25.8099 11.5315C24.8435 10.5072 24.8059 9.47766 24.9696 8.75474C25.1754 7.84884 25.7828 7.09475 26.2713 6.4883C27.8849 4.48522 30.2159 4.23791 32.2093 5.85803L33.3013 6.74547ZM27.6941 9.3933L27.6943 9.39363C27.6971 9.40137 27.7471 9.53948 28.052 9.78727L28.6341 10.2604C29.2358 10.7494 29.3275 11.6347 28.8412 12.2384L23.1936 19.2495C22.076 20.6368 21.7471 22.7438 23.1306 23.8683L24.1932 24.7318C24.7944 25.2204 24.8871 26.1056 24.4003 26.7099L23.5616 27.751C24.087 28.3102 25.068 29.0984 25.7335 29.4972L26.5607 28.4702C27.0475 27.866 27.9281 27.7718 28.5299 28.2609L29.6403 29.1634C31.0576 30.3152 32.9444 29.4961 34.0747 28.0929L39.7224 21.0819C40.2087 20.4781 41.0903 20.3839 41.6915 20.8725L42.2421 21.32C42.5865 21.5999 42.7453 21.6095 42.7453 21.6095C42.9552 21.5747 43.4851 20.9169 43.7115 20.6358C44.4485 19.7209 44.1872 19.2127 43.487 18.6436L30.447 8.04562C29.873 7.57913 29.2331 7.28165 28.4473 8.25721C28.205 8.55798 27.701 9.18356 27.6941 9.3933Z" fill="#004571"/>
<path d="M0.955078 46.0883C0.955078 45.4208 1.4938 44.8796 2.15834 44.8796H7.69332C8.35786 44.8796 8.89658 45.4208 8.89658 46.0883C8.89658 46.7558 8.35786 47.2969 7.69332 47.2969H2.15834C1.49379 47.2969 0.955078 46.7558 0.955078 46.0883Z" fill="#004571"/>
<path fill-rule="evenodd" clip-rule="evenodd" d="M30.1741 73.8622C30.1533 74.3 30.4876 74.6737 30.9236 74.6886C31.3131 74.7018 31.7042 74.7085 32.0968 74.7085C37.4364 74.7085 42.4886 73.4724 46.9852 71.2696C47.3788 71.0768 47.5315 70.5959 47.3319 70.2044L40.5395 56.884C40.3383 56.4895 39.8567 56.3367 39.4564 56.5231C39.3098 56.5914 39.1621 56.6576 39.0134 56.7219C36.8916 57.6386 34.5534 58.1463 32.0972 58.1463C31.9746 58.1463 31.8522 58.1451 31.7302 58.1425L31.7292 58.1425C31.2848 58.1339 30.9036 58.474 30.8824 58.9201L30.1741 73.8622ZM33.6756 60.9865C35.4681 60.8485 37.1981 60.4774 38.8343 59.9028L43.7502 69.5433C40.465 70.8768 36.8998 71.6636 33.1634 71.7898L33.6756 60.9865Z" fill="#004571"/>
<path d="M57.8692 31.8266C58.5337 31.8266 59.0724 32.3677 59.0724 33.0352V34.6064H60.6367C61.3012 34.6064 61.8399 35.1475 61.8399 35.815C61.8399 36.4825 61.3012 37.0236 60.6367 37.0236H59.0724V38.5948C59.0724 39.2623 58.5337 39.8035 57.8692 39.8035C57.2046 39.8035 56.6659 39.2623 56.6659 38.5948V37.0236H55.1017C54.4371 37.0236 53.8984 36.4825 53.8984 35.815C53.8984 35.1475 54.4371 34.6064 55.1017 34.6064H56.6659V33.0352C56.6659 32.3677 57.2046 31.8266 57.8692 31.8266Z" fill="#004571"/>
<path fill-rule="evenodd" clip-rule="evenodd" d="M49.3795 43.4495L49.3811 43.4401C49.5309 42.5297 49.6111 41.5958 49.6161 40.6441C49.6163 40.6124 49.6164 40.5808 49.6164 40.5491C49.6163 40.5491 49.6162 40.5489 49.6161 40.5489H44.5509C43.8879 40.5489 43.5161 39.7816 43.9251 39.2575L57.245 22.1875C57.56 21.7837 58.1668 21.7787 58.4884 22.1771L72.2676 39.2471C72.689 39.7692 72.3191 40.5489 71.65 40.5489H66.105C66.1048 40.5489 66.1047 40.549 66.1047 40.5492C66.1047 52.1379 60.3594 62.3788 51.5738 68.5549C51.2208 68.8031 50.7365 68.7119 50.488 68.3583L41.9014 56.1397C41.6386 55.7658 41.7429 55.2484 42.1165 54.9863C42.2486 54.8936 42.3793 54.7992 42.5087 54.703C46.0865 52.0433 48.6204 48.0475 49.3795 43.4495ZM49.6161 37.6482H48.85L57.8985 26.0521L67.2591 37.6482H66.105C64.4693 37.6482 63.2169 38.9881 63.2169 40.5492C63.2169 50.3938 58.6884 59.1763 51.5993 64.9098L45.4023 56.0915C49.7466 52.3357 52.5042 46.7661 52.5042 40.5491C52.5042 38.947 51.2111 37.6482 49.6161 37.6482Z" fill="#004571"/>
<path fill-rule="evenodd" clip-rule="evenodd" d="M26.6964 73.4575C26.6323 73.8992 26.2199 74.2033 25.7831 74.1209C21.4118 73.2966 17.3355 71.6322 13.7267 69.301C13.364 69.0667 13.2648 68.5816 13.4969 68.2166L21.5139 55.6124C21.533 55.5824 21.5537 55.5541 21.5759 55.5276C21.8381 55.2143 22.3029 55.1477 22.6557 55.3748C22.7171 55.4143 22.7787 55.4535 22.8407 55.4923C24.4696 56.5124 26.2774 57.2714 28.206 57.7107L28.2072 57.711C28.6252 57.8062 28.9112 58.2029 28.8493 58.6289L26.6964 73.4575ZM17.097 67.9443L22.8853 58.844C23.7954 59.3071 24.7451 59.704 25.7278 60.028L24.1661 70.7844C21.6743 70.1269 19.3042 69.1665 17.097 67.9443Z" fill="#004571"/>
<path fill-rule="evenodd" clip-rule="evenodd" d="M11.0254 66.3043C10.7516 66.6619 10.2369 66.7215 9.89678 66.4269C7.01425 63.9297 4.55344 60.9548 2.63622 57.6247C2.42294 57.2542 2.54964 56.7829 2.91412 56.5614L15.6569 48.8143C16.0549 48.5723 16.5725 48.7247 16.7998 49.1325C17.6291 50.6204 18.6672 51.9749 19.8744 53.156C19.9278 53.2082 19.9815 53.26 20.0355 53.3116C20.3402 53.6022 20.3887 54.0778 20.1326 54.4124L11.0254 66.3043ZM6.23061 57.9357L15.4121 52.3537C15.8299 52.9485 16.2783 53.5198 16.755 54.0653L10.141 62.7018C8.68759 61.2484 7.37655 59.652 6.23061 57.9357Z" fill="#004571"/>
</svg>
