<?xml version="1.0" encoding="UTF-8"?>
<svg width="19px" height="18px" viewBox="0 0 19 18" version="1.1" xmlns="http://www.w3.org/2000/svg" xmlns:xlink="http://www.w3.org/1999/xlink">
    <title>esquema</title>
    <g id="Mi-conexión-a-la-red" stroke="none" stroke-width="1" fill="none" fill-rule="evenodd">
        <g id="2-05_UFD_TEN_A_MANO_NU_01.3-" transform="translate(-590.000000, -702.000000)" fill="#004571">
            <path d="M604.96796,718.835007 L607.821826,718.835007 L607.821826,716.01867 L604.96796,716.01867 L604.96796,718.835007 Z M598.074564,718.835007 L600.92843,718.835007 L600.92843,716.01867 L598.074564,716.01867 L598.074564,718.835007 Z M591.181168,718.835007 L594.035034,718.835007 L594.035034,716.01867 L591.181168,716.01867 L591.181168,718.835007 Z M598.074265,705.982217 L600.928131,705.982217 L600.928131,703.165881 L598.074265,703.165881 L598.074265,705.982217 Z M608.409863,714.852494 L606.844163,714.852494 L606.844163,710.347835 C606.844163,709.983959 606.545649,709.689309 606.176103,709.689309 L600.168059,709.689309 L600.168059,707.147506 L601.516467,707.147506 C601.841356,707.147506 602.106602,706.885693 602.106602,706.564122 L602.106602,702.584272 C602.107501,702.2627 601.841356,702 601.516467,702 L597.482632,702 C597.157143,702 596.893396,702.2627 596.893396,702.584272 L596.893396,706.564122 C596.893396,706.88806 597.157143,707.147506 597.482632,707.147506 L598.831939,707.147506 L598.831939,709.689309 L592.823895,709.689309 C592.454948,709.689309 592.155835,709.983959 592.155835,710.347835 L592.155835,714.852494 L590.589236,714.852494 C590.263747,714.852494 590,715.11549 590,715.437061 L590,719.416616 C590,719.74085 590.263747,720 590.589236,720 L594.623071,720 C594.94796,720 595.213206,719.738187 595.213206,719.416616 L595.213206,715.437061 C595.214105,715.11549 594.94796,714.852494 594.623071,714.852494 L593.491655,714.852494 L593.491655,711.007248 L598.831939,711.007248 L598.831939,714.852494 L597.482632,714.852494 C597.157143,714.852494 596.893396,715.11549 596.893396,715.437061 L596.893396,719.416616 C596.893396,719.74085 597.157143,720 597.482632,720 L601.516467,720 C601.841356,720 602.106602,719.738187 602.106602,719.416616 L602.106602,715.437061 C602.107501,715.11549 601.841356,714.852494 601.516467,714.852494 L600.168059,714.852494 L600.168059,711.007248 L605.508942,711.007248 L605.508942,714.852494 L604.376028,714.852494 C604.050539,714.852494 603.786792,715.11549 603.786792,715.437061 L603.786792,719.416616 C603.786792,719.74085 604.050539,720 604.376028,720 L608.409863,720 C608.734752,720 609,719.738187 609,719.416616 L609,715.437061 C609.000897,715.11549 608.734752,714.852494 608.409863,714.852494 L608.409863,714.852494 Z" id="esquema"></path>
        </g>
    </g>
</svg>