<svg width="16" height="16" viewBox="0 0 16 16" fill="none" xmlns="http://www.w3.org/2000/svg">
<path fill-rule="evenodd" clip-rule="evenodd" d="M7.22104 1.2644C6.89112 1.44057 6.62483 1.68381 6.42892 1.98709C6.22909 2.29725 6.12753 2.63595 6.12753 2.99345C6.12753 3.6373 6.33285 4.18616 6.73784 4.62422C7.15035 5.07043 7.6696 5.29691 8.2821 5.29691C8.8935 5.29691 9.41369 5.07043 9.82573 4.62422C10.2309 4.18585 10.4359 3.6373 10.4359 2.99345C10.4359 2.63626 10.3346 2.29757 10.1342 1.98709C9.93905 1.68381 9.67261 1.44057 9.34285 1.2644C9.01497 1.08887 8.65841 1 8.2821 1C7.90579 1 7.5486 1.08887 7.22104 1.2644M7.26363 4.1384C6.9812 3.83246 6.84344 3.45819 6.84344 2.99349C6.84344 2.77234 6.90488 2.57016 7.03073 2.37487C7.16144 2.17238 7.33447 2.01565 7.55875 1.89543C7.78476 1.7746 8.02158 1.71598 8.28222 1.71598C8.54271 1.71598 8.77937 1.7746 9.00537 1.89543C9.2295 2.01565 9.40237 2.17238 9.53293 2.37519C9.65941 2.57047 9.72084 2.77265 9.72084 2.99349C9.72084 3.45819 9.58261 3.83246 9.30034 4.1384C9.02496 4.43618 8.69191 4.58116 8.28222 4.58116C7.87221 4.58116 7.53885 4.43618 7.26363 4.1384M4.4083 8.99481L4.34702 9.58772C4.32742 9.78411 4.46989 9.95996 4.66643 9.98002C4.67944 9.98159 4.69166 9.98221 4.70373 9.98221C4.88491 9.98221 5.04039 9.8446 5.05935 9.66092L5.12032 9.06769C5.18427 8.44328 5.46685 7.97936 5.98359 7.64756C6.53168 7.2968 7.31485 7.11891 8.3104 7.11891C9.30736 7.11891 10.0904 7.29618 10.6383 7.64615C11.1552 7.9756 11.4375 8.43952 11.5016 9.06346L11.5624 9.66029C11.5821 9.85667 11.7577 10.0002 11.9542 9.98002C12.1509 9.95996 12.2943 9.78473 12.2741 9.58772L12.2136 8.99043C12.1268 8.14691 11.7265 7.4913 11.0231 7.04259C10.3584 6.61832 9.44591 6.40281 8.3104 6.40281C7.17537 6.40281 6.26257 6.61926 5.59772 7.04494C4.89463 7.49538 4.49466 8.15161 4.4083 8.99481Z" fill="#0066CC"/>
<path d="M6.42892 1.98709L6.34492 1.93282L6.34486 1.93293L6.42892 1.98709ZM6.73784 4.62422L6.81127 4.55634L6.81126 4.55634L6.73784 4.62422ZM9.82573 4.62422L9.75229 4.55635L9.75226 4.55638L9.82573 4.62422ZM10.1342 1.98709L10.0501 2.04119L10.0502 2.04133L10.1342 1.98709ZM9.34285 1.2644L9.29565 1.35256L9.29573 1.35261L9.34285 1.2644ZM7.03073 2.37487L6.94672 2.32064L6.94668 2.3207L7.03073 2.37487ZM7.55875 1.89543L7.5116 1.80725L7.51151 1.8073L7.55875 1.89543ZM9.00537 1.89543L9.05264 1.80731L9.05252 1.80725L9.00537 1.89543ZM9.53293 2.37519L9.44884 2.42931L9.44899 2.42955L9.53293 2.37519ZM9.30034 4.1384L9.37376 4.20629L9.37383 4.20621L9.30034 4.1384ZM4.4083 8.99481L4.50777 9.0051L4.50778 9.005L4.4083 8.99481ZM4.34702 9.58772L4.24754 9.57744L4.24751 9.5778L4.34702 9.58772ZM4.66643 9.98002L4.6784 9.88072L4.67659 9.88054L4.66643 9.98002ZM5.05935 9.66092L5.15882 9.67119L5.15883 9.67114L5.05935 9.66092ZM5.12032 9.06769L5.2198 9.07792L5.2198 9.07788L5.12032 9.06769ZM5.98359 7.64756L5.92969 7.56334L5.92956 7.56342L5.98359 7.64756ZM10.6383 7.64615L10.5845 7.73043L10.5846 7.73048L10.6383 7.64615ZM11.5016 9.06346L11.6011 9.05333L11.6011 9.05324L11.5016 9.06346ZM11.5624 9.66029L11.6619 9.65028L11.6619 9.65015L11.5624 9.66029ZM11.9542 9.98002L11.9441 9.88054L11.944 9.88054L11.9542 9.98002ZM12.2741 9.58772L12.1746 9.5978L12.1746 9.59793L12.2741 9.58772ZM12.2136 8.99043L12.3131 8.98035L12.3131 8.98019L12.2136 8.99043ZM11.0231 7.04259L10.9693 7.12688L10.9693 7.12689L11.0231 7.04259ZM5.59772 7.04494L5.5438 6.96072L5.54378 6.96074L5.59772 7.04494ZM7.17393 1.17619C6.82954 1.36009 6.55036 1.61481 6.34492 1.93282L6.51292 2.04135C6.69931 1.75281 6.9527 1.52105 7.26814 1.35262L7.17393 1.17619ZM6.34486 1.93293C6.135 2.25866 6.02753 2.61606 6.02753 2.99345H6.22753C6.22753 2.65583 6.32319 2.33584 6.51299 2.04125L6.34486 1.93293ZM6.02753 2.99345C6.02753 3.66027 6.2409 4.23402 6.66441 4.69211L6.81126 4.55634C6.42479 4.13831 6.22753 3.61432 6.22753 2.99345H6.02753ZM6.66441 4.69211C7.09599 5.15894 7.64191 5.39691 8.2821 5.39691V5.19691C7.69728 5.19691 7.20472 4.98193 6.81127 4.55634L6.66441 4.69211ZM8.2821 5.39691C8.92115 5.39691 9.46806 5.15896 9.8992 4.69207L9.75226 4.55638C9.35932 4.98191 8.86585 5.19691 8.2821 5.19691V5.39691ZM9.89917 4.6921C10.3228 4.23369 10.5359 3.66025 10.5359 2.99345H10.3359C10.3359 3.61434 10.1389 4.13801 9.75229 4.55635L9.89917 4.6921ZM10.5359 2.99345C10.5359 2.61641 10.4287 2.25897 10.2182 1.93284L10.0502 2.04133C10.2405 2.33616 10.3359 2.65611 10.3359 2.99345H10.5359ZM10.2183 1.93298C10.0136 1.61482 9.73417 1.36008 9.38997 1.1762L9.29573 1.35261C9.61105 1.52106 9.86453 1.7528 10.0501 2.04119L10.2183 1.93298ZM9.39005 1.17624C9.04747 0.992836 8.67467 0.9 8.2821 0.9V1.1C8.64214 1.1 8.98247 1.1849 9.29565 1.35256L9.39005 1.17624ZM8.2821 0.9C7.88956 0.9 7.51612 0.99282 7.1738 1.17626L7.26827 1.35255C7.58108 1.18491 7.92201 1.1 8.2821 1.1V0.9ZM7.33711 4.07057C7.0737 3.78523 6.94344 3.4361 6.94344 2.99349H6.74344C6.74344 3.48028 6.88871 3.87969 7.19015 4.20623L7.33711 4.07057ZM6.94344 2.99349C6.94344 2.79265 6.99873 2.60913 7.11479 2.42904L6.94668 2.3207C6.81102 2.53119 6.74344 2.75203 6.74344 2.99349H6.94344ZM7.11475 2.42911C7.23569 2.24174 7.39568 2.0963 7.606 1.98357L7.51151 1.8073C7.27327 1.93499 7.0872 2.10301 6.94672 2.32064L7.11475 2.42911ZM7.60591 1.98362C7.81711 1.8707 8.03769 1.81598 8.28222 1.81598V1.61598C8.00547 1.61598 7.75241 1.67849 7.5116 1.80725L7.60591 1.98362ZM8.28222 1.81598C8.52658 1.81598 8.74701 1.87069 8.95822 1.98362L9.05252 1.80725C8.81173 1.6785 8.55883 1.61598 8.28222 1.61598V1.81598ZM8.95811 1.98356C9.16825 2.09627 9.32806 2.24169 9.44884 2.42931L9.61701 2.32106C9.47668 2.10307 9.29074 1.93502 9.05264 1.80731L8.95811 1.98356ZM9.44899 2.42955C9.56557 2.60955 9.62084 2.793 9.62084 2.99349H9.82084C9.82084 2.75231 9.75324 2.53139 9.61686 2.32082L9.44899 2.42955ZM9.62084 2.99349C9.62084 3.43602 9.49017 3.78519 9.22684 4.07059L9.37383 4.20621C9.67505 3.87974 9.82084 3.48036 9.82084 2.99349H9.62084ZM9.22692 4.0705C8.97066 4.34762 8.66432 4.48116 8.28222 4.48116V4.68116C8.71951 4.68116 9.07926 4.52475 9.37376 4.20629L9.22692 4.0705ZM8.28222 4.48116C7.89977 4.48116 7.59313 4.34759 7.33707 4.07052L7.19019 4.20627C7.48457 4.52478 7.84466 4.68116 8.28222 4.68116V4.48116ZM4.30883 8.98453L4.24755 9.57744L4.44649 9.59801L4.50777 9.0051L4.30883 8.98453ZM4.24751 9.5778C4.22249 9.82863 4.40447 10.0538 4.65628 10.0795L4.67659 9.88054C4.53532 9.86612 4.43236 9.73958 4.44652 9.59765L4.24751 9.5778ZM4.65447 10.0793C4.67184 10.0814 4.68809 10.0822 4.70373 10.0822V9.88221C4.69524 9.88221 4.68704 9.88178 4.67839 9.88074L4.65447 10.0793ZM4.70373 10.0822C4.93575 10.0822 5.13455 9.90627 5.15882 9.67119L4.95988 9.65065C4.94622 9.78294 4.83408 9.88221 4.70373 9.88221V10.0822ZM5.15883 9.67114L5.2198 9.07792L5.02085 9.05747L4.95988 9.65069L5.15883 9.67114ZM5.2198 9.07788C5.28072 8.48307 5.54707 8.04669 6.03762 7.73171L5.92956 7.56342C5.38663 7.91203 5.08782 8.40349 5.02084 9.05751L5.2198 9.07788ZM6.03749 7.73179C6.56307 7.39543 7.32457 7.21891 8.3104 7.21891V7.01891C7.30514 7.01891 6.50028 7.19817 5.92969 7.56334L6.03749 7.73179ZM8.3104 7.21891C9.29772 7.21891 10.0591 7.39483 10.5845 7.73043L10.6921 7.56188C10.1217 7.19752 9.317 7.01891 8.3104 7.01891V7.21891ZM10.5846 7.73048C11.075 8.04304 11.341 8.47926 11.4021 9.07368L11.6011 9.05324C11.5339 8.39979 11.2355 7.90816 10.6921 7.56183L10.5846 7.73048ZM11.4021 9.0736L11.4629 9.67043L11.6619 9.65015L11.6011 9.05333L11.4021 9.0736ZM11.4629 9.6703C11.4882 9.92158 11.7127 10.1054 11.9645 10.0795L11.944 9.88054C11.8026 9.89509 11.6761 9.79177 11.6619 9.65028L11.4629 9.6703ZM11.9644 10.0795C12.2158 10.0539 12.3995 9.82971 12.3736 9.57752L12.1746 9.59793C12.1892 9.73976 12.086 9.86606 11.9441 9.88054L11.9644 10.0795ZM12.3736 9.57765L12.3131 8.98035L12.1141 9.0005L12.1746 9.5978L12.3736 9.57765ZM12.3131 8.98019C12.2232 8.10693 11.8065 7.42376 11.0769 6.95828L10.9693 7.12689C11.6464 7.55885 12.0304 8.18688 12.1141 9.00067L12.3131 8.98019ZM11.0769 6.95829C10.3905 6.52021 9.45706 6.30281 8.3104 6.30281V6.50281C9.43477 6.50281 10.3262 6.71643 10.9693 7.12688L11.0769 6.95829ZM8.3104 6.30281C7.16415 6.30281 6.23031 6.52117 5.5438 6.96072L5.65164 7.12915C6.29483 6.71734 7.18658 6.50281 8.3104 6.50281V6.30281ZM5.54378 6.96074C4.81454 7.42793 4.39822 8.11167 4.30882 8.98463L4.50778 9.005C4.59109 8.19154 4.97472 7.56283 5.65167 7.12914L5.54378 6.96074Z" fill="#0066CC"/>
<path d="M2.8667 9.98238H14.0667" stroke="#0066CC" stroke-linecap="round" stroke-linejoin="round"/>
<path d="M13.4809 10.0909V14.9509" stroke="#0066CC" stroke-linecap="round" stroke-linejoin="round"/>
<path d="M3.41056 10.0909V14.9509" stroke="#0066CC" stroke-linecap="round" stroke-linejoin="round"/>
</svg>
