<?xml version="1.0" encoding="UTF-8"?>
<svg width="44px" height="44px" viewBox="0 0 44 44" version="1.1" xmlns="http://www.w3.org/2000/svg" xmlns:xlink="http://www.w3.org/1999/xlink">
    <!-- Generator: Sketch 57.1 (83088) - https://sketch.com -->
    <title>calendar (1)</title>
    <desc>Created with Sketch.</desc>
    <g id="Provisión-de-servicio-" stroke="none" stroke-width="1" fill="none" fill-rule="evenodd">
        <g id="6-01_UFD_Ejecución_Obras_NU_06.8" transform="translate(-420.000000, -1080.000000)" fill="#004571">
            <g id="Group-7" transform="translate(330.000000, 1080.000000)">
                <g id="Group-3" transform="translate(90.000000, 0.000000)">
                    <g id="calendar-(1)">
                        <circle id="Oval" cx="32.5" cy="18.5" r="1.5"></circle>
                        <path d="M37.125,3.4375 L34.890625,3.4375 L34.890625,1.71875 C34.890625,0.769484375 34.1211406,0 33.171875,0 C32.2226094,0 31.453125,0.769484375 31.453125,1.71875 L31.453125,3.4375 L23.6328125,3.4375 L23.6328125,1.71875 C23.6328125,0.769484375 22.8633281,0 21.9140625,0 C20.9647969,0 20.1953125,0.769484375 20.1953125,1.71875 L20.1953125,3.4375 L12.4609375,3.4375 L12.4609375,1.71875 C12.4609375,0.769484375 11.6914531,0 10.7421875,0 C9.79292188,0 9.0234375,0.769484375 9.0234375,1.71875 L9.0234375,3.4375 L6.875,3.4375 C3.084125,3.4375 0,6.521625 0,10.3125 L0,37.125 C0,40.915875 3.084125,44 6.875,44 L20.0234375,44 C20.9727031,44 21.7421875,43.2305156 21.7421875,42.28125 C21.7421875,41.3319844 20.9727031,40.5625 20.0234375,40.5625 L6.875,40.5625 C4.9795625,40.5625 3.4375,39.0204375 3.4375,37.125 L3.4375,10.3125 C3.4375,8.4170625 4.9795625,6.875 6.875,6.875 L9.0234375,6.875 L9.0234375,8.59375 C9.0234375,9.54301562 9.79292188,10.3125 10.7421875,10.3125 C11.6914531,10.3125 12.4609375,9.54301562 12.4609375,8.59375 L12.4609375,6.875 L20.1953125,6.875 L20.1953125,8.59375 C20.1953125,9.54301562 20.9647969,10.3125 21.9140625,10.3125 C22.8633281,10.3125 23.6328125,9.54301562 23.6328125,8.59375 L23.6328125,6.875 L31.453125,6.875 L31.453125,8.59375 C31.453125,9.54301562 32.2226094,10.3125 33.171875,10.3125 C34.1211406,10.3125 34.890625,9.54301562 34.890625,8.59375 L34.890625,6.875 L37.125,6.875 C39.0204375,6.875 40.5625,8.4170625 40.5625,10.3125 L40.5625,20.109375 C40.5625,21.0586406 41.3319844,21.828125 42.28125,21.828125 C43.2305156,21.828125 44,21.0586406 44,20.109375 L44,10.3125 C44,6.521625 40.915875,3.4375 37.125,3.4375 Z" id="Path"></path>
                        <path d="M33.5,23 C27.7102479,23 23,27.7102479 23,33.5 C23,39.2897521 27.7102479,44 33.5,44 C39.2897521,44 44,39.2897521 44,33.5 C44,27.7102479 39.2897521,23 33.5,23 Z M33.5,40.5289256 C29.6242851,40.5289256 26.4710744,37.3758017 26.4710744,33.5 C26.4710744,29.6241983 29.6242851,26.4710744 33.5,26.4710744 C37.3757149,26.4710744 40.5289256,29.6241983 40.5289256,33.5 C40.5289256,37.3758017 37.3757149,40.5289256 33.5,40.5289256 Z" id="Shape" fill-rule="nonzero"></path>
                        <path d="M36.2608696,31.5432099 L35.4782609,31.5432099 L35.4782609,29.7283951 C35.4782609,28.7738025 34.6996522,28 33.7391304,28 C32.7786087,28 32,28.7738025 32,29.7283951 L32,33.2716049 C32,34.2261975 32.7786087,35 33.7391304,35 L36.2608696,35 C37.2213913,35 38,34.2261975 38,33.2716049 C38,32.3170123 37.2213913,31.5432099 36.2608696,31.5432099 Z" id="Path"></path>
                        <circle id="Oval" cx="25.5" cy="18.5" r="1.5"></circle>
                        <circle id="Oval" cx="18.5" cy="25.5" r="1.5"></circle>
                        <circle id="Oval" cx="10.5" cy="18.5" r="1.5"></circle>
                        <circle id="Oval" cx="10.5" cy="25.5" r="1.5"></circle>
                        <circle id="Oval" cx="10.5" cy="32.5" r="1.5"></circle>
                        <circle id="Oval" cx="18.5" cy="32.5" r="1.5"></circle>
                        <circle id="Oval" cx="18.5" cy="18.5" r="1.5"></circle>
                    </g>
                </g>
            </g>
        </g>
    </g>
</svg>