<svg width="66" height="65" viewBox="0 0 66 65" fill="none" xmlns="http://www.w3.org/2000/svg">
<circle cx="33" cy="32.5" r="31.5" stroke="#004571" stroke-width="2"/>
<path d="M49.1172 21.1848C48.7679 21.1774 48.436 21.0263 48.2031 20.7662C41.7277 13.6712 27.8163 13.2577 21.3777 17.9124C21.1077 18.1255 20.7608 18.2196 20.419 18.1726C20.0747 18.123 19.7675 17.9397 19.5668 17.6573C19.3637 17.3774 19.2844 17.0281 19.3464 16.6888C19.4083 16.3494 19.6065 16.0497 19.8938 15.8589C27.276 10.5057 42.6664 10.9318 50.0556 19.0619C50.3949 19.431 50.4816 19.9686 50.2785 20.4293C50.0754 20.89 49.6196 21.1873 49.1167 21.1848H49.1172Z" fill="#004571"/>
<path d="M49.358 30.4045C48.8898 30.407 48.4587 30.1519 48.2358 29.7406C45.5729 24.7541 40.2765 21.3799 34.0815 20.7166C27.6258 20.018 21.3983 22.3788 17.809 26.8748V26.8724C17.3705 27.4099 16.5803 27.4941 16.0378 27.0631C15.4953 26.6321 15.3987 25.8443 15.8248 25.2944C19.9394 20.127 27.0436 17.4048 34.3542 18.1925C41.387 18.9529 47.4115 22.8223 50.4757 28.5419H50.4732C50.6343 28.8391 50.6689 29.1859 50.5698 29.508C50.4732 29.83 50.2503 30.1 49.9555 30.2585C49.7697 30.3576 49.5666 30.4072 49.3585 30.4047L49.358 30.4045Z" fill="#004571"/>
<path d="M46.9796 38.3511C46.3529 38.361 45.8154 37.9101 45.7113 37.2933C44.8295 31.8435 39.3254 26.4733 33.878 25.7941C26.5852 24.8801 19.9912 29.5991 17.8332 37.209C17.749 37.5409 17.5359 37.8258 17.2387 37.9967C16.9439 38.1676 16.5897 38.2122 16.2602 38.1206C15.9307 38.0289 15.6532 37.806 15.4898 37.5062C15.3263 37.2065 15.2916 36.8523 15.3932 36.5253C17.8976 27.6471 25.6291 22.2123 34.1902 23.2847C40.7277 24.0947 47.1511 30.3226 48.2038 36.8671C48.2583 37.199 48.179 37.5409 47.9833 37.8133C47.7876 38.0858 47.4904 38.2716 47.1584 38.3261L46.9796 38.3511Z" fill="#004571"/>
<path d="M30.1173 51.688C29.9315 51.688 29.7457 51.6459 29.5773 51.5666C29.2676 51.4279 29.0249 51.1703 28.906 50.8532C28.7871 50.5336 28.7994 50.1819 28.9431 49.8747C30.3328 46.9318 30.8902 41.7321 30.5657 40.5285L30.5681 40.526C30.4517 40.1916 30.4814 39.825 30.6474 39.5128C30.8159 39.2007 31.1057 38.9728 31.4475 38.8836C31.7894 38.7944 32.1535 38.8539 32.4532 39.0446C32.7505 39.2379 32.9536 39.5426 33.0156 39.8918C33.5556 41.8834 32.7678 47.7294 31.2394 50.9819V50.9844C31.0264 51.4105 30.5929 51.683 30.1173 51.688L30.1173 51.688Z" fill="#004571"/>
<path d="M24.9874 50.368C24.7818 50.368 24.5786 50.3185 24.3978 50.2218C24.0981 50.0658 23.8751 49.7958 23.776 49.4737C23.6794 49.1492 23.7116 48.8024 23.8702 48.5052C25.463 45.5004 25.4233 42.3345 25.3986 40.4444C25.3837 40.0084 25.3961 39.5725 25.4308 39.1365C25.8024 35.656 28.9261 33.1368 32.4065 33.5059C35.8498 33.9716 38.384 36.964 38.2799 40.4372C38.2031 44.3437 37.8613 47.3235 37.2642 49.3154C37.0636 49.9892 36.3576 50.3707 35.6863 50.1725C35.0125 49.9718 34.6285 49.2659 34.8291 48.5921C35.1958 47.3237 35.654 44.9333 35.7432 40.4248C35.8646 38.235 34.3015 36.3126 32.134 35.9857C31.1258 35.8791 30.1151 36.1814 29.3298 36.8229C28.542 37.4645 28.0466 38.3935 27.9475 39.4041V40.4C27.9475 42.3916 28.0169 46.1074 26.1219 49.6847C25.9014 50.1082 25.4629 50.3733 24.9873 50.3683L24.9874 50.368Z" fill="#004571"/>
<path d="M20.6499 47.046C20.4269 47.0485 20.2089 46.994 20.0157 46.8875C19.7209 46.724 19.5029 46.449 19.4113 46.122C19.3196 45.7975 19.3617 45.4507 19.5277 45.156C20.3328 43.7291 20.4344 42.1933 20.5557 40.4122C20.5929 39.835 20.6325 39.2454 20.6945 38.636C20.9942 35.6659 22.483 32.9459 24.8214 31.0908C27.1153 29.2428 30.0606 28.4031 32.9836 28.7623C36.4715 29.1809 39.179 30.6647 41.0368 33.0874C43.2687 36.0427 44.0813 40.2863 43.3257 45.0425C43.2118 45.7312 42.5652 46.1969 41.8765 46.0879C41.1879 45.9764 40.7172 45.3323 40.8212 44.6437C41.4554 40.6356 40.8212 36.9844 39.0079 34.6183C37.5885 32.7159 35.4631 31.6135 32.6664 31.2816C30.427 31.0066 28.1728 31.6507 26.414 33.0627C24.6156 34.4969 23.4711 36.5951 23.2432 38.884C23.1788 39.4612 23.1491 40.026 23.1094 40.571C22.9831 42.4735 22.8493 44.4577 21.7643 46.3874C21.5414 46.7937 21.1128 47.0464 20.6496 47.0464L20.6499 47.046Z" fill="#004571"/>
</svg>
