<svg width="32" height="31" viewBox="0 0 32 31" fill="none" xmlns="http://www.w3.org/2000/svg">
<path fill-rule="evenodd" clip-rule="evenodd" d="M24.1652 8.19016H19.757V8.17776H15.5038L12.3976 5.04675C12.0814 4.73055 11.6412 4.54456 11.1886 4.54456H7.86536C6.39597 4.54456 5.20557 5.73495 5.20557 7.20435V23.5166C5.20557 24.986 6.39597 26.1764 7.86536 26.1764H24.1652C25.6346 26.1764 26.825 24.986 26.825 23.5166V10.8438C26.825 9.38055 25.6346 8.19016 24.1652 8.19016ZM25.0208 15.7294V16.2378V23.5166C25.0208 23.9878 24.6364 24.3722 24.1652 24.3722H7.86536C7.39417 24.3722 7.00977 23.9878 7.00977 23.5166V7.20435C7.00977 6.73315 7.39417 6.34875 7.86536 6.34875H11.1452L14.2514 9.47356C14.5676 9.78976 15.0078 9.97575 15.4604 9.97575H19.757V9.96336H24.1652C24.6364 9.96336 25.0208 10.3478 25.0208 10.819V15.7294ZM9.71298 15.3511H15.1256C15.6216 15.3511 16.0246 15.7541 16.0246 16.2501V16.2625V16.2749C16.0246 16.7771 15.6216 17.1801 15.1256 17.1801H9.71298C9.21698 17.1801 8.81398 16.7709 8.81398 16.2749V16.2625V16.2501C8.81398 15.7541 9.21698 15.3511 9.71298 15.3511ZM9.71298 18.9534H15.1256C15.6216 18.9534 16.0246 19.3626 16.0246 19.8524V19.8648V19.8772C16.0246 20.3794 15.6216 20.7824 15.1256 20.7824H9.71298C9.21698 20.7824 8.81398 20.3732 8.81398 19.8772V19.8648V19.8524C8.81398 19.3564 9.21698 18.9534 9.71298 18.9534ZM9.71298 11.7614H15.1256C15.6216 11.7614 16.0246 12.1644 16.0246 12.6604C16.0246 13.1626 15.6216 13.5656 15.1256 13.5656H9.71298C9.21698 13.5656 8.81398 13.1564 8.81398 12.6604C8.81398 12.1644 9.21698 11.7614 9.71298 11.7614Z" fill="#004571"/>
</svg>
