<svg width="20" height="20" viewBox="0 0 20 20" fill="none" xmlns="http://www.w3.org/2000/svg">
<path fill-rule="evenodd" clip-rule="evenodd" d="M7.14937 5.03813C7.09686 5.04818 7.05329 5.08505 7.03318 5.13532C6.91029 5.44367 6.8846 5.77772 6.96057 6.10505C7.10692 6.73292 7.632 7.22002 8.26881 7.31722C8.35148 7.32951 8.43639 7.33621 8.52018 7.33621H9.09554L10.8049 9.04664C10.9423 9.18406 11.1244 9.26003 11.3188 9.26003C11.512 9.26003 11.6953 9.18406 11.8327 9.04664C11.9701 8.90923 12.0461 8.72712 12.0461 8.53273C12.0461 8.33834 11.9701 8.15623 11.8327 8.01882L10.1222 6.30839V5.73303C10.1222 5.65035 10.1167 5.56545 10.1033 5.48166C10.0061 4.84485 9.51896 4.31977 8.89109 4.17342C8.56598 4.09745 8.23082 4.12314 7.92359 4.24603C7.87332 4.26614 7.83757 4.30971 7.8264 4.36222C7.81522 4.41473 7.83198 4.46947 7.86997 4.50746L8.66095 5.29844C8.69111 5.3286 8.70787 5.36882 8.70787 5.41127C8.70787 5.45373 8.69111 5.49395 8.66095 5.52411L8.31238 5.87268C8.24982 5.93524 8.14815 5.93524 8.08559 5.87268L7.29461 5.0817C7.25662 5.04371 7.20188 5.02696 7.14937 5.03813ZM8.31685 6.99993C7.80852 6.92173 7.38845 6.53294 7.27227 6.03132C7.23205 5.8548 7.22758 5.67382 7.25998 5.50065L7.8588 6.09947C8.04649 6.28716 8.35148 6.28716 8.53917 6.09947L8.88774 5.7509C8.97823 5.66041 9.0285 5.53975 9.0285 5.41127C9.0285 5.2828 8.97823 5.16214 8.88774 5.07164L8.2878 4.47171C8.36489 4.4583 8.44309 4.45048 8.5213 4.45048C8.62073 4.45048 8.72016 4.46165 8.81847 4.484C9.32009 4.6013 9.70888 5.02025 9.78708 5.52858C9.79714 5.59673 9.80272 5.66488 9.80272 5.73191V6.37318C9.80272 6.41675 9.81948 6.45697 9.84965 6.48714L11.6081 8.24561C11.6852 8.32158 11.7277 8.42436 11.7277 8.53273C11.7277 8.6411 11.6852 8.74276 11.6081 8.81985C11.4495 8.97849 11.1914 8.97849 11.0328 8.81985L9.27541 7.0625C9.24524 7.03233 9.2039 7.01557 9.16145 7.01557H8.52018C8.45315 7.01557 8.385 7.00999 8.31685 6.99993Z" fill="#004571"/>
<path fill-rule="evenodd" clip-rule="evenodd" d="M9.67905 1.82802C9.61825 1.82422 9.55745 1.82422 9.49665 1.82422C9.43585 1.82422 9.37505 1.82422 9.31425 1.82802C7.63085 1.88502 6.10325 2.79322 5.23685 4.25622C4.35145 5.74962 4.28305 7.56602 5.06205 9.11642L8.97225 16.9064C9.06725 17.0926 9.25345 17.2104 9.46245 17.2104C9.66765 17.2104 9.85765 17.0964 9.95265 16.9102L13.9161 9.13542C14.7027 7.58882 14.6457 5.76862 13.7641 4.26762C12.8901 2.79702 11.3663 1.88502 9.67905 1.82802ZM12.9383 8.59962L9.46895 15.4092L6.04515 8.58822C5.43715 7.37602 5.49035 5.95482 6.18575 4.78062C6.87355 3.62542 8.02875 2.93762 9.35495 2.89202C9.37965 2.89202 9.40435 2.89107 9.42905 2.89012C9.45375 2.88917 9.47845 2.88822 9.50315 2.88822C9.55255 2.88822 9.60195 2.88822 9.65135 2.89202C10.9623 2.93762 12.1479 3.64442 12.8205 4.78822C13.5083 5.96242 13.5539 7.38742 12.9383 8.59962Z" fill="#004571"/>
</svg>
