<?xml version="1.0" encoding="UTF-8"?>
<svg width="13px" height="20px" viewBox="0 0 13 20" version="1.1" xmlns="http://www.w3.org/2000/svg" xmlns:xlink="http://www.w3.org/1999/xlink">
    <!-- Generator: Sketch 63.1 (92452) - https://sketch.com -->
    <title>Group 9</title>
    <desc>Created with Sketch.</desc>
    <g id="Symbols" stroke="none" stroke-width="1" fill="none" fill-rule="evenodd">
        <g id="ico_listado-/-generacion" transform="translate(-7.000000, -9.000000)">
            <g id="Group-9" transform="translate(7.000000, 10.000000)">
                <rect id="Rectangle" stroke="#555555" stroke-width="1.377" x="0.6885" y="2.98226822" width="10.68876" height="15.13404" rx="1.90512"></rect>
                <path d="M4.16764141,11.7003526 L6.28359469,11.7003526 L5.32608138,13.1341459 C5.02344672,13.5905809 5.14499338,14.2057759 5.60142838,14.5109126 C6.05786338,14.8135472 6.67305838,14.6920006 6.9781951,14.2355656 L8.9626951,11.2588156 C9.16610476,10.9536979 9.1834731,10.5617322 9.01231077,10.2392589 C8.83866543,9.91677921 8.50378344,9.7158462 8.13664776,9.7158462 L6.02069448,9.7158462 L6.9782078,8.28205289 C7.28084246,7.82561789 7.1592958,7.21042289 6.7028608,6.90528617 C6.2464258,6.60265151 5.6312308,6.72419816 5.32609408,7.18063316 L3.34159408,10.1573832 C3.13818442,10.4625008 3.12081608,10.8544666 3.29198476,11.1769399 C3.4656301,11.4994195 3.80051209,11.7003526 4.16764141,11.7003526 Z" id="Fill-3" stroke="#FFFFFF" stroke-width="0.5" fill="#555555"></path>
                <path d="M3.53303016,2.24683504 L3.53303016,1.28868423 C3.53303016,0.590053997 4.09727724,0.0225928782 4.7958962,0.0186247151 L6.79759527,0.00725504318 C7.49902977,0.00327088779 8.07088458,0.568666104 8.07486873,1.2701006 C8.07488239,1.27250523 8.07488922,1.27490989 8.07488922,1.27731456 L8.07488922,2.3652 L8.07488922,2.3652" id="Path-6" stroke="#555555" stroke-width="1.377" stroke-linecap="round"></path>
            </g>
        </g>
    </g>
</svg>