<svg width="66" height="65" viewBox="0 0 66 65" fill="none" xmlns="http://www.w3.org/2000/svg">
<circle cx="33" cy="32.5" r="31.5" stroke="#004571" stroke-width="2"/>
<path fill-rule="evenodd" clip-rule="evenodd" d="M20.24 20.9931C20.24 20.2173 20.8333 19.624 21.6091 19.624C22.3849 19.624 22.9782 20.2173 22.9782 20.9931V25.5567C22.9782 26.3325 22.3849 26.9258 21.6091 26.9258C20.8332 26.9258 20.24 26.3325 20.24 25.5567V20.9931ZM29.9605 35.4595C29.7779 35.5507 29.5954 35.5964 29.3672 35.5964L29.3671 35.5966C28.8651 35.5966 28.3631 35.3228 28.1806 34.8208C27.8155 34.1362 28.0893 33.3148 28.7738 32.9954L31.6489 31.535V20.9931C31.6489 20.2173 32.2421 19.624 33.018 19.624C33.7938 19.624 34.3871 20.2173 34.3871 20.9931V32.4019C34.3871 32.9495 34.0677 33.4059 33.6113 33.6341L29.9605 35.4595ZM44.4269 19.624C43.6511 19.624 43.0578 20.2173 43.0578 20.9931V25.5567C43.0578 26.3325 43.651 26.9258 44.4269 26.9258C45.2027 26.9258 45.796 26.3325 45.796 25.5567V20.9931C45.796 20.2173 45.2027 19.624 44.4269 19.624ZM22.0654 42.0767C21.5178 41.5748 21.4722 40.7077 21.9742 40.1601H21.9742C22.4762 39.6124 23.3433 39.5668 23.8909 40.0688C29.0932 44.8149 36.9427 44.8149 42.1451 40.0688C42.6927 39.5668 43.5598 39.6125 44.0618 40.1601C44.5638 40.7076 44.5182 41.5747 43.9705 42.0767C40.8676 44.9061 36.9428 46.3208 33.018 46.3208C29.0932 46.3208 25.1687 44.9062 22.0654 42.0767Z" fill="#004571"/>
</svg>
