<?xml version="1.0" encoding="UTF-8"?>
<svg width="15px" height="15px" viewBox="0 0 15 15" version="1.1" xmlns="http://www.w3.org/2000/svg" xmlns:xlink="http://www.w3.org/1999/xlink">
    <!-- Generator: Sketch 57.1 (83088) - https://sketch.com -->
    <title>Fill 1</title>
    <desc>Created with Sketch.</desc>
    <g id="Symbols" stroke="none" stroke-width="1" fill="none" fill-rule="evenodd">
        <g id="Info_expediente-/-nombre" transform="translate(-813.000000, -117.000000)" fill="#FFFFFF">
            <g id="Group-2" transform="translate(813.000000, 117.000000)">
                <path d="M5.05369583,12.9263839 C4.94783522,12.820742 4.88965562,12.6803236 4.88965562,12.5311563 C4.88965562,12.3824266 4.94783522,12.2422269 5.05325839,12.136585 C5.05588303,12.1337416 5.05872639,12.1306795 5.06135104,12.1276174 L5.84218239,11.3470048 C5.83671438,11.3767508 5.83408974,11.4069342 5.83408974,11.437555 C5.83452718,11.5694433 5.88592644,11.6934577 5.97932,11.7864138 L6.48215789,12.289033 L5.84436959,12.9266026 C5.63374198,13.1374489 5.26432344,13.1374489 5.05369583,12.9263839 M15,3.6557066 C15,2.67933932 14.6196455,1.76137036 13.9289268,1.07130791 C13.2139303,0.355217758 12.2235649,-0.0330107175 11.2248882,0.00220324561 L5.52919369,0.000890924008 C5.45614112,-0.00217115974 5.38571319,0.0109520563 5.30828622,0.0439788167 C5.30522413,0.0450724181 5.28597675,0.0542586693 5.28357083,0.0557897112 C5.27329097,0.0608202774 5.26563577,0.065413403 5.25491847,0.071975011 C5.25141895,0.0739434934 5.24157654,0.0800676609 5.23873317,0.0820361433 L5.20483153,0.106314093 C5.18602159,0.120749631 5.16808653,0.137153651 5.15846283,0.148089664 L3.42729192,1.8783857 C2.82428014,2.48205364 2.82428014,3.46410764 3.42772936,4.0679943 C3.71993963,4.35954842 4.10926171,4.51987038 4.52264302,4.51987038 C4.93668048,4.51987038 5.32578384,4.35911098 5.61755668,4.06733814 L6.40910532,3.27557077 L10.1236316,6.99097196 C10.3102,7.17819651 10.6382804,7.17754035 10.8228803,6.99097196 C10.9164926,6.89757841 10.9676731,6.77356401 10.9676731,6.64145697 C10.9676731,6.50956865 10.9164926,6.38533554 10.8228803,6.2921607 L6.75905775,2.22702581 C6.66500804,2.13341353 6.54121237,2.08179555 6.40866788,2.08179555 L6.40823044,2.08179555 C6.27765444,2.08201427 6.15451493,2.13275737 6.0613401,2.22483861 C6.0602465,2.22615093 6.05893418,2.22746325 6.05762185,2.22899429 L6.05762185,2.22899429 L4.91830798,3.36808945 C4.70002515,3.58659099 4.34504216,3.58659099 4.12675933,3.36874561 C3.90935139,3.15046278 3.90935139,2.79547978 4.12675933,2.5776344 L5.7148872,0.989287814 L11.2436981,0.991037576 C11.9814416,0.962385221 12.7075929,1.24759645 13.2301156,1.77033789 C13.7338284,2.27383195 14.0113844,2.94333469 14.0113844,3.6557066 C14.0113844,4.36764107 13.7338284,5.03714381 13.2270535,5.54435611 L11.3012216,7.46975063 L11.296191,7.47521863 C11.1091852,7.66791119 11.1102788,7.97761909 11.3106265,8.17818557 L12.2848066,9.15280309 C12.2863376,9.15411541 12.28765,9.15542773 12.2889623,9.15674005 L12.2889623,9.15695877 C12.3941667,9.26150706 12.4521276,9.40170675 12.452565,9.55109269 C12.452565,9.70069736 12.3946042,9.84111577 12.2893997,9.94632022 C12.0787721,10.1569478 11.7126344,10.1597912 11.498726,9.94763254 L9.5438042,7.99314823 C9.35679837,7.80657984 9.03287366,7.80570496 8.84455551,7.99380439 C8.65230039,8.18693438 8.65273783,8.50036053 8.84499295,8.69261564 L10.8001334,10.6475374 C11.0164478,10.8656015 11.0155729,11.2194909 10.7977275,11.4371176 C10.6933979,11.5421033 10.553417,11.6002829 10.4038123,11.6005016 C10.2542076,11.6005016 10.1142267,11.542322 10.0081473,11.4364614 L8.05431918,9.48285197 C7.86753207,9.29562742 7.54120143,9.29628358 7.35485176,9.48241453 C7.26145821,9.5760268 7.21005895,9.70025992 7.21005895,9.83236696 C7.21005895,9.96425528 7.26145821,10.0882697 7.35485176,10.1818819 L9.30846119,12.1354914 C9.52674402,12.3537742 9.52674402,12.7087572 9.30889863,12.9268213 C9.09542765,13.1400736 8.74678755,13.1440105 8.52850472,12.9371012 C8.52456775,12.932508 8.52041207,12.9283523 8.51822487,12.9261651 L6.67791253,11.086509 C6.54886758,10.9583389 6.36645487,10.9156884 6.20285211,10.9587763 C6.39204514,10.6969682 6.49418751,10.3831046 6.49418751,10.0534931 C6.49418751,9.63989312 6.33320939,9.25122721 6.04056167,8.95901693 C5.89358165,8.81181819 5.71838672,8.69699005 5.52788137,8.62000051 C5.67311162,8.38072054 5.75097604,8.10535172 5.75097604,7.81773457 C5.75097604,7.40369711 5.5897792,7.01481247 5.29756892,6.72303963 C5.00535865,6.43061063 4.61713017,6.2694138 4.20265526,6.2694138 C3.78927396,6.26985124 3.40038932,6.43104807 3.10796032,6.72325835 L2.7105456,7.12001692 L1.76567404,6.17492664 C0.728502532,5.13534921 0.729377413,3.44442282 1.76786124,2.40637643 C2.09375444,2.08070195 2.4990431,1.84404662 2.93954572,1.72221943 C3.06684091,1.68722419 3.17313896,1.60454793 3.23853632,1.48928235 C3.30349624,1.37467293 3.32011898,1.24147228 3.28512374,1.11417709 C3.21294605,0.853462528 2.94129548,0.698389858 2.67686268,0.769036504 C2.07144498,0.935920068 1.51567678,1.26028223 1.06839383,1.70669029 C-0.356131276,3.13209028 -0.356131276,5.45118128 1.06839383,6.87658126 L2.36409269,8.17162396 C2.38727704,8.19349599 2.41155499,8.21339954 2.43889503,8.23155332 C2.63377478,8.35994212 2.89558294,8.33325824 3.06093547,8.16812444 L3.80677158,7.42250705 C3.91219475,7.31708388 4.05326932,7.25868557 4.2030927,7.25846685 C4.35269737,7.25846685 4.49289706,7.31642772 4.59832023,7.42206961 C4.7037434,7.52749278 4.76192299,7.66812991 4.76192299,7.81773457 C4.76192299,7.96733923 4.7037434,8.10797637 4.59832023,8.21339954 L2.85971282,9.95135078 C2.64777288,10.1582602 2.28338491,10.156073 2.07363218,9.94632022 C1.96820901,9.84111577 1.91046686,9.70069736 1.91046686,9.55109269 C1.91046686,9.40148803 1.96820901,9.26106962 2.0727573,9.15630261 C2.16680701,9.06290906 2.218425,8.93867594 2.218425,8.80635018 C2.218425,8.6738057 2.16680701,8.54957259 2.07363218,8.45661647 C1.88093962,8.26414264 1.56751348,8.26392392 1.37482092,8.45661647 C1.08261065,8.74860803 0.921851248,9.13727395 0.921851248,9.55109269 C0.921851248,9.96491144 1.08261065,10.3537961 1.37482092,10.6453502 C1.65325182,10.9244373 2.02026443,11.084103 2.41330475,11.0981011 C2.42730285,11.4854547 2.58587505,11.8568418 2.86430595,12.1346165 C2.95748078,12.2284475 3.08127645,12.2800655 3.21382093,12.2800655 L3.21425837,12.2800655 C3.3461467,12.2800655 3.47059853,12.2286662 3.56399208,12.1352727 C3.65716692,12.0418791 3.70856618,11.9178647 3.70856618,11.7857577 C3.70856618,11.6538693 3.65716692,11.5296362 3.56399208,11.4364614 C3.34789646,11.2203658 3.3461467,10.8673513 3.56377336,10.6455689 L4.56748067,9.6418616 C4.78926302,9.4388892 5.12937304,9.44632569 5.34109426,9.65870307 C5.44717359,9.76456367 5.5055719,9.90498209 5.5055719,10.0539306 C5.5055719,10.2015668 5.44848591,10.3404541 5.35312387,10.4384408 C5.34896819,10.4421591 5.34503122,10.4456586 5.34109426,10.4495956 L4.35488457,11.4364614 C4.06223685,11.7291091 3.90104001,12.117775 3.90104001,12.5311563 C3.90104001,12.9449751 4.06223685,13.3338597 4.35488457,13.62607 C4.64709485,13.9178428 5.03532332,14.0786022 5.44936079,14.0786022 C5.8627421,14.0786022 6.25162673,13.9180616 6.54405573,13.62607 L7.18184403,12.9882817 L7.80475935,13.611197 C7.80913376,13.6157901 7.812852,13.620602 7.81591409,13.6234454 C8.10987413,13.916968 8.49985236,14.0786022 8.91301495,14.0786022 C9.32639626,14.0786022 9.71506217,13.9182803 10.0077099,13.6265074 C10.286797,13.3474204 10.4455879,12.9753772 10.4598047,12.5880236 C10.8532824,12.5740255 11.2200763,12.414141 11.4978511,12.1352727 C11.7767194,11.856623 11.9348542,11.4850173 11.9488523,11.0981011 C12.3410177,11.084103 12.7084678,10.9248747 12.9877735,10.6457876 C13.2799838,10.3540148 13.4411807,9.96513016 13.4411807,9.55065525 C13.4411807,9.13705523 13.2795464,8.74838931 12.9868987,8.45617903 C12.9844927,8.45333567 12.9814306,8.45071103 12.978806,8.44808638 L12.3499852,7.81948433 L13.9293643,6.240324 C14.6200829,5.5496054 15,4.63207387 15,3.6557066" id="Fill-1"></path>
            </g>
        </g>
    </g>
</svg>