<?xml version="1.0" encoding="UTF-8"?>
<svg width="22px" height="15px" viewBox="0 0 22 15" version="1.1" xmlns="http://www.w3.org/2000/svg" xmlns:xlink="http://www.w3.org/1999/xlink">
    <title>dni</title>
    <g id="Mi-conexión-a-la-red" stroke="none" stroke-width="1" fill="none" fill-rule="evenodd">
        <g id="2-05_UFD_TEN_A_MANO_NU_01.3-" transform="translate(-589.000000, -667.000000)" fill="#004571">
            <path d="M594.965182,675.77584 C593.501178,675.77584 592.209769,676.774028 591.824328,678.203364 C591.725529,678.570581 591.93868,678.948917 592.301555,679.049292 C592.361018,679.065661 592.4217,679.07369 592.480858,679.07369 C592.779697,679.07369 593.05414,678.872014 593.136168,678.565949 C593.360907,677.734228 594.112272,677.15329 594.965182,677.15329 C595.817786,677.15329 596.569151,677.734228 596.79389,678.565949 C596.89269,678.933166 597.266543,679.149358 597.629113,679.049292 C597.991074,678.948917 598.204225,678.570581 598.105425,678.203364 C597.720289,676.773719 596.42888,675.77584 594.965182,675.77584 L594.965182,675.77584 Z M594.357137,673.093518 C594.357137,673.433248 594.629751,673.709665 594.965182,673.709665 C595.300003,673.709665 595.572617,673.433248 595.572617,673.093518 C595.572617,672.754097 595.300918,672.477681 594.965182,672.477681 C594.629751,672.477681 594.357137,672.754097 594.357137,673.093518 L594.357137,673.093518 Z M592.997117,673.093518 C592.997117,671.994647 593.879605,671.100231 594.965182,671.100231 C596.050453,671.100231 596.932942,671.994647 596.932942,673.093518 C596.932942,674.192699 596.050453,675.087115 594.965182,675.087115 C593.879605,675.087115 592.997117,674.192699 592.997117,673.093518 L592.997117,673.093518 Z M609.643334,668.373435 L590.356666,668.373435 L590.356666,680.625947 L609.643334,680.625947 L609.643334,668.373435 Z M611,681.312819 C611,681.692699 610.695978,682 610.32121,682 L589.67818,682 C589.303717,682 589,681.692699 589,681.312819 L589,667.686872 C589,667.307301 589.303717,667 589.67818,667 L610.32121,667 C610.695978,667 611,667.307301 611,667.686872 L611,681.312819 Z M605.885898,673.469692 L607.567322,673.469692 C607.94209,673.469692 608.245807,673.162391 608.245807,672.78282 C608.245807,672.40294 607.94209,672.095639 607.567322,672.095639 L605.885898,672.095639 C605.511435,672.095639 605.207108,672.40294 605.207108,672.78282 C605.207108,673.162391 605.511435,673.469692 605.885898,673.469692 L605.885898,673.469692 Z M600.161617,672.78282 C600.161617,673.162391 600.465639,673.469692 600.840102,673.469692 L603.362238,673.469692 C603.73731,673.469692 604.041028,673.162391 604.041028,672.78282 C604.041028,672.40294 603.73731,672.095639 603.362238,672.095639 L600.840102,672.095639 C600.465639,672.095639 600.161617,672.40294 600.161617,672.78282 L600.161617,672.78282 Z M607.566712,674.664306 L600.840102,674.664306 C600.465639,674.664306 600.161617,674.971607 600.161617,675.351178 C600.161617,675.731057 600.465639,676.038359 600.840102,676.038359 L607.566712,676.038359 C607.94209,676.038359 608.245502,675.731057 608.245502,675.351178 C608.245502,674.971607 607.94209,674.664306 607.566712,674.664306 L607.566712,674.664306 Z M607.566712,677.219383 L600.840102,677.219383 C600.465639,677.219383 600.161617,677.526375 600.161617,677.906255 C600.161617,678.285826 600.465639,678.592509 600.840102,678.592509 L607.566712,678.592509 C607.94209,678.592509 608.245502,678.285826 608.245502,677.906255 C608.245502,677.526375 607.94209,677.219383 607.566712,677.219383 L607.566712,677.219383 Z M599.984753,672.839648 L600.016772,672.807528 L600.016772,672.803204 L599.982924,672.837794 L599.984753,672.839648 Z M600.020126,672.801042 L600.020126,672.801042 L599.979569,672.841809 L600.020126,672.801042 Z" id="dni"></path>
        </g>
    </g>
</svg>