<?xml version="1.0" encoding="UTF-8"?>
<svg width="61px" height="61px" viewBox="0 0 61 61" version="1.1" xmlns="http://www.w3.org/2000/svg" xmlns:xlink="http://www.w3.org/1999/xlink">
    <title>Group 3</title>
    <defs>
        <polygon id="path-1" points="0.0001 0.0002 60.799 0.0002 60.799 60.7998 0.0001 60.7998"></polygon>
    </defs>
    <g id="Mi-conexión-a-la-red" stroke="none" stroke-width="1" fill="none" fill-rule="evenodd">
        <g id="1-03_UFD_Mis-suministros" transform="translate(-274.000000, -690.000000)">
            <g id="Group-3" transform="translate(274.000000, 690.000000)">
                <mask id="mask-2" fill="white">
                    <use xlink:href="#path-1"></use>
                </mask>
                <g id="Clip-2"></g>
                <path d="M39.992,18.908 C39.99,18.901 39.987,18.895 39.986,18.887 L35.51,4.344 L52.113,4.344 L52.113,10.857 C52.113,12.056 53.086,13.029 54.284,13.029 C55.484,13.029 56.457,12.056 56.457,10.857 L56.457,3.325 C56.457,1.491 54.965,0 53.131,0 L7.667,0 C5.834,0 4.342,1.491 4.342,3.325 L4.342,10.857 C4.342,12.056 5.314,13.029 6.513,13.029 C7.713,13.029 8.685,12.056 8.685,10.857 L8.685,4.344 L25.287,4.344 L20.81,18.895 L8.781,57.99 C8.429,59.137 9.071,60.351 10.217,60.704 C10.43,60.769 10.645,60.8 10.857,60.8 C11.785,60.8 12.644,60.201 12.931,59.267 L16.47,47.772 L44.33,47.772 L47.866,59.267 C48.153,60.201 49.013,60.8 49.94,60.8 C50.153,60.8 50.367,60.769 50.58,60.704 C51.726,60.351 52.37,59.137 52.017,57.99 L39.992,18.908 Z M24.084,23.018 L34.734,30.4 L21.813,30.4 L24.084,23.018 Z M29.826,21.715 L36.31,21.715 L38.069,27.428 L29.826,21.715 Z M30.967,4.344 L34.974,17.371 L25.822,17.371 L29.83,4.344 L30.967,4.344 Z M17.805,43.429 L20.284,35.371 L36.4,43.429 L17.805,43.429 Z M28.74,34.743 L40.32,34.743 L42.426,41.586 L28.74,34.743 Z M0,19.543 C0,18.345 0.971,17.371 2.17,17.371 L10.855,17.371 C12.055,17.371 13.027,18.345 13.027,19.543 C13.027,20.742 12.055,21.715 10.855,21.715 L2.17,21.715 C0.971,21.715 0,20.742 0,19.543 L0,19.543 Z M10.855,30.4 L2.17,30.4 C0.971,30.4 0,29.428 0,28.228 C0,27.03 0.971,26.057 2.17,26.057 L10.855,26.057 C12.055,26.057 13.027,27.03 13.027,28.228 C13.027,29.428 12.055,30.4 10.855,30.4 L10.855,30.4 Z M49.941,17.371 L58.627,17.371 C59.826,17.371 60.799,18.345 60.799,19.543 C60.799,20.742 59.826,21.715 58.627,21.715 L49.941,21.715 C48.743,21.715 47.769,20.742 47.769,19.543 C47.769,18.345 48.743,17.371 49.941,17.371 L49.941,17.371 Z M60.799,28.228 C60.799,29.428 59.826,30.4 58.627,30.4 L49.941,30.4 C48.743,30.4 47.769,29.428 47.769,28.228 C47.769,27.03 48.743,26.057 49.941,26.057 L58.627,26.057 C59.826,26.057 60.799,27.03 60.799,28.228 L60.799,28.228 Z" id="Fill-1" fill="#004571" mask="url(#mask-2)"></path>
            </g>
        </g>
    </g>
</svg>