<svg width="16" height="16" viewBox="0 0 16 16" fill="none" xmlns="http://www.w3.org/2000/svg">
<path d="M11.4178 7.76365H8.24983V5.42765C8.24983 5.16845 8.03863 4.96045 7.78263 4.96045C7.52663 4.96045 7.31543 5.16845 7.31543 5.42765V8.23405C7.31543 8.46125 7.47543 8.64685 7.68983 8.69165C7.72183 8.69805 7.75063 8.70125 7.78263 8.70125H11.421C11.6802 8.70125 11.8882 8.49325 11.8882 8.23405C11.8882 7.97485 11.677 7.76365 11.4178 7.76365Z" fill="#004571"/>
<path d="M8.016 1.46582C4.3968 1.46582 1.4624 4.40022 1.4624 8.01942C1.4624 11.6386 4.3968 14.573 8.016 14.573C11.6352 14.573 14.5696 11.6386 14.5696 8.01942C14.5664 4.39702 11.632 1.46582 8.016 1.46582ZM8.016 13.6322C4.9152 13.6322 2.4 11.117 2.4 8.01622C2.4 4.91542 4.9152 2.40022 8.016 2.40022C11.1168 2.40022 13.632 4.91542 13.632 8.01622C13.632 11.117 11.1168 13.6322 8.016 13.6322Z" fill="#004571"/>
</svg>
