<?xml version="1.0" encoding="UTF-8"?>
<svg width="18px" height="19px" viewBox="0 0 18 19" version="1.1" xmlns="http://www.w3.org/2000/svg" xmlns:xlink="http://www.w3.org/1999/xlink">
    <title>aval</title>
    <g id="Mi-conexión-a-la-red" stroke="none" stroke-width="1" fill="none" fill-rule="evenodd">
        <g id="2-05_UFD_TEN_A_MANO_NU_01.3-" transform="translate(-591.000000, -591.000000)" fill="#004571">
            <path d="M608.761134,606.229912 C609.233689,606.701814 608.827865,607.200854 608.827865,607.200854 C607.104925,608.929552 604.720408,610 602.085271,610 C597.777318,610 594.140303,607.139944 592.969031,603.218184 L591.678789,603.218184 C591.304368,603.218184 591,602.914539 591,602.539731 C591,602.165527 591.304368,601.861278 591.678789,601.861278 L592.670702,601.861278 C592.606688,601.416515 592.571963,600.962403 592.571963,600.499849 C592.571963,600.288775 592.581324,600.080415 592.59461,599.872959 L591.678789,599.872959 C591.304368,599.872959 591,599.569313 591,599.194506 C591,598.820301 591.304368,598.516053 591.678789,598.516053 L592.781216,598.516053 C593.694924,594.221898 597.512506,591 602.085271,591 C604.709236,591 607.085299,592.061402 608.806426,593.777134 C608.806426,593.777134 609.245767,594.242704 608.800689,594.687769 C608.355008,595.132231 607.832932,594.749583 607.832932,594.749583 C606.359405,593.270254 604.319718,592.353589 602.065342,592.353589 C598.250176,592.353589 595.050689,594.977544 594.17231,598.516053 L604.738828,598.516053 C605.11355,598.516053 605.417616,598.820301 605.417616,599.194506 C605.417616,599.569313 605.11355,599.872959 604.738828,599.872959 L593.957018,599.872959 C593.942525,600.071972 593.93256,600.272492 593.93256,600.475425 C593.93256,600.948231 593.975136,601.410785 594.052737,601.861278 L601.719305,601.861278 C602.094028,601.861278 602.398094,602.165527 602.398094,602.539731 C602.398094,602.914539 602.094028,603.218184 601.719305,603.218184 L594.409343,603.218184 C595.535625,606.353843 598.537634,608.597261 602.065342,608.597261 C604.318208,608.597261 606.356688,607.681802 607.829611,606.204282 C607.829611,606.204282 608.288578,605.757709 608.761134,606.229912" id="aval"></path>
        </g>
    </g>
</svg>