<?xml version="1.0" encoding="UTF-8"?>
<svg width="15px" height="22px" viewBox="0 0 15 22" version="1.1" xmlns="http://www.w3.org/2000/svg" xmlns:xlink="http://www.w3.org/1999/xlink">
    <title>memoria</title>
    <g id="Mi-conexión-a-la-red" stroke="none" stroke-width="1" fill="none" fill-rule="evenodd">
        <g id="2-05_UFD_TEN_A_MANO_NU_01.3-" transform="translate(-592.000000, -737.000000)" fill="#004571">
            <path d="M605.627449,754.10398 L602.880267,754.10398 C602.501397,754.10398 602.194734,754.41702 602.194734,754.803325 L602.194734,757.600705 L594.023614,757.600705 C593.664355,757.600705 593.371957,757.302802 593.371957,756.937386 L593.371957,739.063219 C593.371957,738.697501 593.664355,738.399598 594.023614,738.399598 L604.975495,738.399598 C605.335347,738.399598 605.627449,738.697501 605.627449,739.063219 L605.627449,754.10398 Z M603.566988,757.180189 L603.566988,755.50267 L604.88516,755.50267 L603.566988,757.180189 Z M604.975495,737 L594.023614,737 C592.907506,737 592,737.926102 592,739.063219 L592,756.937386 C592,758.0742 592.907506,759 594.023614,759 L603.566988,759 C603.776184,759 603.972602,758.903121 604.103053,758.737216 L606.849046,755.239886 C606.946215,755.116668 607,754.962872 607,754.803325 L607,739.063219 C607,737.926102 606.091602,737 604.975495,737 L604.975495,737 Z M603.121972,745.644358 L599.05008,745.644358 C598.676261,745.644358 598.371679,745.953462 598.371679,746.334923 C598.371679,746.71699 598.676261,747.026397 599.05008,747.026397 L603.121972,747.026397 C603.496979,747.026397 603.799778,746.71699 603.799778,746.334923 C603.799778,745.953462 603.496979,745.644358 603.121972,745.644358 M603.121972,740.113902 L599.05008,740.113902 C598.676261,740.113902 598.371679,740.423914 598.371679,740.804467 C598.371679,741.186533 598.676261,741.496546 599.05008,741.496546 L603.121972,741.496546 C603.496979,741.496546 603.799778,741.186533 603.799778,740.804467 C603.799778,740.423914 603.496979,740.113902 603.121972,740.113902 M603.121972,742.87913 L599.05008,742.87913 C598.676261,742.87913 598.371679,743.188234 598.371679,743.570301 C598.371679,743.952367 598.676261,744.261169 599.05008,744.261169 L603.121972,744.261169 C603.496979,744.261169 603.799778,743.952367 603.799778,743.570301 C603.799778,743.188234 603.496979,742.87913 603.121972,742.87913" id="memoria"></path>
        </g>
    </g>
</svg>