<?xml version="1.0" encoding="UTF-8"?>
<svg width="18px" height="19px" viewBox="0 0 18 19" version="1.1" xmlns="http://www.w3.org/2000/svg" xmlns:xlink="http://www.w3.org/1999/xlink">
    <!-- Generator: Sketch 63.1 (92452) - https://sketch.com -->
    <title>Group 7</title>
    <desc>Created with Sketch.</desc>
    <g id="Symbols" stroke="none" stroke-width="1" fill="none" fill-rule="evenodd">
        <g id="ico_listado-/-consumo" transform="translate(-3.000000, -10.000000)" fill="#555555">
            <g id="Group-7" transform="translate(3.000000, 10.000000)">
                <path d="M14.434782,17.57617 L14.434782,5.1506225 C14.434782,4.78646 14.1343845,4.4860625 13.7699295,4.4860625 C13.405767,4.4860625 13.1053695,4.78646 13.1053695,5.1506225 L13.1053695,17.57617 L10.9771045,17.57617 L10.9771045,7.9127 C10.9771045,7.548245 10.676707,7.247555 10.312252,7.247555 C9.947797,7.247555 9.6473995,7.548245 9.6473995,7.9127 L9.6473995,17.57617 L7.487252,17.57617 L7.487252,11.16998 C7.487252,10.805525 7.1868545,10.5051275 6.822692,10.5051275 C6.4579445,10.5051275 6.157547,10.805525 6.157547,11.16998 L6.157547,17.57617 L4.0295745,17.57617 L4.0295745,12.3016625 C4.0295745,11.9372075 3.729177,11.63681 3.3644295,11.63681 C2.9999745,11.63681 2.699577,11.9372075 2.699577,12.3016625 L2.699577,17.57617 L0.6649695,17.57617 C0.3005145,17.57617 0.000117,17.8765675 0.000117,18.2410225 C0.000117,18.6054775 0.3005145,18.905875 0.6649695,18.905875 L16.463247,18.905875 C16.827702,18.905875 17.1603166,18.6054775 17.1603166,18.2410225 C17.1631995,17.87335 16.862802,17.57617 16.4986395,17.57617 L14.434782,17.57617 Z" id="Fill-1"></path>
                <path d="M1.66218975,7.14285 C1.85728725,7.1109675 6.34833225,6.0655725 9.81036225,2.5941825 L9.81036225,3.8823525 C9.81036225,4.2468075 10.1110523,4.547205 10.4752148,4.547205 C10.8396698,4.547205 11.1400673,4.2468075 11.1400673,3.85047 L11.1400673,0.9573525 C11.1400673,0.5928975 10.8396698,0.2925 10.4752148,0.2925 L7.55050725,0.2925 C7.18605225,0.2925 6.88536225,0.5928975 6.88536225,0.9573525 C6.88536225,1.3218075 7.18605225,1.622205 7.55050725,1.622205 L8.92174725,1.622205 C5.74431975,4.8891375 1.39689225,5.91201 1.36471725,5.91201 C0.99733725,5.979285 0.79931475,6.3118575 0.86307975,6.67602 C0.96545475,7.101315 1.41590475,7.22592 1.66218975,7.14285" id="Fill-4"></path>
            </g>
        </g>
    </g>
</svg>