<svg width="20" height="20" viewBox="0 0 20 20" fill="none" xmlns="http://www.w3.org/2000/svg">
<path fill-rule="evenodd" clip-rule="evenodd" d="M9.49665 1.82422C9.522 1.82422 9.54736 1.82422 9.57271 1.82449C9.60815 1.82488 9.64361 1.8258 9.67905 1.82802C11.3662 1.88502 12.8901 2.79702 13.7641 4.26762C14.6457 5.76862 14.7027 7.58882 13.9161 9.13542L9.95265 16.9102C9.85765 17.0964 9.66766 17.2104 9.46246 17.2104C9.25345 17.2104 9.06725 17.0926 8.97225 16.9064L5.06205 9.11642C4.28305 7.56602 4.35146 5.74962 5.23685 4.25622C6.10325 2.79322 7.63085 1.88502 9.31425 1.82802C9.37505 1.82422 9.43585 1.82422 9.49665 1.82422ZM9.46896 15.4092L12.9384 8.59962C13.554 7.38742 13.5084 5.96242 12.8206 4.78822C12.148 3.64442 10.9623 2.93762 9.65135 2.89202C9.60195 2.88822 9.55255 2.88822 9.50315 2.88822C9.48331 2.88822 9.46348 2.88883 9.44364 2.88956L9.42892 2.89012C9.40427 2.89107 9.37961 2.89202 9.35495 2.89202C8.02876 2.93762 6.87355 3.62542 6.18575 4.78062C5.49036 5.95482 5.43716 7.37602 6.04515 8.58822L9.46896 15.4092ZM8.81598 9.94862C8.81598 9.57622 9.11618 9.27602 9.48858 9.27602C9.86098 9.27602 10.1612 9.57622 10.1612 9.94862C10.1612 10.321 9.86098 10.6212 9.48858 10.6212C9.11618 10.6212 8.81598 10.321 8.81598 9.94862ZM10.0472 7.61542C10.0472 7.92322 9.79638 8.17022 9.48858 8.17022C9.18078 8.17022 8.92998 7.91942 8.92998 7.61542V5.30502C8.92998 4.99722 9.18078 4.75022 9.48858 4.75022C9.79638 4.75022 10.0472 4.99722 10.0472 5.30502V7.61542Z" fill="#D3222A"/>
</svg>
