<?xml version="1.0" encoding="UTF-8"?>
<svg width="15px" height="13px" viewBox="0 0 15 13" version="1.1" xmlns="http://www.w3.org/2000/svg" xmlns:xlink="http://www.w3.org/1999/xlink">
    <!-- Generator: Sketch 57.1 (83088) - https://sketch.com -->
    <title>Fill 1</title>
    <desc>Created with Sketch.</desc>
    <g id="Symbols" stroke="none" stroke-width="1" fill="none" fill-rule="evenodd">
        <path d="M0.851531394,7.9755687 L7.62874426,1.14927232 C9.14998979,-0.38293995 11.637708,-0.383166174 13.1587289,1.1490461 C14.6804237,2.6814846 14.6804237,5.18758936 13.1587289,6.71980164 L8.9455998,10.9610412 C8.75266462,11.155141 8.43462481,11.1549148 8.24191424,10.9610412 C8.04897907,10.7667152 8.04897907,10.4461564 8.24191424,10.2520565 L12.4550434,6.00810227 C13.5908678,4.86386343 13.5908678,3.01086612 12.4550434,1.8668535 C11.319219,0.722840884 9.47993364,0.722840884 8.34410924,1.8668535 L1.56712098,8.69609079 C0.816493109,9.45212997 0.816493109,10.6755471 1.56712098,11.4286453 C2.31752425,12.1815174 3.53240939,12.1844583 4.27944359,11.4286453 L10.4902042,5.17559951 C10.8873047,4.77563623 10.8873047,4.13451862 10.4902042,3.73432912 C10.092879,3.33459206 9.45679939,3.33436583 9.05924962,3.73432912 L5.19919857,7.62265992 C5.0062634,7.81675975 4.68822358,7.81675975 4.49573762,7.62265992 C4.30302705,7.4285601 4.30302705,7.10800129 4.49573762,6.91390146 L8.35556406,3.02557065 C9.13831036,2.23740772 10.4230475,2.23763394 11.2053446,3.02557065 C11.9878663,3.81373359 11.9878663,5.10795866 11.2053446,5.89634782 L4.99480858,12.1521083 C3.83584992,13.2845836 1.98735579,13.2845836 0.851531394,12.1403447 C-0.283843798,10.9963321 -0.283843798,9.13157117 0.851531394,7.9755687 Z" id="Fill-1" fill="#5193bd"></path>
    </g>
</svg>