<?xml version="1.0" encoding="UTF-8"?>
<svg width="21px" height="22px" viewBox="0 0 21 22" version="1.1" xmlns="http://www.w3.org/2000/svg" xmlns:xlink="http://www.w3.org/1999/xlink">
    <title>cups</title>
    <g id="Mi-conexión-a-la-red" stroke="none" stroke-width="1" fill="none" fill-rule="evenodd">
        <g id="2-05_UFD_TEN_A_MANO_NU_01.3-" transform="translate(-589.000000, -627.000000)" fill="#004571">
            <path d="M607.732197,646.99323 C607.732197,647.349841 607.440365,647.639247 607.080764,647.639247 L591.917404,647.639247 C591.558109,647.639247 591.266277,647.349841 591.266277,646.99323 L591.266277,642.321866 C591.266277,641.966163 591.558109,641.676455 591.917404,641.676455 L607.080764,641.676455 C607.440365,641.676455 607.732197,641.966163 607.732197,642.321866 L607.732197,646.99323 Z M591.266277,631.202744 C591.266277,630.847041 591.558109,630.557332 591.917404,630.557332 L607.080764,630.557332 C607.440365,630.557332 607.732197,630.847041 607.732197,631.202744 L607.732197,639.627303 C607.732197,639.983612 607.440365,640.273017 607.080764,640.273017 L591.917404,640.273017 C591.558109,640.273017 591.266277,639.983612 591.266277,639.627303 L591.266277,631.202744 Z M609.104662,637.76675 L609.104662,631.202744 C609.104662,630.097189 608.196808,629.197487 607.080764,629.197487 L604.827003,629.197487 L604.827003,627.688399 C604.827003,627.308478 604.51655,627 604.132223,627 C603.749117,627 603.437443,627.308478 603.437443,627.688399 L603.437443,629.197487 L595.561641,629.197487 L595.561641,627.688399 C595.561641,627.308478 595.250883,627 594.866556,627 C594.483756,627 594.171776,627.308478 594.171776,627.688399 L594.171776,629.197487 L591.917404,629.197487 C590.801666,629.197487 589.894422,630.097189 589.894422,631.202744 L589.894422,637.76675 L589.893812,637.76675 C589.398369,637.76675 589,638.163926 589,638.654039 C589,639.144758 589.398369,639.541934 589.893812,639.541934 L589.894422,639.541934 L589.894422,639.627303 C589.894422,640.146175 590.095896,640.618428 590.422834,640.975039 C590.095896,641.331347 589.894422,641.802994 589.894422,642.321866 L589.894422,646.99323 C589.894422,648.099996 590.801666,649 591.917404,649 L607.080764,649 C608.196808,649 609.104662,648.099996 609.104662,646.99323 L609.104662,642.321866 C609.104662,641.802994 608.903188,641.331347 608.57564,640.975039 C608.903188,640.618428 609.104662,640.146175 609.104662,639.627303 L609.104662,639.541934 C609.599799,639.541026 610,639.144455 610,638.654039 C610,638.164229 609.599799,637.767355 609.104662,637.76675 L609.104662,637.76675 Z M594.445292,636.821942 L604.55196,636.821942 L604.55196,633.864915 L594.445292,633.864915 L594.445292,636.821942 Z M594.368061,638.181787 L604.631024,638.181787 C605.344119,638.181787 605.925036,637.6057 605.925036,636.898532 L605.925036,633.78772 C605.925036,633.081158 605.344119,632.505071 604.631024,632.505071 L594.368061,632.505071 C593.653744,632.505071 593.073438,633.081158 593.073438,633.78772 L593.073438,636.898532 C593.073438,637.6057 593.653744,638.181787 594.368061,638.181787 L594.368061,638.181787 Z" id="cups"></path>
        </g>
    </g>
</svg>