<svg width="28" height="28" viewBox="0 0 28 28" fill="none" xmlns="http://www.w3.org/2000/svg">
<circle cx="14" cy="14" r="14" fill="#BDBDBD"/>
<path d="M20.9154 10.7523C19.8575 8.02669 17.162 6.08789 14.0046 6.08789C10.8471 6.08789 8.15165 8.02444 7.09378 10.75C5.10507 11.2618 3.64068 13.036 3.65223 15.1417C3.66609 17.4953 5.537 19.4093 7.89296 19.6144C8.00151 19.6234 8.0939 19.54 8.0939 19.4341V18.0724C8.0939 17.9822 8.02461 17.9056 7.93222 17.8943C7.30859 17.8177 6.7196 17.5516 6.26688 17.1165C5.71254 16.5867 5.40765 15.8743 5.40765 15.1191C5.40765 14.4879 5.61784 13.8927 6.01281 13.3967C6.39854 12.9143 6.94133 12.5648 7.53956 12.4115L8.41496 12.1861L8.73602 11.3587C8.93466 10.8447 9.21183 10.3623 9.5606 9.92717C9.90476 9.49432 10.3136 9.11558 10.7709 8.79996C11.7202 8.14843 12.8382 7.80351 14.0046 7.80351C15.171 7.80351 16.2889 8.14843 17.2383 8.80222C17.6979 9.11784 18.1044 9.49658 18.4486 9.92943C18.7974 10.3645 19.0745 10.847 19.2732 11.361L19.5919 12.1861L20.465 12.4115C21.7169 12.7362 22.5923 13.8476 22.5923 15.1169C22.5923 15.8743 22.2874 16.5845 21.7331 17.1143C21.2827 17.5471 20.696 17.8154 20.0723 17.8921C19.98 17.9033 19.913 17.98 19.913 18.0702V19.4341C19.913 19.54 20.0077 19.6234 20.1162 19.6144C22.4653 19.407 24.3315 17.4953 24.3477 15.1462C24.3616 13.0405 22.8995 11.2663 20.9154 10.7523Z" fill="#64666A"/>
<path d="M10.8795 17.2338C10.921 16.4786 11.2421 15.7752 11.7918 15.2364C12.3785 14.6615 13.1777 14.3391 14.0092 14.3391C14.8453 14.3391 15.633 14.657 16.2266 15.2364C16.2589 15.2679 16.2889 15.2995 16.3213 15.3333L15.7438 15.7752C15.7163 15.796 15.6954 15.8239 15.6834 15.8558C15.6714 15.8876 15.6689 15.9222 15.6762 15.9554C15.6834 15.9886 15.7001 16.0191 15.7243 16.0435C15.7486 16.0678 15.7793 16.085 15.8131 16.0931L18.0813 16.6341C18.1968 16.6612 18.31 16.5755 18.31 16.4605L18.3215 14.1768C18.3215 14.0257 18.146 13.9401 18.0236 14.0348L17.4877 14.4451C16.6423 13.4982 15.3997 12.8985 14.0115 12.8985C11.5308 12.8985 9.50747 14.8171 9.40585 17.2203C9.40123 17.3217 9.48438 17.4074 9.59063 17.4074H10.697C10.794 17.4051 10.8749 17.3307 10.8795 17.2338ZM18.4116 17.4051H17.3052C17.2082 17.4051 17.1274 17.4795 17.1205 17.5765C17.0789 18.3317 16.7578 19.0351 16.2081 19.5739C15.6214 20.1488 14.8222 20.4711 13.9907 20.4711C13.1546 20.4711 12.367 20.1533 11.7734 19.5739C11.741 19.5423 11.711 19.5108 11.6787 19.4769L12.2561 19.0351C12.2836 19.0143 12.3046 18.9864 12.3165 18.9545C12.3285 18.9226 12.331 18.8881 12.3238 18.8549C12.3165 18.8217 12.2998 18.7912 12.2756 18.7668C12.2514 18.7424 12.2206 18.7252 12.1868 18.7172L9.91861 18.1761C9.80312 18.1491 9.68995 18.2348 9.68995 18.3497L9.68071 20.6357C9.68071 20.7868 9.85625 20.8724 9.97867 20.7777L10.5145 20.3674C11.3599 21.3143 12.6026 21.914 13.9907 21.914C16.4714 21.914 18.4948 19.9955 18.5964 17.5922C18.601 17.4908 18.5179 17.4051 18.4116 17.4051Z" fill="#64666A"/>
</svg>
