<?xml version="1.0" encoding="UTF-8"?>
<svg width="29px" height="25px" viewBox="0 0 29 25" version="1.1" xmlns="http://www.w3.org/2000/svg" xmlns:xlink="http://www.w3.org/1999/xlink">
    <title>Group 1062</title>
    <g id="Mi-conexión-a-la-red" stroke="none" stroke-width="1" fill="none" fill-rule="evenodd" stroke-linecap="round" stroke-linejoin="round">
        <g id="2-05_UFD_TEN_A_MANO_NU_01.3-" transform="translate(-585.000000, -773.000000)" stroke="#004571" stroke-width="1.3">
            <g id="Group-1062" transform="translate(586.000000, 774.000000)">
                <g id="Group-560" transform="translate(8.123894, 3.989796)">
                    <line x1="0" y1="2.65986395" x2="0" y2="4.38095238" id="Stroke-294"></line>
                    <line x1="0" y1="6.10204082" x2="0" y2="7.82312925" id="Stroke-295"></line>
                    <line x1="0" y1="9.54421769" x2="0" y2="11.2653061" id="Stroke-296"></line>
                    <line x1="14.167621" y1="2.65986395" x2="14.167621" y2="4.38095238" id="Stroke-297"></line>
                    <line x1="14.167621" y1="6.10204082" x2="14.167621" y2="7.82312925" id="Stroke-298"></line>
                    <polyline id="Stroke-299" points="0 12.9863946 0 13.8469388 0.885476314 13.8469388"></polyline>
                    <polyline id="Stroke-300" points="0.885476314 0.0782312925 0 0.0782312925 0 0.93877551"></polyline>
                    <line x1="2.65642894" y1="0.0782312925" x2="4.42738157" y2="0.0782312925" id="Stroke-301"></line>
                    <line x1="6.1983342" y1="0.0782312925" x2="7.96928683" y2="0.0782312925" id="Stroke-302"></line>
                    <line x1="2.65642894" y1="13.8469388" x2="4.42738157" y2="13.8469388" id="Stroke-303"></line>
                    <line x1="6.1983342" y1="13.8469388" x2="7.96928683" y2="13.8469388" id="Stroke-304"></line>
                    <line x1="9.74023946" y1="0.0782312925" x2="11.5111921" y2="0.0782312925" id="Stroke-305"></line>
                    <polyline id="Stroke-306" points="13.2821447 0.0782312925 14.167621 0.0782312925 14.167621 0.93877551"></polyline>
                </g>
                <polygon id="Stroke-2521" transform="translate(20.823919, 16.663394) rotate(-24.000000) translate(-20.823919, -16.663394) " points="16.2974367 21.5618612 20.7285342 11.7049992 25.3504017 21.621788 20.776705 18.8952773"></polygon>
                <polygon id="Stroke-2521-Copy" transform="translate(4.390678, 4.454003) rotate(31.000000) translate(-4.390678, -4.454003) " points="1.65583776 8.00200262 4.42927694 0.906002762 7.12551894 7.9589077 4.38839638 6.05115997"></polygon>
            </g>
        </g>
    </g>
</svg>