<svg width="23" height="23" viewBox="0 0 23 23" fill="none" xmlns="http://www.w3.org/2000/svg">
<path d="M11.5 0C5.152 0 0 5.152 0 11.5C0 17.848 5.152 23 11.5 23C17.848 23 23 17.848 23 11.5C23 5.152 17.848 0 11.5 0Z" fill="#A2AD00"/>
<mask id="mask0_0_56548" style="mask-type:alpha" maskUnits="userSpaceOnUse" x="4" y="5" width="15" height="14">
<path fill-rule="evenodd" clip-rule="evenodd" d="M4 5H18.6719V18.2305H4V5Z" fill="white"/>
</mask>
<g mask="url(#mask0_0_56548)">
<path fill-rule="evenodd" clip-rule="evenodd" d="M17.4168 6.17236C17.2678 6.08376 17.1089 6.02949 16.9483 6.00955C16.4897 5.95141 16.0201 6.16073 15.7665 6.58216L9.58742 15.1541L7.30363 11.1719C7.03726 10.5644 6.32676 10.2892 5.7176 10.555C5.10955 10.823 4.83488 11.5346 5.10235 12.141L7.50687 16.4024C7.51296 16.4162 7.52016 16.4289 7.5257 16.4422C7.8624 17.1372 8.52582 17.609 9.2834 17.7043C9.33822 17.7115 9.39249 17.717 9.44732 17.7198C10.2719 17.7641 11.056 17.3549 11.493 16.6538C11.4969 16.6477 11.5002 16.6416 11.5029 16.6394L17.8282 7.82429C18.1699 7.2539 17.9861 6.5146 17.4168 6.17236Z" fill="white"/>
</g>
</svg>
