<?xml version="1.0" encoding="UTF-8"?>
<svg width="15px" height="15px" viewBox="0 0 15 15" version="1.1" xmlns="http://www.w3.org/2000/svg" xmlns:xlink="http://www.w3.org/1999/xlink">
    <!-- Generator: Sketch 57.1 (83088) - https://sketch.com -->
    <title>Fill 3</title>
    <desc>Created with Sketch.</desc>
    <g id="Symbols" stroke="none" stroke-width="1" fill="none" fill-rule="evenodd">
        <g id="Info_expediente-/-desktop" transform="translate(-825.000000, -32.000000)" fill="#FFFFFF">
            <g id="Group-4" transform="translate(825.000000, 30.000000)">
                <path d="M7.3828125,15.7109375 C3.88804687,15.7109375 1.0546875,12.8778125 1.0546875,9.3828125 C1.0546875,5.88804687 3.88804687,3.0546875 7.3828125,3.0546875 C10.8778125,3.0546875 13.7109375,5.88804687 13.7109375,9.3828125 C13.7109375,12.8778125 10.8778125,15.7109375 7.3828125,15.7109375 M7.3828125,2 C3.305625,2 0,5.30539063 0,9.3828125 C0,13.46 3.305625,16.765625 7.3828125,16.765625 C11.46,16.765625 14.765625,13.46 14.765625,9.3828125 C14.765625,5.30539063 11.46,2 7.3828125,2 M11.1039609,8.85546875 L7.91013281,8.85546875 L7.91013281,5.661875 C7.91013281,5.37101563 7.67364844,5.135 7.38278906,5.135 C7.09146094,5.135 6.85544531,5.37101563 6.85544531,5.661875 L6.85544531,8.85546875 L3.66208594,8.85546875 C3.37099219,8.85546875 3.13497656,9.09148438 3.13497656,9.3828125 C3.13497656,9.67367188 3.37099219,9.91015625 3.66208594,9.91015625 L6.85544531,9.91015625 L6.85544531,13.10375 C6.85544531,13.3948438 7.09146094,13.6308594 7.38278906,13.6308594 C7.67364844,13.6308594 7.91013281,13.3948438 7.91013281,13.10375 L7.91013281,9.91015625 L11.1039609,9.91015625 C11.3945859,9.91015625 11.6308359,9.67367188 11.6308359,9.3828125 C11.6308359,9.09148438 11.3945859,8.85546875 11.1039609,8.85546875" id="Fill-3"></path>
            </g>
        </g>
    </g>
</svg>