<svg width="32" height="30" viewBox="0 0 32 30" fill="none" xmlns="http://www.w3.org/2000/svg">
<path d="M15.5481 2.63379H15.4922H15.4362C12.9381 2.66979 10.6264 3.77379 9.09145 5.67579C7.95424 7.07379 7.35767 8.75379 7.35767 10.5358C7.35767 12.4258 8.46381 14.4958 8.84909 15.0718C9.15359 15.5278 9.73152 16.6618 9.83717 16.9558C9.86202 17.1778 9.89931 18.0178 9.89309 18.9718C9.89309 19.1278 9.91174 19.2778 9.95524 19.4338L10.0857 21.5458C10.1044 22.7938 10.6202 23.9698 11.5337 24.8578C11.9003 25.2058 12.3105 25.4998 12.7579 25.7218C13.2861 26.6998 14.3425 27.3358 15.5046 27.3358C16.6667 27.3358 17.7293 26.6998 18.2513 25.7158C19.867 24.9118 20.8986 23.3098 20.9235 21.5458L21.054 19.4938C21.1037 19.3258 21.1285 19.1578 21.1285 18.9898C21.1347 18.0178 21.1782 17.1718 21.2031 16.9618C21.3087 16.6738 21.8867 15.5338 22.1912 15.0778C22.5765 14.5018 23.6826 12.4258 23.6826 10.5358C23.6826 8.75379 23.086 7.07979 21.9488 5.67579C20.4139 3.77979 18.1022 2.67579 15.604 2.63379H15.5481V2.63379ZM11.6207 16.5838C11.6145 16.5718 11.6145 16.5598 11.6082 16.5418C11.4902 16.0798 10.7196 14.6338 10.3778 14.1118C9.99874 13.5538 9.17845 11.8738 9.17845 10.5298C9.17845 9.14979 9.64452 7.84179 10.527 6.75579C11.7263 5.27979 13.5285 4.41579 15.4735 4.39179H15.4984H15.5667H15.5854C17.5242 4.42179 19.3264 5.27979 20.5195 6.75579C21.402 7.84179 21.868 9.14979 21.868 10.5298C21.868 11.8678 21.0415 13.5538 20.6687 14.1178C20.3207 14.6338 19.5563 16.0858 19.4382 16.5478C19.432 16.5598 19.432 16.5718 19.4258 16.5838C19.3637 16.8838 19.3326 17.7898 19.3202 18.3958H11.7077C11.7015 17.7958 11.6828 16.8958 11.6207 16.5838ZM14.3115 24.7558C14.2245 24.5278 14.0442 24.3418 13.8081 24.2458C13.4352 24.0958 13.1059 23.8798 12.82 23.6038C12.2359 23.0398 11.9127 22.2958 11.9003 21.4978C11.9003 21.4798 11.9003 21.4678 11.9003 21.4498L11.8195 20.1538H19.1835L19.1027 21.4498C19.1027 21.4618 19.1027 21.4798 19.1027 21.4978C19.0902 22.6918 18.3445 23.7718 17.1949 24.2458C16.9587 24.3418 16.7785 24.5278 16.6915 24.7558C16.5113 25.2418 16.0328 25.5718 15.4922 25.5718C14.9764 25.5718 14.4917 25.2418 14.3115 24.7558Z" fill="#E57200"/>
</svg>
