<svg width="12" height="18" viewBox="0 0 12 18" fill="none" xmlns="http://www.w3.org/2000/svg">
<path d="M2.06798 15.768C1.71198 15.32 1.75998 14.624 2.17198 14.24L7.81198 9.45995C7.94398 9.34795 8.01998 9.17995 8.01998 9.00395C8.01998 8.83195 7.94398 8.66395 7.81198 8.55195L2.17198 3.77195C1.75998 3.38795 1.71198 2.69195 2.06798 2.24395C2.24798 2.01595 2.51198 1.88395 2.78398 1.88395C3.00398 1.88395 3.21598 1.96795 3.38798 2.12395C3.39598 2.13195 3.40398 2.13595 3.40798 2.14395L9.33198 7.06795C9.85598 7.55195 10.156 8.25595 10.156 9.00395C10.156 9.75195 9.85598 10.456 9.33198 10.94L3.40798 15.868C3.39998 15.872 3.39198 15.88 3.38798 15.888C3.21598 16.048 3.00798 16.128 2.78398 16.128C2.50798 16.128 2.24798 15.996 2.06798 15.768ZM1.13998 1.50795C0.395978 2.44395 0.499978 3.85595 1.37598 4.65595C1.38398 4.65995 1.38798 4.66795 1.39198 4.67195L6.50798 9.00795L1.39198 13.34C1.38798 13.344 1.37998 13.352 1.37598 13.356C0.499978 14.156 0.395978 15.568 1.13998 16.504C1.54798 17.016 2.14798 17.312 2.78398 17.312C3.29598 17.312 3.78798 17.12 4.17598 16.768L10.1 11.844C10.108 11.836 10.116 11.832 10.12 11.824C10.896 11.116 11.34 10.088 11.34 8.99995C11.34 7.91595 10.896 6.88795 10.12 6.17995C10.112 6.17195 10.108 6.16795 10.1 6.15995L4.17598 1.24395C3.78798 0.891951 3.29198 0.699951 2.78398 0.699951C2.14398 0.699951 1.54798 0.995951 1.13998 1.50795Z" fill="#004571"/>
</svg>
