<svg width="25" height="25" viewBox="0 0 25 25" fill="none" xmlns="http://www.w3.org/2000/svg">
<circle cx="12.5" cy="12.5" r="12.5" fill="#004571"/>
<path fill-rule="evenodd" clip-rule="evenodd" d="M12.5 9.375C12.0768 9.375 11.7106 9.52962 11.4014 9.83887C11.0921 10.1481 10.9375 10.5143 10.9375 10.9375V18.75C10.9375 19.1732 11.0921 19.5394 11.4014 19.8486C11.7106 20.1579 12.0768 20.3125 12.5 20.3125C12.9232 20.3125 13.2894 20.1579 13.5986 19.8486C13.9079 19.5394 14.0625 19.1732 14.0625 18.75V10.9375C14.0625 10.5143 13.9079 10.1481 13.5986 9.83887C13.2894 9.52962 12.9232 9.375 12.5 9.375Z" fill="white"/>
<path fill-rule="evenodd" clip-rule="evenodd" d="M10.9375 6.22558C10.9375 6.66504 11.0921 7.03939 11.4014 7.34863C11.7106 7.65788 12.0768 7.8125 12.5 7.8125C12.9232 7.8125 13.2894 7.65788 13.5986 7.34863C13.9079 7.03939 14.0625 6.66504 14.0625 6.22558C14.0625 5.78613 13.9079 5.41992 13.5986 5.12695C13.2894 4.83398 12.9232 4.6875 12.5 4.6875C12.0768 4.6875 11.7106 4.83398 11.4014 5.12695C11.0921 5.41992 10.9375 5.78613 10.9375 6.22558Z" fill="white"/>
</svg>
