<svg width="16" height="16" viewBox="0 0 16 16" fill="none" xmlns="http://www.w3.org/2000/svg">
<path d="M12.2367 7.02102C12.1727 6.82902 11.9967 6.70102 11.7951 6.70102L9.24789 6.68182L8.44469 4.26902C8.38069 4.07702 8.20469 3.94902 8.00309 3.94902C7.80149 3.94902 7.62229 4.07702 7.55829 4.26902L6.75189 6.68182L4.20469 6.70102C4.00309 6.70102 3.82389 6.82902 3.76309 7.02102C3.69909 7.21302 3.76949 7.42102 3.93269 7.53942L5.98069 9.04982L5.20949 11.4754C5.16469 11.6194 5.18709 11.7698 5.27349 11.8914C5.42069 12.093 5.72149 12.1442 5.92629 11.997L7.99669 10.5186L10.0671 11.997C10.1471 12.0546 10.2431 12.0866 10.3391 12.0866C10.4895 12.0866 10.6303 12.013 10.7167 11.8914C10.8031 11.7698 10.8287 11.6194 10.7807 11.4754L10.0127 9.04982L12.0607 7.53942C12.2303 7.42102 12.2975 7.21302 12.2367 7.02102ZM9.27669 8.50582C9.15189 8.59862 9.09749 8.75862 9.14549 8.90582L9.69589 10.6434L8.21109 9.58422C8.15029 9.53942 8.07669 9.51702 7.99989 9.51702C7.92309 9.51702 7.84949 9.53942 7.78869 9.58422L6.30389 10.6434L6.85429 8.90582C6.90229 8.75862 6.84789 8.59862 6.72309 8.50582L5.25749 7.42422L7.08149 7.41142C7.23509 7.41142 7.37269 7.31222 7.42069 7.16502L7.99989 5.43702L8.57589 7.16502C8.62389 7.31222 8.76149 7.41142 8.91829 7.41142L10.7423 7.42422L9.27669 8.50582ZM7.99989 1.46582C4.38069 1.46582 1.44629 4.40022 1.44629 8.01942C1.44629 11.6386 4.38069 14.573 7.99989 14.573C11.6191 14.573 14.5535 11.6386 14.5535 8.01942C14.5535 4.39702 11.6191 1.46582 7.99989 1.46582ZM7.99989 13.6322C4.89909 13.6322 2.38389 11.117 2.38389 8.01622C2.38389 4.91542 4.89909 2.40022 7.99989 2.40022C11.1007 2.40022 13.6159 4.91542 13.6159 8.01622C13.6159 11.117 11.1007 13.6322 7.99989 13.6322Z" fill="#004571"/>
</svg>
