<svg width="24" height="24" viewBox="0 0 24 24" fill="none" xmlns="http://www.w3.org/2000/svg">
<path fill-rule="evenodd" clip-rule="evenodd" d="M12.0193 5.00222C12.9841 3.25502 14.8465 2.07422 16.9777 2.07422C20.1025 2.07422 22.6465 4.61822 22.6417 7.74302V8.44862C22.6417 10.695 20.9041 13.6326 17.4817 17.175C15.0996 19.6399 12.7571 21.51 12.4762 21.7343C12.4639 21.7441 12.4555 21.7508 12.4513 21.7542C12.3217 21.855 12.1681 21.903 12.0145 21.903C11.8609 21.903 11.7073 21.855 11.5777 21.7542C11.4769 21.6774 9.03369 19.7478 6.54729 17.175C3.12969 13.6326 1.39209 10.695 1.39209 8.44862V7.74302C1.39209 4.61822 3.93609 2.07422 7.06089 2.07422C9.19209 2.07422 11.0497 3.25982 12.0193 5.00222ZM12.0193 20.295C14.9521 17.9046 21.2305 12.039 21.2305 8.44862H21.2401V7.74302C21.2401 5.39582 19.3297 3.49022 16.9873 3.49022C14.6401 3.49022 12.7345 5.40062 12.7345 7.74302V7.72862C12.7345 8.12222 12.4177 8.43902 12.0241 8.43902C11.6305 8.43902 11.3137 8.12222 11.3137 7.72862V7.74302C11.3137 5.39582 9.40329 3.49022 7.06089 3.49022C4.71849 3.49022 2.81289 5.40062 2.81289 7.74302V8.44862C2.81289 9.76618 3.65612 11.388 4.86865 13.0318C4.95652 13.0319 4.95355 13.0319 4.95355 13.0319L7.39031 8.71616C7.52578 8.47441 7.78686 8.33744 8.05782 8.36594C8.32789 8.39444 8.55668 8.58288 8.64192 8.84761V8.84853L10.2497 13.8462L12.0002 10.6482C12.1213 10.4286 12.3483 10.2916 12.595 10.2898C12.8418 10.2852 13.0715 10.4185 13.1944 10.6381L14.5725 13.0318H16.2333C16.6137 13.0318 16.9223 13.348 16.9223 13.7377C16.9223 14.1275 16.6137 14.4437 16.2333 14.4437H14.1795C13.9355 14.4437 13.7085 14.3113 13.5847 14.0953L12.6103 12.392L10.6651 15.9218C10.5431 16.1424 10.3143 16.2793 10.0658 16.2793H9.9994C9.73113 16.2527 9.50234 16.0689 9.41352 15.8087L7.8057 10.7962L5.95206 14.0907C5.91825 14.1508 5.87651 14.2046 5.82863 14.2509C7.8525 16.6766 10.4297 18.9973 12.0193 20.295Z" fill="#D3222A"/>
</svg>
