<svg width="25" height="25" viewBox="0 0 25 25" fill="none" xmlns="http://www.w3.org/2000/svg">
<rect width="25" height="25" rx="6" fill="white"/>
<path fill-rule="evenodd" clip-rule="evenodd" d="M17.6329 15.6224V13.8756V12.9666C17.6329 12.4869 17.2664 12.0967 16.8155 12.0967H14.5658H12.3917H8.18094C7.73039 12.0967 7.36328 12.4869 7.36328 12.9666V13.7721V15.7328V17.6757C7.36328 18.1557 7.73039 18.5462 8.18094 18.5462H12.4993H14.6736H16.8155C17.2664 18.5462 17.6329 18.1557 17.6329 17.6757V15.6224ZM14.9612 6.53876C14.3268 5.87724 13.4613 5.46565 12.5071 5.45508C10.5616 5.47665 8.98438 7.16669 8.98438 9.24315V10.6423H12.3918H14.5659H16.0307V10.64H17.3978C18.32 10.9116 19 11.8994 19 12.9667V13.8756V15.6225V17.6758C19 18.9572 18.0211 20 16.8173 20H14.6754H12.501H8.18271C6.97916 20 6 18.9572 6 17.6758V15.7329V13.7722V12.9667C6 11.8925 6.68923 10.9049 7.62072 10.64V9.24365C7.62072 6.40577 9.75068 4.09264 12.3979 4.00793C12.4065 4.00705 12.4149 4.00584 12.4234 4.00462C12.4394 4.00231 12.4554 4 12.4721 4C12.479 4 12.4857 4.00057 12.4923 4.00114C12.4978 4.00161 12.5033 4.00208 12.5088 4.00222C12.5145 4.00208 12.5201 4.0016 12.5257 4.00113C12.5323 4.00056 12.5389 4 12.5457 4C12.5623 4 12.5784 4.00231 12.5944 4.00462C12.6029 4.00583 12.6114 4.00705 12.6199 4.00793C13.9206 4.04954 15.0964 4.62887 15.956 5.54398L14.9612 6.53876ZM13.1546 15.4207C13.5074 15.1876 13.7446 14.7742 13.7446 14.2989C13.7446 13.5676 13.1874 12.9747 12.5009 12.9747C11.8146 12.9747 11.2571 13.5676 11.2571 14.2989C11.2571 14.7482 11.4686 15.1435 11.7899 15.3824L11.7917 16.7167C11.7923 17.1178 12.098 17.4426 12.4743 17.4426C12.8513 17.442 13.157 17.1159 13.157 16.7142L13.1546 15.4207Z" fill="#A2AD00"/>
</svg>
