<svg width="64" height="64" viewBox="0 0 64 64" fill="none" xmlns="http://www.w3.org/2000/svg">
<path d="M45.6704 31.0537H32.9984V21.7097C32.9984 20.6729 32.1536 19.8409 31.1296 19.8409C30.1056 19.8409 29.2608 20.6729 29.2608 21.7097V32.9353C29.2608 33.8441 29.9008 34.5865 30.7584 34.7657C30.8864 34.7913 31.0016 34.8041 31.1296 34.8041H45.6832C46.72 34.8041 47.552 33.9721 47.552 32.9353C47.552 31.8985 46.7072 31.0537 45.6704 31.0537Z" fill="orange"/>
<path d="M32.064 5.86328C17.5872 5.86328 5.84961 17.6009 5.84961 32.0777C5.84961 46.5545 17.5872 58.2921 32.064 58.2921C46.5408 58.2921 58.2784 46.5545 58.2784 32.0777C58.2656 17.5881 46.528 5.86328 32.064 5.86328ZM32.064 54.5289C19.6608 54.5289 9.60001 44.4681 9.60001 32.0649C9.60001 19.6617 19.6608 9.60088 32.064 9.60088C44.4672 9.60088 54.528 19.6617 54.528 32.0649C54.528 44.4681 44.4672 54.5289 32.064 54.5289Z" fill="orange"/>
</svg>