<svg width="64" height="64" viewBox="0 0 64 64" fill="none" xmlns="http://www.w3.org/2000/svg">
<path d="M47.3855 38.272C44.9791 36.1856 43.2511 29.824 43.2511 23.3216C43.2511 23.2832 43.2511 23.2448 43.2511 23.1936C43.2511 23.1168 43.2639 23.04 43.2639 22.9632C43.2639 19.008 41.2159 15.5264 38.1311 13.5168C37.3759 13.0048 36.5567 12.5824 35.6991 12.2752C35.5967 12.2496 35.4815 12.2368 35.3791 12.2112C34.3167 11.8784 33.1775 11.6992 32.0127 11.6992H31.9999C31.9999 11.6992 31.9871 11.6992 31.9743 11.6992C30.8735 11.6992 29.8111 11.8656 28.7999 12.1728C28.6463 12.2112 28.4927 12.2368 28.3263 12.2752C27.4687 12.5696 26.6495 12.992 25.8943 13.5168C22.8095 15.5264 20.7615 19.008 20.7615 22.9632C20.7615 23.0528 20.7743 23.1296 20.7743 23.2064C20.7743 23.2448 20.7743 23.2832 20.7743 23.3088C20.7743 29.8112 19.0463 36.1728 16.6399 38.2592C15.2959 39.424 14.5151 41.1136 14.5151 42.8928C14.5151 44.9664 16.1919 46.6432 18.2655 46.6432H26.4063V46.656C26.4063 49.7536 28.9151 52.2752 32.0255 52.2752C35.1231 52.2752 37.6447 49.7664 37.6447 46.656C37.6447 46.6432 37.6447 46.6432 37.6447 46.6432H45.7855C47.8591 46.6432 49.5359 44.9664 49.5359 42.8928C49.4975 41.1264 48.7295 39.4368 47.3855 38.272ZM31.9999 48.5504C30.9631 48.5504 30.1311 47.7184 30.1311 46.6816C30.1311 46.6688 30.1311 46.6688 30.1311 46.6688H33.8687V46.6816C33.8687 47.7056 33.0367 48.5504 31.9999 48.5504ZM18.2527 42.9056C18.2527 42.2144 18.5471 41.5616 19.0719 41.1136C22.4255 38.2208 24.4991 30.8864 24.4991 23.3216C24.4991 19.1872 27.8655 15.3984 31.9999 15.3984C36.1343 15.3984 39.5007 19.1744 39.5007 23.3216C39.5007 30.8864 41.5743 38.208 44.9279 41.1136C45.4527 41.5616 45.7471 42.2272 45.7471 42.9056H18.2527Z" fill="#64666A"/>
<path d="M48.7679 24.9672C48.7679 29.5976 45.0142 33.3512 40.3839 33.3512C35.7535 33.3512 31.9999 29.5976 31.9999 24.9672C31.9999 20.3369 35.7535 16.5832 40.3839 16.5832C45.0142 16.5832 48.7679 20.3369 48.7679 24.9672Z" fill="#64666A"/>
</svg>
