<svg width="31" height="31" viewBox="0 0 31 31" fill="none" xmlns="http://www.w3.org/2000/svg">
<path fill-rule="evenodd" clip-rule="evenodd" d="M15.4511 25.1419L21.1117 14.0315C22.1161 12.0537 22.0417 9.72869 20.9195 7.81289C19.8221 5.94669 17.8877 4.79349 15.7487 4.71909C15.6681 4.71289 15.5875 4.71289 15.5069 4.71289C15.4667 4.71289 15.4265 4.71444 15.3863 4.71598C15.346 4.71753 15.3054 4.71909 15.2651 4.71909C13.1013 4.79349 11.2165 5.91569 10.0943 7.80049C8.95972 9.71629 8.87292 12.0351 9.86491 14.0129L15.4511 25.1419Z" fill="white"/>
<path fill-rule="evenodd" clip-rule="evenodd" d="M15.4955 2.97656C15.5947 2.97656 15.6939 2.97656 15.7931 2.98276C18.5459 3.07576 21.0321 4.56376 22.4581 6.96316C23.8965 9.41216 23.9895 12.382 22.7061 14.9054L16.2395 27.5906C16.0845 27.8944 15.7745 28.0804 15.4397 28.0804C15.0987 28.0804 14.7949 27.8882 14.6399 27.5844L8.2601 14.8744C6.98909 12.3448 7.10069 9.38116 8.54529 6.94456C9.95889 4.55756 12.4513 3.07576 15.1979 2.98276C15.2971 2.97656 15.3963 2.97656 15.4955 2.97656ZM15.4503 25.1416L21.1109 14.0312C22.1153 12.0534 22.0409 9.72836 20.9187 7.81256C19.8213 5.94636 17.8869 4.79316 15.7479 4.71876C15.6673 4.71256 15.5867 4.71256 15.5061 4.71256C15.4659 4.71256 15.4257 4.71411 15.3855 4.71565L15.3852 4.71566C15.3449 4.71721 15.3046 4.71876 15.2643 4.71876C13.1005 4.79316 11.2157 5.91536 10.0935 7.80016C8.95889 9.71596 8.87209 12.0348 9.86408 14.0126L15.4503 25.1416ZM14.385 16.2322C14.385 15.6246 14.8748 15.1348 15.4824 15.1348C16.09 15.1348 16.5798 15.6246 16.5798 16.2322C16.5798 16.8398 16.09 17.3296 15.4824 17.3296C14.8748 17.3296 14.385 16.8398 14.385 16.2322ZM16.3938 12.4254C16.3938 12.9276 15.9846 13.3306 15.4824 13.3306C14.9802 13.3306 14.571 12.9214 14.571 12.4254V8.65576C14.571 8.15356 14.9802 7.75056 15.4824 7.75056C15.9846 7.75056 16.3938 8.15356 16.3938 8.65576V12.4254Z" fill="#D3222A"/>
</svg>
