<svg width="15" height="15" viewBox="0 0 15 15" fill="none" xmlns="http://www.w3.org/2000/svg">
<path fill-rule="evenodd" clip-rule="evenodd" d="M10.027 1.728C9.29187 1.14931 8.41247 0.782742 7.48398 0.667997C6.78998 0.596997 6.08398 0.667997 5.41398 0.895997C4.74398 1.111 4.13398 1.47 3.61998 1.949C3.10341 2.41564 2.69169 2.98654 2.41198 3.624C2.13087 4.26121 1.98415 4.94954 1.98098 5.646V7.846C1.97958 8.62031 1.85987 9.38986 1.62598 10.128L2.92598 8.828C2.96598 8.502 2.98598 8.174 2.98598 7.847V5.646C2.98598 5.083 3.10598 4.533 3.33298 4.03C3.55998 3.516 3.88298 3.061 4.30198 2.69C4.72098 2.308 5.21198 2.02 5.73798 1.853C6.27598 1.673 6.83798 1.613 7.38798 1.673C8.08286 1.76551 8.74321 2.03171 9.30798 2.447L10.027 1.727V1.728ZM6.02398 11.662H11.803L11.433 10.549C11.1376 9.68262 10.9875 8.77335 10.989 7.858V6.697L11.994 5.693V7.835C11.994 8.648 12.126 9.45 12.377 10.215L12.963 11.986L12.485 12.644H8.97998C8.97998 13.17 8.76398 13.684 8.39298 14.056C8.02298 14.426 7.50798 14.642 6.98198 14.642C6.45252 14.6402 5.94515 14.4296 5.56998 14.056C5.21078 13.6949 5.00175 13.2111 4.98498 12.702L6.02398 11.663V11.662ZM6.98198 13.66C7.11363 13.6591 7.24381 13.6321 7.36498 13.5806C7.48616 13.5291 7.59594 13.4541 7.68798 13.36C7.78238 13.269 7.85669 13.1593 7.90612 13.0379C7.95555 12.9165 7.979 12.786 7.97498 12.655H5.97698C5.97698 12.918 6.08398 13.169 6.27598 13.361C6.3681 13.455 6.47791 13.5298 6.59909 13.5811C6.72026 13.6324 6.85039 13.6592 6.98198 13.66Z" fill="#004571"/>
<path d="M0 14.142L14.142 0L14.849 0.707L0.707 14.849L0 14.142Z" fill="#004571"/>
</svg>
