<svg width="64" height="64" viewBox="0 0 64 64" fill="none" xmlns="http://www.w3.org/2000/svg">
<path fill-rule="evenodd" clip-rule="evenodd" d="M32 5.77344C17.5232 5.77344 5.78564 17.511 5.78564 31.9878C5.78564 46.4646 17.5232 58.2022 32 58.2022C46.4768 58.2022 58.2144 46.4646 58.2144 31.9878C58.2144 17.511 46.4768 5.77344 32 5.77344ZM32 54.439C19.5968 54.439 9.53604 44.3782 9.53604 31.975C9.53604 19.5718 19.5968 9.51104 32 9.51104C44.4032 9.51104 54.464 19.5718 54.464 31.975C54.464 44.391 44.4032 54.439 32 54.439ZM32 27.4694C30.9632 27.4694 30.1184 28.3014 30.1184 29.3382V43.6486C30.1184 44.6854 30.9632 45.5174 32 45.5174C33.0368 45.5174 33.8816 44.6854 33.8816 43.6486V29.3382C33.8816 28.3014 33.0368 27.4694 32 27.4694ZM32 19.2134C30.7456 19.2134 29.7344 20.2246 29.7344 21.479C29.7344 22.7334 30.7456 23.7446 32 23.7446C33.2544 23.7446 34.2656 22.7334 34.2656 21.479C34.2656 20.2246 33.2544 19.2134 32 19.2134Z" fill="red"/>
</svg>
