<svg width="20" height="20" viewBox="0 0 20 20" fill="none" xmlns="http://www.w3.org/2000/svg">
<path d="M16.7829 16.7895C16.7822 16.9426 16.7209 17.0892 16.6124 17.1972C16.5039 17.3053 16.357 17.3659 16.2039 17.3659H3.77957C3.62669 17.3659 3.48007 17.3052 3.37196 17.1971C3.26385 17.089 3.20312 16.9424 3.20312 16.7895C3.20312 16.6366 3.26385 16.49 3.37196 16.3819C3.48007 16.2737 3.62669 16.213 3.77957 16.213H16.2013C16.2773 16.2127 16.3527 16.2273 16.4231 16.2561C16.4935 16.2849 16.5575 16.3273 16.6115 16.3808C16.6655 16.4343 16.7084 16.498 16.7378 16.5681C16.7672 16.6382 16.7825 16.7134 16.7829 16.7895ZM9.6614 13.9455C9.76988 14.0533 9.91659 14.1138 10.0695 14.1138C10.2224 14.1138 10.3691 14.0533 10.4776 13.9455L14.6709 9.74708C14.7298 9.69472 14.7774 9.63087 14.8108 9.55946C14.8442 9.48805 14.8626 9.41057 14.865 9.33178C14.8674 9.25299 14.8537 9.17454 14.8246 9.10124C14.7956 9.02795 14.752 8.96135 14.6963 8.90552C14.6407 8.8497 14.5742 8.80583 14.501 8.77659C14.4278 8.74736 14.3494 8.73339 14.2706 8.73552C14.1918 8.73766 14.1143 8.75585 14.0428 8.789C13.9712 8.82215 13.9072 8.86956 13.8547 8.92832L10.6205 12.1651V3.21737C10.6257 3.13828 10.6147 3.05894 10.588 2.98429C10.5614 2.90963 10.5197 2.84125 10.4655 2.78336C10.4113 2.72548 10.3459 2.67934 10.2731 2.6478C10.2004 2.61625 10.122 2.59998 10.0427 2.59998C9.96346 2.59998 9.88504 2.61625 9.81231 2.6478C9.73959 2.67934 9.67412 2.72548 9.61995 2.78336C9.56579 2.84125 9.52409 2.90963 9.49744 2.98429C9.47079 3.05894 9.45975 3.13828 9.465 3.21737V12.109L6.25372 8.90282C6.14353 8.80427 5.99983 8.75159 5.85206 8.75559C5.70429 8.75959 5.56365 8.81997 5.45896 8.92433C5.35426 9.0287 5.29345 9.16915 5.28899 9.31691C5.28453 9.46467 5.33675 9.60854 5.43496 9.71903L9.6614 13.9455Z" fill="#0066CC"/>
</svg>
