<svg width="31" height="31" viewBox="0 0 31 31" fill="none" xmlns="http://www.w3.org/2000/svg">
<path fill-rule="evenodd" clip-rule="evenodd" d="M15.4491 25.1419L21.1097 14.0315C22.1141 12.0537 22.0397 9.72869 20.9175 7.81289C19.8201 5.94669 17.8857 4.79349 15.7467 4.71909C15.6661 4.71289 15.5855 4.71289 15.5049 4.71289C15.4647 4.71289 15.4245 4.71444 15.3843 4.71598C15.344 4.71753 15.3034 4.71909 15.2631 4.71909C13.0993 4.79349 11.2145 5.91569 10.0923 7.80049C8.95777 9.71629 8.87097 12.0351 9.86297 14.0129L15.4491 25.1419Z" fill="white"/>
<path fill-rule="evenodd" clip-rule="evenodd" d="M15.4955 2.97656C15.5947 2.97656 15.6939 2.97656 15.7931 2.98276C18.5459 3.07576 21.0322 4.56376 22.4582 6.96316C23.8966 9.41216 23.9896 12.382 22.7062 14.9054L16.2395 27.5906C16.0845 27.8944 15.7745 28.0804 15.4397 28.0804C15.0987 28.0804 14.7949 27.8882 14.6399 27.5844L8.26009 14.8744C6.98909 12.3448 7.10068 9.38116 8.54529 6.94456C9.95889 4.55756 12.4513 3.07576 15.1979 2.98276C15.2971 2.97656 15.3963 2.97656 15.4955 2.97656ZM15.4503 25.1416L21.1109 14.0312C22.1153 12.0534 22.0409 9.72836 20.9187 7.81256C19.8213 5.94636 17.8869 4.79316 15.7479 4.71876C15.6673 4.71256 15.5867 4.71256 15.5061 4.71256C15.4659 4.71256 15.4257 4.71411 15.3855 4.71565L15.3852 4.71566C15.3449 4.71721 15.3046 4.71876 15.2643 4.71876C13.1005 4.79316 11.2157 5.91536 10.0935 7.80016C8.95888 9.71596 8.87208 12.0348 9.86408 14.0126L15.4503 25.1416ZM16.5673 11.1978H19.2953C19.7975 11.1978 20.2067 11.607 20.2067 12.1092C20.2067 12.6114 19.8037 13.0144 19.3015 13.0144H15.6622C15.6002 13.0144 15.5444 13.0082 15.4824 12.9958C15.067 12.909 14.757 12.5494 14.757 12.1092V9.02776C14.757 8.52556 15.1662 8.12256 15.6622 8.12256C16.1582 8.12256 16.5673 8.52556 16.5673 9.02776V11.1978Z" fill="#E57200"/>
</svg>
