<svg width="17" height="16" viewBox="0 0 17 16" fill="none" xmlns="http://www.w3.org/2000/svg">
<path fill-rule="evenodd" clip-rule="evenodd" d="M10.4815 14.6558H5.62397C4.84133 14.6558 4.20422 14.0254 4.20422 13.2542V2.74535C4.20422 1.97095 4.84133 1.34375 5.62397 1.34375H10.4847C11.2674 1.34375 11.9045 1.97095 11.9045 2.74535V13.251C11.9012 14.0286 11.2674 14.6558 10.4815 14.6558ZM5.16473 13.2542C5.16473 13.5038 5.36848 13.7054 5.62073 13.7054H10.4783C10.7305 13.7054 10.9343 13.5038 10.9343 13.2542V10.851H5.16473V13.2542ZM10.9407 2.74215C10.9407 2.49255 10.737 2.29095 10.4847 2.29095H5.62397C5.37171 2.29095 5.16797 2.49255 5.16797 2.74215V9.89735H10.9407V2.74215ZM7.07929 3.24455C7.07929 2.98535 7.29597 2.77095 7.56116 2.77095H8.52814C8.79333 2.77095 9.00678 2.98215 9.00678 3.24455C9.00678 3.50695 8.79333 3.72135 8.52814 3.72135H7.56116C7.29597 3.72135 7.07929 3.50695 7.07929 3.24455ZM8.04627 12.899C7.70022 12.899 7.41886 12.6206 7.41886 12.2782C7.41886 11.9358 7.70022 11.6574 8.04627 11.6574C8.39231 11.6574 8.67367 11.9358 8.67367 12.2782C8.6769 12.6206 8.39554 12.899 8.04627 12.899Z" fill="#004571"/>
</svg>
