<svg width="35" height="14" viewBox="0 0 35 14" fill="none" xmlns="http://www.w3.org/2000/svg">
<rect x="15.5" y="2.44116" width="19" height="9" rx="4.5" fill="white" stroke="#004571"/>
<ellipse cx="20.1765" cy="7" rx="3.17647" ry="3" fill="#004571"/>
<path fill-rule="evenodd" clip-rule="evenodd" d="M11 7.9C11.1 8.5 11.2 9 11.4 9.6L12 11.3L11.5 12H8C8 12.5 7.8 13 7.4 13.4C7 13.8 6.5 14 6 14C5.5 14 4.9 13.8 4.6 13.4C4.2 13 4 12.5 4 12H0.5L0 11.3L0.6 9.6C0.8 8.8 1 8 1 7.2V5C1 4.3 1.1 3.6 1.4 3C1.7 2.3 2.1 1.8 2.6 1.3C3.1 0.8 3.7 0.5 4.4 0.3C4.9 0.0999999 5.5 0 6 0C5.8 0.3 5.6 0.7 5.4 1.1C5.2 1.1 5 1.1 4.7 1.3C4.2 1.4 3.7 1.7 3.3 2.1C2.9 2.4 2.5 2.9 2.3 3.4C2.1 3.9 2 4.4 2 5V7.2C2 8.1 1.8 9 1.6 9.9L1.2 11H10.8L10.4 9.9C10.225 9.374 10.126 8.77 10.037 8.226L10 8C10.4 8 10.7 8 11 7.9ZM6 13C6.2 13 6.5 12.9 6.7 12.7C6.9 12.5 7 12.3 7 12H5C5 12.3 5.1 12.5 5.3 12.7C5.5 12.9 5.8 13 6 13ZM13 3C13 3.79565 12.6839 4.55871 12.1213 5.12132C11.5587 5.68393 10.7956 6 10 6C9.20435 6 8.44129 5.68393 7.87868 5.12132C7.31607 4.55871 7 3.79565 7 3C7 2.20435 7.31607 1.44129 7.87868 0.87868C8.44129 0.31607 9.20435 0 10 0C10.7956 0 11.5587 0.31607 12.1213 0.87868C12.6839 1.44129 13 2.20435 13 3Z" fill="#004571"/>
<circle cx="10" cy="3" r="3" fill="#4E7E17"/>
</svg>
