<svg width="17" height="16" viewBox="0 0 17 16" fill="none" xmlns="http://www.w3.org/2000/svg">
<path fill-rule="evenodd" clip-rule="evenodd" d="M14.219 3.24609H3.61133C2.83193 3.24609 2.19482 3.87329 2.19482 4.64769V11.3453C2.19482 12.1165 2.8287 12.7469 3.61133 12.7469H14.219C14.9984 12.7469 15.6355 12.1197 15.6355 11.3453V4.64769C15.6355 3.87329 15.0016 3.24609 14.219 3.24609ZM14.219 4.19649C14.2481 4.19649 14.2804 4.19969 14.3095 4.20609L8.98308 8.65409L8.97338 8.66049L8.96044 8.65409L3.56606 4.19969C3.58223 4.19969 3.59516 4.19649 3.61133 4.19649H14.219V4.19649ZM14.219 11.7965H3.61133C3.35908 11.7965 3.15533 11.5949 3.15533 11.3453V5.02849L8.22308 9.25249C8.22308 9.25249 8.67908 9.62369 8.94104 9.62369C9.20299 9.62369 9.73985 9.23009 9.73985 9.23009L14.675 5.05409V11.3421C14.675 11.5917 14.4712 11.7965 14.219 11.7965Z" fill="#004571"/>
</svg>
