<svg width="16" height="16" viewBox="0 0 16 16" fill="none" xmlns="http://www.w3.org/2000/svg">
<path d="M13.377 10.573C13.124 9.80499 12.9947 9.00163 12.994 8.19301V6.19501C13.0124 4.929 12.5606 3.70115 11.726 2.74901C10.8943 1.79537 9.73985 1.18221 8.484 1.02701C7.79 0.955014 7.084 1.02701 6.414 1.25401C5.744 1.46901 5.134 1.82801 4.62 2.30701C4.10344 2.77366 3.69171 3.34455 3.412 3.98201C3.1309 4.61923 2.98418 5.30756 2.981 6.00401V8.20401C2.97953 9.0093 2.85026 9.80925 2.598 10.574L2 12.343L2.479 13.001H5.984C5.984 13.527 6.199 14.041 6.57 14.413C6.94 14.783 7.455 14.999 7.982 14.999C8.508 14.999 9.022 14.784 9.393 14.413C9.764 14.042 9.98 13.527 9.98 13.001H13.485L13.963 12.343L13.377 10.573ZM8.687 13.72C8.59499 13.8139 8.48534 13.8886 8.36435 13.9399C8.24336 13.9912 8.11342 14.0181 7.982 14.019C7.85034 14.0181 7.72017 13.9911 7.59899 13.9396C7.47782 13.8881 7.36804 13.8132 7.276 13.719C7.18197 13.6271 7.10706 13.5175 7.05557 13.3965C7.00409 13.2755 6.97704 13.1455 6.976 13.014H8.975C8.97917 13.1452 8.95578 13.2758 8.90634 13.3974C8.85691 13.519 8.78253 13.6289 8.688 13.72H8.687ZM3.172 12.01L3.543 10.896C3.83231 10.0282 3.98185 9.11982 3.986 8.20501V6.00401C3.986 5.44101 4.106 4.89101 4.333 4.38801C4.56 3.87401 4.883 3.41901 5.302 3.04801C5.721 2.66601 6.212 2.37801 6.738 2.21101C7.276 2.03101 7.838 1.97101 8.388 2.03101C9.39601 2.16356 10.3202 2.66178 10.985 3.43101C11.65 4.2012 12.0075 5.18964 11.989 6.20701V8.21701C11.989 9.12601 12.133 10.035 12.432 10.908L12.803 12.021H3.173V12.009L3.172 12.01Z" fill="#1674D1"/>
</svg>
