<svg width="31" height="31" viewBox="0 0 31 31" fill="none" xmlns="http://www.w3.org/2000/svg">
<path fill-rule="evenodd" clip-rule="evenodd" d="M21.1117 14.0315L15.4511 25.1419L9.86492 14.0129C8.87292 12.0351 8.95972 9.71629 10.0943 7.80049C11.2165 5.91569 13.1013 4.79349 15.2651 4.71909C15.3054 4.71909 15.3457 4.71754 15.386 4.71599C15.4263 4.71444 15.4666 4.71289 15.5069 4.71289C15.5875 4.71289 15.6681 4.71289 15.7487 4.71909C17.8877 4.79349 19.8221 5.94669 20.9195 7.81289C22.0417 9.72869 22.1161 12.0537 21.1117 14.0315Z" fill="white"/>
<path fill-rule="evenodd" clip-rule="evenodd" d="M15.7931 2.98276C15.6939 2.97656 15.5947 2.97656 15.4955 2.97656C15.3963 2.97656 15.2971 2.97656 15.1979 2.98276C12.4513 3.07576 9.95888 4.55756 8.54528 6.94456C7.10068 9.38116 6.98909 12.3448 8.26009 14.8744L14.6399 27.5844C14.7949 27.8882 15.0987 28.0804 15.4397 28.0804C15.7745 28.0804 16.0845 27.8944 16.2395 27.5906L22.7061 14.9054C23.9895 12.382 23.8965 9.41216 22.4581 6.96316C21.0321 4.56376 18.5459 3.07576 15.7931 2.98276ZM21.1109 14.0312L15.4503 25.1416L9.86408 14.0126C8.87208 12.0348 8.95888 9.71596 10.0935 7.80016C11.2157 5.91536 13.1005 4.79316 15.2643 4.71876C15.3046 4.71876 15.3449 4.71721 15.3852 4.71566C15.4255 4.71411 15.4658 4.71256 15.5061 4.71256C15.5867 4.71256 15.6673 4.71256 15.7479 4.71876C17.8869 4.79316 19.8213 5.94636 20.9187 7.81256C22.0409 9.72836 22.1153 12.0534 21.1109 14.0312Z" fill="#004571"/>
<path fill-rule="evenodd" clip-rule="evenodd" d="M11.665 8.21996C11.5793 8.23637 11.5082 8.29652 11.4754 8.37854C11.2749 8.88164 11.233 9.42665 11.3569 9.96073C11.5957 10.9851 12.4524 11.7798 13.4914 11.9384C13.6263 11.9585 13.7648 11.9694 13.9015 11.9694H14.8403L17.6292 14.7601C17.8534 14.9843 18.1505 15.1083 18.4677 15.1083C18.783 15.1083 19.0819 14.9843 19.3061 14.7601C19.5303 14.5359 19.6543 14.2388 19.6543 13.9216C19.6543 13.6045 19.5303 13.3073 19.3061 13.0831L16.5154 10.2924V9.35374C16.5154 9.21885 16.5063 9.08032 16.4844 8.94361C16.3259 7.90462 15.5311 7.0479 14.5067 6.80911C13.9763 6.68516 13.4294 6.72709 12.9282 6.9276C12.8461 6.96041 12.7878 7.03149 12.7696 7.11717C12.7514 7.20284 12.7787 7.29215 12.8407 7.35413L14.1312 8.64467C14.1804 8.69389 14.2078 8.75951 14.2078 8.82878C14.2078 8.89804 14.1804 8.96366 14.1312 9.01288L13.5625 9.58159C13.4604 9.68367 13.2945 9.68367 13.1925 9.58159L11.9019 8.29105C11.84 8.22907 11.7506 8.20173 11.665 8.21996ZM13.5698 11.4207C12.7404 11.2932 12.055 10.6588 11.8655 9.84043C11.7998 9.55243 11.7926 9.25713 11.8454 8.9746L12.8224 9.95162C13.1287 10.2578 13.6263 10.2578 13.9325 9.95162L14.5012 9.38291C14.6489 9.23526 14.7309 9.0384 14.7309 8.82878C14.7309 8.61915 14.6489 8.42229 14.5012 8.27464L13.5224 7.2958C13.6482 7.27393 13.7758 7.26117 13.9034 7.26117C14.0656 7.26117 14.2278 7.2794 14.3882 7.31585C15.2067 7.50725 15.841 8.1908 15.9686 9.02017C15.985 9.13136 15.9941 9.24255 15.9941 9.35192V10.3982C15.9941 10.4692 16.0215 10.5349 16.0707 10.5841L18.9398 13.4532C19.0655 13.5771 19.1348 13.7448 19.1348 13.9216C19.1348 14.0984 19.0655 14.2643 18.9398 14.3901C18.6809 14.6489 18.2599 14.6489 18.001 14.3901L15.1338 11.5228C15.0845 11.4736 15.0171 11.4463 14.9478 11.4463H13.9015C13.7922 11.4463 13.681 11.4372 13.5698 11.4207Z" fill="#004571"/>
</svg>
