<svg width="64" height="64" viewBox="0 0 64 64" fill="none" xmlns="http://www.w3.org/2000/svg">
<path d="M54.4897 3.78516H9.44649C6.36169 3.78516 3.84009 6.29396 3.84009 9.39156V46.9084C3.84009 50.006 6.34889 52.5148 9.44649 52.5148H26.4705V58.198C26.4705 58.966 26.9313 59.6572 27.6481 59.9516C27.8785 60.054 28.1345 60.0924 28.3777 60.0924C28.8769 60.0924 29.3633 59.9004 29.7217 59.5292L36.7233 52.5148H55.5137C58.0481 52.5148 60.1089 50.454 60.1089 47.9196V9.39156C60.0961 6.29396 57.5745 3.78516 54.4897 3.78516ZM56.2945 20.566C56.2689 20.6812 56.2689 20.7836 56.2689 20.8988C56.2689 21.014 56.2817 21.1292 56.2945 21.2316V47.9068C56.2945 48.342 55.9361 48.7004 55.5009 48.7004H35.9297C35.4305 48.7004 34.9441 48.9052 34.5857 49.2636L30.2721 53.5772V50.5948C30.2721 49.5452 29.4273 48.7004 28.3777 48.7004H9.44649C8.44809 48.7004 7.64169 47.894 7.64169 46.8956V9.37876C7.64169 8.38036 8.44809 7.57396 9.44649 7.57396H54.4897C55.4881 7.57396 56.2945 8.38036 56.2945 9.37876V20.566Z" fill="#64666A"/>
<path d="M12.7451 31.1654L14.1304 31.4719C14.9045 31.6489 15.5632 31.7783 16.1064 31.86C16.6496 31.9281 17.1521 31.9621 17.6139 31.9621C18.3065 31.9621 18.8633 31.8191 19.2844 31.5331C19.7189 31.2472 19.9362 30.825 19.9362 30.2666C19.9362 29.8308 19.7733 29.504 19.4473 29.2861C19.1214 29.0682 18.5646 28.8435 17.7769 28.612L16.3916 28.2035C15.0335 27.8085 13.9878 27.3046 13.2544 26.6918C12.5346 26.079 12.1747 25.2483 12.1747 24.1997C12.1747 23.5868 12.3037 23.0489 12.5617 22.5859C12.8334 22.1229 13.2001 21.7347 13.6618 21.4215C14.1371 21.1083 14.6872 20.8768 15.3119 20.727C15.9366 20.5636 16.6089 20.4818 17.3287 20.4818C18.1028 20.4818 18.8769 20.5636 19.651 20.727C20.4387 20.8768 21.1993 21.1015 21.9327 21.4011L21.5049 23.3008L20.4252 23.1783C19.9091 23.1102 19.3862 23.0557 18.8566 23.0149C18.3269 22.974 17.8719 22.9536 17.4917 22.9536C16.5953 22.9536 15.923 23.0489 15.4749 23.2396C15.0267 23.4302 14.8026 23.7434 14.8026 24.1792C14.8026 24.5605 14.9792 24.8601 15.3323 25.078C15.699 25.2823 16.2422 25.4866 16.962 25.6909L18.225 26.0586C19.0399 26.2901 19.7257 26.542 20.2826 26.8144C20.8394 27.0731 21.2876 27.3659 21.6271 27.6928C21.9666 28.006 22.2111 28.3669 22.3605 28.7754C22.5098 29.1704 22.5845 29.6266 22.5845 30.1441C22.5845 31.465 22.1364 32.5137 21.24 33.2899C20.3573 34.0525 19.0942 34.4338 17.4509 34.4338C17.0027 34.4338 16.5342 34.393 16.0453 34.3113C15.5564 34.2432 15.0742 34.1479 14.5989 34.0253C14.1236 33.8891 13.6618 33.7325 13.2136 33.5555C12.779 33.3784 12.3852 33.1946 12.0321 33.0039L12.7451 31.1654Z" fill="#64666A"/>
<path d="M39.2851 20.6861V34.2296H36.5553V24.9555H36.5145L33.0106 29.47H31.3402C31.2179 29.47 31.1229 29.4563 31.055 29.4291C30.9871 29.4019 30.9191 29.3406 30.8512 29.2453L27.4696 24.9555H27.4288V34.2296H24.7194V20.6861H26.9807C27.13 20.6861 27.2319 20.7065 27.2862 20.7474C27.3541 20.7883 27.4356 20.87 27.5307 20.9925L31.992 26.5897H32.1143L36.4942 20.9925C36.5892 20.87 36.6639 20.7883 36.7182 20.7474C36.7861 20.7065 36.8948 20.6861 37.0442 20.6861H39.2851Z" fill="#64666A"/>
<path d="M42.1286 31.1654L43.5139 31.4719C44.288 31.6489 44.9467 31.7783 45.4899 31.86C46.0332 31.9281 46.5357 31.9621 46.9974 31.9621C47.6901 31.9621 48.2469 31.8191 48.6679 31.5331C49.1025 31.2472 49.3198 30.825 49.3198 30.2666C49.3198 29.8308 49.1568 29.504 48.8309 29.2861C48.5049 29.0682 47.9481 28.8435 47.1604 28.612L45.7751 28.2035C44.417 27.8085 43.3713 27.3046 42.6379 26.6918C41.9181 26.079 41.5582 25.2483 41.5582 24.1997C41.5582 23.5868 41.6872 23.0489 41.9453 22.5859C42.2169 22.1229 42.5836 21.7347 43.0454 21.4215C43.5207 21.1083 44.0707 20.8768 44.6954 20.727C45.3202 20.5636 45.9924 20.4818 46.7122 20.4818C47.4863 20.4818 48.2605 20.5636 49.0346 20.727C49.8223 20.8768 50.5828 21.1015 51.3162 21.4011L50.8884 23.3008L49.8087 23.1783C49.2926 23.1102 48.7697 23.0557 48.2401 23.0149C47.7104 22.974 47.2555 22.9536 46.8752 22.9536C45.9789 22.9536 45.3066 23.0489 44.8584 23.2396C44.4102 23.4302 44.1862 23.7434 44.1862 24.1792C44.1862 24.5605 44.3627 24.8601 44.7158 25.078C45.0825 25.2823 45.6258 25.4866 46.3455 25.6909L47.6086 26.0586C48.4234 26.2901 49.1093 26.542 49.6661 26.8144C50.2229 27.0731 50.6711 27.3659 51.0106 27.6928C51.3501 28.006 51.5946 28.3669 51.744 28.7754C51.8934 29.1704 51.9681 29.6266 51.9681 30.1441C51.9681 31.465 51.5199 32.5137 50.6236 33.2899C49.7408 34.0525 48.4778 34.4338 46.8345 34.4338C46.3863 34.4338 45.9177 34.393 45.4288 34.3113C44.9399 34.2432 44.4578 34.1479 43.9824 34.0253C43.5071 33.8891 43.0454 33.7325 42.5972 33.5555C42.1626 33.3784 41.7687 33.1946 41.4156 33.0039L42.1286 31.1654Z" fill="#64666A"/>
</svg>
