<svg width="64" height="64" viewBox="0 0 64 64" fill="none" xmlns="http://www.w3.org/2000/svg" >
<path fill-rule="evenodd" clip-rule="evenodd" d="M31.9744 5.76172C17.4976 5.76172 5.76001 17.4993 5.76001 31.9761C5.76001 46.4529 17.4976 58.1905 31.9744 58.1905C46.4512 58.1905 58.1888 46.4529 58.1888 31.9761C58.176 17.4993 46.4384 5.76172 31.9744 5.76172ZM31.9744 54.4401C19.5712 54.4401 9.51041 44.3793 9.51041 31.9761C9.51041 19.5729 19.5712 9.51212 31.9744 9.51212C44.3776 9.51212 54.4384 19.5729 54.4384 31.9761C54.4384 44.3793 44.3776 54.4401 31.9744 54.4401Z" fill="green"/>
<path d="M40.1536 23.1826C40.3968 23.2082 40.64 23.2978 40.8576 23.4258C41.7152 23.9378 41.984 25.0514 41.4592 25.909L31.9616 39.157C31.9616 39.1698 31.9488 39.1698 31.9488 39.1826C31.296 40.2322 30.1184 40.8466 28.8768 40.7826C28.8 40.7698 28.7104 40.7698 28.6336 40.757C27.4944 40.6162 26.5088 39.9122 25.9968 38.8626C25.9968 38.837 25.984 38.8242 25.9712 38.7986L22.3616 32.3986C21.952 31.4898 22.3744 30.4146 23.2832 30.0178C24.192 29.6082 25.2672 30.0306 25.664 30.9394L29.0944 36.917L38.3744 24.0402C38.7584 23.413 39.4624 23.093 40.1536 23.1826Z" fill="green"/>
</svg>
