<svg width="260" height="256" viewBox="0 0 260 256" fill="none" xmlns="http://www.w3.org/2000/svg">
<path d="M209.247 45.167H107.057C93.207 45.167 81.9172 56.2378 81.9172 69.7879V90.4303H46.535C32.6847 90.4303 21.4531 101.443 21.4531 115.051V183.206C21.4531 196.813 32.7429 207.827 46.5932 207.827H148.783C162.633 207.827 173.923 196.756 173.923 183.206V162.621H209.305C223.155 162.621 234.445 151.55 234.445 138V69.7879C234.329 56.2378 223.097 45.167 209.247 45.167ZM156.814 183.148C156.814 187.53 153.206 191.047 148.725 191.047H46.535C42.054 191.047 38.4459 187.473 38.4459 183.148V115.051C38.4459 110.669 42.054 107.152 46.535 107.152H81.9172V138C81.9172 151.608 93.207 162.621 107.057 162.621H156.814V183.148ZM217.278 137.942C217.278 142.325 213.67 145.842 209.189 145.842H107.057C102.576 145.842 98.9682 142.267 98.9682 137.942V69.7879C98.9682 65.4057 102.576 61.8885 107.057 61.8885H209.247C213.728 61.8885 217.336 65.4057 217.336 69.7879V137.942H217.278Z" fill="#237bd3"/>
</svg>
