<svg width="17" height="16" viewBox="0 0 17 16" fill="none" xmlns="http://www.w3.org/2000/svg">
<path d="M5.53648 8.02647V8.36982C5.53648 8.48182 5.49202 8.58923 5.41289 8.66843C5.33375 8.74762 5.22642 8.79212 5.11451 8.79212C5.00259 8.79212 4.89526 8.74762 4.81613 8.66843C4.73699 8.58923 4.69253 8.48182 4.69253 8.36982V8.02647C4.69253 7.91447 4.73699 7.80705 4.81613 7.72786C4.89526 7.64866 5.00259 7.60417 5.11451 7.60417C5.22642 7.60417 5.33375 7.64866 5.41289 7.72786C5.49202 7.80705 5.53648 7.91447 5.53648 8.02647V8.02647ZM5.11451 9.0455C5.00259 9.0455 4.89526 9.08999 4.81613 9.16919C4.73699 9.24838 4.69253 9.3558 4.69253 9.4678V9.81114C4.69253 9.92315 4.73699 10.0306 4.81613 10.1098C4.89526 10.189 5.00259 10.2334 5.11451 10.2334C5.22642 10.2334 5.33375 10.189 5.41289 10.1098C5.49202 10.0306 5.53648 9.92315 5.53648 9.81114V9.4678C5.53648 9.3558 5.49202 9.24838 5.41289 9.16919C5.33375 9.08999 5.22642 9.0455 5.11451 9.0455ZM3.79354 7.60417C3.68162 7.60417 3.57429 7.64866 3.49516 7.72786C3.41602 7.80705 3.37157 7.91447 3.37157 8.02647V8.36982C3.37157 8.48182 3.41602 8.58923 3.49516 8.66843C3.57429 8.74762 3.68162 8.79212 3.79354 8.79212C3.90545 8.79212 4.01279 8.74762 4.09193 8.66843C4.17106 8.58923 4.21552 8.48182 4.21552 8.36982V8.02647C4.21552 7.91447 4.17106 7.80705 4.09193 7.72786C4.01279 7.64866 3.90545 7.60417 3.79354 7.60417ZM3.79354 9.0455C3.68162 9.0455 3.57429 9.08999 3.49516 9.16919C3.41602 9.24838 3.37157 9.3558 3.37157 9.4678V9.81114C3.37157 9.92315 3.41602 10.0306 3.49516 10.1098C3.57429 10.189 3.68162 10.2334 3.79354 10.2334C3.90545 10.2334 4.01279 10.189 4.09193 10.1098C4.17106 10.0306 4.21552 9.92315 4.21552 9.81114V9.4678C4.21552 9.3558 4.17106 9.24838 4.09193 9.16919C4.01279 9.08999 3.90545 9.0455 3.79354 9.0455ZM9.61679 5.03181C9.72871 5.03181 9.83604 4.98732 9.91518 4.90812C9.99431 4.82893 10.0388 4.72151 10.0388 4.60951V4.26249C10.0317 4.15554 9.98428 4.05528 9.90609 3.98203C9.82791 3.90878 9.72481 3.86802 9.61771 3.86802C9.51061 3.86802 9.40752 3.90878 9.32933 3.98203C9.25114 4.05528 9.20371 4.15554 9.19665 4.26249V4.60584C9.19592 4.66152 9.20625 4.71679 9.22704 4.76844C9.24783 4.82009 9.27866 4.86709 9.31775 4.90672C9.35683 4.94635 9.4034 4.97782 9.45473 4.99929C9.50607 5.02076 9.56115 5.03182 9.61679 5.03181ZM9.61679 6.47314C9.72871 6.47314 9.83604 6.42865 9.91518 6.34945C9.99431 6.27026 10.0388 6.16284 10.0388 6.05084V5.70749C10.0426 5.64982 10.0345 5.59197 10.0151 5.53754C9.99563 5.48311 9.96524 5.43326 9.92577 5.39106C9.8863 5.34886 9.83859 5.31522 9.7856 5.29222C9.73261 5.26923 9.67547 5.25736 9.61771 5.25736C9.55996 5.25736 9.50281 5.26923 9.44982 5.29222C9.39683 5.31522 9.34913 5.34886 9.30966 5.39106C9.27019 5.43326 9.23979 5.48311 9.22035 5.53754C9.20091 5.59197 9.19285 5.64982 9.19665 5.70749V6.05084C9.1981 6.1614 9.243 6.26693 9.32164 6.3446C9.40027 6.42226 9.50631 6.46581 9.61679 6.4658V6.47314ZM8.29583 5.03181C8.40774 5.03181 8.51507 4.98732 8.59421 4.90812C8.67334 4.82893 8.71781 4.72151 8.71781 4.60951V4.26249C8.71075 4.15554 8.66331 4.05528 8.58513 3.98203C8.50694 3.90878 8.40385 3.86802 8.29675 3.86802C8.18965 3.86802 8.08655 3.90878 8.00837 3.98203C7.93018 4.05528 7.88274 4.15554 7.87569 4.26249V4.60584C7.8752 4.66145 7.8857 4.71661 7.90658 4.76815C7.92745 4.81969 7.95829 4.8666 7.99733 4.90618C8.03637 4.94576 8.08283 4.97723 8.13406 4.99879C8.18528 5.02035 8.24026 5.03157 8.29583 5.03181V5.03181ZM8.29583 6.47314C8.40774 6.47314 8.51507 6.42865 8.59421 6.34945C8.67334 6.27026 8.71781 6.16284 8.71781 6.05084V5.70749C8.72161 5.64982 8.71354 5.59197 8.69411 5.53754C8.67467 5.48311 8.64427 5.43326 8.6048 5.39106C8.56533 5.34886 8.51763 5.31522 8.46464 5.29222C8.41165 5.26923 8.3545 5.25736 8.29675 5.25736C8.23899 5.25736 8.18185 5.26923 8.12886 5.29222C8.07587 5.31522 8.02816 5.34886 7.98869 5.39106C7.94922 5.43326 7.91882 5.48311 7.89939 5.53754C7.87995 5.59197 7.87188 5.64982 7.87569 5.70749V6.05084C7.8776 6.16125 7.92266 6.26651 8.00119 6.34407C8.07973 6.42164 8.18549 6.46533 8.29583 6.4658V6.47314ZM12.7174 5.03181C12.8293 5.03181 12.9366 4.98732 13.0158 4.90812C13.0949 4.82893 13.1394 4.72151 13.1394 4.60951V4.26249C13.1394 4.15049 13.0949 4.04308 13.0158 3.96388C12.9366 3.88469 12.8293 3.84019 12.7174 3.84019C12.6055 3.84019 12.4981 3.88469 12.419 3.96388C12.3399 4.04308 12.2954 4.15049 12.2954 4.26249V4.60584C12.2949 4.66161 12.3055 4.71692 12.3265 4.76858C12.3475 4.82024 12.3785 4.86723 12.4177 4.90683C12.4569 4.94643 12.5036 4.97787 12.5551 4.99932C12.6065 5.02077 12.6617 5.03182 12.7174 5.03181ZM12.7174 6.47314C12.8293 6.47314 12.9366 6.42865 13.0158 6.34945C13.0949 6.27026 13.1394 6.16284 13.1394 6.05084V5.70749C13.1394 5.59549 13.0949 5.48808 13.0158 5.40888C12.9366 5.32968 12.8293 5.28519 12.7174 5.28519C12.6055 5.28519 12.4981 5.32968 12.419 5.40888C12.3399 5.48808 12.2954 5.59549 12.2954 5.70749V6.05084C12.2973 6.16156 12.3426 6.2671 12.4216 6.34471C12.5005 6.42233 12.6067 6.46581 12.7174 6.4658V6.47314ZM11.3964 5.03181C11.5083 5.03181 11.6157 4.98732 11.6948 4.90812C11.7739 4.82893 11.8184 4.72151 11.8184 4.60951V4.26249C11.8184 4.15049 11.7739 4.04308 11.6948 3.96388C11.6157 3.88469 11.5083 3.84019 11.3964 3.84019C11.2845 3.84019 11.1772 3.88469 11.098 3.96388C11.0189 4.04308 10.9745 4.15049 10.9745 4.26249V4.60584C10.974 4.66176 10.9846 4.71722 11.0057 4.769C11.0268 4.82078 11.058 4.86785 11.0974 4.90748C11.1368 4.94711 11.1837 4.97851 11.2354 4.99985C11.287 5.02119 11.3424 5.03206 11.3983 5.03181H11.3964ZM11.3964 6.47314C11.5083 6.47314 11.6157 6.42865 11.6948 6.34945C11.7739 6.27026 11.8184 6.16284 11.8184 6.05084V5.70749C11.8184 5.59549 11.7739 5.48808 11.6948 5.40888C11.6157 5.32968 11.5083 5.28519 11.3964 5.28519C11.2845 5.28519 11.1772 5.32968 11.098 5.40888C11.0189 5.48808 10.9745 5.59549 10.9745 5.70749V6.05084C10.9764 6.16188 11.0219 6.26769 11.1013 6.34536C11.1806 6.42303 11.2873 6.4663 11.3983 6.4658L11.3964 6.47314ZM12.5156 9.64957C12.4037 9.64957 12.2963 9.69406 12.2172 9.77326C12.1381 9.85245 12.0936 9.95987 12.0936 10.0719V10.4152C12.0936 10.5272 12.1381 10.6346 12.2172 10.7138C12.2963 10.793 12.4037 10.8375 12.5156 10.8375C12.6275 10.8375 12.7348 10.793 12.814 10.7138C12.8931 10.6346 12.9376 10.5272 12.9376 10.4152V10.0719C12.9371 9.96033 12.8927 9.85347 12.8141 9.77443C12.7354 9.69539 12.6289 9.65053 12.5174 9.64957H12.5156ZM12.5156 11.0909C12.4037 11.0909 12.2963 11.1354 12.2172 11.2146C12.1381 11.2938 12.0936 11.4012 12.0936 11.5132V11.8565C12.0936 11.9685 12.1381 12.076 12.2172 12.1552C12.2963 12.2344 12.4037 12.2788 12.5156 12.2788C12.6275 12.2788 12.7348 12.2344 12.814 12.1552C12.8931 12.076 12.9376 11.9685 12.9376 11.8565V11.5132C12.9371 11.4017 12.8927 11.2948 12.8141 11.2158C12.7354 11.1367 12.6289 11.0919 12.5174 11.0909H12.5156ZM11.1946 9.64957C11.1392 9.64957 11.0843 9.66049 11.0331 9.68171C10.9819 9.70294 10.9354 9.73404 10.8962 9.77326C10.857 9.81247 10.826 9.85903 10.8048 9.91026C10.7836 9.9615 10.7726 10.0164 10.7726 10.0719V10.4152C10.7797 10.5222 10.8271 10.6224 10.9053 10.6957C10.9835 10.7689 11.0866 10.8097 11.1937 10.8097C11.3008 10.8097 11.4039 10.7689 11.4821 10.6957C11.5603 10.6224 11.6077 10.5222 11.6148 10.4152V10.0719C11.615 10.0167 11.6044 9.96193 11.5835 9.91082C11.5626 9.85972 11.5318 9.81323 11.493 9.77402C11.4542 9.7348 11.408 9.70363 11.3571 9.68228C11.3062 9.66092 11.2516 9.64981 11.1964 9.64957H11.1946ZM11.1946 11.0909C11.0827 11.0909 10.9754 11.1354 10.8962 11.2146C10.8171 11.2938 10.7726 11.4012 10.7726 11.5132V11.8565C10.7797 11.9635 10.8271 12.0638 10.9053 12.137C10.9835 12.2103 11.0866 12.251 11.1937 12.251C11.3008 12.251 11.4039 12.2103 11.4821 12.137C11.5603 12.0638 11.6077 11.9635 11.6148 11.8565V11.5132C11.615 11.458 11.6044 11.4033 11.5835 11.3521C11.5626 11.301 11.5318 11.2546 11.493 11.2153C11.4542 11.1761 11.408 11.145 11.3571 11.1236C11.3062 11.1022 11.2516 11.0911 11.1964 11.0909H11.1946ZM15.5483 2.599C15.5483 2.65437 15.5374 2.7092 15.5161 2.76033C15.4949 2.81146 15.4638 2.8579 15.4246 2.89696C15.3854 2.93603 15.3388 2.96696 15.2877 2.98799C15.2365 3.00901 15.1816 3.01971 15.1263 3.01946H15.0309V13.3713C15.0309 13.4267 15.02 13.4815 14.9988 13.5326C14.9775 13.5838 14.9464 13.6302 14.9072 13.6693C14.868 13.7083 14.8215 13.7393 14.7703 13.7603C14.7191 13.7813 14.6643 13.792 14.6089 13.7918H2.5001C2.44477 13.792 2.38994 13.7813 2.33875 13.7603C2.28757 13.7393 2.24104 13.7083 2.20183 13.6693C2.16262 13.6302 2.13151 13.5838 2.11028 13.5326C2.08905 13.4815 2.07812 13.4267 2.07813 13.3713V6.6237C2.07812 6.56833 2.08905 6.5135 2.11028 6.46237C2.13151 6.41124 2.16262 6.3648 2.20183 6.32574C2.24104 6.28667 2.28757 6.25574 2.33875 6.23471C2.38994 6.21369 2.44477 6.20299 2.5001 6.20324H5.98598V3.01946H5.88874C5.83111 3.02327 5.77331 3.0152 5.71892 2.99575C5.66453 2.9763 5.61471 2.94588 5.57255 2.90638C5.53038 2.86687 5.49677 2.81913 5.47379 2.7661C5.45081 2.71307 5.43896 2.65588 5.43896 2.59808C5.43896 2.54028 5.45081 2.48309 5.47379 2.43006C5.49677 2.37703 5.53038 2.32929 5.57255 2.28979C5.61471 2.25029 5.66453 2.21987 5.71892 2.20041C5.77331 2.18096 5.83111 2.17289 5.88874 2.1767H15.13C15.2416 2.17718 15.3484 2.22189 15.4272 2.30103C15.5059 2.38018 15.5501 2.48732 15.5501 2.599H15.5483ZM2.92391 12.949H5.98414V7.046H2.92574L2.92391 12.949ZM14.1631 12.949V8.97756H9.54708V12.949H14.1631ZM13.0623 8.1348L11.8624 7.41872L10.6607 8.1348H13.0623ZM14.1851 3.01946H6.82626V12.949H8.70496V8.52221V8.50385C8.70496 8.50385 8.70496 8.48916 8.70496 8.48365V8.46162C8.70426 8.45552 8.70426 8.44936 8.70496 8.44326C8.70496 8.44326 8.70496 8.42857 8.70496 8.42123V8.4047C8.70767 8.39782 8.71073 8.39107 8.71413 8.38451C8.71444 8.37839 8.71444 8.37226 8.71413 8.36614L8.72514 8.34778C8.72816 8.34187 8.73186 8.33633 8.73615 8.33126C8.7385 8.32539 8.74159 8.31983 8.74532 8.31473L8.76 8.29637L8.77101 8.28352C8.77486 8.27663 8.77982 8.27043 8.78569 8.26516C8.79042 8.26135 8.79473 8.25704 8.79853 8.25231L8.81504 8.23762L8.83155 8.22477L8.84623 8.21375L8.86641 8.19906H8.87559L11.6056 6.57045C11.6708 6.53166 11.7453 6.51119 11.8212 6.51119C11.897 6.51119 11.9715 6.53166 12.0367 6.57045L14.1851 7.82817V3.01946Z" fill="#004571"/>
</svg>
