<svg width="32" height="32" viewBox="0 0 32 32" fill="none" xmlns="http://www.w3.org/2000/svg">
<path d="M16.0128 21.6992C13.92 21.6992 12.2112 23.4016 12.2112 25.5008C12.2112 27.5936 13.9136 29.3024 16.0128 29.3024C18.1056 29.3024 19.8144 27.6 19.8144 25.5008C19.8144 23.4016 18.112 21.6992 16.0128 21.6992ZM16.0128 27.3952C14.9632 27.3952 14.112 26.544 14.112 25.4944C14.112 24.4448 14.9632 23.5936 16.0128 23.5936C17.0624 23.5936 17.9136 24.4448 17.9136 25.4944C17.9136 26.544 17.0624 27.3952 16.0128 27.3952Z" fill="#004571"/>
<path d="M20.0256 3.46722C19.5968 2.98082 18.976 2.69922 18.3296 2.69922H13.7024C13.056 2.69922 12.4352 2.98082 12.0064 3.46722C11.5776 3.95362 11.3792 4.60002 11.456 5.24642L13.1712 18.968C13.2288 19.4416 13.632 19.8 14.112 19.8H17.9136C18.3936 19.8 18.7968 19.4416 18.8544 18.968L20.5696 5.24642C20.6528 4.60002 20.4544 3.95362 20.0256 3.46722ZM18.688 5.00962L17.0752 17.8992H14.9504L13.344 5.00962C13.3248 4.86882 13.3888 4.77282 13.4336 4.72162C13.472 4.67682 13.5616 4.60002 13.7024 4.60002H18.3296C18.4704 4.60002 18.56 4.67682 18.6048 4.72162C18.6368 4.76642 18.7072 4.86882 18.688 5.00962Z" fill="#004571"/>
</svg>
