<?xml version="1.0" encoding="UTF-8"?>
<svg width="25px" height="38px" viewBox="0 0 25 38" version="1.1" xmlns="http://www.w3.org/2000/svg" xmlns:xlink="http://www.w3.org/1999/xlink">
    <!-- Generator: Sketch 60.1 (88133) - https://sketch.com -->
    <title>icono_rojo</title>
    <desc>Created with Sketch.</desc>
    <g id="Page-1" stroke="none" stroke-width="1" fill="none" fill-rule="evenodd">
        <g id="icono_rojo">
            <g id="Group-3">
                <path d="M12.0903,-0.00024 C11.9403,-0.00024 11.7903,0.00216 11.6427,0.00816 C7.5495,0.14616 3.8463,2.34936 1.7379,5.90256 C-0.4173,9.53196 -0.5775,13.94436 1.3107,17.70456 L10.8069,36.62436 C11.0331,37.07436 11.4939,37.35936 11.9955,37.35996 L11.9991,37.35996 C12.5007,37.35996 12.9597,37.07916 13.1877,36.63156 L22.8165,17.74596 C24.7311,13.98876 24.5919,9.56976 22.4439,5.92356 C20.3391,2.35776 16.6359,0.14556 12.5361,0.00696 C12.3873,0.00216 12.2391,-0.00024 12.0903,-0.00024 Z" id="Path" fill="#FFFFFF"></path>
                <path d="M12.5361,0.00696 C12.3873,0.00216 12.2391,-0.00024 12.0903,-0.00024 C11.9403,-0.00024 11.7903,0.00216 11.6427,0.00816 C7.5495,0.14616 3.8463,2.34936 1.7379,5.90256 C-0.4173,9.53196 -0.5775,13.94436 1.3107,17.70456 L10.8069,36.62436 C11.0331,37.07436 11.4939,37.35936 11.9955,37.35996 L11.9991,37.35996 C12.5007,37.35996 12.9597,37.07916 13.1877,36.63156 L22.8165,17.74596 C24.7311,13.98876 24.5919,9.56976 22.4439,5.92356 C20.3391,2.35776 16.6359,0.14556 12.5361,0.00696 M20.4399,16.53336 L12.0081,33.07116 L3.6939,16.50816 C2.2161,13.56456 2.3427,10.10856 4.0311,7.26336 C5.6991,4.45536 8.5053,2.78316 11.7315,2.67156 C11.8515,2.66976 11.9709,2.66736 12.0903,2.66736 C12.2091,2.66736 12.3273,2.66976 12.4467,2.67156 C15.6291,2.78076 18.5091,4.50216 20.1459,7.27836 C21.8283,10.13316 21.9399,13.59276 20.4399,16.53336" id="Fill-1" fill="#D3222A"></path>
            </g>
            <g id="Group-5" transform="translate(12.500000, 13.000000) rotate(-180.000000) translate(-12.500000, -13.000000) translate(11.000000, 5.000000)" fill="#D3222A">
                <path d="M2.7,1.35 C2.7,2.0958 2.0952,2.7 1.35,2.7 C0.6042,2.7 0,2.0958 0,1.35 C0,0.6048 0.6042,0 1.35,0 C2.0952,0 2.7,0.6048 2.7,1.35" id="Fill-1"></path>
                <path d="M2.7,14.27654 C2.7,15.02114 2.0958,15.62594 1.35,15.6253409 C0.6054,15.6253409 0,15.02174 0,14.27654 L0,6.42594 C0,5.68134 0.6054,5.07713733 1.35,5.07713733 C2.0964,5.07654 2.7,5.68134 2.7,6.42594 L2.7,14.27654 Z" id="Fill-3"></path>
            </g>
        </g>
    </g>
</svg>