<?xml version="1.0" encoding="UTF-8"?>
<svg width="47px" height="61px" viewBox="0 0 47 61" version="1.1" xmlns="http://www.w3.org/2000/svg" xmlns:xlink="http://www.w3.org/1999/xlink">
    <!-- Generator: Sketch 60.1 (88133) - https://sketch.com -->
    <title>Artboard</title>
    <desc>Created with Sketch.</desc>
    <defs>
        <polygon id="path-1" points="0 0 20.8 0 20.8 20.8684211 0 20.8684211"></polygon>
    </defs>
    <g id="Artboard" stroke="none" stroke-width="1" fill="none" fill-rule="evenodd">
        <g id="hola" transform="translate(4.000000, 0.000000)">
            <path d="M20.057716,0.0115578947 C19.819636,0.00385263158 19.582516,3.55271368e-15 19.344436,3.55271368e-15 C19.104436,3.55271368e-15 18.864436,0.00385263158 18.628276,0.0134842105 C12.079156,0.235010526 6.15403598,3.77172632 2.78059598,9.47554737 C-0.667724018,15.3016895 -0.924044018,22.3847526 2.09707598,28.4208632 L17.290996,58.7921211 C17.652916,59.5144895 18.390196,59.9719895 19.192756,59.9729526 L19.198516,59.9729526 C20.001076,59.9729526 20.735476,59.5221947 21.100276,58.8036789 L36.506356,28.4873211 C39.569716,22.4560263 39.346996,15.3623684 35.910196,9.50925789 C32.542516,3.78521053 26.617396,0.234047368 20.057716,0.0115578947 M32.703796,26.5407789 L19.212916,53.0883 L5.91019598,26.5003263 C3.54571598,21.7750737 3.74827598,16.2272842 6.44971598,11.6599895 C9.11851598,7.15241053 13.608436,4.46808947 18.770356,4.28894211 C18.962356,4.28605263 19.153396,4.2822 19.344436,4.2822 C19.534516,4.2822 19.723636,4.28605263 19.914676,4.28894211 C25.006516,4.46423684 29.614516,7.22753684 32.233396,11.6840684 C34.925236,16.2667737 35.103796,21.8203421 32.703796,26.5407789" id="Fill-1" fill="#004571" fill-rule="nonzero"></path>
            <g id="Group-3" stroke-width="1" fill-rule="evenodd" transform="translate(8.000000, 9.631579)">
                <mask id="mask-2" fill="white">
                    <use xlink:href="#path-1"></use>
                </mask>
                <g id="Clip-2"></g>
                <path d="M10.2938062,12.5186418 C11.0020831,11.7660829 11.6536978,11.0746456 12.2958688,10.3927585 C11.8595702,9.89996616 11.4440478,9.43009439 11.139961,9.08628578 C10.3618008,9.81210396 9.66674512,10.4615202 8.90180613,11.1758781 C9.31732855,11.5769882 9.72907349,11.9742781 10.2938062,12.5186418 M13.5651009,11.2943011 C12.7246123,12.1461824 12.0578877,12.8242494 11.4383816,13.4526552 C13.2496816,15.3397824 15.0213181,17.2326399 16.8496167,19.0662858 C17.4880102,19.7042418 18.283169,19.6488504 18.9177851,19.0032542 C19.6033971,18.3022667 19.5467349,17.515327 18.889454,16.8219796 C17.157481,14.9959738 15.3990657,13.1947987 13.5651009,11.2943011 M1.41107024,5.86403505 C1.51683958,8.71382645 3.6114503,10.5933135 6.31045726,10.3679279 C8.75070707,10.1654628 10.6451115,7.80273362 10.2994724,5.39607333 C9.95383334,2.97986279 7.85922262,1.18823791 5.85527134,1.59316805 C7.56835693,3.98072787 7.7345659,5.12866663 6.55410449,6.41985898 C5.3547557,7.7301518 4.13651953,7.60981879 1.41107024,5.86403505 M-7.10558999e-16,5.89268577 C-7.10558999e-16,5.69786089 0.017181409,5.49348577 0.00962645597,5.31203122 C-0.0224820943,4.63778433 0.206055234,4.1335317 0.77078797,3.74770203 C1.61883144,3.74770203 1.76615303,4.13162165 2.23078264,4.48307045 C2.62930641,4.78485801 2.93339327,5.21079869 3.31869587,5.53359677 C4.04774883,6.14099199 4.83157521,6.17155276 5.49452233,5.47438529 C6.12347217,4.81159868 6.06681002,4.04566949 5.46619126,3.3714226 C4.97700805,2.81941877 4.42549648,2.32662643 3.92120337,1.78608288 C3.18648419,1.00105322 3.31491839,0.540731684 4.33861452,0.231303932 C8.1840856,-0.93191521 12.1919882,2.46605992 11.6820288,6.53064175 C11.5838144,7.31185132 11.810463,7.74734223 12.3072012,8.24013458 C14.8475541,10.7537576 17.3746859,13.2788408 19.8772641,15.8249346 C20.8745179,16.8410801 21.0501706,18.0921614 20.4684392,19.2630207 C19.9018177,20.3975892 18.6533617,21.1062169 17.3784634,20.7948791 C16.7079613,20.6325251 16.0223493,20.2142246 15.519945,19.7252523 C13.094805,17.3739834 10.7131061,14.9787834 8.35596078,12.5587528 C7.74400959,11.9265269 7.1717219,11.6533901 6.24812889,11.7374322 C2.82006897,12.0430399 -0.0262595708,9.33268195 -7.10558999e-16,5.89268577" id="Fill-1" fill="#004575" mask="url(#mask-2)"></path>
            </g>
        </g>
    </g>
</svg>