<?xml version="1.0" encoding="UTF-8"?>
<svg width="16px" height="16px" viewBox="0 0 16 16" version="1.1" xmlns="http://www.w3.org/2000/svg" xmlns:xlink="http://www.w3.org/1999/xlink">
    <!-- Generator: Sketch 57.1 (83088) - https://sketch.com -->
    <title>Page 1 Copy 4</title>
    <desc>Created with Sketch.</desc>
    <g id="Provisión-de-servicio-" stroke="none" stroke-width="1" fill="none" fill-rule="evenodd">
        <g id="3-01_PROVISION_SERVICIOS_NU_01.7" transform="translate(-1215.000000, -588.000000)" fill="#004571">
            <g id="Group" transform="translate(750.000000, 569.000000)">
                <path d="M473,19 C470.791656,19 468.906258,19.781242 467.34375,21.34375 C465.781242,22.906258 465,24.791656 465,27 C465,29.208344 465.781242,31.093742 467.34375,32.65625 C468.906258,34.2187578 470.791656,35 473,35 C475.208344,35 477.093742,34.2187578 478.65625,32.65625 C480.218758,31.093742 481,29.208344 481,27 C481,24.791656 480.218758,22.906258 478.65625,21.34375 C477.093742,19.781242 475.208344,19 473,19 Z M473,34 C471.06249,34 469.411466,33.3177152 468.046876,31.953124 C466.682285,30.588534 466,28.93751 466,27 C466,25.06249 466.682285,23.411466 468.046876,22.046876 C469.411466,20.682284 471.06249,20 473,20 C474.93751,20 476.588534,20.682284 477.953124,22.046876 C479.317716,23.411466 480,25.06249 480,27 C480,28.93751 479.317716,30.588534 477.953124,31.953124 C476.588534,33.3177152 474.93751,34 473,34 Z M473,25 C472.729166,25 472.494792,25.098958 472.296876,25.296876 C472.098958,25.494792 472,25.729166 472,26 L472,31 C472,31.270834 472.098958,31.505208 472.296876,31.703124 C472.494792,31.901042 472.729166,32 473,32 C473.270834,32 473.505208,31.901042 473.703124,31.703124 C473.901042,31.505208 474,31.270834 474,31 L474,26 C474,25.729166 473.901042,25.494792 473.703124,25.296876 C473.505208,25.098958 473.270834,25 473,25 Z M472,22.984374 C472,23.265626 472.098958,23.505208 472.296876,23.703126 C472.494792,23.901042 472.729166,24 473,24 C473.270834,24 473.505208,23.901042 473.703124,23.703126 C473.901042,23.505208 474,23.265626 474,22.984374 C474,22.703124 473.901042,22.46875 473.703124,22.28125 C473.505208,22.09375 473.270834,22 473,22 C472.729166,22 472.494792,22.09375 472.296876,22.28125 C472.098958,22.46875 472,22.703124 472,22.984374 Z" id="Page-1-Copy-4"></path>
            </g>
        </g>
    </g>
</svg>