<?xml version="1.0" encoding="UTF-8"?>
<svg width="18px" height="18px" viewBox="0 0 18 18" version="1.1" xmlns="http://www.w3.org/2000/svg" xmlns:xlink="http://www.w3.org/1999/xlink">
    <!-- Generator: Sketch 57.1 (83088) - https://sketch.com -->
    <title>Fill 1</title>
    <desc>Created with Sketch.</desc>
    <g id="Symbols" stroke="none" stroke-width="1" fill="none" fill-rule="evenodd">
        <g id="form_input-/-predictivo" transform="translate(-317.000000, -37.000000)" fill="#004571">
            <path d="M317,44.1996216 C317,48.1695978 320.229217,51.398928 324.198739,51.398928 C325.67052,51.398928 327.039201,50.9546665 328.180557,50.1944717 C328.219968,50.2474425 328.261902,50.2991522 328.310457,50.3477088 L332.542302,54.5784403 C332.822596,54.8600056 333.192118,55 333.559432,55 C333.928639,55 334.296584,54.8600056 334.579086,54.5784403 C335.140305,54.0162556 335.140305,53.1053461 334.579086,52.5425308 L330.346926,48.3108534 C330.298371,48.2626121 330.247294,48.2200462 330.194325,48.1803181 C330.954808,47.039553 331.398739,45.6701934 331.398739,44.1996216 C331.398739,40.2296455 328.169522,37 324.198739,37 C320.229217,37 317,40.2296455 317,44.1996216 M318.439306,44.1996216 C318.439306,41.0245235 321.023121,38.4399874 324.198739,38.4399874 C327.375617,38.4399874 329.958487,41.0245235 329.958487,44.1996216 C329.958487,47.3759809 327.375617,49.9592559 324.198739,49.9592559 C321.023121,49.9592559 318.439306,47.3759809 318.439306,44.1996216 M333.304992,53.8157231 L329.241513,49.7514714 C329.152916,49.6628714 329.120441,49.5399033 329.143773,49.4248178 C329.240252,49.334326 329.333263,49.2400504 329.423752,49.1441984 C329.539464,49.1214966 329.662743,49.1533422 329.751025,49.241627 L333.813873,53.3065092 C333.955123,53.4465036 333.955123,53.6744675 333.813873,53.8157231 C333.744824,53.8857203 333.652128,53.9200883 333.559432,53.9200883 C333.467683,53.9200883 333.375617,53.8857203 333.304992,53.8157231" id="Fill-1"></path>
        </g>
    </g>
</svg>