<svg width="31" height="31" viewBox="0 0 31 31" fill="none" xmlns="http://www.w3.org/2000/svg">
<path fill-rule="evenodd" clip-rule="evenodd" d="M15.4946 2.97656C15.5938 2.97656 15.693 2.97656 15.7922 2.98276C18.545 3.07576 21.0312 4.56376 22.4572 6.96316C23.8956 9.41216 23.9886 12.382 22.7052 14.9054L16.2386 27.5906C16.0836 27.8944 15.7736 28.0804 15.4388 28.0804C15.0978 28.0804 14.794 27.8882 14.639 27.5844L8.25924 14.8744C6.98823 12.3448 7.09983 9.38116 8.54443 6.94456C9.95803 4.55756 12.4504 3.07576 15.197 2.98276C15.2962 2.97656 15.3954 2.97656 15.4946 2.97656ZM15.4494 25.1416L21.11 14.0312C22.1144 12.0534 22.04 9.72836 20.9178 7.81256C19.8204 5.94636 17.886 4.79316 15.747 4.71876C15.6664 4.71256 15.5858 4.71256 15.5052 4.71256C15.465 4.71256 15.4248 4.71411 15.3846 4.71565L15.3843 4.71566C15.344 4.71721 15.3037 4.71876 15.2634 4.71876C13.0996 4.79316 11.2148 5.91536 10.0926 7.80016C8.95803 9.71596 8.87123 12.0348 9.86322 14.0126L15.4494 25.1416ZM14.3841 16.2322C14.3841 15.6246 14.8739 15.1348 15.4815 15.1348C16.0891 15.1348 16.5789 15.6246 16.5789 16.2322C16.5789 16.8398 16.0891 17.3296 15.4815 17.3296C14.8739 17.3296 14.3841 16.8398 14.3841 16.2322ZM16.3929 12.4254C16.3929 12.9276 15.9837 13.3306 15.4815 13.3306C14.9793 13.3306 14.5701 12.9214 14.5701 12.4254V8.65576C14.5701 8.15356 14.9793 7.75056 15.4815 7.75056C15.9837 7.75056 16.3929 8.15356 16.3929 8.65576V12.4254Z" fill="#004571"/>
</svg>
