<svg width="28" height="28" viewBox="0 0 28 28" fill="none" xmlns="http://www.w3.org/2000/svg">
<path d="M25.6479 14.0276C25.6479 16.3369 24.9631 18.5943 23.6802 20.5144C22.3972 22.4345 20.5736 23.931 18.4401 24.8148C16.3066 25.6985 13.959 25.9297 11.694 25.4792C9.42911 25.0287 7.34864 23.9167 5.71573 22.2837C4.08281 20.6508 2.97078 18.5704 2.52026 16.3054C2.06973 14.0405 2.30096 11.6929 3.18469 9.55936C4.06842 7.42585 5.56496 5.6023 7.48507 4.31933C9.40518 3.03635 11.6626 2.35156 13.9719 2.35156C17.0686 2.35156 20.0384 3.58171 22.2281 5.77138C24.4178 7.96106 25.6479 10.9309 25.6479 14.0276ZM23.9799 14.0276C23.9799 12.0482 23.393 10.1132 22.2933 8.46741C21.1936 6.8216 19.6305 5.53885 17.8018 4.78137C15.9731 4.02389 13.9608 3.8257 12.0194 4.21186C10.0781 4.59803 8.29483 5.5512 6.89518 6.95085C5.49554 8.35049 4.54237 10.1337 4.1562 12.0751C3.77004 14.0165 3.96823 16.0287 4.72572 17.8575C5.4832 19.6862 6.76595 21.2492 8.41176 22.3489C10.0576 23.4486 11.9925 24.0356 13.9719 24.0356C16.6262 24.0356 19.1718 22.9811 21.0486 21.1043C22.9255 19.2274 23.9799 16.6819 23.9799 14.0276Z" fill="#004571"/>
<g clip-path="url(#clip0_1462_25991)">
<path d="M14.142 20.8776C13.757 20.8776 13.3806 20.7634 13.0605 20.5494C12.7404 20.3354 12.491 20.0312 12.3438 19.6754C12.1966 19.3196 12.1583 18.9282 12.2337 18.5506C12.3091 18.173 12.4948 17.8263 12.7673 17.5543C13.0398 17.2823 13.3869 17.0972 13.7646 17.0225C14.1424 16.9479 14.5338 16.9869 14.8893 17.1348C15.2448 17.2827 15.5485 17.5326 15.7619 17.8531C15.9752 18.1737 16.0887 18.5503 16.088 18.9353C16.087 19.4508 15.8816 19.9448 15.5167 20.309C15.1519 20.6731 14.6575 20.8776 14.142 20.8776ZM14.142 17.89C13.9353 17.89 13.7332 17.9513 13.5613 18.0662C13.3894 18.1811 13.2554 18.3443 13.1763 18.5353C13.0972 18.7263 13.0765 18.9365 13.1168 19.1392C13.1571 19.342 13.2567 19.5282 13.4029 19.6744C13.5491 19.8206 13.7353 19.9202 13.9381 19.9605C14.1408 20.0008 14.351 19.9801 14.542 19.901C14.733 19.8219 14.8963 19.6879 15.0111 19.516C15.126 19.3441 15.1873 19.142 15.1873 18.9353C15.1878 18.7979 15.1611 18.6618 15.1087 18.5347C15.0564 18.4077 14.9794 18.2922 14.8822 18.1951C14.7851 18.0979 14.6696 18.021 14.5426 17.9686C14.4156 17.9162 14.2794 17.8895 14.142 17.89ZM14.2792 15.1916L13.6342 15.1582C13.4118 13.6755 12.8336 9.63528 12.8336 8.9236C12.8336 8.55293 13.0078 8.45656 13.0819 8.44544H14.0753V7.54102H13.0597C12.7298 7.57742 12.4277 7.74284 12.2194 8.00118C12.011 8.25952 11.9133 8.58978 11.9477 8.91989C11.9477 9.84285 12.7261 15.0656 12.7557 15.2546C12.7728 15.4869 12.8793 15.7036 13.0528 15.8591C13.2263 16.0147 13.4533 16.0969 13.6861 16.0886H14.294L14.2792 15.1916ZM15.3578 15.2879C15.3912 15.0692 16.1696 9.84656 16.1696 8.9236C16.1859 8.75719 16.169 8.5892 16.1199 8.42936C16.0709 8.26951 15.9906 8.121 15.8837 7.9924C15.7768 7.86381 15.6455 7.75768 15.4973 7.6802C15.3491 7.60272 15.1871 7.55542 15.0205 7.54102H14.0308V8.44544H14.9945C15.0983 8.44544 15.2725 8.5344 15.2725 8.9236C15.2725 9.63528 14.6943 13.6644 14.4348 15.1916H13.8306V16.0923H14.4348C14.6619 16.1001 14.8835 16.0214 15.0549 15.8721C15.2262 15.7228 15.3345 15.514 15.3578 15.2879Z" fill="#004571"/>
</g>
<defs>
<clipPath id="clip0_1462_25991">
<rect width="4.24044" height="13.3366" fill="white" transform="translate(11.9331 7.54102)"/>
</clipPath>
</defs>
</svg>
