<svg width="28" height="28" viewBox="0 0 28 28" fill="none" xmlns="http://www.w3.org/2000/svg">
<path d="M17.8752 10.2485C17.78 10.1925 17.6736 10.1533 17.5672 10.1421C17.2648 10.1029 16.9568 10.2429 16.7888 10.5173L12.7288 16.1509L11.228 13.5357C11.0544 13.1381 10.584 12.9533 10.1864 13.1325C9.78881 13.3061 9.60401 13.7765 9.78321 14.1741L11.3624 16.9741C11.368 16.9853 11.3736 16.9909 11.3736 17.0021C11.5976 17.4613 12.0288 17.7693 12.5272 17.8309C12.5608 17.8365 12.6 17.8365 12.6336 17.8421C13.1768 17.8701 13.692 17.6013 13.9776 17.1421C13.9776 17.1365 13.9832 17.1365 13.9832 17.1309L18.1384 11.3349C18.368 10.9597 18.2504 10.4725 17.8752 10.2485Z" fill="#ffff"/>
</svg>
