<svg width="28" height="28" viewBox="0 0 28 28" fill="none" xmlns="http://www.w3.org/2000/svg">
<path d="M21.4033 4.78809H6.60808C5.25847 4.78809 4.15527 5.88569 4.15527 7.24089V17.4665C4.15527 18.8217 5.25287 19.9193 6.60808 19.9193H9.14488V22.4001C9.14488 22.7361 9.34648 23.0385 9.66008 23.1673C9.76088 23.2121 9.87288 23.2289 9.97928 23.2289C10.1977 23.2289 10.4105 23.1449 10.5673 22.9825L13.6305 19.9137H21.8513C22.9601 19.9137 23.8617 19.0121 23.8617 17.9033V7.24089C23.8561 5.89129 22.7529 4.78809 21.4033 4.78809ZM22.1929 12.1297C22.1873 12.1801 22.1817 12.2249 22.1817 12.2753C22.1817 12.3257 22.1873 12.3761 22.1929 12.4209V17.9033C22.1929 18.0937 22.0361 18.2505 21.8457 18.2505H13.2777C13.0537 18.2505 12.8465 18.3401 12.6897 18.4969L10.8081 20.3897V19.0849C10.8081 18.6257 10.4385 18.2561 9.97928 18.2561H6.60808C6.17128 18.2561 5.81848 17.9033 5.81848 17.4665V7.24089C5.81848 6.80409 6.17128 6.45129 6.60808 6.45129H21.4033C21.8401 6.45129 22.1929 6.80409 22.1929 7.24089V12.1297ZM18.6033 10.4721C18.6033 10.9257 18.2393 11.2897 17.7857 11.2897H10.2313C9.77768 11.2897 9.41368 10.9201 9.41368 10.4721C9.41368 10.0185 9.77768 9.65449 10.2313 9.65449H17.7857C18.2337 9.65449 18.6033 10.0185 18.6033 10.4721ZM18.6033 13.7313C18.6033 14.1849 18.2393 14.5489 17.7857 14.5489H10.2313C9.77768 14.5489 9.41368 14.1793 9.41368 13.7313C9.41368 13.2777 9.77768 12.9137 10.2313 12.9137H17.7857C18.2337 12.9081 18.6033 13.2777 18.6033 13.7313Z" fill="#004571"/>
</svg>
