<svg width="28" height="28" viewBox="0 0 28 28" fill="none" xmlns="http://www.w3.org/2000/svg">
<path d="M19.4489 8.55678C19.1297 8.23758 18.6089 8.23758 18.2897 8.55678L13.9721 12.8744L9.65446 8.55678C9.33526 8.23758 8.81446 8.23758 8.49526 8.55678C8.17606 8.87598 8.17606 9.39678 8.49526 9.71598L12.8129 14.0336L8.49526 18.3512C8.17606 18.6704 8.17606 19.1912 8.49526 19.5104C8.81446 19.8296 9.33526 19.8296 9.65446 19.5104L13.9721 15.1928L18.2897 19.5104C18.6089 19.8296 19.1241 19.8296 19.4489 19.5104C19.7681 19.1912 19.7681 18.6704 19.4489 18.3512L15.1313 14.0336L19.4489 9.71598C19.7681 9.39118 19.7681 8.87598 19.4489 8.55678Z" fill="#004571"/>
<path d="M13.9776 2.56445C7.64399 2.56445 2.50879 7.69965 2.50879 14.0332C2.50879 20.3668 7.64399 25.502 13.9776 25.502C20.3112 25.502 25.4464 20.3668 25.4464 14.0332C25.4408 7.69405 20.3112 2.56445 13.9776 2.56445ZM13.9776 23.8556C8.55119 23.8556 4.14959 19.454 4.14959 14.0276C4.14959 8.60125 8.55119 4.19965 13.9776 4.19965C19.404 4.19965 23.8056 8.60125 23.8056 14.0276C23.8056 19.454 19.404 23.8556 13.9776 23.8556Z" fill="#004571"/>
</svg>
