<svg width="28" height="28" viewBox="0 0 28 28" fill="none" xmlns="http://www.w3.org/2000/svg">
<path fill-rule="evenodd" clip-rule="evenodd" d="M23.1841 5.68359H4.81608C3.46648 5.68359 2.36328 6.78119 2.36328 8.13639V19.8572C2.36328 21.2068 3.46088 22.31 4.81608 22.31H23.1841C24.5337 22.31 25.6369 21.2124 25.6369 19.8572V8.13639C25.6369 6.78119 24.5393 5.68359 23.1841 5.68359ZM23.1841 7.34679C23.2345 7.34679 23.2905 7.35239 23.3409 7.36359L14.1177 15.1476L14.1009 15.1588L14.0785 15.1476L4.73768 7.35239C4.76568 7.35239 4.78808 7.34679 4.81608 7.34679H23.1841ZM23.1841 20.6468H4.81608C4.37928 20.6468 4.02648 20.294 4.02648 19.8572V8.80279L12.8017 16.1948C12.8017 16.1948 13.5913 16.8444 14.0449 16.8444C14.4985 16.8444 15.4281 16.1556 15.4281 16.1556L23.9737 8.84759V19.8516C23.9737 20.2884 23.6209 20.6468 23.1841 20.6468Z" fill="#64666A"/>
</svg>