<svg width="500" height="500" viewBox="0 0 500 500" fill="none" xmlns="http://www.w3.org/2000/svg">
<path d="M203.5 386.6C195 342.5 190.3 293.9 190.3 249.6C190.3 205.9 195.1 155.8 203.5 112.4C208.1 88.5999 229.1 71.4 253.4 71.4H308.8V161.9L270.1 165.9C258.5 167.1 249.7 176.8 249.7 188.5V316.6C249.7 328.3 258.4 338 270.1 339.2L308.8 343.2V427.5H253.4C229.1 427.6 208.1 410.3 203.5 386.6ZM253.4 41.7C214.8 41.7 181.6 69.1 174.3 106.8C165.5 152.7 160.6 203.5 160.6 249.7C160.6 295.8 165.5 346.5 174.3 392.3C181.6 430 214.8 457.4 253.4 457.4H310.5C326 457.4 338.5 444.8 338.5 429.4V341.9C338.5 327.5 327.7 315.6 313.4 314.1L279.4 310.5V194.8L313.4 191.3C327.7 189.8 338.5 177.8 338.5 163.5V69.6999C338.5 54.2999 325.9 41.7 310.5 41.7H253.4Z" fill="#004571"/>
</svg>
