<svg width="20" height="20" viewBox="0 0 20 20" fill="none" xmlns="http://www.w3.org/2000/svg">
<path d="M9.984 1.82812C5.46 1.82812 1.79199 5.49612 1.79199 10.0201C1.79199 14.5441 5.46 18.2121 9.984 18.2121C14.508 18.2121 18.176 14.5441 18.176 10.0201C18.172 5.49612 14.504 1.82812 9.984 1.82812ZM9.984 17.0401C6.108 17.0401 2.96399 13.8961 2.96399 10.0201C2.96399 6.14412 6.108 3.00012 9.984 3.00012C13.86 3.00012 17.004 6.14412 17.004 10.0201C17.004 13.8961 13.86 17.0401 9.984 17.0401Z" fill="#004571"/>
<path d="M9.98393 13.707C9.56793 13.707 9.23193 14.043 9.23193 14.459C9.23193 14.875 9.56793 15.211 9.98393 15.211C10.3999 15.211 10.7359 14.875 10.7359 14.459C10.7359 14.047 10.3959 13.707 9.98393 13.707Z" fill="#004571"/>
<path d="M9.98405 4.82422C8.40004 4.82422 7.10803 6.11222 7.10803 7.70021C7.10803 8.02421 7.37203 8.28821 7.69604 8.28821C8.02004 8.28821 8.28404 8.02421 8.28404 7.70021C8.28404 6.76022 9.04804 6.00022 9.98405 6.00022C10.9241 6.00022 11.6881 6.76422 11.6881 7.70021C11.6881 8.24021 11.2961 8.60021 10.6561 9.13221C10.068 9.61621 9.40004 10.1682 9.40004 11.0402V12.2722C9.40004 12.5962 9.66405 12.8602 9.98805 12.8602C10.312 12.8602 10.5761 12.5962 10.5761 12.2722V11.0402C10.5761 10.7202 10.9601 10.4042 11.4041 10.0362C12.0521 9.50021 12.8641 8.83221 12.8641 7.70021C12.8601 6.11622 11.5681 4.82422 9.98405 4.82422Z" fill="#004571"/>
</svg>
