<svg width="500" height="500" viewBox="0 0 500 500" fill="none" xmlns="http://www.w3.org/2000/svg">
<path d="M364.1 209.543C304.825 209.543 256.6 257.769 256.6 317.043C256.6 376.317 304.825 424.543 364.1 424.543C379.229 424.543 393.811 421.457 407.548 415.386C411.28 413.743 412.923 409.413 411.28 405.681C409.638 401.948 405.308 400.306 401.575 401.948C389.73 407.174 377.139 409.811 364.05 409.811C312.888 409.811 271.232 368.155 271.232 316.993C271.232 265.831 312.838 224.175 364.05 224.175C415.262 224.175 456.868 265.831 456.868 316.993C456.868 326.698 455.375 336.254 452.439 345.411C446.118 365.119 435.717 371.191 430.69 370.395C425.862 369.648 425.464 362.382 425.464 360.192V272.898C425.464 268.817 422.179 265.533 418.098 265.533C414.017 265.533 410.733 268.817 410.733 272.898V277.228C399.485 264.039 382.713 255.678 364.05 255.678C330.207 255.678 302.635 283.2 302.635 317.093C302.635 350.935 330.207 378.507 364.05 378.507C382.713 378.507 399.485 370.146 410.733 356.908V360.242C410.733 373.58 417.651 383.285 428.401 384.977C441.092 386.968 457.764 376.915 466.424 349.94C469.808 339.339 471.55 328.291 471.55 317.043C471.6 257.769 423.374 209.543 364.1 209.543ZM364.1 363.776C338.369 363.776 317.417 342.823 317.417 317.093C317.417 291.362 338.369 270.41 364.1 270.41C389.83 270.41 410.782 291.362 410.782 317.093C410.782 342.823 389.83 363.776 364.1 363.776Z" fill="#004571" stroke="#004571" stroke-width="5"/>
<path d="M30 116.5V271C30 294.4 49 313.4 72.4 313.4H217.3C236.6 313.4 236.6 284.6 217.3 284.6H72.4C64.9 284.6 58.7 278.5 58.7 271V128L59.1 123.5L183.2 228C183.2 228 196.9 239.3 204.7 239.3C212.5 239.3 228.6 227.4 228.6 227.4L339.4 132.6C339.4 146.464 339.4 144.236 339.4 158.1C339.4 171.964 353.4 172.543 353.4 172.543C353.4 172.543 368.1 172.657 368.1 158.1C368.1 143.543 368.1 116.4 368.1 116.4C368.1 93 349.1 74 325.7 74H72.4C49 74.1 30 93.1 30 116.5ZM325.9 102.8C326.8 102.8 327.7 102.9 328.6 103.1L331.9 103.7L206 209.8L205.7 210L205.3 209.8L77 102.8H325.9Z" fill="#004571"/>
</svg>
