<svg width="64" height="64" viewBox="0 0 64 64" fill="none" xmlns="http://www.w3.org/2000/svg">
<path d="M28.2245 51.0467C28.2245 48.9475 29.9269 47.2451 32.0261 47.2451C34.1253 47.2451 35.8277 48.9475 35.8277 51.0467C35.8277 53.1459 34.1253 54.8483 32.0261 54.8483C29.9269 54.8483 28.2245 53.1459 28.2245 51.0467ZM24.4229 51.0467C24.4229 55.2323 27.8277 58.6499 32.0261 58.6499C36.2117 58.6499 39.6293 55.2451 39.6293 51.0467C39.6293 46.8483 36.2245 43.4435 32.0261 43.4435C27.8405 43.4435 24.4229 46.8611 24.4229 51.0467ZM23.7445 12.3779C25.9077 10.2659 28.5957 9.24192 31.9749 9.24192C35.3413 9.24192 38.0421 10.1891 40.2309 12.1475C42.3557 14.0419 43.3925 16.3331 43.3925 19.1747C43.3925 20.5059 43.1237 21.7091 42.5477 22.8355C41.9461 24.0387 41.2293 25.0499 40.4101 25.8691C39.4629 26.8163 38.5029 27.7251 37.5557 28.5699C36.4677 29.5555 35.5333 30.6307 34.7525 31.7955C33.8949 33.0883 33.4341 34.4451 33.3957 35.8403H28.8645V34.9955C28.8645 33.6387 29.1205 32.3843 29.6453 31.2963C30.1829 30.1571 30.8485 29.2099 31.6037 28.4803C32.4997 27.6355 33.4085 26.8291 34.3045 26.1123C34.7141 25.7923 35.1109 25.5363 35.4821 25.2931C35.9045 25.0243 36.3397 24.7299 36.7877 24.3715C37.9397 23.3987 38.6181 22.1315 38.7973 20.5827C39.0277 18.3683 38.5029 16.5379 37.2229 15.1427C35.9429 13.7603 34.1893 13.0563 31.9749 13.0563C29.7733 13.0563 27.9557 14.0419 26.7141 15.9107C26.0997 16.8323 25.6645 17.8563 25.3957 18.9571H20.6597C20.9797 16.2435 21.9909 14.0931 23.7445 12.3779ZM21.1077 9.65153C18.6629 12.0323 17.2293 15.1171 16.8581 18.8163C16.7557 19.8147 17.0885 20.8259 17.7669 21.5683C18.4453 22.3235 19.4309 22.7587 20.4421 22.7587H25.4085C25.5237 22.7587 25.6389 22.7715 25.7541 22.7715C25.9077 22.7843 26.0613 22.7843 26.2021 22.7843C28.4677 22.7843 28.8901 21.0435 28.9669 20.5059C29.1077 19.5587 29.4149 18.7395 29.8885 18.0099C30.4261 17.2035 31.0533 16.8579 31.9749 16.8579C33.0885 16.8579 33.8949 17.1395 34.4197 17.7155C34.6117 17.9203 35.2005 18.5603 35.0213 20.1731C34.9573 20.7363 34.7525 21.1331 34.3557 21.4659C34.0997 21.6835 33.7797 21.8883 33.4213 22.1187C32.9989 22.4003 32.5125 22.7075 31.9493 23.1427C30.9509 23.9363 29.9525 24.8067 28.9797 25.7411C27.8789 26.7907 26.9445 28.1219 26.2149 29.6707C25.4597 31.2707 25.0757 33.0627 25.0757 34.9955V36.0579C25.0757 38.0419 26.6885 39.6419 28.6725 39.6419H33.6133C35.5973 39.6419 37.2101 38.0291 37.2101 36.0579C37.2101 35.3411 37.4405 34.6499 37.9269 33.9203C38.5285 33.0115 39.2709 32.1667 40.1157 31.3987C41.1013 30.5027 42.1125 29.5555 43.0981 28.5699C44.2117 27.4563 45.1717 26.0995 45.9525 24.5379C46.7717 22.8867 47.1941 21.0819 47.1941 19.1747C47.1941 15.2451 45.6965 11.9299 42.7525 9.30592C39.8725 6.74592 36.2501 5.45312 31.9749 5.45312C27.6357 5.45312 23.9749 6.86113 21.1077 9.65153Z" fill="#333333"/>
</svg>
