<svg width="16" height="15" viewBox="0 0 16 15" fill="none" xmlns="http://www.w3.org/2000/svg">
<path d="M10.8732 4.58528C10.7022 4.41428 10.4232 4.41428 10.2522 4.58528L7.9392 6.89828L5.6262 4.58528C5.4552 4.41428 5.1762 4.41428 5.0052 4.58528C4.8342 4.75628 4.8342 5.03528 5.0052 5.20628L7.3182 7.51928L5.0052 9.83228C4.8342 10.0033 4.8342 10.2823 5.0052 10.4533C5.1762 10.6243 5.4552 10.6243 5.6262 10.4533L7.9392 8.14028L10.2522 10.4533C10.4232 10.6243 10.6992 10.6243 10.8732 10.4533C11.0442 10.2823 11.0442 10.0033 10.8732 9.83228L8.5602 7.51928L10.8732 5.20628C11.0442 5.03228 11.0442 4.75628 10.8732 4.58528Z" fill="#004571"/>
<path d="M7.94234 1.375C4.54934 1.375 1.79834 4.126 1.79834 7.519C1.79834 10.912 4.54934 13.663 7.94234 13.663C11.3353 13.663 14.0863 10.912 14.0863 7.519C14.0833 4.123 11.3353 1.375 7.94234 1.375ZM7.94234 12.781C5.03534 12.781 2.67734 10.423 2.67734 7.516C2.67734 4.609 5.03534 2.251 7.94234 2.251C10.8493 2.251 13.2073 4.609 13.2073 7.516C13.2073 10.423 10.8493 12.781 7.94234 12.781Z" fill="#004571"/>
</svg>
