<svg width="80" height="79" viewBox="0 0 80 79" fill="none" xmlns="http://www.w3.org/2000/svg">
<path fill-rule="evenodd" clip-rule="evenodd" d="M70.8505 46.5783H63.6169V53.5935C63.6169 54.5415 63.0261 55.3947 62.1479 55.7581C61.8445 55.8687 61.5411 55.9319 61.2377 55.9319C60.6149 55.9319 60.0081 55.6791 59.561 55.2367L50.8265 46.5625H49.3574V54.9681C49.3574 58.0965 46.7866 60.6403 43.6249 60.6403H29.0141L20.2796 69.2987C19.8324 69.7569 19.2257 69.9939 18.6029 69.9939C18.2995 69.9939 17.9801 69.9465 17.6927 69.8201C16.7985 69.4567 16.2237 68.6035 16.2237 67.6555V60.6403H8.99011C5.12584 60.6403 1.99609 57.5435 1.99609 53.7199V30.0041C1.99609 26.1805 5.14181 23.0837 8.99011 23.0837H30.4672V15.9263C30.4672 12.1027 33.6129 9.00586 37.4612 9.00586H70.8505C74.7148 9.00586 77.8445 12.1185 77.8445 15.9263V39.6579C77.8445 43.4815 74.6988 46.5783 70.8505 46.5783ZM8.99011 27.7605C7.7446 27.7605 6.73862 28.7559 6.73862 29.9883V53.7041C6.73862 54.9365 7.76057 55.9319 8.99011 55.9477H18.5869C19.8963 55.9477 20.9502 56.9905 20.9502 58.2861V61.9675L26.3315 56.6271C26.7786 56.1847 27.3853 55.9319 28.0081 55.9319H43.6089C44.1518 55.9319 44.5989 55.4895 44.5989 54.9523V29.9883C44.5989 28.7559 43.593 27.7605 42.3474 27.7605H8.99011ZM73.07 15.9263C73.07 14.6939 72.064 13.6985 70.8185 13.6985H37.4612C36.2157 13.6985 35.2097 14.6939 35.2097 15.9263V23.0679H42.3474C46.2117 23.0679 49.3415 26.1805 49.3415 29.9883V41.8541H51.8005C52.4233 41.8541 53.0301 42.1069 53.4772 42.5493L58.8584 47.8897V44.2083C58.8584 42.9127 59.9123 41.8699 61.2217 41.8699H70.8185C72.064 41.8699 73.07 40.8745 73.07 39.6421V15.9263Z" fill="#004571"/>
<path d="M63.8714 0C55.057 0 47.9033 7.0784 47.9033 15.8C47.9033 24.5216 55.057 31.6 63.8714 31.6C72.6858 31.6 79.8395 24.5216 79.8395 15.8C79.8395 7.0784 72.6858 0 63.8714 0Z" fill="#A2AD00"/>
<mask id="mask0_1462_25961" style="mask-type:alpha" maskUnits="userSpaceOnUse" x="53" y="6" width="22" height="20">
<path fill-rule="evenodd" clip-rule="evenodd" d="M53.4097 6.53809H74.3334V25.0622H53.4097V6.53809Z" fill="white"/>
</mask>
<g mask="url(#mask0_1462_25961)">
<path fill-rule="evenodd" clip-rule="evenodd" d="M72.4413 7.86825C72.2394 7.74471 72.024 7.66904 71.8063 7.64125C71.1848 7.56018 70.5483 7.85203 70.2045 8.43961L61.8295 20.391L58.7341 14.8388C58.3731 13.9918 57.4101 13.6081 56.5844 13.9787C55.7603 14.3524 55.388 15.3446 55.7505 16.19L59.0096 22.1314C59.0178 22.1507 59.0276 22.1684 59.0351 22.187C59.4915 23.156 60.3907 23.8138 61.4175 23.9466C61.4918 23.9566 61.5653 23.9644 61.6396 23.9682C62.7572 24.03 63.8201 23.4594 64.4123 22.4819C64.4175 22.4734 64.422 22.4649 64.4258 22.4618L72.999 10.1714C73.4621 9.37617 73.2129 8.34541 72.4413 7.86825Z" fill="white"/>
</g>
</svg>
