<svg width="80" height="79" viewBox="0 0 80 79" fill="none" xmlns="http://www.w3.org/2000/svg">
<path fill-rule="evenodd" clip-rule="evenodd" d="M70.8505 46.5783H63.6169V53.5935C63.6169 54.5415 63.0261 55.3947 62.1479 55.7581C61.8445 55.8687 61.5411 55.9319 61.2377 55.9319C60.6149 55.9319 60.0081 55.6791 59.561 55.2367L50.8265 46.5625H49.3574V54.9681C49.3574 58.0965 46.7866 60.6403 43.6249 60.6403H29.0141L20.2796 69.2987C19.8324 69.7569 19.2257 69.9939 18.6029 69.9939C18.2995 69.9939 17.9801 69.9465 17.6927 69.8201C16.7985 69.4567 16.2237 68.6035 16.2237 67.6555V60.6403H8.99011C5.12584 60.6403 1.99609 57.5435 1.99609 53.7199V30.0041C1.99609 26.1805 5.14181 23.0837 8.99011 23.0837H30.4672V15.9263C30.4672 12.1027 33.6129 9.00586 37.4612 9.00586H70.8505C74.7148 9.00586 77.8445 12.1185 77.8445 15.9263V39.6579C77.8445 43.4815 74.6988 46.5783 70.8505 46.5783ZM8.99011 27.7605C7.7446 27.7605 6.73862 28.7559 6.73862 29.9883V53.7041C6.73862 54.9365 7.76057 55.9319 8.99011 55.9477H18.5869C19.8963 55.9477 20.9502 56.9905 20.9502 58.2861V61.9675L26.3315 56.6271C26.7786 56.1847 27.3853 55.9319 28.0081 55.9319H43.6089C44.1518 55.9319 44.5989 55.4895 44.5989 54.9523V29.9883C44.5989 28.7559 43.593 27.7605 42.3474 27.7605H8.99011ZM73.07 15.9263C73.07 14.6939 72.064 13.6985 70.8185 13.6985H37.4612C36.2157 13.6985 35.2097 14.6939 35.2097 15.9263V23.0679H42.3474C46.2117 23.0679 49.3415 26.1805 49.3415 29.9883V41.8541H51.8005C52.4233 41.8541 53.0301 42.1069 53.4772 42.5493L58.8584 47.8897V44.2083C58.8584 42.9127 59.9123 41.8699 61.2217 41.8699H70.8185C72.064 41.8699 73.07 40.8745 73.07 39.6421V15.9263Z" fill="#004571"/>
<path d="M63.8714 0C55.057 0 47.9033 7.0784 47.9033 15.8C47.9033 24.5216 55.057 31.6 63.8714 31.6C72.6858 31.6 79.8395 24.5216 79.8395 15.8C79.8395 7.0784 72.6858 0 63.8714 0Z" fill="#D3222A"/>
<path fill-rule="evenodd" clip-rule="evenodd" d="M70.4529 24.0595L63.8712 17.5471L57.2907 24.0583C56.8037 24.5402 56.0131 24.5405 55.5261 24.0587C55.0384 23.5761 55.0388 22.7938 55.5258 22.312L62.1063 15.8007L55.5258 9.28947C55.0388 8.80761 55.0384 8.02538 55.5258 7.54313C56.0131 7.06089 56.8037 7.06128 57.2907 7.54313L63.8712 14.0544L70.4529 7.54197C70.9395 7.0605 71.7296 7.0605 72.2174 7.54313C72.7044 8.02499 72.7044 8.80683 72.2178 9.2883L65.6361 15.8007L72.2178 22.3131C72.7044 22.7946 72.7044 23.5765 72.217 24.0587C71.7296 24.5409 70.9395 24.5409 70.4529 24.0595Z" fill="white"/>
</svg>
