<svg width="42" height="50" viewBox="0 0 42 50" fill="none" xmlns="http://www.w3.org/2000/svg">
<mask id="mask0" mask-type="alpha" maskUnits="userSpaceOnUse" x="0" y="0" width="42" height="50">
<path fill-rule="evenodd" clip-rule="evenodd" d="M0 0H42V50H0V0Z" fill="white"/>
</mask>
<g mask="url(#mask0)">
<path fill-rule="evenodd" clip-rule="evenodd" d="M37.5824 30.8609V36.3197V42.7363C37.5824 44.2363 36.3983 45.4568 34.9417 45.4568H28.0218H20.9969H7.04538C5.58977 45.4568 4.40371 44.2363 4.40371 42.7363V36.6648V30.5377V28.0205C4.40371 26.5214 5.58977 25.3019 7.04538 25.3019H20.6494H27.6733H34.9417C36.3983 25.3019 37.5824 26.5214 37.5824 28.0205V30.8609ZM21.0215 4.54672C27.3099 4.61413 32.4055 9.8955 32.4055 16.3844V20.7567H27.6728H20.6489H9.64035V16.3844C9.64035 9.8955 14.736 4.61413 21.0215 4.54672ZM36.8235 21.0273V16.3864C36.8235 7.51804 29.9421 0.289499 21.3875 0.0247859C21.3076 0.0168544 21.2296 0 21.1478 0C21.1073 0 21.0688 0.0059486 21.0284 0.00694004C20.9889 0.0059486 20.9504 0 20.91 0C20.8272 0 20.7502 0.0168544 20.6703 0.0247859C12.1176 0.289499 5.23616 7.51804 5.23616 16.3864V21.0115C2.22674 21.8393 0 24.6639 0 28.0209V30.5381V36.6652V42.7368C0 46.7412 3.16345 50 7.05183 50H21.0034H28.0282H34.9482C38.8375 50 42 46.7412 42 42.7368V36.3202V30.8614V28.0209C42 24.6857 39.8031 21.876 36.8235 21.0273ZM25.0231 32.1844C25.0231 33.6695 24.2568 34.9614 23.1169 35.6901L23.1246 39.7322C23.1246 40.9873 22.1398 42.0065 20.922 42.0085H20.9191C19.7032 42.0085 18.7154 40.9933 18.7135 39.7401L18.7077 35.5701C17.6699 34.8236 16.9864 33.5882 16.9864 32.1844C16.9864 29.8991 18.7876 28.0461 21.0048 28.0461C23.2228 28.0461 25.0231 29.8991 25.0231 32.1844Z" fill="#D3222A"/>
</g>
</svg>
