<?xml version="1.0" encoding="UTF-8"?>
<svg width="22px" height="22px" viewBox="0 0 22 22" version="1.1" xmlns="http://www.w3.org/2000/svg" xmlns:xlink="http://www.w3.org/1999/xlink">
    <!-- Generator: Sketch 57.1 (83088) - https://sketch.com -->
    <title>Fill 1</title>
    <desc>Created with Sketch.</desc>
    <g id="Mis-Mensajes" stroke="none" stroke-width="1" fill="none" fill-rule="evenodd">
        <g id="1-01_Mensajería_listado" transform="translate(-1131.000000, -282.000000)" fill="#FFFFFF">
            <g id="Group-10" transform="translate(894.000000, 245.000000)">
                <g id="Group-3" transform="translate(224.000000, 24.000000)">
                    <g id="Group">
                        <path d="M13,21.7992293 C13,26.6512524 16.9468208,30.5980732 21.7984586,30.5980732 C23.5973025,30.5980732 25.2701349,30.055106 26.6651252,29.1260116 C26.7132948,29.1907514 26.7645472,29.2539499 26.8238921,29.3132948 L31.9961464,34.4840077 C32.3387283,34.828131 32.7903661,34.9992293 33.2393064,34.9992293 C33.6905588,34.9992293 34.1402697,34.828131 34.4855491,34.4840077 C35.1714836,33.7969171 35.1714836,32.6836224 34.4855491,31.9957611 L29.3129094,26.8238921 C29.2535645,26.7649326 29.1911368,26.7129094 29.1263969,26.6643545 C30.0558767,25.2701349 30.5984586,23.5965318 30.5984586,21.7992293 C30.5984586,16.9472062 26.6516378,13 21.7984586,13 C16.9468208,13 13,16.9472062 13,21.7992293 M14.7591522,21.7992293 C14.7591522,17.9186898 17.9171484,14.7599229 21.7984586,14.7599229 C25.6813102,14.7599229 28.8381503,17.9186898 28.8381503,21.7992293 C28.8381503,25.6813102 25.6813102,28.8385356 21.7984586,28.8385356 C17.9171484,28.8385356 14.7591522,25.6813102 14.7591522,21.7992293 M32.9283237,33.5518304 L27.9618497,28.5845857 C27.8535645,28.4763006 27.8138728,28.3260116 27.8423892,28.1853565 C27.9603083,28.0747592 28.0739884,27.9595376 28.1845857,27.8423892 C28.3260116,27.8146435 28.4766859,27.8535645 28.5845857,27.9614644 L33.550289,32.9294798 C33.7229287,33.100578 33.7229287,33.3791908 33.550289,33.5518304 C33.465896,33.6373796 33.3526012,33.6793834 33.2393064,33.6793834 C33.1271676,33.6793834 33.0146435,33.6373796 32.9283237,33.5518304" id="Fill-1"></path>
                    </g>
                </g>
            </g>
        </g>
    </g>
</svg>