<svg width="24" height="28" viewBox="0 0 24 28" fill="none" xmlns="http://www.w3.org/2000/svg">
<mask id="mask0" mask-type="alpha" maskUnits="userSpaceOnUse" x="0" y="0" width="24" height="28">
<path fill-rule="evenodd" clip-rule="evenodd" d="M0 0H24V28H0V0Z" fill="white"/>
</mask>
<g mask="url(#mask0)">
<path fill-rule="evenodd" clip-rule="evenodd" d="M21.4763 17.2822V20.3392V23.9324C21.4763 24.7725 20.7996 25.4559 19.9673 25.4559H16.013H11.9988H4.02652C3.19474 25.4559 2.51699 24.7725 2.51699 23.9324V20.5324V17.1012V15.6916C2.51699 14.8521 3.19474 14.1692 4.02652 14.1692H11.8002H15.8139H19.9673C20.7996 14.1692 21.4763 14.8521 21.4763 15.6916V17.2822ZM12.013 2.54637C15.6064 2.58412 18.5181 5.54169 18.5181 9.17549V11.6239H15.8138H11.8001H5.50949V9.17549C5.50949 5.54169 8.42127 2.58412 12.013 2.54637ZM21.042 11.7753V9.1764C21.042 4.2101 17.1098 0.162119 12.2214 0.0138801C12.1758 0.00943845 12.1312 0 12.0844 0C12.0613 0 12.0393 0.00333122 12.0162 0.00388642C11.9937 0.00333122 11.9717 0 11.9486 0C11.9013 0 11.8572 0.00943845 11.8116 0.0138801C6.92434 0.162119 2.99209 4.2101 2.99209 9.1764V11.7664C1.27242 12.23 0 13.8118 0 15.6917V17.1014V20.5325V23.9326C0 26.175 1.80769 28 4.02961 28H12.0019H16.0161H19.9704C22.1929 28 24 26.175 24 23.9326V20.3393V17.2824V15.6917C24 13.824 22.7446 12.2506 21.042 11.7753ZM14.2985 18.0231C14.2985 18.8548 13.8606 19.5782 13.2093 19.9863L13.2137 22.2498C13.2137 22.9527 12.6509 23.5235 11.955 23.5246H11.9534C11.2586 23.5246 10.6942 22.956 10.6931 22.2543L10.6898 19.9191C10.0967 19.501 9.70615 18.8092 9.70615 18.0231C9.70615 16.7433 10.7354 15.7057 12.0023 15.7057C13.2698 15.7057 14.2985 16.7433 14.2985 18.0231Z" fill="#D3222A"/>
</g>
</svg>
