<?xml version="1.0" encoding="UTF-8"?>
<svg width="32px" height="32px" viewBox="0 0 32 32" version="1.1" xmlns="http://www.w3.org/2000/svg" xmlns:xlink="http://www.w3.org/1999/xlink">
    <!-- Generator: Sketch 57.1 (83088) - https://sketch.com -->
    <title>Group</title>
    <desc>Created with Sketch.</desc>
    <g id="Provisión-de-servicio-" stroke="none" stroke-width="1" fill="none" fill-rule="evenodd">
        <g id="1-03_UFD_Mis-suministros" transform="translate(-1266.000000, -901.000000)">
            <g id="Group" transform="translate(1267.000000, 902.000000)">
                <circle id="Oval" stroke="#1674D1" cx="15" cy="15" r="15"></circle>
                <path d="M15.5,7 C15.7761424,7 16,7.22385763 16,7.5 L16,22.5 C16,22.7761424 15.7761424,23 15.5,23 C15.2238576,23 15,22.7761424 15,22.5 L15,7.5 C15,7.22385763 15.2238576,7 15.5,7 Z" id="Rectangle" fill="#1674D1"></path>
                <path d="M15.5,7 C15.7761424,7 16,7.22385763 16,7.5 L16,22.5 C16,22.7761424 15.7761424,23 15.5,23 C15.2238576,23 15,22.7761424 15,22.5 L15,7.5 C15,7.22385763 15.2238576,7 15.5,7 Z" id="Rectangle" fill="#1674D1" transform="translate(15.500000, 15.000000) rotate(-90.000000) translate(-15.500000, -15.000000) "></path>
            </g>
        </g>
    </g>
</svg>