<?xml version="1.0" encoding="UTF-8"?>
<svg width="28px" height="30px" viewBox="0 0 28 30" version="1.1" xmlns="http://www.w3.org/2000/svg" xmlns:xlink="http://www.w3.org/1999/xlink">
    <!-- Generator: Sketch 57.1 (83088) - https://sketch.com -->
    <title>Group 3</title>
    <desc>Created with Sketch.</desc>
    <g id="Symbols" stroke="none" stroke-width="1" fill="none" fill-rule="evenodd">
        <g id="ico-datos-/-documentos" transform="translate(-1.000000, 0.000000)" fill="#E57200">
            <g id="Group-3" transform="translate(1.000000, 0.000000)">
                <path d="M13.6052813,13.9161562 C13.6052813,14.4950625 13.137,14.9656875 12.5571563,14.9656875 L4.6741875,14.9656875 C4.0966875,14.9656875 3.625125,14.4950625 3.625125,13.9161562 C3.625125,13.3381875 4.0966875,12.8680312 4.6741875,12.8680312 L12.5571563,12.8680312 C13.137,12.8680312 13.6052813,13.3381875 13.6052813,13.9161562 M13.6052813,9.47146875 C13.6052813,10.0513125 13.137,10.521 12.5571563,10.521 L4.6741875,10.521 C4.0966875,10.521 3.625125,10.0513125 3.625125,9.47146875 C3.625125,8.89396875 4.0966875,8.4238125 4.6741875,8.4238125 L12.5571563,8.4238125 C13.137,8.4238125 13.6052813,8.89396875 13.6052813,9.47146875 M13.6052813,5.02771875 C13.6052813,5.606625 13.137,6.07725 12.5571563,6.07725 L4.6741875,6.07725 C4.0966875,6.07725 3.625125,5.606625 3.625125,5.02771875 C3.625125,4.44975 4.0966875,3.979125 4.6741875,3.979125 L12.5571563,3.979125 C13.137,3.979125 13.6052813,4.44975 13.6052813,5.02771875 M18.2510625,27.8281875 L3.15778125,27.8281875 C2.597625,27.8281875 2.14153125,27.3730312 2.14153125,26.8138125 L2.14153125,3.15646875 C2.14153125,2.59771875 2.597625,2.14209375 3.15778125,2.14209375 L18.2510625,2.14209375 C18.8112188,2.14209375 19.266375,2.59771875 19.266375,3.15646875 L19.266375,17.0305312 C16.776375,17.5020937 14.8915313,19.6869375 14.8915313,22.3142812 C14.8915313,24.8361562 16.62825,26.9464687 18.9691875,27.5295937 C18.7859062,27.7142812 18.5318438,27.8281875 18.2510625,27.8281875 M23.5010625,22.3142812 C23.5010625,24.0974062 22.0559062,25.5430312 20.2727813,25.5430312 C18.490125,25.5430312 17.0440312,24.0974062 17.0440312,22.3142812 C17.0440312,20.5311563 18.490125,19.0855312 20.2727813,19.0855312 C22.0559062,19.0855312 23.5010625,20.5311563 23.5010625,22.3142812 M27.4029375,28.0686562 L24.7015313,25.36725 C25.3005938,24.4995938 25.6535625,23.4486562 25.6535625,22.3142812 C25.6535625,19.7319375 23.8334063,17.576625 21.4071563,17.055375 L21.4071563,3.15646875 C21.4071563,1.416 19.9924688,-9.375e-05 18.2510625,-9.375e-05 L3.15778125,-9.375e-05 C1.416375,-9.375e-05 0.00028125,1.416 0.00028125,3.15646875 L0.00028125,26.8138125 C0.00028125,28.5542813 1.416375,29.9708438 3.15778125,29.9708438 L18.2510625,29.9708438 C19.7229375,29.9708438 20.957625,28.9574062 21.3059063,27.5938125 C21.9724688,27.4639687 22.5930938,27.2089688 23.147625,26.8574062 L25.8804375,29.5906875 C26.301375,30.0106875 26.982,30.0106875 27.4029375,29.5902187 C27.822,29.1702187 27.8229375,28.4886562 27.4029375,28.0686562" id="Fill-1"></path>
            </g>
        </g>
    </g>
</svg>