<?xml version="1.0" encoding="UTF-8"?>
<svg width="23px" height="23px" viewBox="0 0 23 23" version="1.1" xmlns="http://www.w3.org/2000/svg" xmlns:xlink="http://www.w3.org/1999/xlink">
    <!-- Generator: Sketch 57.1 (83088) - https://sketch.com -->
    <title>Group</title>
    <desc>Created with Sketch.</desc>
    <g id="Symbols" stroke="none" stroke-width="1" fill="none" fill-rule="evenodd">
        <g id="ico_revision">
            <g id="Group">
                <g id="Group-19" fill="#E57200">
                    <g id="Group-16-Copy-3">
                        <path d="M11.5,0 C5.152,0 0,5.152 0,11.5 C0,17.848 5.152,23 11.5,23 C17.848,23 23,17.848 23,11.5 C23,5.152 17.848,0 11.5,0 Z M8.71428571,17 L3,11.2418426 L4.61142857,9.61804223 L8.71428571,13.7408829 L17.3885714,5 L19,6.6353167 L8.71428571,17 Z" id="Shape" fill-rule="nonzero"></path>
                        <circle id="Oval" cx="11.5" cy="11.5" r="10.5"></circle>
                    </g>
                </g>
                <path d="M11,4 C11.5522847,4 12,4.44771525 12,5 L12,13 C12,13.5522847 11.5522847,14 11,14 C10.4477153,14 10,13.5522847 10,13 L10,5 C10,4.44771525 10.4477153,4 11,4 Z" id="Rectangle" fill="#FFFFFF"></path>
                <path d="M14,9 C14.5522847,9 15,9.44771525 15,10 L15,16 C15,16.5522847 14.5522847,17 14,17 C13.4477153,17 13,16.5522847 13,16 L13,10 C13,9.44771525 13.4477153,9 14,9 Z" id="Rectangle" fill="#FFFFFF" transform="translate(14.000000, 13.000000) rotate(-270.000000) translate(-14.000000, -13.000000) "></path>
            </g>
        </g>
    </g>
</svg>