<?xml version="1.0" encoding="UTF-8"?>
<svg width="10px" height="14px" viewBox="0 0 10 14" version="1.1" xmlns="http://www.w3.org/2000/svg" xmlns:xlink="http://www.w3.org/1999/xlink">
    <!-- Generator: Sketch 57.1 (83088) - https://sketch.com -->
    <title>Fill 1</title>
    <desc>Created with Sketch.</desc>
    <g id="Symbols" stroke="none" stroke-width="1" fill="none" fill-rule="evenodd">
        <g id="ico_subirdocu" transform="translate(-7.000000, -5.000000)" fill="#1674D1">
            <path d="M14.6092694,17.8419546 L14.6092694,16.7744568 L15.4640768,16.7744568 L14.6092694,17.8419546 Z M15.5224511,5 C16.2462536,5 16.835198,5.5893297 16.835198,6.31313215 L16.835198,6.31313215 L16.835198,16.3294252 C16.835198,16.4305687 16.8001349,16.5284372 16.7373295,16.6072328 L16.7373295,16.6072328 L14.9568179,18.8329687 C14.8722426,18.9383506 14.7447054,19 14.6092694,19 L14.6092694,19 L8.31216888,19 C7.58855908,19 7,18.4106703 7,17.6874458 L7,17.6874458 L7,16.7744568 C7,16.5290151 7.19901196,16.3294252 7.44483893,16.3294252 C7.69085855,16.3294252 7.8894852,16.5290151 7.8894852,16.7744568 L7.8894852,16.7744568 L7.8894852,17.6874458 C7.8894852,17.9199796 8.07905709,18.1095515 8.31216888,18.1095515 L8.31216888,18.1095515 L13.7195916,18.1095515 L13.7195916,16.3294252 C13.7195916,16.0834056 13.9186035,15.8843936 14.1640452,15.8843936 L14.1640452,15.8843936 L15.9451348,15.8843936 L15.9451348,6.31313215 C15.9451348,6.08002037 15.7555629,5.89083378 15.5224511,5.89083378 L15.5224511,5.89083378 L8.31216888,5.89083378 C8.07905709,5.89083378 7.8894852,6.08002037 7.8894852,6.31313215 L7.8894852,6.31313215 L7.8894852,8.11579903 C7.8894852,8.36201131 7.69085855,8.56121592 7.44483893,8.56121592 C7.19901196,8.56121592 7,8.36201131 7,8.11579903 L7,8.11579903 L7,6.31313215 C7,5.5893297 7.58855908,5 8.31216888,5 L8.31216888,5 Z M10.9939754,8.89059709 C11.4517222,8.89059709 11.8851945,9.09037967 12.1822675,9.43869876 C12.1863133,9.44409308 12.190937,9.44968006 12.1949827,9.455845 L14.0163371,11.8083474 C14.1668001,12.0019651 14.1313517,12.2818919 13.9367708,12.4325476 C13.7423826,12.5826253 13.4628411,12.5471769 13.3119927,12.352596 L11.4989225,10.0097263 C11.4800424,9.98853431 11.4600063,9.96869091 11.4388143,9.95000344 L11.4388143,14.56658 C11.4388143,14.8129849 11.239995,15.0116116 10.9939754,15.0116116 C10.7481485,15.0116116 10.5485585,14.8129849 10.5485585,14.56658 L10.5485585,9.95000344 C10.5277519,9.96869091 10.5075232,9.98853431 10.4888357,10.0097263 L8.67518749,12.352596 C8.52491709,12.5471769 8.24537561,12.5826253 8.05098735,12.4325476 C7.85679175,12.2818919 7.82076539,12.0019651 7.9714211,11.8083474 L9.7921975,9.455845 C9.79624324,9.44968006 9.80144491,9.44409308 9.80549065,9.43869876 C10.102371,9.09037967 10.536036,8.89059709 10.9939754,8.89059709 Z" id="Fill-1"></path>
        </g>
    </g>
</svg>