<?xml version="1.0" encoding="UTF-8"?>
<svg width="23px" height="23px" viewBox="0 0 23 23" version="1.1" xmlns="http://www.w3.org/2000/svg" xmlns:xlink="http://www.w3.org/1999/xlink">
    <!-- Generator: Sketch 57.1 (83088) - https://sketch.com -->
    <title>Group 16 Copy 2</title>
    <desc>Created with Sketch.</desc>
    <defs>
        <polygon id="path-1" points="0 3.11225172e-05 14.6718572 3.11225172e-05 14.6718572 13.2305 0 13.2305"></polygon>
    </defs>
    <g id="Symbols" stroke="none" stroke-width="1" fill="none" fill-rule="evenodd">
        <g id="Descargar_documentos-/-desktop" transform="translate(-168.000000, 7.000000)">
            <g id="Group-16-Copy-2" transform="translate(168.000000, -7.000000)">
                <g id="ico_ok">
                    <path d="M11.5,0 C5.152,0 0,5.152 0,11.5 C0,17.848 5.152,23 11.5,23 C17.848,23 23,17.848 23,11.5 C23,5.152 17.848,0 11.5,0 Z" id="Shape" fill="#A2AD00" fill-rule="nonzero"></path>
                    <g id="Group-3" stroke-width="1" fill-rule="evenodd" transform="translate(4.000000, 5.000000)">
                        <mask id="mask-2" fill="white">
                            <use xlink:href="#path-1"></use>
                        </mask>
                        <g id="Clip-2"></g>
                        <path d="M13.416774,1.17236435 C13.267807,1.08375944 13.1088719,1.02948893 12.9482755,1.00955283 C12.4897451,0.951405857 12.0201391,1.16073496 11.7665075,1.58216207 L5.58742251,10.1541335 L3.30363092,6.17189647 C3.03726241,5.56439905 2.32676177,5.28917004 1.71760301,5.55498478 C1.10955181,5.82301463 0.834876581,6.53462283 1.10235266,7.14101269 L3.50686844,11.4023551 C3.51296002,11.4161997 3.52015917,11.4289366 3.52569698,11.4422273 C3.86239564,12.1372221 4.52582492,12.6090433 5.28339691,12.7042936 C5.3382212,12.7114927 5.3924917,12.7170305 5.44731599,12.7197994 C6.27189545,12.7641019 7.05604891,12.3548579 7.49298188,11.6537716 C7.49685835,11.64768 7.50018103,11.6415884 7.50294993,11.6393733 L13.828233,2.82429217 C14.1699157,2.25389805 13.9860605,1.51460082 13.416774,1.17236435" id="Fill-1" fill="#FFFFFF" mask="url(#mask-2)"></path>
                    </g>
                </g>
            </g>
        </g>
    </g>
</svg>