<?xml version="1.0" encoding="UTF-8"?>
<svg width="17px" height="17px" viewBox="0 0 17 17" version="1.1" xmlns="http://www.w3.org/2000/svg" xmlns:xlink="http://www.w3.org/1999/xlink">
    <!-- Generator: Sketch 57.1 (83088) - https://sketch.com -->
    <title>Group 16 Copy 2</title>
    <desc>Created with Sketch.</desc>
    <g id="Symbols" stroke="none" stroke-width="1" fill="none" fill-rule="evenodd">
        <g id="Descargar_documentos-/-desktop" transform="translate(-160.000000, -114.000000)">
            <g id="Group-16-Copy-2" transform="translate(157.000000, 111.000000)">
                <g id="ico_eliminar">
                    <path d="M11.5,3 C6.808,3 3,6.808 3,11.5 C3,16.192 6.808,20 11.5,20 C16.192,20 20,16.192 20,11.5 C20,6.808 16.192,3 11.5,3 Z" id="Shape" fill-opacity="0.2" fill="#BFB8AE" fill-rule="nonzero"></path>
                    <g id="Group-3" stroke-width="1" fill-rule="evenodd" transform="translate(11.500000, 11.500000) rotate(-315.000000) translate(-11.500000, -11.500000) translate(7.000000, 7.000000)" fill="#004571">
                        <path d="M8.52459942,4.97592998 L4.97571822,4.97592998 L4.97571822,8.5241759 C4.97571822,8.78675796 4.76268794,9 4.50010588,9 C4.2371003,9 4.02407002,8.78675796 4.02407002,8.5241759 L4.02407002,4.97592998 L0.475824098,4.97592998 C0.213242041,4.97592998 0,4.7628997 0,4.50010588 C0,4.23731206 0.213242041,4.02428178 0.475824098,4.02428178 L4.02407002,4.02428178 L4.02407002,0.475400579 C4.02407002,0.213030282 4.2371003,0 4.50010588,0 C4.76268794,0 4.97571822,0.213030282 4.97571822,0.475400579 L4.97571822,4.02428178 L8.52459942,4.02428178 C8.78696972,4.02428178 9,4.23731206 9,4.50010588 C9,4.7628997 8.78696972,4.97592998 8.52459942,4.97592998" id="Fill-1"></path>
                    </g>
                </g>
            </g>
        </g>
    </g>
</svg>