<?xml version="1.0" encoding="UTF-8"?>
<svg width="23px" height="23px" viewBox="0 0 23 23" version="1.1" xmlns="http://www.w3.org/2000/svg" xmlns:xlink="http://www.w3.org/1999/xlink">
    <!-- Generator: Sketch 57.1 (83088) - https://sketch.com -->
    <title>Group</title>
    <desc>Created with Sketch.</desc>
    <g id="Symbols" stroke="none" stroke-width="1" fill="none" fill-rule="evenodd">
        <g id="ico_ko">
            <g id="Group" transform="translate(-2.000000, -2.000000)">
                <path d="M13.5,2 C7.152,2 2,7.152 2,13.5 C2,19.848 7.152,25 13.5,25 C19.848,25 25,19.848 25,13.5 C25,7.152 19.848,2 13.5,2 Z" id="Shape" fill="#D3222A" fill-rule="nonzero"></path>
                <g id="Group-3" transform="translate(13.292893, 13.292893) rotate(-315.000000) translate(-13.292893, -13.292893) translate(4.292893, 4.292893)" fill="#FFFFFF">
                    <path d="M16.8949143,9.89897885 L10.1914721,9.89897885 L10.1914721,16.6012211 C10.1914721,17.0972095 9.78908154,17.5 9.29309321,17.5 C8.7963049,17.5 8.39391437,17.0972095 8.39391437,16.6012211 L8.39391437,9.89897885 L1.69167207,9.89897885 C1.19568374,9.89897885 0.792893219,9.49658832 0.792893219,9.0002 C0.792893219,8.50381168 1.19568374,8.10142114 1.69167207,8.10142114 L8.39391437,8.10142114 L8.39391437,1.39797887 C8.39391437,0.902390532 8.7963049,0.5 9.29309321,0.5 C9.78908154,0.5 10.1914721,0.902390532 10.1914721,1.39797887 L10.1914721,8.10142114 L16.8949143,8.10142114 C17.3905027,8.10142114 17.7928932,8.50381168 17.7928932,9.0002 C17.7928932,9.49658832 17.3905027,9.89897885 16.8949143,9.89897885" id="Fill-1"></path>
                </g>
            </g>
        </g>
    </g>
</svg>