<svg width="119" height="18" viewBox="0 0 119 18" fill="none" xmlns="http://www.w3.org/2000/svg">
<path d="M2.4146 8.4426C2.4146 8.4426 2.3432 8.84073 2.01219 8.89848C1.68118 8.95622 1.47674 8.57936 1.47674 8.57936C1.14573 6.65859 1.7688 4.61626 3.34921 3.13618C5.82529 0.817276 9.76819 0.695709 12.3903 2.77147L12.2637 1.90834C12.2443 1.7655 12.2962 1.62874 12.4 1.53452C12.4714 1.46766 12.5623 1.42207 12.6694 1.40992C12.929 1.37649 13.1659 1.54668 13.2016 1.78678L13.4709 3.60725C13.5066 3.85342 13.4255 4.09048 13.2503 4.2546C13.075 4.41871 12.8219 4.49469 12.559 4.46126L10.6152 4.20901C10.3556 4.17558 10.1771 3.95068 10.2128 3.71058C10.2485 3.46745 10.4886 3.29725 10.7482 3.33068L11.8094 3.46745C9.55725 1.66521 6.1563 1.76246 4.02421 3.76225C2.66123 5.03567 2.12578 6.79232 2.4146 8.4426ZM14.6944 6.60693C14.6944 6.60693 14.5548 6.25742 14.1914 6.26958C13.8052 6.28173 13.7598 6.74369 13.7598 6.74369C14.0194 8.3727 13.4807 10.0959 12.1437 11.3481C10.0116 13.3448 6.60738 13.4451 4.35522 11.6429L5.41639 11.7796C5.67601 11.8131 5.91291 11.6429 5.95185 11.3997C5.98755 11.1566 5.80582 10.9347 5.54945 10.9013L3.60558 10.649C3.34272 10.6156 3.0896 10.6916 2.91436 10.8557C2.73912 11.0198 2.65799 11.2569 2.69368 11.5031L2.96303 13.3235C2.99873 13.5667 3.23887 13.7338 3.49524 13.7004C3.60233 13.6852 3.6932 13.6396 3.76459 13.5758C3.86519 13.4816 3.92036 13.3448 3.90089 13.202L3.77433 12.3388C6.39644 14.4146 10.3426 14.293 12.8154 11.9741C14.3731 10.5184 14.9994 8.50946 14.6944 6.60693Z" fill="#0066CC"/>
<path d="M24.282 12H23.036V2.718H23.932C24.0067 2.718 24.0627 2.72733 24.1 2.746C24.1373 2.75533 24.184 2.79267 24.24 2.858L28.244 7.87C28.4027 8.066 28.5613 8.26667 28.72 8.472C28.888 8.67733 29.0467 8.878 29.196 9.074C29.3453 9.27 29.4807 9.452 29.602 9.62C29.7327 9.77867 29.84 9.914 29.924 10.026V2.718H31.17V12H30.288C30.2133 12 30.1573 11.9953 30.12 11.986C30.0827 11.9673 30.036 11.9253 29.98 11.86L25.976 6.848C25.8173 6.652 25.654 6.45133 25.486 6.246C25.3273 6.03133 25.1687 5.826 25.01 5.63C24.8607 5.434 24.7207 5.252 24.59 5.084C24.4593 4.916 24.3567 4.78067 24.282 4.678V12ZM38.0652 12L37.8552 11.412L37.4212 11.622C37.1506 11.7527 36.8659 11.8693 36.5672 11.972C36.2686 12.0653 35.9699 12.112 35.6712 12.112C35.2606 12.112 34.8872 12.0513 34.5512 11.93C34.2152 11.7993 33.9306 11.622 33.6972 11.398C33.4826 11.1833 33.3146 10.9267 33.1932 10.628C33.0812 10.3293 33.0252 9.94667 33.0252 9.48V5.168H34.2572V9.424C34.2572 9.74133 34.2852 9.984 34.3412 10.152C34.3972 10.32 34.4859 10.4647 34.6072 10.586C34.7379 10.7167 34.9152 10.81 35.1392 10.866C35.3632 10.922 35.6106 10.95 35.8812 10.95H35.8952C36.1939 10.95 36.4972 10.9127 36.8052 10.838C37.1226 10.7633 37.3886 10.6747 37.6032 10.572C37.6592 10.544 37.6919 10.516 37.7012 10.488C37.7199 10.4507 37.7292 10.404 37.7292 10.348V5.168H38.9612V12H38.0652ZM46.7565 10.978C46.3272 11.314 45.8512 11.5893 45.3285 11.804C44.8152 12.0093 44.3065 12.112 43.8025 12.112C43.2798 12.112 42.8085 12.0233 42.3885 11.846C41.9778 11.6687 41.6232 11.4213 41.3245 11.104C41.0258 10.7867 40.7972 10.4133 40.6385 9.984C40.4798 9.55467 40.4005 9.088 40.4005 8.584C40.4005 8.06133 40.4845 7.58533 40.6525 7.156C40.8205 6.71733 41.0492 6.344 41.3385 6.036C41.6372 5.728 41.9872 5.49 42.3885 5.322C42.7898 5.14467 43.2238 5.056 43.6905 5.056C44.1572 5.056 44.5818 5.14 44.9645 5.308C45.3565 5.476 45.6925 5.70933 45.9725 6.008C46.2525 6.29733 46.4718 6.638 46.6305 7.03C46.7892 7.422 46.8685 7.842 46.8685 8.29C46.8685 8.52333 46.8405 8.68667 46.7845 8.78C46.7285 8.864 46.6445 8.906 46.5325 8.906H41.6745C41.7212 9.522 41.9218 10.026 42.2765 10.418C42.6405 10.8007 43.1818 10.992 43.9005 10.992C44.1712 10.992 44.4558 10.9547 44.7545 10.88C45.0532 10.8053 45.3332 10.7167 45.5945 10.614L46.3505 10.32L46.7565 10.978ZM45.6505 7.954C45.6132 7.422 45.4265 6.99267 45.0905 6.666C44.7545 6.33 44.2925 6.162 43.7045 6.162C43.1258 6.162 42.6545 6.32067 42.2905 6.638C41.9358 6.946 41.7305 7.38467 41.6745 7.954H45.6505ZM53.0489 5.308C53.0769 5.24267 53.1003 5.20533 53.1189 5.196C53.1469 5.17733 53.1983 5.168 53.2729 5.168H54.3649L51.4949 12H50.4169C50.3423 12 50.2909 11.9907 50.2629 11.972C50.2349 11.944 50.2116 11.9067 50.1929 11.86L47.2809 5.168H48.4149C48.4803 5.168 48.5223 5.17733 48.5409 5.196C48.5689 5.20533 48.5969 5.24267 48.6249 5.308L49.9549 8.43C50.0389 8.626 50.1229 8.836 50.2069 9.06C50.3003 9.284 50.3889 9.50333 50.4729 9.718C50.5569 9.92333 50.6316 10.124 50.6969 10.32C50.7716 10.5067 50.8323 10.6607 50.8789 10.782H50.8929C50.9676 10.5487 51.0889 10.2173 51.2569 9.788C51.4249 9.35867 51.6069 8.906 51.8029 8.43L53.0489 5.308ZM59.362 7.618C59.362 7.34733 59.3386 7.13733 59.292 6.988C59.2453 6.82933 59.1706 6.694 59.068 6.582C58.9373 6.43267 58.76 6.32533 58.536 6.26C58.3213 6.19467 58.074 6.162 57.794 6.162C57.542 6.162 57.276 6.19 56.996 6.246C56.7253 6.302 56.4546 6.38133 56.184 6.484L55.484 6.736L55.092 6.064C55.5586 5.728 56.0253 5.476 56.492 5.308C56.968 5.14 57.4393 5.056 57.906 5.056C58.3166 5.056 58.6993 5.12133 59.054 5.252C59.418 5.37333 59.726 5.56933 59.978 5.84C60.174 6.05467 60.3233 6.302 60.426 6.582C60.538 6.862 60.594 7.22133 60.594 7.66V10.992L61.588 11.174V11.804C61.448 11.8693 61.2846 11.9253 61.098 11.972C60.9113 12.0093 60.7293 12.028 60.552 12.028C60.3093 12.028 60.0946 11.972 59.908 11.86C59.7306 11.748 59.5906 11.594 59.488 11.398L59.026 11.636C58.7646 11.7667 58.48 11.8787 58.172 11.972C57.864 12.0653 57.556 12.112 57.248 12.112C56.856 12.112 56.506 12.0513 56.198 11.93C55.89 11.8087 55.624 11.6407 55.4 11.426C55.1853 11.2207 55.0173 10.9827 54.896 10.712C54.7746 10.4413 54.714 10.152 54.714 9.844C54.714 9.24667 54.9146 8.78933 55.316 8.472C55.7266 8.15467 56.3053 7.996 57.052 7.996H57.164C57.304 7.996 57.4626 8.00067 57.64 8.01C57.8266 8.01933 58.018 8.03333 58.214 8.052C58.4193 8.06133 58.62 8.08 58.816 8.108C59.012 8.12667 59.194 8.14533 59.362 8.164V7.618ZM59.362 9.102C59.362 9.05533 59.3526 9.02267 59.334 9.004C59.3153 8.976 59.2686 8.962 59.194 8.962H56.814C56.646 8.962 56.5106 8.98067 56.408 9.018C56.3053 9.046 56.2213 9.09267 56.156 9.158C56.016 9.298 55.946 9.51267 55.946 9.802C55.946 10.1567 56.072 10.4553 56.324 10.698C56.576 10.9407 56.9446 11.062 57.43 11.062C57.7286 11.062 58.0413 11.02 58.368 10.936C58.704 10.8427 58.9933 10.7307 59.236 10.6C59.32 10.5533 59.362 10.4787 59.362 10.376V9.102ZM71.8157 10.838C71.3957 11.2113 70.9244 11.5193 70.4017 11.762C69.8791 11.9953 69.3564 12.112 68.8337 12.112C68.3297 12.112 67.8724 12.0233 67.4617 11.846C67.0511 11.6687 66.7011 11.4213 66.4117 11.104C66.1317 10.7867 65.9124 10.4133 65.7537 9.984C65.5951 9.54533 65.5157 9.06933 65.5157 8.556C65.5157 8.052 65.5997 7.58533 65.7677 7.156C65.9357 6.72667 66.1644 6.358 66.4537 6.05C66.7524 5.742 67.1024 5.49933 67.5037 5.322C67.9144 5.14467 68.3531 5.056 68.8197 5.056C69.1557 5.056 69.4777 5.10733 69.7857 5.21C70.0937 5.30333 70.3737 5.44333 70.6257 5.63C70.8777 5.80733 71.0924 6.022 71.2697 6.274C71.4564 6.51667 71.5964 6.78733 71.6897 7.086L70.9057 7.492L70.4157 7.03C70.0891 6.722 69.8044 6.498 69.5617 6.358C69.3191 6.218 69.0344 6.148 68.7077 6.148C68.1477 6.148 67.6857 6.358 67.3217 6.778C66.9671 7.18867 66.7897 7.772 66.7897 8.528C66.7897 9.34933 66.9764 9.96533 67.3497 10.376C67.7324 10.7867 68.2737 10.992 68.9737 10.992C69.4404 10.992 69.9911 10.8473 70.6257 10.558L71.3957 10.208L71.8157 10.838ZM79.4138 8.584C79.4138 9.12533 79.3251 9.61533 79.1478 10.054C78.9704 10.4833 78.7278 10.852 78.4198 11.16C78.1211 11.468 77.7664 11.706 77.3558 11.874C76.9544 12.0327 76.5251 12.112 76.0678 12.112H76.0258C75.5684 12.112 75.1344 12.0327 74.7238 11.874C74.3224 11.706 73.9678 11.468 73.6598 11.16C73.3611 10.852 73.1231 10.4833 72.9458 10.054C72.7684 9.61533 72.6798 9.12533 72.6798 8.584C72.6798 8.04267 72.7684 7.55733 72.9458 7.128C73.1231 6.68933 73.3611 6.316 73.6598 6.008C73.9678 5.7 74.3224 5.46667 74.7238 5.308C75.1344 5.14 75.5684 5.056 76.0258 5.056H76.0678C76.5251 5.056 76.9544 5.14 77.3558 5.308C77.7664 5.46667 78.1211 5.7 78.4198 6.008C78.7278 6.316 78.9704 6.68933 79.1478 7.128C79.3251 7.55733 79.4138 8.04267 79.4138 8.584ZM78.1398 8.584C78.1398 7.80933 77.9624 7.22133 77.6078 6.82C77.2531 6.40933 76.7398 6.204 76.0678 6.204H76.0258C75.3538 6.204 74.8404 6.40933 74.4858 6.82C74.1311 7.22133 73.9538 7.80933 73.9538 8.584C73.9538 9.35867 74.1311 9.95133 74.4858 10.362C74.8404 10.7633 75.3538 10.964 76.0258 10.964H76.0678C76.7398 10.964 77.2531 10.7633 77.6078 10.362C77.9624 9.95133 78.1398 9.35867 78.1398 8.584ZM81.7481 5.168L81.9581 5.756L82.3921 5.546C82.6627 5.41533 82.9521 5.30333 83.2601 5.21C83.5774 5.10733 83.8854 5.056 84.1841 5.056C84.5947 5.056 84.9681 5.12133 85.3041 5.252C85.6494 5.37333 85.9387 5.546 86.1721 5.77C86.3867 5.98467 86.5501 6.24133 86.6621 6.54C86.7834 6.83867 86.8441 7.22133 86.8441 7.688V12H85.6121V7.744C85.6121 7.42667 85.5841 7.184 85.5281 7.016C85.4721 6.848 85.3834 6.70333 85.2621 6.582C85.1314 6.45133 84.9494 6.358 84.7161 6.302C84.4921 6.246 84.2447 6.218 83.9741 6.218H83.9601C83.6614 6.218 83.3487 6.25533 83.0221 6.33C82.6954 6.40467 82.4247 6.49333 82.2101 6.596C82.1541 6.624 82.1167 6.65667 82.0981 6.694C82.0887 6.722 82.0841 6.764 82.0841 6.82V12H80.8521V5.168H81.7481ZM93.154 6.288L92.51 6.204C92.2953 6.176 92.048 6.15267 91.768 6.134C91.488 6.106 91.2407 6.092 91.026 6.092C90.5313 6.092 90.144 6.148 89.864 6.26C89.584 6.372 89.444 6.57267 89.444 6.862C89.444 7.10467 89.5513 7.282 89.766 7.394C89.9807 7.506 90.27 7.618 90.634 7.73L91.6 8.024C91.964 8.136 92.272 8.248 92.524 8.36C92.776 8.472 92.9813 8.598 93.14 8.738C93.4853 9.046 93.658 9.47067 93.658 10.012C93.658 10.3387 93.5927 10.6327 93.462 10.894C93.3407 11.1553 93.1633 11.3793 92.93 11.566C92.6967 11.7433 92.4213 11.8787 92.104 11.972C91.7867 12.0653 91.4413 12.112 91.068 12.112C90.6013 12.112 90.1067 12.042 89.584 11.902C89.0613 11.762 88.59 11.5707 88.17 11.328L88.478 10.614L89.08 10.768C89.556 10.8893 89.948 10.9733 90.256 11.02C90.564 11.0573 90.8347 11.076 91.068 11.076C92.0293 11.076 92.51 10.7213 92.51 10.012C92.51 9.76933 92.426 9.58733 92.258 9.466C92.09 9.33533 91.7913 9.20467 91.362 9.074L90.354 8.766C89.6447 8.55133 89.1267 8.30867 88.8 8.038C88.4733 7.758 88.31 7.37067 88.31 6.876C88.31 6.57733 88.3753 6.316 88.506 6.092C88.646 5.868 88.828 5.68133 89.052 5.532C89.304 5.364 89.6027 5.24267 89.948 5.168C90.2933 5.09333 90.648 5.056 91.012 5.056C91.404 5.056 91.8007 5.098 92.202 5.182C92.6127 5.25667 93 5.36867 93.364 5.518L93.154 6.288ZM100.026 12L99.8162 11.412L99.3822 11.622C99.1115 11.7527 98.8268 11.8693 98.5282 11.972C98.2295 12.0653 97.9308 12.112 97.6322 12.112C97.2215 12.112 96.8482 12.0513 96.5122 11.93C96.1762 11.7993 95.8915 11.622 95.6582 11.398C95.4435 11.1833 95.2755 10.9267 95.1542 10.628C95.0422 10.3293 94.9862 9.94667 94.9862 9.48V5.168H96.2182V9.424C96.2182 9.74133 96.2462 9.984 96.3022 10.152C96.3582 10.32 96.4468 10.4647 96.5682 10.586C96.6988 10.7167 96.8762 10.81 97.1002 10.866C97.3242 10.922 97.5715 10.95 97.8422 10.95H97.8562C98.1548 10.95 98.4582 10.9127 98.7662 10.838C99.0835 10.7633 99.3495 10.6747 99.5642 10.572C99.6202 10.544 99.6528 10.516 99.6622 10.488C99.6808 10.4507 99.6902 10.404 99.6902 10.348V5.168H100.922V12H100.026ZM105.259 11.804C105.119 11.8693 104.933 11.9253 104.699 11.972C104.466 12.0187 104.256 12.042 104.069 12.042C103.677 12.042 103.369 11.93 103.145 11.706C102.921 11.482 102.809 11.1507 102.809 10.712V2.074H104.041V10.992L105.259 11.188V11.804ZM110.761 11.356C110.463 11.5707 110.113 11.7527 109.711 11.902C109.319 12.042 108.946 12.112 108.591 12.112C108.283 12.112 108.008 12.0653 107.765 11.972C107.523 11.8787 107.317 11.7527 107.149 11.594C106.785 11.2487 106.603 10.7307 106.603 10.04V6.12H105.315V5.42L106.603 5.182V3.194H107.835V5.168H110.271V6.12H107.835V9.998C107.835 10.3713 107.915 10.6373 108.073 10.796C108.232 10.9547 108.475 11.034 108.801 11.034C108.941 11.034 109.105 11.0153 109.291 10.978C109.487 10.9407 109.716 10.8847 109.977 10.81L110.467 10.684L110.761 11.356ZM116.1 7.618C116.1 7.34733 116.077 7.13733 116.03 6.988C115.984 6.82933 115.909 6.694 115.806 6.582C115.676 6.43267 115.498 6.32533 115.274 6.26C115.06 6.19467 114.812 6.162 114.532 6.162C114.28 6.162 114.014 6.19 113.734 6.246C113.464 6.302 113.193 6.38133 112.922 6.484L112.222 6.736L111.83 6.064C112.297 5.728 112.764 5.476 113.23 5.308C113.706 5.14 114.178 5.056 114.644 5.056C115.055 5.056 115.438 5.12133 115.792 5.252C116.156 5.37333 116.464 5.56933 116.716 5.84C116.912 6.05467 117.062 6.302 117.164 6.582C117.276 6.862 117.332 7.22133 117.332 7.66V10.992L118.326 11.174V11.804C118.186 11.8693 118.023 11.9253 117.836 11.972C117.65 12.0093 117.468 12.028 117.29 12.028C117.048 12.028 116.833 11.972 116.646 11.86C116.469 11.748 116.329 11.594 116.226 11.398L115.764 11.636C115.503 11.7667 115.218 11.8787 114.91 11.972C114.602 12.0653 114.294 12.112 113.986 12.112C113.594 12.112 113.244 12.0513 112.936 11.93C112.628 11.8087 112.362 11.6407 112.138 11.426C111.924 11.2207 111.756 10.9827 111.634 10.712C111.513 10.4413 111.452 10.152 111.452 9.844C111.452 9.24667 111.653 8.78933 112.054 8.472C112.465 8.15467 113.044 7.996 113.79 7.996H113.902C114.042 7.996 114.201 8.00067 114.378 8.01C114.565 8.01933 114.756 8.03333 114.952 8.052C115.158 8.06133 115.358 8.08 115.554 8.108C115.75 8.12667 115.932 8.14533 116.1 8.164V7.618ZM116.1 9.102C116.1 9.05533 116.091 9.02267 116.072 9.004C116.054 8.976 116.007 8.962 115.932 8.962H113.552C113.384 8.962 113.249 8.98067 113.146 9.018C113.044 9.046 112.96 9.09267 112.894 9.158C112.754 9.298 112.684 9.51267 112.684 9.802C112.684 10.1567 112.81 10.4553 113.062 10.698C113.314 10.9407 113.683 11.062 114.168 11.062C114.467 11.062 114.78 11.02 115.106 10.936C115.442 10.8427 115.732 10.7307 115.974 10.6C116.058 10.5533 116.1 10.4787 116.1 10.376V9.102Z" fill="#0066CC"/>
<path d="M22 13.4H118.494V14.352H22V13.4Z" fill="#0066CC"/>
</svg>
