<?xml version="1.0" encoding="UTF-8"?>
<svg width="85px" height="49px" viewBox="0 0 85 49" version="1.1" xmlns="http://www.w3.org/2000/svg" xmlns:xlink="http://www.w3.org/1999/xlink">
    <!-- Generator: Sketch 63.1 (92452) - https://sketch.com -->
    <title>NuevaConexión_a_la_red</title>
    <desc>Created with Sketch.</desc>
    <g id="NuevaConexión_a_la_red" stroke="none" stroke-width="1" fill="none" fill-rule="evenodd">
        <g id="Group-8">
            <g id="np_house_1391304_000000" fill="#004571" fill-rule="nonzero">
                <g id="Group">
                    <path d="M37.7325899,20.1661294 L37.7325899,10.9518544 L41.8218674,13.3614994 C42.0823146,13.5153086 42.3694424,13.5891341 42.6524174,13.5891341 C43.2143249,13.5891341 43.7618999,13.2999746 44.0674499,12.7811066 C44.5268249,11.9997491 44.2663776,10.9948991 43.4850149,10.5355241 L25.9878149,0.226099125 C25.4751209,-0.075366375 24.8352824,-0.075366375 24.3225674,0.226099125 L6.82326735,10.5313241 C6.04190985,10.9927519 5.78145735,11.9976491 6.24083235,12.7769066 C6.7022601,13.5603116 7.71125235,13.8187166 8.48641485,13.3593416 L12.5756924,10.9496966 L12.5756924,20.2295966 L0.787867354,27.4010966 C0.0146998541,27.8727776 -0.231367646,28.8797066 0.238244854,29.6549216 C0.547910854,30.1635154 1.08727485,30.4424216 1.64099235,30.4424216 C1.9322046,30.4424216 2.22752235,30.3665434 2.49206985,30.2024809 L6.56696235,27.7251109 L6.56696235,45.9519109 C6.56696235,47.1448459 7.53402729,48.1119109 8.72696235,48.1119109 L41.5486124,48.1119109 C42.7415474,48.1119109 43.7086124,47.1448459 43.7086124,45.9519109 L43.7086124,27.6306109 L43.7086124,27.6306109 L47.8183649,30.1243609 C48.5894849,30.5919364 49.6004774,30.3478954 50.0721899,29.5726909 C50.5438709,28.8015709 50.2957244,27.7905784 49.5225674,27.3209134 L37.7325899,20.1661294 Z M15.8589899,9.02037938 L25.1551649,3.54462938 L34.4534399,9.02037938 L34.4534399,18.1769044 L26.0844149,13.0991569 C25.5696681,12.7874381 24.8149649,12.7853854 24.3043499,13.0991569 L15.8591999,18.2363869 L15.8589899,9.02037938 Z M28.4526899,44.8332544 L21.8576399,44.8332544 L21.8576399,36.4453294 C21.865843,35.8383244 22.0606679,32.8031419 25.1552699,32.8031419 C28.2498719,32.8031419 28.4447099,35.8382719 28.4528999,36.4371394 L28.4526899,44.8332544 Z M40.4274149,44.8332544 L31.7339399,44.8332544 L31.7339399,36.4353544 C31.7339399,33.6565294 29.9825924,29.5221544 25.1551649,29.5221544 C20.3277374,29.5221544 18.5763899,33.6565294 18.5763899,36.4353544 L18.5763899,44.8311544 L9.84826485,44.8332544 L9.84826485,25.7300306 L25.1940149,16.3971056 L40.4274149,25.6418306 L40.4274149,44.8332544 Z" id="Shape"></path>
                    <path d="M26.7957899,24.0563794 C26.7957899,26.2445794 23.5145399,26.2445794 23.5145399,24.0563794 C23.5145399,21.8681794 26.7957899,21.8681794 26.7957899,24.0563794" id="Path"></path>
                </g>
            </g>
            <g id="Group-7" transform="translate(42.000000, 34.000000)">
                <path d="M29.6523462,-0.474872555 L29.6523462,2.39236704 C28.8776759,2.44574894 28.2631836,3.10154886 28.2631836,3.90607433 L28.2631836,8.52342818 C28.2631836,11.3830543 30.1849379,13.7850935 32.7734331,14.463763 L35.7529341,14.463763 C38.3413339,13.7812672 40.2631836,11.37915 40.2631836,8.52342818 L40.2631836,3.90607433 C40.2631836,3.10156839 39.6486627,2.4457587 38.874021,2.39236704 L38.874021,-0.474872555 C38.874021,-1.31750425 38.2073565,-2 37.3842705,-2 C36.5611845,-2 35.89452,-1.31750425 35.89452,-0.474872555 L35.89452,2.38094689 L32.6319425,2.38094689 L32.6319425,-0.474872555 C32.6319425,-1.31750425 31.965278,-2 31.142192,-2 C30.3190107,-2 29.6523462,-1.31750425 29.6523462,-0.474872555 Z M37.2835872,8.51923103 C37.2835872,10.223567 35.9278904,11.6114574 34.2630882,11.6114574 C32.5982861,11.6114574 31.2425893,10.223567 31.2425893,8.51923103 L31.2425893,5.42700463 L37.2834919,5.42700463 L37.2835872,8.51923103 Z" id="Fill-19" fill="#004571" transform="translate(34.263184, 6.231881) rotate(-270.000000) translate(-34.263184, -6.231881) "></path>
                <path d="M26.4810612,5.96289062 C22.9240256,4.15133245 19.8997396,3.62511065 17.4082031,4.38422524 C13.6708984,5.52289711 12.4541016,9.40961586 8.49609375,10.052194 C5.85742187,10.4805794 3.14778646,9.13422524 0.3671875,6.01313149" id="Path-5" stroke="#004571" stroke-width="3" stroke-linecap="round"></path>
            </g>
        </g>
    </g>
</svg>