<?xml version="1.0" encoding="UTF-8"?>
<svg width="103px" height="65px" viewBox="0 0 103 65" version="1.1" xmlns="http://www.w3.org/2000/svg" xmlns:xlink="http://www.w3.org/1999/xlink">
    <!-- Generator: Sketch 63.1 (92452) - https://sketch.com -->
    <title>Generacion</title>
    <desc>Created with Sketch.</desc>
    <g id="Generacion" stroke="none" stroke-width="1" fill="none" fill-rule="evenodd">
        <g id="Group-5">
            <g id="Group-7" transform="translate(55.645407, 47.838027) rotate(-89.000000) translate(-55.645407, -47.838027) translate(40.145407, 3.338027)">
                <path d="M17.6523462,75.5251274 L17.6523462,78.392367 C16.8776759,78.4457489 16.2631836,79.1015489 16.2631836,79.9060743 L16.2631836,84.5234282 C16.2631836,87.3830543 18.1849379,89.7850935 20.7734331,90.463763 L23.7529341,90.463763 C26.3413339,89.7812672 28.2631836,87.37915 28.2631836,84.5234282 L28.2631836,79.9060743 C28.2631836,79.1015684 27.6486627,78.4457587 26.874021,78.392367 L26.874021,75.5251274 C26.874021,74.6824958 26.2073565,74 25.3842705,74 C24.5611845,74 23.89452,74.6824958 23.89452,75.5251274 L23.89452,78.3809469 L20.6319425,78.3809469 L20.6319425,75.5251274 C20.6319425,74.6824958 19.965278,74 19.142192,74 C18.3190107,74 17.6523462,74.6824958 17.6523462,75.5251274 Z M25.2835872,84.519231 C25.2835872,86.223567 23.9278904,87.6114574 22.2630882,87.6114574 C20.5982861,87.6114574 19.2425893,86.223567 19.2425893,84.519231 L19.2425893,81.4270046 L25.2834919,81.4270046 L25.2835872,84.519231 Z" id="Fill-19" fill="#004571" transform="translate(22.263184, 82.231881) rotate(-270.000000) translate(-22.263184, -82.231881) "></path>
                <path d="M14.4810612,81.9631417 C9.59157399,81.8512705 6.6424909,80.6744996 5.63381197,78.4328289 C2.63064343,71.758639 11.4729553,67.7101481 6.80610554,58.2745338 C3.92178532,52.4429055 1.90063498,52.4477043 1.34790634,45.1895769 C1.2268055,43.5993475 0.966135742,28.6655872 0.56589707,0.388295929" id="Path-5" stroke="#004571" stroke-width="3" stroke-linecap="round"></path>
            </g>
            <g id="Group-3" transform="translate(26.000000, 0.000000)" fill="#004571">
                <path d="M15.8470525,15.8605603 C15.9459511,15.8769072 16.0464844,15.8842633 16.145383,15.8842633 C17.0297492,15.8842633 17.8103128,15.2434656 17.9574347,14.3411178 L19.6624143,3.89873088 L21.3690285,14.3411178 C21.53168,15.3439989 22.4765297,16.0264812 23.4794107,15.8605603 C24.4814745,15.6970915 25.1615047,14.7514245 24.9972186,13.7477261 L22.3375812,1.54232813 C22.1929113,0.652240512 21.4246079,-3.90798505e-13 20.5230775,-3.90798505e-13 L18.8033857,-3.90798505e-13 C17.9018553,-3.90798505e-13 17.1335519,0.652240512 16.9880647,1.54232813 L14.32761,13.7477261 C14.1641412,14.7514245 14.8441714,15.6970915 15.8470525,15.8605603 M16.321112,26.0119728 C16.2843315,25.9179782 16.2410123,25.8272531 16.1919716,25.7414319 C15.7497885,24.9747633 14.8049389,24.620036 13.9491797,24.9437042 L4.05277856,28.6879571 L12.2442001,21.9906403 C13.0313024,21.3465732 13.1489999,20.1875795 12.5041155,19.4021119 C11.8608658,18.6158269 10.701872,18.4997641 9.91476972,19.1430138 L0.675513148,27.5493969 C-0.0224986282,28.1207203 -0.20476634,29.1121586 0.247224892,29.8927221 L1.10625344,31.3819229 C1.55824467,32.1624864 2.50636371,32.5016842 3.35068006,32.18292 L15.2503914,28.3839051 C16.2017798,28.0242737 16.6807434,26.9625439 16.321112,26.0119728 M38.6509501,27.5493969 L29.4116935,19.1430138 C28.6245912,18.4997641 27.4639627,18.6158269 26.8223477,19.4021119 C26.7585949,19.4805769 26.7005635,19.5631286 26.6515228,19.6489498 C26.2093397,20.4156184 26.3736259,21.4119608 27.0822631,21.9906403 L35.2736847,28.6879571 L25.3772835,24.9437042 C24.4258951,24.5832555 23.3625306,25.0605844 23.0053512,26.0119728 C22.6457199,26.9625439 23.1246835,28.0242737 24.0760719,28.3839051 L35.9757832,32.18292 C36.8184648,32.5016842 37.7682186,32.1624864 38.2185751,31.3819229 L39.0792383,29.8927221 C39.5295949,29.1121586 39.3505965,28.1207203 38.6509501,27.5493969 M19.6771265,17.3080765 C17.4629416,17.3080765 15.6598807,19.1111374 15.6598807,21.3261396 C15.6598807,23.5427766 17.4629416,25.3450201 19.6771265,25.3450201 C21.8921287,25.3450201 23.6951896,23.5427766 23.6951896,21.3261396 C23.6951896,19.1111374 21.8921287,17.3080765 19.6771265,17.3080765 M17.9304623,60.994707 C17.8716136,60.814074 17.8381025,60.6187288 17.8381025,60.4184795 L17.8381025,28.8922931 L21.5161505,28.8922931 L21.5161505,60.4184795 C21.5161505,60.6187288 21.4834567,60.814074 21.4229732,60.994707 L17.9304623,60.994707 Z" id="Fill-1"></path>
            </g>
            <g id="Group-9" transform="translate(84.000000, 2.000000)">
                <rect id="Rectangle" stroke="#004571" stroke-width="3" x="1.5" y="5.11200589" width="16" height="23" rx="3"></rect>
                <path d="M6.56280142,18.4245914 L9.89480142,18.4245914 L8.38700142,20.6823914 C7.91044142,21.4011414 8.10184142,22.3698914 8.82059142,22.8503914 C9.53934142,23.3269514 10.5080914,23.1355514 10.9885914,22.4168014 L14.1135914,17.7293014 C14.4339014,17.2488314 14.4612514,16.6316014 14.1917214,16.1238014 C13.9182814,15.6159914 13.3909414,15.2995814 12.8128114,15.2995814 L9.48081142,15.2995814 L10.9886114,13.0417814 C11.4651714,12.3230314 11.2737714,11.3542814 10.5550214,10.8737814 C9.83627142,10.3972214 8.86752142,10.5886214 8.38702142,11.3073714 L5.26202142,15.9948714 C4.94171142,16.4753414 4.91436142,17.0925714 5.18390142,17.6003714 C5.45734142,18.1081814 5.98468142,18.4245914 6.56280142,18.4245914 Z" id="Fill-3" fill="#004571"></path>
                <path d="M5.56347656,4.81361023 L5.56347656,2.02929615 C5.56347656,0.929160363 6.45199868,0.0355770947 7.55211672,0.0293284125 L10.7042002,0.0114245452 C11.8087518,0.00515067994 12.7092539,0.895480764 12.7155277,2.00003245 C12.7155492,2.00381902 12.71556,2.00760565 12.71556,2.01139228 L12.71556,5 L12.71556,5" id="Path-6" stroke="#004571" stroke-width="3" stroke-linecap="round"></path>
            </g>
            <path d="M29.6041025,40.0703 C29.3931625,39.42968 28.7955125,39 28.1236025,39 L6.24860254,39 C5.57672254,39 4.97910154,39.42969 4.76810154,40.0703 L0.0806015449,54.1323 C-0.0795584551,54.60886 0.00247654494,55.1323 0.295441545,55.5385 C0.588406545,55.9447 1.05716154,56.18694 1.56104154,56.18694 L15.4990425,56.18694 L15.5,62.3754883 L18.87,62.43694 L18.8740425,56.18694 L32.8120425,56.18694 C33.3159525,56.18694 33.7847025,55.94475 34.0776425,55.5385 C34.3705825,55.13225 34.4526425,54.60881 34.2924825,54.1323 L29.6041025,40.0703 Z M28.0416025,45.25 L22.4049025,45.25 L22.0572425,42.125 L26.9986425,42.125 L28.0416025,45.25 Z M20.1314025,53.0625 L14.2447025,53.0625 L14.7681425,48.375 L19.6119425,48.375 L20.1314025,53.0625 Z M15.1158025,45.25 L15.4634625,42.125 L18.9165625,42.125 L19.2642225,45.25 L15.1158025,45.25 Z M12.3189025,42.125 L11.9712425,45.25 L6.33454254,45.25 L7.37754254,42.125 L12.3189025,42.125 Z M5.29160154,48.375 L11.6197025,48.375 L11.1001725,53.0625 L3.72907154,53.0625 L5.29160154,48.375 Z M23.2798025,53.063 L22.7602725,48.3755 L29.0883725,48.3755 L30.6508725,53.063 L23.2798025,53.063 Z" id="Fill-5" fill="#004571"></path>
        </g>
    </g>
</svg>