<?xml version="1.0" encoding="UTF-8"?>
<svg width="99px" height="51px" viewBox="0 0 99 51" version="1.1" xmlns="http://www.w3.org/2000/svg" xmlns:xlink="http://www.w3.org/1999/xlink">
    <!-- Generator: Sketch 63.1 (92452) - https://sketch.com -->
    <title>Autoconsumo</title>
    <desc>Created with Sketch.</desc>
    <g id="Autoconsumo" stroke="none" stroke-width="1" fill="none" fill-rule="evenodd">
        <g id="Group-4" fill="#004571">
            <path d="M94.2827856,29.0503462 C94.0741351,28.4216694 93.4829719,28 92.8183547,28 L71.1807815,28 C70.5161939,28 69.9250594,28.4216792 69.7163495,29.0503462 L65.0797267,42.8501852 C64.9213051,43.3178606 65.0024497,43.831542 65.2922349,44.2301691 C65.5820201,44.6287963 66.0456873,44.8665201 66.5440983,44.8665201 L80.3308191,44.8665201 L80.3308191,47.9332601 C80.0501447,47.9332601 79.839639,47.9332601 79.6993018,47.9332601 C79.4961854,47.9332601 78.2023647,47.9332601 75.8178395,47.9332601 C74.9639294,47.9332601 74.2722986,48.6194443 74.2722986,49.46663 C74.2722986,50.3138157 74.9639294,51 75.8178395,51 L88.1821671,51 C89.0360772,51 89.727708,50.3138157 89.727708,49.46663 C89.727708,48.6194443 89.0360772,47.9332601 88.1821671,47.9332601 C85.9121454,47.9332601 84.7042023,47.9332601 84.5583376,47.9332601 C84.3607487,47.9332601 84.0643653,47.9332601 83.6691875,47.9332601 L83.6691875,44.8665201 L97.4559073,44.8665201 C97.954348,44.8665201 98.4180102,44.6288453 98.7077707,44.2301691 C98.9975312,43.8314929 99.0787006,43.3178115 98.9202789,42.8501852 L94.2827856,29.0503462 Z M92.7372447,34.1334799 L87.1617243,34.1334799 L86.8178377,31.0667399 L91.7056048,31.0667399 L92.7372447,34.1334799 Z M84.9129004,41.8003297 L79.0900934,41.8003297 L79.6078521,37.2002198 L84.3990785,37.2002198 L84.9129004,41.8003297 Z M79.9517387,34.1334799 L80.2956253,31.0667399 L83.711246,31.0667399 L84.0551326,34.1334799 L79.9517387,34.1334799 Z M77.1851957,31.0667399 L76.8413091,34.1334799 L71.2657887,34.1334799 L72.2974682,31.0667399 L77.1851957,31.0667399 Z M70.2341676,37.2002198 L76.4935847,37.2002198 L75.9796935,41.8003297 L68.688597,41.8003297 L70.2341676,37.2002198 Z M88.0271283,41.8008204 L87.5132372,37.2007105 L93.7726533,37.2007105 L95.3181942,41.8008204 L88.0271283,41.8008204 Z" id="Fill-5"></path>
            <path d="M56.5670792,12.3387594 L52.461082,15.9078956 C51.8943631,16.4011057 51.8426732,17.2498017 52.3470265,17.8039993 C52.8513798,18.3581969 53.7192508,18.4087448 54.2859696,17.9155348 L55.9825677,16.4376893 C55.7069777,19.4148677 54.9691405,22.2320766 53.8368551,24.8237933 C52.7565317,27.2965727 55.2029846,28.4553996 56.3465532,25.848399 C57.6486107,22.88009 58.4782301,19.6492817 58.7487734,16.2422657 L60.6734824,17.9152984 C61.2402013,18.4085084 62.1080722,18.357956 62.6124256,17.8037628 C63.1167789,17.2495697 63.0650844,16.4008692 62.4983701,15.9076592 L58.3923729,12.3385229 C58.1143604,12.0980256 57.7508336,11.9760325 57.3801077,12.0039164 C57.0785222,12.025068 56.7933653,12.1418278 56.5670792,12.3387594 Z" id="Path" stroke="#004571" stroke-width="0.3" transform="translate(57.479725, 19.663085) rotate(-90.000000) translate(-57.479725, -19.663085) "></path>
            <g id="Group-2" transform="translate(0.000000, 15.500000)" fill-rule="nonzero">
                <path d="M25.191,-8.84625706e-13 L0.787867354,14.7651272 C0.0146998541,15.2368082 -0.231367646,16.2437372 0.238244854,17.0189522 C0.547910854,17.5275459 1.08727485,17.8064522 1.64099235,17.8064522 C1.9322046,17.8064522 2.22752235,17.7305739 2.49206985,17.5665114 L6.56696235,15.0891414 L6.56696235,33.3159414 C6.56696235,34.5088765 7.53402729,35.4759414 8.72696235,35.4759414 L41.5486124,35.4759414 C42.7415474,35.4759414 43.7086124,34.5088765 43.7086124,33.3159414 L43.7086124,14.9946414 L43.7086124,14.9946414 L47.8183649,17.4883914 C48.5894849,17.9559669 49.6004774,17.7119259 50.0721899,16.9367214 C50.5438709,16.1656014 50.2957244,15.1546089 49.5225674,14.6849439 L25.191,-8.84625706e-13 Z M28.4526899,32.1972849 L21.8576399,32.1972849 L21.8576399,23.8093599 C21.865843,23.2023549 22.0606679,20.1671724 25.1552699,20.1671724 C28.2498719,20.1671724 28.4447099,23.2023024 28.4528999,23.8011699 L28.4526899,32.1972849 Z M40.4274149,32.1972849 L31.7339399,32.1972849 L31.7339399,23.7993849 C31.7339399,21.0205599 29.9825924,16.8861849 25.1551649,16.8861849 C20.3277374,16.8861849 18.5763899,21.0205599 18.5763899,23.7993849 L18.5763899,32.1951849 L9.84826485,32.1972849 L9.84826485,13.0940611 L25.1940149,3.76113611 L40.4274149,13.0058611 L40.4274149,32.1972849 Z" id="Shape"></path>
                <path d="M26.7957899,11.4563794 C26.7957899,13.6445794 23.5145399,13.6445794 23.5145399,11.4563794 C23.5145399,9.26817938 26.7957899,9.26817938 26.7957899,11.4563794" id="Path"></path>
            </g>
            <path d="M80.9997119,1.000288 C80.9997119,0.448113666 81.4478255,0 81.9999999,0 C82.5521742,0 83.0002879,0.448113666 83.0002879,1.000288 L83.0002879,2.99990404 C83.0002879,3.55207838 82.5521742,4.00019204 81.9999999,4.00019204 C81.4478255,4.00019204 80.9997119,3.55207838 80.9997119,2.99990404 L80.9997119,1.000288 Z M80.9997119,17.0000962 C80.9997119,16.4479219 81.4478255,15.9998082 81.9999999,15.9998082 C82.5521742,15.9998082 83.0002879,16.4479219 83.0002879,17.0000962 L83.0002879,18.9997122 C83.0002879,19.5518866 82.5521742,20 81.9999999,20 C81.4478255,20 80.9997119,19.5518866 80.9997119,18.9997122 L80.9997119,17.0000962 Z M81.9999999,15.0004802 L81.9999999,14.9995418 C80.214121,14.9995418 78.5633098,14.0470603 77.6698184,12.5002617 C76.776399,10.9534392 76.776399,9.04653222 77.6698184,7.4997817 C78.5632378,5.95295918 80.214217,5.00050164 81.9999999,5.00050164 C83.7857828,5.00050164 85.4366899,5.95298318 86.3301814,7.4997817 C87.2236008,9.04660422 87.2236008,10.9535112 86.3301814,12.5002617 C85.4367619,14.0470843 83.7857828,14.9995418 81.9999999,14.9995418 L81.9999999,15.0004802 Z M81.9999999,13.0008641 L81.9999999,12.9999258 C83.6564989,12.9999258 84.9999039,11.6565207 84.9999039,10.0000217 C84.9999039,8.34352271 83.6564989,7.00011768 81.9999999,7.00011768 C80.3435009,7.00011768 79.0000958,8.34352271 79.0000958,10.0000217 C79.0000958,11.6565207 80.3435009,12.9999258 81.9999999,12.9999258 L81.9999999,13.0008641 Z M73.0002878,11.0012481 L73.0002878,11.0003097 C72.4481134,11.0003097 72,10.5521961 72,10.0000217 C72,9.44784738 72.4481134,8.99973372 73.0002878,8.99973372 L74.9999038,8.99973372 C75.5520781,8.99973372 76.0001918,9.44784738 76.0001918,10.0000217 C76.0001918,10.5521961 75.5520781,11.0003097 74.9999038,11.0003097 L73.0002878,11.0003097 L73.0002878,11.0012481 Z M89.000096,11.0012481 L89.000096,11.0003097 C88.4479216,11.0003097 87.999808,10.5521961 87.999808,10.0000217 C87.999808,9.44784738 88.4479216,8.99973372 89.000096,8.99973372 L90.999712,8.99973372 C91.5518863,8.99973372 92,9.44784738 92,10.0000217 C92,10.5521961 91.5518863,11.0003097 90.999712,11.0003097 L89.000096,11.0003097 L89.000096,11.0012481 Z M88.2932466,2.29504659 L88.2932466,2.29317225 C88.685106,1.91444036 89.3085341,1.92005618 89.6947537,2.30535906 C90.0800614,2.6916027 90.0856772,3.31500676 89.7069406,3.70686622 L88.1254391,5.28836764 C87.7335797,5.66709952 87.1101516,5.6614837 86.723932,5.27618083 C86.3386243,4.88993718 86.3330085,4.26653312 86.7117452,3.87467366 L88.2913746,2.29410822 L88.2932466,2.29504659 Z M75.7068492,17.7071136 C75.5212295,17.900233 75.2653113,18.0099119 74.9962559,18.0117838 C74.7281365,18.0145965 74.4703367,17.9086615 74.2809588,17.7192812 C74.0915905,17.5299129 73.9856482,17.2721035 73.9884562,17.0039841 C73.9903305,16.7349287 74.1000142,16.4790009 74.2931264,16.2933908 L75.8746278,14.7118894 C76.0602475,14.51877 76.3161657,14.4090911 76.5852211,14.4072191 C76.8533405,14.4044064 77.1111403,14.5103414 77.3005182,14.6997218 C77.4898865,14.8890901 77.5958288,15.1468995 77.5930209,15.4150189 C77.5911465,15.6840743 77.4814628,15.9400021 77.2883506,16.1256122 L75.7087211,17.7061776 L75.7068492,17.7071136 Z M74.2931504,3.70788139 L74.2931504,3.70694302 C73.9144185,3.31508356 73.9200343,2.6916555 74.3053372,2.30543585 C74.6915809,1.92012818 75.3149849,1.91451236 75.7068444,2.29324904 L77.2883458,3.87475045 C77.6670777,4.26660992 77.6614619,4.89003798 77.276159,5.27625762 C76.8899153,5.6615653 76.2665113,5.66718112 75.8746518,5.28844683 L74.2940864,3.70881736 L74.2931504,3.70788139 Z M89.7071373,16.2933188 C90.0858692,16.6851783 90.0802534,17.3086063 89.6949505,17.694826 C89.3087069,18.0801337 88.6853028,18.0857495 88.2934434,17.7070128 L86.711942,16.1255114 C86.3332101,15.7336519 86.3388259,15.1102239 86.7241288,14.7240042 C87.1103724,14.3386965 87.7337765,14.3330807 88.1256359,14.7118174 L89.7062014,16.2914469 L89.7071373,16.2933188 Z" id="Fill-1" stroke="#004571" stroke-width="0.5"></path>
        </g>
    </g>
</svg>