<svg width="60" height="60" viewBox="0 0 60 60" fill="none" xmlns="http://www.w3.org/2000/svg">
<circle cx="30" cy="30" r="25" fill="white"/>
<path fill-rule="evenodd" clip-rule="evenodd" d="M29.976 5.39844C16.404 5.39844 5.40002 16.4024 5.40002 29.9744C5.40002 43.5464 16.404 54.5504 29.976 54.5504C43.548 54.5504 54.552 43.5464 54.552 29.9744C54.54 16.4024 43.536 5.39844 29.976 5.39844ZM29.976 51.0344C18.348 51.0344 8.91602 41.6024 8.91602 29.9744C8.91602 18.3464 18.348 8.91444 29.976 8.91444C41.604 8.91444 51.036 18.3464 51.036 29.9744C51.036 41.6024 41.604 51.0344 29.976 51.0344Z" fill="#E57200"/>
<path d="M28.3516 34.6972H35.6476V37.3852H24.2476V35.7292C24.2476 35.5052 24.2716 35.3372 24.3196 35.2252C24.3676 35.1132 24.4796 34.9612 24.6556 34.7692L29.4556 29.9692C29.9036 29.5212 30.2796 29.1292 30.5836 28.7932C30.9036 28.4572 31.1596 28.1452 31.3516 27.8572C31.5596 27.5692 31.7116 27.2972 31.8076 27.0412C31.9036 26.7692 31.9516 26.4812 31.9516 26.1772C31.9516 25.4732 31.7356 24.9692 31.3036 24.6652C30.8716 24.3452 30.2956 24.1852 29.5756 24.1852C28.7596 24.1852 27.7116 24.4172 26.4316 24.8812L24.9436 25.4332L23.9356 23.4652C24.8796 22.7932 25.8556 22.2572 26.8636 21.8572C27.8716 21.4412 28.8876 21.2332 29.9116 21.2332C30.6636 21.2332 31.3676 21.3372 32.0236 21.5452C32.6796 21.7532 33.2476 22.0652 33.7276 22.4812C34.2236 22.8812 34.6076 23.3772 34.8796 23.9692C35.1676 24.5612 35.3116 25.2412 35.3116 26.0092C35.3116 26.5372 35.2396 27.0332 35.0956 27.4972C34.9676 27.9612 34.7356 28.4252 34.3996 28.8892C34.0796 29.3532 33.6556 29.8572 33.1276 30.4012C32.5996 30.9292 31.9516 31.5292 31.1836 32.2012L28.3516 34.6972Z" fill="#E57200"/>
</svg>
