<svg width="60" height="60" viewBox="0 0 60 60" fill="none" xmlns="http://www.w3.org/2000/svg">
<circle cx="30" cy="30" r="25" fill="white"/>
<path fill-rule="evenodd" clip-rule="evenodd" d="M29.976 5.39844C16.404 5.39844 5.40002 16.4024 5.40002 29.9744C5.40002 43.5464 16.404 54.5504 29.976 54.5504C43.548 54.5504 54.552 43.5464 54.552 29.9744C54.54 16.4024 43.536 5.39844 29.976 5.39844ZM29.976 51.0344C18.348 51.0344 8.91602 41.6024 8.91602 29.9744C8.91602 18.3464 18.348 8.91444 29.976 8.91444C41.604 8.91444 51.036 18.3464 51.036 29.9744C51.036 41.6024 41.604 51.0344 29.976 51.0344Z" fill="#E57200"/>
<path d="M24.9676 35.124H29.0236V25.38H28.9996C28.8076 25.46 28.5836 25.556 28.3276 25.668C28.0716 25.764 27.6956 25.892 27.1996 26.052L25.2076 26.676L24.2716 24.396L29.4076 22.14C29.6316 22.044 29.8156 21.98 29.9596 21.948C30.1036 21.916 30.2876 21.9 30.5116 21.9H32.2636V35.124H35.5996V37.812H24.9676V35.124Z" fill="#E57200"/>
</svg>
