<svg width="32" height="32" viewBox="0 0 32 32" fill="none" xmlns="http://www.w3.org/2000/svg">
<path d="M24.4608 5.47266H7.55198C6.00958 5.47266 4.74878 6.72706 4.74878 8.27586V19.9623C4.74878 21.5111 6.00318 22.7655 7.55198 22.7655H10.4512V25.6007C10.4512 25.9847 10.6816 26.3303 11.04 26.4775C11.1552 26.5287 11.2832 26.5479 11.4048 26.5479C11.6544 26.5479 11.8976 26.4519 12.0768 26.2663L15.5776 22.7591H24.9728C26.24 22.7591 27.2704 21.7287 27.2704 20.4615V8.27586C27.264 6.73346 26.0032 5.47266 24.4608 5.47266ZM25.3632 13.8631C25.3568 13.9207 25.3504 13.9719 25.3504 14.0295C25.3504 14.0871 25.3568 14.1447 25.3632 14.1959V20.4615C25.3632 20.6791 25.184 20.8583 24.9664 20.8583H15.1744C14.9184 20.8583 14.6816 20.9607 14.5024 21.1399L12.352 23.3031V21.8119C12.352 21.2871 11.9296 20.8647 11.4048 20.8647H7.55198C7.05278 20.8647 6.64958 20.4615 6.64958 19.9623V8.27586C6.64958 7.77666 7.05278 7.37346 7.55198 7.37346H24.4608C24.96 7.37346 25.3632 7.77666 25.3632 8.27586V13.8631ZM21.2608 11.9687C21.2608 12.4871 20.8448 12.9031 20.3264 12.9031H11.6928C11.1744 12.9031 10.7584 12.4807 10.7584 11.9687C10.7584 11.4503 11.1744 11.0343 11.6928 11.0343H20.3264C20.8384 11.0343 21.2608 11.4503 21.2608 11.9687ZM21.2608 15.6935C21.2608 16.2119 20.8448 16.6279 20.3264 16.6279H11.6928C11.1744 16.6279 10.7584 16.2055 10.7584 15.6935C10.7584 15.1751 11.1744 14.7591 11.6928 14.7591H20.3264C20.8384 14.7527 21.2608 15.1751 21.2608 15.6935Z" fill="#004571"/>
</svg>
