<svg width="17" height="15" viewBox="0 0 17 15" fill="none" xmlns="http://www.w3.org/2000/svg">
<path d="M8.05012 1.35156C4.40534 1.35156 1.4502 4.10256 1.4502 7.49556C1.4502 10.8886 4.40534 13.6396 8.05012 13.6396C11.6949 13.6396 14.6501 10.8886 14.6501 7.49556C14.6468 4.10256 11.6917 1.35156 8.05012 1.35156ZM8.05012 12.7606C4.9274 12.7606 2.39442 10.4026 2.39442 7.49556C2.39442 4.58856 4.9274 2.23056 8.05012 2.23056C11.1728 2.23056 13.7058 4.58856 13.7058 7.49556C13.7058 10.4026 11.1728 12.7606 8.05012 12.7606Z" fill="#004571"/>
<path d="M10.2866 5.49157C10.2318 5.46157 10.1706 5.44057 10.1094 5.43457C9.93535 5.41357 9.75811 5.48857 9.66143 5.63557L7.32503 8.65357L6.46137 7.25257C6.36147 7.03957 6.09077 6.94057 5.86196 7.03657C5.63315 7.12957 5.52681 7.38157 5.62993 7.59457L6.53871 9.09457C6.54193 9.10057 6.54516 9.10357 6.54516 9.10957C6.67406 9.35557 6.9222 9.52057 7.20902 9.55357C7.22835 9.55657 7.25091 9.55657 7.27025 9.55957C7.58284 9.57457 7.87932 9.43057 8.04368 9.18457C8.04368 9.18157 8.0469 9.18157 8.0469 9.17857L10.4381 6.07357C10.5702 5.87257 10.5025 5.61157 10.2866 5.49157Z" fill="#004571"/>
</svg>
