<?xml version="1.0" encoding="UTF-8"?>
<svg width="30px" height="30px" viewBox="0 0 50 50" version="1.1" xmlns="http://www.w3.org/2000/svg" xmlns:xlink="http://www.w3.org/1999/xlink">
    <!-- Generator: Sketch 57.1 (83088) - https://sketch.com -->
    <g id="Symbols" stroke="none" stroke-width="1" fill="none" fill-rule="evenodd">
            <g id="Group-3" transform="translate(9.000000, 11.000000)">
                <path d="M28.7438209,2.3675753 C28.4229689,2.17862106 28.0806472,2.06288658 27.7347473,2.02037187 C26.7471433,1.89637064 25.7356841,2.34277506 25.1894008,3.24148871 L11.8806023,21.5216314 L6.9616666,13.0293188 C6.3879498,11.7338013 4.85764074,11.1468621 3.54560648,11.7137249 C2.23595774,12.2853115 1.64434956,13.8028503 2.22045188,15.0960059 L7.39940894,24.1835244 C7.41252928,24.2130485 7.42803514,24.2402107 7.43996273,24.2685538 C8.16515985,25.7506637 9.59408443,26.7568451 11.225778,26.9599709 C11.343861,26.9753234 11.4607514,26.9871331 11.5788344,26.9930379 C13.3548517,27.087515 15.0437977,26.2147826 15.9848841,24.7196821 C15.9932334,24.7066915 16.0003899,24.6937009 16.0063537,24.688977 L29.6300404,5.8903911 C30.3659723,4.67399811 29.9699765,3.09741109 28.7438209,2.3675753" id="Fill-1" fill="#FFF" ></path>
            </g>
    </g>
</svg>