<?xml version="1.0" encoding="UTF-8"?>
<svg width="78px" height="52px" viewBox="0 0 78 52" version="1.1" xmlns="http://www.w3.org/2000/svg" xmlns:xlink="http://www.w3.org/1999/xlink">
    <!-- Generator: Sketch 57.1 (83088) - https://sketch.com -->
    <title>Group 9</title>
    <desc>Created with Sketch.</desc>
    <g id="Provisión-de-servicio-" stroke="none" stroke-width="1" fill="none" fill-rule="evenodd">
        <g id="5-01_UFD_Pago_NU_06.7_tarjeta" transform="translate(-437.000000, -1366.000000)">
            <g id="Group-9" transform="translate(437.000000, 1366.000000)">
                <rect id="Rectangle" fill="#FFFFFF" x="2" y="2" width="74" height="48" rx="5"></rect>
                <path d="M69.8751873,0 L8.12496509,0 C3.64650712,0 0,3.64649288 0,8.12508569 L0,43.8750667 C0,48.3535071 3.64650712,52 8.12496509,52 L69.8750349,52 C74.3534929,52 78,48.3535071 78,43.8750667 L78,8.12508569 C78,3.64649288 74.3536452,0 69.8751873,0 Z M74.7501968,43.8749143 C74.7501968,46.5627098 72.5629933,48.7499048 69.8751873,48.7499048 L8.12496509,48.7499048 C5.43715906,48.7499048 3.24995557,46.5627098 3.24995557,43.8749143 L3.24995557,8.12508569 C3.24995557,5.43729016 5.43715906,3.25009521 8.12496509,3.25009521 L69.8750349,3.25009521 C72.5628409,3.25009521 74.7501968,5.43729016 74.7501968,8.12508569 L74.7501968,43.8749143 L74.7501968,43.8749143 Z" id="Shape" fill="#004571" fill-rule="nonzero"></path>
                <path d="M76.3748,10 L1.62504761,10 C0.728049359,10 0,10.7280451 0,11.6250381 L0,21.3749619 C0,22.2719549 0.728049359,23 1.62504761,23 L76.3749524,23 C77.2719506,23 78,22.2719549 78,21.3749619 L78,11.6250381 C78,10.7280451 77.2717983,10 76.3748,10 Z M74.7499048,19.7499238 L3.24994287,19.7499238 L3.24994287,13.2499238 L74.7499048,13.2499238 L74.7499048,19.7499238 L74.7499048,19.7499238 Z" id="Shape" fill="#004571" fill-rule="nonzero"></path>
                <path d="M31.3570989,33 L11.6429011,33 C10.7360481,33 10,33.6720574 10,34.5000703 C10,35.3280833 10.7360481,36 11.6429011,36 L31.3570989,36 C32.2639519,36 33,35.3279426 33,34.4999297 C33,33.6719167 32.2639519,33 31.3570989,33 Z" id="Path" fill="#004571"></path>
                <path d="M31.3570989,39 L11.6429011,39 C10.7360481,39 10,39.6720259 10,40.5 C10,41.3279741 10.7360481,42 11.6429011,42 L31.3570989,42 C32.2639519,42 33,41.3279741 33,40.5 C33,39.6720259 32.2639519,39 31.3570989,39 Z" id="Path" fill="#004571"></path>
                <path d="M63.124981,29 L59.875019,29 C57.1872078,29 55,31.1872078 55,33.875019 L55,37.124981 C55,39.8127922 57.1872078,42 59.875019,42 L63.124981,42 C65.8127922,42 68,39.8127922 68,37.124981 L68,33.875019 C68,31.1873601 65.8127922,29 63.124981,29 Z M64.7500381,37.1251333 C64.7500381,38.0221368 64.0219845,38.7501904 63.124981,38.7501904 L59.875019,38.7501904 C58.9780155,38.7501904 58.2499619,38.0221368 58.2499619,37.1251333 L58.2499619,33.8751714 C58.2499619,32.9781679 58.9780155,32.2501143 59.875019,32.2501143 L63.124981,32.2501143 C64.0219845,32.2501143 64.7500381,32.9781679 64.7500381,33.8751714 L64.7500381,37.1251333 Z" id="Shape" fill="#004571" fill-rule="nonzero"></path>
            </g>
        </g>
    </g>
</svg>