<?xml version="1.0" encoding="UTF-8"?>
<svg width="61px" height="58px" viewBox="0 0 61 58" version="1.1" xmlns="http://www.w3.org/2000/svg" xmlns:xlink="http://www.w3.org/1999/xlink">
    <!-- Generator: Sketch 57.1 (83088) - https://sketch.com -->
    <title>Group 3</title>
    <desc>Created with Sketch.</desc>
    <g id="Provisión-de-servicio-" stroke="none" stroke-width="1" fill="none" fill-rule="evenodd">
        <g id="5-01_UFD_Pago_NU_06.7_tarjeta" transform="translate(-447.000000, -1523.000000)" fill="#004571">
            <g id="Group-5" transform="translate(372.000000, 1504.000000)">
                <g id="Group-3" transform="translate(75.000000, 19.000000)">
                    <path d="M47.6637694,0 L12.8824337,0 C9.39935956,0 6.57090576,2.87917817 6.57090576,6.42471634 L6.57090576,35.7319841 L2.58142726,31.6709598 C1.98856359,31.067464 1.03751144,31.067464 0.444647758,31.6709598 C-0.148215919,32.2744557 -0.148215919,33.2425636 0.444647758,33.8460595 L7.02790485,40.5473781 C7.32433669,40.849126 7.70722781,41 8.10247027,41 C8.49771272,41 8.88060384,40.849126 9.17703568,40.5473781 L15.7602928,33.8460595 C16.3531565,33.2425636 16.3531565,32.2744557 15.7602928,31.6709598 C15.1674291,31.067464 14.2163769,31.067464 13.6235133,31.6709598 L9.62168344,35.7445569 L9.62168344,6.42471634 C9.62168344,4.57651027 11.0914913,3.08034345 12.9071363,3.08034345 L47.6761208,3.08034345 C49.4917658,3.08034345 50.9615737,4.57651027 50.9615737,6.42471634 L50.9615737,10.6994787 C50.9615737,11.5544312 51.6408966,12.2459368 52.4807868,12.2459368 C53.320677,12.2459368 54,11.5544312 54,10.6994787 L54,6.42471634 C53.962946,2.891751 51.1344922,0 47.6637694,0 Z" id="Path"></path>
                    <path d="M51.8434783,17.4340954 L45.2572082,24.1405555 C44.6640732,24.7445143 44.6640732,25.713365 45.2572082,26.3173239 C45.5537757,26.6193034 45.9368421,26.7702931 46.3322654,26.7702931 C46.7276888,26.7702931 47.1107551,26.6193034 47.4073227,26.3173239 L51.410984,22.2406015 L51.410984,51.5703545 C51.410984,53.4199785 49.9405034,54.9172932 48.1240275,54.9172932 L13.3267735,54.9172932 C11.5102975,54.9172932 10.0398169,53.4199785 10.0398169,51.5703545 L10.0398169,47.2923124 C10.0398169,46.436704 9.36018307,45.7446678 8.51990847,45.7446678 C7.67963387,45.7446678 7,46.436704 7,47.2923124 L7,51.5703545 C7,55.1186129 9.82974828,58 13.3144165,58 L48.0993135,58 C51.5839817,58 54.41373,55.1186129 54.41373,51.5703545 L54.41373,22.2406015 L58.4173913,26.3173239 C59.0105263,26.9212828 59.9620137,26.9212828 60.5551487,26.3173239 C61.1482838,25.713365 61.1482838,24.7445143 60.5551487,24.1405555 L53.9688787,17.4340954 C53.4251716,16.8553015 52.4118993,16.8553015 51.8434783,17.4340954 Z" id="Path"></path>
                    <path d="M30.0062112,16 C29.1614907,16 28.4782609,16.7100046 28.4782609,17.5878285 L28.4782609,20.0147533 L28.2795031,20.0147533 C25.3726708,20.0147533 23,22.6094975 23,25.7851544 C23,28.9608114 25.3726708,31.5555556 28.2795031,31.5555556 L31.7080745,31.5555556 C32.9378882,31.5555556 33.9440994,32.7302905 33.9440994,34.1632089 C33.9440994,35.6090364 32.9378882,36.7708621 31.7080745,36.7708621 L25.5465839,36.7708621 C24.7018634,36.7708621 24.0186335,37.4808668 24.0186335,38.3586906 C24.0186335,39.2365145 24.7018634,39.9465191 25.5465839,39.9465191 L28.4782609,39.9465191 L28.4782609,42.4121715 C28.4782609,43.2899954 29.1614907,44 30.0062112,44 C30.8509317,44 31.5341615,43.2899954 31.5341615,42.4121715 L31.5341615,39.93361 L31.757764,39.93361 C31.7701863,39.93361 31.7826087,39.93361 31.7950311,39.93361 C34.6770186,39.8948824 37,37.3130475 37,34.1632089 C37,30.9746427 34.6273292,28.3928077 31.7204969,28.3928077 L28.2919255,28.3928077 C27.0621118,28.3928077 26.0559006,27.2180728 26.0559006,25.7851544 C26.0559006,24.3522361 27.0621118,23.1775012 28.2919255,23.1775012 L34.3416149,23.1775012 C35.1863354,23.1775012 35.8695652,22.4674965 35.8695652,21.5896727 C35.8695652,20.7118488 35.1863354,20.0018442 34.3416149,20.0018442 L31.5341615,20.0018442 L31.5341615,17.5749193 C31.5217391,16.7100046 30.8509317,16 30.0062112,16 Z" id="Path"></path>
                </g>
            </g>
        </g>
    </g>
</svg>