<?xml version="1.0" encoding="UTF-8"?>
<svg width="30px" height="25px" viewBox="0 0 30 25" version="1.1" xmlns="http://www.w3.org/2000/svg" xmlns:xlink="http://www.w3.org/1999/xlink">
    <!-- Generator: Sketch 57.1 (83088) - https://sketch.com -->
    <title>Group 3</title>
    <desc>Created with Sketch.</desc>
    <g id="Mi-consumo" stroke="none" stroke-width="1" fill="none" fill-rule="evenodd">
        <g id="1-03_Consumo_Por-meses_gráfica" transform="translate(-574.000000, -1236.000000)" fill="#004571">
            <g id="Group-20" transform="translate(574.000000, 1236.000000)">
                <g id="Group-3">
                    <path d="M14.5221818,13.3067273 C13.7730909,13.3067273 13.1680909,13.914 13.1680909,14.6621818 C13.1680909,15.4108182 13.7730909,16.0162727 14.5221818,16.0162727 C15.2703636,16.0162727 15.8762727,15.4108182 15.8762727,14.6621818 C15.8762727,13.914 15.2703636,13.3067273 14.5221818,13.3067273 L14.5221818,13.3067273 Z M14.5221818,8.64536364 C13.7730909,8.64536364 13.1680909,9.25218182 13.1680909,10.0008182 C13.1680909,10.749 13.7730909,11.3544545 14.5221818,11.3544545 C15.2703636,11.3544545 15.8762727,10.749 15.8762727,10.0008182 C15.8762727,9.25218182 15.2703636,8.64536364 14.5221818,8.64536364 L14.5221818,8.64536364 Z M18.9680909,8.64536364 C18.2199091,8.64536364 17.6171818,9.25218182 17.6171818,10.0008182 C17.6171818,10.749 18.2199091,11.3544545 18.9680909,11.3544545 C19.7194545,11.3544545 20.324,10.749 20.324,10.0008182 C20.324,9.25218182 19.7194545,8.64536364 18.9680909,8.64536364 L18.9680909,8.64536364 Z M18.9680909,13.3067273 C18.2199091,13.3067273 17.6171818,13.914 17.6171818,14.6621818 C17.6171818,15.4108182 18.2199091,16.0162727 18.9680909,16.0162727 C19.7194545,16.0162727 20.324,15.4108182 20.324,14.6621818 C20.324,13.914 19.7194545,13.3067273 18.9680909,13.3067273 L18.9680909,13.3067273 Z M23.4162727,13.3067273 C22.6680909,13.3067273 22.064,13.914 22.064,14.6621818 C22.064,15.4108182 22.6680909,16.0162727 23.4162727,16.0162727 C24.1662727,16.0162727 24.7721818,15.4108182 24.7721818,14.6621818 C24.7721818,13.914 24.1662727,13.3067273 23.4162727,13.3067273 L23.4162727,13.3067273 Z M26.9699091,5.48854545 C26.9699091,4.94536364 26.5294545,4.50490909 25.9867273,4.50490909 L24.9103636,4.50490909 C24.8499091,4.50490909 24.7908182,4.49718182 24.7326364,4.48672727 C24.6735455,4.49763636 24.6130909,4.50536364 24.5508182,4.50536364 L21.6208182,4.50536364 L21.6208182,5.63809091 C21.6208182,6.20990909 21.1567273,6.67581818 20.5830909,6.67581818 C20.009,6.67581818 19.5435455,6.20990909 19.5435455,5.63809091 L19.5435455,4.50536364 L9.50218182,4.50536364 L9.50218182,5.63809091 C9.50218182,6.20990909 9.03809091,6.67581818 8.46445455,6.67581818 C7.89127273,6.67581818 7.42581818,6.20990909 7.42581818,5.63809091 L7.42581818,4.50536364 L4.49581818,4.50536364 C4.42718182,4.50536364 4.35990909,4.49763636 4.29309091,4.48490909 C4.229,4.49718182 4.164,4.50490909 4.09627273,4.50490909 L3.06036364,4.50490909 C2.51672727,4.50490909 2.07536364,4.94536364 2.07536364,5.48854545 L2.07536364,21.6685455 C2.07536364,22.2126364 2.51672727,22.654 3.06036364,22.654 L25.9867273,22.654 C26.5294545,22.654 26.9699091,22.2126364 26.9699091,21.6685455 L26.9699091,5.48854545 Z M29.0467273,5.48854545 L29.0467273,21.6685455 C29.0467273,23.3571818 27.674,24.7303636 25.9867273,24.7303636 L3.06036364,24.7303636 C1.37263636,24.7303636 -9.09090909e-05,23.3571818 -9.09090909e-05,21.6685455 L-9.09090909e-05,5.48854545 C-9.09090909e-05,3.80172727 1.37263636,2.42854545 3.06036364,2.42854545 L4.09627273,2.42854545 C4.16445455,2.42854545 4.23081818,2.43627273 4.29581818,2.449 C4.36127273,2.43627273 4.42763636,2.42854545 4.49581818,2.42854545 L7.42581818,2.42854545 L7.42581818,1.03763636 C7.42581818,0.464 7.89127273,-9.09090909e-05 8.46445455,-9.09090909e-05 C9.03809091,-9.09090909e-05 9.50218182,0.464 9.50218182,1.03763636 L9.50218182,2.42854545 L19.5435455,2.42854545 L19.5435455,1.03763636 C19.5435455,0.464 20.009,-9.09090909e-05 20.5830909,-9.09090909e-05 C21.1567273,-9.09090909e-05 21.6208182,0.464 21.6208182,1.03763636 L21.6208182,2.42854545 L24.5508182,2.42854545 C24.6117273,2.42854545 24.6717273,2.43627273 24.7308182,2.44672727 C24.7894545,2.43627273 24.8485455,2.42854545 24.9103636,2.42854545 L25.9867273,2.42854545 C27.674,2.42854545 29.0467273,3.80172727 29.0467273,5.48854545 L29.0467273,5.48854545 Z M23.4162727,8.64536364 C22.6680909,8.64536364 22.064,9.25218182 22.064,10.0008182 C22.064,10.749 22.6680909,11.3544545 23.4162727,11.3544545 C24.1662727,11.3544545 24.7721818,10.749 24.7721818,10.0008182 C24.7721818,9.25218182 24.1662727,8.64536364 23.4162727,8.64536364 L23.4162727,8.64536364 Z M5.62627273,8.64536364 C4.87718182,8.64536364 4.274,9.25218182 4.274,10.0008182 C4.274,10.749 4.87718182,11.3544545 5.62627273,11.3544545 C6.37627273,11.3544545 6.98127273,10.749 6.98127273,10.0008182 C6.98127273,9.25218182 6.37627273,8.64536364 5.62627273,8.64536364 L5.62627273,8.64536364 Z M5.62627273,13.3067273 C4.87718182,13.3067273 4.274,13.914 4.274,14.6621818 C4.274,15.4108182 4.87718182,16.0162727 5.62627273,16.0162727 C6.37627273,16.0162727 6.98127273,15.4108182 6.98127273,14.6621818 C6.98127273,13.914 6.37627273,13.3067273 5.62627273,13.3067273 L5.62627273,13.3067273 Z M5.62627273,18.0117273 C4.87718182,18.0117273 4.274,18.619 4.274,19.3671818 C4.274,20.1153636 4.87718182,20.7212727 5.62627273,20.7212727 C6.37627273,20.7212727 6.98127273,20.1153636 6.98127273,19.3671818 C6.98127273,18.619 6.37627273,18.0117273 5.62627273,18.0117273 L5.62627273,18.0117273 Z M10.0735455,13.3067273 C9.32536364,13.3067273 8.72127273,13.914 8.72127273,14.6621818 C8.72127273,15.4108182 9.32536364,16.0162727 10.0735455,16.0162727 C10.8235455,16.0162727 11.4294545,15.4108182 11.4294545,14.6621818 C11.4294545,13.914 10.8235455,13.3067273 10.0735455,13.3067273 L10.0735455,13.3067273 Z M10.0735455,18.0117273 C9.32536364,18.0117273 8.72127273,18.619 8.72127273,19.3671818 C8.72127273,20.1153636 9.32536364,20.7212727 10.0735455,20.7212727 C10.8235455,20.7212727 11.4294545,20.1153636 11.4294545,19.3671818 C11.4294545,18.619 10.8235455,18.0117273 10.0735455,18.0117273 L10.0735455,18.0117273 Z M10.0735455,8.64536364 C9.32536364,8.64536364 8.72127273,9.25218182 8.72127273,10.0008182 C8.72127273,10.749 9.32536364,11.3544545 10.0735455,11.3544545 C10.8235455,11.3544545 11.4294545,10.749 11.4294545,10.0008182 C11.4294545,9.25218182 10.8235455,8.64536364 10.0735455,8.64536364 L10.0735455,8.64536364 Z M15.8762727,19.3671818 C15.8762727,20.1153636 15.2703636,20.7212727 14.5221818,20.7212727 C13.7730909,20.7212727 13.1680909,20.1153636 13.1680909,19.3671818 C13.1680909,18.619 13.7730909,18.0117273 14.5221818,18.0117273 C15.2703636,18.0117273 15.8762727,18.619 15.8762727,19.3671818 L15.8762727,19.3671818 Z" id="Fill-1"></path>
                </g>
            </g>
        </g>
    </g>
</svg>