<?xml version="1.0" encoding="UTF-8"?>
<svg width="70px" height="67px" viewBox="0 0 70 67" version="1.1" xmlns="http://www.w3.org/2000/svg" xmlns:xlink="http://www.w3.org/1999/xlink">
    <!-- Generator: Sketch 57.1 (83088) - https://sketch.com -->
    <title>np_house_1391304_000000</title>
    <desc>Created with Sketch.</desc>
    <g id="Provisión-de-servicio-" stroke="none" stroke-width="1" fill="none" fill-rule="evenodd">
        <g id="1-06_UFD_PROVISION_SERVICIO_NU_01.2-" transform="translate(-325.000000, -307.000000)" fill="#004571" fill-rule="nonzero">
            <g id="np_house_1391304_000000" transform="translate(325.000000, 307.000000)">
                <g id="Group">
                    <path d="M52.4063748,28.008513 L52.4063748,15.2109089 L58.0859269,18.557638 C58.4476592,18.771262 58.8464477,18.8737974 59.2394685,18.8737974 C60.0198956,18.8737974 60.7804165,18.472187 61.2047915,17.751537 C61.8428123,16.6663182 61.48108,15.2706932 60.395854,14.6326724 L36.0941873,0.314026563 C35.3821123,-0.104675521 34.4934477,-0.104675521 33.7813435,0.314026563 L9.47676021,14.6268391 C8.39154146,15.2677109 8.02980188,16.6634016 8.66782271,17.7457036 C9.30869459,18.8337661 10.7100727,19.192662 11.7866873,18.5546411 L17.4662394,15.207912 L17.4662394,28.096662 L1.09426021,38.0570786 C0.020416464,38.7121911 -0.321343953,40.1107036 0.330895631,41.1873911 C0.760987297,41.8937714 1.51010396,42.2811411 2.27915605,42.2811411 C2.68361751,42.2811411 3.09378105,42.1757547 3.46120813,41.9478901 L9.12078105,38.5070984 L9.12078105,63.8220984 C9.12078105,65.4789527 10.4639268,66.8220984 12.120781,66.8220984 L57.706406,66.8220984 C59.3632603,66.8220984 60.706406,65.4789527 60.706406,63.8220984 L60.706406,38.3758484 L60.706406,38.3758484 L66.4143956,41.8393901 C67.4853956,42.4888005 68.8895519,42.1498547 69.5447081,41.0731818 C70.1998206,40.0021818 69.8551727,38.5980255 68.7813435,37.945713 L52.4063748,28.008513 Z M22.0263748,12.5283047 L34.937729,4.92309635 L47.8519998,12.5283047 L47.8519998,25.2457005 L36.228354,18.1932734 C35.5134279,17.7603307 34.465229,17.7574797 33.7560415,18.1932734 L22.0266665,25.3283151 L22.0263748,12.5283047 Z M39.5176248,62.2684089 L30.3578331,62.2684089 L30.3578331,50.618513 C30.3692264,49.7754505 30.6398165,45.5599193 34.9378748,45.5599193 C39.2359331,45.5599193 39.5065415,49.7753776 39.5179165,50.607138 L39.5176248,62.2684089 Z M56.1491873,62.2684089 L44.0749165,62.2684089 L44.0749165,50.6046589 C44.0749165,46.7451797 41.6424894,41.0029922 34.937729,41.0029922 C28.2329685,41.0029922 25.8005415,46.7451797 25.8005415,50.6046589 L25.8005415,62.2654922 L13.6781456,62.2684089 L13.6781456,35.7361535 L34.9916873,22.7737577 L56.1491873,35.6136535 L56.1491873,62.2684089 Z" id="Shape"></path>
                    <path d="M37.2163748,33.411638 C37.2163748,36.4508047 32.6590831,36.4508047 32.6590831,33.411638 C32.6590831,30.3724714 37.2163748,30.3724714 37.2163748,33.411638" id="Path"></path>
                </g>
            </g>
        </g>
    </g>
</svg>