<?xml version="1.0" encoding="UTF-8"?>
<svg width="30px" height="30px" viewBox="0 0 30 30" version="1.1" xmlns="http://www.w3.org/2000/svg" xmlns:xlink="http://www.w3.org/1999/xlink">
    <!-- Generator: Sketch 62 (91390) - https://sketch.com -->
    <title>ico / datos personales azul</title>
    <desc>Created with Sketch.</desc>
    <defs>
        <polygon id="path-1" points="0.0001 0.0003 72.146 0.0003 72.146 48.568 0.0001 48.568"></polygon>
    </defs>
    <g id="ico-/-datos-personales-azul" stroke="none" stroke-width="1" fill="none" fill-rule="evenodd">
        <g id="Group-3" transform="translate(-21.000000, -9.000000)">
            <mask id="mask-2" fill="white">
                <use xlink:href="#path-1"></use>
            </mask>
            <g id="Clip-2"></g>
            <path d="M29.5920495,26.1160641 C27.7287722,26.1160641 26.0847725,27.3804357 25.5942117,29.1909282 C25.4684667,29.6560698 25.73975,30.1352948 26.2015912,30.2624362 C26.2772711,30.28317 26.3545034,30.2933413 26.4297951,30.2933413 C26.810135,30.2933413 27.1594267,30.037885 27.2642142,29.6502018 C27.5498572,28.5966892 28.5065284,27.8608343 29.5920495,27.8608343 C30.6767943,27.8608343 31.6334655,28.5966892 31.9191085,29.6502018 C32.0448535,30.1153434 32.5210545,30.3891863 32.9825077,30.2624362 C33.4427966,30.1352948 33.7140798,29.6560698 33.5883348,29.1909282 C33.0985502,27.3800445 31.4545505,26.1160641 29.5920495,26.1160641 L29.5920495,26.1160641 Z M28.8181743,22.7184566 C28.8181743,23.1487811 29.1651374,23.4989087 29.5920495,23.4989087 C30.0181853,23.4989087 30.3651484,23.1487811 30.3651484,22.7184566 C30.3651484,22.2885233 30.0189616,21.9383957 29.5920495,21.9383957 C29.1651374,21.9383957 28.8181743,22.2885233 28.8181743,22.7184566 L28.8181743,22.7184566 Z M27.0868517,22.7184566 C27.0868517,21.3265525 28.2100186,20.1936254 29.5920495,20.1936254 C30.9733041,20.1936254 32.096471,21.3265525 32.096471,22.7184566 C32.096471,24.1107519 30.9733041,25.243679 29.5920495,25.243679 C28.2100186,25.243679 27.0868517,24.1107519 27.0868517,22.7184566 L27.0868517,22.7184566 Z M23.7266654,32.259533 L48.2733346,32.259533 L48.2733346,16.7396846 L23.7266654,16.7396846 L23.7266654,32.259533 Z M50,15.8700379 L50,33.1295709 C50,33.6107519 49.6126743,34 49.1356971,34 L22.8631386,34 C22.3865495,34 22,33.6107519 22,33.1295709 L22,15.8700379 C22,15.3892481 22.3865495,15 22.8631386,15 L49.1356971,15 C49.6126743,15 50,15.3892481 50,15.8700379 L50,15.8700379 Z M36.205694,22.3249053 C36.205694,22.8056951 36.5922435,23.1949432 37.0692207,23.1949432 L42.2197211,23.1949432 C42.6966984,23.1949432 43.0832479,22.8056951 43.0832479,22.3249053 C43.0832479,21.8437243 42.6966984,21.4544762 42.2197211,21.4544762 L37.0692207,21.4544762 C36.5922435,21.4544762 36.205694,21.8437243 36.205694,22.3249053 L36.205694,22.3249053 Z M45.6299726,24.7081206 L37.0692207,24.7081206 C36.5922435,24.7081206 36.205694,25.0973686 36.205694,25.5781585 C36.205694,26.0593395 36.5922435,26.4485875 37.0692207,26.4485875 L45.6299726,26.4485875 C46.107726,26.4485875 46.4942755,26.0593395 46.4942755,25.5781585 C46.4942755,25.0973686 46.107726,24.7081206 45.6299726,24.7081206 L45.6299726,24.7081206 Z M45.6299726,27.944552 L37.0692207,27.944552 C36.5922435,27.944552 36.205694,28.3334088 36.205694,28.8145899 C36.205694,29.2953797 36.5922435,29.6838453 37.0692207,29.6838453 L45.6299726,29.6838453 C46.107726,29.6838453 46.4942755,29.2953797 46.4942755,28.8145899 C46.4942755,28.3334088 46.107726,27.944552 45.6299726,27.944552 L45.6299726,27.944552 Z M35.9805949,24.523081 L36.0213456,24.4823958 L36.0213456,24.4773102 L35.9782663,24.5207338 L35.9805949,24.523081 Z M36.0252266,24.4741805 L36.0252266,24.4741805 L35.9736091,24.5262107 L36.0252266,24.4741805 Z" id="Fill-1" fill="#004571" mask="url(#mask-2)"></path>
        </g>
    </g>
</svg>