<?xml version="1.0" encoding="UTF-8"?>
<svg width="30px" height="30px" viewBox="0 0 30 30" version="1.1" xmlns="http://www.w3.org/2000/svg" xmlns:xlink="http://www.w3.org/1999/xlink">
    <!-- Generator: Sketch 63.1 (92452) - https://sketch.com -->
    <title>ico / otros azul</title>
    <desc>Created with Sketch.</desc>
    <g id="ico-/-otros-azul" stroke="none" stroke-width="1" fill="none" fill-rule="evenodd">
        <g id="ico-datos-/-infotecnica-azul" transform="translate(6.000000, 5.000000)" fill="#004571">
            <g id="Group-3" transform="translate(0.800000, 0.000000)">
                <path d="M12.2272875,6.56303872 C12.2272875,6.96449152 11.9028123,7.29026592 11.5007099,7.29026592 L6.03887312,7.29026592 C5.63871952,7.29026592 5.31197072,6.96449152 5.31197072,6.56303872 C5.31197072,6.16256032 5.63871952,5.83678592 6.03887312,5.83678592 L11.5007099,5.83678592 C11.9028123,5.83678592 12.2272875,6.16256032 12.2272875,6.56303872 L12.2272875,6.56303872 Z M12.2272875,9.56303872 C12.2272875,9.96449152 11.9028123,10.2902659 11.5007099,10.2902659 L6.03887312,10.2902659 C5.63871952,10.2902659 5.31197072,9.96449152 5.31197072,9.56303872 C5.31197072,9.16256032 5.63871952,8.83678592 6.03887312,8.83678592 L11.5007099,8.83678592 C11.9028123,8.83678592 12.2272875,9.16256032 12.2272875,9.56303872 L12.2272875,9.56303872 Z M12.2272875,3.48360992 C12.2272875,3.88473792 11.9028123,4.21051232 11.5007099,4.21051232 L6.03887312,4.21051232 C5.63871952,4.21051232 5.31197072,3.88473792 5.31197072,3.48360992 C5.31197072,3.08313152 5.63871952,2.75735712 6.03887312,2.75735712 L11.5007099,2.75735712 C11.9028123,2.75735712 12.2272875,3.08313152 12.2272875,3.48360992 L12.2272875,3.48360992 Z M13.3498971,18.5796643 C13.3498971,18.9668259 13.0345163,19.2825315 12.6463803,19.2825315 L2.18814512,19.2825315 C1.79968432,19.2825315 1.48397872,18.9668259 1.48397872,18.5796643 L1.48397872,2.18733312 C1.48397872,1.80017152 1.79968432,1.48446592 2.18814512,1.48446592 L12.6463803,1.48446592 C13.0345163,1.48446592 13.3498971,1.80017152 13.3498971,2.18733312 L13.3498971,18.5796643 Z M2.18814512,0.00012992 C0.98151312,0.00012992 -3.248e-05,0.98135072 -3.248e-05,2.18733312 L-3.248e-05,6.83944352 L-3.248e-05,12.6393971 L-3.248e-05,18.5796643 C-3.248e-05,19.7856467 0.98151312,20.7668675 2.18814512,20.7668675 L12.6463803,20.7668675 C13.8530123,20.7668675 14.8329339,19.7856467 14.8329339,18.5796643 L14.8329339,2.18733312 C14.8329339,0.98135072 13.8530123,0.00012992 12.6463803,0.00012992 L2.18814512,0.00012992 Z" id="Fill-1"></path>
            </g>
        </g>
    </g>
</svg>