<svg width="80" height="70" viewBox="0 0 80 70" fill="none" xmlns="http://www.w3.org/2000/svg">
<path fill-rule="evenodd" clip-rule="evenodd" d="M70.4601 5.6001C71.1559 5.6001 71.8601 6.15625 71.8601 6.8423V60.2179C71.8601 60.9039 71.1559 61.4601 70.4601 61.4601C69.7642 61.4601 69.0601 60.9039 69.0601 60.2179V6.8423C69.0601 6.15625 69.7642 5.6001 70.4601 5.6001Z" fill="#004571" stroke="#004571"/>
<path fill-rule="evenodd" clip-rule="evenodd" d="M62.0601 17.7302C62.0601 17.073 62.6152 16.2602 63.3001 16.2602H77.6201C78.3049 16.2602 78.8601 17.073 78.8601 17.7302C78.8601 18.3874 78.3049 19.2002 77.6201 19.2002H63.3001C62.6152 19.2002 62.0601 18.3874 62.0601 17.7302Z" fill="#004571" stroke="#004571"/>
<path fill-rule="evenodd" clip-rule="evenodd" d="M63.0601 10.4699C63.0601 9.81272 63.6152 8.99994 64.3001 8.99994H76.6201C77.3049 8.99994 77.8601 9.81272 77.8601 10.4699C77.8601 11.1272 77.3049 11.9399 76.6201 11.9399H64.3001C63.6152 11.9399 63.0601 11.1272 63.0601 10.4699Z" fill="#004571" stroke="#004571"/>
<path d="M33.0153 49.725L39.9854 43.6044C40.4315 43.8956 40.95 44.0542 41.4801 44.0589C42.1762 44.0542 42.8418 43.7843 43.3486 43.3013C43.6405 43.0386 43.8741 42.7166 44.0306 42.3544C44.1894 41.9969 44.2735 41.611 44.2828 41.218C44.2922 41.0973 44.2922 40.9789 44.2828 40.8581C44.2735 40.7232 44.2455 40.5883 44.1987 40.4604C43.9418 39.5513 43.2552 38.8316 42.3653 38.5404C41.4778 38.2492 40.5039 38.4268 39.7705 39.0115L12.2281 24.0665C12.3005 23.8558 12.3519 23.6357 12.3775 23.4131L40.5547 20.2098H50.7658C51.0134 20.2098 51.2516 20.1104 51.4268 19.9328C51.602 19.7553 51.7001 19.5138 51.7001 19.2628V9.68699C51.7001 9.43604 51.602 9.19456 51.4268 9.01698C51.2516 8.8394 51.0134 8.73999 50.7658 8.73999H39.555C39.0389 8.73999 38.6208 9.16376 38.6208 9.68697V18.5713L11.9479 21.5757C11.3361 20.624 10.222 20.1339 9.11722 20.3304C8.0148 20.5245 7.13199 21.3697 6.87273 22.4753C6.61582 23.5809 7.03155 24.7363 7.93306 25.411C8.83459 26.0881 10.0468 26.1544 11.0137 25.5815L38.7803 40.6307C38.7266 40.8224 38.6916 41.0189 38.6776 41.2178C38.6799 41.5137 38.7289 41.8073 38.8177 42.089L29.0453 49.7248H18.442V34.5198C18.442 34.2689 18.3439 34.0274 18.1687 33.8498C17.9936 33.6723 17.7553 33.5728 17.5077 33.5728H10.9678C6.32472 33.5728 2.56006 37.3892 2.56006 42.0954V59.3003C2.56006 59.5513 2.65815 59.7928 2.83332 59.9704C3.00849 60.1479 3.24672 60.2473 3.49431 60.2473H9.19308C9.6345 62.4538 11.5497 64.04 13.7708 64.04C15.9919 64.04 17.9071 62.4538 18.3485 60.2473H21.2446V61.1943C21.2446 61.4453 21.3427 61.6867 21.5179 61.8643C21.693 62.0419 21.9313 62.1413 22.1789 62.1413H29.6527C29.9003 62.1413 30.1385 62.0419 30.3137 61.8643C30.4889 61.6868 30.587 61.4453 30.587 61.1943V60.2473H32.5488C32.9902 62.4538 34.9054 64.04 37.1265 64.04C39.3476 64.04 41.2628 62.4538 41.7042 60.2473H45.7213C45.9689 60.2473 46.2071 60.1479 46.3823 59.9704C46.5575 59.7928 46.6555 59.5513 46.6555 59.3003V50.6712C46.6555 50.4202 46.5575 50.1788 46.3823 50.0012C46.2071 49.8236 45.9689 49.7242 45.7213 49.7242L33.0153 49.725ZM40.4895 18.3157V15.4217H49.8318V18.3157H40.4895ZM49.8318 10.6338V13.5277H40.4895V10.6338H49.8318ZM4.4285 46.8311H11.9023C12.2153 46.8287 12.5049 46.6701 12.6778 46.4049L14.2753 43.9901H16.5736V49.725H4.42886L4.4285 46.8311ZM16.5732 42.0962H14.7047V35.467H16.5732V42.0962ZM12.8363 35.467V42.7586L11.3976 44.9367H4.42838V42.0957C4.42838 38.4357 7.35717 35.4666 10.9683 35.4666L12.8363 35.467ZM13.7705 62.1412C12.6378 62.1412 11.6147 61.4499 11.1804 60.3869C10.7483 59.3263 10.9865 58.1047 11.7876 57.2903C12.5911 56.4783 13.7962 56.2368 14.8425 56.6748C15.8912 57.1151 16.5732 58.1521 16.5732 59.3003C16.5732 60.8698 15.319 62.1412 13.7705 62.1412ZM28.7182 60.2472H23.1128V58.3533H28.7182V60.2472ZM37.126 62.1412C35.9932 62.1412 34.9702 61.4499 34.5358 60.3869C34.1037 59.3263 34.342 58.1047 35.1431 57.2903C35.9465 56.4783 37.1517 56.2368 38.198 56.6748C39.2467 57.1151 39.9286 58.1521 39.9286 59.3003C39.9286 60.8698 38.6744 62.1412 37.126 62.1412ZM44.7863 58.3533L41.7033 58.3059C41.6473 58.0337 41.5655 57.7685 41.4604 57.5105L41.339 57.2548C41.2596 57.0796 41.1685 56.9068 41.068 56.7434L40.8625 56.4593C40.7597 56.3173 40.6476 56.1847 40.5355 56.0521L40.2926 55.8154C40.1758 55.7088 40.0544 55.607 39.9283 55.5123C39.8395 55.4389 39.7461 55.3727 39.648 55.3135C39.5009 55.2164 39.3491 55.1312 39.1902 55.0578L38.8913 54.9157C38.7114 54.8447 38.5269 54.7879 38.3401 54.7453L38.0598 54.6601C37.4736 54.5346 36.871 54.5346 36.2847 54.6601L36.0045 54.7358C35.8176 54.7784 35.6331 54.8352 35.4533 54.9063L35.1543 55.0483C34.9955 55.1217 34.8437 55.2069 34.6966 55.304C34.5985 55.3632 34.505 55.4295 34.4163 55.5029C34.2761 55.6047 34.143 55.7159 34.0146 55.8343L33.7717 56.0711C33.6596 56.2036 33.5474 56.3362 33.4447 56.4783L33.2485 56.7434C33.1481 56.9068 33.057 57.0796 32.9776 57.2548L32.8561 57.5105C32.751 57.7685 32.6693 58.0337 32.6132 58.3059H30.586V57.4063C30.586 57.1553 30.4879 56.9139 30.3127 56.7363C30.1375 56.5587 29.8993 56.4593 29.6517 56.4593H22.1779C21.6617 56.4593 21.2436 56.8831 21.2436 57.4063V58.3533H18.3475C18.2914 58.081 18.2097 57.8158 18.1046 57.5578L17.9832 57.3021C17.9037 57.1269 17.8127 56.9541 17.7122 56.7907L17.5067 56.4593C17.4039 56.3172 17.2918 56.1847 17.1797 56.0521L16.9368 55.8153C16.82 55.7088 16.6986 55.607 16.5725 55.5123C16.4837 55.4389 16.3903 55.3726 16.2922 55.3134C16.1451 55.2164 15.9932 55.1312 15.8344 55.0578L15.5355 54.9157C15.3556 54.8447 15.1711 54.7879 14.9843 54.7453L14.704 54.66C14.1178 54.5346 13.5152 54.5346 12.9289 54.66L12.6487 54.7358C12.4618 54.7784 12.2773 54.8352 12.0975 54.9062L11.7985 55.0483C11.6397 55.1217 11.4879 55.2069 11.3407 55.304C11.2427 55.3632 11.1492 55.4294 11.0605 55.5028C10.9203 55.6046 10.7872 55.7159 10.6588 55.8343L10.4159 56.071C10.3037 56.2036 10.1916 56.3362 10.0889 56.4782L9.89268 56.7434C9.79225 56.9067 9.70117 57.0796 9.62176 57.2548L9.50031 57.5104C9.39521 57.7685 9.31347 58.0337 9.25741 58.3059H4.42746V51.6183H44.7863V58.3533Z" fill="#004571" stroke="#004571" stroke-width="1.7"/>
</svg>
