<?xml version="1.0" encoding="UTF-8"?>
<svg width="30px" height="30px" viewBox="0 0 30 30" version="1.1" xmlns="http://www.w3.org/2000/svg" xmlns:xlink="http://www.w3.org/1999/xlink">
    <!-- Generator: Sketch 62 (91390) - https://sketch.com -->
    <title>ico / adjuntar info azul</title>
    <desc>Created with Sketch.</desc>
    <g id="ico-/-adjuntar-info-azul" stroke="none" stroke-width="1" fill="none" fill-rule="evenodd">
        <path d="M21.572733,6.54804652 C21.5836747,6.34117841 21.5554087,5.87300322 21.3171234,5.62016442 C21.2691016,5.57026202 21.1244284,5.41692557 20.7147237,5.41692557 L10.871475,5.41692557 C10.6304543,5.43628165 10.1557074,5.5669352 10.1557074,6.20871024 L10.1569231,6.80935361 C10.1569231,6.81449506 10.1557074,6.81933408 10.1557074,6.8241731 L18.0987525,6.8241731 C19.2436768,6.8241731 20.1731109,7.7496357 20.1731109,8.88831762 L20.1731109,21.7991257 C20.1731109,21.9582085 20.1196183,22.1115449 20.0196236,22.2367546 L19.1731638,23.2892414 L20.2992441,23.2892414 C21.0013346,23.2892414 21.572733,22.7206566 21.572733,22.0217206 L21.572733,6.54804652 Z M7.40722044,8.88831762 L7.40722044,23.9349482 C7.40722044,24.3015039 7.70781246,24.5997086 8.07557417,24.5997086 L15.2484473,24.5997086 L15.2484473,21.7991257 C15.2484473,21.4126089 15.56454,21.0992824 15.9526654,21.0992824 L18.7674102,21.0992824 L18.7674102,8.88831762 C18.7674102,8.52206428 18.4668182,8.22416211 18.0987525,8.22416211 L8.07557417,8.22416211 C7.70781246,8.22416211 7.40722044,8.52206428 7.40722044,8.88831762 L7.40722044,8.88831762 Z M16.6553638,24.1787138 L18.0060523,22.4986665 L16.6553638,22.4986665 L16.6553638,24.1787138 Z M22.9966699,22.0217206 C22.9966699,23.5018559 21.7863995,24.706167 20.2992441,24.706167 L18.1239791,24.706167 C18.0957132,24.706167 18.0686629,24.7010255 18.0410048,24.6976987 L17.2057906,25.7371807 C17.0714512,25.9032196 16.8693342,26 16.6553638,26 L8.07557417,26 C6.93125776,26 6,25.0739325 6,23.9349482 L6,8.88831762 C6,7.7496357 6.93125776,6.8241731 8.07557417,6.8241731 L8.73420197,6.8241731 C8.73420197,6.81933408 8.73237835,6.81449506 8.73237835,6.80935361 L8.73146655,6.20871024 C8.73146655,4.66234088 9.9906705,4.04113167 10.8368264,4.00090732 L20.7147237,4 C21.5690858,4 22.0833443,4.35869236 22.3638766,4.65992137 C23.062016,5.40875973 23.0039643,6.48090512 22.9951502,6.6009733 L22.9966699,22.0217206 Z" id="Fill-1" fill="#004571"></path>
    </g>
</svg>