<?xml version="1.0" encoding="UTF-8"?>
<svg width="30px" height="30px" viewBox="0 0 30 30" version="1.1" xmlns="http://www.w3.org/2000/svg" xmlns:xlink="http://www.w3.org/1999/xlink">
    <!-- Generator: Sketch 63.1 (92452) - https://sketch.com -->
    <title>ico / comunicar azul</title>
    <desc>Created with Sketch.</desc>
    <g id="ico-/-comunicar-azul" stroke="none" stroke-width="1" fill="none" fill-rule="evenodd">
        <g id="Group-3" transform="translate(5.000000, 7.000000)" fill="#004571">
            <path d="M13.6494728,8.447092 C13.6494728,8.873996 13.3030648,9.221092 12.8761608,9.221092 L5.7374728,9.221092 C5.3105688,9.221092 4.9641608,8.873996 4.9641608,8.447092 C4.9641608,8.0195 5.3105688,7.673092 5.7374728,7.673092 L12.8761608,7.673092 C13.3030648,7.673092 13.6494728,8.0195 13.6494728,8.447092 L13.6494728,8.447092 Z M13.6494728,5.367948 C13.6494728,5.794852 13.3030648,6.141948 12.8761608,6.141948 L5.7374728,6.141948 C5.3105688,6.141948 4.9641608,5.794852 4.9641608,5.367948 C4.9641608,4.940356 5.3105688,4.593948 5.7374728,4.593948 L12.8761608,4.593948 C13.3030648,4.593948 13.6494728,4.940356 13.6494728,5.367948 L13.6494728,5.367948 Z M17.0426888,6.937276 C17.0351208,6.983028 17.0299608,7.029468 17.0299608,7.077284 C17.0299608,7.1251 17.0351208,7.170852 17.0426888,7.215916 L17.0426888,12.3969 C17.0426888,12.578188 16.8958008,12.725076 16.7152008,12.725076 L8.6212248,12.725076 C8.4117288,12.725076 8.2115208,12.80798 8.0646328,12.955556 L6.2837448,14.742292 L6.2837448,13.510772 C6.2837448,13.077332 5.9321768,12.725076 5.4980488,12.725076 L2.3160488,12.725076 C1.9049688,12.725076 1.5709448,12.390708 1.5709448,11.97894 L1.5709448,2.315636 C1.5709448,1.9049 1.9049688,1.570876 2.3160488,1.570876 L16.2972408,1.570876 C16.7086648,1.570876 17.0426888,1.9049 17.0426888,2.315636 L17.0426888,6.937276 Z M16.2972408,-0.000172 L2.3160488,-0.000172 C1.0394648,-0.000172 -0.0001032,1.039052 -0.0001032,2.315636 L-0.0001032,11.97894 C-0.0001032,13.2569 1.0394648,14.296124 2.3160488,14.296124 L4.7130408,14.296124 L4.7130408,16.644268 C4.7130408,16.962468 4.9049928,17.248676 5.1980808,17.370108 C5.2954328,17.411044 5.3972568,17.429276 5.4980488,17.429276 C5.7030728,17.429276 5.9046568,17.349812 6.0546408,17.198108 L8.9476808,14.296124 L16.7152008,14.296124 C17.7623368,14.296124 18.6137368,13.444036 18.6137368,12.3969 L18.6137368,2.315636 C18.6137368,1.039052 17.5745128,-0.000172 16.2972408,-0.000172 L16.2972408,-0.000172 Z" id="Fill-1"></path>
        </g>
    </g>
</svg>