<?xml version="1.0" encoding="UTF-8"?>
<svg width="30px" height="30px" viewBox="0 0 30 30" version="1.1" xmlns="http://www.w3.org/2000/svg" xmlns:xlink="http://www.w3.org/1999/xlink">
    <!-- Generator: Sketch 63.1 (92452) - https://sketch.com -->
    <title>ico / contador azul</title>
    <desc>Created with Sketch.</desc>
    <g id="ico-/-contador-azul" stroke="none" stroke-width="1" fill="none" fill-rule="evenodd">
        <g id="Group"></g>
        <g id="Group-3" transform="translate(4.000000, 4.000000)" fill="#004571">
            <path d="M15.10167,14.79243 C15.10167,14.42643 14.81037,14.12853 14.44707,14.11773 C14.44047,14.11743 14.43327,14.11743 14.42577,14.11743 C14.42577,14.11743 10.47987,14.11743 9.72657,14.11773 L9.53097,14.11773 L9.32367,14.11773 C8.60397,14.11743 7.17327,14.11743 7.17327,14.11743 C7.16637,14.11743 7.15947,14.11743 7.15287,14.11773 C6.78927,14.12853 6.49827,14.42643 6.49827,14.79243 C6.49827,15.16053 6.79317,15.45993 7.15947,15.46743 C7.16277,15.46743 8.60157,15.46743 9.32367,15.46713 L9.53097,15.46713 L9.72657,15.46713 C10.48257,15.46743 14.43687,15.46743 14.44047,15.46743 C14.80707,15.45993 15.10167,15.16053 15.10167,14.79243 L15.10167,14.79243 Z M16.45167,14.79243 C16.45167,15.90483 15.55437,16.80813 14.44407,16.81743 L14.42577,16.81743 C14.42577,16.81743 10.24257,16.81743 9.57297,16.81743 L9.49077,16.81743 C8.85837,16.81743 7.17327,16.81743 7.17327,16.81743 L7.15617,16.81743 C6.04557,16.80813 5.14827,15.90483 5.14827,14.79243 C5.14827,13.68183 6.04227,12.78033 7.14957,12.76743 C7.15767,12.76743 7.16547,12.76743 7.17417,12.76743 C7.17417,12.76743 8.85837,12.76743 9.49077,12.76743 L9.57297,12.76743 C10.24257,12.76743 14.42667,12.76743 14.42667,12.76743 C14.43447,12.76743 14.44257,12.76743 14.45037,12.76743 C15.55797,12.78033 16.45167,13.68183 16.45167,14.79243 L16.45167,14.79243 Z M20.24997,10.80003 C20.24997,5.58093 16.01907,1.35003 10.79997,1.35003 C5.58117,1.35003 1.34997,5.58093 1.34997,10.80003 C1.34997,16.01913 5.58117,20.25003 10.79997,20.25003 C16.01907,20.25003 20.24997,16.01913 20.24997,10.80003 L20.24997,10.80003 Z M21.59997,10.80003 C21.59997,16.76463 16.76487,21.60003 10.79997,21.60003 C4.83507,21.60003 -3e-05,16.76463 -3e-05,10.80003 C-3e-05,4.83543 4.83507,3e-05 10.79997,3e-05 C16.76487,3e-05 21.59997,4.83543 21.59997,10.80003 L21.59997,10.80003 Z M17.06127,7.94853 C16.68687,7.94853 16.38297,8.25153 16.38297,8.62593 L16.38297,10.10943 C16.38297,10.48353 16.68687,10.78683 17.06127,10.78683 C17.43627,10.78683 17.73987,10.48353 17.73987,10.10943 L17.73987,8.62593 C17.73987,8.25153 17.43627,7.94853 17.06127,7.94853 L17.06127,7.94853 Z M10.12137,8.62593 L10.12137,10.10943 C10.12137,10.48353 10.42557,10.78683 10.79997,10.78683 C11.17497,10.78683 11.47857,10.48353 11.47857,10.10943 L11.47857,8.62593 C11.47857,8.25153 11.17497,7.94853 10.79997,7.94853 C10.42557,7.94853 10.12137,8.25153 10.12137,8.62593 L10.12137,8.62593 Z M14.29557,8.62593 L14.29557,10.10943 C14.29557,10.48353 14.59977,10.78683 14.97417,10.78683 C15.34917,10.78683 15.65277,10.48353 15.65277,10.10943 L15.65277,8.62593 C15.65277,8.25153 15.34917,7.94853 14.97417,7.94853 C14.59977,7.94853 14.29557,8.25153 14.29557,8.62593 L14.29557,8.62593 Z M12.20847,8.62593 L12.20847,10.10943 C12.20847,10.48353 12.51267,10.78683 12.88707,10.78683 C13.26207,10.78683 13.56567,10.48353 13.56567,10.10943 L13.56567,8.62593 C13.56567,8.25153 13.26207,7.94853 12.88707,7.94853 C12.51267,7.94853 12.20847,8.25153 12.20847,8.62593 L12.20847,8.62593 Z M8.03427,8.62593 L8.03427,10.10943 C8.03427,10.48353 8.33847,10.78683 8.71287,10.78683 C9.08787,10.78683 9.39147,10.48353 9.39147,10.10943 L9.39147,8.62593 C9.39147,8.25153 9.08787,7.94853 8.71287,7.94853 C8.33847,7.94853 8.03427,8.25153 8.03427,8.62593 L8.03427,8.62593 Z M5.94717,8.62593 L5.94717,10.10943 C5.94717,10.48353 6.25077,10.78683 6.62517,10.78683 C7.00017,10.78683 7.30377,10.48353 7.30377,10.10943 L7.30377,8.62593 C7.30377,8.25153 7.00017,7.94853 6.62517,7.94853 C6.25077,7.94853 5.94717,8.25153 5.94717,8.62593 L5.94717,8.62593 Z M5.21667,8.62593 C5.21667,8.25153 4.91307,7.94853 4.53807,7.94853 C4.16367,7.94853 3.86007,8.25153 3.86007,8.62593 L3.86007,10.10943 C3.86007,10.48353 4.16367,10.78683 4.53807,10.78683 C4.91307,10.78683 5.21667,10.48353 5.21667,10.10943 L5.21667,8.62593 Z M5.65497,4.96113 C5.65497,4.58613 5.95827,4.28283 6.33297,4.28283 L15.26727,4.28283 C15.64167,4.28283 15.94527,4.58613 15.94527,4.96113 C15.94527,5.33613 15.64167,5.63943 15.26727,5.63943 L6.33297,5.63943 C5.95827,5.63943 5.65497,5.33613 5.65497,4.96113 L5.65497,4.96113 Z" id="Fill-1"></path>
        </g>
    </g>
</svg>