<?xml version="1.0" encoding="UTF-8"?>
<svg width="53px" height="50px" viewBox="0 0 53 50" version="1.1" xmlns="http://www.w3.org/2000/svg" xmlns:xlink="http://www.w3.org/1999/xlink">
    <!-- Generator: Sketch 63.1 (92452) - https://sketch.com -->
    <title>Group 3</title>
    <desc>Created with Sketch.</desc>
    <g id="Mi-conexión-a-la-red" stroke="none" stroke-width="1" fill="none" fill-rule="evenodd">
        <g id="InformarFraude" transform="translate(-29.000000, -40.000000)" fill="#004571">
            <g id="Group-3" transform="translate(29.000000, 40.000000)">
                <path d="M32.69376,0 C30.9852,0 29.59272,1.3896 29.59272,3.10104 L29.59272,13.34088 C29.59272,15.04872 30.9852,16.4412 32.69376,16.4412 L34.14096,16.4412 L36.58752,19.17864 C36.88992,19.51704 37.31616,19.71432 37.76904,19.728 L37.81368,19.728 C38.25,19.728 38.6676,19.55592 38.9772,19.24704 L41.78376,16.4412 L49.51008,16.4412 C51.22008,16.4412 52.61184,15.04872 52.61184,13.34088 L52.61184,3.10104 C52.61184,1.3896 51.22008,0 49.51008,0 L32.69376,0 Z M32.8824,3.2868 L49.32432,3.2868 L49.32432,13.15368 L41.10336,13.15368 C40.6656,13.15368 40.248,13.32432 39.94128,13.63464 L37.88136,15.69096 L36.10224,13.70088 C35.79192,13.3524 35.34624,13.15368 34.87752,13.15368 L32.8824,13.15368 L32.8824,3.2868 Z M13.21128,11.06784 C11.69568,11.87712 10.47384,12.99456 9.57384,14.38776 C8.65512,15.81264 8.18856,17.36856 8.18856,19.01088 C8.18856,21.96864 9.13176,24.49008 10.99224,26.50248 C12.88656,28.55232 15.27336,29.59344 18.08568,29.59344 C20.89512,29.59344 23.2848,28.55232 25.17768,26.50248 C27.0396,24.48864 27.97992,21.96864 27.97992,19.01088 C27.97992,17.37 27.51624,15.81408 26.59464,14.38776 C25.69752,12.99456 24.47424,11.87712 22.96008,11.06784 C21.45384,10.26144 19.81512,9.85392 18.08568,9.85392 C16.35768,9.85392 14.71608,10.26144 13.21128,11.06784 L13.21128,11.06784 Z M13.40712,24.27048 C12.10896,22.86504 11.47608,21.14568 11.47608,19.01088 C11.47608,17.99496 11.75904,17.06616 12.3372,16.16904 C12.93768,15.2388 13.73184,14.5188 14.76288,13.96656 C15.8004,13.41144 16.88904,13.14216 18.08568,13.14216 C19.28232,13.14216 20.37096,13.41144 21.40848,13.96656 C22.43808,14.5188 23.23224,15.2388 23.83128,16.17048 C24.41232,17.0676 24.69528,17.9964 24.69528,19.01088 C24.69528,21.14568 24.06096,22.86504 22.7628,24.27048 C21.49848,25.63848 19.96848,26.30448 18.08568,26.30448 C16.20288,26.30448 14.67144,25.63848 13.40712,24.27048 L13.40712,24.27048 Z M5.75424,35.82936 C2.52432,37.89864 0.68616,40.91328 0.28944,44.78688 L0.00864,47.51064 C-0.08136,48.4128 0.57384,49.22064 1.47672,49.3128 C1.53576,49.32 1.59192,49.32288 1.64664,49.32288 C2.47896,49.32288 3.1932,48.69072 3.28032,47.84688 L3.5604,45.12168 C3.85416,42.25392 5.15232,40.122 7.5276,38.59776 C10.04472,36.9864 13.64184,36.1692 18.21672,36.1692 C22.7952,36.1692 26.39232,36.98352 28.90944,38.59128 C31.28472,40.10472 32.58144,42.23592 32.8752,45.10224 L33.15528,47.844 C33.24672,48.74616 34.0524,49.40568 34.95528,49.3128 C35.8596,49.22064 36.51768,48.41568 36.4248,47.51064 L36.14616,44.76672 C35.748,40.89168 33.90912,37.87992 30.67704,35.81856 C27.62424,33.86952 23.4324,32.87952 18.21672,32.87952 C13.00176,32.87952 8.80848,33.87384 5.75424,35.82936 L5.75424,35.82936 Z" id="Fill-1"></path>
            </g>
        </g>
    </g>
</svg>