<svg width="70" height="70" viewBox="0 0 70 70" fill="none" xmlns="http://www.w3.org/2000/svg">
<path d="M23.42 37.7133C25.6483 39.9419 28.6097 41.2653 31.7542 41.443L31.7553 41.4421C32.9119 41.5078 33.7979 42.4976 33.7322 43.657C33.6693 44.7753 32.7424 45.6394 31.6377 45.6394C31.5967 45.6394 31.5584 45.6394 31.5174 45.6366C27.9463 45.437 24.5639 44.1136 21.8049 41.8878C21.7923 41.9035 21.78 41.9196 21.7676 41.9358C21.7367 41.9763 21.7052 42.0175 21.6682 42.0546L14.2195 49.448C13.8093 49.8554 13.2761 50.0577 12.7402 50.0577C12.1988 50.0577 11.6601 49.8499 11.2499 49.437C10.4323 48.614 10.4378 47.2851 11.2609 46.4675L18.7096 39.0741C18.7628 39.0232 18.82 38.9801 18.8777 38.9365C18.8882 38.9286 18.8987 38.9207 18.9092 38.9128C16.6807 35.9763 15.4693 32.4107 15.4693 28.6592C15.4693 24.1148 17.2385 19.846 20.4513 16.6332C21.2717 15.8128 22.6006 15.8128 23.4209 16.6332L27.1861 20.3984L34.2295 13.355C35.0498 12.5347 36.3787 12.5347 37.1991 13.355C38.0194 14.1753 38.0194 15.5042 37.1991 16.3245L30.1578 23.3658L37.7647 30.9755L44.8661 23.9293C45.6892 23.1118 47.0181 23.1172 47.8357 23.9403C48.6533 24.7633 48.6478 26.0922 47.8248 26.9098L40.3761 34.3032C40.3761 34.3032 40.3726 34.3059 40.3706 34.3073C40.3685 34.3087 40.3651 34.3114 40.3651 34.3114C40.4061 34.8993 40.212 35.4981 39.7636 35.9465C38.9432 36.7669 37.6143 36.7669 36.794 35.9465L22.0583 21.208C20.5079 23.3685 19.6712 25.9498 19.6712 28.6595C19.6712 32.0805 21.0029 35.2962 23.42 37.7133Z" fill="#004571"/>
<path fill-rule="evenodd" clip-rule="evenodd" d="M53.618 38.6595H56.9554C58.3017 38.6595 59.3944 39.7774 59.4004 41.1514V54.6216C59.4004 56.0018 58.3077 57.1198 56.9614 57.1198H38.4191C37.0729 57.1198 35.9801 55.9956 35.9801 54.6216V41.1514C35.9801 39.7774 37.0729 38.6595 38.4191 38.6595H41.7565V37.5229C41.7565 37.0607 42.3971 36.2597 43.1436 36.2597C43.8901 36.2597 44.5307 37.0545 44.5307 37.5229V38.6595H50.8439V37.5229C50.8439 37.0607 51.3801 36.2597 52.2309 36.2597C53.0817 36.2597 53.618 37.0545 53.618 37.5229V38.6595ZM55.4154 53.7473C55.8501 53.7473 56.2002 53.385 56.2002 52.9416H56.2063V42.9714C56.2063 42.5342 55.8561 42.172 55.4214 42.172H53.6241V43.0963C53.6241 43.5585 53.0938 44.3594 52.237 44.3594C51.3801 44.3594 50.8499 43.5647 50.8499 43.0963V42.172H44.5307V43.0963C44.5307 43.5585 43.9601 44.3594 43.1436 44.3594C42.3271 44.3594 41.7565 43.5647 41.7565 43.0963V42.172H39.9591C39.5245 42.172 39.1743 42.528 39.1743 42.9714V52.9416C39.1743 53.385 39.5245 53.7473 39.9591 53.7473H55.4154Z" fill="#004571"/>
</svg>
