<?xml version="1.0" encoding="UTF-8"?>
<svg width="30px" height="30px" viewBox="0 0 30 30" version="1.1" xmlns="http://www.w3.org/2000/svg" xmlns:xlink="http://www.w3.org/1999/xlink">
    <!-- Generator: Sketch 62 (91390) - https://sketch.com -->
    <title>ico / datos anonimo azul</title>
    <desc>Created with Sketch.</desc>
    <g id="ico-/-datos-anonimo-azul" stroke="none" stroke-width="1" fill="none" fill-rule="evenodd">
        <path d="M9.96769689,4.89749284 C8.83932077,5.97029889 8.18055783,7.36141827 8.0082896,9.03293867 C7.96148175,9.48413282 8.11456644,9.93682844 8.42533987,10.2742856 C8.74033368,10.613995 9.19076331,10.8088118 9.65884181,10.8088118 L11.9505081,10.8088118 C12.005373,10.8088118 12.059087,10.8121901 12.1101152,10.8136916 C12.181478,10.8174453 12.2509224,10.8200729 12.3146118,10.8200729 C13.3570456,10.8200729 13.5557871,10.0332984 13.5922359,9.79193581 C13.6559253,9.36401458 13.7963488,8.99465098 14.0204126,8.66395045 C14.2667293,8.29909129 14.5544825,8.14293758 14.9815082,8.14293758 C15.4971619,8.14293758 15.8658696,8.2694371 16.1110353,8.53219576 C16.1992797,8.62528739 16.468233,8.9131958 16.3903478,9.64028653 C16.3604214,9.89253484 16.2660384,10.0719615 16.0818764,10.2224846 C15.96102,10.3219576 15.8179108,10.4120462 15.6521649,10.5182758 C15.4553418,10.6436492 15.2305106,10.7862896 14.9765205,10.9829832 C14.5184174,11.3392089 14.0568613,11.7333469 13.607199,12.1548868 C13.0999861,12.6297293 12.669891,13.2273175 12.329575,13.9303846 C11.9788997,14.6548477 11.8012601,15.4626429 11.8012601,16.3331248 L11.8012601,16.8094687 C11.8012601,17.701722 12.5455817,18.4276866 13.4591021,18.4276866 L15.7346542,18.4276866 C16.6489419,18.4276866 17.3932635,17.701722 17.3932635,16.8094687 C17.3932635,16.4874017 17.5018424,16.1724666 17.7251388,15.8455198 C18.0044512,15.4382439 18.3447673,15.0546163 18.7361116,14.7066487 C19.1922963,14.3031265 19.6553871,13.8733284 20.1104208,13.4285156 C20.6241562,12.9285234 21.067296,12.3162957 21.4283304,11.6087242 C21.8081645,10.8647419 22,10.0516915 22,9.19096924 C22,7.41922517 21.3113107,5.92187622 19.9542668,4.74021302 C18.6263818,3.5859518 16.9539603,3 14.9815082,3 C12.9779788,3 11.2909778,3.63850353 9.96769689,4.89749284 M11.1885377,6.1264526 C12.187233,5.17639239 13.4284084,4.71393716 14.9815082,4.71393716 C16.5326897,4.71393716 17.7788528,5.14223376 18.7898256,6.02209988 C19.7708721,6.87531476 20.2481587,7.91208533 20.2481587,9.19096924 C20.2481587,9.79193581 20.1215473,10.3320925 19.8598837,10.8429704 C19.5847917,11.3842532 19.252149,11.8444563 18.8746168,12.2145706 C18.4376157,12.6394889 17.9956268,13.0505185 17.5609277,13.4356476 C17.0617718,13.8785836 16.6263054,14.3676901 16.2683404,14.8920813 C15.8727757,15.4731533 15.6621404,16.0861317 15.6425732,16.7141248 L13.5542525,16.7141248 L13.5542525,16.3331248 C13.5542525,15.7190203 13.6747251,15.1567168 13.9129848,14.6646073 C14.1612198,14.1514772 14.4670055,13.7231806 14.8192154,13.3921047 C15.2297433,13.0084771 15.6494793,12.6499992 16.0653785,12.3260553 C16.2556793,12.1796612 16.4344699,12.0655489 16.6071218,11.9551903 C16.8031777,11.8313183 17.0049885,11.7025666 17.2071831,11.5370286 C17.7393346,11.1008493 18.0508754,10.5280354 18.13183,9.82722055 C18.2392578,8.83061451 17.9933248,8.00442623 17.4036226,7.37267936 C16.8162225,6.74656302 16.0024565,6.42900042 14.9815082,6.42900042 C13.9670824,6.42900042 13.1283778,6.87531476 12.5582428,7.7180193 C12.2773957,8.13430408 12.0717481,8.59600857 11.9474387,9.09525001 L9.76396764,9.09525001 C9.91014625,7.87004395 10.3766901,6.89746156 11.1885377,6.1264526 M11.5000785,23.5713749 C11.5000785,25.4617358 13.0723618,27 15.0049121,27 C16.9366951,27 18.5089785,25.4617358 18.5089785,23.5713749 C18.5089785,21.6810141 16.9366951,20.1427499 15.0049121,20.1427499 C13.0723618,20.1427499 11.5000785,21.6810141 11.5000785,23.5713749 M13.2530708,23.5713749 C13.2530708,22.6258192 14.0388288,21.8570624 15.0049121,21.8570624 C15.9706118,21.8570624 16.7567535,22.6258192 16.7567535,23.5713749 C16.7567535,24.5169307 15.9706118,25.2849367 15.0049121,25.2849367 C14.0388288,25.2849367 13.2530708,24.5169307 13.2530708,23.5713749" id="Fill-1" fill="#004571"></path>
    </g>
</svg>