<?xml version="1.0" encoding="UTF-8"?>
<svg width="30px" height="30px" viewBox="0 0 30 30" version="1.1" xmlns="http://www.w3.org/2000/svg" xmlns:xlink="http://www.w3.org/1999/xlink">
    <!-- Generator: Sketch 63.1 (92452) - https://sketch.com -->
    <title>ico / infotecnica azul</title>
    <desc>Created with Sketch.</desc>
    <g id="ico-/-infotecnica-azul" stroke="none" stroke-width="1" fill="none" fill-rule="evenodd">
        <g id="ico-datos-/-infotecnica-azul" transform="translate(6.000000, 4.000000)" fill="#004571">
            <g id="Group-3" transform="translate(0.933333, 0.000000)">
                <path d="M12.0483628,14.8228913 L3.39310517,14.8228913 C2.97389664,14.8228913 2.63158837,14.4816038 2.63158837,14.0610342 C2.63158837,13.6414854 2.97389664,13.300198 3.39310517,13.300198 L12.0483628,13.300198 C12.4696129,13.300198 12.8095393,13.6414854 12.8095393,14.0610342 C12.8095393,14.4816038 12.4696129,14.8228913 12.0483628,14.8228913 Z M12.0483628,17.7562246 L3.39310517,17.7562246 C2.97389664,17.7562246 2.63158837,17.4149372 2.63158837,16.9943676 C2.63158837,16.5748188 2.97389664,16.2335313 3.39310517,16.2335313 L12.0483628,16.2335313 C12.4696129,16.2335313 12.8095393,16.5748188 12.8095393,16.9943676 C12.8095393,17.4149372 12.4696129,17.7562246 12.0483628,17.7562246 Z M4.07979851,10.8634897 L3.56599584,10.8634897 C3.14644704,10.8634897 2.80447904,10.5222022 2.80447904,10.1016326 C2.80447904,9.68208384 3.14644704,9.34079637 3.56599584,9.34079637 L4.07979851,9.34079637 C4.50104864,9.34079637 4.84063477,9.68208384 4.84063477,10.1016326 C4.84063477,10.5222022 4.50104864,10.8634897 4.07979851,10.8634897 Z M12.8095393,10.1016326 C12.8095393,10.5222022 12.4696129,10.8634897 12.0483628,10.8634897 L6.32643851,10.8634897 C5.90722997,10.8634897 5.56492171,10.5222022 5.56492171,10.1016326 C5.56492171,9.68208384 5.90722997,9.34079637 6.32643851,9.34079637 L12.0483628,9.34079637 C12.4696129,9.34079637 12.8095393,9.68208384 12.8095393,10.1016326 L12.8095393,10.1016326 Z M4.07979851,7.63742144 L3.56599584,7.63742144 C3.14644704,7.63742144 2.80447904,7.29613397 2.80447904,6.87556437 C2.80447904,6.45601557 3.14644704,6.11472811 3.56599584,6.11472811 L4.07979851,6.11472811 C4.50104864,6.11472811 4.84063477,6.45601557 4.84063477,6.87556437 C4.84063477,7.29613397 4.50104864,7.63742144 4.07979851,7.63742144 Z M12.8095393,6.87556437 C12.8095393,7.29613397 12.4696129,7.63742144 12.0483628,7.63742144 L6.32643851,7.63742144 C5.90722997,7.63742144 5.56492171,7.29613397 5.56492171,6.87556437 C5.56492171,6.45601557 5.90722997,6.11472811 6.32643851,6.11472811 L12.0483628,6.11472811 C12.4696129,6.11472811 12.8095393,6.45601557 12.8095393,6.87556437 L12.8095393,6.87556437 Z M4.07979851,4.41101291 L3.56599584,4.41101291 C3.14644704,4.41101291 2.80447904,4.06972544 2.80447904,3.64949611 C2.80447904,3.22994731 3.14644704,2.88865984 3.56599584,2.88865984 L4.07979851,2.88865984 C4.50104864,2.88865984 4.84063477,3.22994731 4.84063477,3.64949611 C4.84063477,4.06972544 4.50104864,4.41101291 4.07979851,4.41101291 Z M12.8095393,3.64949611 C12.8095393,4.06972544 12.4696129,4.41101291 12.0483628,4.41101291 L6.32643851,4.41101291 C5.90722997,4.41101291 5.56492171,4.06972544 5.56492171,3.64949611 C5.56492171,3.22994731 5.90722997,2.88865984 6.32643851,2.88865984 L12.0483628,2.88865984 C12.4696129,2.88865984 12.8095393,3.22994731 12.8095393,3.64949611 L12.8095393,3.64949611 Z M13.9856065,19.4644102 C13.9856065,19.8700081 13.6552076,20.2007473 13.2485889,20.2007473 L2.29234251,20.2007473 C1.88538357,20.2007473 1.55464437,19.8700081 1.55464437,19.4644102 L1.55464437,2.29149184 C1.55464437,1.88589397 1.88538357,1.55515477 2.29234251,1.55515477 L13.2485889,1.55515477 C13.6552076,1.55515477 13.9856065,1.88589397 13.9856065,2.29149184 L13.9856065,19.4644102 Z M2.29234251,0.000136106667 C1.02825184,0.000136106667 -3.40266667e-05,1.02808171 -3.40266667e-05,2.29149184 L-3.40266667e-05,7.16513131 L-3.40266667e-05,13.2412732 L-3.40266667e-05,19.4644102 C-3.40266667e-05,20.7278204 1.02825184,21.755766 2.29234251,21.755766 L13.2485889,21.755766 C14.5126796,21.755766 15.5392641,20.7278204 15.5392641,19.4644102 L15.5392641,2.29149184 C15.5392641,1.02808171 14.5126796,0.000136106667 13.2485889,0.000136106667 L2.29234251,0.000136106667 Z" id="Fill-1"></path>
            </g>
        </g>
    </g>
</svg>