<?xml version="1.0" encoding="UTF-8"?>
<svg width="30px" height="30px" viewBox="0 0 30 30" version="1.1" xmlns="http://www.w3.org/2000/svg" xmlns:xlink="http://www.w3.org/1999/xlink">
    <!-- Generator: Sketch 63.1 (92452) - https://sketch.com -->
    <title>ico / electrodomestico azul</title>
    <desc>Created with Sketch.</desc>
    <defs>
        <polygon id="path-1" points="0 0 15.3130213 0 15.3130213 21.168 0 21.168"></polygon>
    </defs>
    <g id="ico-/-electrodomestico-azul" stroke="none" stroke-width="1" fill="none" fill-rule="evenodd">
        <g id="Group-3" transform="translate(7.000000, 5.000000)">
            <mask id="mask-2" fill="white">
                <use xlink:href="#path-1"></use>
            </mask>
            <g id="Clip-2"></g>
            <path d="M11.1002848,6.08105013 L11.1002848,6.08074492 L11.1089093,3.97447475 C11.1089093,3.59204372 11.4224697,3.28194801 11.8087219,3.28255753 C12.1943581,3.28255753 12.5063784,3.59265414 12.5063784,3.97508517 L12.5063784,3.97539038 L12.497754,6.08166056 C12.497754,6.46409159 12.1848096,6.7741873 11.7991734,6.77357777 C11.4135372,6.77357777 11.1002848,6.46348116 11.1002848,6.08105013 L11.1002848,6.08105013 Z M12.5063784,10.360432 L12.5063784,10.360432 L12.497754,13.6878566 C12.497754,14.0702877 12.1848096,14.3800781 11.7991734,14.3794686 C11.4135372,14.3794686 11.1002848,14.0696772 11.1002848,13.6872462 L11.1002848,13.686941 L11.1089093,10.3598216 C11.1089093,9.97739053 11.4224697,9.66729482 11.8087219,9.66790434 C12.1943581,9.66790434 12.5063784,9.97800095 12.5063784,10.360432 L12.5063784,10.360432 Z M12.8211709,19.0583725 L2.54144098,19.0629507 C1.90477167,19.0629507 1.38607253,18.5492784 1.38607253,17.9187097 L1.38607253,8.67932256 C1.39931722,8.67993298 1.4122539,8.68237468 1.42580661,8.68237468 L13.9269487,8.68756329 L13.9269487,17.9187097 C13.9269487,18.5327969 13.435355,19.0309034 12.8211709,19.0583725 L12.8211709,19.0583725 Z M1.38607253,4.96946689 L1.38607253,2.5183068 C1.38607253,1.88682252 1.90477167,1.37345541 2.54144098,1.37345541 L12.7712723,1.37345541 C13.4085576,1.37345541 13.9269487,1.88682252 13.9269487,2.5183068 L13.9269487,4.96946689 L13.9269487,6.18390668 L13.9269487,7.83113754 L1.42703867,7.82625414 L1.42611462,7.82625414 C1.41256191,7.82625414 1.39962524,7.82869584 1.38607253,7.82961148 L1.38607253,6.18390668 L1.38607253,4.96946689 Z M12.7712723,0 L2.54144098,0 C1.13935162,0 0,1.12959077 0,2.5183068 L0,17.9187097 C0,19.225934 1.00998485,20.3027231 2.2990323,20.4241976 C2.29872428,20.433354 2.29595214,20.4425103 2.29595214,20.4519719 C2.29595214,20.8472219 2.61967708,21.168 3.01855795,21.168 C3.41805485,21.168 3.74085575,20.8472219 3.74085575,20.4519719 C3.74085575,20.4464781 3.7399317,20.4415947 3.73962368,20.4364061 L11.5727816,20.4364061 C11.5724735,20.4415947 11.5709335,20.4464781 11.5709335,20.4519719 C11.5709335,20.8472219 11.8946584,21.168 12.2935393,21.168 C12.6927282,21.168 13.0164531,20.8472219 13.0164531,20.4519719 C13.0164531,20.4425103 13.013989,20.433354 13.013681,20.4241976 C14.3021124,20.3027231 15.3130213,19.225934 15.3130213,17.9187097 L15.3130213,2.5183068 C15.3130213,1.12959077 14.1727456,0 12.7712723,0 L12.7712723,0 Z" id="Fill-1" fill="#004571" mask="url(#mask-2)"></path>
        </g>
    </g>
</svg>