<?xml version="1.0" encoding="UTF-8"?>
<svg width="30px" height="30px" viewBox="0 0 30 30" version="1.1" xmlns="http://www.w3.org/2000/svg" xmlns:xlink="http://www.w3.org/1999/xlink">
    <!-- Generator: Sketch 63.1 (92452) - https://sketch.com -->
    <title>ico / dinero azul</title>
    <desc>Created with Sketch.</desc>
    <g id="ico-/-dinero-azul" stroke="none" stroke-width="1" fill="none" fill-rule="evenodd">
        <g id="Group"></g>
        <g id="Group-3" transform="translate(5.000000, 10.000000)" fill="#004571">
            <path d="M12.88068,4.76808 L16.04658,4.76808 C16.15908,4.76808 16.24968,4.85958 16.24968,4.97178 C16.24968,5.08428 16.15908,5.17518 16.04658,5.17518 L12.81618,5.17518 C12.81198,5.23518 12.80868,5.29518 12.80868,5.35608 C12.80868,5.49798 12.82158,5.63688 12.84498,5.77188 L15.14178,5.77188 C15.25428,5.77188 15.34578,5.86308 15.34578,5.97528 C15.34578,6.08748 15.25428,6.17898 15.14178,6.17898 L12.95178,6.17898 C13.28928,7.11978 14.18838,7.79268 15.24558,7.79268 C15.92088,7.79268 16.53138,7.51818 16.97298,7.07478 C16.97298,7.07478 17.11038,6.94068 17.25168,7.08258 C17.39358,7.22418 17.27178,7.37388 17.27178,7.37388 C16.75548,7.89258 16.04118,8.21358 15.25128,8.21358 C13.96128,8.21358 12.87138,7.35558 12.52038,6.17898 L12.13368,6.17898 C12.02148,6.17898 11.93028,6.08748 11.93028,5.97528 C11.93028,5.86308 12.02148,5.77188 12.13368,5.77188 L12.43068,5.77188 C12.41208,5.63808 12.40128,5.50218 12.40128,5.36328 C12.40128,5.29998 12.40398,5.23758 12.40848,5.17518 L12.13368,5.17518 C12.02148,5.17518 11.93028,5.08428 11.93028,4.97178 C11.93028,4.85958 12.02148,4.76808 12.13368,4.76808 L12.46398,4.76808 C12.73758,3.47988 13.88148,2.51298 15.25128,2.51298 C16.03758,2.51298 16.74948,2.83158 17.26518,3.34638 C17.26518,3.34638 17.39718,3.48618 17.26338,3.61968 C17.12988,3.75288 16.97418,3.63798 16.97418,3.63798 C16.53228,3.19428 15.92118,2.91918 15.24558,2.91918 C14.10228,2.91918 13.14378,3.70638 12.88068,4.76808 M14.99988,9.44988 C14.62848,9.44988 14.26878,9.39918 13.92708,9.30528 C13.44258,9.17238 12.99378,8.95218 12.59988,8.66178 C11.59938,7.92438 10.94988,6.73818 10.94988,5.39988 C10.94988,4.06188 11.59938,2.87538 12.59988,2.13798 C12.99378,1.84788 13.44258,1.62738 13.92708,1.49478 C14.26878,1.40088 14.62848,1.34988 14.99988,1.34988 C17.23668,1.34988 19.04988,3.16308 19.04988,5.39988 C19.04988,7.63668 17.23668,9.44988 14.99988,9.44988 M10.19988,9.44988 C9.82848,9.44988 9.46878,9.39918 9.12708,9.30528 C8.64258,9.17238 8.19378,8.95218 7.79988,8.66178 C6.79938,7.92438 6.14988,6.73818 6.14988,5.39988 C6.14988,4.06188 6.79938,2.87538 7.79988,2.13798 C8.19378,1.84788 8.64258,1.62738 9.12708,1.49478 C9.46878,1.40088 9.82848,1.34988 10.19988,1.34988 C10.57158,1.34988 10.93068,1.40088 11.27298,1.49478 C10.24278,2.47788 9.59988,3.86328 9.59988,5.39988 C9.59988,6.93648 10.24278,8.32188 11.27298,9.30528 C10.93128,9.39918 10.57158,9.44988 10.19988,9.44988 M5.39988,9.44988 C3.16338,9.44988 1.34988,7.63668 1.34988,5.39988 C1.34988,3.16308 3.16338,1.34988 5.39988,1.34988 C5.77158,1.34988 6.13068,1.40088 6.47298,1.49478 C5.44278,2.47788 4.79988,3.86328 4.79988,5.39988 C4.79988,6.93648 5.44278,8.32188 6.47298,9.30528 C6.13098,9.39918 5.77158,9.44988 5.39988,9.44988 M14.99988,-0.00012 C14.13738,-0.00012 13.32318,0.20298 12.59988,0.56238 C11.87688,0.20298 11.06238,-0.00012 10.19988,-0.00012 C9.33738,-0.00012 8.52318,0.20298 7.79988,0.56238 C7.07688,0.20298 6.26238,-0.00012 5.39988,-0.00012 C2.41758,-0.00012 -0.00012,2.41758 -0.00012,5.39988 C-0.00012,8.38218 2.41758,10.79988 5.39988,10.79988 C6.26238,10.79988 7.07688,10.59678 7.79988,10.23708 C8.52318,10.59678 9.33738,10.79988 10.19988,10.79988 C11.06238,10.79988 11.87688,10.59678 12.59988,10.23708 C13.32318,10.59678 14.13738,10.79988 14.99988,10.79988 C17.98248,10.79988 20.39988,8.38218 20.39988,5.39988 C20.39988,2.41758 17.98248,-0.00012 14.99988,-0.00012" id="Fill-1"></path>
        </g>
        <line x1="20.5" y1="5.5" x2="7.5" y2="24.5" id="Line-15" stroke="#004571" stroke-width="1.5" stroke-linecap="round"></line>
    </g>
</svg>