<?xml version="1.0" encoding="UTF-8"?>
<svg width="30px" height="30px" viewBox="0 0 30 30" version="1.1" xmlns="http://www.w3.org/2000/svg" xmlns:xlink="http://www.w3.org/1999/xlink">
    <!-- Generator: Sketch 63.1 (92452) - https://sketch.com -->
    <title>ico / datos técnicos azul</title>
    <desc>Created with Sketch.</desc>
    <defs>
        <polygon id="path-1" points="4.42622951e-05 8.85245902e-05 26.9110328 8.85245902e-05 26.9110328 26.9113869 4.42622951e-05 26.9113869"></polygon>
    </defs>
    <g id="ico-/-datos-técnicos-azul" stroke="none" stroke-width="1" fill="none" fill-rule="evenodd">
        <g id="Group-3" transform="translate(2.000000, 2.000000)">
            <mask id="mask-2" fill="white">
                <use xlink:href="#path-1"></use>
            </mask>
            <g id="Clip-2"></g>
            <path d="M17.7014213,8.36920328 C17.7005361,8.36610492 17.6992082,8.36344918 17.6987656,8.3599082 L15.7175852,1.92284262 L23.0664541,1.92284262 L23.0664541,4.8056459 C23.0664541,5.33635082 23.4971262,5.76702295 24.0273885,5.76702295 C24.5585361,5.76702295 24.9892082,5.33635082 24.9892082,4.8056459 L24.9892082,1.47180984 C24.9892082,0.660039344 24.3288148,8.85245902e-05 23.5170443,8.85245902e-05 L3.39363443,8.85245902e-05 C2.58230656,8.85245902e-05 1.92191311,0.660039344 1.92191311,1.47180984 L1.92191311,4.8056459 C1.92191311,5.33635082 2.35214262,5.76702295 2.88284754,5.76702295 C3.41399508,5.76702295 3.84422459,5.33635082 3.84422459,4.8056459 L3.84422459,1.92284262 L11.1926508,1.92284262 L9.21102787,8.36344918 L3.88671639,25.6677934 C3.73091311,26.175482 4.01507705,26.7128262 4.52232295,26.8690721 C4.61660164,26.8978426 4.71176557,26.9115639 4.80560164,26.9115639 C5.21635574,26.9115639 5.59656885,26.6464328 5.72360164,26.233023 L7.29004426,21.1450721 L19.6215197,21.1450721 L21.1866344,26.233023 C21.3136672,26.6464328 21.694323,26.9115639 22.1046344,26.9115639 C22.1989131,26.9115639 22.2936344,26.8978426 22.3879131,26.8690721 C22.895159,26.7128262 23.1802082,26.175482 23.0239623,25.6677934 L17.7014213,8.36920328 Z M10.6601754,10.1883836 L15.3741098,13.4558262 L9.65497869,13.4558262 L10.6601754,10.1883836 Z M13.2017164,9.6116459 L16.0716836,9.6116459 L16.8502574,12.1403508 L13.2017164,9.6116459 Z M13.7067492,1.92284262 L15.4803393,7.6888918 L11.4294541,7.6888918 L13.2034869,1.92284262 L13.7067492,1.92284262 Z M7.8809459,19.2227607 L8.9782082,15.6561049 L16.1115197,19.2227607 L7.8809459,19.2227607 Z M12.7210279,15.3781377 L17.8466016,15.3781377 L18.7787656,18.4070066 L12.7210279,15.3781377 Z M4.42622951e-05,8.65026885 C4.42622951e-05,8.12000656 0.429831148,7.6888918 0.960536066,7.6888918 L4.80471639,7.6888918 C5.33586393,7.6888918 5.76609344,8.12000656 5.76609344,8.65026885 C5.76609344,9.18097377 5.33586393,9.6116459 4.80471639,9.6116459 L0.960536066,9.6116459 C0.429831148,9.6116459 4.42622951e-05,9.18097377 4.42622951e-05,8.65026885 L4.42622951e-05,8.65026885 Z M4.80471639,13.4558262 L0.960536066,13.4558262 C0.429831148,13.4558262 4.42622951e-05,13.0255967 4.42622951e-05,12.4944492 C4.42622951e-05,11.9641869 0.429831148,11.5335148 0.960536066,11.5335148 L4.80471639,11.5335148 C5.33586393,11.5335148 5.76609344,11.9641869 5.76609344,12.4944492 C5.76609344,13.0255967 5.33586393,13.4558262 4.80471639,13.4558262 L4.80471639,13.4558262 Z M22.105077,7.6888918 L25.9497,7.6888918 C26.4804049,7.6888918 26.911077,8.12000656 26.911077,8.65026885 C26.911077,9.18097377 26.4804049,9.6116459 25.9497,9.6116459 L22.105077,9.6116459 C21.5748148,9.6116459 21.1437,9.18097377 21.1437,8.65026885 C21.1437,8.12000656 21.5748148,7.6888918 22.105077,7.6888918 L22.105077,7.6888918 Z M26.911077,12.4944492 C26.911077,13.0255967 26.4804049,13.4558262 25.9497,13.4558262 L22.105077,13.4558262 C21.5748148,13.4558262 21.1437,13.0255967 21.1437,12.4944492 C21.1437,11.9641869 21.5748148,11.5335148 22.105077,11.5335148 L25.9497,11.5335148 C26.4804049,11.5335148 26.911077,11.9641869 26.911077,12.4944492 L26.911077,12.4944492 Z" id="Fill-1" fill="#004571" mask="url(#mask-2)"></path>
        </g>
    </g>
</svg>