<?xml version="1.0" encoding="UTF-8"?>
<svg width="30px" height="30px" viewBox="0 0 30 30" version="1.1" xmlns="http://www.w3.org/2000/svg" xmlns:xlink="http://www.w3.org/1999/xlink">
    <!-- Generator: Sketch 63.1 (92452) - https://sketch.com -->
    <title>ico / arboles azul</title>
    <desc>Created with Sketch.</desc>
    <g id="ico-/-arboles-azul" stroke="none" stroke-width="1" fill="none" fill-rule="evenodd">
        <path d="M19.0596674,14.1781091 C18.6549329,14.1781091 18.3251368,14.5075677 18.3251368,14.9123021 L18.3251368,17.5381814 L17.9703612,17.3326073 L17.8042817,17.2276262 C17.5045284,17.0385926 17.1065452,17.128046 16.9168365,17.4271241 C16.8250202,17.5726125 16.7949773,17.7447681 16.832784,17.9125354 C16.8709283,18.0799652 16.9711836,18.222753 17.116672,18.3142318 L18.3251368,19.0784676 L18.3251368,19.8248128 C18.2724774,19.8612693 18.2177927,19.8963755 18.1617578,19.9301315 L18.1384661,19.9432964 C18.0797307,19.9784026 18.0189699,20.0114835 17.9585466,20.042539 C17.9453818,20.0489526 17.9318794,20.0553663 17.918377,20.0617799 L17.8954229,20.0725818 C17.8464767,20.0965486 17.7965178,20.1195027 17.7458838,20.1404314 C17.7225922,20.1502206 17.698963,20.1596723 17.670608,20.1708118 C17.6216618,20.1900527 17.5730531,20.2076058 17.5237694,20.2241463 C17.4977772,20.2329228 17.4717851,20.2413618 17.445793,20.2494633 C17.3948214,20.264991 17.3441874,20.2791686 17.2928783,20.2923334 L17.2749876,20.2967217 C17.2557467,20.3017851 17.2368434,20.3065109 17.21794,20.3108992 C17.1625802,20.3237265 17.1068828,20.3341908 17.0515229,20.3439801 L17.0258684,20.3483684 C17.0127035,20.3510688 16.9992011,20.3534318 16.9853612,20.3554571 C16.9222374,20.3652464 16.8584386,20.3723351 16.7949773,20.3780736 L16.7716857,20.3804366 C16.7642594,20.3814492 16.756833,20.3821244 16.7490692,20.3827995 C16.6687299,20.3888756 16.588053,20.3922512 16.5087264,20.3922512 L16.5087264,20.4884558 L16.4955616,20.3919136 C16.4344632,20.391576 16.3699893,20.3892131 16.2994392,20.3844873 L16.2400287,20.380099 C16.1816308,20.374698 16.1232329,20.3682844 16.0651726,20.360183 L16.0368176,20.3564698 C15.8933546,20.334866 15.749554,20.3031353 15.6094666,20.261953 C15.2806832,20.1650733 14.9714782,20.017222 14.689278,19.8214372 C14.8624463,19.6631216 15.0221122,19.4973796 15.1652376,19.3272494 C15.9669426,18.3733048 16.8199568,16.6480356 16.3321826,13.8469628 C16.3058529,13.6967486 16.2326024,13.2916766 16.1083803,12.7347026 C16.5546346,11.7993238 17.3381114,11.1191404 18.2626882,10.866308 L18.3028578,10.8548309 C18.5469137,10.7917072 18.7953579,10.7599766 19.0417767,10.7599766 C20.5888142,10.7599766 21.9532317,11.9758677 22.2850532,13.651178 L22.3640422,14.0461232 L22.7390714,14.1922866 C23.98298,14.6763477 24.7867103,15.8497062 24.7867103,17.181718 C24.7867103,18.9522202 23.3463418,20.3922512 21.5765147,20.3922512 C20.9405517,20.3922512 20.3251798,20.2049054 19.7935228,19.8494547 L19.7935228,17.6782688 L21.4225874,17.0119253 C21.5815781,16.9471138 21.7061378,16.8239044 21.7722995,16.6655888 C21.8384613,16.5072731 21.8391364,16.332417 21.7739873,16.1730887 C21.639976,15.8456555 21.2635966,15.6876774 20.9354883,15.8216888 L19.7935228,16.2888718 L19.7935228,14.9123021 C19.7935228,14.5075677 19.4644018,14.1781091 19.0596674,14.1781091 L19.0596674,14.1781091 Z M18.3251368,24.0898834 C17.2604726,23.9346058 16.1573265,23.8556168 15.0440536,23.8556168 C13.6489181,23.8556168 12.2875386,23.9771384 10.9936712,24.2164684 L10.9886078,21.3718503 C11.8655886,21.296912 12.6834965,21.0687214 13.423428,20.6926796 C13.9169408,21.1267817 14.5069956,21.4579281 15.1378953,21.6530378 L15.1493723,21.6564134 C15.2246482,21.6793674 15.3002616,21.7002962 15.3853268,21.7219 L15.4254964,21.7316892 C15.490983,21.747217 15.5568072,21.7613945 15.6233066,21.7742218 L15.6418724,21.777935 C15.6611133,21.7816481 15.6800166,21.7853613 15.6995951,21.7887369 C15.7573179,21.7988637 15.8153782,21.8076402 15.8737761,21.8154041 L15.9011184,21.8194548 C15.9244101,21.8224929 15.9473642,21.8258685 15.9709934,21.8289065 C16.0216274,21.834645 16.0722614,21.8386958 16.1235705,21.843084 L16.1725167,21.8471348 C16.1951332,21.8491601 16.2177497,21.8511855 16.2407038,21.8525357 C16.314967,21.856924 16.3902429,21.8586118 16.4651812,21.8592869 L16.4813841,21.859962 C16.4904982,21.8602996 16.4985996,21.8606372 16.5117645,21.8606372 C16.5890657,21.8606372 16.6677172,21.8582742 16.7534574,21.8535484 C16.765272,21.8532108 16.7764115,21.8521982 16.7882261,21.8511855 L16.8088173,21.8494977 C16.8705908,21.845447 16.9320267,21.8407211 16.9927875,21.8343075 C17.012366,21.8322821 17.0309318,21.8299192 17.0501727,21.8275563 L17.0812282,21.8235056 C17.1298368,21.8174295 17.178783,21.8110158 17.2273917,21.803252 C17.2611477,21.797851 17.2945661,21.7917749 17.3364236,21.784011 C17.3765932,21.7769223 17.4164253,21.769496 17.4562574,21.761057 C17.4981148,21.7522804 17.5399722,21.7424912 17.5818297,21.7327019 C17.614573,21.724938 17.6473163,21.7168366 17.6797221,21.7083976 C17.7259678,21.6959079 17.7722135,21.6834182 17.8174466,21.6702533 C17.839388,21.6638397 17.8603167,21.6570885 17.881583,21.6506748 L17.8987985,21.6452739 C17.9480823,21.6297461 17.9970285,21.6138808 18.044962,21.5973404 C18.0621776,21.5912643 18.078718,21.5848506 18.0959336,21.5787746 L18.1141618,21.5716858 C18.1647958,21.55312 18.2150922,21.5345542 18.272815,21.5116001 L18.3251368,21.4903338 L18.3251368,24.0898834 Z M10.9828692,17.8747287 L14.0178712,15.3740842 C14.1505323,15.2650523 14.2322218,15.1107874 14.2487622,14.939982 C14.2653027,14.7688391 14.2143311,14.6017469 14.1049617,14.4694234 C13.9959298,14.3367623 13.8413273,14.2547352 13.670522,14.2381948 C13.4987039,14.2216544 13.3326244,14.2729635 13.1999633,14.3819954 L10.9794936,16.2108954 L10.976118,14.0987825 L12.8438375,12.5719986 C12.9764986,12.4633043 13.0588632,12.309377 13.0760788,12.1385716 C13.0929568,11.9674287 13.0429979,11.8003365 12.9343036,11.6676754 C12.8256093,11.5343392 12.6716819,11.451637 12.5008766,11.434759 C12.3297336,11.4175434 12.1626414,11.4678399 12.0296428,11.5765342 L10.9734176,12.4406878 L10.9693668,10.2556619 C10.9686917,9.8516026 10.6392332,9.52281916 10.2338236,9.52281916 C10.0373637,9.52315672 9.85339348,9.6001204 9.71465632,9.73885756 C9.57659428,9.87793228 9.50098084,10.06224 9.5013184,10.2583624 L9.50503156,12.4508146 L8.53792216,11.6518101 C8.40559864,11.5424406 8.23918156,11.490794 8.06770108,11.5069968 C7.89655816,11.5231997 7.74229324,11.6052268 7.63258624,11.7378879 C7.40709616,12.0106364 7.445578,12.416721 7.71832648,12.6428862 L9.50773204,14.1220742 L9.5114452,16.2402632 L7.25553172,14.3819954 C7.1232082,14.2726259 6.95645356,14.2216544 6.78497308,14.2381948 C6.61416772,14.2547352 6.4599028,14.3367623 6.35053336,14.4694234 C6.24082636,14.6017469 6.19019236,14.7688391 6.2067328,14.939982 C6.22327324,15.1107874 6.30530032,15.2650523 6.43728628,15.3744218 L9.5148208,17.9091598 L9.51785884,19.868358 C8.3046682,19.676624 7.20287236,19.0754296 6.48150664,18.2085755 C5.61532768,17.1672029 5.29464568,15.7632909 5.55456688,14.1487414 C5.8708606,12.1949441 6.53686648,10.0524508 7.33722124,8.41764772 C7.87664212,7.31585188 8.97168676,5.468386 10.2469884,5.468386 C10.8951036,5.468386 11.9050832,5.93995732 13.0362467,8.18675668 C13.8335634,9.77126332 14.5080083,11.9259088 14.885738,14.098445 C15.1996688,15.9016905 14.9154432,17.3427341 14.0411628,18.3824189 C13.3285737,19.2296945 12.2466939,19.76709 10.9862448,19.902114 L10.9828692,17.8747287 Z M21.5765147,21.8606372 C24.1561482,21.8606372 26.2547588,19.7616891 26.2547588,17.181718 C26.2547588,15.3764471 25.2525431,13.7716869 23.6349556,12.9828092 C23.0364617,10.8075725 21.153552,9.29159056 19.0417767,9.29159056 C18.1195628,9.29159056 17.2182776,9.5815546 16.4364886,10.1300896 L16.3801161,10.1736348 L16.3804536,10.17431 C16.1073676,10.3721201 15.8535225,10.5989604 15.6233066,10.8517929 C13.9672372,5.19428728 11.7889625,4 10.2469884,4 C6.51998848,4 4.55167612,11.1569471 4.10812228,13.9144748 C3.69224836,16.5022097 4.55505172,18.1886595 5.352706,19.148005 C6.348508,20.3443176 7.86347728,21.1433222 9.52022176,21.3488962 L9.52697296,24.5479523 C8.54197288,24.8149623 7.64541352,25.153535 6.85923628,25.5542187 L6.81704128,25.575485 L6.81704128,25.5764976 C6.58952584,25.6993695 6.4345858,25.9403873 6.4345858,26.2175241 C6.4345858,26.619558 6.7603312,26.945641 7.16270272,26.945641 C7.2666712,26.945641 7.36557628,26.923362 7.45536724,26.8842051 L7.45536724,26.8848802 L7.4810218,26.8717154 C7.49249884,26.8659768 7.50431344,26.8605759 7.51545292,26.8544998 C9.44460832,25.8674744 12.1170708,25.3240028 15.0440536,25.3240028 C17.9713739,25.3240028 20.6451867,25.8678119 22.5743421,26.8551749 C22.5790679,26.8575378 22.5834562,26.8595632 22.5878445,26.8619261 L22.6378034,26.8872431 L22.6384785,26.8862304 C22.7259065,26.9236996 22.8227862,26.9446283 22.9240542,26.9446283 C23.3260882,26.9446283 23.6518336,26.6188829 23.6518336,26.2171865 C23.6518336,25.9363366 23.4925053,25.6932934 23.2599264,25.5721094 L23.2599264,25.5710967 C22.2617615,25.0573304 21.096842,24.6485452 19.7935228,24.3568934 L19.7935228,21.5038362 C20.3650119,21.7408034 20.9638433,21.8606372 21.5765147,21.8606372 L21.5765147,21.8606372 Z" id="Fill-1" fill="#004571"></path>
    </g>
</svg>