<?xml version="1.0" encoding="UTF-8"?>
<svg width="30px" height="30px" viewBox="0 0 30 30" version="1.1" xmlns="http://www.w3.org/2000/svg" xmlns:xlink="http://www.w3.org/1999/xlink">
    <!-- Generator: Sketch 63.1 (92452) - https://sketch.com -->
    <title>ico / decoracion azul</title>
    <desc>Created with Sketch.</desc>
    <g id="ico-/-decoracion-azul" stroke="none" stroke-width="1" fill="none" fill-rule="evenodd">
        <g id="Group-3" transform="translate(6.000000, 7.000000)">
            <path d="M15.0511693,14.4542989 L5.91432576,14.4542989 L6.91425728,13.1146803 C7.25640384,12.6569363 7.90626368,12.5623814 8.36318784,12.9037082 L8.58317824,13.0679494 C9.58994176,13.8194694 11.0202893,13.6115034 11.7718093,12.6044666 L13.0961242,10.8292397 C13.4265197,10.385433 14.1020678,10.2873254 14.5456013,10.6185408 L15.7015757,11.4810125 C15.7015757,11.4810125 15.8622643,11.5788467 16.0866272,11.6856992 L16.0866272,13.4185677 C16.0866272,13.9897229 15.6223245,14.4542989 15.0511693,14.4542989 M1.24697664,13.4636589 L1.24260416,5.07833536 C1.24260416,4.50772672 1.70745344,4.04260416 2.27806208,4.04260416 L15.0511693,4.04260416 C15.6223245,4.04260416 16.0866272,4.50772672 16.0866272,5.07833536 L16.0866272,10.2179123 L15.2891962,9.6224352 C14.8013914,9.25842624 14.2015418,9.10675584 13.5989594,9.19420544 C12.9966502,9.28192832 12.4640275,9.59811328 12.1005651,10.0861914 L10.7762502,11.8614182 C10.4346502,12.3191622 9.7847904,12.4137171 9.32731968,12.0723904 L9.107056,11.9078758 C8.10029248,11.1566291 6.67021824,11.3643219 5.91869824,12.3710854 L4.36455488,14.4542989 L2.27806208,14.4542989 C1.72275712,14.4542989 1.27129856,14.0140448 1.24697664,13.4636589 M15.0511693,2.8 L2.27806208,2.8 C1.02152064,2.8 0,3.82179392 0,5.07833536 L0,13.4185677 C0,14.6748358 1.02152064,15.696903 2.27806208,15.696903 L15.0511693,15.696903 C16.3071642,15.696903 17.3292314,14.6748358 17.3292314,13.4185677 L17.3292314,5.07833536 C17.3292314,3.82179392 16.3071642,2.8 15.0511693,2.8 M5.1964192,6.40620288 C6.02391104,6.40620288 6.69645312,7.07847168 6.69645312,7.90651008 C6.69645312,8.73318208 6.02391104,9.40572416 5.1964192,9.40572416 C4.36920064,9.40572416 3.69665856,8.73318208 3.69665856,7.90651008 C3.69665856,7.07847168 4.36920064,6.40620288 5.1964192,6.40620288 M5.1964192,10.6259194 C6.69645312,10.6259194 7.91664832,9.40572416 7.91664832,7.90651008 C7.91664832,6.40620288 6.69645312,5.18628096 5.1964192,5.18628096 C3.69665856,5.18628096 2.47700992,6.40620288 2.47700992,7.90651008 C2.47700992,9.40572416 3.69665856,10.6259194 5.1964192,10.6259194" id="Fill-1" fill="#004571"></path>
            <path d="M5.04,3.36 L8.56626666,0.337485723 C8.78844058,0.147050935 9.1197758,0.159775801 9.32668962,0.366689623 L12.32,3.36 L12.32,3.36" id="Path-2" stroke="#004571" stroke-width="1.12"></path>
        </g>
    </g>
</svg>