<svg width="70" height="70" viewBox="0 0 70 70" fill="none" xmlns="http://www.w3.org/2000/svg">
<path fill-rule="evenodd" clip-rule="evenodd" d="M22.3519 36.9699L8.28615 61.5839L39.1934 30.6766H27.3614C26.2953 30.6766 25.4299 29.8121 25.4299 28.7451C25.4299 28.2777 25.8745 27.4775 25.8745 27.4775L39.1934 8.34296H19.8768L4.42317 34.5405H20.4204C21.4874 34.5405 22.3519 35.4042 22.3519 36.4711V36.9699ZM30.9585 26.8136H39.1934C40.7566 26.8136 42.1656 27.7561 42.7626 29.1973C43.3612 30.6428 43.0301 32.3024 41.926 33.4092L11.0187 64.3156C10.2693 65.0667 9.28027 65.4477 8.28446 65.4477C7.46309 65.4477 6.63748 65.1869 5.94059 64.6551C4.40369 63.4781 3.97184 61.3468 4.93208 59.6668L17.0833 38.4034H4.42317C3.04547 38.4034 1.77277 37.6718 1.0818 36.4796C0.390831 35.2865 0.385751 33.819 1.0691 32.6234L16.5227 6.42671C17.2103 5.2226 18.4906 4.47998 19.8768 4.47998H39.1934C40.6177 4.47998 41.9276 5.26494 42.6008 6.52071C43.2715 7.77732 43.1987 9.30151 42.4086 10.4861L30.9585 26.8136ZM62.2908 12.0782V26.3083C62.1573 27.4233 61.5151 27.9881 60.3644 28.0027C59.2136 28.0172 58.5718 27.453 58.4388 26.31V12.0782L54.4903 16.3367C53.7646 17.1148 52.5453 17.158 51.7671 16.4323C50.9889 15.7058 50.9448 14.4856 51.6705 13.7074L58.9519 5.87391C58.9653 5.86012 58.9798 5.8482 58.9942 5.83642C59.0071 5.82579 59.0199 5.81529 59.0315 5.80363C59.0364 5.79926 59.0398 5.7951 59.0431 5.79118C59.0461 5.78751 59.049 5.78404 59.0527 5.78077C59.068 5.76468 59.0849 5.75621 59.1001 5.74351C59.1763 5.68 59.2534 5.61734 59.3347 5.56653C59.3469 5.55872 59.3593 5.55144 59.3716 5.54444C59.3901 5.53401 59.4084 5.52417 59.4261 5.51404C59.5032 5.47255 59.5819 5.43105 59.6632 5.39887C59.6975 5.38462 59.7335 5.37396 59.7693 5.36337C59.776 5.36138 59.7827 5.35939 59.7894 5.35738C59.8622 5.33452 59.9342 5.31335 60.0087 5.2998C60.0423 5.295 60.0766 5.29121 60.1114 5.28736C60.1318 5.2851 60.1523 5.28283 60.173 5.28033C60.2357 5.27271 60.2992 5.26593 60.3644 5.26763C60.4188 5.26621 60.4726 5.2707 60.5263 5.27517C60.537 5.27606 60.5476 5.27695 60.5583 5.27779C60.5926 5.28359 60.6262 5.28775 60.6598 5.2919C60.6801 5.29441 60.7004 5.29693 60.7209 5.2998C60.7945 5.31335 60.8657 5.33282 60.9376 5.35908C60.9825 5.37008 61.0248 5.38363 61.0689 5.40057C61.1468 5.43105 61.223 5.46916 61.2975 5.51065C61.3058 5.51533 61.3142 5.51986 61.3226 5.52439C61.3475 5.5379 61.3727 5.55154 61.3974 5.56992C61.4762 5.61734 61.5498 5.67662 61.621 5.74013C61.627 5.74447 61.633 5.74839 61.6391 5.75228C61.6518 5.76052 61.6645 5.7687 61.676 5.78077C61.6845 5.78924 61.6904 5.79855 61.6997 5.80871C61.709 5.81737 61.7189 5.82531 61.7289 5.83325C61.7451 5.84626 61.7614 5.8593 61.7751 5.87561L69.0582 13.7074C69.783 14.4856 69.7415 15.7058 68.9625 16.4323C68.1843 17.1563 66.9641 17.1148 66.2384 16.3384L62.2908 12.0782Z" fill="#004571"/>
</svg>
