<svg width="70" height="70" viewBox="0 0 70 70" fill="none" xmlns="http://www.w3.org/2000/svg">
<path fill-rule="evenodd" clip-rule="evenodd" d="M22.3519 36.9699L8.28615 61.5839L39.1934 30.6766H27.3614C26.2953 30.6766 25.4299 29.8121 25.4299 28.7451C25.4299 28.2777 25.8745 27.4775 25.8745 27.4775L39.1934 8.34296H19.8768L4.42317 34.5405H20.4204C21.4874 34.5405 22.3519 35.4042 22.3519 36.4711V36.9699ZM30.9585 26.8136H39.1934C40.7566 26.8136 42.1656 27.7561 42.7626 29.1973C43.3612 30.6428 43.0301 32.3024 41.926 33.4092L11.0187 64.3156C10.2693 65.0667 9.28027 65.4477 8.28446 65.4477C7.46309 65.4477 6.63748 65.1869 5.94059 64.6551C4.40369 63.4781 3.97184 61.3468 4.93208 59.6668L17.0833 38.4034H4.42317C3.04547 38.4034 1.77277 37.6718 1.0818 36.4796C0.390831 35.2865 0.385751 33.819 1.0691 32.6234L16.5227 6.42671C17.2103 5.2226 18.4906 4.47998 19.8768 4.47998H39.1934C40.6177 4.47998 41.9276 5.26494 42.6008 6.52071C43.2715 7.77732 43.1987 9.30151 42.4086 10.4861L30.9585 26.8136ZM62.2908 21.1921V6.96203C62.1573 5.84699 61.5151 5.28219 60.3644 5.26763C59.2136 5.25308 58.5718 5.81731 58.4388 6.96033V21.1921L54.4903 16.9336C53.7646 16.1555 52.5453 16.1123 51.7671 16.838C50.9889 17.5645 50.9448 18.7847 51.6705 19.5629L58.9519 27.3964C58.9653 27.4102 58.9798 27.4221 58.9942 27.4339C59.0071 27.4445 59.0199 27.455 59.0315 27.4667C59.0364 27.471 59.0398 27.4752 59.0431 27.4791C59.0461 27.4828 59.049 27.4863 59.0527 27.4895C59.0621 27.4995 59.0722 27.5065 59.0822 27.5135C59.0883 27.5177 59.0943 27.5219 59.1001 27.5268C59.1763 27.5903 59.2534 27.653 59.3347 27.7038C59.3555 27.7171 59.3768 27.7288 59.3976 27.7403C59.4072 27.7456 59.4168 27.7509 59.4261 27.7563C59.5032 27.7978 59.5819 27.8392 59.6632 27.8714C59.6974 27.8857 59.7335 27.8963 59.7693 27.9069C59.776 27.9089 59.7827 27.9109 59.7894 27.9129C59.8622 27.9358 59.9342 27.9569 60.0087 27.9705C60.0423 27.9753 60.0766 27.9791 60.1114 27.9829C60.1318 27.9852 60.1523 27.9875 60.173 27.99C60.2357 27.9976 60.2992 28.0044 60.3644 28.0027C60.4188 28.0041 60.4726 27.9996 60.5263 27.9951C60.537 27.9942 60.5476 27.9934 60.5583 27.9925C60.5926 27.9867 60.6262 27.9825 60.6598 27.9784C60.6801 27.9759 60.7004 27.9734 60.7209 27.9705C60.7945 27.9569 60.8657 27.9375 60.9376 27.9112C60.9825 27.9002 61.0248 27.8867 61.0689 27.8697C61.1468 27.8392 61.223 27.8011 61.2975 27.7596C61.3058 27.755 61.3142 27.7504 61.3225 27.7459C61.3475 27.7324 61.3727 27.7188 61.3974 27.7004C61.4762 27.653 61.5498 27.5937 61.621 27.5302C61.627 27.5258 61.633 27.5219 61.6391 27.518C61.6518 27.5098 61.6645 27.5016 61.676 27.4895C61.6806 27.4849 61.6844 27.4801 61.6885 27.475C61.6919 27.4707 61.6955 27.4662 61.6997 27.4616C61.709 27.4529 61.7189 27.445 61.7289 27.4371C61.7451 27.424 61.7614 27.411 61.7751 27.3947L69.0582 19.5629C69.783 18.7847 69.7415 17.5645 68.9625 16.838C68.1843 16.114 66.9641 16.1555 66.2384 16.9319L62.2908 21.1921Z" fill="#004571"/>
</svg>
