<?xml version="1.0" encoding="UTF-8"?>
<svg width="30px" height="30px" viewBox="0 0 30 30" version="1.1" xmlns="http://www.w3.org/2000/svg" xmlns:xlink="http://www.w3.org/1999/xlink">
    <!-- Generator: Sketch 63.1 (92452) - https://sketch.com -->
    <title>ico / alimentos azul</title>
    <desc>Created with Sketch.</desc>
    <defs>
        <polygon id="path-1" points="0.000115497588 0.0277194211 19.2101363 0.0277194211 19.2101363 14.7258558 0.000115497588 14.7258558"></polygon>
    </defs>
    <g id="ico-/-alimentos-azul" stroke="none" stroke-width="1" fill="none" fill-rule="evenodd">
        <g id="Group-7" transform="translate(5.000000, 7.000000)">
            <g id="Group-6">
                <g id="Group-3" transform="translate(0.000000, 0.261111)">
                    <mask id="mask-2" fill="white">
                        <use xlink:href="#path-1"></use>
                    </mask>
                    <g id="Clip-2"></g>
                    <path d="M17.9094602,7.83613597 C16.9620912,8.10582283 16.2656408,8.97927334 16.2656408,10.0123993 C16.2656408,11.0455252 16.9620912,11.9192644 17.9094602,12.1886626 L17.9094602,13.4470088 L13.4226677,13.4470088 C13.4345062,13.3984998 13.4411473,13.3482583 13.4411473,13.2962844 C13.4411473,12.2706659 12.6072547,11.4361958 11.5807699,11.4361958 C10.55544,11.4361958 9.72096998,12.2706659 9.72096998,13.2962844 C9.72096998,13.3482583 9.72818858,13.3984998 9.74002708,13.4470088 L1.27954003,13.4470088 L1.27954003,5.79067369 L10.6221399,5.79067369 C10.6103014,5.83976016 10.6027941,5.89086784 10.6027941,5.94370799 C10.6027941,7.19079319 11.6180179,8.20572825 12.8648143,8.20572825 C14.112477,8.20572825 15.1268346,7.19079319 15.1268346,5.94370799 C15.1268346,5.89086784 15.1201935,5.83976016 15.1077775,5.79067369 L17.9094602,5.79067369 L17.9094602,7.83613597 Z M10.9813374,13.4470088 C10.9931759,13.3984998 10.999817,13.3482583 10.999817,13.2962844 C10.999817,12.9757786 11.2611303,12.7150428 11.5807699,12.7150428 C11.9015644,12.7150428 12.1628777,12.9757786 12.1628777,13.2962844 C12.1628777,13.3482583 12.1695188,13.3984998 12.1813573,13.4470088 L10.9813374,13.4470088 Z M3.55051135,2.54576896 C5.12243352,1.76356154 7.21467232,1.32553694 9.4564805,1.30676858 L15.8498495,4.48757215 L1.40918607,4.48757215 C1.69475385,3.78159315 2.44029078,3.09784743 3.55051135,2.54576896 L3.55051135,2.54576896 Z M13.8676221,5.79067369 C13.8546286,5.83976016 13.8479875,5.89086784 13.8479875,5.94370799 C13.8479875,6.48596916 13.4067867,6.92688121 12.8648143,6.92688121 C12.3228419,6.92688121 11.8819298,6.48596916 11.8819298,5.94370799 C11.8819298,5.89086784 11.8747112,5.83976016 11.8622953,5.79067369 L13.8676221,5.79067369 Z M18.8550967,4.5548495 L9.89017394,0.0946213988 C9.80152954,0.0504435715 9.70393408,0.0276327979 9.60518364,0.0276327979 C4.21953112,0.0276327979 0.000115497588,2.26741977 0.000115497588,5.12714004 C0.000115497588,5.13204869 0.000692985527,5.13637985 0.00127047347,5.1412885 C0.00127047347,5.14446468 0.000692985527,5.14792961 0.000692985527,5.15139454 L0.000692985527,14.0862879 C0.000692985527,14.4394218 0.287127003,14.7258558 0.639972134,14.7258558 L18.5484506,14.7258558 C18.9015845,14.7258558 19.1880185,14.4394218 19.1880185,14.0862879 L19.1880185,11.6334079 C19.1880185,11.4564079 19.1141001,11.2869151 18.9850315,11.1662202 C18.8556742,11.0458139 18.6838715,10.9843115 18.5077377,10.9955725 C17.9750051,10.984889 17.5439103,10.5485968 17.5439103,10.0123993 C17.5439103,9.47533548 17.9770263,9.03731088 18.5129351,9.02922605 C18.5247736,9.03009228 18.5371896,9.03038102 18.5484506,9.03038102 C18.9015845,9.03038102 19.1880185,8.74423575 19.1880185,8.39081313 L19.1880185,5.29201285 C19.1903285,5.28566048 19.1917722,5.27959686 19.1929272,5.27324449 C19.2613595,4.98450052 19.1213186,4.68680549 18.8550967,4.5548495 L18.8550967,4.5548495 Z" id="Fill-1" fill="#004571" mask="url(#mask-2)"></path>
                </g>
                <path d="M5.50756022,11.2566548 C4.96558779,11.2566548 4.52409826,10.8157427 4.52409826,10.2734816 C4.52409826,9.73179788 4.96558779,9.29088583 5.50756022,9.29088583 C6.04953265,9.29088583 6.4904447,9.73179788 6.4904447,10.2734816 C6.4904447,10.8157427 6.04953265,11.2566548 5.50756022,11.2566548 M5.50756022,8.01203879 C4.26018628,8.01203879 3.24553997,9.02639636 3.24553997,10.2734816 C3.24553997,11.5205668 4.26018628,12.5355018 5.50756022,12.5355018 C6.75493417,12.5355018 7.76900299,11.5205668 7.76900299,10.2734816 C7.76900299,9.02639636 6.75493417,8.01203879 5.50756022,8.01203879" id="Fill-4" fill="#004571"></path>
            </g>
        </g>
    </g>
</svg>