<?xml version="1.0" encoding="UTF-8"?>
<svg width="54px" height="62px" viewBox="0 0 54 62" version="1.1" xmlns="http://www.w3.org/2000/svg" xmlns:xlink="http://www.w3.org/1999/xlink">
    <!-- Generator: Sketch 57.1 (83088) - https://sketch.com -->
    <title>Path</title>
    <desc>Created with Sketch.</desc>
    <g id="Provisión-de-servicio-" stroke="none" stroke-width="1" fill="none" fill-rule="evenodd">
        <g id="1-06_UFD_PROVISION_SERVICIO_NU_01.2-" transform="translate(-572.000000, -298.000000)" fill="#004571">
            <path d="M621.659337,318.572229 C621.65726,318.573263 621.476572,318.690104 620.88051,318.690104 L619.769383,318.690104 C618.620873,318.690104 617.692511,319.616557 617.692511,320.75808 L617.692511,334.014843 C617.692511,336.638071 616.114088,339.351256 613.473345,339.351256 L611.44528,339.351256 C610.297808,339.351256 609.368408,340.276675 609.368408,341.419232 L609.368408,343.387946 C608.242743,343.538908 606.37875,343.528568 605.240624,343.366232 L605.240624,341.424402 C605.240624,340.281845 604.312262,339.356426 603.163752,339.356426 L601.044304,339.356426 C598.339178,339.356426 596.92379,336.668056 596.92379,334.014843 L596.92379,320.75808 C596.92379,319.616557 595.994389,318.690104 594.846917,318.690104 L593.79602,318.690104 C593.13869,318.690104 592.946579,318.553617 592.946579,318.553617 C592.736815,318.318902 592.736815,317.075014 592.736815,316.543544 C592.736815,314.813682 593.51045,314.475568 594.846917,314.475568 L619.736154,314.475568 C620.831704,314.475568 621.846256,314.729929 621.846256,316.574564 C621.846256,317.143257 621.846256,318.32614 621.659337,318.572229 M619.736154,310.339615 L617.652012,310.339615 L617.652012,299.872553 C617.652012,298.54181 616.726766,298 615.584486,298 C614.443245,298 613.520075,298.54181 613.520075,299.872553 L613.520075,310.339615 L601.099341,310.339615 L601.099341,299.872553 C601.099341,298.54181 600.17721,298 599.035969,298 C597.89265,298 596.970519,298.54181 596.970519,299.872553 L596.970519,310.339615 L594.846917,310.339615 C590.982897,310.339615 588.583071,312.716754 588.583071,316.543544 C588.583071,318.290984 588.583071,322.218071 592.770045,322.762983 L592.770045,334.014843 C592.770045,339.417431 596.326689,343.492379 601.044304,343.492379 L601.08688,343.492379 L601.08688,344.621494 C601.08688,346.65328 603.255134,347.313999 605.148203,347.530102 C604.735944,351.896635 602.79303,355.823722 599.012085,355.823722 C596.892637,355.823722 595.925853,354.790767 594.258124,352.81068 C592.301711,350.487309 589.867616,347.59421 584.36079,347.59421 C580.770916,347.59421 577.503996,349.292018 574.907906,352.501518 C573.04599,354.804209 572.168512,357.115173 572.131128,357.213402 C571.73133,358.280478 572.276509,359.466462 573.348175,359.86765 C573.589092,359.957606 573.834163,360 574.078196,360 C574.915175,360 575.706463,359.48921 576.023186,358.662019 C576.049147,358.592742 578.728312,351.730162 584.36079,351.730162 C587.928856,351.730162 589.317245,353.380408 591.075318,355.469064 C592.759661,357.468797 594.856263,359.959674 599.012085,359.959674 C603.846005,359.959674 608.719385,356.102899 609.321678,347.545612 C609.796243,347.501151 610.23654,347.438077 610.617646,347.359494 C613.1452,346.835262 613.522152,345.419732 613.522152,344.621494 L613.522152,343.487209 C618.193038,343.457223 621.846256,339.307828 621.846256,334.014843 L621.846256,322.766085 C623.912743,322.493112 624.912757,321.351589 625.39563,320.373437 C626,319.147127 626,317.721257 626,316.574564 C626,312.787065 623.540983,310.339615 619.736154,310.339615" id="Fill-1"></path>
        </g>
    </g>
</svg>