<?xml version="1.0" encoding="UTF-8"?>
<svg width="337px" height="98px" viewBox="0 0 337 98" version="1.1" xmlns="http://www.w3.org/2000/svg" xmlns:xlink="http://www.w3.org/1999/xlink">
    <!-- Generator: Sketch 62 (91390) - https://sketch.com -->
    <title>Group 2</title>
    <desc>Created with Sketch.</desc>
    <defs>
        <polygon id="path-1" points="0.000221736499 0.00036 51.8297455 0.00036 51.8297455 61.3494 0.000221736499 61.3494"></polygon>
    </defs>
    <g id="cortesía-V2" stroke="none" stroke-width="1" fill="none" fill-rule="evenodd">
        <g id="Group-2" transform="translate(0.000000, 0.399902)">
            <g id="Group-4">
                <rect id="Rectangle" fill="#FFFFFF" x="-5.68434189e-14" y="2.13162821e-14" width="336.6" height="97.2" rx="48.6"></rect>
                <g id="Group" transform="translate(37.800000, 17.100000)">
                    <g id="Group-6" transform="translate(70.200000, 12.600000)" fill="#004571" fill-rule="nonzero">
                        <path d="M2.24,12.2 C2.336,12.2 2.4,12.1893333 2.432,12.168 C2.464,12.1466667 2.496,12.0933333 2.528,12.008 L2.528,12.008 L3.232,10.072 L7.904,10.072 L8.672,12.008 C8.704,12.0933333 8.73866667,12.1466667 8.776,12.168 C8.81333333,12.1893333 8.88,12.2 8.976,12.2 L8.976,12.2 L11.072,12.2 L6.784,1.8 C6.74133333,1.71466667 6.70133333,1.65866667 6.664,1.632 C6.62666667,1.60533333 6.56,1.592 6.464,1.592 L6.464,1.592 L4.288,1.592 L0.208,12.2 L2.24,12.2 Z M7.2,8.296 L3.888,8.296 L4.448,6.744 C4.544,6.46666667 4.64533333,6.184 4.752,5.896 C4.85866667,5.608 4.95733333,5.33066667 5.048,5.064 C5.13866667,4.79733333 5.22133333,4.54666667 5.296,4.312 C5.37066667,4.07733333 5.43466667,3.88 5.488,3.72 C5.584,4.04 5.72266667,4.44266667 5.904,4.928 C6.08533333,5.41333333 6.272,5.90133333 6.464,6.392 L6.464,6.392 L7.2,8.296 Z M14.928,12.328 C15.3866667,12.328 15.8586667,12.2346667 16.344,12.048 C16.8293333,11.8613333 17.2426667,11.6346667 17.584,11.368 L17.584,11.368 L17.104,10.216 L16.368,10.376 C16.1973333,10.408 16.0186667,10.44 15.832,10.472 C15.6453333,10.504 15.4826667,10.52 15.344,10.52 C15.0346667,10.52 14.8,10.44 14.64,10.28 C14.5013333,10.1413333 14.432,9.90133333 14.432,9.56 L14.432,9.56 L14.432,6.008 L17.024,6.008 L17.024,4.392 L14.432,4.392 L14.432,2.136 L12.368,2.136 L12.368,4.424 L10.96,4.728 L10.96,6.008 L12.368,6.008 L12.368,9.64 C12.368,10.536 12.6026667,11.2133333 13.072,11.672 C13.2853333,11.8853333 13.5466667,12.048 13.856,12.16 C14.1653333,12.272 14.5226667,12.328 14.928,12.328 Z M22.032,12.328 C22.6826667,12.328 23.3173333,12.2053333 23.936,11.96 C24.5546667,11.7146667 25.0986667,11.3893333 25.568,10.984 L25.568,10.984 L24.912,9.832 L24.032,10.136 C23.7013333,10.2533333 23.3813333,10.344 23.072,10.408 C22.7626667,10.472 22.48,10.504 22.224,10.504 C21.584,10.504 21.0933333,10.3626667 20.752,10.08 C20.4106667,9.79733333 20.2133333,9.416 20.16,8.936 L20.16,8.936 L25.328,8.936 C25.4133333,8.936 25.4826667,8.92533333 25.536,8.904 C25.5893333,8.88266667 25.632,8.824 25.664,8.728 C25.696,8.62133333 25.7173333,8.50133333 25.728,8.368 C25.7386667,8.23466667 25.744,8.10933333 25.744,7.992 C25.744,7.48 25.6506667,6.99733333 25.464,6.544 C25.2773333,6.09066667 25.0186667,5.696 24.688,5.36 C24.3573333,5.024 23.9573333,4.75733333 23.488,4.56 C23.0186667,4.36266667 22.5066667,4.264 21.952,4.264 C21.4186667,4.264 20.9146667,4.36 20.44,4.552 C19.9653333,4.744 19.552,5.016 19.2,5.368 C18.848,5.72 18.568,6.144 18.36,6.64 C18.152,7.136 18.048,7.69333333 18.048,8.312 C18.048,8.89866667 18.1493333,9.43733333 18.352,9.928 C18.5546667,10.4186667 18.8346667,10.8426667 19.192,11.2 C19.5493333,11.5573333 19.9706667,11.8346667 20.456,12.032 C20.9413333,12.2293333 21.4666667,12.328 22.032,12.328 Z M23.696,7.48 L20.16,7.48 C20.2133333,7.064 20.392,6.72533333 20.696,6.464 C21,6.20266667 21.4133333,6.072 21.936,6.072 C22.448,6.072 22.8586667,6.20266667 23.168,6.464 C23.4773333,6.72533333 23.6533333,7.064 23.696,7.48 L23.696,7.48 Z M29.264,12.2 L29.264,6.744 C29.264,6.66933333 29.2693333,6.608 29.28,6.56 C29.2906667,6.512 29.3386667,6.472 29.424,6.44 C29.584,6.376 29.7973333,6.32266667 30.064,6.28 C30.3306667,6.23733333 30.6026667,6.216 30.88,6.216 L30.88,6.216 L30.912,6.216 C31.4986667,6.216 31.8986667,6.328 32.112,6.552 C32.2826667,6.72266667 32.368,7 32.368,7.384 L32.368,7.384 L32.368,12.2 L34.432,12.2 L34.432,7.304 C34.432,6.824 34.3573333,6.39466667 34.208,6.016 C34.0586667,5.63733333 33.848,5.32 33.576,5.064 C33.304,4.808 32.9786667,4.61066667 32.6,4.472 C32.2213333,4.33333333 31.808,4.264 31.36,4.264 C31.0506667,4.264 30.7466667,4.30933333 30.448,4.4 C30.1493333,4.49066667 29.8773333,4.60533333 29.632,4.744 L29.632,4.744 L29.024,5.08 L28.768,4.392 L27.2,4.392 L27.2,12.2 L29.264,12.2 Z M39.616,12.328 C39.9466667,12.328 40.28,12.288 40.616,12.208 C40.952,12.128 41.2746667,12.0186667 41.584,11.88 C41.8933333,11.7413333 42.1866667,11.5813333 42.464,11.4 C42.7413333,11.2186667 42.992,11.0266667 43.216,10.824 L43.216,10.824 L42.528,9.704 L41.6,10.072 C41.28,10.2 40.9626667,10.3013333 40.648,10.376 C40.3333333,10.4506667 40.064,10.488 39.84,10.488 C39.168,10.488 38.6693333,10.3093333 38.344,9.952 C38.0186667,9.59466667 37.856,9.02133333 37.856,8.232 C37.856,7.51733333 38.016,6.984 38.336,6.632 C38.656,6.28 39.0346667,6.104 39.472,6.104 C39.728,6.104 39.9706667,6.15733333 40.2,6.264 C40.4293333,6.37066667 40.704,6.57866667 41.024,6.888 L41.024,6.888 L41.744,7.592 L43.104,6.904 C43.008,6.53066667 42.8533333,6.18133333 42.64,5.856 C42.4266667,5.53066667 42.168,5.25066667 41.864,5.016 C41.56,4.78133333 41.2133333,4.59733333 40.824,4.464 C40.4346667,4.33066667 40.016,4.264 39.568,4.264 C39.0666667,4.264 38.584,4.36 38.12,4.552 C37.656,4.744 37.248,5.01333333 36.896,5.36 C36.544,5.70666667 36.264,6.12533333 36.056,6.616 C35.848,7.10666667 35.744,7.656 35.744,8.264 C35.744,8.872 35.8373333,9.42666667 36.024,9.928 C36.2106667,10.4293333 36.472,10.8586667 36.808,11.216 C37.144,11.5733333 37.5493333,11.848 38.024,12.04 C38.4986667,12.232 39.0293333,12.328 39.616,12.328 Z M46.544,3.144 L46.544,1.512 C46.544,1.36266667 46.5146667,1.25866667 46.456,1.2 C46.3973333,1.14133333 46.2826667,1.112 46.112,1.112 L46.112,1.112 L44.48,1.112 L44.48,3.144 L46.544,3.144 Z M46.544,12.2 L46.544,4.392 L44.48,4.392 L44.48,12.2 L46.544,12.2 Z M50.56,3.528 L54.16,1.672 L53.344,0.456 C53.2586667,0.328 53.1733333,0.264 53.088,0.264 C53.024,0.264 52.9386667,0.301333333 52.832,0.376 L52.832,0.376 L49.904,2.616 L50.56,3.528 Z M52,12.328 C52.5226667,12.328 53.024,12.24 53.504,12.064 C53.984,11.888 54.4053333,11.6293333 54.768,11.288 C55.1306667,10.9466667 55.4213333,10.5253333 55.64,10.024 C55.8586667,9.52266667 55.968,8.94666667 55.968,8.296 C55.968,7.656 55.8586667,7.08533333 55.64,6.584 C55.4213333,6.08266667 55.1306667,5.65866667 54.768,5.312 C54.4053333,4.96533333 53.984,4.704 53.504,4.528 C53.024,4.352 52.5226667,4.264 52,4.264 L52,4.264 L51.952,4.264 C51.4293333,4.264 50.928,4.352 50.448,4.528 C49.968,4.704 49.5466667,4.96533333 49.184,5.312 C48.8213333,5.65866667 48.5306667,6.08266667 48.312,6.584 C48.0933333,7.08533333 47.984,7.656 47.984,8.296 C47.984,8.94666667 48.0933333,9.52266667 48.312,10.024 C48.5306667,10.5253333 48.8213333,10.9466667 49.184,11.288 C49.5466667,11.6293333 49.968,11.888 50.448,12.064 C50.928,12.24 51.4293333,12.328 51.952,12.328 L51.952,12.328 L52,12.328 Z M52,10.408 L51.952,10.408 C50.7146667,10.408 50.096,9.704 50.096,8.296 C50.096,6.89866667 50.7146667,6.2 51.952,6.2 L51.952,6.2 L52,6.2 C53.2373333,6.2 53.856,6.89866667 53.856,8.296 C53.856,9.704 53.2373333,10.408 52,10.408 L52,10.408 Z M59.456,12.2 L59.456,6.744 C59.456,6.66933333 59.4613333,6.608 59.472,6.56 C59.4826667,6.512 59.5306667,6.472 59.616,6.44 C59.776,6.376 59.9893333,6.32266667 60.256,6.28 C60.5226667,6.23733333 60.7946667,6.216 61.072,6.216 L61.072,6.216 L61.104,6.216 C61.6906667,6.216 62.0906667,6.328 62.304,6.552 C62.4746667,6.72266667 62.56,7 62.56,7.384 L62.56,7.384 L62.56,12.2 L64.624,12.2 L64.624,7.304 C64.624,6.824 64.5493333,6.39466667 64.4,6.016 C64.2506667,5.63733333 64.04,5.32 63.768,5.064 C63.496,4.808 63.1706667,4.61066667 62.792,4.472 C62.4133333,4.33333333 62,4.264 61.552,4.264 C61.2426667,4.264 60.9386667,4.30933333 60.64,4.4 C60.3413333,4.49066667 60.0693333,4.60533333 59.824,4.744 L59.824,4.744 L59.216,5.08 L58.96,4.392 L57.392,4.392 L57.392,12.2 L59.456,12.2 Z M73.264,16.216 C73.8506667,16.216 74.3946667,16.1466667 74.896,16.008 C75.3973333,15.8693333 75.832,15.672 76.2,15.416 C76.568,15.16 76.856,14.8506667 77.064,14.488 C77.272,14.1253333 77.376,13.72 77.376,13.272 C77.376,12.5573333 77.1413333,12.0106667 76.672,11.632 C76.2026667,11.2533333 75.4666667,11.064 74.464,11.064 L74.464,11.064 L72.176,11.064 C72.0266667,11.064 71.952,11.016 71.952,10.92 C71.952,10.8666667 71.9733333,10.792 72.016,10.696 L72.016,10.696 L72.112,10.472 C72.1333333,10.4186667 72.1573333,10.3786667 72.184,10.352 C72.2106667,10.3253333 72.2666667,10.3226667 72.352,10.344 C72.4693333,10.3653333 72.624,10.392 72.816,10.424 C73.008,10.456 73.1786667,10.472 73.328,10.472 C73.8186667,10.472 74.2746667,10.3973333 74.696,10.248 C75.1173333,10.0986667 75.4853333,9.888 75.8,9.616 C76.1146667,9.344 76.3626667,9.016 76.544,8.632 C76.7253333,8.248 76.816,7.82666667 76.816,7.368 C76.816,6.87733333 76.7093333,6.42933333 76.496,6.024 C76.4533333,5.93866667 76.4426667,5.88533333 76.464,5.864 C76.4853333,5.84266667 76.5386667,5.82133333 76.624,5.8 L76.624,5.8 L78.064,5.56 L78.064,4.392 C77.9146667,4.27466667 77.7466667,4.19733333 77.56,4.16 C77.3733333,4.12266667 77.1893333,4.104 77.008,4.104 C76.7946667,4.104 76.56,4.168 76.304,4.296 C76.048,4.424 75.776,4.62666667 75.488,4.904 C74.88,4.47733333 74.16,4.264 73.328,4.264 C72.8373333,4.264 72.3786667,4.34133333 71.952,4.496 C71.5253333,4.65066667 71.1573333,4.864 70.848,5.136 C70.5386667,5.408 70.2933333,5.73333333 70.112,6.112 C69.9306667,6.49066667 69.84,6.90933333 69.84,7.368 C69.84,7.86933333 69.9413333,8.31733333 70.144,8.712 C70.3466667,9.10666667 70.6293333,9.44266667 70.992,9.72 L70.992,9.72 L70.48,10.312 C70.2773333,10.5466667 70.136,10.7466667 70.056,10.912 C69.976,11.0773333 69.936,11.24 69.936,11.4 C69.936,11.5493333 69.9653333,11.68 70.024,11.792 C70.0826667,11.904 70.16,12.0186667 70.256,12.136 C69.9466667,12.3173333 69.704,12.5253333 69.528,12.76 C69.352,12.9946667 69.264,13.2826667 69.264,13.624 C69.264,13.9973333 69.3626667,14.3413333 69.56,14.656 C69.7573333,14.9706667 70.032,15.2453333 70.384,15.48 C70.736,15.7146667 71.1573333,15.896 71.648,16.024 C72.1386667,16.152 72.6773333,16.216 73.264,16.216 Z M73.328,8.808 C72.848,8.808 72.4693333,8.688 72.192,8.448 C71.9146667,8.208 71.776,7.848 71.776,7.368 C71.776,6.89866667 71.9146667,6.544 72.192,6.304 C72.4693333,6.064 72.848,5.944 73.328,5.944 C73.7973333,5.944 74.1733333,6.064 74.456,6.304 C74.7386667,6.544 74.88,6.89866667 74.88,7.368 C74.88,7.848 74.7386667,8.208 74.456,8.448 C74.1733333,8.688 73.7973333,8.808 73.328,8.808 Z M73.296,14.488 C72.592,14.488 72.0693333,14.3786667 71.728,14.16 C71.3866667,13.9413333 71.216,13.6613333 71.216,13.32 C71.216,13.1493333 71.264,13 71.36,12.872 C71.4133333,12.808 71.4666667,12.7653333 71.52,12.744 C71.5733333,12.7226667 71.6426667,12.712 71.728,12.712 L71.728,12.712 L74.464,12.712 C74.8373333,12.712 75.0906667,12.76 75.224,12.856 C75.3573333,12.952 75.424,13.1066667 75.424,13.32 C75.424,13.704 75.2293333,13.9946667 74.84,14.192 C74.4506667,14.3893333 73.936,14.488 73.296,14.488 Z M82.4,12.328 C83.0506667,12.328 83.6853333,12.2053333 84.304,11.96 C84.9226667,11.7146667 85.4666667,11.3893333 85.936,10.984 L85.936,10.984 L85.28,9.832 L84.4,10.136 C84.0693333,10.2533333 83.7493333,10.344 83.44,10.408 C83.1306667,10.472 82.848,10.504 82.592,10.504 C81.952,10.504 81.4613333,10.3626667 81.12,10.08 C80.7786667,9.79733333 80.5813333,9.416 80.528,8.936 L80.528,8.936 L85.696,8.936 C85.7813333,8.936 85.8506667,8.92533333 85.904,8.904 C85.9573333,8.88266667 86,8.824 86.032,8.728 C86.064,8.62133333 86.0853333,8.50133333 86.096,8.368 C86.1066667,8.23466667 86.112,8.10933333 86.112,7.992 C86.112,7.48 86.0186667,6.99733333 85.832,6.544 C85.6453333,6.09066667 85.3866667,5.696 85.056,5.36 C84.7253333,5.024 84.3253333,4.75733333 83.856,4.56 C83.3866667,4.36266667 82.8746667,4.264 82.32,4.264 C81.7866667,4.264 81.2826667,4.36 80.808,4.552 C80.3333333,4.744 79.92,5.016 79.568,5.368 C79.216,5.72 78.936,6.144 78.728,6.64 C78.52,7.136 78.416,7.69333333 78.416,8.312 C78.416,8.89866667 78.5173333,9.43733333 78.72,9.928 C78.9226667,10.4186667 79.2026667,10.8426667 79.56,11.2 C79.9173333,11.5573333 80.3386667,11.8346667 80.824,12.032 C81.3093333,12.2293333 81.8346667,12.328 82.4,12.328 Z M84.064,7.48 L80.528,7.48 C80.5813333,7.064 80.76,6.72533333 81.064,6.464 C81.368,6.20266667 81.7813333,6.072 82.304,6.072 C82.816,6.072 83.2266667,6.20266667 83.536,6.464 C83.8453333,6.72533333 84.0213333,7.064 84.064,7.48 L84.064,7.48 Z M89.632,12.2 L89.632,6.744 C89.632,6.66933333 89.6373333,6.608 89.648,6.56 C89.6586667,6.512 89.7066667,6.472 89.792,6.44 C89.952,6.376 90.1653333,6.32266667 90.432,6.28 C90.6986667,6.23733333 90.9706667,6.216 91.248,6.216 L91.248,6.216 L91.28,6.216 C91.8666667,6.216 92.2666667,6.328 92.48,6.552 C92.6506667,6.72266667 92.736,7 92.736,7.384 L92.736,7.384 L92.736,12.2 L94.8,12.2 L94.8,7.304 C94.8,6.824 94.7253333,6.39466667 94.576,6.016 C94.4266667,5.63733333 94.216,5.32 93.944,5.064 C93.672,4.808 93.3466667,4.61066667 92.968,4.472 C92.5893333,4.33333333 92.176,4.264 91.728,4.264 C91.4186667,4.264 91.1146667,4.30933333 90.816,4.4 C90.5173333,4.49066667 90.2453333,4.60533333 90,4.744 L90,4.744 L89.392,5.08 L89.136,4.392 L87.568,4.392 L87.568,12.2 L89.632,12.2 Z M100.096,12.328 C100.746667,12.328 101.381333,12.2053333 102,11.96 C102.618667,11.7146667 103.162667,11.3893333 103.632,10.984 L103.632,10.984 L102.976,9.832 L102.096,10.136 C101.765333,10.2533333 101.445333,10.344 101.136,10.408 C100.826667,10.472 100.544,10.504 100.288,10.504 C99.648,10.504 99.1573333,10.3626667 98.816,10.08 C98.4746667,9.79733333 98.2773333,9.416 98.224,8.936 L98.224,8.936 L103.392,8.936 C103.477333,8.936 103.546667,8.92533333 103.6,8.904 C103.653333,8.88266667 103.696,8.824 103.728,8.728 C103.76,8.62133333 103.781333,8.50133333 103.792,8.368 C103.802667,8.23466667 103.808,8.10933333 103.808,7.992 C103.808,7.48 103.714667,6.99733333 103.528,6.544 C103.341333,6.09066667 103.082667,5.696 102.752,5.36 C102.421333,5.024 102.021333,4.75733333 101.552,4.56 C101.082667,4.36266667 100.570667,4.264 100.016,4.264 C99.4826667,4.264 98.9786667,4.36 98.504,4.552 C98.0293333,4.744 97.616,5.016 97.264,5.368 C96.912,5.72 96.632,6.144 96.424,6.64 C96.216,7.136 96.112,7.69333333 96.112,8.312 C96.112,8.89866667 96.2133333,9.43733333 96.416,9.928 C96.6186667,10.4186667 96.8986667,10.8426667 97.256,11.2 C97.6133333,11.5573333 98.0346667,11.8346667 98.52,12.032 C99.0053333,12.2293333 99.5306667,12.328 100.096,12.328 Z M101.76,7.48 L98.224,7.48 C98.2773333,7.064 98.456,6.72533333 98.76,6.464 C99.064,6.20266667 99.4773333,6.072 100,6.072 C100.512,6.072 100.922667,6.20266667 101.232,6.464 C101.541333,6.72533333 101.717333,7.064 101.76,7.48 L101.76,7.48 Z M107.328,12.2 L107.328,6.904 C107.328,6.81866667 107.341333,6.75733333 107.368,6.72 C107.394667,6.68266667 107.456,6.648 107.552,6.616 C107.861333,6.52 108.181333,6.42666667 108.512,6.336 C108.842667,6.24533333 109.210667,6.16266667 109.616,6.088 L109.616,6.088 L110.384,5.944 L110.384,4.536 C110.234667,4.45066667 110.072,4.384 109.896,4.336 C109.72,4.288 109.552,4.264 109.392,4.264 C109.114667,4.264 108.797333,4.352 108.44,4.528 C108.082667,4.704 107.648,4.97866667 107.136,5.352 L107.136,5.352 L106.816,4.392 L105.264,4.392 L105.264,12.2 L107.328,12.2 Z M113.632,12.328 C114.261333,12.328 114.928,12.1413333 115.632,11.768 L115.632,11.768 L116.048,11.544 C116.24,11.7573333 116.448,11.9253333 116.672,12.048 C116.896,12.1706667 117.146667,12.232 117.424,12.232 C117.637333,12.232 117.888,12.2 118.176,12.136 C118.464,12.072 118.704,11.992 118.896,11.896 L118.896,11.896 L118.896,10.792 L117.824,10.584 L117.824,7.416 C117.824,6.88266667 117.757333,6.43466667 117.624,6.072 C117.490667,5.70933333 117.301333,5.40533333 117.056,5.16 C116.746667,4.84 116.378667,4.61066667 115.952,4.472 C115.525333,4.33333333 115.061333,4.264 114.56,4.264 C113.962667,4.264 113.370667,4.376 112.784,4.6 C112.197333,4.824 111.642667,5.13866667 111.12,5.544 L111.12,5.544 L111.76,6.664 L112.416,6.44 C112.768,6.32266667 113.106667,6.22933333 113.432,6.16 C113.757333,6.09066667 114.053333,6.056 114.32,6.056 C114.864,6.056 115.248,6.168 115.472,6.392 C115.664,6.584 115.76,6.88266667 115.76,7.288 L115.76,7.288 L115.76,7.8 C115.44,7.71466667 115.074667,7.64266667 114.664,7.584 C114.253333,7.52533333 113.877333,7.496 113.536,7.496 L113.536,7.496 L113.488,7.496 C112.656,7.496 111.994667,7.688 111.504,8.072 C111.013333,8.456 110.768,9 110.768,9.704 C110.768,10.0773333 110.837333,10.424 110.976,10.744 C111.114667,11.064 111.309333,11.3413333 111.56,11.576 C111.810667,11.8106667 112.112,11.9946667 112.464,12.128 C112.816,12.2613333 113.205333,12.328 113.632,12.328 Z M114.016,10.648 C113.589333,10.648 113.269333,10.552 113.056,10.36 C112.842667,10.168 112.736,9.92266667 112.736,9.624 C112.736,9.41066667 112.781333,9.25333333 112.872,9.152 C112.962667,9.05066667 113.12,9 113.344,9 L113.344,9 L115.584,9 C115.701333,9 115.76,9.05333333 115.76,9.16 L115.76,9.16 L115.76,10.072 C115.76,10.1573333 115.746667,10.216 115.72,10.248 C115.693333,10.28 115.637333,10.312 115.552,10.344 C115.402667,10.408 115.178667,10.4746667 114.88,10.544 C114.581333,10.6133333 114.293333,10.648 114.016,10.648 Z M121.856,12.248 C122.101333,12.248 122.378667,12.2106667 122.688,12.136 C122.997333,12.0613333 123.248,11.976 123.44,11.88 L123.44,11.88 L123.44,10.792 L122.128,10.52 L122.128,0.856 L120.064,0.856 L120.064,10.344 C120.064,10.952 120.224,11.4213333 120.544,11.752 C120.693333,11.9013333 120.88,12.0213333 121.104,12.112 C121.328,12.2026667 121.578667,12.248 121.856,12.248 Z" id="Atencióngeneral"></path>
                        <path d="M9.5904,48.024 C10.8216,48.024 11.9124,47.8458 12.8628,47.4894 C13.8132,47.133 14.634,46.6308 15.3252,45.9828 C16.4268,44.946 17.2476,43.5852 17.7876,41.9004 C18.3276,40.2156 18.5976,38.3256 18.5976,36.2304 L18.5976,36.2304 L18.5976,36.0684 C18.5976,34.7076 18.414,33.4116 18.0468,32.1804 C17.6796,30.9492 17.1288,29.8692 16.3944,28.9404 C15.66,28.0116 14.7474,27.2718 13.6566,26.721 C12.5658,26.1702 11.2968,25.8948 9.8496,25.8948 L9.8496,25.8948 L9.8172,25.8948 C8.694,25.8948 7.6572,26.0838 6.7068,26.4618 C5.7564,26.8398 4.9356,27.3528 4.2444,28.0008 C3.5532,28.6488 3.0132,29.4048 2.6244,30.2688 C2.2356,31.1328 2.0412,32.0508 2.0412,33.0228 C2.0412,34.1028 2.2194,35.064 2.5758,35.9064 C2.9322,36.7488 3.4236,37.4616 4.05,38.0448 C4.6764,38.628 5.4108,39.0708 6.2532,39.3732 C7.0956,39.6756 8.0028,39.8268 8.9748,39.8268 C9.7524,39.8268 10.5624,39.7242 11.4048,39.519 C12.2472,39.3138 13.0464,39.0276 13.8024,38.6604 L13.8024,38.6604 L14.6448,38.2716 C14.6016,40.194 14.1642,41.7384 13.3326,42.9048 C12.501,44.0712 11.1888,44.6544 9.396,44.6544 C8.7696,44.6544 8.0352,44.5788 7.1928,44.4276 C6.3504,44.2764 5.4972,44.082 4.6332,43.8444 L4.6332,43.8444 L3.564,46.2096 C3.9528,46.4688 4.401,46.7118 4.9086,46.9386 C5.4162,47.1654 5.9346,47.3598 6.4638,47.5218 C6.993,47.6838 7.5276,47.808 8.0676,47.8944 C8.6076,47.9808 9.1152,48.024 9.5904,48.024 Z M9.8172,36.7164 L9.7848,36.7164 C8.532,36.7164 7.5438,36.4194 6.8202,35.8254 C6.0966,35.2314 5.7348,34.2972 5.7348,33.0228 C5.7348,31.8564 6.1182,30.933 6.885,30.2526 C7.6518,29.5722 8.6508,29.232 9.882,29.232 C10.638,29.232 11.3184,29.367 11.9232,29.637 C12.528,29.907 13.041,30.2796 13.4622,30.7548 C13.8834,31.23 14.202,31.8024 14.418,32.472 C14.634,33.1416 14.742,33.876 14.742,34.6752 C14.742,34.9344 14.688,35.1342 14.58,35.2746 C14.472,35.415 14.2668,35.5716 13.9644,35.7444 C13.7052,35.874 13.4082,35.9982 13.0734,36.117 C12.7386,36.2358 12.3822,36.3384 12.0042,36.4248 C11.6262,36.5112 11.2482,36.5814 10.8702,36.6354 C10.4922,36.6894 10.1412,36.7164 9.8172,36.7164 L9.8172,36.7164 Z M31.1688,48.024 C32.4864,48.024 33.6852,47.7702 34.7652,47.2626 C35.8452,46.755 36.7686,46.0314 37.5354,45.0918 C38.3022,44.1522 38.8908,43.0128 39.3012,41.6736 C39.7116,40.3344 39.9168,38.844 39.9168,37.2024 L39.9168,37.2024 L39.9168,36.7164 C39.9168,35.0748 39.7116,33.5844 39.3012,32.2452 C38.8908,30.906 38.3022,29.7666 37.5354,28.827 C36.7686,27.8874 35.8452,27.1638 34.7652,26.6562 C33.6852,26.1486 32.4864,25.8948 31.1688,25.8948 L31.1688,25.8948 L31.0392,25.8948 C29.7,25.8948 28.4958,26.1486 27.4266,26.6562 C26.3574,27.1638 25.4394,27.8874 24.6726,28.827 C23.9058,29.7666 23.3172,30.906 22.9068,32.2452 C22.4964,33.5844 22.2912,35.0748 22.2912,36.7164 L22.2912,36.7164 L22.2912,37.2024 C22.2912,38.844 22.4964,40.3344 22.9068,41.6736 C23.3172,43.0128 23.9058,44.1522 24.6726,45.0918 C25.4394,46.0314 26.3574,46.755 27.4266,47.2626 C28.4958,47.7702 29.7,48.024 31.0392,48.024 L31.0392,48.024 L31.1688,48.024 Z M31.1364,44.4276 L31.0716,44.4276 C29.4516,44.4276 28.2528,43.8282 27.4752,42.6294 C26.6976,41.4306 26.3088,39.6216 26.3088,37.2024 L26.3088,37.2024 L26.3088,36.7164 C26.3088,34.2972 26.6976,32.4882 27.4752,31.2894 C28.2528,30.0906 29.4516,29.4912 31.0716,29.4912 L31.0716,29.4912 L31.1364,29.4912 C32.7564,29.4912 33.9552,30.0906 34.7328,31.2894 C35.5104,32.4882 35.8992,34.2972 35.8992,36.7164 L35.8992,36.7164 L35.8992,37.2024 C35.8992,39.6216 35.5104,41.4306 34.7328,42.6294 C33.9552,43.8282 32.7564,44.4276 31.1364,44.4276 L31.1364,44.4276 Z M51.9048,48.024 C53.2224,48.024 54.4212,47.7702 55.5012,47.2626 C56.5812,46.755 57.5046,46.0314 58.2714,45.0918 C59.0382,44.1522 59.6268,43.0128 60.0372,41.6736 C60.4476,40.3344 60.6528,38.844 60.6528,37.2024 L60.6528,37.2024 L60.6528,36.7164 C60.6528,35.0748 60.4476,33.5844 60.0372,32.2452 C59.6268,30.906 59.0382,29.7666 58.2714,28.827 C57.5046,27.8874 56.5812,27.1638 55.5012,26.6562 C54.4212,26.1486 53.2224,25.8948 51.9048,25.8948 L51.9048,25.8948 L51.7752,25.8948 C50.436,25.8948 49.2318,26.1486 48.1626,26.6562 C47.0934,27.1638 46.1754,27.8874 45.4086,28.827 C44.6418,29.7666 44.0532,30.906 43.6428,32.2452 C43.2324,33.5844 43.0272,35.0748 43.0272,36.7164 L43.0272,36.7164 L43.0272,37.2024 C43.0272,38.844 43.2324,40.3344 43.6428,41.6736 C44.0532,43.0128 44.6418,44.1522 45.4086,45.0918 C46.1754,46.0314 47.0934,46.755 48.1626,47.2626 C49.2318,47.7702 50.436,48.024 51.7752,48.024 L51.7752,48.024 L51.9048,48.024 Z M51.8724,44.4276 L51.8076,44.4276 C50.1876,44.4276 48.9888,43.8282 48.2112,42.6294 C47.4336,41.4306 47.0448,39.6216 47.0448,37.2024 L47.0448,37.2024 L47.0448,36.7164 C47.0448,34.2972 47.4336,32.4882 48.2112,31.2894 C48.9888,30.0906 50.1876,29.4912 51.8076,29.4912 L51.8076,29.4912 L51.8724,29.4912 C53.4924,29.4912 54.6912,30.0906 55.4688,31.2894 C56.2464,32.4882 56.6352,34.2972 56.6352,36.7164 L56.6352,36.7164 L56.6352,37.2024 C56.6352,39.6216 56.2464,41.4306 55.4688,42.6294 C54.6912,43.8282 53.4924,44.4276 51.8724,44.4276 L51.8724,44.4276 Z M87.642,47.7 L87.642,44.5572 L83.0412,44.5572 L83.0412,26.2188 L80.9028,26.2188 C80.6436,26.2188 80.4276,26.2404 80.2548,26.2836 C80.082,26.3268 79.866,26.4024 79.6068,26.5104 L79.6068,26.5104 L72.8676,29.4912 L73.9692,32.148 L76.8852,31.2408 C77.4252,31.068 77.895,30.906 78.2946,30.7548 C78.6942,30.6036 78.9804,30.4848 79.1532,30.3984 L79.1532,30.3984 L79.218,30.3984 L79.218,44.5572 L73.71,44.5572 L73.71,47.7 L87.642,47.7 Z M108.378,47.7 L108.378,44.5572 L103.7772,44.5572 L103.7772,26.2188 L101.6388,26.2188 C101.3796,26.2188 101.1636,26.2404 100.9908,26.2836 C100.818,26.3268 100.602,26.4024 100.3428,26.5104 L100.3428,26.5104 L93.6036,29.4912 L94.7052,32.148 L97.6212,31.2408 C98.1612,31.068 98.631,30.906 99.0306,30.7548 C99.4302,30.6036 99.7164,30.4848 99.8892,30.3984 L99.8892,30.3984 L99.954,30.3984 L99.954,44.5572 L94.446,44.5572 L94.446,47.7 L108.378,47.7 Z M129.114,47.7 L129.114,44.5572 L124.5132,44.5572 L124.5132,26.2188 L122.3748,26.2188 C122.1156,26.2188 121.8996,26.2404 121.7268,26.2836 C121.554,26.3268 121.338,26.4024 121.0788,26.5104 L121.0788,26.5104 L114.3396,29.4912 L115.4412,32.148 L118.3572,31.2408 C118.8972,31.068 119.367,30.906 119.7666,30.7548 C120.1662,30.6036 120.4524,30.4848 120.6252,30.3984 L120.6252,30.3984 L120.69,30.3984 L120.69,44.5572 L115.182,44.5572 L115.182,47.7 L129.114,47.7 Z M149.1048,48.024 C150.336,48.024 151.4268,47.8458 152.3772,47.4894 C153.3276,47.133 154.1484,46.6308 154.8396,45.9828 C155.9412,44.946 156.762,43.5852 157.302,41.9004 C157.842,40.2156 158.112,38.3256 158.112,36.2304 L158.112,36.2304 L158.112,36.0684 C158.112,34.7076 157.9284,33.4116 157.5612,32.1804 C157.194,30.9492 156.6432,29.8692 155.9088,28.9404 C155.1744,28.0116 154.2618,27.2718 153.171,26.721 C152.0802,26.1702 150.8112,25.8948 149.364,25.8948 L149.364,25.8948 L149.3316,25.8948 C148.2084,25.8948 147.1716,26.0838 146.2212,26.4618 C145.2708,26.8398 144.45,27.3528 143.7588,28.0008 C143.0676,28.6488 142.5276,29.4048 142.1388,30.2688 C141.75,31.1328 141.5556,32.0508 141.5556,33.0228 C141.5556,34.1028 141.7338,35.064 142.0902,35.9064 C142.4466,36.7488 142.938,37.4616 143.5644,38.0448 C144.1908,38.628 144.9252,39.0708 145.7676,39.3732 C146.61,39.6756 147.5172,39.8268 148.4892,39.8268 C149.2668,39.8268 150.0768,39.7242 150.9192,39.519 C151.7616,39.3138 152.5608,39.0276 153.3168,38.6604 L153.3168,38.6604 L154.1592,38.2716 C154.116,40.194 153.6786,41.7384 152.847,42.9048 C152.0154,44.0712 150.7032,44.6544 148.9104,44.6544 C148.284,44.6544 147.5496,44.5788 146.7072,44.4276 C145.8648,44.2764 145.0116,44.082 144.1476,43.8444 L144.1476,43.8444 L143.0784,46.2096 C143.4672,46.4688 143.9154,46.7118 144.423,46.9386 C144.9306,47.1654 145.449,47.3598 145.9782,47.5218 C146.5074,47.6838 147.042,47.808 147.582,47.8944 C148.122,47.9808 148.6296,48.024 149.1048,48.024 Z M149.3316,36.7164 L149.2992,36.7164 C148.0464,36.7164 147.0582,36.4194 146.3346,35.8254 C145.611,35.2314 145.2492,34.2972 145.2492,33.0228 C145.2492,31.8564 145.6326,30.933 146.3994,30.2526 C147.1662,29.5722 148.1652,29.232 149.3964,29.232 C150.1524,29.232 150.8328,29.367 151.4376,29.637 C152.0424,29.907 152.5554,30.2796 152.9766,30.7548 C153.3978,31.23 153.7164,31.8024 153.9324,32.472 C154.1484,33.1416 154.2564,33.876 154.2564,34.6752 C154.2564,34.9344 154.2024,35.1342 154.0944,35.2746 C153.9864,35.415 153.7812,35.5716 153.4788,35.7444 C153.2196,35.874 152.9226,35.9982 152.5878,36.117 C152.253,36.2358 151.8966,36.3384 151.5186,36.4248 C151.1406,36.5112 150.7626,36.5814 150.3846,36.6354 C150.0066,36.6894 149.6556,36.7164 149.3316,36.7164 L149.3316,36.7164 Z M169.8408,48.024 C171.072,48.024 172.1628,47.8458 173.1132,47.4894 C174.0636,47.133 174.8844,46.6308 175.5756,45.9828 C176.6772,44.946 177.498,43.5852 178.038,41.9004 C178.578,40.2156 178.848,38.3256 178.848,36.2304 L178.848,36.2304 L178.848,36.0684 C178.848,34.7076 178.6644,33.4116 178.2972,32.1804 C177.93,30.9492 177.3792,29.8692 176.6448,28.9404 C175.9104,28.0116 174.9978,27.2718 173.907,26.721 C172.8162,26.1702 171.5472,25.8948 170.1,25.8948 L170.1,25.8948 L170.0676,25.8948 C168.9444,25.8948 167.9076,26.0838 166.9572,26.4618 C166.0068,26.8398 165.186,27.3528 164.4948,28.0008 C163.8036,28.6488 163.2636,29.4048 162.8748,30.2688 C162.486,31.1328 162.2916,32.0508 162.2916,33.0228 C162.2916,34.1028 162.4698,35.064 162.8262,35.9064 C163.1826,36.7488 163.674,37.4616 164.3004,38.0448 C164.9268,38.628 165.6612,39.0708 166.5036,39.3732 C167.346,39.6756 168.2532,39.8268 169.2252,39.8268 C170.0028,39.8268 170.8128,39.7242 171.6552,39.519 C172.4976,39.3138 173.2968,39.0276 174.0528,38.6604 L174.0528,38.6604 L174.8952,38.2716 C174.852,40.194 174.4146,41.7384 173.583,42.9048 C172.7514,44.0712 171.4392,44.6544 169.6464,44.6544 C169.02,44.6544 168.2856,44.5788 167.4432,44.4276 C166.6008,44.2764 165.7476,44.082 164.8836,43.8444 L164.8836,43.8444 L163.8144,46.2096 C164.2032,46.4688 164.6514,46.7118 165.159,46.9386 C165.6666,47.1654 166.185,47.3598 166.7142,47.5218 C167.2434,47.6838 167.778,47.808 168.318,47.8944 C168.858,47.9808 169.3656,48.024 169.8408,48.024 Z M170.0676,36.7164 L170.0352,36.7164 C168.7824,36.7164 167.7942,36.4194 167.0706,35.8254 C166.347,35.2314 165.9852,34.2972 165.9852,33.0228 C165.9852,31.8564 166.3686,30.933 167.1354,30.2526 C167.9022,29.5722 168.9012,29.232 170.1324,29.232 C170.8884,29.232 171.5688,29.367 172.1736,29.637 C172.7784,29.907 173.2914,30.2796 173.7126,30.7548 C174.1338,31.23 174.4524,31.8024 174.6684,32.472 C174.8844,33.1416 174.9924,33.876 174.9924,34.6752 C174.9924,34.9344 174.9384,35.1342 174.8304,35.2746 C174.7224,35.415 174.5172,35.5716 174.2148,35.7444 C173.9556,35.874 173.6586,35.9982 173.3238,36.117 C172.989,36.2358 172.6326,36.3384 172.2546,36.4248 C171.8766,36.5112 171.4986,36.5814 171.1206,36.6354 C170.7426,36.6894 170.3916,36.7164 170.0676,36.7164 L170.0676,36.7164 Z M190.5768,48.024 C191.808,48.024 192.8988,47.8458 193.8492,47.4894 C194.7996,47.133 195.6204,46.6308 196.3116,45.9828 C197.4132,44.946 198.234,43.5852 198.774,41.9004 C199.314,40.2156 199.584,38.3256 199.584,36.2304 L199.584,36.2304 L199.584,36.0684 C199.584,34.7076 199.4004,33.4116 199.0332,32.1804 C198.666,30.9492 198.1152,29.8692 197.3808,28.9404 C196.6464,28.0116 195.7338,27.2718 194.643,26.721 C193.5522,26.1702 192.2832,25.8948 190.836,25.8948 L190.836,25.8948 L190.8036,25.8948 C189.6804,25.8948 188.6436,26.0838 187.6932,26.4618 C186.7428,26.8398 185.922,27.3528 185.2308,28.0008 C184.5396,28.6488 183.9996,29.4048 183.6108,30.2688 C183.222,31.1328 183.0276,32.0508 183.0276,33.0228 C183.0276,34.1028 183.2058,35.064 183.5622,35.9064 C183.9186,36.7488 184.41,37.4616 185.0364,38.0448 C185.6628,38.628 186.3972,39.0708 187.2396,39.3732 C188.082,39.6756 188.9892,39.8268 189.9612,39.8268 C190.7388,39.8268 191.5488,39.7242 192.3912,39.519 C193.2336,39.3138 194.0328,39.0276 194.7888,38.6604 L194.7888,38.6604 L195.6312,38.2716 C195.588,40.194 195.1506,41.7384 194.319,42.9048 C193.4874,44.0712 192.1752,44.6544 190.3824,44.6544 C189.756,44.6544 189.0216,44.5788 188.1792,44.4276 C187.3368,44.2764 186.4836,44.082 185.6196,43.8444 L185.6196,43.8444 L184.5504,46.2096 C184.9392,46.4688 185.3874,46.7118 185.895,46.9386 C186.4026,47.1654 186.921,47.3598 187.4502,47.5218 C187.9794,47.6838 188.514,47.808 189.054,47.8944 C189.594,47.9808 190.1016,48.024 190.5768,48.024 Z M190.8036,36.7164 L190.7712,36.7164 C189.5184,36.7164 188.5302,36.4194 187.8066,35.8254 C187.083,35.2314 186.7212,34.2972 186.7212,33.0228 C186.7212,31.8564 187.1046,30.933 187.8714,30.2526 C188.6382,29.5722 189.6372,29.232 190.8684,29.232 C191.6244,29.232 192.3048,29.367 192.9096,29.637 C193.5144,29.907 194.0274,30.2796 194.4486,30.7548 C194.8698,31.23 195.1884,31.8024 195.4044,32.472 C195.6204,33.1416 195.7284,33.876 195.7284,34.6752 C195.7284,34.9344 195.6744,35.1342 195.5664,35.2746 C195.4584,35.415 195.2532,35.5716 194.9508,35.7444 C194.6916,35.874 194.3946,35.9982 194.0598,36.117 C193.725,36.2358 193.3686,36.3384 192.9906,36.4248 C192.6126,36.5112 192.2346,36.5814 191.8566,36.6354 C191.4786,36.6894 191.1276,36.7164 190.8036,36.7164 L190.8036,36.7164 Z" id="900111999"></path>
                    </g>
                    <g id="Group-3" transform="translate(0.000000, 0.000000)">
                        <mask id="mask-2" fill="white">
                            <use xlink:href="#path-1"></use>
                        </mask>
                        <g id="Clip-2"></g>
                        <path d="M49.72599,61.33536 C48.44259,61.46676 47.43189,60.51096 47.30229,59.23116 L46.86219,55.33236 C46.44459,51.25626 44.50509,48.23766 41.12649,46.08486 C37.54449,43.79796 32.42709,42.16626 25.91469,42.16626 C19.40679,42.16626 14.28849,43.80336 10.70919,46.09296 C7.32969,48.26106 5.39199,51.26976 4.97529,55.35216 L4.57119,59.23116 C4.44609,60.43176 3.52719,61.34976 2.34279,61.34976 C2.26539,61.34976 2.18439,61.34616 2.09979,61.33536 C0.81639,61.20486 -0.11511,60.05556 0.01179,58.77216 L0.41229,54.89856 C0.97659,49.38786 3.59019,45.09846 8.18559,42.15546 C12.53079,39.37356 18.49689,37.95786 25.91469,37.95786 C33.33429,37.95786 39.29679,39.36636 43.64019,42.13836 C48.23739,45.07236 50.85459,49.35726 51.42069,54.86796 L51.81759,58.77216 C51.94809,60.06096 51.01299,61.20486 49.72599,61.33536 M32.83839,26.17056 C30.91599,28.24956 28.56339,29.14776 25.72839,29.14776 C22.89519,29.14776 20.53089,28.23966 18.62829,26.18046 L18.61659,26.17056 C16.64199,24.03486 15.68079,21.42036 15.68079,18.17586 C15.68079,16.63236 16.10919,15.21936 16.98849,13.85496 C17.90289,12.44196 19.11159,11.34666 20.67669,10.50786 C22.25529,9.66276 23.90859,9.25506 25.72839,9.25506 C27.54909,9.25506 29.20329,9.66276 30.78009,10.50786 C32.34519,11.34666 33.55209,12.44196 34.46289,13.85676 C35.34489,15.22116 35.77419,16.63416 35.77419,18.17586 C35.77419,18.96066 35.71569,19.70586 35.60229,20.41866 L29.28789,21.64536 C28.82889,21.12876 28.12059,20.85426 27.39339,20.99556 L24.77349,21.50496 C23.67369,21.71916 22.95819,22.78296 23.17059,23.88096 C23.38299,24.97896 24.44679,25.69356 25.54389,25.48116 L28.16469,24.97176 C28.89459,24.83046 29.44809,24.31206 29.68029,23.66046 L35.03259,22.61916 C34.54569,23.93316 33.81669,25.11036 32.83839,26.17056 M6.73209,21.36366 C6.73479,21.40416 6.73389,21.44556 6.73659,21.48606 C6.73659,21.48606 6.76899,23.30496 8.67249,23.30496 C10.57599,23.30496 10.63089,21.48606 10.63089,21.48606 C10.58139,20.93526 10.55169,20.37816 10.53009,19.81386 C10.21239,10.91286 17.41959,3.86406 25.91469,3.86406 C34.25139,3.86406 41.37129,10.60236 41.29389,19.31256 L39.74679,19.61316 C39.78009,19.15866 39.80349,18.69966 39.80349,18.22986 C39.80349,15.89616 39.14379,13.68306 37.83249,11.65446 C36.55629,9.67176 34.81659,8.08056 32.66289,6.92946 C30.51819,5.78286 28.18899,5.20326 25.72839,5.20326 C23.26959,5.20326 20.93499,5.78286 18.79389,6.92946 C16.63839,8.08056 14.89869,9.67176 13.61889,11.65446 C12.31299,13.68126 11.64969,15.89256 11.64969,18.22986 C11.64969,22.43646 12.99159,26.02296 15.63669,28.88586 C18.33309,31.80276 21.72789,33.28236 25.72839,33.28236 C29.72529,33.28236 33.12369,31.80276 35.81649,28.88586 C37.68849,26.86176 38.89089,24.47136 39.44439,21.76236 L41.20299,21.42036 C41.20029,21.44196 41.20029,21.46446 41.19849,21.48606 C41.19849,21.48606 41.10219,23.35266 43.00569,23.35266 C44.91279,23.35266 45.09459,21.48606 45.09459,21.48606 C45.09639,21.44556 45.09549,21.40416 45.09819,21.36366 C46.42029,21.03426 47.40219,19.84986 47.40219,18.42516 C47.40219,16.84476 46.19169,15.56136 44.64729,15.41646 C42.66909,6.58386 35.03529,0.00036 25.91469,0.00036 C16.79409,0.00036 9.16029,6.58386 7.18209,15.41646 C5.63949,15.56136 4.42719,16.84566 4.42719,18.42516 C4.42719,19.84986 5.41089,21.03516 6.73209,21.36366" id="Fill-1" fill="#004571" mask="url(#mask-2)"></path>
                    </g>
                </g>
            </g>
        </g>
    </g>
</svg>