<?xml version="1.0" encoding="UTF-8"?>
<svg width="337px" height="98px" viewBox="0 0 337 98" version="1.1" xmlns="http://www.w3.org/2000/svg" xmlns:xlink="http://www.w3.org/1999/xlink">
    <!-- Generator: Sketch 62 (91390) - https://sketch.com -->
    <title>Group 5</title>
    <desc>Created with Sketch.</desc>
    <g id="cortesía-V2" stroke="none" stroke-width="1" fill="none" fill-rule="evenodd">
        <g id="Group-5">
            <rect id="Rectangle" fill="#FFFFFF" x="-5.68434189e-14" y="2.13162821e-14" width="336.6" height="97.2" rx="48.6"></rect>
            <g id="Group-6" transform="translate(108.000000, 29.700000)" fill-rule="nonzero">
                <path d="M2.24,12.2 C2.336,12.2 2.4,12.1893333 2.432,12.168 C2.464,12.1466667 2.496,12.0933333 2.528,12.008 L2.528,12.008 L3.232,10.072 L7.904,10.072 L8.672,12.008 C8.704,12.0933333 8.73866667,12.1466667 8.776,12.168 C8.81333333,12.1893333 8.88,12.2 8.976,12.2 L8.976,12.2 L11.072,12.2 L6.784,1.8 C6.74133333,1.71466667 6.70133333,1.65866667 6.664,1.632 C6.62666667,1.60533333 6.56,1.592 6.464,1.592 L6.464,1.592 L4.288,1.592 L0.208,12.2 L2.24,12.2 Z M7.2,8.296 L3.888,8.296 L4.448,6.744 C4.544,6.46666667 4.64533333,6.184 4.752,5.896 C4.85866667,5.608 4.95733333,5.33066667 5.048,5.064 C5.13866667,4.79733333 5.22133333,4.54666667 5.296,4.312 C5.37066667,4.07733333 5.43466667,3.88 5.488,3.72 C5.584,4.04 5.72266667,4.44266667 5.904,4.928 C6.08533333,5.41333333 6.272,5.90133333 6.464,6.392 L6.464,6.392 L7.2,8.296 Z M15.984,12.2 L19.12,4.392 L17.232,4.392 C17.1253333,4.392 17.0533333,4.408 17.016,4.44 C16.9786667,4.472 16.944,4.53066667 16.912,4.616 L16.912,4.616 L15.744,7.736 C15.5733333,8.184 15.4213333,8.61333333 15.288,9.024 C15.1546667,9.43466667 15.0453333,9.77866667 14.96,10.056 C14.928,9.91733333 14.88,9.752 14.816,9.56 C14.752,9.368 14.68,9.16533333 14.6,8.952 C14.52,8.73866667 14.4373333,8.52266667 14.352,8.304 C14.2666667,8.08533333 14.1866667,7.87466667 14.112,7.672 L14.112,7.672 L12.88,4.616 C12.8373333,4.52 12.8,4.45866667 12.768,4.432 C12.736,4.40533333 12.6666667,4.392 12.56,4.392 L12.56,4.392 L10.624,4.392 L13.808,12.024 C13.8613333,12.1413333 13.9573333,12.2 14.096,12.2 L14.096,12.2 L15.984,12.2 Z M23.296,12.328 C23.9466667,12.328 24.5813333,12.2053333 25.2,11.96 C25.8186667,11.7146667 26.3626667,11.3893333 26.832,10.984 L26.832,10.984 L26.176,9.832 L25.296,10.136 C24.9653333,10.2533333 24.6453333,10.344 24.336,10.408 C24.0266667,10.472 23.744,10.504 23.488,10.504 C22.848,10.504 22.3573333,10.3626667 22.016,10.08 C21.6746667,9.79733333 21.4773333,9.416 21.424,8.936 L21.424,8.936 L26.592,8.936 C26.6773333,8.936 26.7466667,8.92533333 26.8,8.904 C26.8533333,8.88266667 26.896,8.824 26.928,8.728 C26.96,8.62133333 26.9813333,8.50133333 26.992,8.368 C27.0026667,8.23466667 27.008,8.10933333 27.008,7.992 C27.008,7.48 26.9146667,6.99733333 26.728,6.544 C26.5413333,6.09066667 26.2826667,5.696 25.952,5.36 C25.6213333,5.024 25.2213333,4.75733333 24.752,4.56 C24.2826667,4.36266667 23.7706667,4.264 23.216,4.264 C22.6826667,4.264 22.1786667,4.36 21.704,4.552 C21.2293333,4.744 20.816,5.016 20.464,5.368 C20.112,5.72 19.832,6.144 19.624,6.64 C19.416,7.136 19.312,7.69333333 19.312,8.312 C19.312,8.89866667 19.4133333,9.43733333 19.616,9.928 C19.8186667,10.4186667 20.0986667,10.8426667 20.456,11.2 C20.8133333,11.5573333 21.2346667,11.8346667 21.72,12.032 C22.2053333,12.2293333 22.7306667,12.328 23.296,12.328 Z M24.96,7.48 L21.424,7.48 C21.4773333,7.064 21.656,6.72533333 21.96,6.464 C22.264,6.20266667 22.6773333,6.072 23.2,6.072 C23.712,6.072 24.1226667,6.20266667 24.432,6.464 C24.7413333,6.72533333 24.9173333,7.064 24.96,7.48 L24.96,7.48 Z M30.528,12.2 L30.528,6.904 C30.528,6.81866667 30.5413333,6.75733333 30.568,6.72 C30.5946667,6.68266667 30.656,6.648 30.752,6.616 C31.0613333,6.52 31.3813333,6.42666667 31.712,6.336 C32.0426667,6.24533333 32.4106667,6.16266667 32.816,6.088 L32.816,6.088 L33.584,5.944 L33.584,4.536 C33.4346667,4.45066667 33.272,4.384 33.096,4.336 C32.92,4.288 32.752,4.264 32.592,4.264 C32.3146667,4.264 31.9973333,4.352 31.64,4.528 C31.2826667,4.704 30.848,4.97866667 30.336,5.352 L30.336,5.352 L30.016,4.392 L28.464,4.392 L28.464,12.2 L30.528,12.2 Z M34.176,3.528 L37.776,1.672 L36.96,0.456 C36.8746667,0.328 36.7893333,0.264 36.704,0.264 C36.64,0.264 36.5546667,0.301333333 36.448,0.376 L36.448,0.376 L33.52,2.616 L34.176,3.528 Z M36.688,12.2 L36.688,4.392 L34.624,4.392 L34.624,12.2 L36.688,12.2 Z M40.992,12.328 C41.6213333,12.328 42.288,12.1413333 42.992,11.768 L42.992,11.768 L43.408,11.544 C43.6,11.7573333 43.808,11.9253333 44.032,12.048 C44.256,12.1706667 44.5066667,12.232 44.784,12.232 C44.9973333,12.232 45.248,12.2 45.536,12.136 C45.824,12.072 46.064,11.992 46.256,11.896 L46.256,11.896 L46.256,10.792 L45.184,10.584 L45.184,7.416 C45.184,6.88266667 45.1173333,6.43466667 44.984,6.072 C44.8506667,5.70933333 44.6613333,5.40533333 44.416,5.16 C44.1066667,4.84 43.7386667,4.61066667 43.312,4.472 C42.8853333,4.33333333 42.4213333,4.264 41.92,4.264 C41.3226667,4.264 40.7306667,4.376 40.144,4.6 C39.5573333,4.824 39.0026667,5.13866667 38.48,5.544 L38.48,5.544 L39.12,6.664 L39.776,6.44 C40.128,6.32266667 40.4666667,6.22933333 40.792,6.16 C41.1173333,6.09066667 41.4133333,6.056 41.68,6.056 C42.224,6.056 42.608,6.168 42.832,6.392 C43.024,6.584 43.12,6.88266667 43.12,7.288 L43.12,7.288 L43.12,7.8 C42.8,7.71466667 42.4346667,7.64266667 42.024,7.584 C41.6133333,7.52533333 41.2373333,7.496 40.896,7.496 L40.896,7.496 L40.848,7.496 C40.016,7.496 39.3546667,7.688 38.864,8.072 C38.3733333,8.456 38.128,9 38.128,9.704 C38.128,10.0773333 38.1973333,10.424 38.336,10.744 C38.4746667,11.064 38.6693333,11.3413333 38.92,11.576 C39.1706667,11.8106667 39.472,11.9946667 39.824,12.128 C40.176,12.2613333 40.5653333,12.328 40.992,12.328 Z M41.376,10.648 C40.9493333,10.648 40.6293333,10.552 40.416,10.36 C40.2026667,10.168 40.096,9.92266667 40.096,9.624 C40.096,9.41066667 40.1413333,9.25333333 40.232,9.152 C40.3226667,9.05066667 40.48,9 40.704,9 L40.704,9 L42.944,9 C43.0613333,9 43.12,9.05333333 43.12,9.16 L43.12,9.16 L43.12,10.072 C43.12,10.1573333 43.1066667,10.216 43.08,10.248 C43.0533333,10.28 42.9973333,10.312 42.912,10.344 C42.7626667,10.408 42.5386667,10.4746667 42.24,10.544 C41.9413333,10.6133333 41.6533333,10.648 41.376,10.648 Z M50.368,12.328 C51.4346667,12.328 52.2373333,12.0906667 52.776,11.616 C53.3146667,11.1413333 53.584,10.52 53.584,9.752 C53.584,9.4 53.5333333,9.09866667 53.432,8.848 C53.3306667,8.59733333 53.1733333,8.38133333 52.96,8.2 C52.7466667,8.01866667 52.4746667,7.864 52.144,7.736 C51.8133333,7.608 51.424,7.48533333 50.976,7.368 L50.976,7.368 L49.936,7.112 C49.6266667,7.02666667 49.384,6.94666667 49.208,6.872 C49.032,6.79733333 48.944,6.67466667 48.944,6.504 C48.944,6.29066667 49.0613333,6.14666667 49.296,6.072 C49.5306667,5.99733333 49.8933333,5.96 50.384,5.96 C50.5973333,5.96 50.8586667,5.97066667 51.168,5.992 C51.4773333,6.01333333 51.8186667,6.04533333 52.192,6.088 L52.192,6.088 L52.96,6.168 L53.28,4.872 C52.8533333,4.68 52.384,4.53066667 51.872,4.424 C51.36,4.31733333 50.8533333,4.264 50.352,4.264 C49.872,4.264 49.432,4.31466667 49.032,4.416 C48.632,4.51733333 48.2853333,4.664 47.992,4.856 C47.6986667,5.048 47.472,5.288 47.312,5.576 C47.152,5.864 47.072,6.19466667 47.072,6.568 C47.072,6.90933333 47.1306667,7.20533333 47.248,7.456 C47.3653333,7.70666667 47.536,7.92266667 47.76,8.104 C47.984,8.28533333 48.256,8.44 48.576,8.568 C48.896,8.696 49.2533333,8.808 49.648,8.904 L49.648,8.904 L50.656,9.144 C51.0613333,9.24 51.336,9.336 51.48,9.432 C51.624,9.528 51.696,9.67733333 51.696,9.88 C51.696,10.1253333 51.5813333,10.312 51.352,10.44 C51.1226667,10.568 50.8,10.632 50.384,10.632 C50.1173333,10.632 49.816,10.6106667 49.48,10.568 C49.144,10.5253333 48.7413333,10.4613333 48.272,10.376 L48.272,10.376 L47.408,10.216 L46.976,11.48 C47.1893333,11.5973333 47.432,11.7093333 47.704,11.816 C47.976,11.9226667 48.2613333,12.0133333 48.56,12.088 C48.8586667,12.1626667 49.1626667,12.2213333 49.472,12.264 C49.7813333,12.3066667 50.08,12.328 50.368,12.328 Z" id="Averías" fill="#004571"></path>
                <path d="M8.424,48.024 C9.7416,48.024 10.8918,47.8242 11.8746,47.4246 C12.8574,47.025 13.716,46.4688 14.4504,45.756 C15.552,44.676 16.3512,43.3152 16.848,41.6736 C17.3448,40.032 17.5932,38.2176 17.5932,36.2304 L17.5932,36.2304 L17.5932,36.0684 C17.5932,34.4916 17.3772,33.0714 16.9452,31.8078 C16.5132,30.5442 15.9192,29.475 15.1632,28.6002 C14.4072,27.7254 13.5108,27.0558 12.474,26.5914 C11.4372,26.127 10.314,25.8948 9.1044,25.8948 C7.9812,25.8948 6.9606,26.0838 6.0426,26.4618 C5.1246,26.8398 4.3362,27.3528 3.6774,28.0008 C3.0186,28.6488 2.511,29.4102 2.1546,30.285 C1.7982,31.1598 1.62,32.094 1.62,33.0876 C1.62,34.1244 1.7982,35.0478 2.1546,35.8578 C2.511,36.6678 2.997,37.3536 3.6126,37.9152 C4.2282,38.4768 4.9572,38.9088 5.7996,39.2112 C6.642,39.5136 7.5384,39.6648 8.4888,39.6648 C9.288,39.6648 10.152,39.546 11.0808,39.3084 C12.0096,39.0708 12.9168,38.7684 13.8024,38.4012 L13.8024,38.4012 L14.6448,38.0448 C14.58,39.168 14.418,40.1832 14.1588,41.0904 C13.8996,41.9976 13.5108,42.7752 12.9924,43.4232 C12.474,44.0712 11.8152,44.568 11.016,44.9136 C10.2168,45.2592 9.2448,45.432 8.1,45.432 C7.6248,45.432 7.02,45.3942 6.2856,45.3186 C5.5512,45.243 4.7628,45.0864 3.9204,44.8488 L3.9204,44.8488 L3.24,46.6632 C3.9312,47.0952 4.7628,47.43 5.7348,47.6676 C6.7068,47.9052 7.6032,48.024 8.424,48.024 Z M9.1044,37.2348 C7.5492,37.2348 6.3936,36.8568 5.6376,36.1008 C4.8816,35.3448 4.5036,34.2972 4.5036,32.958 C4.5036,31.6188 4.914,30.5388 5.7348,29.718 C6.5556,28.8972 7.668,28.4868 9.072,28.4868 C9.9576,28.4868 10.746,28.6596 11.4372,29.0052 C12.1284,29.3508 12.717,29.826 13.203,30.4308 C13.689,31.0356 14.0562,31.743 14.3046,32.553 C14.553,33.363 14.6772,34.2324 14.6772,35.1612 L14.6772,35.1612 L14.6772,35.2584 C14.6772,35.4744 14.6556,35.6364 14.6124,35.7444 C14.5692,35.8524 14.3964,35.982 14.094,36.1332 C13.4028,36.4788 12.6036,36.7488 11.6964,36.9432 C10.7892,37.1376 9.9252,37.2348 9.1044,37.2348 Z M29.7432,48.024 C31.0392,48.024 32.2056,47.7486 33.2424,47.1978 C34.2792,46.647 35.1594,45.8856 35.883,44.9136 C36.6066,43.9416 37.1574,42.7806 37.5354,41.4306 C37.9134,40.0806 38.1024,38.5956 38.1024,36.9756 C38.1024,35.3556 37.9134,33.8706 37.5354,32.5206 C37.1574,31.1706 36.6066,30.0042 35.883,29.0214 C35.1594,28.0386 34.2792,27.2718 33.2424,26.721 C32.2056,26.1702 31.0392,25.8948 29.7432,25.8948 C28.4472,25.8948 27.2808,26.1702 26.244,26.721 C25.2072,27.2718 24.327,28.0386 23.6034,29.0214 C22.8798,30.0042 22.329,31.1706 21.951,32.5206 C21.573,33.8706 21.384,35.3556 21.384,36.9756 C21.384,38.5956 21.573,40.0806 21.951,41.4306 C22.329,42.7806 22.8798,43.9416 23.6034,44.9136 C24.327,45.8856 25.2072,46.647 26.244,47.1978 C27.2808,47.7486 28.4472,48.024 29.7432,48.024 Z M29.7432,45.3024 C27.8424,45.3024 26.4708,44.5626 25.6284,43.083 C24.786,41.6034 24.3648,39.5676 24.3648,36.9756 C24.3648,34.3836 24.786,32.3424 25.6284,30.852 C26.4708,29.3616 27.8424,28.6164 29.7432,28.6164 C31.644,28.6164 33.0156,29.3616 33.858,30.852 C34.7004,32.3424 35.1216,34.3836 35.1216,36.9756 C35.1216,39.5676 34.7004,41.6034 33.858,43.083 C33.0156,44.5626 31.644,45.3024 29.7432,45.3024 Z M49.572,48.024 C50.868,48.024 52.0344,47.7486 53.0712,47.1978 C54.108,46.647 54.9882,45.8856 55.7118,44.9136 C56.4354,43.9416 56.9862,42.7806 57.3642,41.4306 C57.7422,40.0806 57.9312,38.5956 57.9312,36.9756 C57.9312,35.3556 57.7422,33.8706 57.3642,32.5206 C56.9862,31.1706 56.4354,30.0042 55.7118,29.0214 C54.9882,28.0386 54.108,27.2718 53.0712,26.721 C52.0344,26.1702 50.868,25.8948 49.572,25.8948 C48.276,25.8948 47.1096,26.1702 46.0728,26.721 C45.036,27.2718 44.1558,28.0386 43.4322,29.0214 C42.7086,30.0042 42.1578,31.1706 41.7798,32.5206 C41.4018,33.8706 41.2128,35.3556 41.2128,36.9756 C41.2128,38.5956 41.4018,40.0806 41.7798,41.4306 C42.1578,42.7806 42.7086,43.9416 43.4322,44.9136 C44.1558,45.8856 45.036,46.647 46.0728,47.1978 C47.1096,47.7486 48.276,48.024 49.572,48.024 Z M49.572,45.3024 C47.6712,45.3024 46.2996,44.5626 45.4572,43.083 C44.6148,41.6034 44.1936,39.5676 44.1936,36.9756 C44.1936,34.3836 44.6148,32.3424 45.4572,30.852 C46.2996,29.3616 47.6712,28.6164 49.572,28.6164 C51.4728,28.6164 52.8444,29.3616 53.6868,30.852 C54.5292,32.3424 54.9504,34.3836 54.9504,36.9756 C54.9504,39.5676 54.5292,41.6034 53.6868,43.083 C52.8444,44.5626 51.4728,45.3024 49.572,45.3024 Z M76.8204,48.024 C77.9004,48.024 78.8994,47.8674 79.8174,47.5542 C80.7354,47.241 81.5292,46.7928 82.1988,46.2096 C82.8684,45.6264 83.3922,44.919 83.7702,44.0874 C84.1482,43.2558 84.3372,42.3216 84.3372,41.2848 C84.3372,40.1832 84.078,39.2112 83.5596,38.3688 C83.0412,37.5264 82.2852,36.8784 81.2916,36.4248 C82.7388,34.7832 83.4624,33.12 83.4624,31.4352 C83.4624,30.6144 83.2896,29.8638 82.944,29.1834 C82.5984,28.503 82.1286,27.9198 81.5346,27.4338 C80.9406,26.9478 80.2386,26.5698 79.4286,26.2998 C78.6186,26.0298 77.7492,25.8948 76.8204,25.8948 C75.546,25.8948 74.2824,26.1216 73.0296,26.5752 C71.7768,27.0288 70.524,27.6768 69.2712,28.5192 L69.2712,28.5192 L70.2108,30.204 L72.0576,29.5236 C72.9432,29.1996 73.7424,28.9512 74.4552,28.7784 C75.168,28.6056 75.9024,28.5192 76.6584,28.5192 C77.8248,28.5192 78.7698,28.8054 79.4934,29.3778 C80.217,29.9502 80.5788,30.8304 80.5788,32.0184 C80.5788,32.5584 80.4816,33.1254 80.2872,33.7194 C80.0928,34.3134 79.8444,34.7832 79.542,35.1288 C79.326,35.3664 79.1208,35.5176 78.9264,35.5824 C78.732,35.6472 78.4512,35.6796 78.084,35.6796 L78.084,35.6796 L74.8116,35.6796 L74.8116,37.494 C74.8116,37.6452 74.844,37.7478 74.9088,37.8018 C74.9736,37.8558 75.1032,37.8828 75.2976,37.8828 L75.2976,37.8828 L77.6304,37.8828 C78.3216,37.8828 78.8994,37.953 79.3638,38.0934 C79.8282,38.2338 80.2116,38.4444 80.514,38.7252 C81.0756,39.2652 81.3564,40.0968 81.3564,41.22 C81.3564,42.516 80.9244,43.5312 80.0604,44.2656 C79.1964,45 78.0516,45.3672 76.626,45.3672 C75.8484,45.3672 75.06,45.2754 74.2608,45.0918 C73.4616,44.9082 72.6192,44.6436 71.7336,44.298 L71.7336,44.298 L69.4332,43.4232 L68.4936,45.0108 C69.6384,45.9396 70.929,46.674 72.3654,47.214 C73.8018,47.754 75.2868,48.024 76.8204,48.024 Z M96.6492,48.024 C97.7292,48.024 98.7282,47.8674 99.6462,47.5542 C100.5642,47.241 101.358,46.7928 102.0276,46.2096 C102.6972,45.6264 103.221,44.919 103.599,44.0874 C103.977,43.2558 104.166,42.3216 104.166,41.2848 C104.166,40.1832 103.9068,39.2112 103.3884,38.3688 C102.87,37.5264 102.114,36.8784 101.1204,36.4248 C102.5676,34.7832 103.2912,33.12 103.2912,31.4352 C103.2912,30.6144 103.1184,29.8638 102.7728,29.1834 C102.4272,28.503 101.9574,27.9198 101.3634,27.4338 C100.7694,26.9478 100.0674,26.5698 99.2574,26.2998 C98.4474,26.0298 97.578,25.8948 96.6492,25.8948 C95.3748,25.8948 94.1112,26.1216 92.8584,26.5752 C91.6056,27.0288 90.3528,27.6768 89.1,28.5192 L89.1,28.5192 L90.0396,30.204 L91.8864,29.5236 C92.772,29.1996 93.5712,28.9512 94.284,28.7784 C94.9968,28.6056 95.7312,28.5192 96.4872,28.5192 C97.6536,28.5192 98.5986,28.8054 99.3222,29.3778 C100.0458,29.9502 100.4076,30.8304 100.4076,32.0184 C100.4076,32.5584 100.3104,33.1254 100.116,33.7194 C99.9216,34.3134 99.6732,34.7832 99.3708,35.1288 C99.1548,35.3664 98.9496,35.5176 98.7552,35.5824 C98.5608,35.6472 98.28,35.6796 97.9128,35.6796 L97.9128,35.6796 L94.6404,35.6796 L94.6404,37.494 C94.6404,37.6452 94.6728,37.7478 94.7376,37.8018 C94.8024,37.8558 94.932,37.8828 95.1264,37.8828 L95.1264,37.8828 L97.4592,37.8828 C98.1504,37.8828 98.7282,37.953 99.1926,38.0934 C99.657,38.2338 100.0404,38.4444 100.3428,38.7252 C100.9044,39.2652 101.1852,40.0968 101.1852,41.22 C101.1852,42.516 100.7532,43.5312 99.8892,44.2656 C99.0252,45 97.8804,45.3672 96.4548,45.3672 C95.6772,45.3672 94.8888,45.2754 94.0896,45.0918 C93.2904,44.9082 92.448,44.6436 91.5624,44.298 L91.5624,44.298 L89.262,43.4232 L88.3224,45.0108 C89.4672,45.9396 90.7578,46.674 92.1942,47.214 C93.6306,47.754 95.1156,48.024 96.6492,48.024 Z M116.478,48.024 C117.558,48.024 118.557,47.8674 119.475,47.5542 C120.393,47.241 121.1868,46.7928 121.8564,46.2096 C122.526,45.6264 123.0498,44.919 123.4278,44.0874 C123.8058,43.2558 123.9948,42.3216 123.9948,41.2848 C123.9948,40.1832 123.7356,39.2112 123.2172,38.3688 C122.6988,37.5264 121.9428,36.8784 120.9492,36.4248 C122.3964,34.7832 123.12,33.12 123.12,31.4352 C123.12,30.6144 122.9472,29.8638 122.6016,29.1834 C122.256,28.503 121.7862,27.9198 121.1922,27.4338 C120.5982,26.9478 119.8962,26.5698 119.0862,26.2998 C118.2762,26.0298 117.4068,25.8948 116.478,25.8948 C115.2036,25.8948 113.94,26.1216 112.6872,26.5752 C111.4344,27.0288 110.1816,27.6768 108.9288,28.5192 L108.9288,28.5192 L109.8684,30.204 L111.7152,29.5236 C112.6008,29.1996 113.4,28.9512 114.1128,28.7784 C114.8256,28.6056 115.56,28.5192 116.316,28.5192 C117.4824,28.5192 118.4274,28.8054 119.151,29.3778 C119.8746,29.9502 120.2364,30.8304 120.2364,32.0184 C120.2364,32.5584 120.1392,33.1254 119.9448,33.7194 C119.7504,34.3134 119.502,34.7832 119.1996,35.1288 C118.9836,35.3664 118.7784,35.5176 118.584,35.5824 C118.3896,35.6472 118.1088,35.6796 117.7416,35.6796 L117.7416,35.6796 L114.4692,35.6796 L114.4692,37.494 C114.4692,37.6452 114.5016,37.7478 114.5664,37.8018 C114.6312,37.8558 114.7608,37.8828 114.9552,37.8828 L114.9552,37.8828 L117.288,37.8828 C117.9792,37.8828 118.557,37.953 119.0214,38.0934 C119.4858,38.2338 119.8692,38.4444 120.1716,38.7252 C120.7332,39.2652 121.014,40.0968 121.014,41.22 C121.014,42.516 120.582,43.5312 119.718,44.2656 C118.854,45 117.7092,45.3672 116.2836,45.3672 C115.506,45.3672 114.7176,45.2754 113.9184,45.0918 C113.1192,44.9082 112.2768,44.6436 111.3912,44.298 L111.3912,44.298 L109.0908,43.4232 L108.1512,45.0108 C109.296,45.9396 110.5866,46.674 112.023,47.214 C113.4594,47.754 114.9444,48.024 116.478,48.024 Z M142.4304,48.024 C143.748,48.024 144.8982,47.8242 145.881,47.4246 C146.8638,47.025 147.7224,46.4688 148.4568,45.756 C149.5584,44.676 150.3576,43.3152 150.8544,41.6736 C151.3512,40.032 151.5996,38.2176 151.5996,36.2304 L151.5996,36.2304 L151.5996,36.0684 C151.5996,34.4916 151.3836,33.0714 150.9516,31.8078 C150.5196,30.5442 149.9256,29.475 149.1696,28.6002 C148.4136,27.7254 147.5172,27.0558 146.4804,26.5914 C145.4436,26.127 144.3204,25.8948 143.1108,25.8948 C141.9876,25.8948 140.967,26.0838 140.049,26.4618 C139.131,26.8398 138.3426,27.3528 137.6838,28.0008 C137.025,28.6488 136.5174,29.4102 136.161,30.285 C135.8046,31.1598 135.6264,32.094 135.6264,33.0876 C135.6264,34.1244 135.8046,35.0478 136.161,35.8578 C136.5174,36.6678 137.0034,37.3536 137.619,37.9152 C138.2346,38.4768 138.9636,38.9088 139.806,39.2112 C140.6484,39.5136 141.5448,39.6648 142.4952,39.6648 C143.2944,39.6648 144.1584,39.546 145.0872,39.3084 C146.016,39.0708 146.9232,38.7684 147.8088,38.4012 L147.8088,38.4012 L148.6512,38.0448 C148.5864,39.168 148.4244,40.1832 148.1652,41.0904 C147.906,41.9976 147.5172,42.7752 146.9988,43.4232 C146.4804,44.0712 145.8216,44.568 145.0224,44.9136 C144.2232,45.2592 143.2512,45.432 142.1064,45.432 C141.6312,45.432 141.0264,45.3942 140.292,45.3186 C139.5576,45.243 138.7692,45.0864 137.9268,44.8488 L137.9268,44.8488 L137.2464,46.6632 C137.9376,47.0952 138.7692,47.43 139.7412,47.6676 C140.7132,47.9052 141.6096,48.024 142.4304,48.024 Z M143.1108,37.2348 C141.5556,37.2348 140.4,36.8568 139.644,36.1008 C138.888,35.3448 138.51,34.2972 138.51,32.958 C138.51,31.6188 138.9204,30.5388 139.7412,29.718 C140.562,28.8972 141.6744,28.4868 143.0784,28.4868 C143.964,28.4868 144.7524,28.6596 145.4436,29.0052 C146.1348,29.3508 146.7234,29.826 147.2094,30.4308 C147.6954,31.0356 148.0626,31.743 148.311,32.553 C148.5594,33.363 148.6836,34.2324 148.6836,35.1612 L148.6836,35.1612 L148.6836,35.2584 C148.6836,35.4744 148.662,35.6364 148.6188,35.7444 C148.5756,35.8524 148.4028,35.982 148.1004,36.1332 C147.4092,36.4788 146.61,36.7488 145.7028,36.9432 C144.7956,37.1376 143.9316,37.2348 143.1108,37.2348 Z M162.2592,48.024 C163.5768,48.024 164.727,47.8242 165.7098,47.4246 C166.6926,47.025 167.5512,46.4688 168.2856,45.756 C169.3872,44.676 170.1864,43.3152 170.6832,41.6736 C171.18,40.032 171.4284,38.2176 171.4284,36.2304 L171.4284,36.2304 L171.4284,36.0684 C171.4284,34.4916 171.2124,33.0714 170.7804,31.8078 C170.3484,30.5442 169.7544,29.475 168.9984,28.6002 C168.2424,27.7254 167.346,27.0558 166.3092,26.5914 C165.2724,26.127 164.1492,25.8948 162.9396,25.8948 C161.8164,25.8948 160.7958,26.0838 159.8778,26.4618 C158.9598,26.8398 158.1714,27.3528 157.5126,28.0008 C156.8538,28.6488 156.3462,29.4102 155.9898,30.285 C155.6334,31.1598 155.4552,32.094 155.4552,33.0876 C155.4552,34.1244 155.6334,35.0478 155.9898,35.8578 C156.3462,36.6678 156.8322,37.3536 157.4478,37.9152 C158.0634,38.4768 158.7924,38.9088 159.6348,39.2112 C160.4772,39.5136 161.3736,39.6648 162.324,39.6648 C163.1232,39.6648 163.9872,39.546 164.916,39.3084 C165.8448,39.0708 166.752,38.7684 167.6376,38.4012 L167.6376,38.4012 L168.48,38.0448 C168.4152,39.168 168.2532,40.1832 167.994,41.0904 C167.7348,41.9976 167.346,42.7752 166.8276,43.4232 C166.3092,44.0712 165.6504,44.568 164.8512,44.9136 C164.052,45.2592 163.08,45.432 161.9352,45.432 C161.46,45.432 160.8552,45.3942 160.1208,45.3186 C159.3864,45.243 158.598,45.0864 157.7556,44.8488 L157.7556,44.8488 L157.0752,46.6632 C157.7664,47.0952 158.598,47.43 159.57,47.6676 C160.542,47.9052 161.4384,48.024 162.2592,48.024 Z M162.9396,37.2348 C161.3844,37.2348 160.2288,36.8568 159.4728,36.1008 C158.7168,35.3448 158.3388,34.2972 158.3388,32.958 C158.3388,31.6188 158.7492,30.5388 159.57,29.718 C160.3908,28.8972 161.5032,28.4868 162.9072,28.4868 C163.7928,28.4868 164.5812,28.6596 165.2724,29.0052 C165.9636,29.3508 166.5522,29.826 167.0382,30.4308 C167.5242,31.0356 167.8914,31.743 168.1398,32.553 C168.3882,33.363 168.5124,34.2324 168.5124,35.1612 L168.5124,35.1612 L168.5124,35.2584 C168.5124,35.4744 168.4908,35.6364 168.4476,35.7444 C168.4044,35.8524 168.2316,35.982 167.9292,36.1332 C167.238,36.4788 166.4388,36.7488 165.5316,36.9432 C164.6244,37.1376 163.7604,37.2348 162.9396,37.2348 Z M182.088,48.024 C183.4056,48.024 184.5558,47.8242 185.5386,47.4246 C186.5214,47.025 187.38,46.4688 188.1144,45.756 C189.216,44.676 190.0152,43.3152 190.512,41.6736 C191.0088,40.032 191.2572,38.2176 191.2572,36.2304 L191.2572,36.2304 L191.2572,36.0684 C191.2572,34.4916 191.0412,33.0714 190.6092,31.8078 C190.1772,30.5442 189.5832,29.475 188.8272,28.6002 C188.0712,27.7254 187.1748,27.0558 186.138,26.5914 C185.1012,26.127 183.978,25.8948 182.7684,25.8948 C181.6452,25.8948 180.6246,26.0838 179.7066,26.4618 C178.7886,26.8398 178.0002,27.3528 177.3414,28.0008 C176.6826,28.6488 176.175,29.4102 175.8186,30.285 C175.4622,31.1598 175.284,32.094 175.284,33.0876 C175.284,34.1244 175.4622,35.0478 175.8186,35.8578 C176.175,36.6678 176.661,37.3536 177.2766,37.9152 C177.8922,38.4768 178.6212,38.9088 179.4636,39.2112 C180.306,39.5136 181.2024,39.6648 182.1528,39.6648 C182.952,39.6648 183.816,39.546 184.7448,39.3084 C185.6736,39.0708 186.5808,38.7684 187.4664,38.4012 L187.4664,38.4012 L188.3088,38.0448 C188.244,39.168 188.082,40.1832 187.8228,41.0904 C187.5636,41.9976 187.1748,42.7752 186.6564,43.4232 C186.138,44.0712 185.4792,44.568 184.68,44.9136 C183.8808,45.2592 182.9088,45.432 181.764,45.432 C181.2888,45.432 180.684,45.3942 179.9496,45.3186 C179.2152,45.243 178.4268,45.0864 177.5844,44.8488 L177.5844,44.8488 L176.904,46.6632 C177.5952,47.0952 178.4268,47.43 179.3988,47.6676 C180.3708,47.9052 181.2672,48.024 182.088,48.024 Z M182.7684,37.2348 C181.2132,37.2348 180.0576,36.8568 179.3016,36.1008 C178.5456,35.3448 178.1676,34.2972 178.1676,32.958 C178.1676,31.6188 178.578,30.5388 179.3988,29.718 C180.2196,28.8972 181.332,28.4868 182.736,28.4868 C183.6216,28.4868 184.41,28.6596 185.1012,29.0052 C185.7924,29.3508 186.381,29.826 186.867,30.4308 C187.353,31.0356 187.7202,31.743 187.9686,32.553 C188.217,33.363 188.3412,34.2324 188.3412,35.1612 L188.3412,35.1612 L188.3412,35.2584 C188.3412,35.4744 188.3196,35.6364 188.2764,35.7444 C188.2332,35.8524 188.0604,35.982 187.758,36.1332 C187.0668,36.4788 186.2676,36.7488 185.3604,36.9432 C184.4532,37.1376 183.5892,37.2348 182.7684,37.2348 Z" id="900333999" fill="#E57200"></path>
            </g>
            <g id="Group-3" transform="translate(32.000000, 18.000000)" fill="#004571">
                <path d="M23.2167292,21.9289427 C18.7854342,26.3593852 11.5715792,26.3585327 7.14028425,21.9272377 C2.70728425,17.4942377 2.70728425,10.2820877 7.13857925,5.84994025 C7.27156925,5.71780275 7.40455925,5.58992775 7.54266425,5.46546275 L7.54351675,8.59584275 C7.54266425,12.8046353 10.9688618,16.2299802 15.1776542,16.2299802 C17.2159817,16.2308328 19.1332542,15.4328928 20.5731267,13.9930202 C22.0164092,12.5505903 22.8117917,10.6341702 22.8117917,8.59754775 L22.8092342,5.46290525 C22.9498967,5.58822275 23.0845917,5.71609775 23.2167292,5.84994025 C27.6488768,10.2812352 27.6505818,17.4942377 23.2167292,21.9289427 L23.2167292,21.9289427 Z M11.3593068,32.0319202 L11.3610117,28.5792952 C13.8588368,29.2237852 16.4947667,29.2254903 18.9925917,28.5792952 L18.9925917,32.0319202 L11.3593068,32.0319202 Z M18.9934443,53.5285602 C18.9951493,54.5490027 18.5970318,55.5055078 17.8758168,56.2267228 C17.1563068,56.9479378 16.1972443,57.3469077 15.1759493,57.3435194 C14.1589168,57.3469077 13.1981493,56.9479378 12.4769343,56.2258702 C11.7591293,55.5072128 11.3593068,54.5490027 11.3610063,53.5285602 L11.3610063,35.8485627 L18.9951493,35.8485627 L18.9934443,53.5285602 Z M21.7257068,0.18678275 C21.1332193,-0.09624725 20.4392843,-0.05532725 19.8843068,0.29334525 C19.3310343,0.64201775 18.9951493,1.25326025 18.9942968,1.90798025 L18.9960018,8.59499025 C18.9960018,9.61799025 18.5970318,10.5719377 17.8741118,11.2940052 C17.1546018,12.0152203 16.1980968,12.4141902 15.1776543,12.4124852 C13.0711268,12.4124852 11.3601593,10.7015177 11.3601593,8.59328525 L11.3618643,1.90883275 C11.3601593,1.25496525 11.0225693,0.64372275 10.4692968,0.29334525 C9.91602425,-0.05362225 9.22123675,-0.09368975 8.62874925,0.18678275 C7.07293675,0.93357275 5.66290175,1.92844025 4.44041675,3.15177775 C-1.48019575,9.07153775 -1.48019575,18.7039353 4.44126925,24.6262528 C5.38924925,25.5733802 6.43356175,26.3696153 7.54436925,27.0132527 L7.54266425,53.5277077 C7.54266425,55.5677402 8.33719425,57.4841603 9.77706675,58.9257377 C11.2203493,60.3681678 13.1376218,61.1626977 15.1768018,61.1626977 C17.2159818,61.1618452 19.1332543,60.3690203 20.5748318,58.9257377 C22.0181143,57.4833077 22.8117918,55.5660352 22.8126443,53.5268552 L22.8117918,27.0158102 C23.9217468,26.3687627 24.9677643,25.5750853 25.9157443,24.6271052 C31.8363568,18.7056403 31.8363568,9.06983275 25.9165968,3.15007275 C24.6932593,1.92673525 23.2832243,0.93186775 21.7257068,0.18678275 L21.7257068,0.18678275 Z M44.2129518,40.5731152 C44.7406493,40.5722652 45.2214593,40.7862427 45.5658693,41.1332102 C45.9119843,41.4784727 46.1259618,41.9584302 46.1259618,42.4844227 L46.1123218,51.7638852 C46.1106168,52.8218377 45.2555593,53.6777477 44.1976068,53.6794527 C43.1413593,53.6786002 42.2845968,52.8226902 42.2854486,51.7664427 L42.2982368,42.4878327 C42.2990893,41.4307327 43.1558518,40.5731152 44.2129518,40.5731152 L44.2129518,40.5731152 Z M49.9988692,51.5285952 C49.9997217,53.0784402 49.3952993,54.5370677 48.3006893,55.6333827 C47.2069318,56.7288452 45.7534193,57.3315627 44.2061318,57.3358252 C42.6588443,57.3315627 41.2053317,56.7279927 40.1098692,55.6333827 C39.0161117,54.5370677 38.4116892,53.0784402 38.4116892,51.5294477 L38.3980492,37.3208302 L44.0373367,37.3233877 L44.1515717,37.3233877 L44.2632492,37.3233877 L50.0150667,37.3208302 L49.9988692,51.5285952 Z M44.0373368,3.82951525 L44.1532768,3.82866275 L44.2632493,3.82866275 L47.4362543,3.82695775 L47.4319918,8.71604525 L44.9563318,14.0041027 C44.8378343,14.2564427 44.7764543,14.5335052 44.7756018,14.8148302 L44.7653718,33.4956627 L44.2632493,33.4956627 L44.0381893,33.4956627 L43.6460393,33.4956627 L43.6358093,14.8156827 C43.6349568,14.5343577 43.5727243,14.2572952 43.4542268,14.0041027 L40.9794193,8.71604525 L40.9743043,3.82695775 L44.0373368,3.82951525 Z M52.9877343,34.3456052 C52.0150317,33.3729028 49.5496017,33.4931052 49.5496017,33.4931052 L48.5930967,33.4931052 L48.6016217,15.2385228 L51.0772817,9.95131775 C51.1957792,9.69642025 51.2580117,9.42021025 51.2588642,9.13973775 L51.2631267,1.91309525 C51.2631267,1.38369275 51.0500017,0.90544025 50.7038868,0.56017775 C50.3586242,0.21321025 49.8795192,-0.00076725 49.3509692,8.2712158e-05 L44.1515717,0.00179025 L39.0604418,8.2712158e-05 C38.5318918,-0.00076725 38.0536393,0.21321025 37.7075243,0.56017775 C37.3614093,0.90629275 37.1474318,1.38369275 37.1482843,1.91309525 L37.1533992,9.14059025 C37.1533992,9.42106275 37.2156318,9.69642025 37.3349818,9.95131775 L39.8089368,15.2385228 L39.8191668,33.4939578 L38.8618093,33.4931052 C38.8618093,33.4931052 36.3963793,33.3729028 35.4236768,34.3447528 C34.4518268,35.3183078 34.5703243,37.7888528 34.5703243,37.7888528 L34.5856693,51.5268903 C34.5856693,54.0980303 35.5873568,56.5174253 37.4048868,58.3383653 C39.1806443,60.1149753 41.5309868,61.1072853 44.0381893,61.1541728 L44.0381893,61.1558778 C44.0884868,61.1567303 44.1396368,61.1626978 44.1916393,61.1626978 L44.2052793,61.1618452 C44.2103943,61.1618452 44.2155093,61.1626978 44.2197717,61.1626978 C44.2342643,61.1626978 44.2487568,61.1618452 44.2632493,61.1609928 L44.2632493,61.1601403 C46.8113717,61.1405328 49.2043392,60.1414027 51.0065242,58.3375128 C52.8240542,56.5174253 53.8257417,54.0971778 53.8257417,51.5268903 L53.8402343,37.7888528 C53.8402343,37.7888528 53.9604367,35.3183078 52.9877343,34.3456052 L52.9877343,34.3456052 Z" id="Fill-1"></path>
            </g>
        </g>
    </g>
</svg>