<?xml version="1.0" encoding="UTF-8"?>
<svg width="11px" height="15px" viewBox="0 0 11 15" version="1.1" xmlns="http://www.w3.org/2000/svg" xmlns:xlink="http://www.w3.org/1999/xlink">
    <!-- Generator: Sketch 57.1 (83088) - https://sketch.com -->
    <title>Group 9</title>
    <desc>Created with Sketch.</desc>
    <g id="Provisión-de-servicio-" stroke="none" stroke-width="1" fill="none" fill-rule="evenodd">
        <g id="3-12_UFD_ProvisiónServicios_Layer_otros_documentos" transform="translate(-621.000000, -286.000000)" fill="#004571">
            <g id="Group-9" transform="translate(621.000000, 286.000000)">
                <path d="M9.99346263,11.6618044 L7.9788625,11.6618044 C7.70102419,11.6618044 7.47613859,11.8752408 7.47613859,12.1386305 L7.47613859,14.0459349 L1.48398344,14.0459349 C1.22052735,14.0459349 1.00610155,13.8428194 1.00610155,13.5936726 L1.00610155,1.40674024 C1.00610155,1.15738702 1.22052735,0.954271481 1.48398344,0.954271481 L9.51536282,0.954271481 C9.77925474,0.954271481 9.99346263,1.15738702 9.99346263,1.40674024 L9.99346263,11.6618044 Z M8.48245805,13.75922 L8.48245805,12.6154566 L9.44911745,12.6154566 L8.48245805,13.75922 Z M9.51536282,0 L1.48398344,0 C0.665504467,0 0,0.631433368 0,1.40674024 L0,13.5936726 C0,14.3687731 0.665504467,15 1.48398344,15 L8.48245805,15 C8.63586838,15 8.77990848,14.9339462 8.87557202,14.820829 L10.8893005,12.4362856 C10.9605579,12.3522734 11,12.2474129 11,12.1386305 L11,1.40674024 C11,0.631433368 10.3338418,0 9.51536282,0 L9.51536282,0 Z M8.15611244,2.12311471 L5.17005884,2.12311471 C4.89592504,2.12311471 4.67256483,2.33448698 4.67256483,2.5939547 C4.67256483,2.85445451 4.89592504,3.06582677 5.17005884,3.06582677 L8.15611244,3.06582677 C8.43111789,3.06582677 8.65317063,2.85445451 8.65317063,2.5939547 C8.65317063,2.33448698 8.43111789,2.12311471 8.15611244,2.12311471 M8.15611244,4.00849755 L5.17005884,4.00849755 C4.89592504,4.00849755 4.67256483,4.21925056 4.67256483,4.47975037 C4.67256483,4.74025018 4.89592504,4.95079677 5.17005884,4.95079677 L8.15611244,4.95079677 C8.43111789,4.95079677 8.65317063,4.74025018 8.65317063,4.47975037 C8.65317063,4.21925056 8.43111789,4.00849755 8.15611244,4.00849755 M8.15611244,5.89388039 L5.17005884,5.89388039 C4.89592504,5.89388039 4.67256483,6.1046334 4.67256483,6.36472037 C4.67256483,6.62522018 4.89592504,6.83617961 5.17005884,6.83617961 L8.15611244,6.83617961 C8.43111789,6.83617961 8.65317063,6.62522018 8.65317063,6.36472037 C8.65317063,6.1046334 8.43111789,5.89388039 8.15611244,5.89388039" id="Fill-7"></path>
            </g>
        </g>
    </g>
</svg>