<?xml version="1.0" encoding="UTF-8"?>
<svg width="32px" height="50px" viewBox="0 0 32 50" version="1.1" xmlns="http://www.w3.org/2000/svg" xmlns:xlink="http://www.w3.org/1999/xlink">
    <!-- Generator: Sketch 57.1 (83088) - https://sketch.com -->
    <title>Group 5</title>
    <desc>Created with Sketch.</desc>
    <g id="Provisión-de-servicio-" stroke="none" stroke-width="1" fill="none" fill-rule="evenodd">
        <g id="3-11_UFD_ProvisiónServicios_planoCGP" transform="translate(-881.000000, -441.000000)">
            <g id="Group-5" transform="translate(881.000000, 441.000000)">
                <path d="M16.013811,0 C15.8151329,0 15.6164549,0.00321197424 15.4209557,0.0112419098 C9.99942933,0.195930429 5.09446587,3.14452278 2.30184734,7.89985064 C-0.552758747,12.7571587 -0.764946894,18.6623733 1.73601228,23.694734 L14.3139217,49.0155299 C14.6135281,49.6177751 15.2238671,49.999197 15.8882464,50 C16.5573941,50 17.1653489,49.624199 17.4673395,49.0251658 L30.2208803,23.7501405 C32.7568068,18.7217949 32.5724336,12.8077473 29.727364,7.92795542 C26.9395138,3.15576469 22.0345503,0.195127435 16.6042821,0.00963592272 C16.4071935,0.00321197424 16.2108996,0 16.013811,0 Z" id="Fill-1" fill="#FFFFFF"></path>
                <path d="M27.0730254,22.1272905 L15.9049354,44.260202 L4.89260898,22.0935648 C2.93523293,18.1540784 3.10291719,13.5288355 5.33923722,9.72104004 C7.54853702,5.96303018 11.2654058,3.72508712 15.5385731,3.57573032 C15.6975155,3.57332134 15.8556632,3.57010937 16.013811,3.57010937 C16.171164,3.57010937 16.3277223,3.57332134 16.48587,3.57573032 C20.7010233,3.72187515 24.5156417,6.02566367 26.6836164,9.74111488 C28.9119893,13.5617582 29.0598058,18.1918191 27.0730254,22.1272905 M16.013811,0 C15.8151329,0 15.6164549,0.00321197424 15.4209557,0.0112419098 C9.99942933,0.195930429 5.09446587,3.14452278 2.30184734,7.89985064 C-0.552758747,12.7571587 -0.764946894,18.6623733 1.73601228,23.694734 L14.3139217,49.0155299 C14.6135281,49.6177751 15.2238671,49.999197 15.8882464,50 C16.5573941,50 17.1653489,49.624199 17.4673395,49.0251658 L30.2208803,23.7501405 C32.7568068,18.7217949 32.5724336,12.8077473 29.727364,7.92795542 C26.9395138,3.15576469 22.0345503,0.195127435 16.6042821,0.00963592272 C16.4071935,0.00321197424 16.2108996,0 16.013811,0 Z M15.9995061,19.8540158 C14.0524614,19.8540158 12.4678053,18.2536496 12.4678053,16.2847094 C12.4678053,14.3181782 14.0524614,12.716206 15.9995061,12.716206 C17.9481404,12.716206 19.5327964,14.3181782 19.5327964,16.2847094 C19.5327964,18.2536496 17.9481404,19.8540158 15.9995061,19.8540158 M15.9995061,9.14689964 C12.1038271,9.14689964 8.93451503,12.349238 8.93451503,16.2847094 C8.93451503,20.2209838 12.1038271,23.4233221 15.9995061,23.4233221 C19.8943904,23.4233221 23.065292,20.2209838 23.065292,16.2847094 C23.065292,12.349238 19.8943904,9.14689964 15.9995061,9.14689964" id="Fill-1" fill="#E57200"></path>
            </g>
        </g>
    </g>
</svg>