<?xml version="1.0" encoding="UTF-8"?>
<svg width="13px" height="18px" viewBox="0 0 13 18" version="1.1" xmlns="http://www.w3.org/2000/svg" xmlns:xlink="http://www.w3.org/1999/xlink">
    <!-- Generator: Sketch 57.1 (83088) - https://sketch.com -->
    <title>np_notes_1122990_000000</title>
    <desc>Created with Sketch.</desc>
    <g id="Provisión-de-servicio-" stroke="none" stroke-width="1" fill="none" fill-rule="evenodd">
        <g id="3-12_UFD_ProvisiónServicios_Layer_otros_documentos" transform="translate(-628.000000, -400.000000)" fill="#004571" fill-rule="nonzero" stroke="#004571" stroke-width="0.2">
            <g id="np_notes_1122990_000000" transform="translate(629.000000, 401.000000)">
                <path d="M11.6315777,7.59740502 C11.6302541,6.94944673 11.1053933,6.4239231 10.457435,6.4232623 L8.6883506,6.4232623 C8.45471489,6.4232623 8.26475986,6.61255653 8.26475986,6.84685305 C8.26475986,7.08048876 8.45471489,7.27044379 8.6883506,7.27044379 L10.457435,7.27044379 C10.547448,7.27044379 10.6334963,7.30618469 10.6970349,7.3697233 C10.7605735,7.43326191 10.7963144,7.51930336 10.7963144,7.60932317 L10.7963144,15.3828911 C10.7963144,15.4729041 10.7605735,15.5589524 10.6970349,15.622491 C10.6334963,15.6860296 10.5474548,15.7217705 10.457435,15.7217705 L4.79317954,15.7217705 L4.79317954,13.0246835 C4.79119408,12.3820116 4.27031606,11.8611305 3.62698338,11.8604697 L0.938537634,11.8604697 L0.938537634,8.50224229 C0.938537634,8.26860658 0.7485826,8.07865155 0.514946888,8.07865155 C0.280650375,8.07865155 0.0913561421,8.26860658 0.0913561421,8.50224229 L0.0913561421,12.2808412 C0.0913561421,12.3926963 0.13570101,12.4999223 0.215124275,12.5786763 L4.07437485,16.4353853 C4.15379811,16.5148086 4.26102587,16.5591535 4.37287077,16.5591535 L10.4573283,16.5591535 C11.1052865,16.5578297 11.6301494,16.032969 11.6315777,15.3850108 L11.6315777,7.59740502 Z M3.9507592,13.0227045 L3.9507592,15.1188009 L1.54154448,12.7077224 L3.62713587,12.7077224 C3.80319713,12.7077224 3.94747214,12.8486985 3.95079309,13.0247546 L3.9507592,13.0227045 Z" id="Shape"></path>
                <path d="M1.7772812,4.14780059 C2.11218899,4.84804692 2.25183838,5.62508179 2.18233561,6.39808407 C2.13004927,6.958681 2.53576279,7.45838254 3.09569892,7.52126035 C3.16850401,7.52920267 3.24130909,7.53317392 3.31411926,7.53317392 C3.94421896,7.53317392 4.72388009,7.27041211 5.49290062,6.79983668 L6.71138482,8.54316675 C6.84772851,8.72451442 7.10386706,8.76489109 7.28985728,8.63516558 C7.47650831,8.50477926 7.5261362,8.2506299 7.40303565,8.06001406 L6.18124744,6.30939823 C6.97283688,5.68261947 7.52350486,4.95390784 7.68433379,4.30666118 C7.81736738,3.75995904 7.48776972,3.20730866 6.94370977,3.06301671 C6.1938186,2.86247191 5.5121086,2.46336471 4.96943802,1.90807112 C5.2136635,1.38586845 5.20373453,0.904686308 4.95090508,0.541990968 C4.43068481,-0.201936044 3.08049778,-0.0966991593 1.81175877,0.791519804 C1.29153851,1.13966057 0.858679596,1.60362798 0.547611496,2.14701019 C0.241169006,2.72282251 0.223954278,3.2582751 0.498634239,3.65141814 C0.730287546,3.98500433 1.1267346,4.14781567 1.60791674,4.14781567 L1.7772812,4.14780059 Z M6.87422665,4.1021375 C6.74384034,4.62898273 6.15213998,5.3219433 5.3678363,5.8693581 C4.58353262,6.41677289 3.7211188,6.73507592 3.18041369,6.67748452 C3.07716259,6.66755657 3.00104842,6.57555842 3.01097739,6.47231411 C3.09106315,5.61057804 2.95141036,4.74287781 2.60592297,3.94923819 C2.96663591,3.8115712 3.30815171,3.62890192 3.62254076,3.40585598 C3.94221623,3.18479244 4.23146093,2.92401303 4.48493763,2.62949886 C5.11768055,3.23047247 5.89337687,3.66067123 6.73860984,3.87843076 C6.84402294,3.96138451 6.88922854,4.03595343 6.87422665,4.1021375 Z M1.29150733,2.5414767 C1.54103617,2.11590355 1.88387357,1.75320821 2.29423135,1.47919583 C2.74760899,1.13569762 3.2909912,0.931831867 3.8582131,0.891455197 C4.00713236,0.871598957 4.15670903,0.92123871 4.26458912,1.0251506 C4.34599818,1.14031476 4.3049624,1.38123793 4.16133803,1.65060775 L4.16133803,1.64994577 C3.91048759,2.07551892 3.56632858,2.43821426 3.15531,2.71090504 C2.23201773,3.35489852 1.3609796,3.41247297 1.18951007,3.16692589 C1.10810101,3.04977594 1.14715099,2.81415952 1.29143617,2.54146874 L1.29150733,2.5414767 Z" id="Shape"></path>
            </g>
        </g>
    </g>
</svg>