<svg width="12" height="20" viewBox="0 0 12 20" fill="none" xmlns="http://www.w3.org/2000/svg">
<path fill-rule="evenodd" clip-rule="evenodd" d="M0 5.66667C0 2.53753 2.53753 0 5.66667 0C8.7958 0 11.3333 2.53753 11.3333 5.66667V14.3333C11.3333 17.4625 8.7958 20 5.66667 20C2.53753 20 0 17.4625 0 14.3333V5.66667ZM10.1997 5.66722C10.1997 3.14593 8.18768 1.13389 5.66639 1.13389C3.1451 1.13389 1.13306 3.14593 1.13306 5.66722V14.3339C1.13306 16.8552 3.1451 18.8672 5.66639 18.8672C8.18768 18.8672 10.1997 16.8552 10.1997 14.3339V5.66722ZM5.66644 2.26777C4.94409 2.26777 4.34421 2.86765 4.34421 3.59V5.85666C4.34421 6.57901 4.94409 7.17888 5.66644 7.17888C6.38879 7.17888 6.98866 6.57901 6.98866 5.85666V3.59C6.98866 2.86765 6.38879 2.26777 5.66644 2.26777ZM5.85546 3.58723C5.85546 3.47286 5.78094 3.39834 5.66657 3.39834C5.55221 3.39834 5.47769 3.47286 5.47769 3.58723V5.8539C5.47769 5.96826 5.55221 6.04278 5.66657 6.04278C5.78094 6.04278 5.85546 5.96826 5.85546 5.8539V3.58723Z" fill="#004571"/>
</svg>
