<svg width="34" height="32" viewBox="0 0 34 32" fill="none" xmlns="http://www.w3.org/2000/svg">
<path d="M25.0856 31.5647C25.4024 31.7951 25.7696 31.9175 26.1512 31.9175C26.7344 31.9175 27.2888 31.6367 27.6344 31.1543C27.9728 30.6863 28.0664 30.0959 27.8864 29.5343L24.8768 20.0663L32.8832 14.1695C33.524 13.7015 33.7904 12.8879 33.5456 12.1391C33.3008 11.3903 32.6096 10.8863 31.8176 10.8863L21.8744 10.8143L18.728 1.38952C18.4832 0.640719 17.792 0.136719 17 0.136719C16.2152 0.136719 15.5168 0.640719 15.272 1.38952L12.1328 10.8143L2.18242 10.8863C1.39042 10.8863 0.699224 11.3903 0.454424 12.1391C0.216825 12.8879 0.476024 13.7087 1.11682 14.1695L9.11602 20.0807L6.11362 29.5487C5.93362 30.1031 6.02002 30.6935 6.36562 31.1687C6.93442 31.9463 8.11522 32.1479 8.90722 31.5719L17 25.7903L25.0856 31.5647Z" fill="#004571"/>
</svg>
