<svg width="36" height="36" viewBox="0 0 36 36" fill="none" xmlns="http://www.w3.org/2000/svg">
<path d="M27.1512 33.9175C26.7696 33.9175 26.4024 33.7951 26.0856 33.5647L18 27.7903L9.90722 33.5719C9.11522 34.1479 7.93442 33.9463 7.36562 33.1687C7.02002 32.6935 6.93362 32.1031 7.11362 31.5487L10.116 22.0807L2.11682 16.1695C1.47602 15.7087 1.21682 14.8879 1.45442 14.1391C1.69922 13.3903 2.39042 12.8863 3.18242 12.8863L13.1328 12.8143L16.272 3.38952C16.5168 2.64072 17.2152 2.13672 18 2.13672C18.792 2.13672 19.4832 2.64072 19.728 3.38952L22.8744 12.8143L32.8176 12.8863C33.6096 12.8863 34.3008 13.3903 34.5456 14.1391C34.7904 14.8879 34.524 15.7015 33.8832 16.1695L25.8768 22.0663L28.8864 31.5343C29.0664 32.0959 28.9728 32.6863 28.6344 33.1543C28.2888 33.6367 27.7344 33.9175 27.1512 33.9175ZM18 25.6159C18.3888 25.6159 18.756 25.7383 19.0656 25.9615L26.604 31.3399L23.8104 22.5199C23.5656 21.7711 23.832 20.9575 24.4728 20.4895L31.9248 14.9959L22.6584 14.9239C21.8664 14.9239 21.1752 14.4199 20.9304 13.6711L18 4.89432L15.0696 13.6711C14.8248 14.4199 14.1264 14.9239 13.3416 14.9239L4.07522 14.9959L11.5272 20.4895C12.1608 20.9503 12.4344 21.7711 12.1896 22.5199L9.39602 31.3399L16.9344 25.9615C17.244 25.7311 17.6112 25.6159 18 25.6159Z" fill="#004571" fill-opacity="0.7"/>
</svg>
