<svg width="20" height="20" viewBox="0 0 20 20" fill="none" xmlns="http://www.w3.org/2000/svg">
<path fill-rule="evenodd" clip-rule="evenodd" d="M10.0677 6.66222C8.70671 6.09407 7.20772 5.98976 5.80514 6.3299C5.80514 6.3299 5.4121 6.56956 5.50117 6.90076C5.59016 7.23198 6.02824 7.27061 6.02824 7.27061C7.25061 6.97103 8.55938 7.06661 9.74353 7.57497C9.82949 7.28816 9.94094 6.98384 10.0677 6.66222ZM12.3618 9.78722C13.6461 11.7774 13.6185 14.4118 12.1788 16.3875L12.2429 15.2983C12.2586 15.0318 12.0546 14.8023 11.7877 14.7868C11.5241 14.771 11.2941 14.9714 11.2784 15.2378L11.159 17.2331C11.1436 17.503 11.2463 17.7535 11.4385 17.9175C11.6306 18.0815 11.8945 18.1437 12.1591 18.0865L14.1148 17.6582C14.3727 17.6015 14.5387 17.3465 14.4818 17.0857C14.4601 16.978 14.4033 16.8896 14.325 16.8228C14.2144 16.7253 14.0618 16.6842 13.9082 16.7162L12.9808 16.9181C14.6536 14.5967 14.6608 11.5036 13.1236 9.18614L12.7785 9.50296C12.7785 9.50296 12.6173 9.63682 12.3618 9.78722ZM9.32488 19.0446C9.36698 19.4126 8.99849 19.584 8.99849 19.584C6.95645 20.0556 4.72484 19.5905 3.01988 18.1325C0.304747 15.8187 -0.141144 11.8219 1.90483 8.98276L0.977405 9.18469C0.823857 9.21662 0.670951 9.17222 0.560567 9.07809C0.485646 9.01101 0.428914 8.92262 0.403868 8.81517C0.347131 8.55768 0.509609 8.29961 0.770831 8.24268L2.72653 7.81433C2.99112 7.75714 3.25498 7.81936 3.4472 7.98334C3.63934 8.14734 3.74204 8.3979 3.72659 8.66768L3.60725 10.663C3.59129 10.9262 3.36479 11.1296 3.09789 11.1141C2.83074 11.0952 2.62703 10.8691 2.64273 10.6026L2.70686 9.51342C0.928581 11.9537 1.30827 15.4019 3.64639 17.3972C5.11266 18.6484 7.02702 19.0487 8.77563 18.6466C8.77563 18.6466 9.28096 18.6534 9.32488 19.0446ZM11.6129 7.6144L13.486 4.48536V4.41472C13.486 4.26362 13.3636 4.1413 13.2125 4.1413H10.9469L12.7389 0.708694H15.4746L13.9849 3.14102C13.9849 3.14102 13.9219 3.25435 13.9219 3.32054C13.9219 3.47165 14.0445 3.59409 14.1955 3.59409H15.8712L11.6129 7.6144ZM15.8712 3.047H14.7049L15.93 1.01222C16.0419 0.844447 16.0522 0.628585 15.9572 0.450619C15.8619 0.272773 15.6763 0.161604 15.4746 0.161604H12.7389C12.5426 0.161604 12.3613 0.266777 12.2639 0.437308L10.4719 3.86979C10.3751 4.03912 10.3758 4.24695 10.4737 4.41592C10.5715 4.58477 10.7518 4.68839 10.9469 4.68839H12.7399L11.1379 7.34289C11.0019 7.58082 11.0631 7.88266 11.2808 8.04936C11.3795 8.12467 11.4964 8.1616 11.6127 8.1616C11.7537 8.1616 11.8938 8.10764 11.9999 8.00127L16.2582 3.98108C16.4145 3.82434 16.4614 3.58929 16.3766 3.38458C16.2921 3.18047 16.0926 3.047 15.8712 3.047ZM18.7218 0.419832V2.64131L19.3381 1.97626C19.4513 1.85504 19.6418 1.84856 19.7633 1.96158C19.8849 2.075 19.8914 2.26549 19.7783 2.38698L18.6413 3.60962C18.6378 3.61372 18.6333 3.61649 18.6295 3.62006C18.6281 3.62165 18.6271 3.6231 18.6258 3.62442C18.6232 3.6272 18.6201 3.62865 18.6172 3.63077C18.6061 3.64068 18.5946 3.64994 18.5823 3.65734C18.5772 3.66117 18.5719 3.66368 18.5667 3.66659C18.5551 3.67307 18.5432 3.67902 18.531 3.68378C18.5242 3.68642 18.5175 3.68854 18.5105 3.69026C18.4993 3.69435 18.4882 3.69739 18.4767 3.69951C18.4682 3.7007 18.4599 3.70149 18.4513 3.70295C18.4413 3.70374 18.4312 3.7048 18.421 3.70453C18.4109 3.7048 18.401 3.70374 18.3912 3.70255C18.3825 3.70149 18.3739 3.7007 18.3655 3.69951C18.3539 3.69739 18.3427 3.69409 18.3313 3.69052C18.3247 3.68854 18.3179 3.68669 18.3116 3.68404C18.2989 3.67902 18.2866 3.67254 18.2746 3.66606C18.27 3.66342 18.2651 3.66091 18.2603 3.65787C18.2476 3.64994 18.2356 3.64015 18.2237 3.63024C18.2213 3.62826 18.2187 3.62694 18.2163 3.62442C18.2151 3.62337 18.2144 3.62218 18.213 3.62085C18.2091 3.61702 18.2045 3.61398 18.2006 3.60988L17.0638 2.38698C16.9506 2.26549 16.9574 2.075 17.0789 1.96158C17.2004 1.8483 17.3908 1.85504 17.504 1.97652L18.1204 2.64131V0.419567C18.1412 0.241128 18.2414 0.153044 18.421 0.155316C18.6007 0.157588 18.7009 0.245761 18.7218 0.419832Z" fill="#004571"/>
</svg>
