<?xml version="1.0" encoding="UTF-8"?>
<svg width="32px" height="30px" viewBox="0 0 32 30" version="1.1" xmlns="http://www.w3.org/2000/svg" xmlns:xlink="http://www.w3.org/1999/xlink">
    <!-- Generator: Sketch 57.1 (83088) - https://sketch.com -->
    <title>Group 3</title>
    <desc>Created with Sketch.</desc>
    <defs>
        <polygon id="path-1" points="0 0 32 0 32 30 0 30"></polygon>
    </defs>
    <g id="Mis-Peticiones" stroke="none" stroke-width="1" fill="none" fill-rule="evenodd">
        <g id="1-05_PS_Peticiones-detalle-en-curso" transform="translate(-355.000000, -980.000000)">
            <g id="Group-3" transform="translate(355.000000, 980.000000)">
                <mask id="mask-2" fill="white">
                    <use xlink:href="#path-1"></use>
                </mask>
                <g id="Clip-2"></g>
                <path d="M29.2739414,21.1633245 C29.2739414,21.4810341 29.0184667,21.7389466 28.7050923,21.7389466 L17.3478082,21.7389466 C16.9848909,21.7389466 16.6362992,21.8845132 16.3808245,22.1442377 L13.2906547,25.2808649 L13.2906547,23.1185069 C13.2906547,22.3580575 12.6818131,21.7389466 11.927327,21.7389466 L4.01835478,21.7389466 C3.30624883,21.7389466 2.72605857,21.1512443 2.72605857,20.4288475 L2.72605857,4.06559555 C2.72605857,3.34501087 3.30624883,2.75791254 4.01835478,2.75791254 L27.9798545,2.75791254 C28.6943481,2.75791254 29.2739414,3.34501087 29.2739414,4.06559555 L29.2739414,21.1633245 Z M32,4.06559555 C32,1.8241121 30.1961574,0 27.9798545,0 L4.01835478,0 C1.80384257,0 0,1.8241121 0,4.06559555 L0,20.4288475 C0,22.6733511 1.80384257,24.4980672 4.01835478,24.4980672 L10.56579,24.4980672 L10.56579,28.6210437 C10.56579,29.1791496 10.8982652,29.6822904 11.4080209,29.8949022 C11.5769446,29.9667794 11.7524342,30 11.927327,30 C12.2842753,30 12.632867,29.8592655 12.8943108,29.5928968 L17.9130759,24.4980672 L28.7050923,24.4980672 C30.5226637,24.4980672 32,23.0019328 32,21.1633245 L32,4.06559555 Z" id="Fill-1" fill="#E57200" mask="url(#mask-2)"></path>
            </g>
        </g>
    </g>
</svg>