<svg width="13" height="16" viewBox="0 0 13 16" fill="none" xmlns="http://www.w3.org/2000/svg">
<mask id="mask0" mask-type="alpha" maskUnits="userSpaceOnUse" x="0" y="0" width="13" height="16">
<path fill-rule="evenodd" clip-rule="evenodd" d="M0 0H13V16H0V0Z" fill="white"/>
</mask>
<g mask="url(#mask0)">
<path fill-rule="evenodd" clip-rule="evenodd" d="M11.6348 9.87446V11.6213V13.6746C11.6348 14.1546 11.2683 14.5451 10.8175 14.5451H8.67559H6.50123H2.18289C1.73235 14.5451 1.36523 14.1546 1.36523 13.6746V11.7317V9.77103V8.96551C1.36523 8.48582 1.73235 8.09559 2.18289 8.09559H6.39366H8.56772H10.8175C11.2683 8.09559 11.6348 8.48582 11.6348 8.96551V9.87446ZM6.50905 1.45588C8.45546 1.47746 10.0327 3.16749 10.0327 5.24395V6.64307H8.5678H6.39374H2.98633V5.24395C2.98633 3.16749 4.56354 1.47746 6.50905 1.45588ZM11.3978 6.72874V5.24366C11.3978 2.40577 9.26779 0.0926396 6.61994 0.00793147C6.5952 0.0053934 6.57107 0 6.54574 0C6.53323 0 6.52131 0.00190355 6.50879 0.00222081C6.49657 0.00190355 6.48465 0 6.47214 0C6.44651 0 6.42267 0.0053934 6.39794 0.00793147C3.75068 0.0926396 1.62072 2.40577 1.62072 5.24366V6.72367C0.689229 6.98858 0 7.89245 0 8.96669V9.77221V11.7329V13.6758C0 14.9572 0.979164 16 2.18271 16H6.50104H8.67541H10.8173C12.0211 16 13 14.9572 13 13.6758V11.6225V9.87563V8.96669C13 7.89943 12.32 7.00032 11.3978 6.72874ZM7.74438 10.2948C7.74438 10.7701 7.50719 11.1835 7.15438 11.4167L7.15676 12.7101C7.15676 13.1118 6.85193 13.4379 6.47498 13.4385H6.47409C6.09774 13.4385 5.79201 13.1137 5.79141 12.7127L5.78963 11.3783C5.4684 11.1394 5.25684 10.7441 5.25684 10.2948C5.25684 9.56355 5.81436 8.97059 6.50061 8.97059C7.18715 8.97059 7.74438 9.56355 7.74438 10.2948Z" fill="#A2AD00"/>
<mask id="mask1" mask-type="alpha" maskUnits="userSpaceOnUse" x="0" y="0" width="13" height="16">
<path fill-rule="evenodd" clip-rule="evenodd" d="M0 0H13V16H0V0Z" fill="white"/>
</mask>
<g mask="url(#mask1)">
<path fill-rule="evenodd" clip-rule="evenodd" d="M11.6329 9.87555V11.6224V13.6757C11.6329 14.1557 11.2664 14.5462 10.8155 14.5462H8.67364H6.49928H2.18094C1.73039 14.5462 1.36328 14.1557 1.36328 13.6757V11.7328V9.77212V8.9666C1.36328 8.48691 1.73039 8.09668 2.18094 8.09668H6.3917H8.56577H10.8155C11.2664 8.09668 11.6329 8.48691 11.6329 8.9666V9.87555ZM6.5071 1.45508C8.45351 1.47665 10.0307 3.16669 10.0307 5.24315V6.64226H8.56585H6.39178H2.98438V5.24315C2.98438 3.16669 4.56159 1.47665 6.5071 1.45508ZM11.3978 6.72874V5.24365C11.3978 2.40577 9.26779 0.0926396 6.61994 0.00793147C6.5952 0.0053934 6.57107 0 6.54574 0C6.53323 0 6.52131 0.00190355 6.50879 0.00222081C6.49657 0.00190355 6.48465 0 6.47214 0C6.44651 0 6.42267 0.0053934 6.39794 0.00793147C3.75068 0.0926396 1.62072 2.40577 1.62072 5.24365V6.72367C0.689229 6.98858 0 7.89245 0 8.96669V9.77221V11.7329V13.6758C0 14.9572 0.979164 16 2.18271 16H6.50104H8.67541H10.8173C12.0211 16 13 14.9572 13 13.6758V11.6225V9.87563V8.96669C13 7.89943 12.32 7.00032 11.3978 6.72874ZM7.74463 10.2989C7.74463 10.7742 7.50743 11.1876 7.15462 11.4207L7.15701 12.7142C7.15701 13.1159 6.85217 13.442 6.47523 13.4426H6.47433C6.09799 13.4426 5.79226 13.1178 5.79166 12.7167L5.78987 11.3824C5.46865 11.1435 5.25708 10.7482 5.25708 10.2989C5.25708 9.56763 5.81461 8.97468 6.50085 8.97468C7.1874 8.97468 7.74463 9.56763 7.74463 10.2989Z" fill="#A2AD00"/>
<path d="M11.5 6.5H10L9 3L11 1.5L11.5 6.5Z" fill="#F9F8F7" stroke="#F9F8F7" stroke-width="0.3"/>
</g>
</g>
</svg>
