<svg width="13" height="16" viewBox="0 0 13 16" fill="none" xmlns="http://www.w3.org/2000/svg">
<mask id="mask0" mask-type="alpha" maskUnits="userSpaceOnUse" x="0" y="0" width="13" height="16">
<path fill-rule="evenodd" clip-rule="evenodd" d="M0 0H13V16H0V0Z" fill="white"/>
</mask>
<g mask="url(#mask0)">
<path fill-rule="evenodd" clip-rule="evenodd" d="M11.6336 9.87566V11.6225V13.6758C11.6336 14.1558 11.2671 14.5463 10.8162 14.5463H8.67436H6.49999H2.18166C1.73111 14.5463 1.364 14.1558 1.364 13.6758V11.7329V9.77224V8.96672C1.364 8.48702 1.73111 8.09679 2.18166 8.09679H6.39242H8.56649H10.8162C11.2671 8.09679 11.6336 8.48702 11.6336 8.96672V9.87566ZM6.5078 1.45527C8.45421 1.47684 10.0314 3.16688 10.0314 5.24334V6.64245H8.56655H6.39249H2.98508V5.24334C2.98508 3.16688 4.56229 1.47684 6.5078 1.45527ZM11.3978 6.72874V5.24365C11.3978 2.40577 9.26779 0.0926396 6.61994 0.00793147C6.5952 0.0053934 6.57107 0 6.54574 0C6.53323 0 6.52131 0.00190355 6.50879 0.00222081C6.49657 0.00190355 6.48465 0 6.47214 0C6.44651 0 6.42267 0.0053934 6.39794 0.00793147C3.75068 0.0926396 1.62072 2.40577 1.62072 5.24365V6.72367C0.689229 6.98858 0 7.89245 0 8.96669V9.77221V11.7329V13.6758C0 14.9572 0.979164 16 2.18271 16H6.50104H8.67541H10.8173C12.0211 16 13 14.9572 13 13.6758V11.6225V9.87563V8.96669C13 7.89943 12.32 7.00032 11.3978 6.72874ZM7.74463 10.2987C7.74463 10.774 7.50744 11.1874 7.15463 11.4206L7.15702 12.714C7.15702 13.1157 6.85218 13.4418 6.47524 13.4424H6.47434C6.09799 13.4424 5.79226 13.1176 5.79167 12.7166L5.78988 11.3822C5.46866 11.1433 5.25709 10.748 5.25709 10.2987C5.25709 9.56744 5.81461 8.97448 6.50086 8.97448C7.18741 8.97448 7.74463 9.56744 7.74463 10.2987Z" fill="#D3222A"/>
</g>
</svg>
