<svg width="32" height="32" viewBox="0 0 32 32" fill="none" xmlns="http://www.w3.org/2000/svg">
<path d="M14.88 10.207H7.88479C7.37279 10.207 6.95679 10.623 6.95679 11.135C6.95679 11.647 7.37279 12.0694 7.88479 12.0694H14.88C15.392 12.0694 15.808 11.6534 15.808 11.135C15.808 10.623 15.392 10.207 14.88 10.207Z" fill="#004571"/>
<path d="M14.88 14.1523H7.88479C7.37279 14.1523 6.95679 14.5683 6.95679 15.0803C6.95679 15.5923 7.37279 16.0147 7.88479 16.0147H14.88C15.392 16.0147 15.808 15.5987 15.808 15.0803C15.808 14.5683 15.392 14.1523 14.88 14.1523Z" fill="#004571"/>
<path d="M14.88 6.25781H7.88479C7.37279 6.25781 6.95679 6.67381 6.95679 7.18581C6.95679 7.69781 7.37279 8.12021 7.88479 8.12021H14.88C15.392 8.12021 15.808 7.70421 15.808 7.18581C15.808 6.68021 15.392 6.25781 14.88 6.25781Z" fill="#004571"/>
<path d="M28.0512 27.6418L25.6512 25.2418C26.1824 24.4738 26.496 23.5394 26.496 22.5346C26.496 20.2434 24.8832 18.3298 22.7264 17.869V5.52976C22.7264 3.98736 21.472 2.72656 19.9232 2.72656H6.54081C4.99841 2.72656 3.73761 3.98096 3.73761 5.52976V26.5218C3.73761 28.0642 4.99201 29.325 6.54081 29.325H19.936C21.2416 29.325 22.336 28.429 22.6496 27.213C23.2384 27.0978 23.7888 26.8738 24.2816 26.5602L26.7072 28.9858C27.0784 29.357 27.6864 29.357 28.0576 28.9858C28.4288 28.621 28.4288 28.013 28.0512 27.6418ZM19.9296 27.4242H6.54081C6.04161 27.4242 5.63841 27.021 5.63841 26.5218V5.52976C5.63841 5.03056 6.04161 4.62736 6.54081 4.62736H19.936C20.4352 4.62736 20.8384 5.03056 20.8384 5.52976V17.8434C18.6304 18.2594 16.9536 20.1986 16.9536 22.5346C16.9536 24.7746 18.496 26.6434 20.5696 27.1618C20.4096 27.3282 20.1792 27.4242 19.9296 27.4242ZM21.728 25.3954C20.1472 25.3954 18.8608 24.1154 18.8608 22.5282C18.8608 20.9474 20.1472 19.661 21.728 19.661C23.3088 19.661 24.5952 20.941 24.5952 22.5282C24.5888 24.1154 23.3088 25.3954 21.728 25.3954Z" fill="#004571"/>
</svg>
