<?xml version="1.0" encoding="UTF-8"?>
<svg width="30px" height="30px" viewBox="0 0 30 30" version="1.1" xmlns="http://www.w3.org/2000/svg" xmlns:xlink="http://www.w3.org/1999/xlink">
    <!-- Generator: Sketch 57.1 (83088) - https://sketch.com -->
    <title>Group</title>
    <desc>Created with Sketch.</desc>
    <g id="Symbols" stroke="none" stroke-width="1" fill="none" fill-rule="evenodd">
        <g id="ico-/-usuario_ufd">
            <g id="Group">
                <circle id="Oval" fill="#FFFFFF" cx="15" cy="15" r="15"></circle>
                <g id="Group-4" transform="translate(6.000000, 6.000000)" fill="#E57200">
                    <path d="M13.8991022,16.4597168 C12.6967585,17.2266253 11.2646435,17.6643206 9.73270993,17.6643206 C5.42393482,17.6643206 1.9314125,14.1706683 1.9314125,9.86226986 C1.9314125,8.95147187 2.06400178,8.00790323 2.39321495,7.07337477 C3.96469933,2.61091663 8.21471328,1.45641049 9.64419151,2.33519118 C11.4936614,3.47124029 8.58234721,6.31776651 11.6157038,8.95599196 C14.2015715,11.2047364 16.4555894,9.28633515 17.297456,10.0370466 C18.1826402,10.8254256 16.5177406,14.7902972 13.8991022,16.4597168" id="Fill-25"></path>
                    <path d="M3.36141808,0.296028233 C0.797774103,1.40269676 0.0229554644,4.04355893 0.00073169207,5.60261305 C-0.0162186428,6.77708292 0.264780241,7.18200759 0.485511268,7.19971127 C0.726206022,7.21929832 0.912659705,6.77783627 1.00117812,6.37705502 C1.60423337,3.63976428 3.49476071,2.01554553 4.92913571,1.27236752 C6.42151852,0.499055577 5.22444821,-0.50854766 3.36141808,0.296028233" id="Fill-27"></path>
                </g>
            </g>
        </g>
    </g>
</svg>