<svg width="74" height="20" viewBox="0 0 74 20" fill="none" xmlns="http://www.w3.org/2000/svg">
<path d="M46.952 12.432L46.63 13.216C47.512 13.734 48.856 14.14 50.004 14.14C52.048 14.14 53.35 13.034 53.35 11.368C53.35 9.856 52.412 9.226 50.746 8.638L49.71 8.274C48.45 7.826 47.988 7.504 47.988 6.846C47.988 6.034 48.73 5.726 50.074 5.726C50.564 5.726 51.236 5.782 51.866 5.866L52.706 5.978L52.916 5.152C52.02 4.788 50.942 4.578 50.06 4.578C48.184 4.578 46.784 5.376 46.784 6.888C46.784 8.19 47.722 8.82 49.332 9.38L50.41 9.758C51.698 10.206 52.118 10.57 52.118 11.382C52.118 12.404 51.362 12.992 50.018 12.992C49.388 12.992 48.688 12.866 47.862 12.656L46.952 12.432ZM64.5967 4.718H63.6867C63.5327 4.718 63.4767 4.746 63.3787 4.872L59.8507 9.422H59.8367L56.2807 4.872C56.1687 4.732 56.1127 4.718 55.9727 4.718H55.0067V14H56.2667V6.706H56.2807C56.5467 7.14 57.1067 7.896 57.5267 8.428L59.2347 10.57C59.3187 10.668 59.3747 10.71 59.5147 10.71H60.2427L62.0487 8.428C62.4827 7.882 63.0847 7.07 63.3227 6.706H63.3367V14H64.5967V4.718ZM66.5848 12.432L66.2628 13.216C67.1448 13.734 68.4888 14.14 69.6368 14.14C71.6808 14.14 72.9828 13.034 72.9828 11.368C72.9828 9.856 72.0448 9.226 70.3788 8.638L69.3428 8.274C68.0828 7.826 67.6208 7.504 67.6208 6.846C67.6208 6.034 68.3628 5.726 69.7068 5.726C70.1968 5.726 70.8688 5.782 71.4988 5.866L72.3388 5.978L72.5488 5.152C71.6528 4.788 70.5748 4.578 69.6928 4.578C67.8168 4.578 66.4168 5.376 66.4168 6.888C66.4168 8.19 67.3548 8.82 68.9648 9.38L70.0428 9.758C71.3308 10.206 71.7508 10.57 71.7508 11.382C71.7508 12.404 70.9948 12.992 69.6508 12.992C69.0208 12.992 68.3208 12.866 67.4948 12.656L66.5848 12.432Z" fill="#004571"/>
<path fill-rule="evenodd" clip-rule="evenodd" d="M38.4815 16.6558H33.624C32.8413 16.6558 32.2042 16.0254 32.2042 15.2542V4.74535C32.2042 3.97095 32.8413 3.34375 33.624 3.34375H38.4847C39.2674 3.34375 39.9045 3.97095 39.9045 4.74535V15.251C39.9012 16.0286 39.2674 16.6558 38.4815 16.6558ZM33.1647 15.2542C33.1647 15.5038 33.3685 15.7054 33.6207 15.7054H38.4783C38.7305 15.7054 38.9343 15.5038 38.9343 15.2542V12.851H33.1647V15.2542ZM38.9407 4.74215C38.9407 4.49255 38.737 4.29095 38.4847 4.29095H33.624C33.3717 4.29095 33.168 4.49255 33.168 4.74215V11.8974H38.9407V4.74215ZM35.0793 5.24455C35.0793 4.98535 35.296 4.77095 35.5612 4.77095H36.5281C36.7933 4.77095 37.0068 4.98215 37.0068 5.24455C37.0068 5.50695 36.7933 5.72135 36.5281 5.72135H35.5612C35.296 5.72135 35.0793 5.50695 35.0793 5.24455ZM36.0463 14.899C35.7002 14.899 35.4189 14.6206 35.4189 14.2782C35.4189 13.9358 35.7002 13.6574 36.0463 13.6574C36.3923 13.6574 36.6737 13.9358 36.6737 14.2782C36.6769 14.6206 36.3955 14.899 36.0463 14.899Z" fill="#004571"/>
<rect width="20" height="20" rx="10" fill="white"/>
<rect x="0.5" y="0.5" width="19" height="19" rx="9.5" stroke="#004571" stroke-opacity="0.6"/>
</svg>
