<svg width="18" height="16" viewBox="0 0 18 16" fill="none" xmlns="http://www.w3.org/2000/svg">
<path d="M14.6772 0.945312H2.54432C1.7134 0.945312 1.03418 1.57251 1.03418 2.34691V11.7261C1.03418 12.5005 1.70995 13.1277 2.54432 13.1277H7.1299V14.5485C7.1299 14.7405 7.25402 14.9133 7.4471 14.9869C7.50916 15.0125 7.57812 15.0221 7.64363 15.0221C7.77809 15.0221 7.90911 14.9741 8.00565 14.8813L9.8916 13.1277H14.953C15.6356 13.1277 16.1907 12.6125 16.1907 11.9789V2.34691C16.1873 1.57251 15.5081 0.945312 14.6772 0.945312ZM15.1633 5.14051C15.1564 5.16931 15.1564 5.19491 15.1564 5.22371C15.1564 5.25251 15.1598 5.28131 15.1633 5.30691V11.9757C15.1633 12.0845 15.0668 12.1741 14.9495 12.1741H9.67783C9.54337 12.1741 9.41235 12.2253 9.31581 12.3149L8.1539 13.3933V12.6477C8.1539 12.3853 7.92635 12.1741 7.64363 12.1741H2.54432C2.27539 12.1741 2.05818 11.9725 2.05818 11.7229V2.34371C2.05818 2.09411 2.27539 1.89251 2.54432 1.89251H14.6772C14.9461 1.89251 15.1633 2.09411 15.1633 2.34371V5.14051Z" fill="#004571"/>
<path d="M3.43283 7.79038L3.80597 7.86699C4.01448 7.91125 4.1919 7.94359 4.33823 7.96402C4.48456 7.98104 4.61991 7.98955 4.74429 7.98955C4.93086 7.98955 5.08084 7.9538 5.19425 7.88231C5.31131 7.81081 5.36984 7.70527 5.36984 7.56568C5.36984 7.45673 5.32594 7.37502 5.23814 7.32055C5.15035 7.26608 5.00036 7.2099 4.78819 7.15202L4.41505 7.04989C4.04923 6.95115 3.76755 6.82518 3.57001 6.67198C3.37613 6.51877 3.27919 6.31109 3.27919 6.04894C3.27919 5.89573 3.31394 5.76125 3.38345 5.64549C3.45661 5.52974 3.55538 5.43271 3.67976 5.3544C3.80779 5.2761 3.95595 5.21822 4.12423 5.18077C4.2925 5.13991 4.47358 5.11948 4.66747 5.11948C4.87598 5.11948 5.0845 5.13991 5.29302 5.18077C5.50519 5.21822 5.71005 5.27439 5.90759 5.34929L5.79236 5.82423L5.50153 5.79359C5.36252 5.77657 5.22168 5.76295 5.07901 5.75274C4.93634 5.74252 4.81379 5.73742 4.71137 5.73742C4.46993 5.73742 4.28885 5.76125 4.16813 5.80891C4.04741 5.85658 3.98705 5.93488 3.98705 6.04383C3.98705 6.13916 4.0346 6.21406 4.12971 6.26853C4.22849 6.3196 4.37481 6.37067 4.5687 6.42174L4.90891 6.51366C5.1284 6.57154 5.31314 6.63453 5.46312 6.70262C5.61311 6.76731 5.73383 6.8405 5.82528 6.92221C5.91674 7.00052 5.98258 7.09074 6.02282 7.19288C6.06306 7.29161 6.08318 7.40567 6.08318 7.53504C6.08318 7.86528 5.96246 8.12744 5.72102 8.3215C5.48324 8.51216 5.14303 8.60748 4.70039 8.60748C4.57967 8.60748 4.45346 8.59727 4.32177 8.57684C4.19007 8.55982 4.06021 8.53599 3.93217 8.50535C3.80414 8.4713 3.67976 8.43215 3.55904 8.38789C3.44198 8.34363 3.33589 8.29767 3.24078 8.25L3.43283 7.79038Z" fill="#004571"/>
<path d="M10.5816 5.17055V8.55642H9.84634V6.23789H9.83536L8.89155 7.36651H8.4416C8.40867 7.36651 8.38307 7.36311 8.36477 7.3563C8.34648 7.34949 8.32819 7.33417 8.3099 7.31034L7.39901 6.23789H7.38804V8.55642H6.65823V5.17055H7.26732C7.30756 5.17055 7.335 5.17566 7.34963 5.18587C7.36792 5.19609 7.38987 5.21652 7.41548 5.24716L8.61719 6.64644H8.65011L9.82988 5.24716C9.85548 5.21652 9.8756 5.19609 9.89024 5.18587C9.90853 5.17566 9.93779 5.17055 9.97803 5.17055H10.5816Z" fill="#004571"/>
<path d="M11.3476 7.79038L11.7207 7.86699C11.9292 7.91125 12.1067 7.94359 12.253 7.96402C12.3993 7.98104 12.5347 7.98955 12.659 7.98955C12.8456 7.98955 12.9956 7.9538 13.109 7.88231C13.2261 7.81081 13.2846 7.70527 13.2846 7.56568C13.2846 7.45673 13.2407 7.37502 13.1529 7.32055C13.0651 7.26608 12.9151 7.2099 12.7029 7.15202L12.3298 7.04989C11.964 6.95115 11.6823 6.82518 11.4848 6.67198C11.2909 6.51877 11.1939 6.31109 11.1939 6.04894C11.1939 5.89573 11.2287 5.76125 11.2982 5.64549C11.3714 5.52974 11.4701 5.43271 11.5945 5.3544C11.7225 5.2761 11.8707 5.21822 12.039 5.18077C12.2073 5.13991 12.3883 5.11948 12.5822 5.11948C12.7907 5.11948 12.9992 5.13991 13.2078 5.18077C13.4199 5.21822 13.6248 5.27439 13.8223 5.34929L13.7071 5.82423L13.4163 5.79359C13.2773 5.77657 13.1364 5.76295 12.9938 5.75274C12.8511 5.74252 12.7285 5.73742 12.6261 5.73742C12.3847 5.73742 12.2036 5.76125 12.0829 5.80891C11.9622 5.85658 11.9018 5.93488 11.9018 6.04383C11.9018 6.13916 11.9493 6.21406 12.0445 6.26853C12.1432 6.3196 12.2896 6.37067 12.4834 6.42174L12.8237 6.51366C13.0431 6.57154 13.2279 6.63453 13.3779 6.70262C13.5279 6.76731 13.6486 6.8405 13.74 6.92221C13.8315 7.00052 13.8973 7.09074 13.9376 7.19288C13.9778 7.29161 13.9979 7.40567 13.9979 7.53504C13.9979 7.86528 13.8772 8.12744 13.6358 8.3215C13.398 8.51216 13.0578 8.60748 12.6151 8.60748C12.4944 8.60748 12.3682 8.59727 12.2365 8.57684C12.1048 8.55982 11.975 8.53599 11.8469 8.50535C11.7189 8.4713 11.5945 8.43215 11.4738 8.38789C11.3567 8.34363 11.2506 8.29767 11.1555 8.25L11.3476 7.79038Z" fill="#004571"/>
</svg>
