<svg width="18" height="16" viewBox="0 0 18 16" fill="none" xmlns="http://www.w3.org/2000/svg">
<path d="M15.2013 4.12109H6.35772C5.54058 4.12109 4.87861 4.73869 4.87861 5.49389V6.22669H3.13746C2.86853 6.22669 2.64788 6.43149 2.64788 6.68109C2.64788 6.93069 2.86853 7.13549 3.13746 7.13549H4.87861V7.86509H2.17897C1.91004 7.86509 1.68938 8.06989 1.68938 8.31949C1.68938 8.57229 1.91004 8.77389 2.17897 8.77389H4.87861V9.58669H1.05844C0.789507 9.58669 0.568848 9.79149 0.568848 10.0411C0.568848 10.2907 0.789507 10.4955 1.05844 10.4955H4.87861C4.87861 11.2539 5.54058 11.8683 6.35772 11.8683H15.2013C16.015 11.8683 16.6804 11.2539 16.6804 10.4955V5.49389C16.6804 4.73869 16.015 4.12109 15.2013 4.12109ZM15.2013 5.05229C15.2324 5.05229 15.2634 5.05549 15.2944 5.06189L15.4082 5.08109L11.0192 8.51789L11.0088 8.52429L10.995 8.51789L6.51976 5.05229H15.2013ZM15.6771 10.4987C15.6771 10.7419 15.4634 10.9403 15.2013 10.9403H6.35772C6.09568 10.9403 5.88192 10.7419 5.88192 10.4987V5.86829L5.89571 5.72429L10.2227 9.10669C10.2227 9.10669 10.6985 9.47149 10.9743 9.47149C11.2467 9.47149 11.8087 9.08749 11.8087 9.08749L15.6771 6.01869V10.4987Z" fill="#004571"/>
</svg>
