<svg width="64" height="64" viewBox="0 0 64 64" fill="none" xmlns="http://www.w3.org/2000/svg">
<path d="M51.8127 11.2891H26.2653C22.8027 11.2891 19.9803 14.0568 19.9803 17.4443V22.6049H11.1347C7.67214 22.6049 4.86426 25.3582 4.86426 28.7601V45.7987C4.86426 49.2007 7.68669 51.954 11.1493 51.954H36.6967C40.1592 51.954 42.9817 49.1863 42.9817 45.7987V40.6526H51.8272C55.2898 40.6526 58.1123 37.8849 58.1123 34.4973V17.4443C58.0832 14.0568 55.2753 11.2891 51.8127 11.2891ZM38.7044 45.7843C38.7044 46.8799 37.8024 47.7592 36.6821 47.7592H11.1347C10.0145 47.7592 9.11246 46.8654 9.11246 45.7843V28.7601C9.11246 27.6646 10.0145 26.7853 11.1347 26.7853H19.9803V34.4973C19.9803 37.8993 22.8027 40.6526 26.2653 40.6526H38.7044V45.7843ZM53.8204 34.4829C53.8204 35.5784 52.9184 36.4578 51.7982 36.4578H26.2653C25.1451 36.4578 24.243 35.564 24.243 34.4829V17.4443C24.243 16.3488 25.1451 15.4694 26.2653 15.4694H51.8127C52.9329 15.4694 53.835 16.3488 53.835 17.4443V34.4829H53.8204Z" fill="#333333"/>
</svg>
