<?xml version="1.0" encoding="UTF-8"?>
<svg width="101px" height="98px" viewBox="0 0 101 98" version="1.1" xmlns="http://www.w3.org/2000/svg" xmlns:xlink="http://www.w3.org/1999/xlink">
    <!-- Generator: Sketch 57.1 (83088) - https://sketch.com -->
    <title>credit-card</title>
    <desc>Created with Sketch.</desc>
    <g id="Provisión-de-servicio-" stroke="none" stroke-width="1" fill="none" fill-rule="evenodd">
        <g id="2-01_UFD_TEN_EN_CUENTA_NU_01.2-" transform="translate(-670.000000, -416.000000)" fill="#004571">
            <g id="Group-3" transform="translate(638.000000, 390.000000)">
                <g id="credit-card" transform="translate(33.000000, 27.000000)">
                    <path d="M96.3720763,32.9442924 L65.0234866,2.54467681 C63.3312049,0.9037906 61.0745071,0 58.6687292,0 C56.2631446,0 54.0062534,0.903415583 52.3139718,2.54430179 L2.62408072,50.7307789 C0.931992415,52.3718526 0,54.5600759 0,56.8930557 C0,59.2260355 0.931992415,61.4146339 2.62408072,63.0553326 L6.48972229,66.804001 C6.49010901,66.8041885 6.49030237,66.8045635 6.49068908,66.8049385 C6.4910758,66.8053135 6.49146252,66.8056885 6.49184924,66.8060636 L32.4716212,91.9996953 L28.8743625,91.9996953 C27.7354755,91.9996953 26.8119909,92.895048 26.8119909,93.9996601 C26.8119909,95.1040848 27.7354755,96 28.8743625,96 L40.3191134,96 C40.3218204,96 40.3243341,96 40.3270411,96 C40.3297481,96 40.3322618,96 40.3349688,96 L70.1225679,96 C71.2614549,96 72.1849395,95.1044598 72.1849395,94.0000352 C72.1849395,92.895423 71.2614549,92.0000703 70.1225679,92.0000703 L48.1832344,91.9996953 L96.3722696,45.2688461 C99.8759424,41.8708184 99.8759424,36.341945 96.3720763,32.9442924 Z M93.4554427,42.440469 L43.765165,90.6271336 C42.853862,91.5106733 41.6356977,91.9978202 40.3345821,91.9996953 L40.31892,91.9996953 C39.0181912,91.9976327 37.8004135,91.5106733 36.8894973,90.6271336 L10.8658327,65.39075 L58.5859713,19.1142336 C59.3913133,18.3332611 59.3913133,17.0668292 58.5859713,16.2858566 C57.780436,15.504884 56.4748732,15.504884 55.6691445,16.2860441 L7.94900585,62.5625604 L5.54052088,60.2269555 C4.62767105,59.3417282 4.12493655,58.1578001 4.12493655,56.8932433 C4.12493655,55.6286864 4.62767105,54.4445708 5.54071424,53.559156 L55.2306053,5.37286636 C56.1436485,4.48763909 57.3647132,4.00011719 58.6687292,4.00011719 C59.9727451,4.00011719 61.1938099,4.48763909 62.1068531,5.37305387 L73.2642718,16.1926649 L25.5435531,62.4697438 C24.7382111,63.2505288 24.7382111,64.5169607 25.5435531,65.2983083 C25.9463208,65.6887009 26.474192,65.8838971 27.0018699,65.8838971 C27.5295477,65.8838971 28.057419,65.6885134 28.4601866,65.2981208 L76.1809053,19.0212295 L93.4554427,35.772482 C95.3509452,37.6108145 95.3507518,40.6021364 93.4554427,42.440469 Z" id="Shape" stroke="#004571" fill-rule="nonzero"></path>
                    <path d="M49.9498343,57.5637573 C49.1745822,56.8119906 47.9177992,56.8121711 47.1419887,57.5637573 L31.518939,72.7133447 C30.743687,73.4651114 30.743687,74.6840022 31.518939,75.4361299 C31.9066581,75.8121035 32.4148065,76 32.9227687,76 C33.4307309,76 33.9388793,75.811923 34.3265984,75.4361299 L49.9496481,60.2865425 C50.7250863,59.5344148 50.7250863,58.315524 49.9498343,57.5637573 Z" id="Path" stroke="#004571"></path>
                    <path d="M43.0386171,73.560363 L36.6715063,79.7343096 C35.9011646,80.4812809 35.9011646,81.692576 36.6715063,82.4397267 C37.0567697,82.8131227 37.5616996,83 38.0664446,83 C38.5715595,83 39.0761195,82.8131227 39.4613829,82.4397267 L45.8284937,76.2657801 C46.5988354,75.5188088 46.5988354,74.3075137 45.8284937,73.560363 C45.0581519,72.8132123 43.8095138,72.8132123 43.0386171,73.560363 Z" id="Path" stroke="#004571"></path>
                    <path d="M49.9942372,66.6039409 L49.0918623,67.4787439 C48.2610791,68.2841273 48.2610791,69.5899506 49.0916629,70.3957207 C49.5068551,70.7985091 50.0514707,71 50.5956875,71 C51.1399044,71 51.6843206,70.7985091 52.0995128,70.3957207 L53.0018877,69.5209177 C53.8326709,68.7155343 53.8326709,67.409711 53.0020871,66.6041342 C52.1719022,65.7987508 50.824821,65.7985575 49.9942372,66.6039409 Z" id="Path" stroke="#004571"></path>
                    <path d="M79.2066929,30.5811913 C78.8229908,30.2091098 78.302499,30 77.7597523,30 C77.2170057,30 76.6967057,30.2091098 76.3128118,30.5811913 L67.6305927,39.0002791 C67.2468906,39.3725466 67.03125,39.8770891 67.03125,40.4033983 C67.03125,40.9297076 67.2468906,41.4344361 67.6305927,41.8065176 L73.4187387,47.4188087 C73.8183645,47.8063316 74.3421178,48 74.8656793,48 C75.3896245,48 75.9129942,47.8061455 76.3126199,47.4188087 L84.9944553,39.000093 C85.7935149,38.2252333 85.7935149,36.9687141 84.9944553,36.1938545 L79.2066929,30.5811913 Z M74.8654875,43.2096369 L71.9714144,40.4033983 L77.7595605,34.7907352 L80.6534417,37.5971598 L74.8654875,43.2096369 Z" id="Shape" stroke="#004571" fill-rule="nonzero"></path>
                    <path d="M60.9082916,15 C61.452902,15 61.997313,14.7985247 62.4125011,14.3955741 L63.3148673,13.5202587 C64.1452436,12.7147443 64.1450442,11.4088286 63.3142691,10.6037008 C62.4836933,9.79857308 61.1366252,9.79876644 60.3062489,10.6042809 L59.4038827,11.4795963 C58.5735064,12.2851108 58.5737058,13.5910264 59.4044809,14.3961542 C59.8198685,14.7989114 60.3638807,15 60.9082916,15 Z" id="Path" stroke="#FFFFFF"></path>
                    <path d="M20.087798,66.6041767 L19.1854318,67.4791647 C18.3548561,68.2843469 18.3548561,69.590351 19.1854318,70.3961133 C19.6008194,70.7987044 20.1452303,71 20.6894419,71 C21.2336535,71 21.7780644,70.7987044 22.193452,70.3961133 L23.0958182,69.5211254 C23.9263939,68.7155564 23.9263939,67.4095524 23.0958182,66.6041767 C22.2650431,65.7986078 20.9185731,65.7986078 20.087798,66.6041767 Z" id="Path" stroke="#004571"></path>
                </g>
            </g>
        </g>
    </g>
</svg>