<?xml version="1.0" encoding="UTF-8"?>
<svg width="100px" height="98px" viewBox="0 0 100 98" version="1.1" xmlns="http://www.w3.org/2000/svg" xmlns:xlink="http://www.w3.org/1999/xlink">
    <!-- Generator: Sketch 57.1 (83088) - https://sketch.com -->
    <title>hiring</title>
    <desc>Created with Sketch.</desc>
    <g id="Provisión-de-servicio-" stroke="none" stroke-width="1" fill="none" fill-rule="evenodd">
        <g id="2-01_UFD_TEN_EN_CUENTA_NU_01.2-" transform="translate(-1062.000000, -416.000000)" fill="#004571" stroke-width="0.5">
            <g id="Group-6" transform="translate(1030.000000, 390.000000)">
                <g id="hiring" transform="translate(33.000000, 27.000000)">
                    <path d="M74.2736842,7 C66.3102293,7 59.8315789,13.2803243 59.8315789,21 C59.8315789,24.9820541 61.5583863,28.5783514 64.3209269,31.1301351 C64.3915761,31.2061892 64.4674947,31.2782703 64.5512199,31.342973 C67.1191824,33.6134324 70.5323983,35 74.2736842,35 C78.0149701,35 81.4281861,33.6134324 83.9963437,31.342973 C84.0800688,31.2780811 84.1559875,31.2061892 84.2266367,31.1301351 C86.9889821,28.5783514 88.7157895,24.9820541 88.7157895,21 C88.7157895,13.2803243 82.2371391,7 74.2736842,7 Z M74.2736842,31.2162162 C72.0222771,31.2162162 69.9351977,30.5260541 68.2208808,29.3555405 C69.5230122,27.3696216 71.7734435,26.1404595 74.2736842,26.1404595 C76.7739249,26.1404595 79.0243562,27.3698108 80.3264876,29.3555405 C78.6121707,30.5260541 76.5250913,31.2162162 74.2736842,31.2162162 Z M72.2650606,20.4093514 L72.2650606,19.4495946 C72.2650606,18.3759459 73.1661309,17.5024595 74.2736842,17.5024595 C75.3812376,17.5024595 76.2823078,18.3759459 76.2823078,19.4495946 L76.2823078,20.4093514 C76.2823078,21.4831892 75.3812376,22.3566757 74.2736842,22.3566757 C73.1661309,22.3566757 72.2650606,21.4831892 72.2650606,20.4093514 Z M83.0937121,26.582027 C82.0677371,25.2711351 80.7533104,24.2181081 79.2542589,23.4910541 C79.8428723,22.6003514 80.1855795,21.5431622 80.1855795,20.4093514 L80.1855795,19.4495946 C80.1855795,16.2895676 77.5335016,13.7186757 74.2736842,13.7186757 C71.0138669,13.7186757 68.3617889,16.2895676 68.3617889,19.4495946 L68.3617889,20.4093514 C68.3617889,21.5433514 68.7046913,22.6003514 69.2931095,23.4910541 C67.794058,24.2181081 66.4796313,25.2709459 65.4536563,26.582027 C64.3685468,24.9761892 63.7348506,23.0589459 63.7348506,21 C63.7348506,15.3667027 68.4624933,10.7837838 74.2736842,10.7837838 C80.0848751,10.7837838 84.8125178,15.3667027 84.8125178,21 C84.8125178,23.0589459 84.1788216,24.9761892 83.0937121,26.582027 Z" id="Shape" stroke="#F2F1EF" fill-rule="nonzero"></path>
                    <path d="M95.9577693,72.658125 C93.4321669,70.1840625 89.4648944,69.829875 86.5245152,71.8164375 C86.5028863,71.8310625 86.4816402,71.8460625 86.460777,71.8614375 L75.7313214,79.7656875 C74.8864552,80.388 74.7166781,81.563625 75.3519546,82.39125 C75.9872312,83.2186875 77.1871555,83.385375 78.0320217,82.7626875 L88.7270242,74.88375 C90.1430459,73.946625 92.0400709,74.12325 93.2509054,75.3095625 C93.8892445,75.934875 94.2148261,76.7656875 94.1677402,77.6488125 C94.1206543,78.5319375 93.7081744,79.3250625 93.0066713,79.88175 L83.2129997,87.652125 C79.4761801,90.6170625 74.769889,92.25 69.9610042,92.25 L41.6319569,92.25 C37.7860358,92.25 34.0143802,91.218375 30.7248765,89.2666875 L23.0167648,84.693375 L23.0167648,60.9628125 L37.7772311,60.9628125 C39.822213,60.9628125 41.7448864,61.743 43.1878964,63.1565625 L53.3706964,73.17825 C54.8167688,74.5948125 56.7394423,75.375 58.7844241,75.375 L66.2944306,75.375 C67.8754443,75.375 69.1615013,76.635 69.1615013,78.1835625 C69.1615013,79.732125 67.8752529,80.992125 66.2944306,80.992125 L51.8710303,80.992125 C50.5482233,80.992125 49.2631233,80.6188125 48.1544997,79.9123125 L42.0120892,75.9988125 L41.9896947,75.9845625 C41.1044419,75.418875 39.9184902,75.662625 39.3406354,76.5298125 C38.7627807,77.397 39.0119913,78.55875 39.8972441,79.1248125 L46.0672171,83.0559375 C47.7984845,84.1591875 49.8053765,84.742125 51.8710303,84.742125 L66.2942392,84.742125 C69.9860784,84.742125 72.9894302,81.8000625 72.9894302,78.1835625 C72.9894302,74.5670625 69.985887,71.625 66.2942392,71.625 L58.905967,71.625 L74.8190803,62.625 L94.1717597,62.625 C96.2825853,62.625 98,60.94275 98,58.875 L98,3.75 C98,1.68225 96.2825853,0 94.1717597,0 L53.5936844,0 C51.4828589,0 49.7655641,1.68225 49.7655641,3.75 L49.7655641,58.875 C49.7655641,60.94275 51.4828589,62.625 53.5936844,62.625 L67.1628397,62.625 L55.0246358,69.4899375 C55.0244444,69.4899375 55.0244444,69.490125 55.024253,69.490125 L45.8976313,60.50775 C43.7284269,58.3828125 40.8445125,57.212625 37.7768483,57.212625 L23.0165734,57.212625 L23.0165734,53.90625 C23.0165734,51.8385 21.2992786,50.15625 19.1884531,50.15625 L1.91406016,50.15625 C0.856924732,50.15625 0,50.995875 0,52.03125 L0,94.125 C0,95.160375 0.856924732,96 1.91406016,96 L19.1884531,96 C21.2992786,96 23.0165734,94.31775 23.0165734,92.25 L23.0165734,89.0776875 L28.7415273,92.47425 C32.6293663,94.780875 37.0866382,96 41.6319569,96 L69.9610042,96 C75.6442316,96 81.206299,94.07025 85.6224186,90.56625 L95.4160902,82.795875 C96.949061,81.579375 97.8875247,79.774875 97.9905012,77.8449375 C98.093669,75.915 97.3525449,74.0244375 95.9577693,72.658125 Z M53.5936844,58.875 L53.5936844,3.75 L94.1717597,3.75 L94.174248,58.875 C94.174248,58.875 94.1734824,58.875 94.1717597,58.875 L53.5936844,58.875 Z M19.1884531,92.25 L3.82812031,92.25 L3.82812031,53.90625 L19.1884531,53.90625 L19.1888359,59.0814375 C19.1888359,59.0835 19.1884531,59.0855625 19.1884531,59.0878125 C19.1884531,59.0900625 19.1888359,59.0919375 19.1888359,59.0941875 L19.1905585,85.6584375 C19.1882617,85.705875 19.1892187,85.753125 19.1905585,85.8001875 L19.1909414,92.25 C19.1909414,92.25 19.1901757,92.25 19.1884531,92.25 Z" id="Shape" stroke="#004571" fill-rule="nonzero"></path>
                    <path d="M45.1367666,9.92872566 C44.6167568,9.04061795 43.4646744,8.73628834 42.5640273,9.24913666 L25.6088092,18.8998576 C23.8101518,19.9238831 23.191828,22.1995779 24.2301524,23.9726367 L40.685325,52.0712284 C41.0341327,52.66689 41.6671471,53 42.3180539,53 C42.6374803,53 42.961427,52.9196005 43.2580642,52.7508174 C44.1588997,52.237969 44.4675907,51.1025355 43.9473926,50.2144278 L27.4922201,22.1158362 L44.4474382,12.4651152 C45.3482736,11.9524526 45.6569647,10.8168334 45.1367666,9.92872566 Z" id="Path" stroke="#004571"></path>
                    <path d="M86.84075,48.65925 C86.42225,48.24075 85.84175,48 85.25,48 C84.65825,48 84.07775,48.240525 83.65925,48.65925 C83.24075,49.07775 83,49.65825 83,50.25 C83,50.84175 83.24075,51.42225 83.65925,51.840525 C84.07775,52.259025 84.65825,52.5 85.25,52.5 C85.84175,52.5 86.42225,52.25925 86.84075,51.840525 C87.25925,51.42225 87.5,50.84175 87.5,50.25 C87.5,49.65825 87.25925,49.07775 86.84075,48.65925 Z" id="Path" stroke="#004571"></path>
                    <path d="M74.2366227,48 L63.0923246,48 C61.9367337,48 61,49.00755 61,50.25 C61,51.49245 61.9367337,52.5 63.0923246,52.5 L74.2366227,52.5 C75.3922136,52.5 76.3289474,51.49245 76.3289474,50.25 C76.3289474,49.00755 75.3922136,48 74.2366227,48 Z" id="Path" stroke="#004571"></path>
                    <path d="M85.7646978,40 L63.0458285,40 C61.9159174,40 61,40.98516 61,42.2 C61,43.41484 61.9159174,44.4 63.0458285,44.4 L85.7646978,44.4 C86.8946089,44.4 87.8105263,43.41484 87.8105263,42.2 C87.8105263,40.98516 86.8946089,40 85.7646978,40 Z" id="Path" stroke="#004571"></path>
                    <path d="M11.5342105,69 C10.2915355,69 9.28421053,69.8331867 9.28421053,70.8606225 L9.28421053,78.1393775 C9.28421053,79.1668133 10.2915355,80 11.5342105,80 C12.7768855,80 13.7842105,79.1668133 13.7842105,78.1393775 L13.7842105,70.8606225 C13.7842105,69.8330007 12.7768855,69 11.5342105,69 Z" id="Path" stroke="#004571"></path>
                    <path d="M13.1268819,83.65925 C12.7059214,83.24075 12.1273821,83 11.533085,83 C10.9410389,83 10.3624997,83.24075 9.94153919,83.65925 C9.52282984,84.07775 9.28421053,84.65825 9.28421053,85.25 C9.28421053,85.844 9.52282984,86.42225 9.94153919,86.84075 C10.3602485,87.259025 10.9410389,87.5 11.533085,87.5 C12.1273821,87.5 12.7059214,87.25925 13.1268819,86.84075 C13.5455912,86.42225 13.7842105,85.843775 13.7842105,85.25 C13.7842105,84.65825 13.5455912,84.07775 13.1268819,83.65925 Z" id="Path" stroke="#004571"></path>
                </g>
            </g>
        </g>
    </g>
</svg>