<?xml version="1.0" encoding="UTF-8"?>
<svg width="112px" height="98px" viewBox="0 0 112 98" version="1.1" xmlns="http://www.w3.org/2000/svg" xmlns:xlink="http://www.w3.org/1999/xlink">
    <!-- Generator: Sketch 57.1 (83088) - https://sketch.com -->
    <title>pc</title>
    <desc>Created with Sketch.</desc>
    <g id="Provisión-de-servicio-" stroke="none" stroke-width="1" fill="none" fill-rule="evenodd">
        <g id="2-01_UFD_TEN_EN_CUENTA_NU_01.2-" transform="translate(-275.000000, -416.000000)" fill="#004571">
            <g id="pc" transform="translate(276.000000, 417.000000)">
                <path d="M98.3653516,0 L11.6346484,0 C5.21919922,0 0,5.03971528 0,11.2340801 L0,57.1914541 L0,64.3404895 C0,70.5348543 5.21919922,75.5745696 11.6346484,75.5745696 L39.7274023,75.5745696 L36.3427539,91.9149554 L25.3846484,91.9149554 C24.2163281,91.9149554 23.2692969,92.8293814 23.2692969,93.9574777 C23.2692969,95.085574 24.2163281,96 25.3846484,96 L84.6153516,96 C85.7836719,96 86.7307031,95.085574 86.7307031,93.9574777 C86.7307031,92.8293814 85.7836719,91.9149554 84.6153516,91.9149554 L73.6572461,91.9149554 L70.2725977,75.5745696 L98.3653516,75.5745696 C104.780586,75.5745696 110,70.5350618 110,64.3404895 L110,57.1914541 L110,11.2340801 C110,5.03971528 104.780801,0 98.3653516,0 Z M40.6572461,91.9149554 L44.0418945,75.5745696 L65.9581055,75.5745696 L69.3427539,91.9149554 L40.6572461,91.9149554 Z M105.769297,64.3404895 C105.769297,68.2823958 102.448027,71.489525 98.3653516,71.489525 L11.6346484,71.489525 C7.5521875,71.489525 4.23070313,68.2826032 4.23070313,64.3404895 L4.23070313,59.2341838 L105.769297,59.2341838 L105.769297,64.3404895 L105.769297,64.3404895 Z M105.769297,55.1491392 L4.23070313,55.1491392 L4.23070313,51.0640946 L16.9230273,51.0640946 C18.0913477,51.0640946 19.0383789,50.1496686 19.0383789,49.0215723 C19.0383789,47.893476 18.0913477,46.97905 16.9230273,46.97905 L4.23070313,46.97905 L4.23070313,11.2340801 C4.23070313,7.29217385 7.55197266,4.08504459 11.6346484,4.08504459 L98.3653516,4.08504459 C102.447812,4.08504459 105.769297,7.2919664 105.769297,11.2340801 L105.769297,55.1491392 Z" id="Shape" stroke="#004571" stroke-width="0.5" fill-rule="nonzero"></path>
                <path d="M53.5,63 C52.1215214,63 51,64.1215214 51,65.5 C51,66.8784786 52.1215214,68 53.5,68 C54.8784786,68 56,66.8784786 56,65.5 C56,64.1215214 54.8784786,63 53.5,63 Z" id="Path"></path>
                <path d="M72.0362249,39.0418992 L67.6510087,34.6323902 L71.3053905,30.9579753 C71.8367728,30.4236492 72.0379045,29.641477 71.8306843,28.9150386 C71.6234641,28.1888112 71.0406441,27.6327406 70.3083401,27.4625838 L51.3058066,23.0530748 C50.6115035,22.8924181 49.8833984,23.1018418 49.3790996,23.6087232 C48.8752207,24.1156046 48.6663209,24.847532 48.8265124,25.5461036 L53.2121485,44.6536945 C53.3811579,45.3898441 53.934165,45.9761039 54.6566014,46.184472 C55.3792477,46.392629 56.1566909,46.1903832 56.6882832,45.6562683 L60.342455,41.9816422 L64.7276712,46.3911512 C65.1314042,46.7971208 65.660477,47 66.18934,47 C66.7182029,47 67.2474857,46.7971208 67.6510087,46.3911512 L72.0362249,41.9816422 C72.8432709,41.1699143 72.8432709,39.8538383 72.0362249,39.0418992 Z M66.18934,41.9816422 L61.8041238,37.5721332 C61.4003908,37.1661637 60.8713179,36.9632845 60.342455,36.9632845 C59.8135921,36.9632845 59.2843093,37.1661637 58.8807863,37.5721332 L56.4021219,40.0647398 L53.5992955,27.8520866 L65.7446668,30.6702288 L63.2657925,33.1626242 C62.4585365,33.9743522 62.4585365,35.2906393 63.2657925,36.1023672 L67.6510087,40.5118763 L66.18934,41.9816422 Z" id="Shape" stroke="#F2F1EF" fill-rule="nonzero"></path>
                <path d="M45.1538231,18.1547543 L43.4242926,16.48813 C42.7488869,15.83729 41.6536581,15.83729 40.9782524,16.48813 C40.3028467,17.13897 40.3028467,18.1941941 40.9782524,18.8452033 L42.7079585,20.5118277 C43.0457492,20.8373323 43.4884078,21 43.9308908,21 C44.3733738,21 44.816208,20.8373323 45.1538231,20.5118277 C45.8292288,19.861157 45.8292288,18.8057636 45.1538231,18.1547543 Z" id="Path"></path>
                <path d="M43.682125,25.1547543 L41.9525945,23.48813 C41.2771888,22.83729 40.18196,22.83729 39.5065543,23.48813 C38.8311486,24.13897 38.8311486,25.1941941 39.5065543,25.8452033 L41.2362604,27.5118277 C41.5740511,27.8373323 42.0167097,28 42.4591927,28 C42.9016757,28 43.3445099,27.8373323 43.682125,27.5118277 C44.3575307,26.861157 44.3575307,25.8057636 43.682125,25.1547543 Z" id="Path" transform="translate(41.594340, 25.500000) rotate(-45.000000) translate(-41.594340, -25.500000) "></path>
                <path d="M45.1538059,30.48813 C44.478553,29.83729 43.3834628,29.83729 42.7078586,30.48813 L40.9782695,32.1547543 C40.302841,32.8055943 40.302841,33.8609877 40.9782695,34.5118277 C41.3160717,34.8373323 41.7587453,35 42.2012432,35 C42.6437412,35 43.0865904,34.8373323 43.4242169,34.5118277 L45.1538059,32.8452033 C45.8292345,32.1945326 45.8292345,31.1391393 45.1538059,30.48813 Z" id="Path"></path>
                <path d="M59.682125,16.48813 C59.0067192,15.83729 57.9116661,15.83729 57.2360848,16.48813 L55.5065543,18.1547543 C54.8311486,18.8055943 54.8311486,19.8609877 55.5065543,20.5118277 C55.844345,20.8373323 56.2870036,21 56.7296622,21 C57.1723208,21 57.6149795,20.8373323 57.9525945,20.5118277 L59.682125,18.8452033 C60.3575307,18.1945326 60.3575307,17.1391393 59.682125,16.48813 Z" id="Path"></path>
                <path d="M52.2690574,15.5727231 L50.539527,13.9060987 C49.8641213,13.2552588 48.7688925,13.2552588 48.0934868,13.9060987 C47.4180811,14.5569387 47.4180811,15.6121628 48.0934868,16.2631721 L49.8231929,17.9297964 C50.1609836,18.2553011 50.6036422,18.4179688 51.0461252,18.4179688 C51.4886081,18.4179688 51.9314424,18.2553011 52.2690574,17.9297964 C52.9444632,17.2791257 52.9444632,16.2237324 52.2690574,15.5727231 Z" id="Path" transform="translate(50.181272, 15.917969) rotate(-315.000000) translate(-50.181272, -15.917969) "></path>
                <path d="M26.9499797,49.0118854 C26.9200183,48.8518895 26.869998,48.6944332 26.8075361,48.5418021 C26.7450741,48.3917107 26.6676315,48.2466985 26.5774934,48.1115908 C26.4876092,47.9739435 26.3824904,47.8464547 26.267469,47.73141 C26.1524477,47.6163653 26.0249848,47.5114791 25.8873654,47.4213226 C25.7522852,47.3314202 25.6073025,47.2537078 25.4549563,47.1912332 C25.3048954,47.1287586 25.1474711,47.0787282 24.9875076,47.0487607 C24.6650416,46.9837464 24.3349584,46.9837464 24.0124924,47.0487607 C23.8525289,47.0787282 23.6951046,47.1287586 23.5450437,47.1912332 C23.3924436,47.2537078 23.2474609,47.3311662 23.1126346,47.4213226 C22.9750152,47.5112251 22.8475523,47.6163653 22.732531,47.73141 C22.6175096,47.8464547 22.5126447,47.9739435 22.4225066,48.1115908 C22.3326224,48.2466985 22.2549259,48.3917107 22.1924639,48.5418021 C22.130002,48.6944332 22.0799817,48.8518895 22.0500203,49.0118854 C22.0175198,49.1718813 22,49.3369565 22,49.4994921 C22,49.6620276 22.0175198,49.8271028 22.0500203,49.9870987 C22.0799817,50.1470947 22.130002,50.304551 22.1924639,50.4546424 C22.2549259,50.6072735 22.3323685,50.7522857 22.4225066,50.8871394 C22.5123908,51.0247867 22.6175096,51.1522755 22.732531,51.2673202 C22.8475523,51.3823649 22.9750152,51.4872511 23.1126346,51.5774076 C23.2477148,51.66731 23.3926975,51.7450223 23.5450437,51.807497 C23.6951046,51.8699716 23.8525289,51.920002 24.0124924,51.9525091 C24.1724558,51.9850163 24.3374975,52 24.5,52 C24.6625025,52 24.8275442,51.9850163 24.9875076,51.9525091 C25.1474711,51.920002 25.3048954,51.8699716 25.4549563,51.807497 C25.6075564,51.7450223 25.7525391,51.667564 25.8873654,51.5774076 C26.0249848,51.4875051 26.1524477,51.3823649 26.267469,51.2673202 C26.3824904,51.1522755 26.4873553,51.0247867 26.5774934,50.8871394 C26.6673776,50.7520317 26.7450741,50.6070195 26.8075361,50.4546424 C26.869998,50.304551 26.9200183,50.1470947 26.9499797,49.9870987 C26.9824802,49.8271028 27,49.6620276 27,49.4994921 C27,49.3369565 26.9824802,49.1718813 26.9499797,49.0118854 Z" id="Path"></path>
            </g>
        </g>
    </g>
</svg>