<?xml version="1.0" encoding="UTF-8"?>
<svg width="104px" height="101px" viewBox="0 0 104 101" version="1.1" xmlns="http://www.w3.org/2000/svg" xmlns:xlink="http://www.w3.org/1999/xlink">
    <!-- Generator: Sketch 57.1 (83088) - https://sketch.com -->
    <title>analysis</title>
    <desc>Created with Sketch.</desc>
    <g id="Provisión-de-servicio-" stroke="none" stroke-width="1" fill="none" fill-rule="evenodd">
        <g id="2-01_UFD_TEN_EN_CUENTA_NU_01.2-" transform="translate(-474.000000, -415.000000)" fill="#004571" stroke="#004571">
            <g id="Group-2" transform="translate(444.000000, 390.000000)">
                <g id="analysis" transform="translate(31.000000, 26.000000)">
                    <path d="M101.640093,6.73442883 C101.378587,6.43878269 101.004398,6.2541247 100.599956,6.22125365 L77.9764111,4.38105464 L77.5662848,1.27609345 C77.4607077,0.47732681 76.6934465,-0.088828774 75.8567481,0.0115246236 L54.869851,2.52442011 C54.7872166,2.50392404 54.7025519,2.4884553 54.6144357,2.48130102 L25.7683397,0.134694401 C24.9377323,0.0650851075 24.1836683,0.673392986 24.1130128,1.46287839 L23.6829893,6.25818525 L1.33942657,8.93350241 C0.512676781,9.0325023 -0.0921580945,9.77364791 0.0115916946,10.5615864 L11.4167593,96.9560005 C11.4685327,97.3500664 11.3798073,97.7286636 11.5489337,98.1097745 C11.7860761,98.6436391 12.3505074,99 12.9594029,99 L88.0630834,99 C88.9087152,99 89.5937481,98.3476062 89.5937481,97.5422654 L89.5937481,95.6436719 L92.5582308,95.8847908 C93.3888382,95.9534333 94.1429022,95.3464789 94.2135577,94.5566068 L101.994386,7.7980975 C102.029104,7.41273272 101.901803,7.03026832 101.640093,6.73442883 Z M11.4287382,73.6742056 L3.24022016,11.6442043 L11.4287382,10.6638734 L11.4287382,73.6742056 L11.4287382,73.6742056 Z M27.0330314,3.16366545 L40.4291392,4.25324424 L26.7889859,5.88654896 L27.0330314,3.16366545 Z M74.7199672,3.08612843 L75.5020497,9.01007263 L25.2410634,9.01007263 L74.7199672,3.08612843 Z M91.2937422,92.8558197 L89.5937481,92.7175679 L89.5937481,50.1176473 C89.5937481,49.3124998 88.9087152,48.6599127 88.0630834,48.6599127 C87.2174515,48.6599127 86.5324187,49.3123065 86.5324187,50.1176473 L86.5324187,96.0843374 L14.4900676,96.0843374 L14.4900676,11.9255419 L86.5326217,11.9255419 L86.5326217,43.3150792 C86.5326217,44.12042 87.2176546,44.7728138 88.0632864,44.7728138 C88.9089183,44.7728138 89.5939511,44.12042 89.5939511,43.3150792 L89.5939511,10.4678072 C89.5939511,9.66265976 88.9089183,9.01007263 88.0632864,9.01007263 L78.58754,9.01007263 L78.3668433,7.33886952 L98.8140791,9.00214491 L91.2937422,92.8558197 Z" id="Shape" fill-rule="nonzero"></path>
                    <path d="M79.6549928,16 L71.5031106,16 C70.9919961,16 70.5147395,16.2465553 70.2315078,16.6574155 L66.7719048,21.669988 C63.048128,19.0933973 58.4890508,17.5747029 53.5692942,17.5747029 C52.7250732,17.5747029 52.0408163,18.2354476 52.0408163,19.0510971 L52.0408163,39.5236059 C52.0408163,40.3390595 52.7248705,41 53.5692942,41 L74.7640257,41 C75.6084494,41 76.2925036,40.3392554 76.2925036,39.5236059 C76.2925036,33.2379151 73.5420949,27.5618562 69.1437928,23.5566548 L72.3213805,18.9527883 L79.6551956,18.9527883 C80.4994165,18.9527883 81.1836735,18.2920436 81.1836735,17.4763941 C81.1836735,16.6607446 80.4992138,16 79.6549928,16 Z M73.1767524,38.0472117 L55.0977721,38.0472117 L55.0977721,20.5842831 C58.8045186,20.860801 62.2241813,22.1376401 65.073934,24.1302533 L63.7100832,26.1064163 C63.2841206,26.7232941 63.4090102,27.5777188 63.9973697,28.0549667 C64.6862897,28.6138776 65.754947,28.4664144 66.2534915,27.7443737 L67.4206818,26.0531494 C70.670446,29.1712218 72.8028947,33.3746074 73.1767524,38.0472117 Z" id="Shape" fill-rule="nonzero"></path>
                    <path d="M79.6728014,65.0401413 L66.0060122,65.0401413 L63.5979158,61.2664638 C67.4988477,57.3072922 69.9025352,51.9234469 69.9025352,46 C69.9025352,45.1824517 69.2263603,44.5201688 68.391663,44.5201688 L48.9519356,44.5201688 L48.9519356,25.4798312 C48.9519356,24.6624791 48.2755603,24 47.4410635,24 C35.0558803,24 24.9795918,33.8692708 24.9795918,46 C24.9795918,58.1307292 35.0558803,68 47.4410635,68 C52.6763085,68 57.4985136,66.2365296 61.3220882,63.2845225 L63.8873042,67.3045441 C64.1634657,67.7371675 64.6476502,68 65.1685093,68 L79.6728014,68 C80.5072982,68 81.1836735,67.3377171 81.1836735,66.5201688 C81.1836735,65.7026205 80.5072982,65.0401413 79.6728014,65.0401413 Z M58.3921307,53.1080577 C57.9500317,52.4145647 57.0175357,52.2041417 56.3100972,52.637354 C55.6024583,53.07037 55.3872207,53.9835116 55.82952,54.676612 L59.7102108,60.7580724 C56.3616019,63.433703 52.0895153,65.0405339 47.4412639,65.0405339 C36.7222686,65.0405339 28.0015365,56.4989695 28.0015365,46.0001963 C28.0015365,35.9992148 35.9146264,27.7744627 45.9303918,27.0167828 L45.9303918,46.0001963 C45.9303918,46.8175483 46.6067671,47.4800275 47.4412639,47.4800275 L66.8228732,47.4800275 C66.485387,51.7593483 64.6969505,55.6464815 61.9405458,58.6693493 L58.3921307,53.1080577 Z" id="Shape" fill-rule="nonzero"></path>
                    <path d="M33.905565,72 L21.2577003,72 C20.439242,72 19.7755102,72.6713092 19.7755102,73.5 C19.7755102,74.3286908 20.4390454,75 21.2577003,75 L33.905565,75 C34.7242199,75 35.3877551,74.3286908 35.3877551,73.5 C35.3877551,72.6713092 34.7242199,72 33.905565,72 Z" id="Path"></path>
                    <path d="M53.6810752,72 L41.0332105,72 C40.2145556,72 39.5510204,72.6713092 39.5510204,73.5 C39.5510204,74.3286908 40.2145556,75 41.0332105,75 L53.6810752,75 C54.4997302,75 55.1632653,74.3286908 55.1632653,73.5 C55.1632653,72.6713092 54.4997302,72 53.6810752,72 Z" id="Path"></path>
                    <path d="M43.1807475,80 L21.3498648,80 C20.4805136,80 19.7755102,80.6713092 19.7755102,81.5 C19.7755102,82.3286908 20.4803048,83 21.3498648,83 L43.1807475,83 C44.0503074,83 44.755102,82.3286908 44.755102,81.5 C44.755102,80.6713092 44.0500986,80 43.1807475,80 Z" id="Path"></path>
                    <path d="M53.5620176,80 L48.4379824,80 C47.553781,80 46.8367347,80.6713092 46.8367347,81.5 C46.8367347,82.3286908 47.5535686,83 48.4379824,83 L53.5620176,83 C54.4464314,83 55.1632653,82.3286908 55.1632653,81.5 C55.1630529,80.6713092 54.4464314,80 53.5620176,80 Z" id="Path"></path>
                    <path d="M27.6480551,87 L21.2703123,87 C20.4448897,87 19.7755102,87.6713092 19.7755102,88.5 C19.7755102,89.3286908 20.4446914,90 21.2703123,90 L27.6480551,90 C28.473676,90 29.1428571,89.3286908 29.1428571,88.5 C29.1428571,87.6713092 28.473676,87 27.6480551,87 Z" id="Path"></path>
                    <path d="M53.6864154,87 L34.7829723,87 C33.9674628,87 33.3061224,87.6713092 33.3061224,88.5 C33.3061224,89.3286908 33.9672669,90 34.7829723,90 L53.6864154,90 C54.5021208,90 55.1632653,89.3286908 55.1632653,88.5 C55.1632653,87.6713092 54.5021208,87 53.6864154,87 Z" id="Path"></path>
                </g>
            </g>
        </g>
    </g>
</svg>