<?xml version="1.0" encoding="UTF-8"?>
<svg width="85px" height="98px" viewBox="0 0 85 98" version="1.1" xmlns="http://www.w3.org/2000/svg" xmlns:xlink="http://www.w3.org/1999/xlink">
    <!-- Generator: Sketch 57.1 (83088) - https://sketch.com -->
    <title>worker</title>
    <desc>Created with Sketch.</desc>
    <g id="Provisión-de-servicio-" stroke="none" stroke-width="1" fill="none" fill-rule="evenodd">
        <g id="2-01_UFD_TEN_EN_CUENTA_NU_01.2-" transform="translate(-874.000000, -416.000000)" fill="#004571">
            <g id="Group-4" transform="translate(835.000000, 390.000000)">
                <g id="worker" transform="translate(40.000000, 27.000000)">
                    <path d="M61.2125,81 C60.0671,81 59.1375,81.896 59.1375,83 C59.1375,84.104 60.0671,85 61.2125,85 C62.3579,85 63.2875,84.104 63.2875,83 C63.2875,81.896 62.3579,81 61.2125,81 Z" id="Path"></path>
                    <path d="M21.7875,81 C20.6421,81 19.7125,81.896 19.7125,83 C19.7125,84.104 20.6421,85 21.7875,85 C22.9329,85 23.8625,84.104 23.8625,83 C23.8625,81.896 22.9329,81 21.7875,81 Z" id="Path"></path>
                    <path d="M79.3727024,70.726875 C77.1481048,67.459875 74.0911357,64.8639375 70.510081,63.1875 C70.208119,62.9214375 69.8197976,62.743125 69.388,62.6975625 C66.7978071,61.6543125 64.0675024,61.125 61.2619048,61.125 L55.3333333,61.125 L55.3333333,56.1781875 C58.7641976,53.3851875 61.230681,49.6858125 62.4266714,45.5625 L63.2380952,45.5625 C67.596781,45.5625 71.1428571,42.198 71.1428571,38.0625 C71.1428571,36.10275 70.3456619,34.317 69.0437476,32.979375 C69.16805,32.87925 69.2893881,32.775 69.4059833,32.6645625 C70.5260881,31.6018125 71.1428571,30.189375 71.1428571,28.6875 C71.1428571,26.2194375 69.4579571,24.118875 67.1226929,23.36325 C66.4245048,14.74125 60.0467452,7.37325 51.2655429,5.064 C50.7452119,2.4855 48.5024333,0 45.452381,0 L37.547619,0 C34.4975667,0 32.2547881,2.4855 31.7344571,5.064 C22.9540452,7.3730625 16.5768786,14.73975 15.8775048,23.360625 C15.0273476,23.6341875 14.2477405,24.090375 13.5940167,24.7104375 C12.4739119,25.7731875 11.8571429,27.185625 11.8571429,28.6875 C11.8571429,30.4055625 12.6741,31.9453125 13.9578333,32.977875 C12.6551286,34.3155 11.8571429,36.102 11.8571429,38.0625 C11.8571429,42.198 15.403219,45.5625 19.7619048,45.5625 L20.5677952,45.5625 C21.5661667,49.0044375 23.4591595,52.164375 26.0999429,54.7745625 C26.5961643,55.2654375 27.1222262,55.7330625 27.6666667,56.1766875 L27.6666667,61.125 L21.7380952,61.125 C18.9323,61.125 16.2019952,61.6543125 13.612,62.697375 C13.1804,62.743125 12.791881,62.92125 12.4901167,63.1873125 C8.90866667,64.8639375 5.85189524,67.459875 3.62729762,70.7266875 C1.2542881,74.21175 0,78.2180625 0,82.3125 L0,94.125 C0,95.160375 0.884740476,96 1.97619048,96 L81.0238095,96 C82.1152595,96 83,95.160375 83,94.125 L83,82.3125 C83,78.2180625 81.7457119,74.21175 79.3727024,70.726875 Z M11.8571429,92.25 L3.95238095,92.25 L3.95238095,82.3125 C3.95238095,76.6093125 7.03168095,71.1429375 11.8571429,67.897875 L11.8571429,92.25 Z M63.2380952,41.8125 L63.147981,41.8125 C63.2068714,41.1886875 63.2380952,40.562625 63.2380952,39.9375 L63.2380952,34.3125 C65.4174381,34.3125 67.1904762,35.99475 67.1904762,38.0625 C67.1904762,40.13025 65.4174381,41.8125 63.2380952,41.8125 Z M31.6190476,9.0260625 L31.6190476,17.4375 C31.6190476,18.4730625 32.5037881,19.3125 33.5952381,19.3125 C34.6866881,19.3125 35.5714286,18.4730625 35.5714286,17.4375 L35.5714286,6.5743125 C35.5714286,6.5694375 35.5714286,6.5645625 35.5714286,6.5596875 L35.5714286,6.1875 C35.5714286,5.02575 36.6057667,3.75 37.547619,3.75 L45.452381,3.75 C46.3942333,3.75 47.4285714,5.02575 47.4285714,6.1875 L47.4285714,6.5596875 C47.4285714,6.5645625 47.4285714,6.5694375 47.4285714,6.5743125 L47.4285714,17.4375 C47.4285714,18.4730625 48.3133119,19.3125 49.4047619,19.3125 C50.4962119,19.3125 51.3809524,18.4730625 51.3809524,17.4375 L51.3809524,9.0260625 C57.7620714,11.168625 62.3685714,16.647375 63.1276262,23.0625 L19.8723738,23.0625 C20.6314286,16.647375 25.2379286,11.168625 31.6190476,9.0260625 Z M19.7619048,41.8125 C17.5825619,41.8125 15.8095238,40.13025 15.8095238,38.0625 C15.8095238,35.99475 17.5825619,34.3125 19.7619048,34.3125 L19.7619048,39.9375 C19.7619048,40.562625 19.7931286,41.188875 19.852019,41.8125 L19.7619048,41.8125 Z M19.7619048,30.5625 L17.7857143,30.5625 C16.6960429,30.5625 15.8095238,29.721375 15.8095238,28.6875 C15.8095238,28.18725 16.0152452,27.7164375 16.3887452,27.36225 C16.7624429,27.0076875 17.2584667,26.8125 17.7857143,26.8125 L65.2142857,26.8125 C66.3039571,26.8125 67.1904762,27.653625 67.1904762,28.6875 C67.1904762,29.18775 66.9847548,29.6585625 66.6112548,30.01275 C66.2377548,30.3673125 65.7415333,30.5625 65.2142857,30.5625 L63.2380952,30.5625 L61.2619048,30.5625 L21.7380952,30.5625 L19.7619048,30.5625 Z M24.0733595,43.3468125 C24.0694071,43.326375 24.0656524,43.306125 24.0609095,43.2860625 C23.8314738,42.185625 23.7142857,41.0593125 23.7142857,39.9375 L23.7142857,34.3125 L59.2857143,34.3125 L59.2857143,39.9375 C59.2857143,41.058375 59.1685262,42.1839375 58.9390905,43.2853125 C58.9343476,43.3055625 58.9305929,43.326 58.9266405,43.3464375 C58.043481,47.529 55.5993286,51.273 52.0402095,53.891625 C48.9482619,56.1705 45.3035738,57.375 41.5,57.375 C37.6964262,57.375 34.0517381,56.1705 30.9568262,53.8895625 C30.2483619,53.3694375 29.5740857,52.794 28.951981,52.1784375 C26.4590167,49.7143125 24.772931,46.661625 24.0733595,43.3468125 Z M39.5238095,92.25 L23.7142857,92.25 L23.7142857,87.9375 C23.7142857,86.9019375 22.8295452,86.0625 21.7380952,86.0625 C20.6466452,86.0625 19.7619048,86.9019375 19.7619048,87.9375 L19.7619048,92.25 L15.8095238,92.25 L15.8095238,65.901375 C17.0920714,65.4425625 18.4133524,65.13675 19.7619048,64.986 L19.7619048,76.6875 C19.7619048,77.7230625 20.6466452,78.5625 21.7380952,78.5625 C22.8295452,78.5625 23.7142857,77.7230625 23.7142857,76.6875 L23.7142857,64.875 L28.7960595,64.875 L39.5238095,75.5625 L39.5238095,92.25 Z M31.6190476,62.25 L31.6190476,58.757625 C34.6685071,60.3129375 38.0272405,61.125 41.5,61.125 C44.9729571,61.125 48.3318881,60.31275 51.3809524,58.7578125 L51.3809524,62.25 L41.5,72.09375 L31.6190476,62.25 Z M67.1904762,92.25 L63.2380952,92.25 L63.2380952,87.9375 C63.2380952,86.9019375 62.3533548,86.0625 61.2619048,86.0625 C60.1704548,86.0625 59.2857143,86.9019375 59.2857143,87.9375 L59.2857143,92.25 L43.4761905,92.25 L43.4761905,75.5625 L54.2039405,64.875 L59.2857143,64.875 L59.2857143,76.6875 C59.2857143,77.7230625 60.1704548,78.5625 61.2619048,78.5625 C62.3533548,78.5625 63.2380952,77.7230625 63.2380952,76.6875 L63.2380952,64.986 C64.5866476,65.13675 65.907731,65.44275 67.1904762,65.9015625 L67.1904762,92.25 Z M79.047619,92.25 L71.1428571,92.25 L71.1428571,67.8976875 C75.968319,71.14275 79.047619,76.609125 79.047619,82.3125 L79.047619,92.25 Z" id="Shape" stroke="#004571" fill-rule="nonzero"></path>
                </g>
            </g>
        </g>
    </g>
</svg>