<?xml version="1.0" encoding="UTF-8"?>
<svg width="210px" height="210px" viewBox="0 0 210 210" version="1.1" xmlns="http://www.w3.org/2000/svg" xmlns:xlink="http://www.w3.org/1999/xlink">
    <!-- Generator: Sketch 63.1 (92452) - https://sketch.com -->
    <title>Group 36</title>
    <desc>Created with Sketch.</desc>
    <g id="Mi-conexión-a-la-red" stroke="none" stroke-width="1" fill="none" fill-rule="evenodd">
        <g id="2-05_UFD_TEN_A_MANO_NU_01.3-" transform="translate(-249.000000, -482.000000)">
            <g id="Group-36" transform="translate(249.000000, 482.000000)">
                <circle id="Oval" fill="#FFFFFF" cx="105" cy="105" r="105"></circle>
                <g id="Group-4" transform="translate(30.000000, 102.000000)" stroke="#004571">
                    <path d="M80.2765991,27.8814902 L77.0592727,4.87504584 C76.7257886,3.40000284 77.8415565,2 79.3500262,2 L121.587463,2 C123.095908,2 124.211724,3.40000284 123.878216,4.87504584 C122.0714,18.6504369 120.998958,26.3192517 120.66089,27.8814902 C120.322821,29.4437286 119.965421,31.0124785 119.58869,32.5877396 L81.34869,32.5877396 L80.2765991,27.8814902 Z M82.2890617,6.70624956 L85.0887052,27.8814902 L115.848345,27.8814902 L118.647988,6.70624956 L82.2890617,6.70624956 Z M100.468449,18.4689935 C102.553513,18.4689935 103.987198,17.4627514 103.987198,16.7065099 C103.987198,15.9471323 102.553513,14.9409063 100.468449,14.9409063 C98.3833857,14.9409063 96.9497,15.9471483 96.9497,16.7065099 C96.9497,17.4627594 98.3833857,18.4689935 100.468449,18.4689935 Z" id="Fill-1" stroke-width="0.5" fill="#004571"></path>
                    <line x1="76.5" y1="31.5" x2="124.5" y2="31.5" id="Line-4" stroke-width="5" stroke-linecap="round"></line>
                    <path d="M148.052713,37 C149.349245,37 150.399556,38.0531221 150.399556,39.3531248 C150.399556,40.6531274 149.349245,41.7062495 148.052713,41.7062495 L2.3468434,41.7062495 C1.05031096,41.7062495 0,40.6531274 0,39.3531248 C0,38.0531221 1.05031096,37 2.3468434,37 L148.052713,37 Z" id="Fill-1" stroke-width="0.8" fill="#004571"></path>
                    <line x1="3.09034842" y1="30.7172102" x2="36.4137859" y2="30.7172102" id="Path-7" stroke-width="5.6" stroke-linecap="round"></line>
                    <line x1="13" y1="42.7913949" x2="13" y2="67.7913949" id="Path-7" stroke-width="5.6" stroke-linecap="round"></line>
                    <line x1="138" y1="42.7913949" x2="138" y2="67.7913949" id="Path-7" stroke-width="5.6" stroke-linecap="round"></line>
                    <line x1="42.4770672" y1="0.329302561" x2="46.3223797" y2="31.7879077" id="Path-7" stroke-width="5.6" stroke-linecap="round"></line>
                    <line x1="3.09034842" y1="21.7172102" x2="36.4137859" y2="21.7172102" id="Path-7" stroke-width="5.6" stroke-linecap="round"></line>
                    <line x1="3.09034842" y1="12.7172102" x2="36.4137859" y2="12.7172102" id="Path-7" stroke-width="5.6" stroke-linecap="round"></line>
                </g>
                <path d="M98.0002691,99.4800533 C98.0002691,96.13565 99.0571911,92.8755243 101.01925,90.1849611 C102.981309,87.4943236 105.742475,85.5156204 108.895936,84.5363479 L110.193441,84.1644252 C106.673203,79.9715919 105.312711,74.3374836 106.527138,68.9676637 L110.104643,53.4748517 L110.107507,53.4748517 C111.359183,47.2189631 115.40077,41.9073119 121.052157,39.1007832 C126.700537,36.2910559 133.314475,36.2997589 138.953983,39.1269338 C144.596644,41.9541414 148.624225,47.2742725 149.85537,53.5329877 L153.464406,68.9677797 C154.678832,74.3374509 153.321192,79.9714848 149.798102,84.1645413 L151.095607,84.536464 C154.252074,85.5127611 157.0161,87.4944396 158.978159,90.1850772 C160.940218,92.8757148 162,96.1329394 162,99.4801693 L167,132.140386 C167,133.168976 166.177941,134 165.166848,134 C164.152895,134 163.333697,133.168976 163.333697,132.140386 L158.333697,99.4801693 C158.333697,96.9319037 157.528796,94.4534109 156.036537,92.404935 C154.541346,90.3564592 152.441874,88.845486 150.038685,88.0987396 L148.915916,87.7703988 L145.733711,86.9161667 C144.946975,86.4280157 144.506825,85.9543846 144.413261,85.4952733 C144.272907,84.8066361 144.5307,84.0947611 145.074911,83.6588677 C147.088518,82.0520129 148.609448,79.8989524 149.457317,77.4494695 C150.308046,74.9999866 150.454112,72.3529383 149.87837,69.8220787 L146.300864,54.3143898 C145.30121,49.1742693 142.004397,44.7983756 137.378548,42.4738587 C132.74984,40.1493419 127.321878,40.1377379 122.68767,42.4477081 C118.050383,44.754819 114.739124,49.1191087 113.722092,54.2532785 L110.130288,69.8160119 C109.554564,72.3467972 109.700644,74.9909444 110.551336,77.4404273 C111.399132,79.8899102 112.920135,82.0458717 114.930882,83.6527265 C115.477961,84.0856669 115.732923,84.797579 115.592533,85.4861567 C115.455046,86.1777023 114.942336,86.7268908 114.272077,86.9099512 L111.08122,87.7729606 L109.958451,88.1013014 C107.5582,88.8451423 105.458654,90.3561155 103.963463,92.4045914 C102.47113,94.4530672 101.666303,96.9315601 101.666303,99.4798257 L97.6663035,131.140043 C97.6663035,132.168632 96.8471046,132.999656 95.8331517,132.999656 C94.8220586,132.999656 94,132.168632 94,131.140043 L98.0002691,99.4800533 Z M138.527588,85.0654452 C138.524723,85.4867666 138.753864,85.8790633 139.123362,86.0766286 C139.590244,86.3381349 139.922469,86.7943204 140.031359,87.3231647 C140.143064,87.8548952 140.019901,88.4069475 139.693369,88.8370389 L132.44956,98.4460338 C131.86524,99.2218645 130.960161,99.6779905 129.997683,99.6779905 C129.035205,99.6779905 128.127282,99.221805 127.542946,98.4460338 L120.307717,88.8429897 C119.981188,88.4129503 119.858022,87.8608906 119.969727,87.3320909 C120.078573,86.8003604 120.410828,86.3470908 120.877724,86.0855548 C121.247221,85.8850661 121.476365,85.4957077 121.473498,85.0714703 L121.473498,79.9546322 C118.904226,77.6417193 117.108324,74.573357 116.340674,71.1765126 C116.320623,71.0893414 116.309166,70.9992691 116.303437,70.9091895 L115.862337,65.2199623 L115.862337,65.1386005 L115.862337,65.0427114 L115.782133,60.7743033 C115.759218,59.8938834 116.102934,59.0454534 116.730239,58.438178 C117.354654,57.8308952 118.20248,57.5199752 119.067507,57.5810449 C121.473482,57.7234244 126.400114,57.1945949 132.2662,52.0777791 C132.959358,51.4646898 133.881646,51.1944582 134.789643,51.3368377 C135.69764,51.4821181 136.496747,52.0225739 136.975127,52.8187265 C138.284144,54.936975 140.157331,56.6338352 142.377205,57.7147169 C143.525784,58.3161829 144.236167,59.5278401 144.210356,60.8382725 L144.064276,67.8961008 C143.949704,72.5219266 141.944713,76.8921671 138.527571,79.9545786 L138.527588,85.0654452 Z M140.538342,60.9660443 C137.97479,59.6614139 135.783587,57.7175227 134.17386,55.3116291 C127.964021,60.518547 122.507682,61.366977 119.465383,61.3146847 L119.531262,64.9147477 L119.960909,70.5080931 C120.596786,73.1929287 122.057595,75.6017233 124.134189,77.3886631 C124.758605,77.9174925 125.122405,78.6990955 125.125264,79.5243176 L125.125264,85.0740738 C125.1224,86.0997577 124.801596,87.0993372 124.208688,87.9303613 L130.000275,95.5748605 L135.771843,87.9214351 C135.176069,87.090411 134.855267,86.090906 134.855267,85.0652176 L134.855267,79.5241644 C134.860995,78.6931403 135.233351,77.9115076 135.86636,77.3885099 C138.647618,75.0087997 140.294595,71.5365293 140.391972,67.8464611 L140.538342,60.9660443 Z" id="Shape" stroke="#004571" stroke-width="1.2" fill="#004571" fill-rule="nonzero"></path>
            </g>
        </g>
    </g>
</svg>