<svg width="20" height="20" viewBox="0 0 20 20" fill="none" xmlns="http://www.w3.org/2000/svg">
<path fill-rule="evenodd" clip-rule="evenodd" d="M18.128 15.9002L11.104 2.35222C10.832 2.01622 10.432 1.82422 10 1.82422C9.56801 1.82422 9.16401 2.01622 8.89601 2.35222L1.872 15.9002C1.868 15.9042 1.552 16.4722 1.552 16.7882C1.552 17.5682 2.188 18.2042 2.972 18.2042H17.032C17.816 18.2042 18.452 17.5682 18.452 16.7882C18.448 16.4722 18.136 15.9042 18.128 15.9002ZM17.028 17.0162H2.972C2.816 17.0162 2.744 16.8802 2.744 16.7842C2.744 16.7362 2.756 16.6962 2.788 16.6562L9.80401 3.11622C9.80801 3.11222 9.81601 3.10422 9.82001 3.09622C9.88001 3.02022 9.95601 3.00822 10 3.00822C10.04 3.00822 10.12 3.02022 10.18 3.09622C10.184 3.10022 10.192 3.10822 10.196 3.11622L17.216 16.6562C17.244 16.6962 17.26 16.7402 17.26 16.7842C17.26 16.8842 17.188 17.0162 17.028 17.0162ZM10 13.9522C9.60801 13.9522 9.29201 14.2682 9.29201 14.6602C9.29201 15.0522 9.60801 15.3682 10 15.3682C10.392 15.3682 10.708 15.0522 10.708 14.6602C10.708 14.2682 10.392 13.9522 10 13.9522ZM10 12.7882C10.324 12.7882 10.588 12.5282 10.588 12.2042V7.73222C10.588 7.40822 10.324 7.14822 10 7.14822C9.67601 7.14822 9.41201 7.40822 9.41201 7.73222V12.2042C9.41201 12.5242 9.67601 12.7882 10 12.7882Z" fill="#004571"/>
</svg>
