<svg width="16" height="15" viewBox="0 0 16 15" fill="none" xmlns="http://www.w3.org/2000/svg">
<path d="M11.3168 12.5546C11.3223 12.6064 11.3173 12.6589 11.3019 12.7089C11.2866 12.7588 11.2613 12.8054 11.2274 12.8458C11.1935 12.8862 11.1518 12.9197 11.1046 12.9443C11.0574 12.9689 11.0057 12.9842 10.9524 12.9893C10.845 12.9993 10.738 12.9676 10.6544 12.9012C10.5708 12.8347 10.5175 12.7389 10.506 12.6344L10.4368 11.9707C10.4125 11.6528 10.3107 11.3452 10.1399 11.0733C9.96912 10.8014 9.73427 10.5731 9.4548 10.4072C8.83172 10.0204 7.939 9.82337 6.80397 9.82337C5.66894 9.82337 4.77621 10.0204 4.15131 10.4108C3.86983 10.5776 3.63356 10.8078 3.46236 11.082C3.29117 11.3562 3.19004 11.6665 3.16749 11.9867L3.09825 12.6451C3.08785 12.7428 3.0405 12.8333 2.96541 12.8989C2.89031 12.9645 2.79285 13.0005 2.69198 13H2.65007C2.54263 12.9892 2.44396 12.9374 2.37566 12.8559C2.30736 12.7744 2.27501 12.6699 2.2857 12.5652L2.35675 11.9068C2.39101 11.4675 2.53173 11.0424 2.76736 10.6663C3.00299 10.2903 3.3268 9.97403 3.71223 9.74351C4.46831 9.26968 5.50861 9.03366 6.80943 9.03366C8.11026 9.03366 9.14144 9.27323 9.90663 9.74351C10.292 9.97364 10.6158 10.2896 10.8515 10.6653C11.0871 11.0411 11.2279 11.466 11.2621 11.905L11.3168 12.5546ZM5.00941 7.47906C4.54492 6.9866 4.29533 6.33743 4.31345 5.66891C4.31404 5.27153 4.43371 4.88296 4.65779 4.55089C4.88329 4.21299 5.19373 3.93687 5.55962 3.74875C5.93209 3.55683 6.34707 3.45651 6.76844 3.45651C7.18981 3.45651 7.60479 3.55683 7.97726 3.74875C8.34674 3.93448 8.66057 4.21021 8.8882 4.54911C9.11228 4.88119 9.23196 5.26976 9.23254 5.66714C9.25057 6.33512 9.00096 6.9837 8.53658 7.47551C8.31198 7.71133 8.03982 7.89946 7.73714 8.0281C7.43447 8.15675 7.10778 8.22315 6.77755 8.22315C6.44731 8.22315 6.12063 8.15675 5.81795 8.0281C5.51527 7.89946 5.24312 7.71133 5.01852 7.47551L5.00941 7.47906ZM5.12966 5.66891C5.11175 6.13734 5.28388 6.59381 5.60881 6.93956C5.75713 7.09461 5.93663 7.21826 6.13614 7.3028C6.33564 7.38734 6.55088 7.43097 6.76844 7.43097C6.98601 7.43097 7.20124 7.38734 7.40074 7.3028C7.60025 7.21826 7.77975 7.09461 7.92807 6.93956C8.253 6.59381 8.42513 6.13734 8.40722 5.66891C8.40772 5.42445 8.33352 5.18538 8.19407 4.98213C8.04455 4.75679 7.83733 4.5733 7.59284 4.44973C7.33987 4.32069 7.05856 4.25328 6.77299 4.25328C6.48743 4.25328 6.20612 4.32069 5.95315 4.44973C5.70865 4.5733 5.50144 4.75679 5.35193 4.98213C5.20925 5.18437 5.13185 5.42353 5.12966 5.66891Z" fill="#004571"/>
<path fill-rule="evenodd" clip-rule="evenodd" d="M13.4806 2.20516C13.601 2.00933 13.8613 1.94164 14.0665 2.05493L14.0675 2.05551L14.0686 2.05611C14.2725 2.17148 14.3467 2.42636 14.2245 2.62886C14.2243 2.62911 14.2242 2.62935 14.224 2.6296L12.0968 6.18867C12.0271 6.30774 11.9087 6.37285 11.7922 6.39148C11.7907 6.3918 11.789 6.39213 11.7873 6.39245C11.782 6.39345 11.7755 6.39448 11.768 6.39527C11.7606 6.39606 11.7519 6.39665 11.7422 6.39665H11.7279C11.7264 6.39673 11.7248 6.39682 11.7237 6.39688C11.7159 6.39725 11.6974 6.39803 11.6739 6.39502C11.6737 6.395 11.6735 6.39498 11.6734 6.39496C11.6655 6.39403 11.6584 6.3928 11.6521 6.39148C11.5598 6.37652 11.4645 6.33256 11.3926 6.24905C11.3924 6.24882 11.3923 6.24859 11.3921 6.24836L9.61375 4.19977C9.45966 4.02226 9.48363 3.75769 9.66706 3.60906C9.84907 3.46157 10.1198 3.48382 10.2732 3.66055L11.6577 5.25518L13.4798 2.20636L13.4806 2.20516ZM11.6268 6.38475C11.6267 6.3847 11.6267 6.38469 11.6268 6.38472L11.6268 6.38475ZM11.8089 6.38743C11.8097 6.3872 11.8103 6.38703 11.8105 6.38699L11.8102 6.38705L11.8089 6.38743ZM9.92416 3.94809L9.92419 3.94811ZM11.7703 5.96195L11.7702 5.96193C11.7703 5.96197 11.7704 5.96198 11.7703 5.96195Z" fill="#004571"/>
</svg>
