<svg width="16" height="15" viewBox="0 0 16 15" fill="none" xmlns="http://www.w3.org/2000/svg">
<path d="M13.0414 12.3458L12.9664 11.6018C12.8584 10.5518 12.3604 9.73581 11.4844 9.17781C10.6564 8.64981 9.5224 8.38281 8.1094 8.38281C6.6964 8.38281 5.5624 8.65281 4.7344 9.18081C3.8584 9.74181 3.3604 10.5578 3.2554 11.6078L3.1804 12.3458C3.1564 12.5888 3.3334 12.8078 3.5794 12.8348C3.5944 12.8378 3.6094 12.8378 3.6244 12.8378C3.8494 12.8378 4.0444 12.6668 4.0684 12.4388L4.1434 11.7008C4.2244 10.9238 4.5754 10.3478 5.2174 9.93381C5.8984 9.49881 6.8734 9.27681 8.1124 9.27681C9.3514 9.27681 10.3264 9.49881 11.0074 9.93381C11.6494 10.3448 12.0004 10.9208 12.0814 11.6978L12.1564 12.4418C12.1804 12.6848 12.3994 12.8648 12.6424 12.8408C12.8884 12.8078 13.0684 12.5888 13.0414 12.3458Z" fill="#004571"/>
<path d="M8.07646 7.49053C8.83846 7.49053 9.48346 7.20853 9.99646 6.65353C10.5005 6.10753 10.7555 5.42653 10.7555 4.62553C10.7555 4.18153 10.6295 3.75853 10.3805 3.37453C10.1375 2.99653 9.80746 2.69353 9.39646 2.47453C8.98846 2.25553 8.54446 2.14453 8.07646 2.14453C7.60846 2.14453 7.16446 2.25553 6.75646 2.47453C6.34546 2.69353 6.01546 2.99653 5.77246 3.37453C5.52346 3.76153 5.39746 4.18153 5.39746 4.62553C5.39746 5.42653 5.65246 6.11053 6.15646 6.65353C6.66646 7.20853 7.31446 7.49053 8.07646 7.49053ZM6.51946 3.85453C6.68146 3.60253 6.89746 3.40753 7.17646 3.25753C7.45846 3.10753 7.75246 3.03553 8.07646 3.03553C8.40046 3.03553 8.69446 3.10753 8.97646 3.25753C9.25546 3.40753 9.47146 3.60253 9.63346 3.85453C9.78946 4.09753 9.86746 4.34953 9.86746 4.62253C9.86746 5.20153 9.69646 5.66653 9.34546 6.04753C9.00046 6.41953 8.58646 6.59953 8.07646 6.59953C7.56646 6.59953 7.15246 6.41953 6.81046 6.04753C6.45946 5.66653 6.28846 5.20153 6.28846 4.62253C6.28546 4.34953 6.36346 4.09753 6.51946 3.85453Z" fill="#004571"/>
</svg>
