<?xml version="1.0" encoding="UTF-8"?>
<svg width="30px" height="30px" viewBox="0 0 30 30" version="1.1" xmlns="http://www.w3.org/2000/svg" xmlns:xlink="http://www.w3.org/1999/xlink">
    <!-- Generator: Sketch 57.1 (83088) - https://sketch.com -->
    <title>Group</title>
    <desc>Created with Sketch.</desc>
    <g id="Symbols" stroke="none" stroke-width="1" fill="none" fill-rule="evenodd">
        <g id="ico-/-usuario_publico-copy">
            <g id="Group">
                <circle id="Oval" fill="#009AA6" cx="15" cy="15" r="15"></circle>
                <path d="M12.802025,6.53342169 C12.1364336,6.88882536 11.5992176,7.37956067 11.2039733,7.99139883 C10.8008241,8.61714959 10.5959295,9.30044792 10.5959295,10.0216897 C10.5959295,11.3206205 11.0101455,12.4279369 11.8271945,13.3117032 C12.6594209,14.2119116 13.7069764,14.668814 14.9426681,14.668814 C16.1761465,14.668814 17.2255991,14.2119116 18.0568769,13.3117032 C18.8742421,12.4273045 19.2878257,11.3206205 19.2878257,10.0216897 C19.2878257,9.30108031 19.0835635,8.61778198 18.6791495,7.99139883 C18.2854862,7.37956067 17.747954,6.88882536 17.0826788,6.53342169 C16.4211979,6.17928281 15.7018533,6 14.9426681,6 C14.1834829,6 13.4628735,6.17928281 12.802025,6.53342169 M12.887714,12.3314973 C12.3179298,11.7142838 12.039994,10.9592092 12.039994,10.0216897 C12.039994,9.57553794 12.1639427,9.16764584 12.4178476,8.77366633 C12.6815546,8.36514183 13.0306343,8.0489464 13.48311,7.8064245 C13.9390638,7.56263782 14.4168351,7.44438073 14.9426681,7.44438073 C15.4681849,7.44438073 15.94564,7.56263782 16.4015938,7.8064245 C16.8537533,8.0489464 17.2025169,8.36514183 17.4659077,8.77429872 C17.7210774,9.16827823 17.845026,9.57617034 17.845026,10.0216897 C17.845026,10.9592092 17.5661416,11.7142838 16.9966736,12.3314973 C16.4411183,12.9322687 15.769203,13.2247494 14.9426681,13.2247494 C14.1155009,13.2247494 13.4429532,12.9322687 12.887714,12.3314973 M9.52687275,17.4076988 C8.10842004,18.3164445 7.3014893,19.6403547 7.12726561,21.3414862 L7.0036332,22.5376535 C6.96410877,22.9338464 7.25153042,23.2886176 7.64803949,23.3290907 C7.67428371,23.3322526 7.69894696,23.3335174 7.723294,23.3335174 C8.08881592,23.3335174 8.40248179,23.0558978 8.44074144,22.6853168 L8.56374146,21.488517 C8.6927492,20.2287944 9.26284956,19.292856 10.3053459,18.6234702 C11.4110813,17.9158249 12.9911099,17.556943 14.9995833,17.556943 C17.0109024,17.556943 18.5906148,17.9145601 19.696034,18.6206245 C20.7388466,19.2852673 21.3083145,20.2212057 21.4376385,21.4799798 L21.5603223,22.684052 C21.6001629,23.0802448 21.9543018,23.3698799 22.3508109,23.3290907 C22.7476362,23.2886176 23.036955,22.9351111 22.9961658,22.5376535 L22.8741143,21.3326327 C22.6989421,19.6308689 21.8913789,18.3082234 20.4722938,17.4029559 C19.131309,16.5470148 17.2904192,16.1122461 14.9995833,16.1122461 C12.709696,16.1122461 10.8681738,16.548912 9.52687275,17.4076988" id="Fill-1" fill="#FFFFFF"></path>
            </g>
        </g>
    </g>
</svg>
