<?xml version="1.0" encoding="UTF-8"?>
<svg width="40px" height="40px" viewBox="0 0 40 40" version="1.1" xmlns="http://www.w3.org/2000/svg" xmlns:xlink="http://www.w3.org/1999/xlink">
    <!-- Generator: Sketch 57.1 (83088) - https://sketch.com -->
    <title>Group 5</title>
    <desc>Created with Sketch.</desc>
    <g id="Mi-consumo" stroke="none" stroke-width="1" fill="none" fill-rule="evenodd">
        <g id="1-04_Consumo_Por-meses_tabla" transform="translate(-1280.000000, -804.000000)">
            <g id="Group-5" transform="translate(1280.000000, 804.000000)">
                <rect id="Rectangle-Copy-4" fill="#004571" fill-rule="nonzero" x="0" y="0" width="40" height="40" rx="5"></rect>
                <path d="M30.3635806,18.8943223 L30.3635806,25.6077749 C30.3635806,26.1205115 29.9474169,26.536266 29.4342711,26.536266 C28.9211253,26.536266 28.5045524,26.1205115 28.5045524,25.6077749 L28.5045524,18.8943223 C28.5045524,18.3819949 28.9211253,17.965422 29.4342711,17.965422 C29.9474169,17.965422 30.3635806,18.3819949 30.3635806,18.8943223 L30.3635806,18.8943223 Z M26.8198465,21.7923274 L26.8198465,25.613913 C26.8198465,26.1266496 26.4032737,26.5428133 25.8901279,26.5428133 C25.3769821,26.5428133 24.9608184,26.1266496 24.9608184,25.613913 L24.9608184,21.7923274 C24.9608184,21.2795908 25.3769821,20.8638363 25.8901279,20.8638363 C26.4032737,20.8638363 26.8198465,21.2795908 26.8198465,21.7923274 L26.8198465,21.7923274 Z M23.0633248,16.8994373 L23.0633248,25.6773402 C23.0633248,26.1904859 22.6479795,26.6062404 22.1340153,26.6062404 C21.6220972,26.6062404 21.2051151,26.1904859 21.2051151,25.6773402 L21.2051151,16.8994373 C21.2051151,16.3867008 21.6220972,15.9701279 22.1340153,15.9701279 C22.6479795,15.9701279 23.0633248,16.3867008 23.0633248,16.8994373 L23.0633248,16.8994373 Z M19.3080307,20.5532481 L19.3080307,25.613913 C19.3080307,26.1266496 18.8922762,26.5428133 18.3787212,26.5428133 C17.8659847,26.5428133 17.4485934,26.1266496 17.4485934,25.613913 L17.4485934,20.5532481 C17.4485934,20.0405115 17.8659847,19.6243478 18.3787212,19.6243478 C18.8922762,19.6243478 19.3080307,20.0405115 19.3080307,20.5532481 L19.3080307,20.5532481 Z M15.5523274,14.731867 L15.5523274,25.5754476 C15.5523274,26.0881841 15.1357545,26.5043478 14.6226087,26.5043478 C14.1094629,26.5043478 13.6937084,26.0881841 13.6937084,25.5754476 L13.6937084,14.731867 C13.6937084,14.2191304 14.1094629,13.803376 14.6226087,13.803376 C15.1357545,13.803376 15.5523274,14.2191304 15.5523274,14.731867 L15.5523274,14.731867 Z M11.7958056,18.9507928 L11.7958056,25.6638363 C11.7958056,26.1765729 11.3800512,26.5927366 10.8664962,26.5927366 C10.3541688,26.5927366 9.93759591,26.1765729 9.93759591,25.6638363 L9.93759591,18.9507928 C9.93759591,18.4380563 10.3541688,18.0223018 10.8664962,18.0223018 C11.3800512,18.0223018 11.7958056,18.4380563 11.7958056,18.9507928 L11.7958056,18.9507928 Z M32.3167263,26.820665 C32.3167263,27.6922762 31.6083887,28.4014322 30.7359591,28.4014322 L9.56521739,28.4014322 C8.71734015,28.4014322 8.02823529,27.7295141 7.99058824,26.8894118 L7.98445013,13.0434783 C7.98445013,12.1722762 8.69442455,11.4623018 9.56521739,11.4623018 L30.7359591,11.4623018 C31.6083887,11.4623018 32.3167263,12.1722762 32.3167263,13.0434783 L32.3167263,26.820665 Z M30.7359591,9.56521739 L9.56521739,9.56521739 C7.64685422,9.56521739 6.08695652,11.1251151 6.08695652,13.0434783 L6.08695652,26.820665 C6.08695652,28.7382097 7.64685422,30.2985166 9.56521739,30.2985166 L30.7359591,30.2985166 C32.6535038,30.2985166 34.2134015,28.7382097 34.2134015,26.820665 L34.2134015,13.0434783 C34.2134015,11.1251151 32.6535038,9.56521739 30.7359591,9.56521739 L30.7359591,9.56521739 Z" id="Fill-1" fill="#FFFFFF"></path>
            </g>
        </g>
    </g>
</svg>